M48
; DRILL file {KiCad 7.0.8} date Thu 09 Nov 2023 06:47:38 PM WIB
; FORMAT={-:-/ absolute / inch / decimal}
; #@! TF.CreationDate,2023-11-09T18:47:38+07:00
; #@! TF.GenerationSoftware,Kicad,Pcbnew,7.0.8
; #@! TF.FileFunction,Plated,1,2,PTH
FMAT,2
INCH
; #@! TA.AperFunction,Plated,PTH,ViaDrill
T1C0.0157
; #@! TA.AperFunction,Plated,PTH,ComponentDrill
T2C0.0276
; #@! TA.AperFunction,Plated,PTH,ComponentDrill
T3C0.0299
; #@! TA.AperFunction,Plated,PTH,ComponentDrill
T4C0.0315
; #@! TA.AperFunction,Plated,PTH,ComponentDrill
T5C0.0394
; #@! TA.AperFunction,Plated,PTH,ComponentDrill
T6C0.0430
; #@! TA.AperFunction,Plated,PTH,ComponentDrill
T7C0.0591
; #@! TA.AperFunction,Plated,PTH,ComponentDrill
T8C0.1260
%
G90
G05
T1
X1.2766Y-3.405
X1.3434Y-3.41
X2.1806Y-3.14
X2.195Y-4.28
X2.205Y-5.18
X2.2081Y-3.36
X2.2416Y-5.33
X2.3084Y-3.145
X2.3084Y-3.37
X2.3084Y-4.335
X2.3084Y-5.18
X2.31Y-1.855
X2.31Y-1.98
X2.31Y-5.33
X2.32Y-2.555
X2.96Y-1.6
X2.96Y-1.83
X2.9781Y-4.345
X2.99Y-2.36
X2.99Y-2.84
X2.9966Y-2.1
X3.0036Y-2.6986
X3.0111Y-1.5489
X3.0116Y-3.62
X3.0116Y-4.225
X3.045Y-4.99
X3.0634Y-1.83
X3.0634Y-2.105
X3.0634Y-2.365
X3.08Y-2.84
X3.0885Y-2.9465
X3.1134Y-4.23
X3.1134Y-4.35
X3.1134Y-4.99
X3.115Y-3.625
X3.125Y-2.795
X3.64Y-5.24
X3.645Y-5.155
X3.6456Y-4.53
X3.679Y-4.175
X3.679Y-4.825
X3.679Y-4.905
X3.679Y-4.96
X3.7066Y-4.43
X3.7066Y-5.01
X3.7734Y-4.18
X3.7734Y-4.475
X3.7734Y-4.535
X3.7739Y-4.8239
X3.825Y-1.73
X3.825Y-3.17
X3.83Y-1.545
X3.83Y-2.59
X3.8325Y-3.3975
X3.8561Y-4.96
X3.8561Y-5.01
X3.885Y-4.915
X3.9Y-3.445
X3.9023Y-1.725
X3.9023Y-3.17
X3.91Y-1.545
X3.915Y-2.595
X3.93Y-2.515
X4.255Y-4.7866
X4.26Y-4.92
X4.33Y-4.7531
X4.3358Y-4.9086
X4.395Y-1.6834
X4.405Y-1.5366
X4.445Y-4.69
X4.4966Y-4.7256
X4.505Y-4.9361
X4.53Y-4.1334
X4.5339Y-4.0489
X4.5389Y-2.5484
X4.54Y-2.48
X4.5634Y-4.69
X4.58Y-1.835
X4.585Y-3.485
X4.5866Y-1.47
X4.5866Y-2.435
X4.64Y-4.478
X4.64Y-4.5449
X4.65Y-3.205
X4.6534Y-1.47
X4.6534Y-1.84
X4.6534Y-2.445
X4.66Y-3.49
X4.895Y-4.7866
X5.11Y-4.7866
X5.235Y-4.9361
X5.28Y-4.97
X5.28Y-5.015
X5.2889Y-3.4211
X5.29Y-3.34
X5.3116Y-2.82
X5.334Y-4.29
X5.39Y-5.195
X5.395Y-4.475
X5.4016Y-2.82
X5.4016Y-3.29
X5.4134Y-4.97
X5.42Y-5.015
X5.435Y-4.925
X5.4684Y-2.83
X5.4684Y-3.315
X5.4684Y-4.295
X5.47Y-3.015
X5.4714Y-2.0264
X5.4786Y-2.1136
X5.48Y-4.48
X5.4816Y-1.89
X5.545Y-5.22
X5.5484Y-1.895
X5.815Y-5.084
X5.825Y-5.26
X6.0466Y-3.67
X6.055Y-1.96
X6.0586Y-3.5814
X6.065Y-2.061
X6.065Y-4.445
X6.065Y-5.145
X6.0696Y-4.295
X6.07Y-2.7266
X6.1031Y-2.36
X6.1031Y-2.8338
X6.1366Y-2.71
X6.1366Y-3.81
X6.1366Y-4.21
X6.1366Y-4.5
X6.185Y-5.145
X6.2034Y-2.355
X6.2034Y-2.72
X6.2034Y-3.815
X6.2034Y-4.215
X6.2034Y-4.445
X6.231Y-4.3
X6.2611Y-1.7511
X6.27Y-1.675
X6.2704Y-4.495
X6.6389Y-4.6039
X6.7364Y-4.5064
X6.8011Y-4.7711
X6.8169Y-4.5269
X6.83Y-2.1766
X6.835Y-2.271
X6.845Y-4.445
X6.8647Y-4.6303
X6.8889Y-3.7961
X6.895Y-4.605
X6.9155Y-4.2798
X6.9315Y-2.8662
X6.945Y-4.545
X6.9461Y-3.7589
X6.949Y-4.18
X6.9746Y-2.665
X6.9746Y-2.93
X6.9746Y-3.52
X6.985Y-2.1766
X6.985Y-2.2434
X7.014Y-2.48
X7.0416Y-2.555
X7.0416Y-2.705
X7.0434Y-4.19
X7.0986Y-4.3786
X7.1084Y-2.705
X7.1084Y-3.515
X7.11Y-2.555
X7.115Y-2.495
X7.115Y-2.66
X7.12Y-3.255
X7.375Y-4.1566
X7.3786Y-4.3199
X7.385Y-5.41
X7.4436Y-5.3564
X7.6064Y-2.4764
X7.6536Y-2.5236
X7.7339Y-3.2889
X7.735Y-3.435
X7.8Y-3.935
X7.8231Y-3.3512
X7.905Y-4.415
X7.91Y-3.935
X7.91Y-4.26
X7.945Y-2.77
X7.9466Y-2.67
X7.9466Y-2.72
X7.9466Y-2.855
X7.95Y-3.63
X8.02Y-3.0
X8.02Y-4.725
X8.05Y-3.63
X8.065Y-3.24
X8.075Y-4.85
X8.0984Y-2.665
X8.1Y-3.35
X8.105Y-4.605
X8.125Y-3.29
X8.126Y-2.77
X8.126Y-2.855
X8.13Y-2.72
X8.14Y-5.055
X8.145Y-4.66
X8.15Y-3.565
X8.19Y-4.845
X8.212Y-3.305
X8.22Y-2.4416
X8.224Y-2.175
X8.23Y-4.035
X8.23Y-5.055
X8.235Y-4.235
X8.255Y-4.605
X8.275Y-4.66
X8.32Y-2.21
T2
X1.4465Y-2.8
X1.4465Y-3.6
X1.4465Y-4.4
X1.6465Y-1.95
X1.7535Y-2.8
X1.7535Y-3.6
X1.7535Y-4.4
X1.9535Y-1.95
X2.4465Y-1.5
X2.4465Y-2.3
X2.4465Y-3.15
X2.4465Y-3.9
X2.4465Y-4.7
X2.7535Y-1.5
X2.7535Y-2.3
X2.7535Y-3.15
X2.7535Y-3.9
X2.7535Y-4.7
X3.2465Y-1.3
X3.2465Y-2.1
X3.2465Y-2.85
X3.2465Y-3.65
X3.2465Y-4.5
X3.5535Y-1.3
X3.5535Y-2.1
X3.5535Y-2.85
X3.5535Y-3.65
X3.5535Y-4.5
X4.0465Y-1.05
X4.0465Y-1.8
X4.0465Y-2.6
X4.0465Y-3.4
X4.0465Y-4.2
X4.3535Y-1.05
X4.3535Y-1.8
X4.3535Y-2.6
X4.3535Y-3.4
X4.3535Y-4.2
X4.8465Y-1.1
X4.8465Y-1.9
X4.8465Y-2.7
X4.8465Y-3.5
X4.8465Y-4.3
X5.1535Y-1.1
X5.1535Y-1.9
X5.1535Y-2.7
X5.1535Y-3.5
X5.1535Y-4.3
X5.6465Y-1.3
X5.6465Y-2.1
X5.6465Y-2.9
X5.6465Y-3.7
X5.6465Y-4.5
X5.9535Y-1.3
X5.9535Y-2.1
X5.9535Y-2.9
X5.9535Y-3.7
X5.9535Y-4.5
X6.4414Y-5.2586
X6.4465Y-1.5
X6.4465Y-2.3
X6.4465Y-3.1
X6.4465Y-3.85
X6.6586Y-5.0414
X6.7535Y-1.5
X6.7535Y-2.3
X6.7535Y-3.1
X6.7535Y-3.85
X7.0414Y-4.5586
X7.0414Y-5.8086
X7.2465Y-1.9
X7.2465Y-2.7
X7.2465Y-3.5
X7.2586Y-4.3414
X7.2586Y-5.5914
X7.5414Y-5.2586
X7.5535Y-1.9
X7.5535Y-2.7
X7.5535Y-3.5
X7.5914Y-6.3086
X7.7586Y-5.0414
X7.8086Y-6.0914
X8.1414Y-5.8086
X8.3586Y-5.5914
T3
X7.9941Y-3.8248
X7.9941Y-3.9248
X7.9941Y-4.0248
X7.9941Y-4.1752
X7.9941Y-4.2752
X7.9941Y-4.3752
X8.0941Y-3.7748
X8.0941Y-3.8748
X8.0941Y-3.9748
X8.0941Y-4.2252
X8.0941Y-4.3252
X8.0941Y-4.4252
T4
X3.9254Y-5.0996
X3.9254Y-5.3996
X4.0254Y-5.0996
X4.0254Y-5.3996
X4.1254Y-5.0996
X4.1254Y-5.3996
X4.2254Y-5.0996
X4.2254Y-5.3996
X4.3254Y-5.0996
X4.3254Y-5.3996
X4.4254Y-5.0996
X4.4254Y-5.3996
X4.5254Y-5.0996
X4.5254Y-5.3996
X4.6254Y-5.0996
X4.6254Y-5.3996
X4.7254Y-5.0996
X4.7254Y-5.3996
X4.8254Y-5.0996
X4.8254Y-5.3996
X4.9254Y-5.0996
X4.9254Y-5.3996
X5.0254Y-5.0996
X5.0254Y-5.3996
X5.1254Y-5.0996
X5.1254Y-5.3996
X5.2254Y-5.0996
X5.2254Y-5.3996
T5
X7.9455Y-3.4435
X8.0455Y-3.4435
X8.1455Y-3.4435
X8.2455Y-3.4435
X8.2722Y-4.75
X8.2722Y-4.85
X8.2722Y-4.95
T6
X7.7955Y-2.06
X7.7955Y-2.16
X7.7955Y-2.26
X7.7955Y-2.36
X7.7955Y-2.46
X7.7955Y-2.56
X7.7955Y-2.66
X7.7955Y-2.76
X7.7955Y-2.86
X7.7955Y-2.96
X7.7955Y-3.06
X7.7955Y-3.16
X8.3955Y-2.06
X8.3955Y-2.16
X8.3955Y-2.26
X8.3955Y-2.36
X8.3955Y-2.46
X8.3955Y-2.56
X8.3955Y-2.66
X8.3955Y-2.76
X8.3955Y-2.86
X8.3955Y-2.96
X8.3955Y-3.06
X8.3955Y-3.16
T8
X1.275Y-2.625
X1.75Y-5.325
X2.1Y-1.8
X3.725Y-1.225
X5.45Y-1.3
X6.4Y-4.925
X7.0577Y-1.7915
X7.7Y-4.4
X8.085Y-2.285
T7
G00X1.4819Y-3.0425
M15
G01X1.45Y-3.1
M16
G05
G00X1.4819Y-3.8425
M15
G01X1.45Y-3.9
M16
G05
G00X1.4819Y-4.6425
M15
G01X1.45Y-4.7
M16
G05
G00X1.5Y-3.0
M15
G01X1.5016Y-3.0228
M16
G05
G00X1.5Y-3.8
M15
G01X1.5016Y-3.8228
M16
G05
G00X1.5Y-4.6
M15
G01X1.5016Y-4.6228
M16
G05
G00X1.6819Y-2.2425
M15
G01X1.65Y-2.3
M16
G05
G00X1.7Y-3.0
M15
G01X1.6984Y-3.0228
M16
G05
G00X1.7Y-3.8
M15
G01X1.6984Y-3.8228
M16
G05
G00X1.7Y-4.6
M15
G01X1.6984Y-4.6228
M16
G05
G00X1.7Y-2.2
M15
G01X1.7016Y-2.2228
M16
G05
G00X1.7181Y-3.0425
M15
G01X1.75Y-3.1
M16
G05
G00X1.7181Y-3.8425
M15
G01X1.75Y-3.9
M16
G05
G00X1.7181Y-4.6425
M15
G01X1.75Y-4.7
M16
G05
G00X1.9Y-2.2
M15
G01X1.8984Y-2.2228
M16
G05
G00X1.9181Y-2.2425
M15
G01X1.95Y-2.3
M16
G05
G00X2.4819Y-1.7425
M15
G01X2.45Y-1.8
M16
G05
G00X2.4819Y-2.5425
M15
G01X2.45Y-2.6
M16
G05
G00X2.4819Y-3.3425
M15
G01X2.45Y-3.4
M16
G05
G00X2.4819Y-4.1425
M15
G01X2.45Y-4.2
M16
G05
G00X2.4819Y-4.9425
M15
G01X2.45Y-5.0
M16
G05
G00X2.5Y-1.7
M15
G01X2.5016Y-1.7228
M16
G05
G00X2.5Y-2.5
M15
G01X2.5016Y-2.5228
M16
G05
G00X2.5Y-3.3
M15
G01X2.5016Y-3.3228
M16
G05
G00X2.5Y-4.1
M15
G01X2.5016Y-4.1228
M16
G05
G00X2.5Y-4.9
M15
G01X2.5016Y-4.9228
M16
G05
G00X2.7Y-1.7
M15
G01X2.6984Y-1.7228
M16
G05
G00X2.7Y-2.5
M15
G01X2.6984Y-2.5228
M16
G05
G00X2.7Y-3.3
M15
G01X2.6984Y-3.3228
M16
G05
G00X2.7Y-4.1
M15
G01X2.6984Y-4.1228
M16
G05
G00X2.7Y-4.9
M15
G01X2.6984Y-4.9228
M16
G05
G00X2.7181Y-1.7425
M15
G01X2.75Y-1.8
M16
G05
G00X2.7181Y-2.5425
M15
G01X2.75Y-2.6
M16
G05
G00X2.7181Y-3.3425
M15
G01X2.75Y-3.4
M16
G05
G00X2.7181Y-4.1425
M15
G01X2.75Y-4.2
M16
G05
G00X2.7181Y-4.9425
M15
G01X2.75Y-5.0
M16
G05
G00X3.2819Y-1.5425
M15
G01X3.25Y-1.6
M16
G05
G00X3.2819Y-2.3425
M15
G01X3.25Y-2.4
M16
G05
G00X3.2819Y-3.1425
M15
G01X3.25Y-3.2
M16
G05
G00X3.2819Y-3.9425
M15
G01X3.25Y-4.0
M16
G05
G00X3.2819Y-4.7425
M15
G01X3.25Y-4.8
M16
G05
G00X3.3Y-1.5
M15
G01X3.3016Y-1.5228
M16
G05
G00X3.3Y-2.3
M15
G01X3.3016Y-2.3228
M16
G05
G00X3.3Y-3.1
M15
G01X3.3016Y-3.1228
M16
G05
G00X3.3Y-3.9
M15
G01X3.3016Y-3.9228
M16
G05
G00X3.3Y-4.7
M15
G01X3.3016Y-4.7228
M16
G05
G00X3.5Y-1.5
M15
G01X3.4984Y-1.5228
M16
G05
G00X3.5Y-2.3
M15
G01X3.4984Y-2.3228
M16
G05
G00X3.5Y-3.1
M15
G01X3.4984Y-3.1228
M16
G05
G00X3.5Y-3.9
M15
G01X3.4984Y-3.9228
M16
G05
G00X3.5Y-4.7
M15
G01X3.4984Y-4.7228
M16
G05
G00X3.5181Y-1.5425
M15
G01X3.55Y-1.6
M16
G05
G00X3.5181Y-2.3425
M15
G01X3.55Y-2.4
M16
G05
G00X3.5181Y-3.1425
M15
G01X3.55Y-3.2
M16
G05
G00X3.5181Y-3.9425
M15
G01X3.55Y-4.0
M16
G05
G00X3.5181Y-4.7425
M15
G01X3.55Y-4.8
M16
G05
G00X4.0819Y-1.2425
M15
G01X4.05Y-1.3
M16
G05
G00X4.0819Y-2.0425
M15
G01X4.05Y-2.1
M16
G05
G00X4.0819Y-2.8428
M15
G01X4.05Y-2.9003
M16
G05
G00X4.0819Y-3.6425
M15
G01X4.05Y-3.7
M16
G05
G00X4.0819Y-4.4425
M15
G01X4.05Y-4.5
M16
G05
G00X4.1Y-1.2
M15
G01X4.1016Y-1.2228
M16
G05
G00X4.1Y-2.0
M15
G01X4.1016Y-2.0228
M16
G05
G00X4.1Y-2.8003
M15
G01X4.1016Y-2.8231
M16
G05
G00X4.1Y-3.6
M15
G01X4.1016Y-3.6228
M16
G05
G00X4.1Y-4.4
M15
G01X4.1016Y-4.4228
M16
G05
G00X4.3Y-1.2
M15
G01X4.2984Y-1.2228
M16
G05
G00X4.3Y-2.0
M15
G01X4.2984Y-2.0228
M16
G05
G00X4.3Y-2.8003
M15
G01X4.2984Y-2.8231
M16
G05
G00X4.3Y-3.6
M15
G01X4.2984Y-3.6228
M16
G05
G00X4.3Y-4.4
M15
G01X4.2984Y-4.4228
M16
G05
G00X4.3181Y-1.2425
M15
G01X4.35Y-1.3
M16
G05
G00X4.3181Y-2.0425
M15
G01X4.35Y-2.1
M16
G05
G00X4.3181Y-2.8428
M15
G01X4.35Y-2.9003
M16
G05
G00X4.3181Y-3.6425
M15
G01X4.35Y-3.7
M16
G05
G00X4.3181Y-4.4425
M15
G01X4.35Y-4.5
M16
G05
G00X4.8819Y-1.3425
M15
G01X4.85Y-1.4
M16
G05
G00X4.8819Y-2.1425
M15
G01X4.85Y-2.2
M16
G05
G00X4.8819Y-2.9425
M15
G01X4.85Y-3.0
M16
G05
G00X4.8819Y-3.7425
M15
G01X4.85Y-3.8
M16
G05
G00X4.8819Y-4.5425
M15
G01X4.85Y-4.6
M16
G05
G00X4.9Y-1.3
M15
G01X4.9016Y-1.3228
M16
G05
G00X4.9Y-2.1
M15
G01X4.9016Y-2.1228
M16
G05
G00X4.9Y-2.9
M15
G01X4.9016Y-2.9228
M16
G05
G00X4.9Y-3.7
M15
G01X4.9016Y-3.7228
M16
G05
G00X4.9Y-4.5
M15
G01X4.9016Y-4.5228
M16
G05
G00X5.1Y-1.3
M15
G01X5.0984Y-1.3228
M16
G05
G00X5.1Y-2.1
M15
G01X5.0984Y-2.1228
M16
G05
G00X5.1Y-2.9
M15
G01X5.0984Y-2.9228
M16
G05
G00X5.1Y-3.7
M15
G01X5.0984Y-3.7228
M16
G05
G00X5.1Y-4.5
M15
G01X5.0984Y-4.5228
M16
G05
G00X5.1181Y-1.3425
M15
G01X5.15Y-1.4
M16
G05
G00X5.1181Y-2.1425
M15
G01X5.15Y-2.2
M16
G05
G00X5.1181Y-2.9425
M15
G01X5.15Y-3.0
M16
G05
G00X5.1181Y-3.7425
M15
G01X5.15Y-3.8
M16
G05
G00X5.1181Y-4.5425
M15
G01X5.15Y-4.6
M16
G05
G00X5.6819Y-1.5425
M15
G01X5.65Y-1.6
M16
G05
G00X5.6819Y-2.3425
M15
G01X5.65Y-2.4
M16
G05
G00X5.6819Y-3.1425
M15
G01X5.65Y-3.2
M16
G05
G00X5.6819Y-3.9425
M15
G01X5.65Y-4.0
M16
G05
G00X5.6819Y-4.7425
M15
G01X5.65Y-4.8
M16
G05
G00X5.7Y-1.5
M15
G01X5.7016Y-1.5228
M16
G05
G00X5.7Y-2.3
M15
G01X5.7016Y-2.3228
M16
G05
G00X5.7Y-3.1
M15
G01X5.7016Y-3.1228
M16
G05
G00X5.7Y-3.9
M15
G01X5.7016Y-3.9228
M16
G05
G00X5.7Y-4.7
M15
G01X5.7016Y-4.7228
M16
G05
G00X5.9Y-1.5
M15
G01X5.8984Y-1.5228
M16
G05
G00X5.9Y-2.3
M15
G01X5.8984Y-2.3228
M16
G05
G00X5.9Y-3.1
M15
G01X5.8984Y-3.1228
M16
G05
G00X5.9Y-3.9
M15
G01X5.8984Y-3.9228
M16
G05
G00X5.9Y-4.7
M15
G01X5.8984Y-4.7228
M16
G05
G00X5.9181Y-1.5425
M15
G01X5.95Y-1.6
M16
G05
G00X5.9181Y-2.3425
M15
G01X5.95Y-2.4
M16
G05
G00X5.9181Y-3.1425
M15
G01X5.95Y-3.2
M16
G05
G00X5.9181Y-3.9425
M15
G01X5.95Y-4.0
M16
G05
G00X5.9181Y-4.7425
M15
G01X5.95Y-4.8
M16
G05
G00X6.4819Y-1.7425
M15
G01X6.45Y-1.8
M16
G05
G00X6.4819Y-2.5425
M15
G01X6.45Y-2.6
M16
G05
G00X6.4819Y-3.3425
M15
G01X6.45Y-3.4
M16
G05
G00X6.4819Y-4.1425
M15
G01X6.45Y-4.2
M16
G05
G00X6.5Y-1.7
M15
G01X6.5016Y-1.7228
M16
G05
G00X6.5Y-2.5
M15
G01X6.5016Y-2.5228
M16
G05
G00X6.5Y-3.3
M15
G01X6.5016Y-3.3228
M16
G05
G00X6.5Y-4.1
M15
G01X6.5016Y-4.1228
M16
G05
G00X6.6333Y-5.3172
M15
G01X6.6505Y-5.3322
M16
G05
G00X6.6505Y-5.3601
M15
G01X6.6686Y-5.4233
M16
G05
G00X6.7Y-1.7
M15
G01X6.6984Y-1.7228
M16
G05
G00X6.7Y-2.5
M15
G01X6.6984Y-2.5228
M16
G05
G00X6.7Y-3.3
M15
G01X6.6984Y-3.3228
M16
G05
G00X6.7Y-4.1
M15
G01X6.6984Y-4.1228
M16
G05
G00X6.7181Y-1.7425
M15
G01X6.75Y-1.8
M16
G05
G00X6.7181Y-2.5425
M15
G01X6.75Y-2.6
M16
G05
G00X6.7181Y-3.3425
M15
G01X6.75Y-3.4
M16
G05
G00X6.7181Y-4.1425
M15
G01X6.75Y-4.2
M16
G05
G00X6.7747Y-5.1758
M15
G01X6.7897Y-5.193
M16
G05
G00X6.8175Y-5.1931
M15
G01X6.8808Y-5.2111
M16
G05
G00X7.1747Y-4.7758
M15
G01X7.1919Y-4.7908
M16
G05
G00X7.1879Y-5.8793
M15
G01X7.2051Y-5.8943
M16
G05
G00X7.1919Y-4.8186
M15
G01X7.21Y-4.8819
M16
G05
G00X7.2051Y-5.9221
M15
G01X7.2232Y-5.9854
M16
G05
G00X7.2819Y-2.1425
M15
G01X7.25Y-2.2
M16
G05
G00X7.2819Y-2.9572
M15
G01X7.25Y-3.0146
M16
G05
G00X7.2819Y-3.7425
M15
G01X7.25Y-3.8
M16
G05
G00X7.3Y-2.1
M15
G01X7.3016Y-2.1228
M16
G05
G00X7.3Y-2.9147
M15
G01X7.3016Y-2.9374
M16
G05
G00X7.3Y-3.7
M15
G01X7.3016Y-3.7228
M16
G05
G00X7.3161Y-4.6344
M15
G01X7.3311Y-4.6516
M16
G05
G00X7.3293Y-5.7379
M15
G01X7.3443Y-5.7551
M16
G05
G00X7.359Y-4.6516
M15
G01X7.4222Y-4.6697
M16
G05
G00X7.3721Y-5.7551
M15
G01X7.4354Y-5.7732
M16
G05
G00X7.5Y-2.1
M15
G01X7.4984Y-2.1228
M16
G05
G00X7.5Y-2.9147
M15
G01X7.4984Y-2.9374
M16
G05
G00X7.5Y-3.7
M15
G01X7.4984Y-3.7228
M16
G05
G00X7.5181Y-2.1425
M15
G01X7.55Y-2.2
M16
G05
G00X7.5181Y-2.9572
M15
G01X7.55Y-3.0146
M16
G05
G00X7.5181Y-3.7425
M15
G01X7.55Y-3.8
M16
G05
G00X7.7379Y-5.3293
M15
G01X7.7551Y-5.3443
M16
G05
G00X7.7379Y-6.4293
M15
G01X7.7551Y-6.4443
M16
G05
G00X7.7551Y-5.3721
M15
G01X7.7732Y-5.4354
M16
G05
G00X7.7551Y-6.4721
M15
G01X7.7732Y-6.5354
M16
G05
G00X7.8793Y-5.1879
M15
G01X7.8943Y-5.2051
M16
G05
G00X7.8793Y-6.2879
M15
G01X7.8943Y-6.3051
M16
G05
G00X7.9221Y-5.2051
M15
G01X7.9854Y-5.2232
M16
G05
G00X7.9221Y-6.3051
M15
G01X7.9854Y-6.3232
M16
G05
G00X8.2879Y-5.8793
M15
G01X8.3051Y-5.8943
M16
G05
G00X8.3051Y-5.9221
M15
G01X8.3232Y-5.9854
M16
G05
G00X8.4293Y-5.7379
M15
G01X8.4443Y-5.7551
M16
G05
G00X8.4721Y-5.7551
M15
G01X8.5354Y-5.7732
M16
G05
T0
M30
