M48
; DRILL file {KiCad 7.0.9} date Sat 18 Nov 2023 07:24:32 PM WIB
; FORMAT={-:-/ absolute / metric / decimal}
; #@! TF.CreationDate,2023-11-18T19:24:32+07:00
; #@! TF.GenerationSoftware,Kicad,Pcbnew,7.0.9
; #@! TF.FileFunction,Plated,1,2,PTH
FMAT,2
METRIC
; #@! TA.AperFunction,Plated,PTH,ViaDrill
T1C0.400
; #@! TA.AperFunction,Plated,PTH,ComponentDrill
T2C0.700
; #@! TA.AperFunction,Plated,PTH,ComponentDrill
T3C0.760
; #@! TA.AperFunction,Plated,PTH,ComponentDrill
T4C0.800
; #@! TA.AperFunction,Plated,PTH,ComponentDrill
T5C1.000
; #@! TA.AperFunction,Plated,PTH,ComponentDrill
T6C1.092
; #@! TA.AperFunction,Plated,PTH,ComponentDrill
T7C1.500
; #@! TA.AperFunction,Plated,PTH,ComponentDrill
T8C3.200
%
G90
G05
T1
X32.425Y-86.487
X34.123Y-86.614
X55.386Y-79.756
X55.753Y-108.712
X56.007Y-131.572
X56.086Y-85.344
X56.935Y-135.382
X58.634Y-79.883
X58.634Y-85.598
X58.634Y-110.109
X58.634Y-131.572
X58.674Y-47.117
X58.674Y-50.292
X58.674Y-135.382
X58.928Y-64.897
X75.184Y-40.64
X75.184Y-46.482
X75.644Y-110.363
X75.946Y-59.944
X75.946Y-72.136
X76.112Y-53.34
X76.293Y-68.546
X76.483Y-39.341
X76.493Y-91.948
X76.493Y-107.315
X77.343Y-126.746
X77.811Y-46.482
X77.811Y-53.467
X77.811Y-60.071
X78.232Y-72.136
X78.449Y-74.84
X79.081Y-107.442
X79.081Y-110.49
X79.081Y-126.746
X79.121Y-92.075
X79.375Y-70.993
X92.456Y-133.096
X92.583Y-130.937
X92.597Y-115.062
X93.447Y-106.045
X93.447Y-122.555
X93.447Y-124.587
X93.447Y-125.984
X94.146Y-112.522
X94.146Y-127.254
X95.846Y-106.172
X95.846Y-113.665
X95.846Y-115.189
X95.856Y-122.526
X97.155Y-43.942
X97.155Y-80.518
X97.282Y-39.243
X97.282Y-65.786
X97.346Y-86.296
X97.945Y-125.984
X97.945Y-127.254
X98.679Y-124.841
X99.06Y-87.503
X99.12Y-43.815
X99.12Y-80.518
X99.314Y-39.243
X99.441Y-65.913
X99.822Y-63.881
X108.077Y-121.578
X108.204Y-124.968
X109.982Y-120.729
X110.13Y-124.677
X111.633Y-42.759
X111.887Y-39.029
X112.903Y-119.126
X114.212Y-120.029
X114.427Y-125.377
X115.062Y-104.989
X115.16Y-102.841
X115.287Y-64.73
X115.316Y-62.992
X115.911Y-119.126
X116.332Y-46.609
X116.459Y-88.519
X116.498Y-37.338
X116.498Y-61.849
X117.856Y-113.74
X117.856Y-115.439
X118.11Y-81.407
X118.197Y-37.338
X118.197Y-46.736
X118.197Y-62.103
X118.364Y-88.646
X124.333Y-121.578
X129.794Y-121.578
X132.969Y-125.377
X134.112Y-126.238
X134.112Y-127.381
X134.337Y-86.897
X134.366Y-84.836
X134.913Y-71.628
X135.483Y-108.966
X136.906Y-131.953
X137.033Y-113.665
X137.2Y-71.628
X137.2Y-83.566
X137.501Y-126.238
X137.668Y-127.381
X138.049Y-125.095
X138.898Y-71.882
X138.898Y-84.201
X138.898Y-109.093
X138.938Y-76.581
X138.972Y-51.469
X139.158Y-53.687
X139.192Y-113.792
X139.231Y-48.006
X140.843Y-132.588
X140.93Y-48.133
X147.701Y-129.133
X147.955Y-133.604
X153.582Y-93.218
X153.797Y-49.784
X153.89Y-90.966
X154.051Y-52.349
X154.051Y-112.903
X154.051Y-130.683
X154.169Y-109.093
X154.178Y-69.254
X155.019Y-59.944
X155.019Y-71.978
X155.868Y-68.834
X155.868Y-96.774
X155.868Y-106.934
X155.868Y-114.3
X157.099Y-130.683
X157.567Y-59.817
X157.567Y-69.088
X157.567Y-96.901
X157.567Y-107.061
X157.567Y-112.903
X158.267Y-109.22
X159.033Y-44.479
X159.258Y-42.545
X159.267Y-114.173
X168.627Y-116.938
X171.103Y-114.461
X172.749Y-121.187
X173.148Y-114.982
X173.482Y-55.284
X173.609Y-57.683
X173.863Y-112.903
X174.364Y-117.609
X174.977Y-96.422
X175.133Y-116.967
X175.654Y-108.708
X176.059Y-72.802
X176.403Y-115.443
X176.432Y-95.475
X176.504Y-106.172
X177.156Y-67.691
X177.156Y-74.422
X177.156Y-89.408
X177.419Y-55.284
X177.419Y-56.983
X178.155Y-62.992
X178.855Y-64.897
X178.855Y-68.707
X178.903Y-106.426
X180.306Y-111.218
X180.554Y-68.707
X180.554Y-89.281
X180.594Y-64.897
X180.721Y-63.373
X180.721Y-67.564
X180.848Y-82.677
X187.325Y-105.576
X187.416Y-109.725
X187.579Y-137.414
X189.069Y-136.051
X193.201Y-62.899
X194.403Y-64.101
X196.44Y-83.537
X196.469Y-87.249
X198.12Y-99.949
X198.706Y-85.121
X200.787Y-112.141
X200.914Y-99.949
X200.914Y-108.204
X201.803Y-70.358
X201.843Y-67.818
X201.843Y-69.088
X201.843Y-72.517
X201.93Y-92.202
X203.708Y-76.2
X203.708Y-120.015
X204.47Y-92.202
X204.851Y-82.296
X205.105Y-123.19
X205.7Y-67.691
X205.74Y-85.09
X205.867Y-116.967
X206.375Y-83.566
X206.4Y-70.358
X206.4Y-72.517
X206.502Y-69.088
X206.756Y-128.397
X206.883Y-118.364
X207.01Y-90.551
X208.026Y-123.063
X208.585Y-83.947
X208.788Y-62.015
X208.889Y-55.245
X209.042Y-102.489
X209.042Y-128.397
X209.169Y-107.569
X209.677Y-116.967
X210.185Y-118.364
X211.328Y-56.134
T2
X36.74Y-71.12
X36.74Y-91.44
X36.74Y-111.76
X41.82Y-49.53
X44.54Y-71.12
X44.54Y-91.44
X44.54Y-111.76
X49.62Y-49.53
X62.14Y-38.1
X62.14Y-58.42
X62.14Y-80.01
X62.14Y-99.06
X62.14Y-119.38
X69.94Y-38.1
X69.94Y-58.42
X69.94Y-80.01
X69.94Y-99.06
X69.94Y-119.38
X82.46Y-33.02
X82.46Y-53.34
X82.46Y-72.39
X82.46Y-92.71
X82.46Y-114.3
X90.26Y-33.02
X90.26Y-53.34
X90.26Y-72.39
X90.26Y-92.71
X90.26Y-114.3
X102.78Y-26.67
X102.78Y-45.72
X102.78Y-66.04
X102.78Y-86.36
X102.78Y-106.68
X110.58Y-26.67
X110.58Y-45.72
X110.58Y-66.04
X110.58Y-86.36
X110.58Y-106.68
X123.1Y-27.94
X123.1Y-48.26
X123.1Y-68.58
X123.1Y-88.9
X123.1Y-109.22
X130.9Y-27.94
X130.9Y-48.26
X130.9Y-68.58
X130.9Y-88.9
X130.9Y-109.22
X143.42Y-33.02
X143.42Y-53.34
X143.42Y-73.66
X143.42Y-93.98
X143.42Y-114.3
X151.22Y-33.02
X151.22Y-53.34
X151.22Y-73.66
X151.22Y-93.98
X151.22Y-114.3
X163.612Y-133.568
X163.74Y-38.1
X163.74Y-58.42
X163.74Y-78.74
X163.74Y-97.79
X169.128Y-128.052
X171.54Y-38.1
X171.54Y-58.42
X171.54Y-78.74
X171.54Y-97.79
X178.852Y-115.788
X178.852Y-147.538
X184.06Y-48.26
X184.06Y-68.58
X184.06Y-88.9
X184.368Y-110.272
X184.368Y-142.022
X191.552Y-133.568
X191.86Y-48.26
X191.86Y-68.58
X191.86Y-88.9
X192.822Y-160.238
X197.068Y-128.052
X198.338Y-154.722
X206.792Y-147.538
X212.308Y-142.022
T3
X203.05Y-97.15
X203.05Y-99.69
X203.05Y-102.23
X203.05Y-106.05
X203.05Y-108.59
X203.05Y-111.13
X205.59Y-95.88
X205.59Y-98.42
X205.59Y-100.96
X205.59Y-107.32
X205.59Y-109.86
X205.59Y-112.4
T4
X99.705Y-129.53
X99.705Y-137.15
X102.245Y-129.53
X102.245Y-137.15
X104.785Y-129.53
X104.785Y-137.15
X107.325Y-129.53
X107.325Y-137.15
X109.865Y-129.53
X109.865Y-137.15
X112.405Y-129.53
X112.405Y-137.15
X114.945Y-129.53
X114.945Y-137.15
X117.485Y-129.53
X117.485Y-137.15
X120.025Y-129.53
X120.025Y-137.15
X122.565Y-129.53
X122.565Y-137.15
X125.105Y-129.53
X125.105Y-137.15
X127.645Y-129.53
X127.645Y-137.15
X130.185Y-129.53
X130.185Y-137.15
X132.725Y-129.53
X132.725Y-137.15
T5
X201.815Y-87.465
X204.355Y-87.465
X206.895Y-87.465
X209.435Y-87.465
X210.115Y-120.65
X210.115Y-123.19
X210.115Y-125.73
T6
X198.005Y-52.324
X198.005Y-54.864
X198.005Y-57.404
X198.005Y-59.944
X198.005Y-62.484
X198.005Y-65.024
X198.005Y-67.564
X198.005Y-70.104
X198.005Y-72.644
X198.005Y-75.184
X198.005Y-77.724
X198.005Y-80.264
X213.245Y-52.324
X213.245Y-54.864
X213.245Y-57.404
X213.245Y-59.944
X213.245Y-62.484
X213.245Y-65.024
X213.245Y-67.564
X213.245Y-70.104
X213.245Y-72.644
X213.245Y-75.184
X213.245Y-77.724
X213.245Y-80.264
T8
X32.385Y-66.675
X44.45Y-135.255
X53.34Y-45.72
X94.615Y-31.115
X138.43Y-33.02
X162.56Y-125.095
X179.265Y-45.503
X195.58Y-111.76
X205.359Y-58.039
T7
G00X37.64Y-77.28
M15
G01X36.83Y-78.74
M16
G05
G00X37.64Y-97.6
M15
G01X36.83Y-99.06
M16
G05
G00X37.64Y-117.92
M15
G01X36.83Y-119.38
M16
G05
G00X38.1Y-76.201
M15
G01X38.14Y-76.779
M16
G05
G00X38.1Y-96.521
M15
G01X38.14Y-97.099
M16
G05
G00X38.1Y-116.841
M15
G01X38.14Y-117.419
M16
G05
G00X42.72Y-56.96
M15
G01X41.91Y-58.42
M16
G05
G00X43.18Y-76.201
M15
G01X43.14Y-76.779
M16
G05
G00X43.18Y-96.521
M15
G01X43.14Y-97.099
M16
G05
G00X43.18Y-116.841
M15
G01X43.14Y-117.419
M16
G05
G00X43.18Y-55.881
M15
G01X43.22Y-56.459
M16
G05
G00X43.64Y-77.28
M15
G01X44.45Y-78.74
M16
G05
G00X43.64Y-97.6
M15
G01X44.45Y-99.06
M16
G05
G00X43.64Y-117.92
M15
G01X44.45Y-119.38
M16
G05
G00X48.26Y-55.881
M15
G01X48.22Y-56.459
M16
G05
G00X48.72Y-56.96
M15
G01X49.53Y-58.42
M16
G05
G00X63.04Y-44.26
M15
G01X62.23Y-45.72
M16
G05
G00X63.04Y-64.58
M15
G01X62.23Y-66.04
M16
G05
G00X63.04Y-84.9
M15
G01X62.23Y-86.36
M16
G05
G00X63.04Y-105.22
M15
G01X62.23Y-106.68
M16
G05
G00X63.04Y-125.54
M15
G01X62.23Y-127.0
M16
G05
G00X63.5Y-43.181
M15
G01X63.54Y-43.759
M16
G05
G00X63.5Y-63.501
M15
G01X63.54Y-64.079
M16
G05
G00X63.5Y-83.821
M15
G01X63.54Y-84.399
M16
G05
G00X63.5Y-104.141
M15
G01X63.54Y-104.719
M16
G05
G00X63.5Y-124.461
M15
G01X63.54Y-125.039
M16
G05
G00X68.58Y-43.181
M15
G01X68.54Y-43.759
M16
G05
G00X68.58Y-63.501
M15
G01X68.54Y-64.079
M16
G05
G00X68.58Y-83.821
M15
G01X68.54Y-84.399
M16
G05
G00X68.58Y-104.141
M15
G01X68.54Y-104.719
M16
G05
G00X68.58Y-124.461
M15
G01X68.54Y-125.039
M16
G05
G00X69.04Y-44.26
M15
G01X69.85Y-45.72
M16
G05
G00X69.04Y-64.58
M15
G01X69.85Y-66.04
M16
G05
G00X69.04Y-84.9
M15
G01X69.85Y-86.36
M16
G05
G00X69.04Y-105.22
M15
G01X69.85Y-106.68
M16
G05
G00X69.04Y-125.54
M15
G01X69.85Y-127.0
M16
G05
G00X83.36Y-39.18
M15
G01X82.55Y-40.64
M16
G05
G00X83.36Y-59.5
M15
G01X82.55Y-60.96
M16
G05
G00X83.36Y-79.82
M15
G01X82.55Y-81.28
M16
G05
G00X83.36Y-100.14
M15
G01X82.55Y-101.6
M16
G05
G00X83.36Y-120.46
M15
G01X82.55Y-121.92
M16
G05
G00X83.82Y-38.101
M15
G01X83.86Y-38.679
M16
G05
G00X83.82Y-58.421
M15
G01X83.86Y-58.999
M16
G05
G00X83.82Y-78.741
M15
G01X83.86Y-79.319
M16
G05
G00X83.82Y-99.061
M15
G01X83.86Y-99.639
M16
G05
G00X83.82Y-119.381
M15
G01X83.86Y-119.959
M16
G05
G00X88.9Y-38.101
M15
G01X88.86Y-38.679
M16
G05
G00X88.9Y-58.421
M15
G01X88.86Y-58.999
M16
G05
G00X88.9Y-78.741
M15
G01X88.86Y-79.319
M16
G05
G00X88.9Y-99.061
M15
G01X88.86Y-99.639
M16
G05
G00X88.9Y-119.381
M15
G01X88.86Y-119.959
M16
G05
G00X89.36Y-39.18
M15
G01X90.17Y-40.64
M16
G05
G00X89.36Y-59.5
M15
G01X90.17Y-60.96
M16
G05
G00X89.36Y-79.82
M15
G01X90.17Y-81.28
M16
G05
G00X89.36Y-100.14
M15
G01X90.17Y-101.6
M16
G05
G00X89.36Y-120.46
M15
G01X90.17Y-121.92
M16
G05
G00X103.68Y-31.56
M15
G01X102.87Y-33.02
M16
G05
G00X103.68Y-51.88
M15
G01X102.87Y-53.34
M16
G05
G00X103.68Y-72.208
M15
G01X102.87Y-73.668
M16
G05
G00X103.68Y-92.52
M15
G01X102.87Y-93.98
M16
G05
G00X103.68Y-112.84
M15
G01X102.87Y-114.3
M16
G05
G00X104.14Y-30.481
M15
G01X104.18Y-31.059
M16
G05
G00X104.14Y-50.801
M15
G01X104.18Y-51.379
M16
G05
G00X104.14Y-71.129
M15
G01X104.18Y-71.708
M16
G05
G00X104.14Y-91.441
M15
G01X104.18Y-92.019
M16
G05
G00X104.14Y-111.761
M15
G01X104.18Y-112.339
M16
G05
G00X109.22Y-30.481
M15
G01X109.18Y-31.059
M16
G05
G00X109.22Y-50.801
M15
G01X109.18Y-51.379
M16
G05
G00X109.22Y-71.129
M15
G01X109.18Y-71.708
M16
G05
G00X109.22Y-91.441
M15
G01X109.18Y-92.019
M16
G05
G00X109.22Y-111.761
M15
G01X109.18Y-112.339
M16
G05
G00X109.68Y-31.56
M15
G01X110.49Y-33.02
M16
G05
G00X109.68Y-51.88
M15
G01X110.49Y-53.34
M16
G05
G00X109.68Y-72.208
M15
G01X110.49Y-73.668
M16
G05
G00X109.68Y-92.52
M15
G01X110.49Y-93.98
M16
G05
G00X109.68Y-112.84
M15
G01X110.49Y-114.3
M16
G05
G00X124.0Y-34.1
M15
G01X123.19Y-35.56
M16
G05
G00X124.0Y-54.42
M15
G01X123.19Y-55.88
M16
G05
G00X124.0Y-74.74
M15
G01X123.19Y-76.2
M16
G05
G00X124.0Y-95.06
M15
G01X123.19Y-96.52
M16
G05
G00X124.0Y-115.38
M15
G01X123.19Y-116.84
M16
G05
G00X124.46Y-33.021
M15
G01X124.5Y-33.599
M16
G05
G00X124.46Y-53.341
M15
G01X124.5Y-53.919
M16
G05
G00X124.46Y-73.661
M15
G01X124.5Y-74.239
M16
G05
G00X124.46Y-93.981
M15
G01X124.5Y-94.559
M16
G05
G00X124.46Y-114.301
M15
G01X124.5Y-114.879
M16
G05
G00X129.54Y-33.021
M15
G01X129.5Y-33.599
M16
G05
G00X129.54Y-53.341
M15
G01X129.5Y-53.919
M16
G05
G00X129.54Y-73.661
M15
G01X129.5Y-74.239
M16
G05
G00X129.54Y-93.981
M15
G01X129.5Y-94.559
M16
G05
G00X129.54Y-114.301
M15
G01X129.5Y-114.879
M16
G05
G00X130.0Y-34.1
M15
G01X130.81Y-35.56
M16
G05
G00X130.0Y-54.42
M15
G01X130.81Y-55.88
M16
G05
G00X130.0Y-74.74
M15
G01X130.81Y-76.2
M16
G05
G00X130.0Y-95.06
M15
G01X130.81Y-96.52
M16
G05
G00X130.0Y-115.38
M15
G01X130.81Y-116.84
M16
G05
G00X144.32Y-39.18
M15
G01X143.51Y-40.64
M16
G05
G00X144.32Y-59.5
M15
G01X143.51Y-60.96
M16
G05
G00X144.32Y-79.82
M15
G01X143.51Y-81.28
M16
G05
G00X144.32Y-100.14
M15
G01X143.51Y-101.6
M16
G05
G00X144.32Y-120.46
M15
G01X143.51Y-121.92
M16
G05
G00X144.78Y-38.101
M15
G01X144.82Y-38.679
M16
G05
G00X144.78Y-58.421
M15
G01X144.82Y-58.999
M16
G05
G00X144.78Y-78.741
M15
G01X144.82Y-79.319
M16
G05
G00X144.78Y-99.061
M15
G01X144.82Y-99.639
M16
G05
G00X144.78Y-119.381
M15
G01X144.82Y-119.959
M16
G05
G00X149.86Y-38.101
M15
G01X149.82Y-38.679
M16
G05
G00X149.86Y-58.421
M15
G01X149.82Y-58.999
M16
G05
G00X149.86Y-78.741
M15
G01X149.82Y-79.319
M16
G05
G00X149.86Y-99.061
M15
G01X149.82Y-99.639
M16
G05
G00X149.86Y-119.381
M15
G01X149.82Y-119.959
M16
G05
G00X150.32Y-39.18
M15
G01X151.13Y-40.64
M16
G05
G00X150.32Y-59.5
M15
G01X151.13Y-60.96
M16
G05
G00X150.32Y-79.82
M15
G01X151.13Y-81.28
M16
G05
G00X150.32Y-100.14
M15
G01X151.13Y-101.6
M16
G05
G00X150.32Y-120.46
M15
G01X151.13Y-121.92
M16
G05
G00X164.64Y-44.26
M15
G01X163.83Y-45.72
M16
G05
G00X164.64Y-64.58
M15
G01X163.83Y-66.04
M16
G05
G00X164.64Y-84.9
M15
G01X163.83Y-86.36
M16
G05
G00X164.64Y-105.22
M15
G01X163.83Y-106.68
M16
G05
G00X165.1Y-43.181
M15
G01X165.14Y-43.759
M16
G05
G00X165.1Y-63.501
M15
G01X165.14Y-64.079
M16
G05
G00X165.1Y-83.821
M15
G01X165.14Y-84.399
M16
G05
G00X165.1Y-104.141
M15
G01X165.14Y-104.719
M16
G05
G00X168.485Y-135.057
M15
G01X168.922Y-135.439
M16
G05
G00X168.923Y-136.146
M15
G01X169.382Y-137.751
M16
G05
G00X170.18Y-43.181
M15
G01X170.14Y-43.759
M16
G05
G00X170.18Y-63.501
M15
G01X170.14Y-64.079
M16
G05
G00X170.18Y-83.821
M15
G01X170.14Y-84.399
M16
G05
G00X170.18Y-104.141
M15
G01X170.14Y-104.719
M16
G05
G00X170.64Y-44.26
M15
G01X171.45Y-45.72
M16
G05
G00X170.64Y-64.58
M15
G01X171.45Y-66.04
M16
G05
G00X170.64Y-84.9
M15
G01X171.45Y-86.36
M16
G05
G00X170.64Y-105.22
M15
G01X171.45Y-106.68
M16
G05
G00X172.077Y-131.466
M15
G01X172.458Y-131.903
M16
G05
G00X173.165Y-131.904
M15
G01X174.771Y-132.363
M16
G05
G00X182.237Y-121.305
M15
G01X182.674Y-121.687
M16
G05
G00X182.573Y-149.334
M15
G01X183.01Y-149.716
M16
G05
G00X182.675Y-122.394
M15
G01X183.134Y-123.999
M16
G05
G00X183.011Y-150.423
M15
G01X183.47Y-152.028
M16
G05
G00X184.96Y-54.42
M15
G01X184.15Y-55.88
M16
G05
G00X184.96Y-75.112
M15
G01X184.15Y-76.572
M16
G05
G00X184.96Y-95.06
M15
G01X184.15Y-96.52
M16
G05
G00X185.42Y-53.341
M15
G01X185.46Y-53.919
M16
G05
G00X185.42Y-74.032
M15
G01X185.46Y-74.611
M16
G05
G00X185.42Y-93.981
M15
G01X185.46Y-94.559
M16
G05
G00X185.829Y-117.714
M15
G01X186.21Y-118.151
M16
G05
G00X186.164Y-145.743
M15
G01X186.546Y-146.18
M16
G05
G00X186.917Y-118.152
M15
G01X188.523Y-118.611
M16
G05
G00X187.253Y-146.181
M15
G01X188.858Y-146.64
M16
G05
G00X190.5Y-53.341
M15
G01X190.46Y-53.919
M16
G05
G00X190.5Y-74.032
M15
G01X190.46Y-74.611
M16
G05
G00X190.5Y-93.981
M15
G01X190.46Y-94.559
M16
G05
G00X190.96Y-54.42
M15
G01X191.77Y-55.88
M16
G05
G00X190.96Y-75.112
M15
G01X191.77Y-76.572
M16
G05
G00X190.96Y-95.06
M15
G01X191.77Y-96.52
M16
G05
G00X196.543Y-135.364
M15
G01X196.98Y-135.746
M16
G05
G00X196.543Y-163.304
M15
G01X196.98Y-163.686
M16
G05
G00X196.981Y-136.453
M15
G01X197.44Y-138.058
M16
G05
G00X196.981Y-164.393
M15
G01X197.44Y-165.998
M16
G05
G00X200.134Y-131.773
M15
G01X200.516Y-132.21
M16
G05
G00X200.134Y-159.713
M15
G01X200.516Y-160.15
M16
G05
G00X201.223Y-132.211
M15
G01X202.828Y-132.67
M16
G05
G00X201.223Y-160.151
M15
G01X202.828Y-160.61
M16
G05
G00X210.513Y-149.334
M15
G01X210.95Y-149.716
M16
G05
G00X210.951Y-150.423
M15
G01X211.41Y-152.028
M16
G05
G00X214.104Y-145.743
M15
G01X214.486Y-146.18
M16
G05
G00X215.193Y-146.181
M15
G01X216.798Y-146.64
M16
G05
T0
M30
