%TF.GenerationSoftware,KiCad,Pcbnew,8.0.2*%
%TF.CreationDate,2025-01-19T21:46:12+07:00*%
%TF.ProjectId,sudi-keyboard,73756469-2d6b-4657-9962-6f6172642e6b,1*%
%TF.SameCoordinates,Original*%
%TF.FileFunction,Paste,Top*%
%TF.FilePolarity,Positive*%
%FSLAX46Y46*%
G04 Gerber Fmt 4.6, Leading zero omitted, Abs format (unit mm)*
G04 Created by KiCad (PCBNEW 8.0.2) date 2025-01-19 21:46:12*
%MOMM*%
%LPD*%
G01*
G04 APERTURE LIST*
G04 Aperture macros list*
%AMRoundRect*
0 Rectangle with rounded corners*
0 $1 Rounding radius*
0 $2 $3 $4 $5 $6 $7 $8 $9 X,Y pos of 4 corners*
0 Add a 4 corners polygon primitive as box body*
4,1,4,$2,$3,$4,$5,$6,$7,$8,$9,$2,$3,0*
0 Add four circle primitives for the rounded corners*
1,1,$1+$1,$2,$3*
1,1,$1+$1,$4,$5*
1,1,$1+$1,$6,$7*
1,1,$1+$1,$8,$9*
0 Add four rect primitives between the rounded corners*
20,1,$1+$1,$2,$3,$4,$5,0*
20,1,$1+$1,$4,$5,$6,$7,0*
20,1,$1+$1,$6,$7,$8,$9,0*
20,1,$1+$1,$8,$9,$2,$3,0*%
%AMHorizOval*
0 Thick line with rounded ends*
0 $1 width*
0 $2 $3 position (X,Y) of the first rounded end (center of the circle)*
0 $4 $5 position (X,Y) of the second rounded end (center of the circle)*
0 Add line between two ends*
20,1,$1,$2,$3,$4,$5,0*
0 Add two circle primitives to create the rounded ends*
1,1,$1,$2,$3*
1,1,$1,$4,$5*%
%AMRotRect*
0 Rectangle, with rotation*
0 The origin of the aperture is its center*
0 $1 length*
0 $2 width*
0 $3 Rotation angle, in degrees counterclockwise*
0 Add horizontal line*
21,1,$1,$2,0,0,$3*%
G04 Aperture macros list end*
%ADD10R,1.000000X0.800000*%
%ADD11R,0.700000X1.500000*%
%ADD12R,2.550000X2.500000*%
%ADD13RoundRect,0.237500X-0.237500X0.287500X-0.237500X-0.287500X0.237500X-0.287500X0.237500X0.287500X0*%
%ADD14RoundRect,0.250000X0.350000X0.450000X-0.350000X0.450000X-0.350000X-0.450000X0.350000X-0.450000X0*%
%ADD15RoundRect,0.250000X-0.475000X0.337500X-0.475000X-0.337500X0.475000X-0.337500X0.475000X0.337500X0*%
%ADD16RoundRect,0.175000X0.364054X0.280561X0.060946X0.455561X-0.364054X-0.280561X-0.060946X-0.455561X0*%
%ADD17RoundRect,0.190000X-0.369545X-0.260070X-0.040455X-0.450070X0.369545X0.260070X0.040455X0.450070X0*%
%ADD18RoundRect,0.200000X-0.373205X-0.246410X-0.026795X-0.446410X0.373205X0.246410X0.026795X0.446410X0*%
%ADD19RoundRect,0.175000X-0.364054X-0.280561X-0.060946X-0.455561X0.364054X0.280561X0.060946X0.455561X0*%
%ADD20RoundRect,0.190000X0.369545X0.260070X0.040455X0.450070X-0.369545X-0.260070X-0.040455X-0.450070X0*%
%ADD21RoundRect,0.200000X0.373205X0.246410X0.026795X0.446410X-0.373205X-0.246410X-0.026795X-0.446410X0*%
%ADD22HorizOval,1.100000X0.150000X0.259808X-0.150000X-0.259808X0*%
%ADD23R,0.700000X0.700000*%
%ADD24RoundRect,0.250000X0.337500X0.475000X-0.337500X0.475000X-0.337500X-0.475000X0.337500X-0.475000X0*%
%ADD25R,1.200000X1.200000*%
%ADD26RoundRect,0.250000X-0.450000X0.350000X-0.450000X-0.350000X0.450000X-0.350000X0.450000X0.350000X0*%
%ADD27RoundRect,0.250000X-0.337500X-0.475000X0.337500X-0.475000X0.337500X0.475000X-0.337500X0.475000X0*%
%ADD28RoundRect,0.250000X-0.350000X-0.450000X0.350000X-0.450000X0.350000X0.450000X-0.350000X0.450000X0*%
%ADD29RoundRect,0.150000X0.425000X-0.150000X0.425000X0.150000X-0.425000X0.150000X-0.425000X-0.150000X0*%
%ADD30RoundRect,0.075000X0.500000X-0.075000X0.500000X0.075000X-0.500000X0.075000X-0.500000X-0.075000X0*%
%ADD31O,2.100000X1.000000*%
%ADD32O,1.800000X1.000000*%
%ADD33RoundRect,0.250000X0.574524X0.097227X0.097227X0.574524X-0.574524X-0.097227X-0.097227X-0.574524X0*%
%ADD34RoundRect,0.250000X0.000000X-0.523259X0.523259X0.000000X0.000000X0.523259X-0.523259X0.000000X0*%
%ADD35RoundRect,0.050000X-0.212132X-0.282843X0.282843X0.212132X0.212132X0.282843X-0.282843X-0.212132X0*%
%ADD36RoundRect,0.050000X0.212132X-0.282843X0.282843X-0.212132X-0.212132X0.282843X-0.282843X0.212132X0*%
%ADD37RotRect,0.900000X0.800000X225.000000*%
%ADD38RoundRect,0.160000X-0.160000X0.160000X-0.160000X-0.160000X0.160000X-0.160000X0.160000X0.160000X0*%
%ADD39RoundRect,0.062500X-0.062500X0.375000X-0.062500X-0.375000X0.062500X-0.375000X0.062500X0.375000X0*%
%ADD40RoundRect,0.062500X-0.375000X0.062500X-0.375000X-0.062500X0.375000X-0.062500X0.375000X0.062500X0*%
%ADD41RoundRect,0.250000X-0.097227X0.574524X-0.574524X0.097227X0.097227X-0.574524X0.574524X-0.097227X0*%
%ADD42RoundRect,0.150000X-0.587500X-0.150000X0.587500X-0.150000X0.587500X0.150000X-0.587500X0.150000X0*%
%ADD43RoundRect,0.250000X0.325000X0.450000X-0.325000X0.450000X-0.325000X-0.450000X0.325000X-0.450000X0*%
%ADD44R,0.800000X1.000000*%
%ADD45R,1.500000X0.700000*%
%ADD46RoundRect,0.150000X-0.150000X0.587500X-0.150000X-0.587500X0.150000X-0.587500X0.150000X0.587500X0*%
%ADD47RoundRect,0.237500X-0.287500X-0.237500X0.287500X-0.237500X0.287500X0.237500X-0.287500X0.237500X0*%
G04 APERTURE END LIST*
D10*
%TO.C,SW4*%
X117000000Y-124570000D03*
X117000000Y-126780000D03*
X124300000Y-124570000D03*
X124300000Y-126780000D03*
D11*
X118400000Y-123920000D03*
X121400000Y-123920000D03*
X122900000Y-123920000D03*
%TD*%
D12*
%TO.C,K16*%
X174800000Y-117030000D03*
X188650000Y-119570000D03*
%TD*%
D13*
%TO.C,FB1*%
X214620002Y-75374998D03*
X214620002Y-77124998D03*
%TD*%
D14*
%TO.C,R10*%
X229700000Y-106700000D03*
X227700000Y-106700000D03*
%TD*%
D15*
%TO.C,C51*%
X191450000Y-77662500D03*
X191450000Y-79737500D03*
%TD*%
D16*
%TO.C,J1*%
X221695513Y-68582502D03*
D17*
X219946141Y-67572502D03*
D18*
X218880930Y-66957502D03*
D19*
X220829487Y-68082502D03*
D20*
X222578859Y-69092502D03*
D21*
X223644070Y-69707502D03*
D22*
X225043730Y-70423220D03*
X226943730Y-67132324D03*
X217561270Y-66103220D03*
X219461270Y-62812324D03*
%TD*%
D23*
%TO.C,D17*%
X130950000Y-106365001D03*
X132049999Y-106364999D03*
X132050000Y-104534999D03*
X130950001Y-104535001D03*
%TD*%
D24*
%TO.C,C3*%
X150187500Y-122400000D03*
X148112500Y-122400000D03*
%TD*%
D25*
%TO.C,D26*%
X200225000Y-54450000D03*
X203375000Y-54450000D03*
%TD*%
D12*
%TO.C,K9*%
X155300000Y-95530000D03*
X169150000Y-98070000D03*
%TD*%
D23*
%TO.C,D18*%
X170450000Y-94715001D03*
X171549999Y-94714999D03*
X171550000Y-92884999D03*
X170450001Y-92885001D03*
%TD*%
D24*
%TO.C,C57*%
X219087500Y-90350000D03*
X217012500Y-90350000D03*
%TD*%
D12*
%TO.C,K8*%
X155300000Y-76030000D03*
X169150000Y-78570000D03*
%TD*%
D15*
%TO.C,C42*%
X128850000Y-84112500D03*
X128850000Y-86187500D03*
%TD*%
%TO.C,C41*%
X132850000Y-69862500D03*
X132850000Y-71937500D03*
%TD*%
D12*
%TO.C,K18*%
X213800000Y-125530000D03*
X227650000Y-128070000D03*
%TD*%
%TO.C,K12*%
X174800000Y-97530000D03*
X188650000Y-100070000D03*
%TD*%
%TO.C,K14*%
X194550000Y-78030000D03*
X208400000Y-80570000D03*
%TD*%
D25*
%TO.C,D33*%
X180375000Y-112750000D03*
X183525000Y-112750000D03*
%TD*%
D15*
%TO.C,C43*%
X133150000Y-108462500D03*
X133150000Y-110537500D03*
%TD*%
%TO.C,C40*%
X219724998Y-110349999D03*
X219724998Y-112424999D03*
%TD*%
D26*
%TO.C,R4*%
X217770002Y-79749998D03*
X217770002Y-81749998D03*
%TD*%
D23*
%TO.C,D25*%
X188949999Y-132315001D03*
X190050000Y-132314999D03*
X190050001Y-130484999D03*
X188950000Y-130485001D03*
%TD*%
D24*
%TO.C,C1*%
X154487500Y-113400000D03*
X152412500Y-113400000D03*
%TD*%
%TO.C,C18*%
X229787500Y-94550000D03*
X227712500Y-94550000D03*
%TD*%
D12*
%TO.C,K7*%
X155300000Y-56530000D03*
X169150000Y-59070000D03*
%TD*%
D25*
%TO.C,D2*%
X121015000Y-85110000D03*
X124165000Y-85110000D03*
%TD*%
D27*
%TO.C,C19*%
X227662501Y-109049998D03*
X229737501Y-109049998D03*
%TD*%
D12*
%TO.C,K6*%
X135800000Y-102030000D03*
X149650000Y-104570000D03*
%TD*%
D14*
%TO.C,R11*%
X179400000Y-134900001D03*
X177400000Y-134900001D03*
%TD*%
D12*
%TO.C,K5*%
X135800000Y-82530000D03*
X149650000Y-85070000D03*
%TD*%
D25*
%TO.C,D21*%
X180025000Y-74100000D03*
X183175000Y-74100000D03*
%TD*%
D12*
%TO.C,K2*%
X116300000Y-89530000D03*
X130150000Y-92070000D03*
%TD*%
%TO.C,K10*%
X174800000Y-58530000D03*
X188650000Y-61070000D03*
%TD*%
D14*
%TO.C,R12*%
X179399999Y-131949998D03*
X177399999Y-131949998D03*
%TD*%
D15*
%TO.C,C39*%
X222024999Y-110300000D03*
X222024999Y-112375000D03*
%TD*%
D23*
%TO.C,D8*%
X130799999Y-67715001D03*
X131900000Y-67714999D03*
X131900001Y-65884999D03*
X130800000Y-65885001D03*
%TD*%
D14*
%TO.C,R5*%
X179400000Y-137850000D03*
X177400000Y-137850000D03*
%TD*%
D15*
%TO.C,C2*%
X214900004Y-79712498D03*
X214900004Y-81787498D03*
%TD*%
D23*
%TO.C,D36*%
X150949999Y-100565001D03*
X152050000Y-100564999D03*
X152050001Y-98734999D03*
X150950000Y-98735001D03*
%TD*%
%TO.C,D29*%
X150799999Y-80265001D03*
X151900000Y-80264999D03*
X151900001Y-78434999D03*
X150800000Y-78435001D03*
%TD*%
D27*
%TO.C,C20*%
X211962500Y-101900000D03*
X214037500Y-101900000D03*
%TD*%
D15*
%TO.C,C54*%
X211350000Y-77262500D03*
X211350000Y-79337500D03*
%TD*%
D28*
%TO.C,R1*%
X159050000Y-115160000D03*
X161050000Y-115160000D03*
%TD*%
D15*
%TO.C,C44*%
X152600000Y-62212500D03*
X152600000Y-64287500D03*
%TD*%
D14*
%TO.C,R17*%
X145850000Y-118899999D03*
X143850000Y-118899999D03*
%TD*%
D23*
%TO.C,D31*%
X209249999Y-136765001D03*
X210350000Y-136764999D03*
X210350001Y-134934999D03*
X209250000Y-134935001D03*
%TD*%
D12*
%TO.C,K13*%
X194550000Y-58530000D03*
X208400000Y-61070000D03*
%TD*%
D26*
%TO.C,R3*%
X220200000Y-79750000D03*
X220200000Y-81750000D03*
%TD*%
D29*
%TO.C,P1*%
X224460000Y-84360000D03*
X224460001Y-83560001D03*
D30*
X224460001Y-82410000D03*
X224460000Y-81410001D03*
X224459999Y-80910001D03*
X224460000Y-79909999D03*
D29*
X224459999Y-78759999D03*
X224460000Y-77959999D03*
X224460000Y-77959999D03*
X224459999Y-78759999D03*
D30*
X224460001Y-79410000D03*
X224460000Y-80410001D03*
X224460000Y-81910000D03*
X224459999Y-82910000D03*
D29*
X224460001Y-83560001D03*
X224460000Y-84360000D03*
D31*
X225035000Y-85480002D03*
D32*
X229215000Y-85480001D03*
D31*
X225034998Y-76840000D03*
D32*
X229215000Y-76840000D03*
%TD*%
D25*
%TO.C,D34*%
X198175000Y-118950000D03*
X201325000Y-118950000D03*
%TD*%
D15*
%TO.C,C45*%
X153200000Y-81862500D03*
X153200000Y-83937500D03*
%TD*%
D33*
%TO.C,C21*%
X228783623Y-92083623D03*
X227316377Y-90616377D03*
%TD*%
D26*
%TO.C,R14*%
X157500000Y-121850000D03*
X157500000Y-123850000D03*
%TD*%
D34*
%TO.C,U7*%
X218236253Y-101350004D03*
X219318127Y-102431872D03*
X220400004Y-103513747D03*
X221481872Y-102431873D03*
X220400000Y-101350000D03*
X219318128Y-100268127D03*
X220399996Y-99186253D03*
X221481873Y-100268128D03*
X222563747Y-101349996D03*
D35*
X216758400Y-101880330D03*
X217041245Y-102163172D03*
X217324086Y-102446015D03*
X217606928Y-102728858D03*
X217889771Y-103011701D03*
X218172614Y-103294544D03*
X218455456Y-103577386D03*
X218738299Y-103860230D03*
X219021143Y-104143072D03*
X219303984Y-104425914D03*
X219586826Y-104708758D03*
X219869670Y-104991600D03*
D36*
X220930330Y-104991600D03*
X221213172Y-104708755D03*
X221496015Y-104425914D03*
X221778858Y-104143072D03*
X222061701Y-103860229D03*
X222344544Y-103577386D03*
X222627386Y-103294544D03*
X222910230Y-103011701D03*
X223193072Y-102728857D03*
X223475914Y-102446016D03*
X223758758Y-102163174D03*
X224041600Y-101880330D03*
D35*
X224041600Y-100819670D03*
X223758755Y-100536828D03*
X223475914Y-100253985D03*
X223193072Y-99971142D03*
X222910229Y-99688299D03*
X222627386Y-99405456D03*
X222344544Y-99122614D03*
X222061701Y-98839770D03*
X221778857Y-98556928D03*
X221496016Y-98274086D03*
X221213174Y-97991242D03*
X220930330Y-97708400D03*
D36*
X219869670Y-97708400D03*
X219586828Y-97991245D03*
X219303985Y-98274086D03*
X219021142Y-98556928D03*
X218738299Y-98839771D03*
X218455456Y-99122614D03*
X218172614Y-99405456D03*
X217889770Y-99688299D03*
X217606928Y-99971143D03*
X217324086Y-100253984D03*
X217041242Y-100536826D03*
X216758400Y-100819670D03*
%TD*%
D37*
%TO.C,Y1*%
X225206069Y-95416115D03*
X224216116Y-96406067D03*
X224993931Y-97183885D03*
X225983884Y-96193933D03*
%TD*%
D12*
%TO.C,K3*%
X116300000Y-109030000D03*
X130150000Y-111570000D03*
%TD*%
D28*
%TO.C,R2*%
X159050000Y-111350000D03*
X161050000Y-111350000D03*
%TD*%
D12*
%TO.C,K15*%
X194550000Y-97530000D03*
X208400000Y-100070000D03*
%TD*%
D38*
%TO.C,U5*%
X154700000Y-117100000D03*
X153900000Y-117100000D03*
X154700000Y-117900000D03*
X153900000Y-117900000D03*
D39*
X155050000Y-116062500D03*
X154550000Y-116062500D03*
X154050000Y-116062500D03*
X153550000Y-116062500D03*
D40*
X152862500Y-116750000D03*
X152862500Y-117250000D03*
X152862500Y-117750000D03*
X152862500Y-118250000D03*
D39*
X153550000Y-118937500D03*
X154050000Y-118937500D03*
X154550000Y-118937500D03*
X155050000Y-118937500D03*
D40*
X155737500Y-118250000D03*
X155737500Y-117750000D03*
X155737500Y-117250000D03*
X155737500Y-116750000D03*
%TD*%
D24*
%TO.C,C52*%
X190387500Y-90050000D03*
X188312500Y-90050000D03*
%TD*%
D41*
%TO.C,C35*%
X225183625Y-92516378D03*
X223716379Y-93983624D03*
%TD*%
D15*
%TO.C,C48*%
X171950000Y-75862500D03*
X171950000Y-77937500D03*
%TD*%
D24*
%TO.C,C53*%
X202987500Y-51700000D03*
X200912500Y-51700000D03*
%TD*%
D25*
%TO.C,D14*%
X160925000Y-52650000D03*
X164075000Y-52650000D03*
%TD*%
%TO.C,D7*%
X141175000Y-98400000D03*
X144325000Y-98400000D03*
%TD*%
D23*
%TO.C,D9*%
X170099999Y-55015001D03*
X171200000Y-55014999D03*
X171200001Y-53184999D03*
X170100000Y-53185001D03*
%TD*%
D25*
%TO.C,D1*%
X119675000Y-66150000D03*
X122825000Y-66150000D03*
%TD*%
D41*
%TO.C,C36*%
X223451212Y-90713259D03*
X221983966Y-92180505D03*
%TD*%
D42*
%TO.C,Q2*%
X217312497Y-72200003D03*
X217312499Y-74099999D03*
X219187500Y-73150000D03*
%TD*%
D25*
%TO.C,D20*%
X180825000Y-54600000D03*
X183975000Y-54600000D03*
%TD*%
D23*
%TO.C,D38*%
X227849999Y-141415001D03*
X228950000Y-141414999D03*
X228950001Y-139584999D03*
X227850000Y-139585001D03*
%TD*%
D12*
%TO.C,K17*%
X194300000Y-123030000D03*
X208150000Y-125570000D03*
%TD*%
D24*
%TO.C,C8*%
X229787500Y-97350000D03*
X227712500Y-97350000D03*
%TD*%
D43*
%TO.C,D4*%
X150574997Y-116100001D03*
X148525001Y-116099999D03*
%TD*%
D25*
%TO.C,D15*%
X161075000Y-71900000D03*
X164225000Y-71900000D03*
%TD*%
D15*
%TO.C,C47*%
X171900000Y-56712500D03*
X171900000Y-58787500D03*
%TD*%
%TO.C,C50*%
X191650000Y-58012500D03*
X191650000Y-60087500D03*
%TD*%
D23*
%TO.C,D10*%
X209500000Y-57365001D03*
X210599999Y-57364999D03*
X210600000Y-55534999D03*
X209500001Y-55535001D03*
%TD*%
%TO.C,D24*%
X189949999Y-55865001D03*
X191050000Y-55864999D03*
X191050001Y-54034999D03*
X189950000Y-54035001D03*
%TD*%
D15*
%TO.C,C46*%
X153000000Y-102962500D03*
X153000000Y-105037500D03*
%TD*%
D27*
%TO.C,C37*%
X212512500Y-99700000D03*
X214587500Y-99700000D03*
%TD*%
D14*
%TO.C,R15*%
X145850000Y-116099999D03*
X143850000Y-116099999D03*
%TD*%
D25*
%TO.C,D5*%
X140725000Y-58650000D03*
X143875000Y-58650000D03*
%TD*%
D23*
%TO.C,D19*%
X209599999Y-96215001D03*
X210700000Y-96214999D03*
X210700001Y-94384999D03*
X209600000Y-94385001D03*
%TD*%
D26*
%TO.C,R6*%
X155350000Y-121850000D03*
X155350000Y-123850000D03*
%TD*%
D12*
%TO.C,K4*%
X135800000Y-63030000D03*
X149650000Y-65570000D03*
%TD*%
D15*
%TO.C,C49*%
X172250000Y-96762500D03*
X172250000Y-98837500D03*
%TD*%
D23*
%TO.C,D30*%
X189999999Y-75365001D03*
X191100000Y-75364999D03*
X191100001Y-73534999D03*
X190000000Y-73535001D03*
%TD*%
D44*
%TO.C,SW3*%
X170880000Y-132050000D03*
X168670000Y-132050000D03*
X170880000Y-139350000D03*
X168670000Y-139350000D03*
D45*
X171530000Y-133450000D03*
X171530000Y-136450000D03*
X171530000Y-137950000D03*
%TD*%
D25*
%TO.C,D27*%
X200825000Y-73850000D03*
X203975000Y-73850000D03*
%TD*%
D26*
%TO.C,R7*%
X153050000Y-121850000D03*
X153050000Y-123850000D03*
%TD*%
D43*
%TO.C,D32*%
X150574998Y-118900001D03*
X148525002Y-118899999D03*
%TD*%
D23*
%TO.C,D23*%
X150650000Y-60165001D03*
X151749999Y-60164999D03*
X151750000Y-58334999D03*
X150650001Y-58335001D03*
%TD*%
D25*
%TO.C,D3*%
X120515000Y-105110000D03*
X123665000Y-105110000D03*
%TD*%
D46*
%TO.C,Q1*%
X179199997Y-140662497D03*
X177300002Y-140662499D03*
X178249999Y-142537500D03*
%TD*%
D23*
%TO.C,D13*%
X209649999Y-74665001D03*
X210750000Y-74664999D03*
X210750001Y-72834999D03*
X209650000Y-72835001D03*
%TD*%
D25*
%TO.C,D16*%
X159575000Y-90450000D03*
X162725000Y-90450000D03*
%TD*%
D24*
%TO.C,C55*%
X210937500Y-91550000D03*
X208862500Y-91550000D03*
%TD*%
D47*
%TO.C,L3*%
X225475000Y-88100000D03*
X227225000Y-88100000D03*
%TD*%
D12*
%TO.C,K11*%
X174800000Y-78030000D03*
X188650000Y-80570000D03*
%TD*%
%TO.C,K1*%
X116300000Y-70030000D03*
X130150000Y-72570000D03*
%TD*%
D15*
%TO.C,C38*%
X224300000Y-110262500D03*
X224300000Y-112337500D03*
%TD*%
D25*
%TO.C,D35*%
X218525000Y-139650000D03*
X221675000Y-139650000D03*
%TD*%
D23*
%TO.C,D37*%
X189299999Y-94115001D03*
X190400000Y-94114999D03*
X190400001Y-92284999D03*
X189300000Y-92285001D03*
%TD*%
%TO.C,D12*%
X170499999Y-73965001D03*
X171600000Y-73964999D03*
X171600001Y-72134999D03*
X170500000Y-72135001D03*
%TD*%
D25*
%TO.C,D22*%
X179475000Y-92960000D03*
X182625000Y-92960000D03*
%TD*%
D23*
%TO.C,D11*%
X131644150Y-87962674D03*
X132744151Y-87962674D03*
X132744149Y-86132676D03*
X131644144Y-86132673D03*
%TD*%
D25*
%TO.C,D28*%
X199325000Y-92850000D03*
X202475000Y-92850000D03*
%TD*%
%TO.C,D6*%
X140975000Y-78200000D03*
X144125000Y-78200000D03*
%TD*%
M02*
