%TF.GenerationSoftware,KiCad,Pcbnew,8.0.2*%
%TF.CreationDate,2025-01-19T21:46:12+07:00*%
%TF.ProjectId,sudi-keyboard,73756469-2d6b-4657-9962-6f6172642e6b,1*%
%TF.SameCoordinates,Original*%
%TF.FileFunction,Other,ECO2*%
%FSLAX46Y46*%
G04 Gerber Fmt 4.6, Leading zero omitted, Abs format (unit mm)*
G04 Created by KiCad (PCBNEW 8.0.2) date 2025-01-19 21:46:12*
%MOMM*%
%LPD*%
G01*
G04 APERTURE LIST*
%ADD10C,0.150000*%
G04 APERTURE END LIST*
D10*
%TO.C,K16*%
X174190000Y-129010000D02*
X174190000Y-115210000D01*
X174190000Y-129010000D02*
X187990000Y-129010000D01*
X187990000Y-115210000D02*
X174190000Y-115210000D01*
X187990000Y-115210000D02*
X187990000Y-129010000D01*
%TO.C,K9*%
X154690000Y-107510000D02*
X154690000Y-93710000D01*
X154690000Y-107510000D02*
X168490000Y-107510000D01*
X168490000Y-93710000D02*
X154690000Y-93710000D01*
X168490000Y-93710000D02*
X168490000Y-107510000D01*
%TO.C,K8*%
X154690000Y-88010000D02*
X154690000Y-74210000D01*
X154690000Y-88010000D02*
X168490000Y-88010000D01*
X168490000Y-74210000D02*
X154690000Y-74210000D01*
X168490000Y-74210000D02*
X168490000Y-88010000D01*
%TO.C,K18*%
X213190000Y-137510000D02*
X213190000Y-123710000D01*
X213190000Y-137510000D02*
X226990000Y-137510000D01*
X226990000Y-123710000D02*
X213190000Y-123710000D01*
X226990000Y-123710000D02*
X226990000Y-137510000D01*
%TO.C,K12*%
X174190000Y-109510000D02*
X174190000Y-95710000D01*
X174190000Y-109510000D02*
X187990000Y-109510000D01*
X187990000Y-95710000D02*
X174190000Y-95710000D01*
X187990000Y-95710000D02*
X187990000Y-109510000D01*
%TO.C,K14*%
X193940000Y-90010000D02*
X193940000Y-76210000D01*
X193940000Y-90010000D02*
X207740000Y-90010000D01*
X207740000Y-76210000D02*
X193940000Y-76210000D01*
X207740000Y-76210000D02*
X207740000Y-90010000D01*
%TO.C,K7*%
X154690000Y-68510000D02*
X154690000Y-54710000D01*
X154690000Y-68510000D02*
X168490000Y-68510000D01*
X168490000Y-54710000D02*
X154690000Y-54710000D01*
X168490000Y-54710000D02*
X168490000Y-68510000D01*
%TO.C,K6*%
X135190000Y-114010000D02*
X135190000Y-100210000D01*
X135190000Y-114010000D02*
X148990000Y-114010000D01*
X148990000Y-100210000D02*
X135190000Y-100210000D01*
X148990000Y-100210000D02*
X148990000Y-114010000D01*
%TO.C,K5*%
X135190000Y-94510000D02*
X135190000Y-80710000D01*
X135190000Y-94510000D02*
X148990000Y-94510000D01*
X148990000Y-80710000D02*
X135190000Y-80710000D01*
X148990000Y-80710000D02*
X148990000Y-94510000D01*
%TO.C,K2*%
X115690000Y-101510000D02*
X115690000Y-87710000D01*
X115690000Y-101510000D02*
X129490000Y-101510000D01*
X129490000Y-87710000D02*
X115690000Y-87710000D01*
X129490000Y-87710000D02*
X129490000Y-101510000D01*
%TO.C,K10*%
X174190000Y-70510000D02*
X174190000Y-56710000D01*
X174190000Y-70510000D02*
X187990000Y-70510000D01*
X187990000Y-56710000D02*
X174190000Y-56710000D01*
X187990000Y-56710000D02*
X187990000Y-70510000D01*
%TO.C,K13*%
X193940000Y-70510000D02*
X193940000Y-56710000D01*
X193940000Y-70510000D02*
X207740000Y-70510000D01*
X207740000Y-56710000D02*
X193940000Y-56710000D01*
X207740000Y-56710000D02*
X207740000Y-70510000D01*
%TO.C,K3*%
X115690000Y-121010000D02*
X115690000Y-107210000D01*
X115690000Y-121010000D02*
X129490000Y-121010000D01*
X129490000Y-107210000D02*
X115690000Y-107210000D01*
X129490000Y-107210000D02*
X129490000Y-121010000D01*
%TO.C,K15*%
X193940000Y-109510000D02*
X193940000Y-95710000D01*
X193940000Y-109510000D02*
X207740000Y-109510000D01*
X207740000Y-95710000D02*
X193940000Y-95710000D01*
X207740000Y-95710000D02*
X207740000Y-109510000D01*
%TO.C,K17*%
X193690000Y-135010000D02*
X193690000Y-121210000D01*
X193690000Y-135010000D02*
X207490000Y-135010000D01*
X207490000Y-121210000D02*
X193690000Y-121210000D01*
X207490000Y-121210000D02*
X207490000Y-135010000D01*
%TO.C,K4*%
X135190000Y-75010000D02*
X135190000Y-61210000D01*
X135190000Y-75010000D02*
X148990000Y-75010000D01*
X148990000Y-61210000D02*
X135190000Y-61210000D01*
X148990000Y-61210000D02*
X148990000Y-75010000D01*
%TO.C,K11*%
X174190000Y-90010000D02*
X174190000Y-76210000D01*
X174190000Y-90010000D02*
X187990000Y-90010000D01*
X187990000Y-76210000D02*
X174190000Y-76210000D01*
X187990000Y-76210000D02*
X187990000Y-90010000D01*
%TO.C,K1*%
X115690000Y-82010000D02*
X115690000Y-68210000D01*
X115690000Y-82010000D02*
X129490000Y-82010000D01*
X129490000Y-68210000D02*
X115690000Y-68210000D01*
X129490000Y-68210000D02*
X129490000Y-82010000D01*
%TD*%
M02*
