M48
; DRILL file {KiCad 8.0.2} date 2025-01-19T21:40:30+0700
; FORMAT={-:-/ absolute / inch / decimal}
; #@! TF.CreationDate,2025-01-19T21:40:30+07:00
; #@! TF.GenerationSoftware,Kicad,Pcbnew,8.0.2
; #@! TF.FileFunction,NonPlated,1,2,NPTH
FMAT,2
INCH
; #@! TA.AperFunction,NonPlated,NPTH,ComponentDrill
T1C0.0256
; #@! TA.AperFunction,NonPlated,NPTH,ComponentDrill
T2C0.0354
; #@! TA.AperFunction,NonPlated,NPTH,ComponentDrill
T3C0.1181
; #@! TA.AperFunction,NonPlated,NPTH,ComponentDrill
T4C0.1570
%
G90
G05
T1
X8.8793Y-3.3091
X8.8793Y-3.0815
T2
X4.6909Y-4.948
X4.8091Y-4.948
X6.6839Y-5.2835
X6.6839Y-5.4016
T3
X4.7264Y-2.7571
X4.7264Y-3.1571
X4.7264Y-3.5248
X4.7264Y-3.9248
X4.7264Y-4.2925
X4.7264Y-4.6925
X4.9764Y-2.8571
X4.9764Y-3.0571
X4.9764Y-3.6248
X4.9764Y-3.8248
X4.9764Y-4.3925
X4.9764Y-4.5925
X5.4941Y-2.4815
X5.4941Y-2.8815
X5.4941Y-3.2492
X5.4941Y-3.6492
X5.4941Y-4.0169
X5.4941Y-4.4169
X5.7441Y-2.5815
X5.7441Y-2.7815
X5.7441Y-3.3492
X5.7441Y-3.5492
X5.7441Y-4.1169
X5.7441Y-4.3169
X6.2618Y-2.2256
X6.2618Y-2.6256
X6.2618Y-2.9933
X6.2618Y-3.3933
X6.2618Y-3.761
X6.2618Y-4.161
X6.5118Y-2.3256
X6.5118Y-2.5256
X6.5118Y-3.0933
X6.5118Y-3.2933
X6.5118Y-3.861
X6.5118Y-4.061
X7.0295Y-2.3043
X7.0295Y-2.7043
X7.0295Y-3.072
X7.0295Y-3.472
X7.0295Y-3.8398
X7.0295Y-4.2398
X7.0295Y-4.6075
X7.0295Y-5.0075
X7.2795Y-2.4043
X7.2795Y-2.6043
X7.2795Y-3.172
X7.2795Y-3.372
X7.2795Y-3.9398
X7.2795Y-4.1398
X7.2795Y-4.7075
X7.2795Y-4.9075
X7.7972Y-4.8437
X7.7972Y-5.2437
X7.8071Y-2.3043
X7.8071Y-2.7043
X7.8071Y-3.072
X7.8071Y-3.472
X7.8071Y-3.8398
X7.8071Y-4.2398
X8.0472Y-4.9437
X8.0472Y-5.1437
X8.0571Y-2.4043
X8.0571Y-2.6043
X8.0571Y-3.172
X8.0571Y-3.372
X8.0571Y-3.9398
X8.0571Y-4.1398
X8.565Y-4.9421
X8.565Y-5.3421
X8.815Y-5.0421
X8.815Y-5.2421
T4
X4.8264Y-2.9571
X4.8264Y-3.7248
X4.8264Y-4.4925
X5.5941Y-2.6815
X5.5941Y-3.4492
X5.5941Y-4.2169
X6.3618Y-2.4256
X6.3618Y-3.1933
X6.3618Y-3.961
X7.1295Y-2.5043
X7.1295Y-3.272
X7.1295Y-4.0398
X7.1295Y-4.8075
X7.8972Y-5.0437
X7.9071Y-2.5043
X7.9071Y-3.272
X7.9071Y-4.0398
X8.665Y-5.1421
M30
