M48
; DRILL file {KiCad 8.0.2} date 2025-01-19T21:40:30+0700
; FORMAT={-:-/ absolute / inch / decimal}
; #@! TF.CreationDate,2025-01-19T21:40:30+07:00
; #@! TF.GenerationSoftware,Kicad,Pcbnew,8.0.2
; #@! TF.FileFunction,Plated,1,2,PTH
FMAT,2
INCH
; #@! TA.AperFunction,Plated,PTH,ComponentDrill
T1C0.0079
; #@! TA.AperFunction,Plated,PTH,ComponentDrill
T2C0.0118
; #@! TA.AperFunction,Plated,PTH,ViaDrill
T3C0.0157
; #@! TA.AperFunction,Plated,PTH,ComponentDrill
T4C0.0236
; #@! TA.AperFunction,Plated,PTH,ComponentDrill
T5C0.0276
; #@! TA.AperFunction,Plated,PTH,ComponentDrill
T6C0.0394
; #@! TA.AperFunction,Plated,PTH,ComponentDrill
T7C0.0590
; #@! TA.AperFunction,Plated,PTH,ComponentDrill
T8C0.1260
%
G90
G05
T1
X5.2618Y-4.6024
X5.2992Y-4.5797
X5.2992Y-4.625
X5.3366Y-4.6024
X6.5059Y-4.7791
X6.5433Y-4.7565
X6.5433Y-4.8018
X6.5807Y-4.7791
T2
X8.7382Y-3.4921
T3
X4.5709Y-4.6909
X4.5787Y-4.2894
X4.5807Y-2.75
X4.5827Y-3.5197
X4.6614Y-4.874
X4.8425Y-4.8327
X4.8858Y-4.8425
X5.0984Y-4.7657
X5.1004Y-2.5945
X5.1004Y-2.6654
X5.1181Y-4.189
X5.1181Y-4.1161
X5.1181Y-2.8602
X5.1201Y-3.6398
X5.128Y-4.3996
X5.1454Y-3.4644
X5.1454Y-3.3916
X5.2362Y-4.189
X5.2362Y-4.1161
X5.2382Y-2.5945
X5.2402Y-2.6654
X5.2618Y-4.7421
X5.2635Y-3.4625
X5.2655Y-3.3916
X5.3465Y-2.4783
X5.3465Y-4.4169
X5.3504Y-3.2461
X5.3504Y-4.0217
X5.5335Y-2.2283
X5.5906Y-2.2012
X5.6102Y-4.5886
X5.8327Y-3.7559
X5.8583Y-4.7461
X5.8858Y-2.2343
X5.8878Y-2.5787
X5.8917Y-4.1201
X5.8933Y-4.498
X5.8937Y-2.3701
X5.8937Y-2.2972
X5.8937Y-3.3465
X5.8996Y-3.1594
X5.8996Y-3.0906
X5.9055Y-3.9587
X5.9055Y-3.8858
X5.9626Y-4.8484
X5.9823Y-4.5965
X5.9902Y-4.748
X6.0118Y-2.3681
X6.0118Y-2.2953
X6.0177Y-3.1593
X6.0177Y-3.0866
X6.0236Y-3.9587
X6.0236Y-3.8878
X6.0312Y-2.8366
X6.0315Y-2.126
X6.0394Y-4.3661
X6.065Y-4.2579
X6.0669Y-2.1496
X6.0886Y-4.4646
X6.1122Y-4.1614
X6.1142Y-2.2283
X6.1142Y-2.9902
X6.1181Y-3.7618
X6.126Y-4.25
X6.1358Y-4.6831
X6.1691Y-4.2541
X6.1732Y-4.372
X6.1988Y-4.6831
X6.2008Y-4.874
X6.2268Y-4.4901
X6.2618Y-4.5335
X6.2638Y-4.3839
X6.3071Y-4.8287
X6.3091Y-4.4508
X6.3091Y-4.7343
X6.3366Y-4.3858
X6.3406Y-4.5339
X6.3441Y-4.6008
X6.3917Y-4.4508
X6.4075Y-4.3839
X6.4094Y-4.6083
X6.439Y-4.7815
X6.4547Y-4.372
X6.4587Y-4.3012
X6.4803Y-4.6988
X6.6211Y-4.8247
X6.6292Y-4.75
X6.6339Y-3.6043
X6.6516Y-3.8622
X6.6594Y-2.1634
X6.6594Y-2.0925
X6.6614Y-2.3248
X6.6732Y-3.7283
X6.6732Y-3.6555
X6.6732Y-3.1024
X6.6752Y-2.9134
X6.6752Y-2.8386
X6.7657Y-1.9508
X6.7697Y-4.4173
X6.7765Y-2.1146
X6.7776Y-2.1654
X6.7913Y-3.7283
X6.7913Y-3.6584
X6.7923Y-4.748
X6.7933Y-2.9076
X6.7933Y-2.8407
X6.8071Y-5.3366
X6.8179Y-4.3012
X6.8209Y-5.4685
X6.8299Y-4.435
X6.8346Y-5.1244
X6.8799Y-4.6063
X6.8839Y-3.061
X6.8858Y-2.3012
X6.8858Y-3.8386
X6.9075Y-4.4114
X6.935Y-4.315
X6.9803Y-5.4311
X7.0256Y-4.3839
X7.063Y-5.3051
X7.1437Y-4.3878
X7.3681Y-4.2988
X7.3926Y-5.0619
X7.4016Y-5.2087
X7.4016Y-5.1378
X7.413Y-4.4374
X7.4154Y-3.7047
X7.4154Y-3.6319
X7.4272Y-3.172
X7.4272Y-3.9409
X7.4272Y-4.7146
X7.4311Y-2.3917
X7.439Y-2.0315
X7.4409Y-2.2008
X7.4409Y-2.128
X7.4429Y-2.9665
X7.4429Y-2.8937
X7.464Y-4.355
X7.4764Y-4.2697
X7.4906Y-5.3366
X7.502Y-4.3445
X7.5033Y-3.7732
X7.5197Y-5.2106
X7.5197Y-5.1358
X7.5217Y-4.1358
X7.5335Y-3.7047
X7.5335Y-3.6319
X7.5374Y-4.1752
X7.5374Y-4.2579
X7.5374Y-3.7535
X7.5591Y-2.1988
X7.5591Y-2.126
X7.561Y-2.9665
X7.561Y-2.8937
X7.563Y-4.3996
X7.579Y-2.8166
X7.6012Y-4.6547
X7.6043Y-3.6004
X7.624Y-2.2008
X7.6476Y-4.5571
X7.6476Y-4.8386
X7.6516Y-2.3012
X7.6575Y-3.065
X7.6594Y-3.8425
X7.6594Y-4.2441
X7.6691Y-4.4415
X7.6831Y-4.4803
X7.7416Y-4.4627
X7.7441Y-4.5039
X7.7802Y-4.435
X7.9075Y-2.0394
X8.1437Y-4.3012
X8.1614Y-4.435
X8.1949Y-4.9437
X8.2008Y-5.3839
X8.2008Y-5.311
X8.2008Y-4.4508
X8.2047Y-3.939
X8.2067Y-3.1673
X8.2087Y-2.4075
X8.2087Y-4.3169
X8.2106Y-2.252
X8.2106Y-2.187
X8.2146Y-3.7874
X8.2146Y-3.7146
X8.2165Y-2.9409
X8.2165Y-2.8642
X8.2953Y-3.9823
X8.3012Y-2.977
X8.3094Y-4.3285
X8.3163Y-2.8307
X8.3169Y-4.8602
X8.3189Y-5.3839
X8.3189Y-5.3071
X8.3209Y-4.2539
X8.3262Y-4.2929
X8.3287Y-2.252
X8.3287Y-2.185
X8.3327Y-3.7815
X8.3327Y-3.7165
X8.3386Y-2.685
X8.3543Y-5.2579
X8.3622Y-5.4331
X8.3632Y-3.248
X8.372Y-4.8504
X8.373Y-3.5728
X8.376Y-3.1988
X8.3799Y-5.0886
X8.4134Y-4.939
X8.4213Y-4.8327
X8.4272Y-5.472
X8.4311Y-3.5689
X8.4331Y-3.4997
X8.4427Y-2.8366
X8.4626Y-4.5854
X8.4626Y-4.7205
X8.4683Y-3.1575
X8.469Y-3.5584
X8.4724Y-2.6319
X8.498Y-5.4429
X8.5Y-4.502
X8.5079Y-3.9178
X8.5145Y-4.3143
X8.5217Y-2.6791
X8.5433Y-4.2874
X8.5709Y-4.3788
X8.5727Y-4.4575
X8.5731Y-4.4181
X8.5763Y-4.4967
X8.5767Y-4.3398
X8.6634Y-2.5551
X8.6713Y-2.7953
X8.6732Y-4.248
X8.6772Y-3.8071
X8.689Y-2.6024
X8.6954Y-4.1693
X8.7185Y-4.5283
X8.7258Y-2.8386
X8.7323Y-4.2886
X8.7382Y-4.3563
X8.7444Y-3.1759
X8.7461Y-4.5591
X8.7486Y-3.7638
X8.7486Y-3.8031
X8.7579Y-2.6457
X8.7716Y-4.2866
X8.7736Y-4.4823
X8.7736Y-4.5217
X8.7835Y-3.1811
X8.8083Y-4.7764
X8.8109Y-4.2849
X8.8292Y-3.7937
X8.8293Y-4.196
X8.845Y-4.1457
X8.8503Y-4.2864
X8.858Y-3.8261
X8.8622Y-3.7559
X8.8701Y-3.6457
X8.878Y-3.9606
X8.8785Y-4.7441
X8.8859Y-5.4449
X8.8891Y-4.2795
X8.8891Y-4.3952
X8.8894Y-4.7819
X8.8957Y-4.878
X8.8976Y-3.7874
X8.9016Y-4.2422
X8.9075Y-4.7165
X8.9264Y-4.8228
X8.9331Y-5.5709
X8.9331Y-5.5
X8.935Y-4.9055
X8.9646Y-4.2008
X8.9705Y-5.0354
X8.9941Y-4.8504
X9.0079Y-3.8898
X9.0138Y-3.624
X9.0157Y-5.6049
X9.0209Y-5.4266
X9.0485Y-5.4583
X9.0492Y-4.8463
X9.0512Y-5.5
T5
X4.6201Y-2.6043
X4.6531Y-4.1382
X4.6728Y-3.3508
X4.9272Y-2.6043
X4.9602Y-4.1382
X4.9799Y-3.3508
X5.4488Y-2.3091
X5.4587Y-3.0787
X5.4665Y-3.874
X5.7559Y-2.3091
X5.7657Y-3.0787
X5.7736Y-3.874
X6.1909Y-3.561
X6.2441Y-2.0728
X6.25Y-2.8307
X6.498Y-3.561
X6.5512Y-2.0728
X6.5571Y-2.8307
X6.9744Y-3.6598
X6.9961Y-2.9173
X7.0098Y-4.439
X7.0276Y-2.1496
X7.2815Y-3.6598
X7.3031Y-2.9173
X7.3169Y-4.439
X7.3346Y-2.1496
X7.7106Y-4.6831
X7.7559Y-3.6555
X7.7913Y-2.1437
X7.815Y-2.9075
X8.0177Y-4.6831
X8.063Y-3.6555
X8.0984Y-2.1437
X8.122Y-2.9075
X8.5118Y-5.498
X8.8189Y-5.498
T6
X5.6083Y-4.8094
X5.6083Y-4.9094
X7.2067Y-5.2854
X7.2067Y-5.4854
X7.2067Y-5.5854
X7.2067Y-5.3854
X8.5346Y-4.6575
X8.6346Y-4.6575
X8.7346Y-4.6575
X8.8346Y-4.6575
T7
X4.6764Y-2.8571
X4.6764Y-3.0571
X4.6764Y-3.6248
X4.6764Y-3.8248
X4.6764Y-4.3925
X4.6764Y-4.5925
X4.9264Y-2.7571
X4.9264Y-3.1571
X4.9264Y-3.5248
X4.9264Y-3.9248
X4.9264Y-4.2925
X4.9264Y-4.6925
X5.4441Y-2.5815
X5.4441Y-2.7815
X5.4441Y-3.3492
X5.4441Y-3.5492
X5.4441Y-4.1169
X5.4441Y-4.3169
X5.6941Y-2.4815
X5.6941Y-2.8815
X5.6941Y-3.2492
X5.6941Y-3.6492
X5.6941Y-4.0169
X5.6941Y-4.4169
X6.2118Y-2.3256
X6.2118Y-2.5256
X6.2118Y-3.0933
X6.2118Y-3.2933
X6.2118Y-3.861
X6.2118Y-4.061
X6.4618Y-2.2256
X6.4618Y-2.6256
X6.4618Y-2.9933
X6.4618Y-3.3933
X6.4618Y-3.761
X6.4618Y-4.161
X6.9795Y-2.4043
X6.9795Y-2.6043
X6.9795Y-3.172
X6.9795Y-3.372
X6.9795Y-3.9398
X6.9795Y-4.1398
X6.9795Y-4.7075
X6.9795Y-4.9075
X7.2295Y-2.3043
X7.2295Y-2.7043
X7.2295Y-3.072
X7.2295Y-3.472
X7.2295Y-3.8398
X7.2295Y-4.2398
X7.2295Y-4.6075
X7.2295Y-5.0075
X7.7472Y-4.9437
X7.7472Y-5.1437
X7.7571Y-2.4043
X7.7571Y-2.6043
X7.7571Y-3.172
X7.7571Y-3.372
X7.7571Y-3.9398
X7.7571Y-4.1398
X7.9972Y-4.8437
X7.9972Y-5.2437
X8.0071Y-2.3043
X8.0071Y-2.7043
X8.0071Y-3.072
X8.0071Y-3.472
X8.0071Y-3.8398
X8.0071Y-4.2398
X8.515Y-5.0421
X8.515Y-5.2421
X8.765Y-4.9421
X8.765Y-5.3421
T8
X4.9917Y-2.4354
X5.3618Y-4.8508
X6.6614Y-4.5807
X6.9209Y-1.9886
X7.4681Y-5.5634
X8.2894Y-4.6791
X8.4331Y-2.3976
T4
G00X8.5713Y-2.5923
M15
G01X8.5595Y-2.6127
M16
G05
G00X8.5595Y-2.6127
M15
G01X8.5713Y-2.5923
M16
G05
G00X8.6461Y-2.4627
M15
G01X8.6343Y-2.4832
M16
G05
G00X8.6343Y-2.4832
M15
G01X8.6461Y-2.4627
M16
G05
G00X8.838Y-3.0252
M15
G01X8.8813Y-3.0252
M16
G05
G00X8.838Y-3.3654
M15
G01X8.8813Y-3.3654
M16
G05
G00X8.8541Y-2.7828
M15
G01X8.8659Y-2.7623
M16
G05
G00X8.8659Y-2.7623
M15
G01X8.8541Y-2.7828
M16
G05
G00X8.9289Y-2.6532
M15
G01X8.9407Y-2.6328
M16
G05
G00X8.9407Y-2.6328
M15
G01X8.9289Y-2.6532
M16
G05
G00X9.0085Y-3.0252
M15
G01X9.04Y-3.0252
M16
G05
G00X9.0085Y-3.3654
M15
G01X9.04Y-3.3654
M16
G05
M30
