%TF.GenerationSoftware,KiCad,Pcbnew,8.0.2*%
%TF.CreationDate,2025-01-19T21:46:12+07:00*%
%TF.ProjectId,sudi-keyboard,73756469-2d6b-4657-9962-6f6172642e6b,1*%
%TF.SameCoordinates,Original*%
%TF.FileFunction,AssemblyDrawing,Top*%
%FSLAX46Y46*%
G04 Gerber Fmt 4.6, Leading zero omitted, Abs format (unit mm)*
G04 Created by KiCad (PCBNEW 8.0.2) date 2025-01-19 21:46:12*
%MOMM*%
%LPD*%
G01*
G04 APERTURE LIST*
%ADD10C,0.100000*%
%ADD11C,0.120000*%
%ADD12C,0.150000*%
G04 APERTURE END LIST*
D10*
%TO.C,SW4*%
X117300000Y-124350000D02*
X117300000Y-126950000D01*
X117300000Y-126950000D02*
X124000000Y-126950000D01*
X119250000Y-127000000D02*
X119250000Y-128300000D01*
X119250000Y-128300000D02*
X119450000Y-128500000D01*
X119450000Y-128500000D02*
X120300000Y-128500000D01*
X120300000Y-128500000D02*
X120500000Y-128300000D01*
X120500000Y-128300000D02*
X120550000Y-128250000D01*
X120550000Y-128250000D02*
X120550000Y-126950000D01*
X124000000Y-124350000D02*
X117300000Y-124350000D01*
X124000000Y-126950000D02*
X124000000Y-124350000D01*
D11*
%TO.C,K16*%
X173470000Y-115760000D02*
X173470000Y-118300000D01*
X173470000Y-118300000D02*
X176010000Y-118300000D01*
D12*
X173590000Y-114610000D02*
X188590000Y-114610000D01*
X173590000Y-129610000D02*
X173590000Y-114610000D01*
D11*
X176010000Y-115125000D02*
X176010000Y-119570000D01*
X176010000Y-115760000D02*
X173470000Y-115760000D01*
X176010000Y-119570000D02*
X181090000Y-119570000D01*
X183629999Y-121475001D02*
X187440000Y-121475000D01*
X184900000Y-115125000D02*
X176010000Y-115125000D01*
X187440000Y-120840000D02*
X189980000Y-120840000D01*
X187440000Y-121475000D02*
X187440000Y-117665000D01*
D12*
X188590000Y-114610000D02*
X188590000Y-129610000D01*
X188590000Y-129610000D02*
X173590000Y-129610000D01*
D11*
X189980000Y-118300000D02*
X187440000Y-118300000D01*
X189980000Y-120840000D02*
X189980000Y-118300000D01*
X181090001Y-119491829D02*
G75*
G02*
X183629999Y-121475001I-1J-2618171D01*
G01*
X184900000Y-115125000D02*
G75*
G02*
X187440000Y-117665000I0J-2540000D01*
G01*
D10*
%TO.C,FB1*%
X214220001Y-75449997D02*
X215020001Y-75449996D01*
X214220003Y-77050000D02*
X214220001Y-75449997D01*
X215020001Y-75449996D02*
X215020003Y-77049999D01*
X215020003Y-77049999D02*
X214220003Y-77050000D01*
%TO.C,R10*%
X227700000Y-106075000D02*
X229700000Y-106075000D01*
X227700000Y-107325000D02*
X227700000Y-106075000D01*
X229700000Y-106075000D02*
X229700000Y-107325000D01*
X229700000Y-107325000D02*
X227700000Y-107325000D01*
%TO.C,C51*%
X190825000Y-77700000D02*
X192075000Y-77700000D01*
X190825000Y-79700000D02*
X190825000Y-77700000D01*
X192075000Y-77700000D02*
X192075000Y-79700000D01*
X192075000Y-79700000D02*
X190825000Y-79700000D01*
%TO.C,J1*%
X228373634Y-64955658D02*
X224973634Y-70844630D01*
X217231366Y-66374630D01*
X220631366Y-60485658D01*
X228373634Y-64955658D01*
%TO.C,D17*%
X130499998Y-104350000D02*
X130500000Y-106000000D01*
X130499998Y-104350000D02*
X132500002Y-104350000D01*
X130500000Y-106000000D02*
X131050000Y-106550000D01*
X131050000Y-106550000D02*
X132500002Y-106550000D01*
X132500002Y-106550000D02*
X132500002Y-104350000D01*
X131049999Y-105950001D02*
X130500000Y-105950000D01*
X130500001Y-105500001D01*
X131050000Y-105499999D01*
X131049999Y-105950001D01*
G36*
X131049999Y-105950001D02*
G01*
X130500000Y-105950000D01*
X130500001Y-105500001D01*
X131050000Y-105499999D01*
X131049999Y-105950001D01*
G37*
X132500002Y-105500001D02*
X132500000Y-105950000D01*
X131900001Y-105949998D01*
X131900000Y-105500000D01*
X132500002Y-105500001D01*
G36*
X132500002Y-105500001D02*
G01*
X132500000Y-105950000D01*
X131900001Y-105949998D01*
X131900000Y-105500000D01*
X132500002Y-105500001D01*
G37*
%TO.C,C3*%
X148150000Y-121775000D02*
X150150000Y-121775000D01*
X148150000Y-123025000D02*
X148150000Y-121775000D01*
X150150000Y-121775000D02*
X150150000Y-123025000D01*
X150150000Y-123025000D02*
X148150000Y-123025000D01*
%TO.C,FID9*%
X169390000Y-124910000D02*
G75*
G02*
X166390000Y-124910000I-1500000J0D01*
G01*
X166390000Y-124910000D02*
G75*
G02*
X169390000Y-124910000I1500000J0D01*
G01*
D11*
%TO.C,K9*%
X153970000Y-94260000D02*
X153970000Y-96800000D01*
X153970000Y-96800000D02*
X156510000Y-96800000D01*
D12*
X154090000Y-93110000D02*
X169090000Y-93110000D01*
X154090000Y-108110000D02*
X154090000Y-93110000D01*
D11*
X156510000Y-93625000D02*
X156510000Y-98070000D01*
X156510000Y-94260000D02*
X153970000Y-94260000D01*
X156510000Y-98070000D02*
X161590000Y-98070000D01*
X164129999Y-99975001D02*
X167940000Y-99975000D01*
X165400000Y-93625000D02*
X156510000Y-93625000D01*
X167940000Y-99340000D02*
X170480000Y-99340000D01*
X167940000Y-99975000D02*
X167940000Y-96165000D01*
D12*
X169090000Y-93110000D02*
X169090000Y-108110000D01*
X169090000Y-108110000D02*
X154090000Y-108110000D01*
D11*
X170480000Y-96800000D02*
X167940000Y-96800000D01*
X170480000Y-99340000D02*
X170480000Y-96800000D01*
X161590001Y-97991829D02*
G75*
G02*
X164129999Y-99975001I-1J-2618171D01*
G01*
X165400000Y-93625000D02*
G75*
G02*
X167940000Y-96165000I0J-2540000D01*
G01*
D10*
%TO.C,FID2*%
X113190000Y-104710000D02*
G75*
G02*
X110190000Y-104710000I-1500000J0D01*
G01*
X110190000Y-104710000D02*
G75*
G02*
X113190000Y-104710000I1500000J0D01*
G01*
%TO.C,D18*%
X169999998Y-92700000D02*
X170000000Y-94350000D01*
X169999998Y-92700000D02*
X172000002Y-92700000D01*
X170000000Y-94350000D02*
X170550000Y-94900000D01*
X170550000Y-94900000D02*
X172000002Y-94900000D01*
X172000002Y-94900000D02*
X172000002Y-92700000D01*
X170549999Y-94300001D02*
X170000000Y-94300000D01*
X170000001Y-93850001D01*
X170550000Y-93849999D01*
X170549999Y-94300001D01*
G36*
X170549999Y-94300001D02*
G01*
X170000000Y-94300000D01*
X170000001Y-93850001D01*
X170550000Y-93849999D01*
X170549999Y-94300001D01*
G37*
X172000002Y-93850001D02*
X172000000Y-94300000D01*
X171400001Y-94299998D01*
X171400000Y-93850000D01*
X172000002Y-93850001D01*
G36*
X172000002Y-93850001D02*
G01*
X172000000Y-94300000D01*
X171400001Y-94299998D01*
X171400000Y-93850000D01*
X172000002Y-93850001D01*
G37*
%TO.C,C57*%
X217050000Y-89725000D02*
X219050000Y-89725000D01*
X217050000Y-90975000D02*
X217050000Y-89725000D01*
X219050000Y-89725000D02*
X219050000Y-90975000D01*
X219050000Y-90975000D02*
X217050000Y-90975000D01*
D11*
%TO.C,K8*%
X153970000Y-74760000D02*
X153970000Y-77300000D01*
X153970000Y-77300000D02*
X156510000Y-77300000D01*
D12*
X154090000Y-73610000D02*
X169090000Y-73610000D01*
X154090000Y-88610000D02*
X154090000Y-73610000D01*
D11*
X156510000Y-74125000D02*
X156510000Y-78570000D01*
X156510000Y-74760000D02*
X153970000Y-74760000D01*
X156510000Y-78570000D02*
X161590000Y-78570000D01*
X164129999Y-80475001D02*
X167940000Y-80475000D01*
X165400000Y-74125000D02*
X156510000Y-74125000D01*
X167940000Y-79840000D02*
X170480000Y-79840000D01*
X167940000Y-80475000D02*
X167940000Y-76665000D01*
D12*
X169090000Y-73610000D02*
X169090000Y-88610000D01*
X169090000Y-88610000D02*
X154090000Y-88610000D01*
D11*
X170480000Y-77300000D02*
X167940000Y-77300000D01*
X170480000Y-79840000D02*
X170480000Y-77300000D01*
X161590001Y-78491829D02*
G75*
G02*
X164129999Y-80475001I-1J-2618171D01*
G01*
X165400000Y-74125000D02*
G75*
G02*
X167940000Y-76665000I0J-2540000D01*
G01*
D10*
%TO.C,C42*%
X128225000Y-84150000D02*
X129475000Y-84150000D01*
X128225000Y-86150000D02*
X128225000Y-84150000D01*
X129475000Y-84150000D02*
X129475000Y-86150000D01*
X129475000Y-86150000D02*
X128225000Y-86150000D01*
%TO.C,FID3*%
X114190000Y-75210000D02*
G75*
G02*
X111190000Y-75210000I-1500000J0D01*
G01*
X111190000Y-75210000D02*
G75*
G02*
X114190000Y-75210000I1500000J0D01*
G01*
%TO.C,C41*%
X132225000Y-69900000D02*
X133475000Y-69900000D01*
X132225000Y-71900000D02*
X132225000Y-69900000D01*
X133475000Y-69900000D02*
X133475000Y-71900000D01*
X133475000Y-71900000D02*
X132225000Y-71900000D01*
D11*
%TO.C,K18*%
X212470000Y-124260000D02*
X212470000Y-126800000D01*
X212470000Y-126800000D02*
X215010000Y-126800000D01*
D12*
X212590000Y-123110000D02*
X227590000Y-123110000D01*
X212590000Y-138110000D02*
X212590000Y-123110000D01*
D11*
X215010000Y-123625000D02*
X215010000Y-128070000D01*
X215010000Y-124260000D02*
X212470000Y-124260000D01*
X215010000Y-128070000D02*
X220090000Y-128070000D01*
X222629999Y-129975001D02*
X226440000Y-129975000D01*
X223900000Y-123625000D02*
X215010000Y-123625000D01*
X226440000Y-129340000D02*
X228980000Y-129340000D01*
X226440000Y-129975000D02*
X226440000Y-126165000D01*
D12*
X227590000Y-123110000D02*
X227590000Y-138110000D01*
X227590000Y-138110000D02*
X212590000Y-138110000D01*
D11*
X228980000Y-126800000D02*
X226440000Y-126800000D01*
X228980000Y-129340000D02*
X228980000Y-126800000D01*
X220090001Y-127991829D02*
G75*
G02*
X222629999Y-129975001I-1J-2618171D01*
G01*
X223900000Y-123625000D02*
G75*
G02*
X226440000Y-126165000I0J-2540000D01*
G01*
%TO.C,K12*%
X173470000Y-96260000D02*
X173470000Y-98800000D01*
X173470000Y-98800000D02*
X176010000Y-98800000D01*
D12*
X173590000Y-95110000D02*
X188590000Y-95110000D01*
X173590000Y-110110000D02*
X173590000Y-95110000D01*
D11*
X176010000Y-95625000D02*
X176010000Y-100070000D01*
X176010000Y-96260000D02*
X173470000Y-96260000D01*
X176010000Y-100070000D02*
X181090000Y-100070000D01*
X183629999Y-101975001D02*
X187440000Y-101975000D01*
X184900000Y-95625000D02*
X176010000Y-95625000D01*
X187440000Y-101340000D02*
X189980000Y-101340000D01*
X187440000Y-101975000D02*
X187440000Y-98165000D01*
D12*
X188590000Y-95110000D02*
X188590000Y-110110000D01*
X188590000Y-110110000D02*
X173590000Y-110110000D01*
D11*
X189980000Y-98800000D02*
X187440000Y-98800000D01*
X189980000Y-101340000D02*
X189980000Y-98800000D01*
X181090001Y-99991829D02*
G75*
G02*
X183629999Y-101975001I-1J-2618171D01*
G01*
X184900000Y-95625000D02*
G75*
G02*
X187440000Y-98165000I0J-2540000D01*
G01*
%TO.C,K14*%
X193220000Y-76760000D02*
X193220000Y-79300000D01*
X193220000Y-79300000D02*
X195760000Y-79300000D01*
D12*
X193340000Y-75610000D02*
X208340000Y-75610000D01*
X193340000Y-90610000D02*
X193340000Y-75610000D01*
D11*
X195760000Y-76125000D02*
X195760000Y-80570000D01*
X195760000Y-76760000D02*
X193220000Y-76760000D01*
X195760000Y-80570000D02*
X200840000Y-80570000D01*
X203379999Y-82475001D02*
X207190000Y-82475000D01*
X204650000Y-76125000D02*
X195760000Y-76125000D01*
X207190000Y-81840000D02*
X209730000Y-81840000D01*
X207190000Y-82475000D02*
X207190000Y-78665000D01*
D12*
X208340000Y-75610000D02*
X208340000Y-90610000D01*
X208340000Y-90610000D02*
X193340000Y-90610000D01*
D11*
X209730000Y-79300000D02*
X207190000Y-79300000D01*
X209730000Y-81840000D02*
X209730000Y-79300000D01*
X200840001Y-80491829D02*
G75*
G02*
X203379999Y-82475001I-1J-2618171D01*
G01*
X204650000Y-76125000D02*
G75*
G02*
X207190000Y-78665000I0J-2540000D01*
G01*
D10*
%TO.C,C43*%
X132525000Y-108500000D02*
X133775000Y-108500000D01*
X132525000Y-110500000D02*
X132525000Y-108500000D01*
X133775000Y-108500000D02*
X133775000Y-110500000D01*
X133775000Y-110500000D02*
X132525000Y-110500000D01*
%TO.C,C40*%
X219099998Y-110387499D02*
X220349998Y-110387499D01*
X219099998Y-112387499D02*
X219099998Y-110387499D01*
X220349998Y-110387499D02*
X220349998Y-112387499D01*
X220349998Y-112387499D02*
X219099998Y-112387499D01*
%TO.C,R4*%
X217145002Y-79749998D02*
X218395002Y-79749998D01*
X217145002Y-81749998D02*
X217145002Y-79749998D01*
X218395002Y-79749998D02*
X218395002Y-81749998D01*
X218395002Y-81749998D02*
X217145002Y-81749998D01*
%TO.C,D25*%
X188499999Y-130299999D02*
X188500000Y-131950000D01*
X188499999Y-130299999D02*
X190500001Y-130300001D01*
X188500000Y-131950000D02*
X189050000Y-132500000D01*
X189050000Y-132500000D02*
X190500001Y-132500001D01*
X190500001Y-132500001D02*
X190500001Y-130300001D01*
X189050000Y-131900001D02*
X188500000Y-131900000D01*
X188500001Y-131450000D01*
X189050000Y-131449999D01*
X189050000Y-131900001D01*
G36*
X189050000Y-131900001D02*
G01*
X188500000Y-131900000D01*
X188500001Y-131450000D01*
X189050000Y-131449999D01*
X189050000Y-131900001D01*
G37*
X190500000Y-131900000D02*
X189900000Y-131899999D01*
X189900000Y-131450000D01*
X190500001Y-131450000D01*
X190500000Y-131900000D01*
G36*
X190500000Y-131900000D02*
G01*
X189900000Y-131899999D01*
X189900000Y-131450000D01*
X190500001Y-131450000D01*
X190500000Y-131900000D01*
G37*
%TO.C,C1*%
X152450000Y-112775000D02*
X154450000Y-112775000D01*
X152450000Y-114025000D02*
X152450000Y-112775000D01*
X154450000Y-112775000D02*
X154450000Y-114025000D01*
X154450000Y-114025000D02*
X152450000Y-114025000D01*
%TO.C,C18*%
X227750000Y-93925000D02*
X229750000Y-93925000D01*
X227750000Y-95175000D02*
X227750000Y-93925000D01*
X229750000Y-93925000D02*
X229750000Y-95175000D01*
X229750000Y-95175000D02*
X227750000Y-95175000D01*
D11*
%TO.C,K7*%
X153970000Y-55260000D02*
X153970000Y-57800000D01*
X153970000Y-57800000D02*
X156510000Y-57800000D01*
D12*
X154090000Y-54110000D02*
X169090000Y-54110000D01*
X154090000Y-69110000D02*
X154090000Y-54110000D01*
D11*
X156510000Y-54625000D02*
X156510000Y-59070000D01*
X156510000Y-55260000D02*
X153970000Y-55260000D01*
X156510000Y-59070000D02*
X161590000Y-59070000D01*
X164129999Y-60975001D02*
X167940000Y-60975000D01*
X165400000Y-54625000D02*
X156510000Y-54625000D01*
X167940000Y-60340000D02*
X170480000Y-60340000D01*
X167940000Y-60975000D02*
X167940000Y-57165000D01*
D12*
X169090000Y-54110000D02*
X169090000Y-69110000D01*
X169090000Y-69110000D02*
X154090000Y-69110000D01*
D11*
X170480000Y-57800000D02*
X167940000Y-57800000D01*
X170480000Y-60340000D02*
X170480000Y-57800000D01*
X161590001Y-58991829D02*
G75*
G02*
X164129999Y-60975001I-1J-2618171D01*
G01*
X165400000Y-54625000D02*
G75*
G02*
X167940000Y-57165000I0J-2540000D01*
G01*
D10*
%TO.C,C19*%
X227700001Y-108424998D02*
X229700001Y-108424998D01*
X227700001Y-109674998D02*
X227700001Y-108424998D01*
X229700001Y-108424998D02*
X229700001Y-109674998D01*
X229700001Y-109674998D02*
X227700001Y-109674998D01*
%TO.C,FID6*%
X113699999Y-84999999D02*
G75*
G02*
X110699999Y-84999999I-1500000J0D01*
G01*
X110699999Y-84999999D02*
G75*
G02*
X113699999Y-84999999I1500000J0D01*
G01*
%TO.C,FID7*%
X211740000Y-140110000D02*
G75*
G02*
X208740000Y-140110000I-1500000J0D01*
G01*
X208740000Y-140110000D02*
G75*
G02*
X211740000Y-140110000I1500000J0D01*
G01*
%TO.C,FID5*%
X185090000Y-49510000D02*
G75*
G02*
X182090000Y-49510000I-1500000J0D01*
G01*
X182090000Y-49510000D02*
G75*
G02*
X185090000Y-49510000I1500000J0D01*
G01*
D11*
%TO.C,K6*%
X134470000Y-100760000D02*
X134470000Y-103300000D01*
X134470000Y-103300000D02*
X137010000Y-103300000D01*
D12*
X134590000Y-99610000D02*
X149590000Y-99610000D01*
X134590000Y-114610000D02*
X134590000Y-99610000D01*
D11*
X137010000Y-100125000D02*
X137010000Y-104570000D01*
X137010000Y-100760000D02*
X134470000Y-100760000D01*
X137010000Y-104570000D02*
X142090000Y-104570000D01*
X144629999Y-106475001D02*
X148440000Y-106475000D01*
X145900000Y-100125000D02*
X137010000Y-100125000D01*
X148440000Y-105840000D02*
X150980000Y-105840000D01*
X148440000Y-106475000D02*
X148440000Y-102665000D01*
D12*
X149590000Y-99610000D02*
X149590000Y-114610000D01*
X149590000Y-114610000D02*
X134590000Y-114610000D01*
D11*
X150980000Y-103300000D02*
X148440000Y-103300000D01*
X150980000Y-105840000D02*
X150980000Y-103300000D01*
X142090001Y-104491829D02*
G75*
G02*
X144629999Y-106475001I-1J-2618171D01*
G01*
X145900000Y-100125000D02*
G75*
G02*
X148440000Y-102665000I0J-2540000D01*
G01*
D10*
%TO.C,R11*%
X177400000Y-134275001D02*
X179400000Y-134275001D01*
X177400000Y-135525001D02*
X177400000Y-134275001D01*
X179400000Y-134275001D02*
X179400000Y-135525001D01*
X179400000Y-135525001D02*
X177400000Y-135525001D01*
D11*
%TO.C,K5*%
X134470000Y-81260000D02*
X134470000Y-83800000D01*
X134470000Y-83800000D02*
X137010000Y-83800000D01*
D12*
X134590000Y-80110000D02*
X149590000Y-80110000D01*
X134590000Y-95110000D02*
X134590000Y-80110000D01*
D11*
X137010000Y-80625000D02*
X137010000Y-85070000D01*
X137010000Y-81260000D02*
X134470000Y-81260000D01*
X137010000Y-85070000D02*
X142090000Y-85070000D01*
X144629999Y-86975001D02*
X148440000Y-86975000D01*
X145900000Y-80625000D02*
X137010000Y-80625000D01*
X148440000Y-86340000D02*
X150980000Y-86340000D01*
X148440000Y-86975000D02*
X148440000Y-83165000D01*
D12*
X149590000Y-80110000D02*
X149590000Y-95110000D01*
X149590000Y-95110000D02*
X134590000Y-95110000D01*
D11*
X150980000Y-83800000D02*
X148440000Y-83800000D01*
X150980000Y-86340000D02*
X150980000Y-83800000D01*
X142090001Y-84991829D02*
G75*
G02*
X144629999Y-86975001I-1J-2618171D01*
G01*
X145900000Y-80625000D02*
G75*
G02*
X148440000Y-83165000I0J-2540000D01*
G01*
%TO.C,K2*%
X114970000Y-88260000D02*
X114970000Y-90800000D01*
X114970000Y-90800000D02*
X117510000Y-90800000D01*
D12*
X115090000Y-87110000D02*
X130090000Y-87110000D01*
X115090000Y-102110000D02*
X115090000Y-87110000D01*
D11*
X117510000Y-87625000D02*
X117510000Y-92070000D01*
X117510000Y-88260000D02*
X114970000Y-88260000D01*
X117510000Y-92070000D02*
X122590000Y-92070000D01*
X125129999Y-93975001D02*
X128940000Y-93975000D01*
X126400000Y-87625000D02*
X117510000Y-87625000D01*
X128940000Y-93340000D02*
X131480000Y-93340000D01*
X128940000Y-93975000D02*
X128940000Y-90165000D01*
D12*
X130090000Y-87110000D02*
X130090000Y-102110000D01*
X130090000Y-102110000D02*
X115090000Y-102110000D01*
D11*
X131480000Y-90800000D02*
X128940000Y-90800000D01*
X131480000Y-93340000D02*
X131480000Y-90800000D01*
X122590001Y-91991829D02*
G75*
G02*
X125129999Y-93975001I-1J-2618171D01*
G01*
X126400000Y-87625000D02*
G75*
G02*
X128940000Y-90165000I0J-2540000D01*
G01*
%TO.C,K10*%
X173470000Y-57260000D02*
X173470000Y-59800000D01*
X173470000Y-59800000D02*
X176010000Y-59800000D01*
D12*
X173590000Y-56110000D02*
X188590000Y-56110000D01*
X173590000Y-71110000D02*
X173590000Y-56110000D01*
D11*
X176010000Y-56625000D02*
X176010000Y-61070000D01*
X176010000Y-57260000D02*
X173470000Y-57260000D01*
X176010000Y-61070000D02*
X181090000Y-61070000D01*
X183629999Y-62975001D02*
X187440000Y-62975000D01*
X184900000Y-56625000D02*
X176010000Y-56625000D01*
X187440000Y-62340000D02*
X189980000Y-62340000D01*
X187440000Y-62975000D02*
X187440000Y-59165000D01*
D12*
X188590000Y-56110000D02*
X188590000Y-71110000D01*
X188590000Y-71110000D02*
X173590000Y-71110000D01*
D11*
X189980000Y-59800000D02*
X187440000Y-59800000D01*
X189980000Y-62340000D02*
X189980000Y-59800000D01*
X181090001Y-60991829D02*
G75*
G02*
X183629999Y-62975001I-1J-2618171D01*
G01*
X184900000Y-56625000D02*
G75*
G02*
X187440000Y-59165000I0J-2540000D01*
G01*
D10*
%TO.C,R12*%
X177399999Y-131324998D02*
X179399999Y-131324998D01*
X177399999Y-132574998D02*
X177399999Y-131324998D01*
X179399999Y-131324998D02*
X179399999Y-132574998D01*
X179399999Y-132574998D02*
X177399999Y-132574998D01*
%TO.C,C39*%
X221399999Y-110337500D02*
X222649999Y-110337500D01*
X221399999Y-112337500D02*
X221399999Y-110337500D01*
X222649999Y-110337500D02*
X222649999Y-112337500D01*
X222649999Y-112337500D02*
X221399999Y-112337500D01*
%TO.C,D8*%
X130349999Y-65699999D02*
X130350000Y-67350000D01*
X130349999Y-65699999D02*
X132350001Y-65700001D01*
X130350000Y-67350000D02*
X130900000Y-67900000D01*
X130900000Y-67900000D02*
X132350001Y-67900001D01*
X132350001Y-67900001D02*
X132350001Y-65700001D01*
X130900000Y-67300001D02*
X130350000Y-67300000D01*
X130350001Y-66850000D01*
X130900000Y-66849999D01*
X130900000Y-67300001D01*
G36*
X130900000Y-67300001D02*
G01*
X130350000Y-67300000D01*
X130350001Y-66850000D01*
X130900000Y-66849999D01*
X130900000Y-67300001D01*
G37*
X132350000Y-67300000D02*
X131750000Y-67299999D01*
X131750000Y-66850000D01*
X132350001Y-66850000D01*
X132350000Y-67300000D01*
G36*
X132350000Y-67300000D02*
G01*
X131750000Y-67299999D01*
X131750000Y-66850000D01*
X132350001Y-66850000D01*
X132350000Y-67300000D01*
G37*
%TO.C,R5*%
X177400000Y-137225000D02*
X179400000Y-137225000D01*
X177400000Y-138475000D02*
X177400000Y-137225000D01*
X179400000Y-137225000D02*
X179400000Y-138475000D01*
X179400000Y-138475000D02*
X177400000Y-138475000D01*
D12*
%TO.C,AE1*%
X207549999Y-83100001D02*
X207549999Y-89049999D01*
X207549999Y-89049999D02*
X223050000Y-89050000D01*
X223050000Y-83100000D02*
X207549999Y-83100001D01*
X223050000Y-89050000D02*
X223050000Y-83100000D01*
D10*
%TO.C,C2*%
X214275004Y-79749998D02*
X215525004Y-79749998D01*
X214275004Y-81749998D02*
X214275004Y-79749998D01*
X215525004Y-79749998D02*
X215525004Y-81749998D01*
X215525004Y-81749998D02*
X214275004Y-81749998D01*
%TO.C,D36*%
X150499999Y-98549999D02*
X150500000Y-100200000D01*
X150499999Y-98549999D02*
X152500001Y-98550001D01*
X150500000Y-100200000D02*
X151050000Y-100750000D01*
X151050000Y-100750000D02*
X152500001Y-100750001D01*
X152500001Y-100750001D02*
X152500001Y-98550001D01*
X151050000Y-100150001D02*
X150500000Y-100150000D01*
X150500001Y-99700000D01*
X151050000Y-99699999D01*
X151050000Y-100150001D01*
G36*
X151050000Y-100150001D02*
G01*
X150500000Y-100150000D01*
X150500001Y-99700000D01*
X151050000Y-99699999D01*
X151050000Y-100150001D01*
G37*
X152500000Y-100150000D02*
X151900000Y-100149999D01*
X151900000Y-99700000D01*
X152500001Y-99700000D01*
X152500000Y-100150000D01*
G36*
X152500000Y-100150000D02*
G01*
X151900000Y-100149999D01*
X151900000Y-99700000D01*
X152500001Y-99700000D01*
X152500000Y-100150000D01*
G37*
%TO.C,D29*%
X150349999Y-78249999D02*
X150350000Y-79900000D01*
X150349999Y-78249999D02*
X152350001Y-78250001D01*
X150350000Y-79900000D02*
X150900000Y-80450000D01*
X150900000Y-80450000D02*
X152350001Y-80450001D01*
X152350001Y-80450001D02*
X152350001Y-78250001D01*
X150900000Y-79850001D02*
X150350000Y-79850000D01*
X150350001Y-79400000D01*
X150900000Y-79399999D01*
X150900000Y-79850001D01*
G36*
X150900000Y-79850001D02*
G01*
X150350000Y-79850000D01*
X150350001Y-79400000D01*
X150900000Y-79399999D01*
X150900000Y-79850001D01*
G37*
X152350000Y-79850000D02*
X151750000Y-79849999D01*
X151750000Y-79400000D01*
X152350001Y-79400000D01*
X152350000Y-79850000D01*
G36*
X152350000Y-79850000D02*
G01*
X151750000Y-79849999D01*
X151750000Y-79400000D01*
X152350001Y-79400000D01*
X152350000Y-79850000D01*
G37*
%TO.C,C20*%
X212000000Y-101275000D02*
X214000000Y-101275000D01*
X212000000Y-102525000D02*
X212000000Y-101275000D01*
X214000000Y-101275000D02*
X214000000Y-102525000D01*
X214000000Y-102525000D02*
X212000000Y-102525000D01*
%TO.C,C54*%
X210725000Y-77300000D02*
X211975000Y-77300000D01*
X210725000Y-79300000D02*
X210725000Y-77300000D01*
X211975000Y-77300000D02*
X211975000Y-79300000D01*
X211975000Y-79300000D02*
X210725000Y-79300000D01*
%TO.C,R1*%
X159050000Y-114535000D02*
X161050000Y-114535000D01*
X159050000Y-115785000D02*
X159050000Y-114535000D01*
X161050000Y-114535000D02*
X161050000Y-115785000D01*
X161050000Y-115785000D02*
X159050000Y-115785000D01*
%TO.C,C44*%
X151975000Y-62250000D02*
X153225000Y-62250000D01*
X151975000Y-64250000D02*
X151975000Y-62250000D01*
X153225000Y-62250000D02*
X153225000Y-64250000D01*
X153225000Y-64250000D02*
X151975000Y-64250000D01*
%TO.C,R17*%
X143850000Y-118274999D02*
X145850000Y-118274999D01*
X143850000Y-119524999D02*
X143850000Y-118274999D01*
X145850000Y-118274999D02*
X145850000Y-119524999D01*
X145850000Y-119524999D02*
X143850000Y-119524999D01*
%TO.C,D31*%
X208799999Y-134749999D02*
X208800000Y-136400000D01*
X208799999Y-134749999D02*
X210800001Y-134750001D01*
X208800000Y-136400000D02*
X209350000Y-136950000D01*
X209350000Y-136950000D02*
X210800001Y-136950001D01*
X210800001Y-136950001D02*
X210800001Y-134750001D01*
X209350000Y-136350001D02*
X208800000Y-136350000D01*
X208800001Y-135900000D01*
X209350000Y-135899999D01*
X209350000Y-136350001D01*
G36*
X209350000Y-136350001D02*
G01*
X208800000Y-136350000D01*
X208800001Y-135900000D01*
X209350000Y-135899999D01*
X209350000Y-136350001D01*
G37*
X210800000Y-136350000D02*
X210200000Y-136349999D01*
X210200000Y-135900000D01*
X210800001Y-135900000D01*
X210800000Y-136350000D01*
G36*
X210800000Y-136350000D02*
G01*
X210200000Y-136349999D01*
X210200000Y-135900000D01*
X210800001Y-135900000D01*
X210800000Y-136350000D01*
G37*
D11*
%TO.C,K13*%
X193220000Y-57260000D02*
X193220000Y-59800000D01*
X193220000Y-59800000D02*
X195760000Y-59800000D01*
D12*
X193340000Y-56110000D02*
X208340000Y-56110000D01*
X193340000Y-71110000D02*
X193340000Y-56110000D01*
D11*
X195760000Y-56625000D02*
X195760000Y-61070000D01*
X195760000Y-57260000D02*
X193220000Y-57260000D01*
X195760000Y-61070000D02*
X200840000Y-61070000D01*
X203379999Y-62975001D02*
X207190000Y-62975000D01*
X204650000Y-56625000D02*
X195760000Y-56625000D01*
X207190000Y-62340000D02*
X209730000Y-62340000D01*
X207190000Y-62975000D02*
X207190000Y-59165000D01*
D12*
X208340000Y-56110000D02*
X208340000Y-71110000D01*
X208340000Y-71110000D02*
X193340000Y-71110000D01*
D11*
X209730000Y-59800000D02*
X207190000Y-59800000D01*
X209730000Y-62340000D02*
X209730000Y-59800000D01*
X200840001Y-60991829D02*
G75*
G02*
X203379999Y-62975001I-1J-2618171D01*
G01*
X204650000Y-56625000D02*
G75*
G02*
X207190000Y-59165000I0J-2540000D01*
G01*
D10*
%TO.C,R3*%
X219575000Y-79750000D02*
X220825000Y-79750000D01*
X219575000Y-81750000D02*
X219575000Y-79750000D01*
X220825000Y-79750000D02*
X220825000Y-81750000D01*
X220825000Y-81750000D02*
X219575000Y-81750000D01*
%TO.C,P1*%
X231815000Y-76690001D02*
X231815001Y-85630000D01*
X224465000Y-85629999D01*
X224464999Y-76690000D01*
X231815000Y-76690001D01*
%TO.C,C45*%
X152575000Y-81900000D02*
X153825000Y-81900000D01*
X152575000Y-83900000D02*
X152575000Y-81900000D01*
X153825000Y-81900000D02*
X153825000Y-83900000D01*
X153825000Y-83900000D02*
X152575000Y-83900000D01*
%TO.C,C21*%
X226900951Y-91084835D02*
X227784835Y-90200951D01*
X227784835Y-90200951D02*
X229199049Y-91615165D01*
X228315165Y-92499049D02*
X226900951Y-91084835D01*
X229199049Y-91615165D02*
X228315165Y-92499049D01*
%TO.C,R14*%
X156875000Y-121850000D02*
X158125000Y-121850000D01*
X156875000Y-123850000D02*
X156875000Y-121850000D01*
X158125000Y-121850000D02*
X158125000Y-123850000D01*
X158125000Y-123850000D02*
X156875000Y-123850000D01*
%TO.C,U7*%
X216864464Y-100642895D02*
X220400001Y-97107360D01*
X216864465Y-102057106D02*
X216864464Y-100642895D01*
X220399999Y-105592640D02*
X216864465Y-102057106D01*
X220400001Y-97107360D02*
X224642640Y-101350001D01*
X224642640Y-101350001D02*
X220399999Y-105592640D01*
%TO.C,Y1*%
X223897918Y-96370708D02*
X225170714Y-95097917D01*
X223897920Y-96512131D02*
X223897918Y-96370708D01*
X224887867Y-97502082D02*
X223897920Y-96512131D01*
X225029286Y-97502083D02*
X224887867Y-97502082D01*
X225170714Y-95097917D02*
X225312133Y-95097918D01*
X225312133Y-95097918D02*
X226302080Y-96087869D01*
X225594973Y-95380761D02*
X224887869Y-95380761D01*
X226302080Y-96087869D02*
X226302082Y-96229292D01*
X226302082Y-96229292D02*
X225029286Y-97502083D01*
D11*
%TO.C,K3*%
X114970000Y-107760000D02*
X114970000Y-110300000D01*
X114970000Y-110300000D02*
X117510000Y-110300000D01*
D12*
X115090000Y-106610000D02*
X130090000Y-106610000D01*
X115090000Y-121610000D02*
X115090000Y-106610000D01*
D11*
X117510000Y-107125000D02*
X117510000Y-111570000D01*
X117510000Y-107760000D02*
X114970000Y-107760000D01*
X117510000Y-111570000D02*
X122590000Y-111570000D01*
X125129999Y-113475001D02*
X128940000Y-113475000D01*
X126400000Y-107125000D02*
X117510000Y-107125000D01*
X128940000Y-112840000D02*
X131480000Y-112840000D01*
X128940000Y-113475000D02*
X128940000Y-109665000D01*
D12*
X130090000Y-106610000D02*
X130090000Y-121610000D01*
X130090000Y-121610000D02*
X115090000Y-121610000D01*
D11*
X131480000Y-110300000D02*
X128940000Y-110300000D01*
X131480000Y-112840000D02*
X131480000Y-110300000D01*
X122590001Y-111491829D02*
G75*
G02*
X125129999Y-113475001I-1J-2618171D01*
G01*
X126400000Y-107125000D02*
G75*
G02*
X128940000Y-109665000I0J-2540000D01*
G01*
D10*
%TO.C,FID1*%
X113800000Y-94100000D02*
G75*
G02*
X110800000Y-94100000I-1500000J0D01*
G01*
X110800000Y-94100000D02*
G75*
G02*
X113800000Y-94100000I1500000J0D01*
G01*
%TO.C,R2*%
X159050000Y-110725000D02*
X161050000Y-110725000D01*
X159050000Y-111975000D02*
X159050000Y-110725000D01*
X161050000Y-110725000D02*
X161050000Y-111975000D01*
X161050000Y-111975000D02*
X159050000Y-111975000D01*
D11*
%TO.C,K15*%
X193220000Y-96260000D02*
X193220000Y-98800000D01*
X193220000Y-98800000D02*
X195760000Y-98800000D01*
D12*
X193340000Y-95110000D02*
X208340000Y-95110000D01*
X193340000Y-110110000D02*
X193340000Y-95110000D01*
D11*
X195760000Y-95625000D02*
X195760000Y-100070000D01*
X195760000Y-96260000D02*
X193220000Y-96260000D01*
X195760000Y-100070000D02*
X200840000Y-100070000D01*
X203379999Y-101975001D02*
X207190000Y-101975000D01*
X204650000Y-95625000D02*
X195760000Y-95625000D01*
X207190000Y-101340000D02*
X209730000Y-101340000D01*
X207190000Y-101975000D02*
X207190000Y-98165000D01*
D12*
X208340000Y-95110000D02*
X208340000Y-110110000D01*
X208340000Y-110110000D02*
X193340000Y-110110000D01*
D11*
X209730000Y-98800000D02*
X207190000Y-98800000D01*
X209730000Y-101340000D02*
X209730000Y-98800000D01*
X200840001Y-99991829D02*
G75*
G02*
X203379999Y-101975001I-1J-2618171D01*
G01*
X204650000Y-95625000D02*
G75*
G02*
X207190000Y-98165000I0J-2540000D01*
G01*
D10*
%TO.C,U5*%
X152800000Y-116000000D02*
X155050000Y-116000000D01*
X152800000Y-119000000D02*
X152800000Y-116000000D01*
X155050000Y-116000000D02*
X155800000Y-116750000D01*
X155800000Y-116750000D02*
X155800000Y-119000000D01*
X155800000Y-119000000D02*
X152800000Y-119000000D01*
%TO.C,C52*%
X188350000Y-89425000D02*
X190350000Y-89425000D01*
X188350000Y-90675000D02*
X188350000Y-89425000D01*
X190350000Y-89425000D02*
X190350000Y-90675000D01*
X190350000Y-90675000D02*
X188350000Y-90675000D01*
%TO.C,C35*%
X223300953Y-93515166D02*
X224715167Y-92100952D01*
X224184837Y-94399050D02*
X223300953Y-93515166D01*
X224715167Y-92100952D02*
X225599051Y-92984836D01*
X225599051Y-92984836D02*
X224184837Y-94399050D01*
%TO.C,C48*%
X171325000Y-75900000D02*
X172575000Y-75900000D01*
X171325000Y-77900000D02*
X171325000Y-75900000D01*
X172575000Y-75900000D02*
X172575000Y-77900000D01*
X172575000Y-77900000D02*
X171325000Y-77900000D01*
%TO.C,C53*%
X200950000Y-51075000D02*
X202950000Y-51075000D01*
X200950000Y-52325000D02*
X200950000Y-51075000D01*
X202950000Y-51075000D02*
X202950000Y-52325000D01*
X202950000Y-52325000D02*
X200950000Y-52325000D01*
%TO.C,D9*%
X169649999Y-52999999D02*
X169650000Y-54650000D01*
X169649999Y-52999999D02*
X171650001Y-53000001D01*
X169650000Y-54650000D02*
X170200000Y-55200000D01*
X170200000Y-55200000D02*
X171650001Y-55200001D01*
X171650001Y-55200001D02*
X171650001Y-53000001D01*
X170200000Y-54600001D02*
X169650000Y-54600000D01*
X169650001Y-54150000D01*
X170200000Y-54149999D01*
X170200000Y-54600001D01*
G36*
X170200000Y-54600001D02*
G01*
X169650000Y-54600000D01*
X169650001Y-54150000D01*
X170200000Y-54149999D01*
X170200000Y-54600001D01*
G37*
X171650000Y-54600000D02*
X171050000Y-54599999D01*
X171050000Y-54150000D01*
X171650001Y-54150000D01*
X171650000Y-54600000D01*
G36*
X171650000Y-54600000D02*
G01*
X171050000Y-54599999D01*
X171050000Y-54150000D01*
X171650001Y-54150000D01*
X171650000Y-54600000D01*
G37*
%TO.C,C36*%
X221568540Y-91712047D02*
X222982754Y-90297833D01*
X222452424Y-92595931D02*
X221568540Y-91712047D01*
X222982754Y-90297833D02*
X223866638Y-91181717D01*
X223866638Y-91181717D02*
X222452424Y-92595931D01*
%TO.C,Q2*%
X217600000Y-72025001D02*
X217924999Y-71700000D01*
X217600000Y-74600000D02*
X217600000Y-72025001D01*
X217924999Y-71700000D02*
X218900000Y-71700000D01*
X218900000Y-71700000D02*
X218900000Y-74600000D01*
X218900000Y-74600000D02*
X217600000Y-74600000D01*
%TO.C,D38*%
X227399999Y-139399999D02*
X227400000Y-141050000D01*
X227399999Y-139399999D02*
X229400001Y-139400001D01*
X227400000Y-141050000D02*
X227950000Y-141600000D01*
X227950000Y-141600000D02*
X229400001Y-141600001D01*
X229400001Y-141600001D02*
X229400001Y-139400001D01*
X227950000Y-141000001D02*
X227400000Y-141000000D01*
X227400001Y-140550000D01*
X227950000Y-140549999D01*
X227950000Y-141000001D01*
G36*
X227950000Y-141000001D02*
G01*
X227400000Y-141000000D01*
X227400001Y-140550000D01*
X227950000Y-140549999D01*
X227950000Y-141000001D01*
G37*
X229400000Y-141000000D02*
X228800000Y-140999999D01*
X228800000Y-140550000D01*
X229400001Y-140550000D01*
X229400000Y-141000000D01*
G36*
X229400000Y-141000000D02*
G01*
X228800000Y-140999999D01*
X228800000Y-140550000D01*
X229400001Y-140550000D01*
X229400000Y-141000000D01*
G37*
D11*
%TO.C,K17*%
X192970000Y-121760000D02*
X192970000Y-124300000D01*
X192970000Y-124300000D02*
X195510000Y-124300000D01*
D12*
X193090000Y-120610000D02*
X208090000Y-120610000D01*
X193090000Y-135610000D02*
X193090000Y-120610000D01*
D11*
X195510000Y-121125000D02*
X195510000Y-125570000D01*
X195510000Y-121760000D02*
X192970000Y-121760000D01*
X195510000Y-125570000D02*
X200590000Y-125570000D01*
X203129999Y-127475001D02*
X206940000Y-127475000D01*
X204400000Y-121125000D02*
X195510000Y-121125000D01*
X206940000Y-126840000D02*
X209480000Y-126840000D01*
X206940000Y-127475000D02*
X206940000Y-123665000D01*
D12*
X208090000Y-120610000D02*
X208090000Y-135610000D01*
X208090000Y-135610000D02*
X193090000Y-135610000D01*
D11*
X209480000Y-124300000D02*
X206940000Y-124300000D01*
X209480000Y-126840000D02*
X209480000Y-124300000D01*
X200590001Y-125491829D02*
G75*
G02*
X203129999Y-127475001I-1J-2618171D01*
G01*
X204400000Y-121125000D02*
G75*
G02*
X206940000Y-123665000I0J-2540000D01*
G01*
D10*
%TO.C,C8*%
X227750000Y-96725000D02*
X229750000Y-96725000D01*
X227750000Y-97975000D02*
X227750000Y-96725000D01*
X229750000Y-96725000D02*
X229750000Y-97975000D01*
X229750000Y-97975000D02*
X227750000Y-97975000D01*
%TO.C,D4*%
X148549999Y-116700000D02*
X150249999Y-116700000D01*
X148550001Y-115500002D02*
X148549999Y-116700000D01*
X150249999Y-116700000D02*
X150550001Y-116400000D01*
X150549999Y-115500000D02*
X148550001Y-115500002D01*
X150550001Y-116400000D02*
X150549999Y-115500000D01*
%TO.C,C47*%
X171275000Y-56750000D02*
X172525000Y-56750000D01*
X171275000Y-58750000D02*
X171275000Y-56750000D01*
X172525000Y-56750000D02*
X172525000Y-58750000D01*
X172525000Y-58750000D02*
X171275000Y-58750000D01*
%TO.C,C50*%
X191025000Y-58050000D02*
X192275000Y-58050000D01*
X191025000Y-60050000D02*
X191025000Y-58050000D01*
X192275000Y-58050000D02*
X192275000Y-60050000D01*
X192275000Y-60050000D02*
X191025000Y-60050000D01*
%TO.C,D10*%
X209049998Y-55350000D02*
X209050000Y-57000000D01*
X209049998Y-55350000D02*
X211050002Y-55350000D01*
X209050000Y-57000000D02*
X209600000Y-57550000D01*
X209600000Y-57550000D02*
X211050002Y-57550000D01*
X211050002Y-57550000D02*
X211050002Y-55350000D01*
X209599999Y-56950001D02*
X209050000Y-56950000D01*
X209050001Y-56500001D01*
X209600000Y-56499999D01*
X209599999Y-56950001D01*
G36*
X209599999Y-56950001D02*
G01*
X209050000Y-56950000D01*
X209050001Y-56500001D01*
X209600000Y-56499999D01*
X209599999Y-56950001D01*
G37*
X211050002Y-56500001D02*
X211050000Y-56950000D01*
X210450001Y-56949998D01*
X210450000Y-56500000D01*
X211050002Y-56500001D01*
G36*
X211050002Y-56500001D02*
G01*
X211050000Y-56950000D01*
X210450001Y-56949998D01*
X210450000Y-56500000D01*
X211050002Y-56500001D01*
G37*
%TO.C,D24*%
X189499999Y-53849999D02*
X189500000Y-55500000D01*
X189499999Y-53849999D02*
X191500001Y-53850001D01*
X189500000Y-55500000D02*
X190050000Y-56050000D01*
X190050000Y-56050000D02*
X191500001Y-56050001D01*
X191500001Y-56050001D02*
X191500001Y-53850001D01*
X190050000Y-55450001D02*
X189500000Y-55450000D01*
X189500001Y-55000000D01*
X190050000Y-54999999D01*
X190050000Y-55450001D01*
G36*
X190050000Y-55450001D02*
G01*
X189500000Y-55450000D01*
X189500001Y-55000000D01*
X190050000Y-54999999D01*
X190050000Y-55450001D01*
G37*
X191500000Y-55450000D02*
X190900000Y-55449999D01*
X190900000Y-55000000D01*
X191500001Y-55000000D01*
X191500000Y-55450000D01*
G36*
X191500000Y-55450000D02*
G01*
X190900000Y-55449999D01*
X190900000Y-55000000D01*
X191500001Y-55000000D01*
X191500000Y-55450000D01*
G37*
%TO.C,C46*%
X152375000Y-103000000D02*
X153625000Y-103000000D01*
X152375000Y-105000000D02*
X152375000Y-103000000D01*
X153625000Y-103000000D02*
X153625000Y-105000000D01*
X153625000Y-105000000D02*
X152375000Y-105000000D01*
%TO.C,C37*%
X212550000Y-99075000D02*
X214550000Y-99075000D01*
X212550000Y-100325000D02*
X212550000Y-99075000D01*
X214550000Y-99075000D02*
X214550000Y-100325000D01*
X214550000Y-100325000D02*
X212550000Y-100325000D01*
%TO.C,R15*%
X143850000Y-115474999D02*
X145850000Y-115474999D01*
X143850000Y-116724999D02*
X143850000Y-115474999D01*
X145850000Y-115474999D02*
X145850000Y-116724999D01*
X145850000Y-116724999D02*
X143850000Y-116724999D01*
%TO.C,D19*%
X209149999Y-94199999D02*
X209150000Y-95850000D01*
X209149999Y-94199999D02*
X211150001Y-94200001D01*
X209150000Y-95850000D02*
X209700000Y-96400000D01*
X209700000Y-96400000D02*
X211150001Y-96400001D01*
X211150001Y-96400001D02*
X211150001Y-94200001D01*
X209700000Y-95800001D02*
X209150000Y-95800000D01*
X209150001Y-95350000D01*
X209700000Y-95349999D01*
X209700000Y-95800001D01*
G36*
X209700000Y-95800001D02*
G01*
X209150000Y-95800000D01*
X209150001Y-95350000D01*
X209700000Y-95349999D01*
X209700000Y-95800001D01*
G37*
X211150000Y-95800000D02*
X210550000Y-95799999D01*
X210550000Y-95350000D01*
X211150001Y-95350000D01*
X211150000Y-95800000D01*
G36*
X211150000Y-95800000D02*
G01*
X210550000Y-95799999D01*
X210550000Y-95350000D01*
X211150001Y-95350000D01*
X211150000Y-95800000D01*
G37*
%TO.C,R6*%
X154725000Y-121850000D02*
X155975000Y-121850000D01*
X154725000Y-123850000D02*
X154725000Y-121850000D01*
X155975000Y-121850000D02*
X155975000Y-123850000D01*
X155975000Y-123850000D02*
X154725000Y-123850000D01*
D11*
%TO.C,K4*%
X134470000Y-61760000D02*
X134470000Y-64300000D01*
X134470000Y-64300000D02*
X137010000Y-64300000D01*
D12*
X134590000Y-60610000D02*
X149590000Y-60610000D01*
X134590000Y-75610000D02*
X134590000Y-60610000D01*
D11*
X137010000Y-61125000D02*
X137010000Y-65570000D01*
X137010000Y-61760000D02*
X134470000Y-61760000D01*
X137010000Y-65570000D02*
X142090000Y-65570000D01*
X144629999Y-67475001D02*
X148440000Y-67475000D01*
X145900000Y-61125000D02*
X137010000Y-61125000D01*
X148440000Y-66840000D02*
X150980000Y-66840000D01*
X148440000Y-67475000D02*
X148440000Y-63665000D01*
D12*
X149590000Y-60610000D02*
X149590000Y-75610000D01*
X149590000Y-75610000D02*
X134590000Y-75610000D01*
D11*
X150980000Y-64300000D02*
X148440000Y-64300000D01*
X150980000Y-66840000D02*
X150980000Y-64300000D01*
X142090001Y-65491829D02*
G75*
G02*
X144629999Y-67475001I-1J-2618171D01*
G01*
X145900000Y-61125000D02*
G75*
G02*
X148440000Y-63665000I0J-2540000D01*
G01*
D10*
%TO.C,C49*%
X171625000Y-96800000D02*
X172875000Y-96800000D01*
X171625000Y-98800000D02*
X171625000Y-96800000D01*
X172875000Y-96800000D02*
X172875000Y-98800000D01*
X172875000Y-98800000D02*
X171625000Y-98800000D01*
%TO.C,D30*%
X189549999Y-73349999D02*
X189550000Y-75000000D01*
X189549999Y-73349999D02*
X191550001Y-73350001D01*
X189550000Y-75000000D02*
X190100000Y-75550000D01*
X190100000Y-75550000D02*
X191550001Y-75550001D01*
X191550001Y-75550001D02*
X191550001Y-73350001D01*
X190100000Y-74950001D02*
X189550000Y-74950000D01*
X189550001Y-74500000D01*
X190100000Y-74499999D01*
X190100000Y-74950001D01*
G36*
X190100000Y-74950001D02*
G01*
X189550000Y-74950000D01*
X189550001Y-74500000D01*
X190100000Y-74499999D01*
X190100000Y-74950001D01*
G37*
X191550000Y-74950000D02*
X190950000Y-74949999D01*
X190950000Y-74500000D01*
X191550001Y-74500000D01*
X191550000Y-74950000D01*
G36*
X191550000Y-74950000D02*
G01*
X190950000Y-74949999D01*
X190950000Y-74500000D01*
X191550001Y-74500000D01*
X191550000Y-74950000D01*
G37*
%TO.C,SW3*%
X166950000Y-134500000D02*
X166950000Y-135350000D01*
X166950000Y-135350000D02*
X167150000Y-135550000D01*
X167150000Y-134300000D02*
X166950000Y-134500000D01*
X167150000Y-135550000D02*
X167200000Y-135600000D01*
X167200000Y-135600000D02*
X168500000Y-135600000D01*
X168450000Y-134300000D02*
X167150000Y-134300000D01*
X168500000Y-132350000D02*
X168500000Y-139050000D01*
X168500000Y-139050000D02*
X171100000Y-139050000D01*
X171100000Y-132350000D02*
X168500000Y-132350000D01*
X171100000Y-139050000D02*
X171100000Y-132350000D01*
%TO.C,R7*%
X152425000Y-121850000D02*
X153675000Y-121850000D01*
X152425000Y-123850000D02*
X152425000Y-121850000D01*
X153675000Y-121850000D02*
X153675000Y-123850000D01*
X153675000Y-123850000D02*
X152425000Y-123850000D01*
%TO.C,D32*%
X148550000Y-119500000D02*
X150250000Y-119500000D01*
X148550002Y-118300002D02*
X148550000Y-119500000D01*
X150250000Y-119500000D02*
X150550002Y-119200000D01*
X150550000Y-118300000D02*
X148550002Y-118300002D01*
X150550002Y-119200000D02*
X150550000Y-118300000D01*
%TO.C,D23*%
X150199998Y-58150000D02*
X150200000Y-59800000D01*
X150199998Y-58150000D02*
X152200002Y-58150000D01*
X150200000Y-59800000D02*
X150750000Y-60350000D01*
X150750000Y-60350000D02*
X152200002Y-60350000D01*
X152200002Y-60350000D02*
X152200002Y-58150000D01*
X150749999Y-59750001D02*
X150200000Y-59750000D01*
X150200001Y-59300001D01*
X150750000Y-59299999D01*
X150749999Y-59750001D01*
G36*
X150749999Y-59750001D02*
G01*
X150200000Y-59750000D01*
X150200001Y-59300001D01*
X150750000Y-59299999D01*
X150749999Y-59750001D01*
G37*
X152200002Y-59300001D02*
X152200000Y-59750000D01*
X151600001Y-59749998D01*
X151600000Y-59300000D01*
X152200002Y-59300001D01*
G36*
X152200002Y-59300001D02*
G01*
X152200000Y-59750000D01*
X151600001Y-59749998D01*
X151600000Y-59300000D01*
X152200002Y-59300001D01*
G37*
%TO.C,Q1*%
X176799999Y-140950000D02*
X179374998Y-140950000D01*
X176799999Y-142250000D02*
X176799999Y-140950000D01*
X179374998Y-140950000D02*
X179699999Y-141274999D01*
X179699999Y-141274999D02*
X179699999Y-142250000D01*
X179699999Y-142250000D02*
X176799999Y-142250000D01*
%TO.C,D13*%
X209199999Y-72649999D02*
X209200000Y-74300000D01*
X209199999Y-72649999D02*
X211200001Y-72650001D01*
X209200000Y-74300000D02*
X209750000Y-74850000D01*
X209750000Y-74850000D02*
X211200001Y-74850001D01*
X211200001Y-74850001D02*
X211200001Y-72650001D01*
X209750000Y-74250001D02*
X209200000Y-74250000D01*
X209200001Y-73800000D01*
X209750000Y-73799999D01*
X209750000Y-74250001D01*
G36*
X209750000Y-74250001D02*
G01*
X209200000Y-74250000D01*
X209200001Y-73800000D01*
X209750000Y-73799999D01*
X209750000Y-74250001D01*
G37*
X211200000Y-74250000D02*
X210600000Y-74249999D01*
X210600000Y-73800000D01*
X211200001Y-73800000D01*
X211200000Y-74250000D01*
G36*
X211200000Y-74250000D02*
G01*
X210600000Y-74249999D01*
X210600000Y-73800000D01*
X211200001Y-73800000D01*
X211200000Y-74250000D01*
G37*
%TO.C,C55*%
X208900000Y-90925000D02*
X210900000Y-90925000D01*
X208900000Y-92175000D02*
X208900000Y-90925000D01*
X210900000Y-90925000D02*
X210900000Y-92175000D01*
X210900000Y-92175000D02*
X208900000Y-92175000D01*
%TO.C,L3*%
X225549998Y-87700000D02*
X227150001Y-87700001D01*
X225549999Y-88499999D02*
X225549998Y-87700000D01*
X227150001Y-87700001D02*
X227150002Y-88500000D01*
X227150002Y-88500000D02*
X225549999Y-88499999D01*
%TO.C,FID8*%
X230490000Y-120660000D02*
G75*
G02*
X227490000Y-120660000I-1500000J0D01*
G01*
X227490000Y-120660000D02*
G75*
G02*
X230490000Y-120660000I1500000J0D01*
G01*
D11*
%TO.C,K11*%
X173470000Y-76760000D02*
X173470000Y-79300000D01*
X173470000Y-79300000D02*
X176010000Y-79300000D01*
D12*
X173590000Y-75610000D02*
X188590000Y-75610000D01*
X173590000Y-90610000D02*
X173590000Y-75610000D01*
D11*
X176010000Y-76125000D02*
X176010000Y-80570000D01*
X176010000Y-76760000D02*
X173470000Y-76760000D01*
X176010000Y-80570000D02*
X181090000Y-80570000D01*
X183629999Y-82475001D02*
X187440000Y-82475000D01*
X184900000Y-76125000D02*
X176010000Y-76125000D01*
X187440000Y-81840000D02*
X189980000Y-81840000D01*
X187440000Y-82475000D02*
X187440000Y-78665000D01*
D12*
X188590000Y-75610000D02*
X188590000Y-90610000D01*
X188590000Y-90610000D02*
X173590000Y-90610000D01*
D11*
X189980000Y-79300000D02*
X187440000Y-79300000D01*
X189980000Y-81840000D02*
X189980000Y-79300000D01*
X181090001Y-80491829D02*
G75*
G02*
X183629999Y-82475001I-1J-2618171D01*
G01*
X184900000Y-76125000D02*
G75*
G02*
X187440000Y-78665000I0J-2540000D01*
G01*
D10*
%TO.C,J3*%
X215510000Y-117030000D02*
X225034999Y-117030000D01*
X215510000Y-119570000D02*
X215510000Y-117030000D01*
X225034999Y-117030000D02*
X225669998Y-117665000D01*
X225669998Y-117665000D02*
X225669999Y-119569998D01*
X225669999Y-119569998D02*
X215510000Y-119570000D01*
D11*
%TO.C,K1*%
X114970000Y-68760000D02*
X114970000Y-71300000D01*
X114970000Y-71300000D02*
X117510000Y-71300000D01*
D12*
X115090000Y-67610000D02*
X130090000Y-67610000D01*
X115090000Y-82610000D02*
X115090000Y-67610000D01*
D11*
X117510000Y-68125000D02*
X117510000Y-72570000D01*
X117510000Y-68760000D02*
X114970000Y-68760000D01*
X117510000Y-72570000D02*
X122590000Y-72570000D01*
X125129999Y-74475001D02*
X128940000Y-74475000D01*
X126400000Y-68125000D02*
X117510000Y-68125000D01*
X128940000Y-73840000D02*
X131480000Y-73840000D01*
X128940000Y-74475000D02*
X128940000Y-70665000D01*
D12*
X130090000Y-67610000D02*
X130090000Y-82610000D01*
X130090000Y-82610000D02*
X115090000Y-82610000D01*
D11*
X131480000Y-71300000D02*
X128940000Y-71300000D01*
X131480000Y-73840000D02*
X131480000Y-71300000D01*
X122590001Y-72491829D02*
G75*
G02*
X125129999Y-74475001I-1J-2618171D01*
G01*
X126400000Y-68125000D02*
G75*
G02*
X128940000Y-70665000I0J-2540000D01*
G01*
D10*
%TO.C,C38*%
X223675000Y-110300000D02*
X224925000Y-110300000D01*
X223675000Y-112300000D02*
X223675000Y-110300000D01*
X224925000Y-110300000D02*
X224925000Y-112300000D01*
X224925000Y-112300000D02*
X223675000Y-112300000D01*
%TO.C,FID4*%
X155500000Y-50350000D02*
G75*
G02*
X152500000Y-50350000I-1500000J0D01*
G01*
X152500000Y-50350000D02*
G75*
G02*
X155500000Y-50350000I1500000J0D01*
G01*
%TO.C,D37*%
X188849999Y-92099999D02*
X188850000Y-93750000D01*
X188849999Y-92099999D02*
X190850001Y-92100001D01*
X188850000Y-93750000D02*
X189400000Y-94300000D01*
X189400000Y-94300000D02*
X190850001Y-94300001D01*
X190850001Y-94300001D02*
X190850001Y-92100001D01*
X189400000Y-93700001D02*
X188850000Y-93700000D01*
X188850001Y-93250000D01*
X189400000Y-93249999D01*
X189400000Y-93700001D01*
G36*
X189400000Y-93700001D02*
G01*
X188850000Y-93700000D01*
X188850001Y-93250000D01*
X189400000Y-93249999D01*
X189400000Y-93700001D01*
G37*
X190850000Y-93700000D02*
X190250000Y-93699999D01*
X190250000Y-93250000D01*
X190850001Y-93250000D01*
X190850000Y-93700000D01*
G36*
X190850000Y-93700000D02*
G01*
X190250000Y-93699999D01*
X190250000Y-93250000D01*
X190850001Y-93250000D01*
X190850000Y-93700000D01*
G37*
%TO.C,D12*%
X170049999Y-71949999D02*
X170050000Y-73600000D01*
X170049999Y-71949999D02*
X172050001Y-71950001D01*
X170050000Y-73600000D02*
X170600000Y-74150000D01*
X170600000Y-74150000D02*
X172050001Y-74150001D01*
X172050001Y-74150001D02*
X172050001Y-71950001D01*
X170600000Y-73550001D02*
X170050000Y-73550000D01*
X170050001Y-73100000D01*
X170600000Y-73099999D01*
X170600000Y-73550001D01*
G36*
X170600000Y-73550001D02*
G01*
X170050000Y-73550000D01*
X170050001Y-73100000D01*
X170600000Y-73099999D01*
X170600000Y-73550001D01*
G37*
X172050000Y-73550000D02*
X171450000Y-73549999D01*
X171450000Y-73100000D01*
X172050001Y-73100000D01*
X172050000Y-73550000D01*
G36*
X172050000Y-73550000D02*
G01*
X171450000Y-73549999D01*
X171450000Y-73100000D01*
X172050001Y-73100000D01*
X172050000Y-73550000D01*
G37*
%TD*%
M02*
