%TF.GenerationSoftware,KiCad,Pcbnew,8.0.2*%
%TF.CreationDate,2025-01-19T21:46:12+07:00*%
%TF.ProjectId,sudi-keyboard,73756469-2d6b-4657-9962-6f6172642e6b,1*%
%TF.SameCoordinates,Original*%
%TF.FileFunction,Other,User*%
%FSLAX46Y46*%
G04 Gerber Fmt 4.6, Leading zero omitted, Abs format (unit mm)*
G04 Created by KiCad (PCBNEW 8.0.2) date 2025-01-19 21:46:12*
%MOMM*%
%LPD*%
G01*
G04 APERTURE LIST*
%ADD10C,0.050000*%
G04 APERTURE END LIST*
D10*
%TO.C,SW4*%
X116250000Y-122900000D02*
X125050000Y-122900000D01*
X116250000Y-127450000D02*
X116250000Y-122900000D01*
X119000000Y-127450000D02*
X116250000Y-127450000D01*
X119000000Y-128750000D02*
X119000000Y-127450000D01*
X122300000Y-127450000D02*
X122300000Y-128750000D01*
X122300000Y-128750000D02*
X119000000Y-128750000D01*
X125050000Y-122900000D02*
X125050000Y-127450000D01*
X125050000Y-127450000D02*
X122300000Y-127450000D01*
%TO.C,FB1*%
X213890003Y-74599999D02*
X215350000Y-74599995D01*
X213890004Y-77900001D02*
X213890003Y-74599999D01*
X215350000Y-74599995D02*
X215350001Y-77899997D01*
X215350001Y-77899997D02*
X213890004Y-77900001D01*
%TO.C,R10*%
X226850000Y-105750000D02*
X230550000Y-105750000D01*
X226850000Y-107650000D02*
X226850000Y-105750000D01*
X230550000Y-105750000D02*
X230550000Y-107650000D01*
X230550000Y-107650000D02*
X226850000Y-107650000D01*
%TO.C,TP16*%
X216400002Y-96700001D02*
G75*
G02*
X214400000Y-96700001I-1000001J0D01*
G01*
X214400000Y-96700001D02*
G75*
G02*
X216400002Y-96700001I1000001J0D01*
G01*
%TO.C,C51*%
X190469999Y-80580000D02*
X190470000Y-76820000D01*
X190470000Y-76820000D02*
X192430001Y-76820000D01*
X192430000Y-80580000D02*
X190469999Y-80580000D01*
X192430001Y-76820000D02*
X192430000Y-80580000D01*
%TO.C,J1*%
X229403056Y-64972645D02*
X225278056Y-72117355D01*
X215976944Y-66747355D01*
X220101944Y-59602645D01*
X229403056Y-64972645D01*
%TO.C,D17*%
X130250002Y-103930001D02*
X130250002Y-106970001D01*
X130250002Y-106970001D02*
X132749998Y-106969999D01*
X132749998Y-103929999D02*
X130250002Y-103930001D01*
X132749998Y-106969999D02*
X132749998Y-103929999D01*
%TO.C,C3*%
X147270000Y-121419999D02*
X151030000Y-121420000D01*
X147270000Y-123380000D02*
X147270000Y-121419999D01*
X151030000Y-121420000D02*
X151030000Y-123380001D01*
X151030000Y-123380001D02*
X147270000Y-123380000D01*
%TO.C,FID9*%
X169640000Y-124910000D02*
G75*
G02*
X166140000Y-124910000I-1750000J0D01*
G01*
X166140000Y-124910000D02*
G75*
G02*
X169640000Y-124910000I1750000J0D01*
G01*
%TO.C,FID2*%
X113440000Y-104710000D02*
G75*
G02*
X109940000Y-104710000I-1750000J0D01*
G01*
X109940000Y-104710000D02*
G75*
G02*
X113440000Y-104710000I1750000J0D01*
G01*
%TO.C,H2*%
X172250000Y-116350000D02*
G75*
G02*
X166150000Y-116350000I-3050000J0D01*
G01*
X166150000Y-116350000D02*
G75*
G02*
X172250000Y-116350000I3050000J0D01*
G01*
%TO.C,H1*%
X213600000Y-118850000D02*
G75*
G02*
X207500000Y-118850000I-3050000J0D01*
G01*
X207500000Y-118850000D02*
G75*
G02*
X213600000Y-118850000I3050000J0D01*
G01*
%TO.C,D18*%
X169750002Y-92280001D02*
X169750002Y-95320001D01*
X169750002Y-95320001D02*
X172249998Y-95319999D01*
X172249998Y-92279999D02*
X169750002Y-92280001D01*
X172249998Y-95319999D02*
X172249998Y-92279999D01*
%TO.C,C57*%
X216170000Y-89369999D02*
X219930000Y-89370000D01*
X216170000Y-91330000D02*
X216170000Y-89369999D01*
X219930000Y-89370000D02*
X219930000Y-91330001D01*
X219930000Y-91330001D02*
X216170000Y-91330000D01*
%TO.C,H5*%
X217250000Y-60900000D02*
G75*
G02*
X211150000Y-60900000I-3050000J0D01*
G01*
X211150000Y-60900000D02*
G75*
G02*
X217250000Y-60900000I3050000J0D01*
G01*
%TO.C,TP5*%
X216650000Y-108650000D02*
G75*
G02*
X214650000Y-108650000I-1000000J0D01*
G01*
X214650000Y-108650000D02*
G75*
G02*
X216650000Y-108650000I1000000J0D01*
G01*
%TO.C,C42*%
X127869999Y-87030000D02*
X127870000Y-83270000D01*
X127870000Y-83270000D02*
X129830001Y-83270000D01*
X129830000Y-87030000D02*
X127869999Y-87030000D01*
X129830001Y-83270000D02*
X129830000Y-87030000D01*
%TO.C,FID3*%
X114440000Y-75210000D02*
G75*
G02*
X110940000Y-75210000I-1750000J0D01*
G01*
X110940000Y-75210000D02*
G75*
G02*
X114440000Y-75210000I1750000J0D01*
G01*
%TO.C,C41*%
X131869999Y-72780000D02*
X131870000Y-69020000D01*
X131870000Y-69020000D02*
X133830001Y-69020000D01*
X133830000Y-72780000D02*
X131869999Y-72780000D01*
X133830001Y-69020000D02*
X133830000Y-72780000D01*
%TO.C,H3*%
X139240000Y-123210000D02*
G75*
G02*
X133140000Y-123210000I-3050000J0D01*
G01*
X133140000Y-123210000D02*
G75*
G02*
X139240000Y-123210000I3050000J0D01*
G01*
%TO.C,C43*%
X132169999Y-111380000D02*
X132170000Y-107620000D01*
X132170000Y-107620000D02*
X134130001Y-107620000D01*
X134130000Y-111380000D02*
X132169999Y-111380000D01*
X134130001Y-107620000D02*
X134130000Y-111380000D01*
%TO.C,C40*%
X218744998Y-109507494D02*
X220704998Y-109507499D01*
X218744998Y-113267499D02*
X218744998Y-109507494D01*
X220704998Y-109507499D02*
X220704998Y-113267504D01*
X220704998Y-113267504D02*
X218744998Y-113267499D01*
%TO.C,R4*%
X216820002Y-78899998D02*
X218720002Y-78899998D01*
X216820002Y-82599998D02*
X216820002Y-78899998D01*
X218720002Y-78899998D02*
X218720002Y-82599998D01*
X218720002Y-82599998D02*
X216820002Y-82599998D01*
%TO.C,D25*%
X188250001Y-129880001D02*
X188250001Y-132920000D01*
X188250001Y-132920000D02*
X190749999Y-132919999D01*
X190749999Y-129880000D02*
X188250001Y-129880001D01*
X190749999Y-132919999D02*
X190749999Y-129880000D01*
%TO.C,C1*%
X151570000Y-112419999D02*
X155330000Y-112420000D01*
X151570000Y-114380000D02*
X151570000Y-112419999D01*
X155330000Y-112420000D02*
X155330000Y-114380001D01*
X155330000Y-114380001D02*
X151570000Y-114380000D01*
%TO.C,C18*%
X226869997Y-95530000D02*
X226870000Y-93570000D01*
X226870000Y-93570000D02*
X230630003Y-93570000D01*
X230630000Y-95530000D02*
X226869997Y-95530000D01*
X230630003Y-93570000D02*
X230630000Y-95530000D01*
%TO.C,C19*%
X226819998Y-110029998D02*
X226820001Y-108069998D01*
X226820001Y-108069998D02*
X230580004Y-108069998D01*
X230580001Y-110029998D02*
X226819998Y-110029998D01*
X230580004Y-108069998D02*
X230580001Y-110029998D01*
%TO.C,FID6*%
X113949998Y-84999999D02*
G75*
G02*
X110450000Y-84999999I-1749999J0D01*
G01*
X110450000Y-84999999D02*
G75*
G02*
X113949998Y-84999999I1749999J0D01*
G01*
%TO.C,TP17*%
X214900001Y-94950002D02*
G75*
G02*
X212899999Y-94950002I-1000001J0D01*
G01*
X212899999Y-94950002D02*
G75*
G02*
X214900001Y-94950002I1000001J0D01*
G01*
%TO.C,FID7*%
X211990000Y-140110000D02*
G75*
G02*
X208490000Y-140110000I-1750000J0D01*
G01*
X208490000Y-140110000D02*
G75*
G02*
X211990000Y-140110000I1750000J0D01*
G01*
%TO.C,FID5*%
X185340000Y-49510000D02*
G75*
G02*
X181840000Y-49510000I-1750000J0D01*
G01*
X181840000Y-49510000D02*
G75*
G02*
X185340000Y-49510000I1750000J0D01*
G01*
%TO.C,R11*%
X176550000Y-133950001D02*
X180250000Y-133950001D01*
X176550000Y-135850001D02*
X176550000Y-133950001D01*
X180250000Y-133950001D02*
X180250000Y-135850001D01*
X180250000Y-135850001D02*
X176550000Y-135850001D01*
%TO.C,TP9*%
X228449999Y-102200001D02*
G75*
G02*
X226449999Y-102200001I-1000000J0D01*
G01*
X226449999Y-102200001D02*
G75*
G02*
X228449999Y-102200001I1000000J0D01*
G01*
%TO.C,R12*%
X176549999Y-130999998D02*
X180249999Y-130999998D01*
X176549999Y-132899998D02*
X176549999Y-130999998D01*
X180249999Y-130999998D02*
X180249999Y-132899998D01*
X180249999Y-132899998D02*
X176549999Y-132899998D01*
%TO.C,C39*%
X221044999Y-109457495D02*
X223004999Y-109457500D01*
X221044999Y-113217500D02*
X221044999Y-109457495D01*
X223004999Y-109457500D02*
X223004999Y-113217505D01*
X223004999Y-113217505D02*
X221044999Y-113217500D01*
%TO.C,D8*%
X130100001Y-65280001D02*
X130100001Y-68320000D01*
X130100001Y-68320000D02*
X132599999Y-68319999D01*
X132599999Y-65280000D02*
X130100001Y-65280001D01*
X132599999Y-68319999D02*
X132599999Y-65280000D01*
%TO.C,R5*%
X176550000Y-136900000D02*
X180250000Y-136900000D01*
X176550000Y-138800000D02*
X176550000Y-136900000D01*
X180250000Y-136900000D02*
X180250000Y-138800000D01*
X180250000Y-138800000D02*
X176550000Y-138800000D01*
%TO.C,AE1*%
X207549999Y-83100001D02*
X207549999Y-89049999D01*
X207549999Y-89049999D02*
X223050000Y-89050000D01*
X223050000Y-83100000D02*
X207549999Y-83100001D01*
X223050000Y-89050000D02*
X223050000Y-83100000D01*
%TO.C,C2*%
X213920003Y-82629998D02*
X213920004Y-78869998D01*
X213920004Y-78869998D02*
X215880005Y-78869998D01*
X215880004Y-82629998D02*
X213920003Y-82629998D01*
X215880005Y-78869998D02*
X215880004Y-82629998D01*
%TO.C,D36*%
X150250001Y-98130001D02*
X150250001Y-101170000D01*
X150250001Y-101170000D02*
X152749999Y-101169999D01*
X152749999Y-98130000D02*
X150250001Y-98130001D01*
X152749999Y-101169999D02*
X152749999Y-98130000D01*
%TO.C,D29*%
X150100001Y-77830001D02*
X150100001Y-80870000D01*
X150100001Y-80870000D02*
X152599999Y-80869999D01*
X152599999Y-77830000D02*
X150100001Y-77830001D01*
X152599999Y-80869999D02*
X152599999Y-77830000D01*
%TO.C,C20*%
X211119997Y-102880000D02*
X211120000Y-100920000D01*
X211120000Y-100920000D02*
X214880003Y-100920000D01*
X214880000Y-102880000D02*
X211119997Y-102880000D01*
X214880003Y-100920000D02*
X214880000Y-102880000D01*
%TO.C,TP13*%
X219050003Y-92450001D02*
G75*
G02*
X217050001Y-92450001I-1000001J0D01*
G01*
X217050001Y-92450001D02*
G75*
G02*
X219050003Y-92450001I1000001J0D01*
G01*
%TO.C,C54*%
X210369999Y-80180000D02*
X210370000Y-76420000D01*
X210370000Y-76420000D02*
X212330001Y-76420000D01*
X212330000Y-80180000D02*
X210369999Y-80180000D01*
X212330001Y-76420000D02*
X212330000Y-80180000D01*
%TO.C,R1*%
X158200000Y-114210000D02*
X161900000Y-114210000D01*
X158200000Y-116110000D02*
X158200000Y-114210000D01*
X161900000Y-114210000D02*
X161900000Y-116110000D01*
X161900000Y-116110000D02*
X158200000Y-116110000D01*
%TO.C,C44*%
X151619999Y-65130000D02*
X151620000Y-61370000D01*
X151620000Y-61370000D02*
X153580001Y-61370000D01*
X153580000Y-65130000D02*
X151619999Y-65130000D01*
X153580001Y-61370000D02*
X153580000Y-65130000D01*
%TO.C,TP11*%
X228700000Y-99600000D02*
G75*
G02*
X226700000Y-99600000I-1000000J0D01*
G01*
X226700000Y-99600000D02*
G75*
G02*
X228700000Y-99600000I1000000J0D01*
G01*
%TO.C,R17*%
X143000000Y-117949999D02*
X146700000Y-117949999D01*
X143000000Y-119849999D02*
X143000000Y-117949999D01*
X146700000Y-117949999D02*
X146700000Y-119849999D01*
X146700000Y-119849999D02*
X143000000Y-119849999D01*
%TO.C,D31*%
X208550001Y-134330001D02*
X208550001Y-137370000D01*
X208550001Y-137370000D02*
X211049999Y-137369999D01*
X211049999Y-134330000D02*
X208550001Y-134330001D01*
X211049999Y-137369999D02*
X211049999Y-134330000D01*
%TO.C,JP1*%
X212300000Y-69099999D02*
X212300000Y-65800000D01*
X212300000Y-69099999D02*
X214800000Y-69100000D01*
X214800000Y-65800001D02*
X212300000Y-65800000D01*
X214800000Y-65800001D02*
X214800000Y-69100000D01*
%TO.C,R3*%
X219250000Y-78900000D02*
X221150000Y-78900000D01*
X219250000Y-82600000D02*
X219250000Y-78900000D01*
X221150000Y-78900000D02*
X221150000Y-82600000D01*
X221150000Y-82600000D02*
X219250000Y-82600000D01*
%TO.C,P1*%
X232320000Y-75840001D02*
X232319999Y-86480000D01*
X223380000Y-86480000D01*
X223380000Y-75840000D01*
X232320000Y-75840001D01*
%TO.C,TP3*%
X214700000Y-106500000D02*
G75*
G02*
X212700000Y-106500000I-1000000J0D01*
G01*
X212700000Y-106500000D02*
G75*
G02*
X214700000Y-106500000I1000000J0D01*
G01*
%TO.C,C45*%
X152219999Y-84780000D02*
X152220000Y-81020000D01*
X152220000Y-81020000D02*
X154180001Y-81020000D01*
X154180000Y-84780000D02*
X152219999Y-84780000D01*
X154180001Y-81020000D02*
X154180000Y-84780000D01*
%TO.C,C21*%
X226027674Y-90713605D02*
X227413604Y-89327673D01*
X227413604Y-89327673D02*
X230072326Y-91986395D01*
X228686396Y-93372327D02*
X226027674Y-90713605D01*
X230072326Y-91986395D02*
X228686396Y-93372327D01*
%TO.C,R14*%
X156550000Y-121000000D02*
X158450000Y-121000000D01*
X156550000Y-124700000D02*
X156550000Y-121000000D01*
X158450000Y-121000000D02*
X158450000Y-124700000D01*
X158450000Y-124700000D02*
X156550000Y-124700000D01*
%TO.C,U7*%
X215308830Y-101350001D02*
X220400001Y-106441170D01*
X220399999Y-96258830D02*
X215308830Y-101350001D01*
X220400001Y-106441170D02*
X225491170Y-101349999D01*
X225491170Y-101349999D02*
X220399999Y-96258830D01*
%TO.C,TP15*%
X218650002Y-95300002D02*
G75*
G02*
X216650000Y-95300002I-1000001J0D01*
G01*
X216650000Y-95300002D02*
G75*
G02*
X218650002Y-95300002I1000001J0D01*
G01*
%TO.C,Y1*%
X223190811Y-96370709D02*
X225029291Y-98209189D01*
X225029291Y-98209189D02*
X227009189Y-96229291D01*
X225170709Y-94390811D02*
X223190811Y-96370709D01*
X227009189Y-96229291D02*
X225170709Y-94390811D01*
%TO.C,FID1*%
X114049999Y-94100000D02*
G75*
G02*
X110550001Y-94100000I-1749999J0D01*
G01*
X110550001Y-94100000D02*
G75*
G02*
X114049999Y-94100000I1749999J0D01*
G01*
%TO.C,R2*%
X158200000Y-110400000D02*
X161900000Y-110400000D01*
X158200000Y-112300000D02*
X158200000Y-110400000D01*
X161900000Y-110400000D02*
X161900000Y-112300000D01*
X161900000Y-112300000D02*
X158200000Y-112300000D01*
%TO.C,U5*%
X152170000Y-115370000D02*
X152170000Y-119630000D01*
X152170000Y-119630000D02*
X156430000Y-119630000D01*
X156430000Y-115370000D02*
X152170000Y-115370000D01*
X156430000Y-119630000D02*
X156430000Y-115370000D01*
%TO.C,C52*%
X187470000Y-89070000D02*
X191230000Y-89070000D01*
X187470000Y-91030000D02*
X187470000Y-89070000D01*
X191230000Y-89070000D02*
X191230000Y-91030000D01*
X191230000Y-91030000D02*
X187470000Y-91030000D01*
%TO.C,C35*%
X222427675Y-93886397D02*
X225086397Y-91227675D01*
X223813607Y-95272327D02*
X222427675Y-93886397D01*
X225086397Y-91227675D02*
X226472329Y-92613605D01*
X226472329Y-92613605D02*
X223813607Y-95272327D01*
%TO.C,C48*%
X170970000Y-75020000D02*
X172930000Y-75020000D01*
X170970000Y-78780000D02*
X170970000Y-75020000D01*
X172930000Y-75020000D02*
X172930000Y-78780000D01*
X172930000Y-78780000D02*
X170970000Y-78780000D01*
%TO.C,C53*%
X200070000Y-50720000D02*
X203830000Y-50720000D01*
X200070000Y-52680000D02*
X200070000Y-50720000D01*
X203830000Y-50720000D02*
X203830000Y-52680000D01*
X203830000Y-52680000D02*
X200070000Y-52680000D01*
%TO.C,D9*%
X169400001Y-52580001D02*
X169400001Y-55620000D01*
X169400001Y-55620000D02*
X171899999Y-55619999D01*
X171899999Y-52580000D02*
X169400001Y-52580001D01*
X171899999Y-55619999D02*
X171899999Y-52580000D01*
%TO.C,C36*%
X220695262Y-92083278D02*
X223353984Y-89424556D01*
X222081194Y-93469208D02*
X220695262Y-92083278D01*
X223353984Y-89424556D02*
X224739916Y-90810486D01*
X224739916Y-90810486D02*
X222081194Y-93469208D01*
%TO.C,Q2*%
X216330001Y-71450000D02*
X216330001Y-74850000D01*
X216330001Y-74850000D02*
X220169999Y-74850000D01*
X220169999Y-71450000D02*
X216330001Y-71450000D01*
X220169999Y-74850000D02*
X220169999Y-71450000D01*
%TO.C,D38*%
X227150001Y-138980001D02*
X227150001Y-142020000D01*
X227150001Y-142020000D02*
X229649999Y-142019999D01*
X229649999Y-138980000D02*
X227150001Y-138980001D01*
X229649999Y-142019999D02*
X229649999Y-138980000D01*
%TO.C,C8*%
X226869995Y-98330000D02*
X226870000Y-96370000D01*
X226870000Y-96370000D02*
X230630005Y-96370000D01*
X230630000Y-98330000D02*
X226869995Y-98330000D01*
X230630005Y-96370000D02*
X230630000Y-98330000D01*
%TO.C,D4*%
X147699999Y-115150000D02*
X151399999Y-115150000D01*
X147699999Y-117050000D02*
X147699999Y-115150000D01*
X151399999Y-115150000D02*
X151399999Y-117050000D01*
X151399999Y-117050000D02*
X147699999Y-117050000D01*
%TO.C,H4*%
X129840000Y-61860000D02*
G75*
G02*
X123740000Y-61860000I-3050000J0D01*
G01*
X123740000Y-61860000D02*
G75*
G02*
X129840000Y-61860000I3050000J0D01*
G01*
%TO.C,TP18*%
X213750002Y-97000001D02*
G75*
G02*
X211750000Y-97000001I-1000001J0D01*
G01*
X211750000Y-97000001D02*
G75*
G02*
X213750002Y-97000001I1000001J0D01*
G01*
%TO.C,C47*%
X170919999Y-59630000D02*
X170920000Y-55870000D01*
X170920000Y-55870000D02*
X172880001Y-55870000D01*
X172880000Y-59630000D02*
X170919999Y-59630000D01*
X172880001Y-55870000D02*
X172880000Y-59630000D01*
%TO.C,C50*%
X190669999Y-60930000D02*
X190670000Y-57170000D01*
X190670000Y-57170000D02*
X192630001Y-57170000D01*
X192630000Y-60930000D02*
X190669999Y-60930000D01*
X192630001Y-57170000D02*
X192630000Y-60930000D01*
%TO.C,D10*%
X208800002Y-54930001D02*
X208800002Y-57970001D01*
X208800002Y-57970001D02*
X211299998Y-57969999D01*
X211299998Y-54929999D02*
X208800002Y-54930001D01*
X211299998Y-57969999D02*
X211299998Y-54929999D01*
%TO.C,D24*%
X189250001Y-53430001D02*
X189250001Y-56470000D01*
X189250001Y-56470000D02*
X191749999Y-56469999D01*
X191749999Y-53430000D02*
X189250001Y-53430001D01*
X191749999Y-56469999D02*
X191749999Y-53430000D01*
%TO.C,C46*%
X152019999Y-105880000D02*
X152020000Y-102120000D01*
X152020000Y-102120000D02*
X153980001Y-102120000D01*
X153980000Y-105880000D02*
X152019999Y-105880000D01*
X153980001Y-102120000D02*
X153980000Y-105880000D01*
%TO.C,C37*%
X211669995Y-100680000D02*
X211670000Y-98720000D01*
X211670000Y-98720000D02*
X215430005Y-98720000D01*
X215430000Y-100680000D02*
X211669995Y-100680000D01*
X215430005Y-98720000D02*
X215430000Y-100680000D01*
%TO.C,TP4*%
X216800000Y-106550000D02*
G75*
G02*
X214800000Y-106550000I-1000000J0D01*
G01*
X214800000Y-106550000D02*
G75*
G02*
X216800000Y-106550000I1000000J0D01*
G01*
%TO.C,R15*%
X143000000Y-115149999D02*
X146700000Y-115149999D01*
X143000000Y-117049999D02*
X143000000Y-115149999D01*
X146700000Y-115149999D02*
X146700000Y-117049999D01*
X146700000Y-117049999D02*
X143000000Y-117049999D01*
%TO.C,D19*%
X208900001Y-93780001D02*
X208900001Y-96820000D01*
X208900001Y-96820000D02*
X211399999Y-96819999D01*
X211399999Y-93780000D02*
X208900001Y-93780001D01*
X211399999Y-96819999D02*
X211399999Y-93780000D01*
%TO.C,R6*%
X154400000Y-121000000D02*
X156300000Y-121000000D01*
X154400000Y-124700000D02*
X154400000Y-121000000D01*
X156300000Y-121000000D02*
X156300000Y-124700000D01*
X156300000Y-124700000D02*
X154400000Y-124700000D01*
%TO.C,TP8*%
X227200001Y-104400000D02*
G75*
G02*
X225199999Y-104400000I-1000001J0D01*
G01*
X225199999Y-104400000D02*
G75*
G02*
X227200001Y-104400000I1000001J0D01*
G01*
%TO.C,TP2*%
X213800000Y-104450000D02*
G75*
G02*
X211800000Y-104450000I-1000000J0D01*
G01*
X211800000Y-104450000D02*
G75*
G02*
X213800000Y-104450000I1000000J0D01*
G01*
%TO.C,C49*%
X171269999Y-99680000D02*
X171270000Y-95920000D01*
X171270000Y-95920000D02*
X173230001Y-95920000D01*
X173230000Y-99680000D02*
X171269999Y-99680000D01*
X173230001Y-95920000D02*
X173230000Y-99680000D01*
%TO.C,TP1*%
X215850000Y-103900000D02*
G75*
G02*
X213850000Y-103900000I-1000000J0D01*
G01*
X213850000Y-103900000D02*
G75*
G02*
X215850000Y-103900000I1000000J0D01*
G01*
%TO.C,TP6*%
X218550000Y-107900000D02*
G75*
G02*
X216550000Y-107900000I-1000000J0D01*
G01*
X216550000Y-107900000D02*
G75*
G02*
X218550000Y-107900000I1000000J0D01*
G01*
%TO.C,JP2*%
X223700000Y-141900000D02*
X223700000Y-144400000D01*
X223700000Y-141900000D02*
X227000000Y-141900000D01*
X227000000Y-144400000D02*
X223700000Y-144400000D01*
X227000000Y-144400000D02*
X227000000Y-141900000D01*
%TO.C,D30*%
X189300001Y-72930001D02*
X189300001Y-75970000D01*
X189300001Y-75970000D02*
X191799999Y-75969999D01*
X191799999Y-72930000D02*
X189300001Y-72930001D01*
X191799999Y-75969999D02*
X191799999Y-72930000D01*
%TO.C,SW3*%
X166700000Y-134050000D02*
X168000000Y-134050000D01*
X166700000Y-137350000D02*
X166700000Y-134050000D01*
X168000000Y-131300000D02*
X172550000Y-131300000D01*
X168000000Y-134050000D02*
X168000000Y-131300000D01*
X168000000Y-137350000D02*
X166700000Y-137350000D01*
X168000000Y-140100000D02*
X168000000Y-137350000D01*
X172550000Y-131300000D02*
X172550000Y-140100000D01*
X172550000Y-140100000D02*
X168000000Y-140100000D01*
%TO.C,TP12*%
X220700000Y-94500001D02*
G75*
G02*
X218699998Y-94500001I-1000001J0D01*
G01*
X218699998Y-94500001D02*
G75*
G02*
X220700000Y-94500001I1000001J0D01*
G01*
%TO.C,R7*%
X152100000Y-121000000D02*
X154000000Y-121000000D01*
X152100000Y-124700000D02*
X152100000Y-121000000D01*
X154000000Y-121000000D02*
X154000000Y-124700000D01*
X154000000Y-124700000D02*
X152100000Y-124700000D01*
%TO.C,TP10*%
X230200000Y-100950000D02*
G75*
G02*
X228200000Y-100950000I-1000000J0D01*
G01*
X228200000Y-100950000D02*
G75*
G02*
X230200000Y-100950000I1000000J0D01*
G01*
%TO.C,D32*%
X147700000Y-117950000D02*
X151400000Y-117950000D01*
X147700000Y-119850000D02*
X147700000Y-117950000D01*
X151400000Y-117950000D02*
X151400000Y-119850000D01*
X151400000Y-119850000D02*
X147700000Y-119850000D01*
%TO.C,D23*%
X149950002Y-57730001D02*
X149950002Y-60770001D01*
X149950002Y-60770001D02*
X152449998Y-60769999D01*
X152449998Y-57729999D02*
X149950002Y-57730001D01*
X152449998Y-60769999D02*
X152449998Y-57729999D01*
%TO.C,Q1*%
X176549999Y-139680001D02*
X176550001Y-143519999D01*
X176550001Y-143519999D02*
X179949999Y-143519999D01*
X179949997Y-139680001D02*
X176549999Y-139680001D01*
X179949999Y-143519999D02*
X179949997Y-139680001D01*
%TO.C,D13*%
X208950001Y-72230001D02*
X208950001Y-75270000D01*
X208950001Y-75270000D02*
X211449999Y-75269999D01*
X211449999Y-72230000D02*
X208950001Y-72230001D01*
X211449999Y-75269999D02*
X211449999Y-72230000D01*
%TO.C,TP7*%
X226650001Y-106450000D02*
G75*
G02*
X224649999Y-106450000I-1000001J0D01*
G01*
X224649999Y-106450000D02*
G75*
G02*
X226650001Y-106450000I1000001J0D01*
G01*
%TO.C,C55*%
X208020000Y-90569999D02*
X211780000Y-90570000D01*
X208020000Y-92530000D02*
X208020000Y-90569999D01*
X211780000Y-90570000D02*
X211780000Y-92530001D01*
X211780000Y-92530001D02*
X208020000Y-92530000D01*
%TO.C,L3*%
X224699998Y-87370000D02*
X228000000Y-87370001D01*
X224700000Y-88829999D02*
X224699998Y-87370000D01*
X228000000Y-87370001D02*
X228000002Y-88830000D01*
X228000002Y-88830000D02*
X224700000Y-88829999D01*
%TO.C,FID8*%
X230740000Y-120660000D02*
G75*
G02*
X227240000Y-120660000I-1750000J0D01*
G01*
X227240000Y-120660000D02*
G75*
G02*
X230740000Y-120660000I1750000J0D01*
G01*
%TO.C,J3*%
X215000000Y-116499999D02*
X215000001Y-120100000D01*
X215000001Y-120100000D02*
X226200000Y-120100000D01*
X226200000Y-116500000D02*
X215000000Y-116499999D01*
X226200000Y-120100000D02*
X226200000Y-116500000D01*
%TO.C,C38*%
X223320000Y-109419995D02*
X225280000Y-109420000D01*
X223320000Y-113180000D02*
X223320000Y-109419995D01*
X225280000Y-109420000D02*
X225280000Y-113180005D01*
X225280000Y-113180005D02*
X223320000Y-113180000D01*
%TO.C,FID4*%
X155750000Y-50350000D02*
G75*
G02*
X152250000Y-50350000I-1750000J0D01*
G01*
X152250000Y-50350000D02*
G75*
G02*
X155750000Y-50350000I1750000J0D01*
G01*
%TO.C,TP14*%
X217150000Y-93650004D02*
G75*
G02*
X215149998Y-93650004I-1000001J0D01*
G01*
X215149998Y-93650004D02*
G75*
G02*
X217150000Y-93650004I1000001J0D01*
G01*
%TO.C,H7*%
X178840000Y-50510000D02*
G75*
G02*
X172740000Y-50510000I-3050000J0D01*
G01*
X172740000Y-50510000D02*
G75*
G02*
X178840000Y-50510000I3050000J0D01*
G01*
%TO.C,D37*%
X188600001Y-91680001D02*
X188600001Y-94720000D01*
X188600001Y-94720000D02*
X191099999Y-94719999D01*
X191099999Y-91680000D02*
X188600001Y-91680001D01*
X191099999Y-94719999D02*
X191099999Y-91680000D01*
%TO.C,D12*%
X169800001Y-71530001D02*
X169800001Y-74570000D01*
X169800001Y-74570000D02*
X172299999Y-74569999D01*
X172299999Y-71530000D02*
X169800001Y-71530001D01*
X172299999Y-74569999D02*
X172299999Y-71530000D01*
%TO.C,H6*%
X192740000Y-141310000D02*
G75*
G02*
X186640000Y-141310000I-3050000J0D01*
G01*
X186640000Y-141310000D02*
G75*
G02*
X192740000Y-141310000I3050000J0D01*
G01*
%TD*%
M02*
