%TF.GenerationSoftware,KiCad,Pcbnew,8.0.2*%
%TF.CreationDate,2025-01-19T21:46:12+07:00*%
%TF.ProjectId,sudi-keyboard,73756469-2d6b-4657-9962-6f6172642e6b,1*%
%TF.SameCoordinates,Original*%
%TF.FileFunction,Legend,Top*%
%TF.FilePolarity,Positive*%
%FSLAX46Y46*%
G04 Gerber Fmt 4.6, Leading zero omitted, Abs format (unit mm)*
G04 Created by KiCad (PCBNEW 8.0.2) date 2025-01-19 21:46:12*
%MOMM*%
%LPD*%
G01*
G04 APERTURE LIST*
%ADD10C,2.000000*%
%ADD11C,0.300000*%
%ADD12C,0.400000*%
%ADD13C,3.000000*%
%ADD14C,0.120000*%
%ADD15C,0.150000*%
%ADD16C,0.200000*%
%ADD17R,1.600000X1.600000*%
%ADD18C,1.600000*%
G04 APERTURE END LIST*
D10*
X231776807Y-141015865D02*
G75*
G02*
X228019000Y-145015808I-4007707J-35D01*
G01*
X108423012Y-68476958D02*
G75*
G02*
X231790001Y-65810000I63366988J-76540842D01*
G01*
X115337407Y-127540512D02*
X163795866Y-127473193D01*
X108491417Y-122607575D02*
X108423012Y-68476958D01*
X171784134Y-144996807D02*
G75*
G02*
X167784192Y-141238999I-34J4007707D01*
G01*
X115337407Y-127540512D02*
G75*
G02*
X108491406Y-122607580I749993J8257812D01*
G01*
X231790000Y-65810001D02*
X231776807Y-141015865D01*
X171784134Y-144996807D02*
X228019003Y-145015864D01*
X167784135Y-141239003D02*
X167795865Y-131230997D01*
X163795866Y-127473193D02*
G75*
G02*
X167795808Y-131231001I34J-4007707D01*
G01*
D11*
G36*
X170547941Y-79089497D02*
G01*
X176905582Y-79089497D01*
X176905582Y-80808967D01*
X172565387Y-80808967D01*
X172565387Y-82997383D01*
X176495254Y-82997383D01*
X176495254Y-84716852D01*
X172565387Y-84716852D01*
X172565387Y-87530530D01*
X176905582Y-87530530D01*
X176905582Y-89250000D01*
X170547941Y-89250000D01*
X170547941Y-79089497D01*
G37*
G36*
X178634822Y-79089497D02*
G01*
X180801256Y-79089497D01*
X183646685Y-86512037D01*
X183646685Y-79089497D01*
X185422330Y-79089497D01*
X185422330Y-89250000D01*
X183270551Y-89250000D01*
X180412909Y-81969120D01*
X180412909Y-89250000D01*
X178634822Y-89250000D01*
X178634822Y-79089497D01*
G37*
G36*
X189944983Y-79108006D02*
G01*
X190505787Y-79163533D01*
X191022399Y-79256078D01*
X191494818Y-79385642D01*
X192023196Y-79599652D01*
X192482523Y-79871504D01*
X192872799Y-80201196D01*
X192942568Y-80274075D01*
X193254407Y-80676121D01*
X193515203Y-81152586D01*
X193706277Y-81645031D01*
X193760781Y-81822575D01*
X193883666Y-82329989D01*
X193962389Y-82817053D01*
X194014231Y-83344322D01*
X194039192Y-83911795D01*
X194041660Y-84167306D01*
X194032000Y-84657984D01*
X193989067Y-85271548D01*
X193911787Y-85838631D01*
X193800160Y-86359230D01*
X193654187Y-86833348D01*
X193423421Y-87360628D01*
X193138987Y-87815280D01*
X192942568Y-88053210D01*
X192564170Y-88397988D01*
X192117437Y-88684329D01*
X191602368Y-88912234D01*
X191018964Y-89081701D01*
X190503039Y-89175200D01*
X189943380Y-89231300D01*
X189339986Y-89250000D01*
X187178436Y-89250000D01*
X187178436Y-87374214D01*
X189195882Y-87374214D01*
X189742986Y-87374214D01*
X190230651Y-87339152D01*
X190707841Y-87213215D01*
X191142498Y-86962055D01*
X191438032Y-86641486D01*
X191682429Y-86147967D01*
X191817219Y-85653524D01*
X191894241Y-85152692D01*
X191935715Y-84580763D01*
X191943614Y-84159979D01*
X191931271Y-83642513D01*
X191883873Y-83086097D01*
X191800925Y-82600092D01*
X191659224Y-82122077D01*
X191438032Y-81693126D01*
X191058406Y-81309302D01*
X190600093Y-81085405D01*
X190099929Y-80983052D01*
X189742986Y-80965282D01*
X189195882Y-80965282D01*
X189195882Y-87374214D01*
X187178436Y-87374214D01*
X187178436Y-79089497D01*
X189339986Y-79089497D01*
X189944983Y-79108006D01*
G37*
G36*
X174143239Y-95765561D02*
G01*
X174633990Y-95862697D01*
X175167794Y-96064741D01*
X175641492Y-96360037D01*
X176055083Y-96748583D01*
X176297418Y-97059420D01*
X176557057Y-97503995D01*
X176772689Y-98010345D01*
X176944315Y-98578472D01*
X177049931Y-99077453D01*
X177127383Y-99615970D01*
X177176670Y-100194024D01*
X177197793Y-100811615D01*
X177198674Y-100972191D01*
X177184591Y-101596918D01*
X177142345Y-102182719D01*
X177071934Y-102729594D01*
X176973360Y-103237543D01*
X176810535Y-103817739D01*
X176603704Y-104337113D01*
X176352866Y-104795665D01*
X176297418Y-104880076D01*
X175969717Y-105286199D01*
X175587758Y-105621325D01*
X175193440Y-105864375D01*
X174705589Y-106059054D01*
X174210997Y-106165910D01*
X173667747Y-106205981D01*
X173610746Y-106206315D01*
X173112290Y-106179267D01*
X172607395Y-106085768D01*
X172111515Y-105905782D01*
X172028053Y-105864375D01*
X171601806Y-105594658D01*
X171229817Y-105255676D01*
X170938729Y-104887404D01*
X170676276Y-104442769D01*
X170458306Y-103936240D01*
X170284819Y-103367815D01*
X170178058Y-102868510D01*
X170099767Y-102329592D01*
X170049945Y-101751061D01*
X170028593Y-101132916D01*
X170027704Y-100972191D01*
X170027815Y-100967306D01*
X172128192Y-100967306D01*
X172136838Y-101502613D01*
X172170040Y-102079178D01*
X172228143Y-102583960D01*
X172327403Y-103082144D01*
X172482344Y-103531856D01*
X172745764Y-103953032D01*
X173168915Y-104252534D01*
X173610746Y-104330530D01*
X174096472Y-104236155D01*
X174512467Y-103917934D01*
X174746475Y-103531856D01*
X174917672Y-103016957D01*
X175012090Y-102504815D01*
X175066042Y-101988069D01*
X175095094Y-101399539D01*
X175100628Y-100967306D01*
X175091981Y-100433406D01*
X175058779Y-99858214D01*
X175000676Y-99354463D01*
X174901417Y-98857048D01*
X174746475Y-98407641D01*
X174482340Y-97986465D01*
X174056442Y-97686962D01*
X173610746Y-97608967D01*
X173093715Y-97721280D01*
X172689340Y-98058221D01*
X172482344Y-98407641D01*
X172311148Y-98922154D01*
X172216730Y-99433461D01*
X172162777Y-99949118D01*
X172133726Y-100536217D01*
X172128192Y-100967306D01*
X170027815Y-100967306D01*
X170041938Y-100347807D01*
X170084643Y-99761815D01*
X170155817Y-99214215D01*
X170255460Y-98705006D01*
X170420050Y-98122485D01*
X170629123Y-97599951D01*
X170882680Y-97137404D01*
X170938729Y-97052093D01*
X171254098Y-96657059D01*
X171648939Y-96307923D01*
X172093998Y-96048255D01*
X172581771Y-95868872D01*
X173104753Y-95763951D01*
X173610746Y-95733182D01*
X174143239Y-95765561D01*
G37*
G36*
X179064689Y-95889497D02*
G01*
X185422330Y-95889497D01*
X185422330Y-97608967D01*
X181082135Y-97608967D01*
X181082135Y-99953698D01*
X185033984Y-99953698D01*
X185033984Y-101673168D01*
X181082135Y-101673168D01*
X181082135Y-106050000D01*
X179064689Y-106050000D01*
X179064689Y-95889497D01*
G37*
G36*
X170186461Y-121391870D02*
G01*
X170357431Y-120974214D01*
X171280669Y-120002128D01*
X171639706Y-119618209D01*
X171996912Y-119237755D01*
X172335799Y-118878928D01*
X172482344Y-118724738D01*
X172834369Y-118353012D01*
X173178436Y-117982240D01*
X173522129Y-117609471D01*
X173644940Y-117476657D01*
X173960729Y-117101258D01*
X174082135Y-116946650D01*
X174352748Y-116520293D01*
X174382554Y-116458164D01*
X174559789Y-115974101D01*
X174609699Y-115544696D01*
X174529758Y-115031185D01*
X174266684Y-114598238D01*
X174192044Y-114526203D01*
X173762549Y-114272420D01*
X173249035Y-114164018D01*
X173022121Y-114154954D01*
X172511816Y-114198431D01*
X172012007Y-114316662D01*
X171813119Y-114382100D01*
X171344945Y-114566389D01*
X171126796Y-114665422D01*
X170679527Y-114896880D01*
X170403838Y-115058653D01*
X170403838Y-113102267D01*
X170876464Y-112934725D01*
X171182972Y-112840928D01*
X171672481Y-112711679D01*
X171839986Y-112674842D01*
X172362055Y-112588518D01*
X172873133Y-112542035D01*
X173207745Y-112533182D01*
X173708059Y-112554539D01*
X174226865Y-112626552D01*
X174597487Y-112713921D01*
X175060251Y-112878671D01*
X175510416Y-113123040D01*
X175730774Y-113283007D01*
X176097711Y-113651661D01*
X176378781Y-114089009D01*
X176409769Y-114152512D01*
X176576732Y-114637038D01*
X176648049Y-115154768D01*
X176654012Y-115371284D01*
X176608932Y-115891349D01*
X176485513Y-116368996D01*
X176448848Y-116470376D01*
X176232579Y-116919631D01*
X175964789Y-117355146D01*
X175757641Y-117637857D01*
X175418811Y-118032243D01*
X175059106Y-118416992D01*
X174700367Y-118786567D01*
X174340307Y-119151629D01*
X173969974Y-119523488D01*
X173767062Y-119726133D01*
X173396895Y-120090997D01*
X173017446Y-120435535D01*
X172980600Y-120466189D01*
X172587178Y-120774651D01*
X172516538Y-120825226D01*
X172162386Y-121130530D01*
X176666224Y-121130530D01*
X176666224Y-122850000D01*
X170186461Y-122850000D01*
X170186461Y-121391870D01*
G37*
G36*
X182203210Y-116028297D02*
G01*
X182306636Y-116507883D01*
X182320446Y-116616922D01*
X182359444Y-117106839D01*
X182369295Y-117256838D01*
X182393504Y-117753066D01*
X182393719Y-117789288D01*
X182383949Y-118246022D01*
X182351434Y-118751605D01*
X182332658Y-118920132D01*
X182250226Y-119420219D01*
X182039567Y-119740788D01*
X181861270Y-119489218D01*
X181769373Y-119004091D01*
X181758688Y-118927459D01*
X181715029Y-118436674D01*
X181704954Y-118304640D01*
X181678743Y-117812238D01*
X181678087Y-117747766D01*
X181690300Y-117269050D01*
X181727394Y-116763010D01*
X181746475Y-116602267D01*
X181830281Y-116111110D01*
X182024912Y-115796266D01*
X182203210Y-116028297D01*
G37*
G36*
X182541071Y-112565024D02*
G01*
X183096571Y-112687298D01*
X183591964Y-112901278D01*
X184027250Y-113206963D01*
X184402430Y-113604353D01*
X184567480Y-113837438D01*
X184810232Y-114278042D01*
X185011840Y-114783164D01*
X185172303Y-115352805D01*
X185271050Y-115854973D01*
X185343464Y-116398432D01*
X185389546Y-116983184D01*
X185409295Y-117609228D01*
X185410118Y-117772191D01*
X185396952Y-118406010D01*
X185357453Y-118998939D01*
X185291622Y-119550975D01*
X185199459Y-120062120D01*
X185011840Y-120752166D01*
X184764974Y-121350205D01*
X184458859Y-121856239D01*
X184093497Y-122270266D01*
X183668886Y-122592288D01*
X183185028Y-122822303D01*
X182641921Y-122960312D01*
X182039567Y-123006315D01*
X181530736Y-122974294D01*
X180975236Y-122851333D01*
X180479843Y-122636151D01*
X180044556Y-122328749D01*
X179669376Y-121929125D01*
X179504326Y-121694731D01*
X179261574Y-121255070D01*
X179059966Y-120751247D01*
X178899503Y-120183264D01*
X178800756Y-119682680D01*
X178728342Y-119141034D01*
X178682260Y-118558324D01*
X178662511Y-117934550D01*
X178661688Y-117772191D01*
X180693789Y-117772191D01*
X180701600Y-118333925D01*
X180725035Y-118846764D01*
X180773778Y-119397627D01*
X180859080Y-119951309D01*
X180994062Y-120466738D01*
X181013747Y-120522365D01*
X181251741Y-120977029D01*
X181633675Y-121300345D01*
X182032240Y-121384542D01*
X182506223Y-121263299D01*
X182873046Y-120899568D01*
X183058060Y-120522365D01*
X183198041Y-120022583D01*
X183287717Y-119482592D01*
X183340210Y-118943464D01*
X183366769Y-118440405D01*
X183377705Y-117888449D01*
X183378018Y-117772191D01*
X183370206Y-117209049D01*
X183346772Y-116695042D01*
X183298028Y-116143091D01*
X183212727Y-115588574D01*
X183077744Y-115072763D01*
X183058060Y-115017131D01*
X182819350Y-114562468D01*
X182434668Y-114239151D01*
X182032240Y-114154954D01*
X181528338Y-114297247D01*
X181172679Y-114681185D01*
X181013747Y-115017131D01*
X180873765Y-115517219D01*
X180784089Y-116057978D01*
X180731596Y-116598136D01*
X180705037Y-117102317D01*
X180694101Y-117655632D01*
X180693789Y-117772191D01*
X178661688Y-117772191D01*
X178674854Y-117135824D01*
X178714353Y-116540749D01*
X178780184Y-115986966D01*
X178872348Y-115474476D01*
X179024582Y-114891931D01*
X179217961Y-114373904D01*
X179452484Y-113920398D01*
X179504326Y-113837438D01*
X179849195Y-113394195D01*
X180253656Y-113042657D01*
X180717707Y-112782825D01*
X181241351Y-112614698D01*
X181824585Y-112538276D01*
X182032240Y-112533182D01*
X182541071Y-112565024D01*
G37*
G36*
X187029448Y-121391870D02*
G01*
X187200418Y-120974214D01*
X188123656Y-120002128D01*
X188482693Y-119618209D01*
X188839898Y-119237755D01*
X189178785Y-118878928D01*
X189325331Y-118724738D01*
X189677356Y-118353012D01*
X190021423Y-117982240D01*
X190365116Y-117609471D01*
X190487927Y-117476657D01*
X190803716Y-117101258D01*
X190925122Y-116946650D01*
X191195735Y-116520293D01*
X191225540Y-116458164D01*
X191402776Y-115974101D01*
X191452686Y-115544696D01*
X191372744Y-115031185D01*
X191109670Y-114598238D01*
X191035031Y-114526203D01*
X190605536Y-114272420D01*
X190092022Y-114164018D01*
X189865108Y-114154954D01*
X189354802Y-114198431D01*
X188854994Y-114316662D01*
X188656106Y-114382100D01*
X188187932Y-114566389D01*
X187969783Y-114665422D01*
X187522513Y-114896880D01*
X187246824Y-115058653D01*
X187246824Y-113102267D01*
X187719451Y-112934725D01*
X188025959Y-112840928D01*
X188515468Y-112711679D01*
X188682972Y-112674842D01*
X189205041Y-112588518D01*
X189716120Y-112542035D01*
X190050732Y-112533182D01*
X190551046Y-112554539D01*
X191069852Y-112626552D01*
X191440474Y-112713921D01*
X191903238Y-112878671D01*
X192353403Y-113123040D01*
X192573761Y-113283007D01*
X192940698Y-113651661D01*
X193221768Y-114089009D01*
X193252756Y-114152512D01*
X193419719Y-114637038D01*
X193491036Y-115154768D01*
X193496999Y-115371284D01*
X193451919Y-115891349D01*
X193328500Y-116368996D01*
X193291835Y-116470376D01*
X193075565Y-116919631D01*
X192807776Y-117355146D01*
X192600628Y-117637857D01*
X192261798Y-118032243D01*
X191902093Y-118416992D01*
X191543354Y-118786567D01*
X191183294Y-119151629D01*
X190812961Y-119523488D01*
X190610048Y-119726133D01*
X190239882Y-120090997D01*
X189860433Y-120435535D01*
X189823586Y-120466189D01*
X189430165Y-120774651D01*
X189359525Y-120825226D01*
X189005373Y-121130530D01*
X193509211Y-121130530D01*
X193509211Y-122850000D01*
X187029448Y-122850000D01*
X187029448Y-121391870D01*
G37*
G36*
X201342079Y-118942114D02*
G01*
X202463154Y-118942114D01*
X202463154Y-120661584D01*
X201342079Y-120661584D01*
X201342079Y-122850000D01*
X199407676Y-122850000D01*
X199407676Y-120661584D01*
X195360572Y-120661584D01*
X195360572Y-118942114D01*
X196830914Y-118942114D01*
X199407676Y-118942114D01*
X199407676Y-114985380D01*
X196830914Y-118942114D01*
X195360572Y-118942114D01*
X195360572Y-118719853D01*
X199231821Y-112689497D01*
X201342079Y-112689497D01*
X201342079Y-118942114D01*
G37*
D12*
G36*
X195440823Y-139550000D02*
G01*
X195037334Y-139550000D01*
X194911304Y-139049790D01*
X194371528Y-139049790D01*
X194248429Y-139550000D01*
X193844940Y-139550000D01*
X194068524Y-138725436D01*
X194452128Y-138725436D01*
X194833635Y-138725436D01*
X194642149Y-137892568D01*
X194452128Y-138725436D01*
X194068524Y-138725436D01*
X194395952Y-137517899D01*
X194889811Y-137517899D01*
X195440823Y-139550000D01*
G37*
G36*
X195671388Y-137517899D02*
G01*
X196074877Y-137517899D01*
X196074877Y-138299476D01*
X196579483Y-138299476D01*
X196579483Y-137517899D01*
X196982972Y-137517899D01*
X196982972Y-139550000D01*
X196579483Y-139550000D01*
X196579483Y-138643370D01*
X196074877Y-138643370D01*
X196074877Y-139550000D01*
X195671388Y-139550000D01*
X195671388Y-137517899D01*
G37*
G36*
X198809420Y-139550000D02*
G01*
X198405931Y-139550000D01*
X198279902Y-139049790D01*
X197740125Y-139049790D01*
X197617027Y-139550000D01*
X197213538Y-139550000D01*
X197437121Y-138725436D01*
X197820725Y-138725436D01*
X198202233Y-138725436D01*
X198010746Y-137892568D01*
X197820725Y-138725436D01*
X197437121Y-138725436D01*
X197764549Y-137517899D01*
X198258408Y-137517899D01*
X198809420Y-139550000D01*
G37*
G36*
X199039986Y-137517899D02*
G01*
X199443475Y-137517899D01*
X199443475Y-138299476D01*
X199948080Y-138299476D01*
X199948080Y-137517899D01*
X200351570Y-137517899D01*
X200351570Y-139550000D01*
X199948080Y-139550000D01*
X199948080Y-138643370D01*
X199443475Y-138643370D01*
X199443475Y-139550000D01*
X199039986Y-139550000D01*
X199039986Y-137517899D01*
G37*
G36*
X200665666Y-139800104D02*
G01*
X202093021Y-139800104D01*
X202093021Y-140081472D01*
X200665666Y-140081472D01*
X200665666Y-139800104D01*
G37*
G36*
X202862875Y-137861793D02*
G01*
X202344591Y-137861793D01*
X202344591Y-137517899D01*
X203784159Y-137517899D01*
X203784159Y-137861793D01*
X203265875Y-137861793D01*
X203265875Y-139550000D01*
X202862875Y-139550000D01*
X202862875Y-137861793D01*
G37*
G36*
X204135380Y-137517899D02*
G01*
X205406908Y-137517899D01*
X205406908Y-137861793D01*
X204538869Y-137861793D01*
X204538869Y-138299476D01*
X205324842Y-138299476D01*
X205324842Y-138643370D01*
X204538869Y-138643370D01*
X204538869Y-139206106D01*
X205406908Y-139206106D01*
X205406908Y-139550000D01*
X204135380Y-139550000D01*
X204135380Y-137517899D01*
G37*
G36*
X206472193Y-137521274D02*
G01*
X206578988Y-137531399D01*
X206692847Y-137552459D01*
X206791112Y-137583240D01*
X206886048Y-137631435D01*
X206920237Y-137656140D01*
X206991528Y-137730830D01*
X207040441Y-137817971D01*
X207048709Y-137838834D01*
X207076224Y-137936638D01*
X207089173Y-138037079D01*
X207091207Y-138100174D01*
X207085625Y-138200144D01*
X207065806Y-138296057D01*
X207026578Y-138385805D01*
X206988625Y-138439672D01*
X206914193Y-138508423D01*
X206867480Y-138536880D01*
X206771768Y-138572700D01*
X206693579Y-138587683D01*
X206782409Y-138629381D01*
X206798604Y-138643859D01*
X206845498Y-138706385D01*
X206893994Y-138792213D01*
X206906559Y-138816782D01*
X207275854Y-139550000D01*
X206832798Y-139550000D01*
X206586601Y-139030739D01*
X206558269Y-138970167D01*
X206511032Y-138883880D01*
X206451788Y-138805569D01*
X206440544Y-138794312D01*
X206354531Y-138743913D01*
X206303768Y-138737159D01*
X206175296Y-138737159D01*
X206175296Y-139550000D01*
X205771807Y-139550000D01*
X205771807Y-138412805D01*
X206175296Y-138412805D01*
X206365317Y-138412805D01*
X206468140Y-138404839D01*
X206561230Y-138374886D01*
X206603210Y-138345394D01*
X206654989Y-138262840D01*
X206673128Y-138162256D01*
X206674040Y-138127041D01*
X206664079Y-138023909D01*
X206623615Y-137930543D01*
X206603210Y-137908199D01*
X206514932Y-137860865D01*
X206414788Y-137843864D01*
X206365317Y-137842254D01*
X206175296Y-137842254D01*
X206175296Y-138412805D01*
X205771807Y-138412805D01*
X205771807Y-137517899D01*
X206354570Y-137517899D01*
X206472193Y-137521274D01*
G37*
G36*
X208156492Y-137521274D02*
G01*
X208263286Y-137531399D01*
X208377145Y-137552459D01*
X208475411Y-137583240D01*
X208570346Y-137631435D01*
X208604535Y-137656140D01*
X208675826Y-137730830D01*
X208724740Y-137817971D01*
X208733007Y-137838834D01*
X208760523Y-137936638D01*
X208773472Y-138037079D01*
X208775505Y-138100174D01*
X208769924Y-138200144D01*
X208750104Y-138296057D01*
X208710876Y-138385805D01*
X208672923Y-138439672D01*
X208598491Y-138508423D01*
X208551779Y-138536880D01*
X208456066Y-138572700D01*
X208377878Y-138587683D01*
X208466708Y-138629381D01*
X208482903Y-138643859D01*
X208529797Y-138706385D01*
X208578293Y-138792213D01*
X208590858Y-138816782D01*
X208960153Y-139550000D01*
X208517096Y-139550000D01*
X208270900Y-139030739D01*
X208242568Y-138970167D01*
X208195331Y-138883880D01*
X208136087Y-138805569D01*
X208124842Y-138794312D01*
X208038830Y-138743913D01*
X207988066Y-138737159D01*
X207859595Y-138737159D01*
X207859595Y-139550000D01*
X207456106Y-139550000D01*
X207456106Y-138412805D01*
X207859595Y-138412805D01*
X208049616Y-138412805D01*
X208152439Y-138404839D01*
X208245529Y-138374886D01*
X208287508Y-138345394D01*
X208339288Y-138262840D01*
X208357427Y-138162256D01*
X208358339Y-138127041D01*
X208348378Y-138023909D01*
X208307913Y-137930543D01*
X208287508Y-137908199D01*
X208199230Y-137860865D01*
X208099087Y-137843864D01*
X208049616Y-137842254D01*
X207859595Y-137842254D01*
X207859595Y-138412805D01*
X207456106Y-138412805D01*
X207456106Y-137517899D01*
X208038869Y-137517899D01*
X208156492Y-137521274D01*
G37*
G36*
X209907335Y-137493112D02*
G01*
X210005486Y-137512539D01*
X210112247Y-137552948D01*
X210206986Y-137612007D01*
X210289704Y-137689716D01*
X210338171Y-137751884D01*
X210390099Y-137840799D01*
X210433226Y-137942069D01*
X210467551Y-138055694D01*
X210488674Y-138155490D01*
X210504164Y-138263194D01*
X210514022Y-138378804D01*
X210518246Y-138502323D01*
X210518422Y-138534438D01*
X210515606Y-138659383D01*
X210507157Y-138776543D01*
X210493075Y-138885918D01*
X210473360Y-138987508D01*
X210440795Y-139103547D01*
X210399428Y-139207422D01*
X210349261Y-139299133D01*
X210338171Y-139316015D01*
X210272631Y-139397239D01*
X210196239Y-139464265D01*
X210117376Y-139512875D01*
X210019805Y-139551810D01*
X209920887Y-139573182D01*
X209812237Y-139581196D01*
X209800837Y-139581263D01*
X209701146Y-139575853D01*
X209600167Y-139557153D01*
X209500991Y-139521156D01*
X209484298Y-139512875D01*
X209399049Y-139458931D01*
X209324651Y-139391135D01*
X209266434Y-139317480D01*
X209213943Y-139228553D01*
X209170349Y-139127248D01*
X209135652Y-139013563D01*
X209114299Y-138913702D01*
X209098641Y-138805918D01*
X209088677Y-138690212D01*
X209084406Y-138566583D01*
X209084228Y-138534438D01*
X209084250Y-138533461D01*
X209504326Y-138533461D01*
X209506055Y-138640522D01*
X209512696Y-138755835D01*
X209524316Y-138856792D01*
X209544168Y-138956428D01*
X209575157Y-139046371D01*
X209627840Y-139130606D01*
X209712471Y-139190506D01*
X209800837Y-139206106D01*
X209897982Y-139187231D01*
X209981181Y-139123586D01*
X210027983Y-139046371D01*
X210062222Y-138943391D01*
X210081106Y-138840963D01*
X210091896Y-138737613D01*
X210097706Y-138619907D01*
X210098813Y-138533461D01*
X210097084Y-138426681D01*
X210090444Y-138311642D01*
X210078823Y-138210892D01*
X210058971Y-138111409D01*
X210027983Y-138021528D01*
X209975156Y-137937293D01*
X209889976Y-137877392D01*
X209800837Y-137861793D01*
X209697431Y-137884256D01*
X209616556Y-137951644D01*
X209575157Y-138021528D01*
X209540917Y-138124430D01*
X209522034Y-138226692D01*
X209511243Y-138329823D01*
X209505433Y-138447243D01*
X209504326Y-138533461D01*
X209084250Y-138533461D01*
X209087075Y-138409561D01*
X209095616Y-138292363D01*
X209109851Y-138182843D01*
X209129780Y-138081001D01*
X209162698Y-137964497D01*
X209204512Y-137859990D01*
X209255224Y-137767480D01*
X209266434Y-137750418D01*
X209329507Y-137671411D01*
X209408476Y-137601584D01*
X209497487Y-137549651D01*
X209595042Y-137513774D01*
X209699638Y-137492790D01*
X209800837Y-137486636D01*
X209907335Y-137493112D01*
G37*
G36*
X211525089Y-137521274D02*
G01*
X211631884Y-137531399D01*
X211745743Y-137552459D01*
X211844008Y-137583240D01*
X211938944Y-137631435D01*
X211973133Y-137656140D01*
X212044424Y-137730830D01*
X212093337Y-137817971D01*
X212101605Y-137838834D01*
X212129120Y-137936638D01*
X212142069Y-138037079D01*
X212144103Y-138100174D01*
X212138521Y-138200144D01*
X212118702Y-138296057D01*
X212079474Y-138385805D01*
X212041521Y-138439672D01*
X211967089Y-138508423D01*
X211920376Y-138536880D01*
X211824664Y-138572700D01*
X211746475Y-138587683D01*
X211835305Y-138629381D01*
X211851500Y-138643859D01*
X211898394Y-138706385D01*
X211946890Y-138792213D01*
X211959455Y-138816782D01*
X212328750Y-139550000D01*
X211885694Y-139550000D01*
X211639497Y-139030739D01*
X211611165Y-138970167D01*
X211563928Y-138883880D01*
X211504684Y-138805569D01*
X211493440Y-138794312D01*
X211407427Y-138743913D01*
X211356664Y-138737159D01*
X211228192Y-138737159D01*
X211228192Y-139550000D01*
X210824703Y-139550000D01*
X210824703Y-138412805D01*
X211228192Y-138412805D01*
X211418213Y-138412805D01*
X211521036Y-138404839D01*
X211614126Y-138374886D01*
X211656106Y-138345394D01*
X211707885Y-138262840D01*
X211726024Y-138162256D01*
X211726936Y-138127041D01*
X211716975Y-138023909D01*
X211676511Y-137930543D01*
X211656106Y-137908199D01*
X211567828Y-137860865D01*
X211467684Y-137843864D01*
X211418213Y-137842254D01*
X211228192Y-137842254D01*
X211228192Y-138412805D01*
X210824703Y-138412805D01*
X210824703Y-137517899D01*
X211407466Y-137517899D01*
X211525089Y-137521274D01*
G37*
G36*
X194836566Y-141221793D02*
G01*
X193984647Y-141221793D01*
X193984647Y-140877899D01*
X195275226Y-140877899D01*
X195275226Y-141154382D01*
X194583531Y-142910000D01*
X194171737Y-142910000D01*
X194836566Y-141221793D01*
G37*
G36*
X195612770Y-143160104D02*
G01*
X197040125Y-143160104D01*
X197040125Y-143441472D01*
X195612770Y-143441472D01*
X195612770Y-143160104D01*
G37*
G36*
X197885205Y-142941263D02*
G01*
X197786801Y-142937265D01*
X197740125Y-142931981D01*
X197643002Y-142914295D01*
X197603349Y-142904626D01*
X197507211Y-142876002D01*
X197408880Y-142838488D01*
X197317585Y-142796671D01*
X197317585Y-142324794D01*
X197392575Y-142393792D01*
X197439218Y-142429330D01*
X197523608Y-142481783D01*
X197569155Y-142504556D01*
X197667913Y-142542063D01*
X197769282Y-142562259D01*
X197838311Y-142566106D01*
X197936579Y-142556870D01*
X198033097Y-142518402D01*
X198069364Y-142487948D01*
X198120121Y-142401702D01*
X198141004Y-142299348D01*
X198143614Y-142238332D01*
X198143614Y-141221793D01*
X197649755Y-141221793D01*
X197649755Y-140877899D01*
X198546615Y-140877899D01*
X198546615Y-142252498D01*
X198542811Y-142363044D01*
X198531398Y-142463262D01*
X198507658Y-142569891D01*
X198472962Y-142661648D01*
X198418636Y-142749902D01*
X198390788Y-142781528D01*
X198311634Y-142844533D01*
X198220386Y-142888805D01*
X198180739Y-142902184D01*
X198078043Y-142925997D01*
X197975335Y-142938171D01*
X197885205Y-142941263D01*
G37*
G36*
X199695045Y-142941263D02*
G01*
X199586266Y-142936695D01*
X199487076Y-142922992D01*
X199380704Y-142894490D01*
X199288140Y-142852833D01*
X199197599Y-142787608D01*
X199164549Y-142754173D01*
X199099644Y-142660543D01*
X199056699Y-142563583D01*
X199025467Y-142451200D01*
X199008387Y-142345768D01*
X198999440Y-142229626D01*
X198997976Y-142154801D01*
X198997976Y-140877899D01*
X199400976Y-140877899D01*
X199400976Y-142244682D01*
X199411967Y-142349210D01*
X199448680Y-142441209D01*
X199479134Y-142481598D01*
X199558689Y-142539367D01*
X199653323Y-142564042D01*
X199695045Y-142566106D01*
X199797369Y-142552158D01*
X199885205Y-142505943D01*
X199910956Y-142481598D01*
X199964384Y-142394416D01*
X199987205Y-142290523D01*
X199989113Y-142244682D01*
X199989113Y-140877899D01*
X200392114Y-140877899D01*
X200392114Y-142154801D01*
X200389534Y-142254994D01*
X200379054Y-142370081D01*
X200360511Y-142473887D01*
X200327619Y-142583561D01*
X200283117Y-142676990D01*
X200227006Y-142754173D01*
X200144950Y-142827072D01*
X200059324Y-142875306D01*
X199959581Y-142910385D01*
X199845722Y-142932310D01*
X199740056Y-142940532D01*
X199695045Y-142941263D01*
G37*
G36*
X200844940Y-140877899D02*
G01*
X201247941Y-140877899D01*
X201247941Y-142566106D01*
X202110607Y-142566106D01*
X202110607Y-142910000D01*
X200844940Y-142910000D01*
X200844940Y-140877899D01*
G37*
G36*
X202862875Y-142121095D02*
G01*
X202232240Y-140877899D01*
X202666992Y-140877899D01*
X203063642Y-141711744D01*
X203461758Y-140877899D01*
X203896510Y-140877899D01*
X203265875Y-142121095D01*
X203265875Y-142910000D01*
X202862875Y-142910000D01*
X202862875Y-142121095D01*
G37*
G36*
X204034263Y-143160104D02*
G01*
X205461618Y-143160104D01*
X205461618Y-143441472D01*
X204034263Y-143441472D01*
X204034263Y-143160104D01*
G37*
G36*
X205747383Y-142618374D02*
G01*
X205781577Y-142534842D01*
X205966224Y-142340425D01*
X206038032Y-142263641D01*
X206109473Y-142187551D01*
X206177250Y-142115785D01*
X206206559Y-142084947D01*
X206276964Y-142010602D01*
X206345778Y-141936448D01*
X206414516Y-141861894D01*
X206439078Y-141835331D01*
X206502236Y-141760251D01*
X206526517Y-141729330D01*
X206580640Y-141644058D01*
X206586601Y-141631632D01*
X206622048Y-141534820D01*
X206632030Y-141448939D01*
X206616042Y-141346237D01*
X206563427Y-141259647D01*
X206548499Y-141245240D01*
X206462600Y-141194484D01*
X206359897Y-141172803D01*
X206314515Y-141170990D01*
X206212453Y-141179686D01*
X206112492Y-141203332D01*
X206072714Y-141216420D01*
X205979079Y-141253277D01*
X205935450Y-141273084D01*
X205845996Y-141319376D01*
X205790858Y-141351730D01*
X205790858Y-140960453D01*
X205885383Y-140926945D01*
X205946685Y-140908185D01*
X206044587Y-140882335D01*
X206078087Y-140874968D01*
X206182501Y-140857703D01*
X206284717Y-140848407D01*
X206351639Y-140846636D01*
X206451702Y-140850907D01*
X206555463Y-140865310D01*
X206629588Y-140882784D01*
X206722141Y-140915734D01*
X206812174Y-140964608D01*
X206856245Y-140996601D01*
X206929632Y-141070332D01*
X206985846Y-141157801D01*
X206992044Y-141170502D01*
X207025437Y-141267407D01*
X207039700Y-141370953D01*
X207040893Y-141414256D01*
X207031877Y-141518269D01*
X207007193Y-141613799D01*
X206999860Y-141634075D01*
X206956606Y-141723926D01*
X206903048Y-141811029D01*
X206861618Y-141867571D01*
X206793853Y-141946448D01*
X206721912Y-142023398D01*
X206650164Y-142097313D01*
X206578152Y-142170325D01*
X206504085Y-142244697D01*
X206463503Y-142285226D01*
X206389469Y-142358199D01*
X206313580Y-142427107D01*
X206306210Y-142433237D01*
X206227526Y-142494930D01*
X206213398Y-142505045D01*
X206142568Y-142566106D01*
X207043335Y-142566106D01*
X207043335Y-142910000D01*
X205747383Y-142910000D01*
X205747383Y-142618374D01*
G37*
G36*
X208150732Y-141545659D02*
G01*
X208171417Y-141641576D01*
X208174180Y-141663384D01*
X208181979Y-141761367D01*
X208183949Y-141791367D01*
X208188791Y-141890613D01*
X208188834Y-141897857D01*
X208186880Y-141989204D01*
X208180377Y-142090321D01*
X208176622Y-142124026D01*
X208160136Y-142224043D01*
X208118004Y-142288157D01*
X208082344Y-142237843D01*
X208063965Y-142140818D01*
X208061828Y-142125491D01*
X208053096Y-142027334D01*
X208051081Y-142000928D01*
X208045839Y-141902447D01*
X208045708Y-141889553D01*
X208048150Y-141793810D01*
X208055569Y-141692602D01*
X208059385Y-141660453D01*
X208076147Y-141562222D01*
X208115073Y-141499253D01*
X208150732Y-141545659D01*
G37*
G36*
X208218304Y-140853004D02*
G01*
X208329404Y-140877459D01*
X208428483Y-140920255D01*
X208515540Y-140981392D01*
X208590576Y-141060870D01*
X208623586Y-141107487D01*
X208672137Y-141195608D01*
X208712458Y-141296632D01*
X208744551Y-141410561D01*
X208764300Y-141510994D01*
X208778783Y-141619686D01*
X208788000Y-141736636D01*
X208791949Y-141861845D01*
X208792114Y-141894438D01*
X208789481Y-142021202D01*
X208781581Y-142139787D01*
X208768415Y-142250195D01*
X208749982Y-142352424D01*
X208712458Y-142490433D01*
X208663085Y-142610041D01*
X208601862Y-142711247D01*
X208528790Y-142794053D01*
X208443868Y-142858457D01*
X208347096Y-142904460D01*
X208238475Y-142932062D01*
X208118004Y-142941263D01*
X208016237Y-142934858D01*
X207905137Y-142910266D01*
X207806059Y-142867230D01*
X207719002Y-142805749D01*
X207643966Y-142725825D01*
X207610956Y-142678946D01*
X207562405Y-142591014D01*
X207522084Y-142490249D01*
X207489991Y-142376652D01*
X207470242Y-142276536D01*
X207455759Y-142168206D01*
X207446542Y-142051664D01*
X207442593Y-141926910D01*
X207442428Y-141894438D01*
X207848848Y-141894438D01*
X207850410Y-142006785D01*
X207855097Y-142109352D01*
X207864846Y-142219525D01*
X207881906Y-142330261D01*
X207908903Y-142433347D01*
X207912840Y-142444473D01*
X207960438Y-142535405D01*
X208036825Y-142600069D01*
X208116538Y-142616908D01*
X208211335Y-142592659D01*
X208284699Y-142519913D01*
X208321702Y-142444473D01*
X208349699Y-142344516D01*
X208367634Y-142236518D01*
X208378132Y-142128692D01*
X208383444Y-142028081D01*
X208385631Y-141917689D01*
X208385694Y-141894438D01*
X208384132Y-141781809D01*
X208379445Y-141679008D01*
X208369696Y-141568618D01*
X208352636Y-141457714D01*
X208325639Y-141354552D01*
X208321702Y-141343426D01*
X208273960Y-141252493D01*
X208197024Y-141187830D01*
X208116538Y-141170990D01*
X208015758Y-141199449D01*
X207944626Y-141276237D01*
X207912840Y-141343426D01*
X207884843Y-141443443D01*
X207866908Y-141551595D01*
X207856410Y-141659627D01*
X207851098Y-141760463D01*
X207848911Y-141871126D01*
X207848848Y-141894438D01*
X207442428Y-141894438D01*
X207445061Y-141767164D01*
X207452961Y-141648149D01*
X207466127Y-141537393D01*
X207484560Y-141434895D01*
X207515007Y-141318386D01*
X207553682Y-141214780D01*
X207600587Y-141124079D01*
X207610956Y-141107487D01*
X207679929Y-141018839D01*
X207760821Y-140948531D01*
X207853632Y-140896565D01*
X207958360Y-140862939D01*
X208075007Y-140847655D01*
X208116538Y-140846636D01*
X208218304Y-140853004D01*
G37*
G36*
X209115980Y-142618374D02*
G01*
X209150174Y-142534842D01*
X209334822Y-142340425D01*
X209406629Y-142263641D01*
X209478070Y-142187551D01*
X209545847Y-142115785D01*
X209575157Y-142084947D01*
X209645561Y-142010602D01*
X209714375Y-141936448D01*
X209783114Y-141861894D01*
X209807676Y-141835331D01*
X209870833Y-141760251D01*
X209895115Y-141729330D01*
X209949237Y-141644058D01*
X209955198Y-141631632D01*
X209990646Y-141534820D01*
X210000628Y-141448939D01*
X209984639Y-141346237D01*
X209932024Y-141259647D01*
X209917096Y-141245240D01*
X209831197Y-141194484D01*
X209728495Y-141172803D01*
X209683112Y-141170990D01*
X209581051Y-141179686D01*
X209481089Y-141203332D01*
X209441311Y-141216420D01*
X209347677Y-141253277D01*
X209304047Y-141273084D01*
X209214593Y-141319376D01*
X209159455Y-141351730D01*
X209159455Y-140960453D01*
X209253981Y-140926945D01*
X209315282Y-140908185D01*
X209413184Y-140882335D01*
X209446685Y-140874968D01*
X209551099Y-140857703D01*
X209653314Y-140848407D01*
X209720237Y-140846636D01*
X209820300Y-140850907D01*
X209924061Y-140865310D01*
X209998185Y-140882784D01*
X210090738Y-140915734D01*
X210180771Y-140964608D01*
X210224842Y-140996601D01*
X210298230Y-141070332D01*
X210354444Y-141157801D01*
X210360642Y-141170502D01*
X210394034Y-141267407D01*
X210408297Y-141370953D01*
X210409490Y-141414256D01*
X210400474Y-141518269D01*
X210375790Y-141613799D01*
X210368457Y-141634075D01*
X210325203Y-141723926D01*
X210271646Y-141811029D01*
X210230216Y-141867571D01*
X210162450Y-141946448D01*
X210090509Y-142023398D01*
X210018761Y-142097313D01*
X209946749Y-142170325D01*
X209872682Y-142244697D01*
X209832100Y-142285226D01*
X209758067Y-142358199D01*
X209682177Y-142427107D01*
X209674808Y-142433237D01*
X209596123Y-142494930D01*
X209581995Y-142505045D01*
X209511165Y-142566106D01*
X210411933Y-142566106D01*
X210411933Y-142910000D01*
X209115980Y-142910000D01*
X209115980Y-142618374D01*
G37*
G36*
X211978506Y-142128422D02*
G01*
X212202721Y-142128422D01*
X212202721Y-142472316D01*
X211978506Y-142472316D01*
X211978506Y-142910000D01*
X211591625Y-142910000D01*
X211591625Y-142472316D01*
X210782205Y-142472316D01*
X210782205Y-142128422D01*
X211076273Y-142128422D01*
X211591625Y-142128422D01*
X211591625Y-141337076D01*
X211076273Y-142128422D01*
X210782205Y-142128422D01*
X210782205Y-142083970D01*
X211556454Y-140877899D01*
X211978506Y-140877899D01*
X211978506Y-142128422D01*
G37*
D13*
X124280826Y-74194000D02*
X126423684Y-74908285D01*
X126423684Y-74908285D02*
X129995112Y-74908285D01*
X129995112Y-74908285D02*
X131423684Y-74194000D01*
X131423684Y-74194000D02*
X132137969Y-73479714D01*
X132137969Y-73479714D02*
X132852255Y-72051142D01*
X132852255Y-72051142D02*
X132852255Y-70622571D01*
X132852255Y-70622571D02*
X132137969Y-69194000D01*
X132137969Y-69194000D02*
X131423684Y-68479714D01*
X131423684Y-68479714D02*
X129995112Y-67765428D01*
X129995112Y-67765428D02*
X127137969Y-67051142D01*
X127137969Y-67051142D02*
X125709398Y-66336857D01*
X125709398Y-66336857D02*
X124995112Y-65622571D01*
X124995112Y-65622571D02*
X124280826Y-64194000D01*
X124280826Y-64194000D02*
X124280826Y-62765428D01*
X124280826Y-62765428D02*
X124995112Y-61336857D01*
X124995112Y-61336857D02*
X125709398Y-60622571D01*
X125709398Y-60622571D02*
X127137969Y-59908285D01*
X127137969Y-59908285D02*
X130709398Y-59908285D01*
X130709398Y-59908285D02*
X132852255Y-60622571D01*
X139280826Y-59908285D02*
X139280826Y-72051142D01*
X139280826Y-72051142D02*
X139995112Y-73479714D01*
X139995112Y-73479714D02*
X140709398Y-74194000D01*
X140709398Y-74194000D02*
X142137969Y-74908285D01*
X142137969Y-74908285D02*
X144995112Y-74908285D01*
X144995112Y-74908285D02*
X146423683Y-74194000D01*
X146423683Y-74194000D02*
X147137969Y-73479714D01*
X147137969Y-73479714D02*
X147852255Y-72051142D01*
X147852255Y-72051142D02*
X147852255Y-59908285D01*
X154995112Y-74908285D02*
X154995112Y-59908285D01*
X154995112Y-59908285D02*
X158566541Y-59908285D01*
X158566541Y-59908285D02*
X160709398Y-60622571D01*
X160709398Y-60622571D02*
X162137969Y-62051142D01*
X162137969Y-62051142D02*
X162852255Y-63479714D01*
X162852255Y-63479714D02*
X163566541Y-66336857D01*
X163566541Y-66336857D02*
X163566541Y-68479714D01*
X163566541Y-68479714D02*
X162852255Y-71336857D01*
X162852255Y-71336857D02*
X162137969Y-72765428D01*
X162137969Y-72765428D02*
X160709398Y-74194000D01*
X160709398Y-74194000D02*
X158566541Y-74908285D01*
X158566541Y-74908285D02*
X154995112Y-74908285D01*
X169995112Y-74908285D02*
X169995112Y-59908285D01*
X186423683Y-59908285D02*
X191423683Y-74908285D01*
X191423683Y-74908285D02*
X196423683Y-59908285D01*
X200709397Y-61336857D02*
X201423683Y-60622571D01*
X201423683Y-60622571D02*
X202852255Y-59908285D01*
X202852255Y-59908285D02*
X206423683Y-59908285D01*
X206423683Y-59908285D02*
X207852255Y-60622571D01*
X207852255Y-60622571D02*
X208566540Y-61336857D01*
X208566540Y-61336857D02*
X209280826Y-62765428D01*
X209280826Y-62765428D02*
X209280826Y-64194000D01*
X209280826Y-64194000D02*
X208566540Y-66336857D01*
X208566540Y-66336857D02*
X199995112Y-74908285D01*
X199995112Y-74908285D02*
X209280826Y-74908285D01*
D11*
G36*
X135668144Y-88050000D02*
G01*
X133650698Y-88050000D01*
X133020551Y-85548953D01*
X130321668Y-85548953D01*
X129706176Y-88050000D01*
X127688730Y-88050000D01*
X128806648Y-83927180D01*
X130724669Y-83927180D01*
X132632205Y-83927180D01*
X131674773Y-79762840D01*
X130724669Y-83927180D01*
X128806648Y-83927180D01*
X130443789Y-77889497D01*
X132913084Y-77889497D01*
X135668144Y-88050000D01*
G37*
G36*
X136820970Y-77889497D02*
G01*
X138838416Y-77889497D01*
X138838416Y-81797383D01*
X141361445Y-81797383D01*
X141361445Y-77889497D01*
X143378890Y-77889497D01*
X143378890Y-88050000D01*
X141361445Y-88050000D01*
X141361445Y-83516852D01*
X138838416Y-83516852D01*
X138838416Y-88050000D01*
X136820970Y-88050000D01*
X136820970Y-77889497D01*
G37*
G36*
X152511130Y-88050000D02*
G01*
X150493685Y-88050000D01*
X149863538Y-85548953D01*
X147164655Y-85548953D01*
X146549163Y-88050000D01*
X144531717Y-88050000D01*
X145649635Y-83927180D01*
X147567655Y-83927180D01*
X149475192Y-83927180D01*
X148517760Y-79762840D01*
X147567655Y-83927180D01*
X145649635Y-83927180D01*
X147286776Y-77889497D01*
X149756071Y-77889497D01*
X152511130Y-88050000D01*
G37*
G36*
X153663957Y-77889497D02*
G01*
X155681403Y-77889497D01*
X155681403Y-81797383D01*
X158204431Y-81797383D01*
X158204431Y-77889497D01*
X160221877Y-77889497D01*
X160221877Y-88050000D01*
X158204431Y-88050000D01*
X158204431Y-83516852D01*
X155681403Y-83516852D01*
X155681403Y-88050000D01*
X153663957Y-88050000D01*
X153663957Y-77889497D01*
G37*
G36*
X113827948Y-96408967D02*
G01*
X111236531Y-96408967D01*
X111236531Y-94689497D01*
X118434368Y-94689497D01*
X118434368Y-96408967D01*
X115842952Y-96408967D01*
X115842952Y-104850000D01*
X113827948Y-104850000D01*
X113827948Y-96408967D01*
G37*
G36*
X120190474Y-94689497D02*
G01*
X126548116Y-94689497D01*
X126548116Y-96408967D01*
X122207920Y-96408967D01*
X122207920Y-98597383D01*
X126137788Y-98597383D01*
X126137788Y-100316852D01*
X122207920Y-100316852D01*
X122207920Y-103130530D01*
X126548116Y-103130530D01*
X126548116Y-104850000D01*
X120190474Y-104850000D01*
X120190474Y-94689497D01*
G37*
G36*
X131874542Y-94706372D02*
G01*
X132408513Y-94756998D01*
X132977809Y-94862299D01*
X133469137Y-95016200D01*
X133943813Y-95257178D01*
X134114759Y-95380704D01*
X134471213Y-95754153D01*
X134715780Y-96189859D01*
X134757118Y-96294173D01*
X134894697Y-96783190D01*
X134959441Y-97285395D01*
X134969609Y-97600872D01*
X134941702Y-98100723D01*
X134842603Y-98580286D01*
X134646464Y-99029029D01*
X134456699Y-99298360D01*
X134084539Y-99642119D01*
X133850977Y-99784403D01*
X133372413Y-99963502D01*
X132981472Y-100038415D01*
X133425622Y-100246909D01*
X133506594Y-100319295D01*
X133741067Y-100631926D01*
X133983545Y-101061068D01*
X134046371Y-101183914D01*
X135892847Y-104850000D01*
X133677564Y-104850000D01*
X132446580Y-102253698D01*
X132304919Y-101950837D01*
X132068736Y-101519400D01*
X131772515Y-101127848D01*
X131716294Y-101071563D01*
X131286231Y-100819566D01*
X131032414Y-100785799D01*
X130390056Y-100785799D01*
X130390056Y-104850000D01*
X128372610Y-104850000D01*
X128372610Y-99164026D01*
X130390056Y-99164026D01*
X131340160Y-99164026D01*
X131854275Y-99124198D01*
X132319727Y-98974433D01*
X132529623Y-98826971D01*
X132788520Y-98414200D01*
X132879217Y-97911284D01*
X132883775Y-97735205D01*
X132833972Y-97219548D01*
X132631649Y-96752719D01*
X132529623Y-96640997D01*
X132088233Y-96404328D01*
X131587516Y-96319320D01*
X131340160Y-96311270D01*
X130390056Y-96311270D01*
X130390056Y-99164026D01*
X128372610Y-99164026D01*
X128372610Y-94689497D01*
X131286427Y-94689497D01*
X131874542Y-94706372D01*
G37*
G36*
X140296035Y-94706372D02*
G01*
X140830006Y-94756998D01*
X141399302Y-94862299D01*
X141890631Y-95016200D01*
X142365306Y-95257178D01*
X142536252Y-95380704D01*
X142892706Y-95754153D01*
X143137273Y-96189859D01*
X143178611Y-96294173D01*
X143316191Y-96783190D01*
X143380934Y-97285395D01*
X143391102Y-97600872D01*
X143363196Y-98100723D01*
X143264096Y-98580286D01*
X143067958Y-99029029D01*
X142878192Y-99298360D01*
X142506032Y-99642119D01*
X142272470Y-99784403D01*
X141793907Y-99963502D01*
X141402966Y-100038415D01*
X141847115Y-100246909D01*
X141928088Y-100319295D01*
X142162561Y-100631926D01*
X142405039Y-101061068D01*
X142467864Y-101183914D01*
X144314340Y-104850000D01*
X142099058Y-104850000D01*
X140868074Y-102253698D01*
X140726413Y-101950837D01*
X140490230Y-101519400D01*
X140194009Y-101127848D01*
X140137788Y-101071563D01*
X139707725Y-100819566D01*
X139453908Y-100785799D01*
X138811549Y-100785799D01*
X138811549Y-104850000D01*
X136794103Y-104850000D01*
X136794103Y-99164026D01*
X138811549Y-99164026D01*
X139761654Y-99164026D01*
X140275768Y-99124198D01*
X140741220Y-98974433D01*
X140951116Y-98826971D01*
X141210014Y-98414200D01*
X141300710Y-97911284D01*
X141305268Y-97735205D01*
X141255466Y-97219548D01*
X141053143Y-96752719D01*
X140951116Y-96640997D01*
X140509726Y-96404328D01*
X140009009Y-96319320D01*
X139761654Y-96311270D01*
X138811549Y-96311270D01*
X138811549Y-99164026D01*
X136794103Y-99164026D01*
X136794103Y-94689497D01*
X139707920Y-94689497D01*
X140296035Y-94706372D01*
G37*
G36*
X149050252Y-94565561D02*
G01*
X149541004Y-94662697D01*
X150074808Y-94864741D01*
X150548505Y-95160037D01*
X150962096Y-95548583D01*
X151204431Y-95859420D01*
X151464070Y-96303995D01*
X151679703Y-96810345D01*
X151851329Y-97378472D01*
X151956945Y-97877453D01*
X152034396Y-98415970D01*
X152083684Y-98994024D01*
X152104807Y-99611615D01*
X152105687Y-99772191D01*
X152091605Y-100396918D01*
X152049359Y-100982719D01*
X151978948Y-101529594D01*
X151880373Y-102037543D01*
X151717548Y-102617739D01*
X151510717Y-103137113D01*
X151259879Y-103595665D01*
X151204431Y-103680076D01*
X150876731Y-104086199D01*
X150494772Y-104421325D01*
X150100453Y-104664375D01*
X149612602Y-104859054D01*
X149118010Y-104965910D01*
X148574761Y-105005981D01*
X148517760Y-105006315D01*
X148019304Y-104979267D01*
X147514408Y-104885768D01*
X147018528Y-104705782D01*
X146935066Y-104664375D01*
X146508819Y-104394658D01*
X146136831Y-104055676D01*
X145845743Y-103687404D01*
X145583289Y-103242769D01*
X145365319Y-102736240D01*
X145191833Y-102167815D01*
X145085072Y-101668510D01*
X145006781Y-101129592D01*
X144956959Y-100551061D01*
X144935607Y-99932916D01*
X144934717Y-99772191D01*
X144934828Y-99767306D01*
X147035206Y-99767306D01*
X147043852Y-100302613D01*
X147077054Y-100879178D01*
X147135157Y-101383960D01*
X147234416Y-101882144D01*
X147389358Y-102331856D01*
X147652777Y-102753032D01*
X148075928Y-103052534D01*
X148517760Y-103130530D01*
X149003486Y-103036155D01*
X149419481Y-102717934D01*
X149653489Y-102331856D01*
X149824685Y-101816957D01*
X149919103Y-101304815D01*
X149973056Y-100788069D01*
X150002107Y-100199539D01*
X150007641Y-99767306D01*
X149998995Y-99233406D01*
X149965793Y-98658214D01*
X149907690Y-98154463D01*
X149808430Y-97657048D01*
X149653489Y-97207641D01*
X149389354Y-96786465D01*
X148963455Y-96486962D01*
X148517760Y-96408967D01*
X148000728Y-96521280D01*
X147596354Y-96858221D01*
X147389358Y-97207641D01*
X147218161Y-97722154D01*
X147123744Y-98233461D01*
X147069791Y-98749118D01*
X147040739Y-99336217D01*
X147035206Y-99767306D01*
X144934828Y-99767306D01*
X144948952Y-99147807D01*
X144991656Y-98561815D01*
X145062830Y-98014215D01*
X145162474Y-97505006D01*
X145327063Y-96922485D01*
X145536136Y-96399951D01*
X145789693Y-95937404D01*
X145845743Y-95852093D01*
X146161112Y-95457059D01*
X146555953Y-95107923D01*
X147001012Y-94848255D01*
X147488784Y-94668872D01*
X148011767Y-94563951D01*
X148517760Y-94533182D01*
X149050252Y-94565561D01*
G37*
G36*
X157139022Y-94706372D02*
G01*
X157672993Y-94756998D01*
X158242289Y-94862299D01*
X158733617Y-95016200D01*
X159208293Y-95257178D01*
X159379239Y-95380704D01*
X159735693Y-95754153D01*
X159980260Y-96189859D01*
X160021598Y-96294173D01*
X160159178Y-96783190D01*
X160223921Y-97285395D01*
X160234089Y-97600872D01*
X160206182Y-98100723D01*
X160107083Y-98580286D01*
X159910944Y-99029029D01*
X159721179Y-99298360D01*
X159349019Y-99642119D01*
X159115457Y-99784403D01*
X158636893Y-99963502D01*
X158245952Y-100038415D01*
X158690102Y-100246909D01*
X158771074Y-100319295D01*
X159005548Y-100631926D01*
X159248025Y-101061068D01*
X159310851Y-101183914D01*
X161157327Y-104850000D01*
X158942044Y-104850000D01*
X157711060Y-102253698D01*
X157569400Y-101950837D01*
X157333216Y-101519400D01*
X157036995Y-101127848D01*
X156980774Y-101071563D01*
X156550711Y-100819566D01*
X156296894Y-100785799D01*
X155654536Y-100785799D01*
X155654536Y-104850000D01*
X153637090Y-104850000D01*
X153637090Y-99164026D01*
X155654536Y-99164026D01*
X156604640Y-99164026D01*
X157118755Y-99124198D01*
X157584207Y-98974433D01*
X157794103Y-98826971D01*
X158053000Y-98414200D01*
X158143697Y-97911284D01*
X158148255Y-97735205D01*
X158098452Y-97219548D01*
X157896129Y-96752719D01*
X157794103Y-96640997D01*
X157352713Y-96404328D01*
X156851996Y-96319320D01*
X156604640Y-96311270D01*
X155654536Y-96311270D01*
X155654536Y-99164026D01*
X153637090Y-99164026D01*
X153637090Y-94689497D01*
X156550907Y-94689497D01*
X157139022Y-94706372D01*
G37*
D14*
%TO.C,SW4*%
X117200000Y-125280000D02*
X117200000Y-126070000D01*
X117800000Y-127080000D02*
X123500000Y-127080000D01*
X119050000Y-124230000D02*
X120750000Y-124230000D01*
X119250000Y-127080000D02*
X119250000Y-128370000D01*
X119250000Y-128370000D02*
X119450000Y-128580000D01*
X119450000Y-128580000D02*
X120350000Y-128580000D01*
X120550000Y-128370000D02*
X120350000Y-128580000D01*
X120550000Y-128370000D02*
X120550000Y-127080000D01*
X122050000Y-124230000D02*
X122250000Y-124230000D01*
X124100000Y-126070000D02*
X124100000Y-125280000D01*
D15*
%TO.C,K16*%
X174090000Y-115110000D02*
X175090000Y-115110000D01*
X174090000Y-115506000D02*
X174090000Y-115110000D01*
X174090000Y-129110000D02*
X174090000Y-128110000D01*
X175090000Y-129110000D02*
X174090000Y-129110000D01*
X176010000Y-115125000D02*
X176010000Y-115506000D01*
X176010000Y-118554000D02*
X176010000Y-118935000D01*
X178804000Y-119570000D02*
X181090000Y-119570000D01*
X183630000Y-121475000D02*
X187440000Y-121475000D01*
X184900000Y-115125000D02*
X176010000Y-115125000D01*
X187059000Y-121475000D02*
X187440000Y-121475000D01*
X187090000Y-115110000D02*
X188090000Y-115110000D01*
X187440000Y-117665000D02*
X187440000Y-118046000D01*
X187440000Y-121475000D02*
X187440000Y-121094000D01*
X188090000Y-115110000D02*
X188090000Y-116110000D01*
X188090000Y-128110000D02*
X188090000Y-129110000D01*
X188090000Y-129110000D02*
X187090000Y-129110000D01*
X181090001Y-119491829D02*
G75*
G02*
X183629999Y-121475001I-1J-2618171D01*
G01*
X184900000Y-115125000D02*
G75*
G02*
X187440000Y-117665000I0J-2540000D01*
G01*
D14*
%TO.C,FB1*%
X214110003Y-76078733D02*
X214110000Y-76421265D01*
X215130004Y-76078731D02*
X215130001Y-76421263D01*
%TO.C,R10*%
X228927064Y-105965000D02*
X228472936Y-105965000D01*
X228927064Y-107435000D02*
X228472936Y-107435000D01*
%TO.C,TP16*%
X216100001Y-96700001D02*
G75*
G02*
X214700001Y-96700001I-700000J0D01*
G01*
X214700001Y-96700001D02*
G75*
G02*
X216100001Y-96700001I700000J0D01*
G01*
%TO.C,C51*%
X190715000Y-78438751D02*
X190715000Y-78961252D01*
X192185000Y-78438748D02*
X192185000Y-78961249D01*
%TO.C,J1*%
X218633161Y-63546650D02*
X217783161Y-65018894D01*
X226721839Y-68216650D02*
X225871840Y-69688894D01*
%TO.C,D17*%
X130350000Y-106870002D02*
X130349999Y-104029999D01*
X130350000Y-106870002D02*
X131000000Y-106870000D01*
X132650001Y-106870001D02*
X132650000Y-104029998D01*
%TO.C,C3*%
X149411251Y-121665001D02*
X148888748Y-121665000D01*
X149411252Y-123135000D02*
X148888749Y-123134999D01*
D16*
%TO.C,D26*%
X198775000Y-55650000D02*
X198775000Y-53250000D01*
X198800000Y-53250000D02*
X204600000Y-53250000D01*
X198875000Y-53250000D02*
X198875000Y-55650000D01*
X199000000Y-53250000D02*
X199000000Y-55650000D01*
X199175000Y-53250000D02*
X199175000Y-55650000D01*
X199350000Y-53250000D02*
X199350000Y-55650000D01*
X199525000Y-53250000D02*
X199525000Y-55650000D01*
X204600000Y-53250000D02*
X204600000Y-55650000D01*
X204600000Y-55650000D02*
X198800000Y-55650000D01*
D15*
%TO.C,K9*%
X154590000Y-93610000D02*
X155590000Y-93610000D01*
X154590000Y-94006000D02*
X154590000Y-93610000D01*
X154590000Y-107610000D02*
X154590000Y-106610000D01*
X155590000Y-107610000D02*
X154590000Y-107610000D01*
X156510000Y-93625000D02*
X156510000Y-94006000D01*
X156510000Y-97054000D02*
X156510000Y-97435000D01*
X159304000Y-98070000D02*
X161590000Y-98070000D01*
X164130000Y-99975000D02*
X167940000Y-99975000D01*
X165400000Y-93625000D02*
X156510000Y-93625000D01*
X167559000Y-99975000D02*
X167940000Y-99975000D01*
X167590000Y-93610000D02*
X168590000Y-93610000D01*
X167940000Y-96165000D02*
X167940000Y-96546000D01*
X167940000Y-99975000D02*
X167940000Y-99594000D01*
X168590000Y-93610000D02*
X168590000Y-94610000D01*
X168590000Y-106610000D02*
X168590000Y-107610000D01*
X168590000Y-107610000D02*
X167590000Y-107610000D01*
X161590001Y-97991829D02*
G75*
G02*
X164129999Y-99975001I-1J-2618171D01*
G01*
X165400000Y-93625000D02*
G75*
G02*
X167940000Y-96165000I0J-2540000D01*
G01*
D14*
%TO.C,D18*%
X169850000Y-95220002D02*
X169849999Y-92379999D01*
X169850000Y-95220002D02*
X170500000Y-95220000D01*
X172150001Y-95220001D02*
X172150000Y-92379998D01*
%TO.C,C57*%
X218311250Y-89615001D02*
X217788748Y-89615000D01*
X218311252Y-91085000D02*
X217788750Y-91084999D01*
D15*
%TO.C,K8*%
X154590000Y-74110000D02*
X155590000Y-74110000D01*
X154590000Y-74506000D02*
X154590000Y-74110000D01*
X154590000Y-88110000D02*
X154590000Y-87110000D01*
X155590000Y-88110000D02*
X154590000Y-88110000D01*
X156510000Y-74125000D02*
X156510000Y-74506000D01*
X156510000Y-77554000D02*
X156510000Y-77935000D01*
X159304000Y-78570000D02*
X161590000Y-78570000D01*
X164130000Y-80475000D02*
X167940000Y-80475000D01*
X165400000Y-74125000D02*
X156510000Y-74125000D01*
X167559000Y-80475000D02*
X167940000Y-80475000D01*
X167590000Y-74110000D02*
X168590000Y-74110000D01*
X167940000Y-76665000D02*
X167940000Y-77046000D01*
X167940000Y-80475000D02*
X167940000Y-80094000D01*
X168590000Y-74110000D02*
X168590000Y-75110000D01*
X168590000Y-87110000D02*
X168590000Y-88110000D01*
X168590000Y-88110000D02*
X167590000Y-88110000D01*
X161590001Y-78491829D02*
G75*
G02*
X164129999Y-80475001I-1J-2618171D01*
G01*
X165400000Y-74125000D02*
G75*
G02*
X167940000Y-76665000I0J-2540000D01*
G01*
D14*
%TO.C,TP5*%
X216350000Y-108650000D02*
G75*
G02*
X214950000Y-108650000I-700000J0D01*
G01*
X214950000Y-108650000D02*
G75*
G02*
X216350000Y-108650000I700000J0D01*
G01*
%TO.C,C42*%
X128115000Y-84888751D02*
X128115000Y-85411252D01*
X129585000Y-84888748D02*
X129585000Y-85411249D01*
%TO.C,C41*%
X132115000Y-70638751D02*
X132115000Y-71161252D01*
X133585000Y-70638748D02*
X133585000Y-71161249D01*
D15*
%TO.C,K18*%
X213090000Y-123610000D02*
X214090000Y-123610000D01*
X213090000Y-124006000D02*
X213090000Y-123610000D01*
X213090000Y-137610000D02*
X213090000Y-136610000D01*
X214090000Y-137610000D02*
X213090000Y-137610000D01*
X215010000Y-123625000D02*
X215010000Y-124006000D01*
X215010000Y-127054000D02*
X215010000Y-127435000D01*
X217804000Y-128070000D02*
X220090000Y-128070000D01*
X222630000Y-129975000D02*
X226440000Y-129975000D01*
X223900000Y-123625000D02*
X215010000Y-123625000D01*
X226059000Y-129975000D02*
X226440000Y-129975000D01*
X226090000Y-123610000D02*
X227090000Y-123610000D01*
X226440000Y-126165000D02*
X226440000Y-126546000D01*
X226440000Y-129975000D02*
X226440000Y-129594000D01*
X227090000Y-123610000D02*
X227090000Y-124610000D01*
X227090000Y-136610000D02*
X227090000Y-137610000D01*
X227090000Y-137610000D02*
X226090000Y-137610000D01*
X220090001Y-127991829D02*
G75*
G02*
X222629999Y-129975001I-1J-2618171D01*
G01*
X223900000Y-123625000D02*
G75*
G02*
X226440000Y-126165000I0J-2540000D01*
G01*
%TO.C,K12*%
X174090000Y-95610000D02*
X175090000Y-95610000D01*
X174090000Y-96006000D02*
X174090000Y-95610000D01*
X174090000Y-109610000D02*
X174090000Y-108610000D01*
X175090000Y-109610000D02*
X174090000Y-109610000D01*
X176010000Y-95625000D02*
X176010000Y-96006000D01*
X176010000Y-99054000D02*
X176010000Y-99435000D01*
X178804000Y-100070000D02*
X181090000Y-100070000D01*
X183630000Y-101975000D02*
X187440000Y-101975000D01*
X184900000Y-95625000D02*
X176010000Y-95625000D01*
X187059000Y-101975000D02*
X187440000Y-101975000D01*
X187090000Y-95610000D02*
X188090000Y-95610000D01*
X187440000Y-98165000D02*
X187440000Y-98546000D01*
X187440000Y-101975000D02*
X187440000Y-101594000D01*
X188090000Y-95610000D02*
X188090000Y-96610000D01*
X188090000Y-108610000D02*
X188090000Y-109610000D01*
X188090000Y-109610000D02*
X187090000Y-109610000D01*
X181090001Y-99991829D02*
G75*
G02*
X183629999Y-101975001I-1J-2618171D01*
G01*
X184900000Y-95625000D02*
G75*
G02*
X187440000Y-98165000I0J-2540000D01*
G01*
%TO.C,K14*%
X193840000Y-76110000D02*
X194840000Y-76110000D01*
X193840000Y-76506000D02*
X193840000Y-76110000D01*
X193840000Y-90110000D02*
X193840000Y-89110000D01*
X194840000Y-90110000D02*
X193840000Y-90110000D01*
X195760000Y-76125000D02*
X195760000Y-76506000D01*
X195760000Y-79554000D02*
X195760000Y-79935000D01*
X198554000Y-80570000D02*
X200840000Y-80570000D01*
X203380000Y-82475000D02*
X207190000Y-82475000D01*
X204650000Y-76125000D02*
X195760000Y-76125000D01*
X206809000Y-82475000D02*
X207190000Y-82475000D01*
X206840000Y-76110000D02*
X207840000Y-76110000D01*
X207190000Y-78665000D02*
X207190000Y-79046000D01*
X207190000Y-82475000D02*
X207190000Y-82094000D01*
X207840000Y-76110000D02*
X207840000Y-77110000D01*
X207840000Y-89110000D02*
X207840000Y-90110000D01*
X207840000Y-90110000D02*
X206840000Y-90110000D01*
X200840001Y-80491829D02*
G75*
G02*
X203379999Y-82475001I-1J-2618171D01*
G01*
X204650000Y-76125000D02*
G75*
G02*
X207190000Y-78665000I0J-2540000D01*
G01*
D16*
%TO.C,D33*%
X178925000Y-113950000D02*
X178925000Y-111550000D01*
X178950000Y-111550000D02*
X184750000Y-111550000D01*
X179025000Y-111550000D02*
X179025000Y-113950000D01*
X179150000Y-111550000D02*
X179150000Y-113950000D01*
X179325000Y-111550000D02*
X179325000Y-113950000D01*
X179500000Y-111550000D02*
X179500000Y-113950000D01*
X179675000Y-111550000D02*
X179675000Y-113950000D01*
X184750000Y-111550000D02*
X184750000Y-113950000D01*
X184750000Y-113950000D02*
X178950000Y-113950000D01*
D14*
%TO.C,C43*%
X132415000Y-109238751D02*
X132415000Y-109761252D01*
X133885000Y-109238748D02*
X133885000Y-109761249D01*
%TO.C,C40*%
X218989997Y-111126250D02*
X218989998Y-111648751D01*
X220459998Y-111126247D02*
X220459999Y-111648748D01*
%TO.C,R4*%
X217035002Y-80522934D02*
X217035002Y-80977062D01*
X218505002Y-80522934D02*
X218505002Y-80977062D01*
%TO.C,D25*%
X188349999Y-132820001D02*
X188349999Y-129979999D01*
X188349999Y-132820001D02*
X189000000Y-132820000D01*
X190650001Y-132820001D02*
X190650001Y-129979999D01*
%TO.C,C1*%
X153711249Y-112664999D02*
X153188748Y-112665000D01*
X153711252Y-114135000D02*
X153188751Y-114135001D01*
%TO.C,C18*%
X229011250Y-93815001D02*
X228488748Y-93815000D01*
X229011252Y-95285000D02*
X228488750Y-95284999D01*
D15*
%TO.C,K7*%
X154590000Y-54610000D02*
X155590000Y-54610000D01*
X154590000Y-55006000D02*
X154590000Y-54610000D01*
X154590000Y-68610000D02*
X154590000Y-67610000D01*
X155590000Y-68610000D02*
X154590000Y-68610000D01*
X156510000Y-54625000D02*
X156510000Y-55006000D01*
X156510000Y-58054000D02*
X156510000Y-58435000D01*
X159304000Y-59070000D02*
X161590000Y-59070000D01*
X164130000Y-60975000D02*
X167940000Y-60975000D01*
X165400000Y-54625000D02*
X156510000Y-54625000D01*
X167559000Y-60975000D02*
X167940000Y-60975000D01*
X167590000Y-54610000D02*
X168590000Y-54610000D01*
X167940000Y-57165000D02*
X167940000Y-57546000D01*
X167940000Y-60975000D02*
X167940000Y-60594000D01*
X168590000Y-54610000D02*
X168590000Y-55610000D01*
X168590000Y-67610000D02*
X168590000Y-68610000D01*
X168590000Y-68610000D02*
X167590000Y-68610000D01*
X161590001Y-58991829D02*
G75*
G02*
X164129999Y-60975001I-1J-2618171D01*
G01*
X165400000Y-54625000D02*
G75*
G02*
X167940000Y-57165000I0J-2540000D01*
G01*
D16*
%TO.C,D2*%
X119565000Y-86310000D02*
X119565000Y-83910000D01*
X119590000Y-83910000D02*
X125390000Y-83910000D01*
X119665000Y-83910000D02*
X119665000Y-86310000D01*
X119790000Y-83910000D02*
X119790000Y-86310000D01*
X119965000Y-83910000D02*
X119965000Y-86310000D01*
X120140000Y-83910000D02*
X120140000Y-86310000D01*
X120315000Y-83910000D02*
X120315000Y-86310000D01*
X125390000Y-83910000D02*
X125390000Y-86310000D01*
X125390000Y-86310000D02*
X119590000Y-86310000D01*
D14*
%TO.C,C19*%
X228438749Y-108314998D02*
X228961253Y-108314998D01*
X228438749Y-109784998D02*
X228961253Y-109784998D01*
%TO.C,TP17*%
X214600000Y-94950002D02*
G75*
G02*
X213200000Y-94950002I-700000J0D01*
G01*
X213200000Y-94950002D02*
G75*
G02*
X214600000Y-94950002I700000J0D01*
G01*
D15*
%TO.C,K6*%
X135090000Y-100110000D02*
X136090000Y-100110000D01*
X135090000Y-100506000D02*
X135090000Y-100110000D01*
X135090000Y-114110000D02*
X135090000Y-113110000D01*
X136090000Y-114110000D02*
X135090000Y-114110000D01*
X137010000Y-100125000D02*
X137010000Y-100506000D01*
X137010000Y-103554000D02*
X137010000Y-103935000D01*
X139804000Y-104570000D02*
X142090000Y-104570000D01*
X144630000Y-106475000D02*
X148440000Y-106475000D01*
X145900000Y-100125000D02*
X137010000Y-100125000D01*
X148059000Y-106475000D02*
X148440000Y-106475000D01*
X148090000Y-100110000D02*
X149090000Y-100110000D01*
X148440000Y-102665000D02*
X148440000Y-103046000D01*
X148440000Y-106475000D02*
X148440000Y-106094000D01*
X149090000Y-100110000D02*
X149090000Y-101110000D01*
X149090000Y-113110000D02*
X149090000Y-114110000D01*
X149090000Y-114110000D02*
X148090000Y-114110000D01*
X142090001Y-104491829D02*
G75*
G02*
X144629999Y-106475001I-1J-2618171D01*
G01*
X145900000Y-100125000D02*
G75*
G02*
X148440000Y-102665000I0J-2540000D01*
G01*
D14*
%TO.C,R11*%
X178627064Y-134165001D02*
X178172936Y-134165001D01*
X178627064Y-135635001D02*
X178172936Y-135635001D01*
D15*
%TO.C,K5*%
X135090000Y-80610000D02*
X136090000Y-80610000D01*
X135090000Y-81006000D02*
X135090000Y-80610000D01*
X135090000Y-94610000D02*
X135090000Y-93610000D01*
X136090000Y-94610000D02*
X135090000Y-94610000D01*
X137010000Y-80625000D02*
X137010000Y-81006000D01*
X137010000Y-84054000D02*
X137010000Y-84435000D01*
X139804000Y-85070000D02*
X142090000Y-85070000D01*
X144630000Y-86975000D02*
X148440000Y-86975000D01*
X145900000Y-80625000D02*
X137010000Y-80625000D01*
X148059000Y-86975000D02*
X148440000Y-86975000D01*
X148090000Y-80610000D02*
X149090000Y-80610000D01*
X148440000Y-83165000D02*
X148440000Y-83546000D01*
X148440000Y-86975000D02*
X148440000Y-86594000D01*
X149090000Y-80610000D02*
X149090000Y-81610000D01*
X149090000Y-93610000D02*
X149090000Y-94610000D01*
X149090000Y-94610000D02*
X148090000Y-94610000D01*
X142090001Y-84991829D02*
G75*
G02*
X144629999Y-86975001I-1J-2618171D01*
G01*
X145900000Y-80625000D02*
G75*
G02*
X148440000Y-83165000I0J-2540000D01*
G01*
D14*
%TO.C,TP9*%
X228149999Y-102200001D02*
G75*
G02*
X226749999Y-102200001I-700000J0D01*
G01*
X226749999Y-102200001D02*
G75*
G02*
X228149999Y-102200001I700000J0D01*
G01*
D16*
%TO.C,D21*%
X178575000Y-75300000D02*
X178575000Y-72900000D01*
X178600000Y-72900000D02*
X184400000Y-72900000D01*
X178675000Y-72900000D02*
X178675000Y-75300000D01*
X178800000Y-72900000D02*
X178800000Y-75300000D01*
X178975000Y-72900000D02*
X178975000Y-75300000D01*
X179150000Y-72900000D02*
X179150000Y-75300000D01*
X179325000Y-72900000D02*
X179325000Y-75300000D01*
X184400000Y-72900000D02*
X184400000Y-75300000D01*
X184400000Y-75300000D02*
X178600000Y-75300000D01*
D15*
%TO.C,K2*%
X115590000Y-87610000D02*
X116590000Y-87610000D01*
X115590000Y-88006000D02*
X115590000Y-87610000D01*
X115590000Y-101610000D02*
X115590000Y-100610000D01*
X116590000Y-101610000D02*
X115590000Y-101610000D01*
X117510000Y-87625000D02*
X117510000Y-88006000D01*
X117510000Y-91054000D02*
X117510000Y-91435000D01*
X120304000Y-92070000D02*
X122590000Y-92070000D01*
X125130000Y-93975000D02*
X128940000Y-93975000D01*
X126400000Y-87625000D02*
X117510000Y-87625000D01*
X128559000Y-93975000D02*
X128940000Y-93975000D01*
X128590000Y-87610000D02*
X129590000Y-87610000D01*
X128940000Y-90165000D02*
X128940000Y-90546000D01*
X128940000Y-93975000D02*
X128940000Y-93594000D01*
X129590000Y-87610000D02*
X129590000Y-88610000D01*
X129590000Y-100610000D02*
X129590000Y-101610000D01*
X129590000Y-101610000D02*
X128590000Y-101610000D01*
X122590001Y-91991829D02*
G75*
G02*
X125129999Y-93975001I-1J-2618171D01*
G01*
X126400000Y-87625000D02*
G75*
G02*
X128940000Y-90165000I0J-2540000D01*
G01*
%TO.C,K10*%
X174090000Y-56610000D02*
X175090000Y-56610000D01*
X174090000Y-57006000D02*
X174090000Y-56610000D01*
X174090000Y-70610000D02*
X174090000Y-69610000D01*
X175090000Y-70610000D02*
X174090000Y-70610000D01*
X176010000Y-56625000D02*
X176010000Y-57006000D01*
X176010000Y-60054000D02*
X176010000Y-60435000D01*
X178804000Y-61070000D02*
X181090000Y-61070000D01*
X183630000Y-62975000D02*
X187440000Y-62975000D01*
X184900000Y-56625000D02*
X176010000Y-56625000D01*
X187059000Y-62975000D02*
X187440000Y-62975000D01*
X187090000Y-56610000D02*
X188090000Y-56610000D01*
X187440000Y-59165000D02*
X187440000Y-59546000D01*
X187440000Y-62975000D02*
X187440000Y-62594000D01*
X188090000Y-56610000D02*
X188090000Y-57610000D01*
X188090000Y-69610000D02*
X188090000Y-70610000D01*
X188090000Y-70610000D02*
X187090000Y-70610000D01*
X181090001Y-60991829D02*
G75*
G02*
X183629999Y-62975001I-1J-2618171D01*
G01*
X184900000Y-56625000D02*
G75*
G02*
X187440000Y-59165000I0J-2540000D01*
G01*
D14*
%TO.C,R12*%
X178627063Y-131214998D02*
X178172935Y-131214998D01*
X178627063Y-132684998D02*
X178172935Y-132684998D01*
%TO.C,C39*%
X221289998Y-111076251D02*
X221289999Y-111598752D01*
X222759999Y-111076248D02*
X222760000Y-111598749D01*
%TO.C,D8*%
X130199999Y-68220001D02*
X130199999Y-65379999D01*
X130199999Y-68220001D02*
X130850000Y-68220000D01*
X132500001Y-68220001D02*
X132500001Y-65379999D01*
%TO.C,R5*%
X178627064Y-137115000D02*
X178172936Y-137115000D01*
X178627064Y-138585000D02*
X178172936Y-138585000D01*
%TO.C,C2*%
X214165005Y-80488748D02*
X214165004Y-81011250D01*
X215635004Y-80488746D02*
X215635003Y-81011248D01*
%TO.C,D36*%
X150349999Y-101070001D02*
X150349999Y-98229999D01*
X150349999Y-101070001D02*
X151000000Y-101070000D01*
X152650001Y-101070001D02*
X152650001Y-98229999D01*
%TO.C,D29*%
X150199999Y-80770001D02*
X150199999Y-77929999D01*
X150199999Y-80770001D02*
X150850000Y-80770000D01*
X152500001Y-80770001D02*
X152500001Y-77929999D01*
%TO.C,C20*%
X212738748Y-101165000D02*
X213261249Y-101165000D01*
X212738751Y-102635000D02*
X213261252Y-102635000D01*
%TO.C,TP13*%
X218750002Y-92450001D02*
G75*
G02*
X217350002Y-92450001I-700000J0D01*
G01*
X217350002Y-92450001D02*
G75*
G02*
X218750002Y-92450001I700000J0D01*
G01*
%TO.C,C54*%
X210615000Y-78038751D02*
X210615000Y-78561252D01*
X212085000Y-78038748D02*
X212085000Y-78561249D01*
%TO.C,R1*%
X159822936Y-114425000D02*
X160277064Y-114425000D01*
X159822936Y-115895000D02*
X160277064Y-115895000D01*
%TO.C,C44*%
X151865000Y-62988751D02*
X151865000Y-63511252D01*
X153335000Y-62988748D02*
X153335000Y-63511249D01*
%TO.C,TP11*%
X228400000Y-99600000D02*
G75*
G02*
X227000000Y-99600000I-700000J0D01*
G01*
X227000000Y-99600000D02*
G75*
G02*
X228400000Y-99600000I700000J0D01*
G01*
%TO.C,R17*%
X145077064Y-118164999D02*
X144622936Y-118164999D01*
X145077064Y-119634999D02*
X144622936Y-119634999D01*
%TO.C,D31*%
X208649999Y-137270001D02*
X208649999Y-134429999D01*
X208649999Y-137270001D02*
X209300000Y-137270000D01*
X210950001Y-137270001D02*
X210950001Y-134429999D01*
%TO.C,JP1*%
X212549999Y-68150000D02*
X212550001Y-66750001D01*
X213250000Y-66050001D02*
X213850001Y-66050000D01*
X213850000Y-68849999D02*
X213249999Y-68850000D01*
X214550001Y-66750000D02*
X214549999Y-68149999D01*
X212550001Y-66750001D02*
G75*
G02*
X213250000Y-66050001I699999J1D01*
G01*
X213249999Y-68850000D02*
G75*
G02*
X212549999Y-68150000I3J700003D01*
G01*
X213850001Y-66050000D02*
G75*
G02*
X214550000Y-66750000I-1J-700000D01*
G01*
X214549999Y-68149999D02*
G75*
G02*
X213850000Y-68849999I-699997J-3D01*
G01*
D15*
%TO.C,K13*%
X193840000Y-56610000D02*
X194840000Y-56610000D01*
X193840000Y-57006000D02*
X193840000Y-56610000D01*
X193840000Y-70610000D02*
X193840000Y-69610000D01*
X194840000Y-70610000D02*
X193840000Y-70610000D01*
X195760000Y-56625000D02*
X195760000Y-57006000D01*
X195760000Y-60054000D02*
X195760000Y-60435000D01*
X198554000Y-61070000D02*
X200840000Y-61070000D01*
X203380000Y-62975000D02*
X207190000Y-62975000D01*
X204650000Y-56625000D02*
X195760000Y-56625000D01*
X206809000Y-62975000D02*
X207190000Y-62975000D01*
X206840000Y-56610000D02*
X207840000Y-56610000D01*
X207190000Y-59165000D02*
X207190000Y-59546000D01*
X207190000Y-62975000D02*
X207190000Y-62594000D01*
X207840000Y-56610000D02*
X207840000Y-57610000D01*
X207840000Y-69610000D02*
X207840000Y-70610000D01*
X207840000Y-70610000D02*
X206840000Y-70610000D01*
X200840001Y-60991829D02*
G75*
G02*
X203379999Y-62975001I-1J-2618171D01*
G01*
X204650000Y-56625000D02*
G75*
G02*
X207190000Y-59165000I0J-2540000D01*
G01*
D14*
%TO.C,R3*%
X219465000Y-80522936D02*
X219465000Y-80977064D01*
X220935000Y-80522936D02*
X220935000Y-80977064D01*
%TO.C,P1*%
X228040000Y-76490000D02*
X226340000Y-76490001D01*
X228040000Y-85830000D02*
X226339999Y-85830000D01*
%TO.C,TP3*%
X214400000Y-106500000D02*
G75*
G02*
X213000000Y-106500000I-700000J0D01*
G01*
X213000000Y-106500000D02*
G75*
G02*
X214400000Y-106500000I700000J0D01*
G01*
D16*
%TO.C,D34*%
X196725000Y-120150000D02*
X196725000Y-117750000D01*
X196750000Y-117750000D02*
X202550000Y-117750000D01*
X196825000Y-117750000D02*
X196825000Y-120150000D01*
X196950000Y-117750000D02*
X196950000Y-120150000D01*
X197125000Y-117750000D02*
X197125000Y-120150000D01*
X197300000Y-117750000D02*
X197300000Y-120150000D01*
X197475000Y-117750000D02*
X197475000Y-120150000D01*
X202550000Y-117750000D02*
X202550000Y-120150000D01*
X202550000Y-120150000D02*
X196750000Y-120150000D01*
D14*
%TO.C,C45*%
X152465000Y-82638751D02*
X152465000Y-83161252D01*
X153935000Y-82638748D02*
X153935000Y-83161249D01*
%TO.C,C21*%
X227715010Y-92054456D02*
X227345546Y-91684991D01*
X228754454Y-91015009D02*
X228384990Y-90645544D01*
%TO.C,R14*%
X156765000Y-122622936D02*
X156765000Y-123077064D01*
X158235000Y-122622936D02*
X158235000Y-123077064D01*
%TO.C,U7*%
X216390705Y-100961090D02*
X216213928Y-101137867D01*
X216390705Y-101738910D02*
X216171500Y-101519707D01*
X220011090Y-97340705D02*
X220400000Y-96951796D01*
X220400000Y-96951796D02*
X220788910Y-97340705D01*
X220400000Y-105748204D02*
X220011090Y-105359295D01*
X220788910Y-105359295D02*
X220400000Y-105748204D01*
X224409295Y-101738910D02*
X224798204Y-101350000D01*
X224798204Y-101350000D02*
X224409295Y-100961090D01*
X216001796Y-101350000D02*
X215598745Y-101286360D01*
X215938156Y-100946950D01*
X216001796Y-101350000D01*
G36*
X216001796Y-101350000D02*
G01*
X215598745Y-101286360D01*
X215938156Y-100946950D01*
X216001796Y-101350000D01*
G37*
%TO.C,TP15*%
X218350001Y-95300002D02*
G75*
G02*
X216950001Y-95300002I-700000J0D01*
G01*
X216950001Y-95300002D02*
G75*
G02*
X218350001Y-95300002I700000J0D01*
G01*
%TO.C,Y1*%
X225241418Y-94532232D02*
X223332232Y-96441422D01*
X226867768Y-96158578D02*
X225241418Y-94532232D01*
D15*
%TO.C,K3*%
X115590000Y-107110000D02*
X116590000Y-107110000D01*
X115590000Y-107506000D02*
X115590000Y-107110000D01*
X115590000Y-121110000D02*
X115590000Y-120110000D01*
X116590000Y-121110000D02*
X115590000Y-121110000D01*
X117510000Y-107125000D02*
X117510000Y-107506000D01*
X117510000Y-110554000D02*
X117510000Y-110935000D01*
X120304000Y-111570000D02*
X122590000Y-111570000D01*
X125130000Y-113475000D02*
X128940000Y-113475000D01*
X126400000Y-107125000D02*
X117510000Y-107125000D01*
X128559000Y-113475000D02*
X128940000Y-113475000D01*
X128590000Y-107110000D02*
X129590000Y-107110000D01*
X128940000Y-109665000D02*
X128940000Y-110046000D01*
X128940000Y-113475000D02*
X128940000Y-113094000D01*
X129590000Y-107110000D02*
X129590000Y-108110000D01*
X129590000Y-120110000D02*
X129590000Y-121110000D01*
X129590000Y-121110000D02*
X128590000Y-121110000D01*
X122590001Y-111491829D02*
G75*
G02*
X125129999Y-113475001I-1J-2618171D01*
G01*
X126400000Y-107125000D02*
G75*
G02*
X128940000Y-109665000I0J-2540000D01*
G01*
D14*
%TO.C,R2*%
X159822936Y-110615000D02*
X160277064Y-110615000D01*
X159822936Y-112085000D02*
X160277064Y-112085000D01*
D15*
%TO.C,K15*%
X193840000Y-95610000D02*
X194840000Y-95610000D01*
X193840000Y-96006000D02*
X193840000Y-95610000D01*
X193840000Y-109610000D02*
X193840000Y-108610000D01*
X194840000Y-109610000D02*
X193840000Y-109610000D01*
X195760000Y-95625000D02*
X195760000Y-96006000D01*
X195760000Y-99054000D02*
X195760000Y-99435000D01*
X198554000Y-100070000D02*
X200840000Y-100070000D01*
X203380000Y-101975000D02*
X207190000Y-101975000D01*
X204650000Y-95625000D02*
X195760000Y-95625000D01*
X206809000Y-101975000D02*
X207190000Y-101975000D01*
X206840000Y-95610000D02*
X207840000Y-95610000D01*
X207190000Y-98165000D02*
X207190000Y-98546000D01*
X207190000Y-101975000D02*
X207190000Y-101594000D01*
X207840000Y-95610000D02*
X207840000Y-96610000D01*
X207840000Y-108610000D02*
X207840000Y-109610000D01*
X207840000Y-109610000D02*
X206840000Y-109610000D01*
X200840001Y-99991829D02*
G75*
G02*
X203379999Y-101975001I-1J-2618171D01*
G01*
X204650000Y-95625000D02*
G75*
G02*
X207190000Y-98165000I0J-2540000D01*
G01*
D14*
%TO.C,U5*%
X152690000Y-115890000D02*
X153165000Y-115890000D01*
X152690000Y-116365000D02*
X152690000Y-115890000D01*
X152690000Y-118635000D02*
X152690000Y-119110000D01*
X152690000Y-119110000D02*
X153165000Y-119110000D01*
X155435000Y-115890000D02*
X155670000Y-115890000D01*
X155910000Y-116365000D02*
X155910000Y-116190000D01*
X155910000Y-118635000D02*
X155910000Y-119110000D01*
X155910000Y-119110000D02*
X155435000Y-119110000D01*
X156240000Y-116130000D02*
X155910000Y-115890000D01*
X156240000Y-115650000D01*
X156240000Y-116130000D01*
G36*
X156240000Y-116130000D02*
G01*
X155910000Y-115890000D01*
X156240000Y-115650000D01*
X156240000Y-116130000D01*
G37*
%TO.C,C52*%
X189611251Y-89314999D02*
X189088748Y-89315000D01*
X189611252Y-90785000D02*
X189088749Y-90785001D01*
%TO.C,C35*%
X224115011Y-92545547D02*
X223745548Y-92915010D01*
X225154456Y-93584992D02*
X224784993Y-93954455D01*
%TO.C,C48*%
X171215000Y-76638751D02*
X171215000Y-77161252D01*
X172685000Y-76638748D02*
X172685000Y-77161249D01*
%TO.C,C53*%
X202211250Y-50965001D02*
X201688748Y-50965000D01*
X202211252Y-52435000D02*
X201688750Y-52434999D01*
D16*
%TO.C,D14*%
X159475000Y-53850000D02*
X159475000Y-51450000D01*
X159500000Y-51450000D02*
X165300000Y-51450000D01*
X159575000Y-51450000D02*
X159575000Y-53850000D01*
X159700000Y-51450000D02*
X159700000Y-53850000D01*
X159875000Y-51450000D02*
X159875000Y-53850000D01*
X160050000Y-51450000D02*
X160050000Y-53850000D01*
X160225000Y-51450000D02*
X160225000Y-53850000D01*
X165300000Y-51450000D02*
X165300000Y-53850000D01*
X165300000Y-53850000D02*
X159500000Y-53850000D01*
%TO.C,D7*%
X139725000Y-99600000D02*
X139725000Y-97200000D01*
X139750000Y-97200000D02*
X145550000Y-97200000D01*
X139825000Y-97200000D02*
X139825000Y-99600000D01*
X139950000Y-97200000D02*
X139950000Y-99600000D01*
X140125000Y-97200000D02*
X140125000Y-99600000D01*
X140300000Y-97200000D02*
X140300000Y-99600000D01*
X140475000Y-97200000D02*
X140475000Y-99600000D01*
X145550000Y-97200000D02*
X145550000Y-99600000D01*
X145550000Y-99600000D02*
X139750000Y-99600000D01*
D14*
%TO.C,D9*%
X169499999Y-55520001D02*
X169499999Y-52679999D01*
X169499999Y-55520001D02*
X170150000Y-55520000D01*
X171800001Y-55520001D02*
X171800001Y-52679999D01*
D16*
%TO.C,D1*%
X118225000Y-67350000D02*
X118225000Y-64950000D01*
X118250000Y-64950000D02*
X124050000Y-64950000D01*
X118325000Y-64950000D02*
X118325000Y-67350000D01*
X118450000Y-64950000D02*
X118450000Y-67350000D01*
X118625000Y-64950000D02*
X118625000Y-67350000D01*
X118800000Y-64950000D02*
X118800000Y-67350000D01*
X118975000Y-64950000D02*
X118975000Y-67350000D01*
X124050000Y-64950000D02*
X124050000Y-67350000D01*
X124050000Y-67350000D02*
X118250000Y-67350000D01*
D14*
%TO.C,C36*%
X222382598Y-90742428D02*
X222013135Y-91111891D01*
X223422043Y-91781873D02*
X223052580Y-92151336D01*
%TO.C,Q2*%
X218250000Y-71590000D02*
X217600001Y-71590000D01*
X218250000Y-71590000D02*
X218900000Y-71590000D01*
X218250000Y-74710000D02*
X217600000Y-74710000D01*
X218250000Y-74710000D02*
X218899999Y-74710000D01*
X217087500Y-71640000D02*
X216847500Y-71310000D01*
X217327500Y-71310000D01*
X217087500Y-71640000D01*
G36*
X217087500Y-71640000D02*
G01*
X216847500Y-71310000D01*
X217327500Y-71310000D01*
X217087500Y-71640000D01*
G37*
D16*
%TO.C,D20*%
X179374999Y-55800001D02*
X179374999Y-53400002D01*
X179400002Y-53400001D02*
X185199999Y-53400002D01*
X179474998Y-53400000D02*
X179474999Y-55800001D01*
X179600001Y-53399999D02*
X179600001Y-55799998D01*
X179774998Y-53399999D02*
X179775001Y-55800000D01*
X179949999Y-53400002D02*
X179950001Y-55800002D01*
X180125001Y-53399998D02*
X180125001Y-55800000D01*
X185199999Y-53400002D02*
X185199999Y-55800001D01*
X185199999Y-55800001D02*
X179400000Y-55799998D01*
D14*
%TO.C,D38*%
X227249999Y-141920001D02*
X227249999Y-139079999D01*
X227249999Y-141920001D02*
X227900000Y-141920000D01*
X229550001Y-141920001D02*
X229550001Y-139079999D01*
D15*
%TO.C,K17*%
X193590000Y-121110000D02*
X194590000Y-121110000D01*
X193590000Y-121506000D02*
X193590000Y-121110000D01*
X193590000Y-135110000D02*
X193590000Y-134110000D01*
X194590000Y-135110000D02*
X193590000Y-135110000D01*
X195510000Y-121125000D02*
X195510000Y-121506000D01*
X195510000Y-124554000D02*
X195510000Y-124935000D01*
X198304000Y-125570000D02*
X200590000Y-125570000D01*
X203130000Y-127475000D02*
X206940000Y-127475000D01*
X204400000Y-121125000D02*
X195510000Y-121125000D01*
X206559000Y-127475000D02*
X206940000Y-127475000D01*
X206590000Y-121110000D02*
X207590000Y-121110000D01*
X206940000Y-123665000D02*
X206940000Y-124046000D01*
X206940000Y-127475000D02*
X206940000Y-127094000D01*
X207590000Y-121110000D02*
X207590000Y-122110000D01*
X207590000Y-134110000D02*
X207590000Y-135110000D01*
X207590000Y-135110000D02*
X206590000Y-135110000D01*
X200590001Y-125491829D02*
G75*
G02*
X203129999Y-127475001I-1J-2618171D01*
G01*
X204400000Y-121125000D02*
G75*
G02*
X206940000Y-123665000I0J-2540000D01*
G01*
D14*
%TO.C,C8*%
X229011249Y-96615000D02*
X228488748Y-96615000D01*
X229011252Y-98085000D02*
X228488751Y-98085000D01*
%TO.C,D4*%
X148549997Y-117060000D02*
X151409997Y-117060000D01*
X151409997Y-117060000D02*
X151409998Y-115140002D01*
X151409998Y-115140002D02*
X148549999Y-115140000D01*
D16*
%TO.C,D15*%
X159625000Y-73100000D02*
X159625000Y-70700000D01*
X159650000Y-70700000D02*
X165450000Y-70700000D01*
X159725000Y-70700000D02*
X159725000Y-73100000D01*
X159850000Y-70700000D02*
X159850000Y-73100000D01*
X160025000Y-70700000D02*
X160025000Y-73100000D01*
X160200000Y-70700000D02*
X160200000Y-73100000D01*
X160375000Y-70700000D02*
X160375000Y-73100000D01*
X165450000Y-70700000D02*
X165450000Y-73100000D01*
X165450000Y-73100000D02*
X159650000Y-73100000D01*
D14*
%TO.C,TP18*%
X213450001Y-97000001D02*
G75*
G02*
X212050001Y-97000001I-700000J0D01*
G01*
X212050001Y-97000001D02*
G75*
G02*
X213450001Y-97000001I700000J0D01*
G01*
%TO.C,C47*%
X171165000Y-57488751D02*
X171165000Y-58011252D01*
X172635000Y-57488748D02*
X172635000Y-58011249D01*
%TO.C,C50*%
X190915000Y-58788751D02*
X190915000Y-59311252D01*
X192385000Y-58788748D02*
X192385000Y-59311249D01*
%TO.C,D10*%
X208900000Y-57870002D02*
X208899999Y-55029999D01*
X208900000Y-57870002D02*
X209550000Y-57870000D01*
X211200001Y-57870001D02*
X211200000Y-55029998D01*
%TO.C,D24*%
X189349999Y-56370001D02*
X189349999Y-53529999D01*
X189349999Y-56370001D02*
X190000000Y-56370000D01*
X191650001Y-56370001D02*
X191650001Y-53529999D01*
%TO.C,C46*%
X152265000Y-103738751D02*
X152265000Y-104261252D01*
X153735000Y-103738748D02*
X153735000Y-104261249D01*
%TO.C,C37*%
X213288748Y-98965000D02*
X213811250Y-98964999D01*
X213288750Y-100435001D02*
X213811252Y-100435000D01*
%TO.C,TP4*%
X216500000Y-106550000D02*
G75*
G02*
X215100000Y-106550000I-700000J0D01*
G01*
X215100000Y-106550000D02*
G75*
G02*
X216500000Y-106550000I700000J0D01*
G01*
%TO.C,R15*%
X145077064Y-115364999D02*
X144622936Y-115364999D01*
X145077064Y-116834999D02*
X144622936Y-116834999D01*
D16*
%TO.C,D5*%
X139274999Y-59850001D02*
X139275000Y-57450002D01*
X139300000Y-57450001D02*
X145100000Y-57450001D01*
X139374999Y-57450001D02*
X139375000Y-59850001D01*
X139500001Y-57450000D02*
X139500000Y-59849999D01*
X139675001Y-57450000D02*
X139675001Y-59850002D01*
X139850000Y-57450001D02*
X139850000Y-59850001D01*
X140025000Y-57449999D02*
X140025000Y-59850000D01*
X145099999Y-59850000D02*
X139300000Y-59849998D01*
X145100000Y-57450001D02*
X145099999Y-59850000D01*
D14*
%TO.C,D19*%
X208999999Y-96720001D02*
X208999999Y-93879999D01*
X208999999Y-96720001D02*
X209650000Y-96720000D01*
X211300001Y-96720001D02*
X211300001Y-93879999D01*
%TO.C,R6*%
X154615000Y-122622936D02*
X154615000Y-123077064D01*
X156085000Y-122622936D02*
X156085000Y-123077064D01*
%TO.C,TP8*%
X226900000Y-104400000D02*
G75*
G02*
X225500000Y-104400000I-700000J0D01*
G01*
X225500000Y-104400000D02*
G75*
G02*
X226900000Y-104400000I700000J0D01*
G01*
D15*
%TO.C,K4*%
X135090000Y-61110000D02*
X136090000Y-61110000D01*
X135090000Y-61506000D02*
X135090000Y-61110000D01*
X135090000Y-75110000D02*
X135090000Y-74110000D01*
X136090000Y-75110000D02*
X135090000Y-75110000D01*
X137010000Y-61125000D02*
X137010000Y-61506000D01*
X137010000Y-64554000D02*
X137010000Y-64935000D01*
X139804000Y-65570000D02*
X142090000Y-65570000D01*
X144630000Y-67475000D02*
X148440000Y-67475000D01*
X145900000Y-61125000D02*
X137010000Y-61125000D01*
X148059000Y-67475000D02*
X148440000Y-67475000D01*
X148090000Y-61110000D02*
X149090000Y-61110000D01*
X148440000Y-63665000D02*
X148440000Y-64046000D01*
X148440000Y-67475000D02*
X148440000Y-67094000D01*
X149090000Y-61110000D02*
X149090000Y-62110000D01*
X149090000Y-74110000D02*
X149090000Y-75110000D01*
X149090000Y-75110000D02*
X148090000Y-75110000D01*
X142090001Y-65491829D02*
G75*
G02*
X144629999Y-67475001I-1J-2618171D01*
G01*
X145900000Y-61125000D02*
G75*
G02*
X148440000Y-63665000I0J-2540000D01*
G01*
D14*
%TO.C,TP2*%
X213500000Y-104450000D02*
G75*
G02*
X212100000Y-104450000I-700000J0D01*
G01*
X212100000Y-104450000D02*
G75*
G02*
X213500000Y-104450000I700000J0D01*
G01*
%TO.C,C49*%
X171515000Y-97538751D02*
X171515000Y-98061252D01*
X172985000Y-97538748D02*
X172985000Y-98061249D01*
%TO.C,TP1*%
X215550000Y-103900000D02*
G75*
G02*
X214150000Y-103900000I-700000J0D01*
G01*
X214150000Y-103900000D02*
G75*
G02*
X215550000Y-103900000I700000J0D01*
G01*
%TO.C,TP6*%
X218250000Y-107900000D02*
G75*
G02*
X216850000Y-107900000I-700000J0D01*
G01*
X216850000Y-107900000D02*
G75*
G02*
X218250000Y-107900000I700000J0D01*
G01*
%TO.C,JP2*%
X223950000Y-143450000D02*
X223950000Y-142850000D01*
X224650000Y-142150000D02*
X226050000Y-142150000D01*
X226050000Y-144150000D02*
X224650000Y-144150000D01*
X226750000Y-142850000D02*
X226750000Y-143450000D01*
X223950000Y-142850000D02*
G75*
G02*
X224650000Y-142150000I699999J1D01*
G01*
X224650000Y-144150000D02*
G75*
G02*
X223950000Y-143450000I-1J699999D01*
G01*
X226050000Y-142150000D02*
G75*
G02*
X226750000Y-142850000I0J-700000D01*
G01*
X226750000Y-143450000D02*
G75*
G02*
X226050000Y-144150000I-700000J0D01*
G01*
%TO.C,D30*%
X189399999Y-75870001D02*
X189399999Y-73029999D01*
X189399999Y-75870001D02*
X190050000Y-75870000D01*
X191700001Y-75870001D02*
X191700001Y-73029999D01*
%TO.C,SW3*%
X166870000Y-134500000D02*
X166870000Y-135400000D01*
X167080000Y-134300000D02*
X166870000Y-134500000D01*
X167080000Y-135600000D02*
X166870000Y-135400000D01*
X167080000Y-135600000D02*
X168370000Y-135600000D01*
X168370000Y-132850000D02*
X168370000Y-138550000D01*
X168370000Y-134300000D02*
X167080000Y-134300000D01*
X169380000Y-139150000D02*
X170170000Y-139150000D01*
X170170000Y-132250000D02*
X169380000Y-132250000D01*
X171220000Y-134100000D02*
X171220000Y-135800000D01*
X171220000Y-137100000D02*
X171220000Y-137300000D01*
%TO.C,TP12*%
X220399999Y-94500001D02*
G75*
G02*
X218999999Y-94500001I-700000J0D01*
G01*
X218999999Y-94500001D02*
G75*
G02*
X220399999Y-94500001I700000J0D01*
G01*
D16*
%TO.C,D27*%
X199375000Y-75050000D02*
X199375000Y-72650000D01*
X199400000Y-72650000D02*
X205200000Y-72650000D01*
X199475000Y-72650000D02*
X199475000Y-75050000D01*
X199600000Y-72650000D02*
X199600000Y-75050000D01*
X199775000Y-72650000D02*
X199775000Y-75050000D01*
X199950000Y-72650000D02*
X199950000Y-75050000D01*
X200125000Y-72650000D02*
X200125000Y-75050000D01*
X205200000Y-72650000D02*
X205200000Y-75050000D01*
X205200000Y-75050000D02*
X199400000Y-75050000D01*
D14*
%TO.C,R7*%
X152315000Y-122622936D02*
X152315000Y-123077064D01*
X153785000Y-122622936D02*
X153785000Y-123077064D01*
%TO.C,TP10*%
X229900000Y-100950000D02*
G75*
G02*
X228500000Y-100950000I-700000J0D01*
G01*
X228500000Y-100950000D02*
G75*
G02*
X229900000Y-100950000I700000J0D01*
G01*
%TO.C,D32*%
X148549998Y-119860000D02*
X151409998Y-119860000D01*
X151409998Y-119860000D02*
X151409999Y-117940002D01*
X151409999Y-117940002D02*
X148550000Y-117940000D01*
%TO.C,D23*%
X150050000Y-60670002D02*
X150049999Y-57829999D01*
X150050000Y-60670002D02*
X150700000Y-60670000D01*
X152350001Y-60670001D02*
X152350000Y-57829998D01*
D16*
%TO.C,D3*%
X119065000Y-106310000D02*
X119065000Y-103910000D01*
X119090000Y-103910000D02*
X124890000Y-103910000D01*
X119165000Y-103910000D02*
X119165000Y-106310000D01*
X119290000Y-103910000D02*
X119290000Y-106310000D01*
X119465000Y-103910000D02*
X119465000Y-106310000D01*
X119640000Y-103910000D02*
X119640000Y-106310000D01*
X119815000Y-103910000D02*
X119815000Y-106310000D01*
X124890000Y-103910000D02*
X124890000Y-106310000D01*
X124890000Y-106310000D02*
X119090000Y-106310000D01*
D14*
%TO.C,Q1*%
X176689999Y-141600000D02*
X176689999Y-140950000D01*
X176689999Y-141600000D02*
X176689999Y-142249999D01*
X179809999Y-141600000D02*
X179809999Y-140950001D01*
X179809999Y-141600000D02*
X179809999Y-142250000D01*
X180089998Y-140677499D02*
X179759999Y-140437500D01*
X180089999Y-140197500D01*
X180089998Y-140677499D01*
G36*
X180089998Y-140677499D02*
G01*
X179759999Y-140437500D01*
X180089999Y-140197500D01*
X180089998Y-140677499D01*
G37*
%TO.C,D13*%
X209049999Y-75170001D02*
X209049999Y-72329999D01*
X209049999Y-75170001D02*
X209700000Y-75170000D01*
X211350001Y-75170001D02*
X211350001Y-72329999D01*
D16*
%TO.C,D16*%
X158125000Y-91650000D02*
X158125000Y-89250000D01*
X158150000Y-89250000D02*
X163950000Y-89250000D01*
X158225000Y-89250000D02*
X158225000Y-91650000D01*
X158350000Y-89250000D02*
X158350000Y-91650000D01*
X158525000Y-89250000D02*
X158525000Y-91650000D01*
X158700000Y-89250000D02*
X158700000Y-91650000D01*
X158875000Y-89250000D02*
X158875000Y-91650000D01*
X163950000Y-89250000D02*
X163950000Y-91650000D01*
X163950000Y-91650000D02*
X158150000Y-91650000D01*
D14*
%TO.C,TP7*%
X226350000Y-106450000D02*
G75*
G02*
X224950000Y-106450000I-700000J0D01*
G01*
X224950000Y-106450000D02*
G75*
G02*
X226350000Y-106450000I700000J0D01*
G01*
%TO.C,C55*%
X210161250Y-90815001D02*
X209638748Y-90815000D01*
X210161252Y-92285000D02*
X209638750Y-92284999D01*
%TO.C,L3*%
X226178734Y-88610001D02*
X226521265Y-88610000D01*
X226178735Y-87590000D02*
X226521266Y-87589999D01*
D15*
%TO.C,K11*%
X174090000Y-76110000D02*
X175090000Y-76110000D01*
X174090000Y-76506000D02*
X174090000Y-76110000D01*
X174090000Y-90110000D02*
X174090000Y-89110000D01*
X175090000Y-90110000D02*
X174090000Y-90110000D01*
X176010000Y-76125000D02*
X176010000Y-76506000D01*
X176010000Y-79554000D02*
X176010000Y-79935000D01*
X178804000Y-80570000D02*
X181090000Y-80570000D01*
X183630000Y-82475000D02*
X187440000Y-82475000D01*
X184900000Y-76125000D02*
X176010000Y-76125000D01*
X187059000Y-82475000D02*
X187440000Y-82475000D01*
X187090000Y-76110000D02*
X188090000Y-76110000D01*
X187440000Y-78665000D02*
X187440000Y-79046000D01*
X187440000Y-82475000D02*
X187440000Y-82094000D01*
X188090000Y-76110000D02*
X188090000Y-77110000D01*
X188090000Y-89110000D02*
X188090000Y-90110000D01*
X188090000Y-90110000D02*
X187090000Y-90110000D01*
X181090001Y-80491829D02*
G75*
G02*
X183629999Y-82475001I-1J-2618171D01*
G01*
X184900000Y-76125000D02*
G75*
G02*
X187440000Y-78665000I0J-2540000D01*
G01*
D14*
%TO.C,J3*%
X215450000Y-116969999D02*
X215450001Y-119629999D01*
X223129999Y-116969998D02*
X215450000Y-116969999D01*
X223129999Y-116969998D02*
X223130000Y-119629999D01*
X223130000Y-119629999D02*
X215450001Y-119629999D01*
X224400001Y-116969998D02*
X225730000Y-116970000D01*
X225730000Y-116970000D02*
X225730002Y-118300001D01*
D15*
%TO.C,K1*%
X115590000Y-68110000D02*
X116590000Y-68110000D01*
X115590000Y-68506000D02*
X115590000Y-68110000D01*
X115590000Y-82110000D02*
X115590000Y-81110000D01*
X116590000Y-82110000D02*
X115590000Y-82110000D01*
X117510000Y-68125000D02*
X117510000Y-68506000D01*
X117510000Y-71554000D02*
X117510000Y-71935000D01*
X120304000Y-72570000D02*
X122590000Y-72570000D01*
X125130000Y-74475000D02*
X128940000Y-74475000D01*
X126400000Y-68125000D02*
X117510000Y-68125000D01*
X128559000Y-74475000D02*
X128940000Y-74475000D01*
X128590000Y-68110000D02*
X129590000Y-68110000D01*
X128940000Y-70665000D02*
X128940000Y-71046000D01*
X128940000Y-74475000D02*
X128940000Y-74094000D01*
X129590000Y-68110000D02*
X129590000Y-69110000D01*
X129590000Y-81110000D02*
X129590000Y-82110000D01*
X129590000Y-82110000D02*
X128590000Y-82110000D01*
X122590001Y-72491829D02*
G75*
G02*
X125129999Y-74475001I-1J-2618171D01*
G01*
X126400000Y-68125000D02*
G75*
G02*
X128940000Y-70665000I0J-2540000D01*
G01*
D14*
%TO.C,C38*%
X223564999Y-111038751D02*
X223565000Y-111561252D01*
X225035000Y-111038748D02*
X225035001Y-111561249D01*
%TO.C,TP14*%
X216849999Y-93650004D02*
G75*
G02*
X215449999Y-93650004I-700000J0D01*
G01*
X215449999Y-93650004D02*
G75*
G02*
X216849999Y-93650004I700000J0D01*
G01*
D16*
%TO.C,D35*%
X217075000Y-140850000D02*
X217075000Y-138450000D01*
X217100000Y-138450000D02*
X222900000Y-138450000D01*
X217175000Y-138450000D02*
X217175000Y-140850000D01*
X217300000Y-138450000D02*
X217300000Y-140850000D01*
X217475000Y-138450000D02*
X217475000Y-140850000D01*
X217650000Y-138450000D02*
X217650000Y-140850000D01*
X217825000Y-138450000D02*
X217825000Y-140850000D01*
X222900000Y-138450000D02*
X222900000Y-140850000D01*
X222900000Y-140850000D02*
X217100000Y-140850000D01*
D14*
%TO.C,D37*%
X188699999Y-94620001D02*
X188699999Y-91779999D01*
X188699999Y-94620001D02*
X189350000Y-94620000D01*
X191000001Y-94620001D02*
X191000001Y-91779999D01*
%TO.C,D12*%
X169899999Y-74470001D02*
X169899999Y-71629999D01*
X169899999Y-74470001D02*
X170550000Y-74470000D01*
X172200001Y-74470001D02*
X172200001Y-71629999D01*
D16*
%TO.C,D22*%
X178025000Y-94160001D02*
X178025000Y-91760002D01*
X178050001Y-91760000D02*
X183850000Y-91760001D01*
X178124999Y-91760001D02*
X178125000Y-94160001D01*
X178250000Y-91759999D02*
X178250000Y-94159999D01*
X178424999Y-91760000D02*
X178425001Y-94160000D01*
X178600000Y-91760001D02*
X178600000Y-94160001D01*
X178775000Y-91759999D02*
X178775001Y-94160000D01*
X183850000Y-91760001D02*
X183850000Y-94160001D01*
X183850000Y-94160001D02*
X178050000Y-94159999D01*
%TO.C,D28*%
X197874999Y-94050001D02*
X197875000Y-91650002D01*
X197900001Y-91650000D02*
X203700000Y-91650001D01*
X197974999Y-91650001D02*
X197975000Y-94050001D01*
X198100001Y-91649999D02*
X198100000Y-94049999D01*
X198274999Y-91650000D02*
X198275001Y-94050000D01*
X198450000Y-91650001D02*
X198450000Y-94050001D01*
X198625000Y-91649999D02*
X198625001Y-94050000D01*
X203699999Y-94050001D02*
X197900000Y-94049999D01*
X203700000Y-91650001D02*
X203699999Y-94050001D01*
%TO.C,D6*%
X139525000Y-79400001D02*
X139525000Y-77000002D01*
X139550001Y-77000000D02*
X145350000Y-77000001D01*
X139624999Y-77000001D02*
X139625000Y-79400001D01*
X139750000Y-76999999D02*
X139750000Y-79399999D01*
X139924999Y-77000000D02*
X139925001Y-79400000D01*
X140100000Y-77000001D02*
X140100000Y-79400001D01*
X140275000Y-76999999D02*
X140275001Y-79400000D01*
X145350000Y-77000001D02*
X145350000Y-79400001D01*
X145350000Y-79400001D02*
X139550000Y-79399999D01*
%TD*%
D17*
%TO.C,D26*%
X197900000Y-54450000D03*
D18*
X205700000Y-54450000D03*
%TD*%
D17*
%TO.C,D33*%
X178050000Y-112750000D03*
D18*
X185850000Y-112750000D03*
%TD*%
D17*
%TO.C,D2*%
X118690000Y-85110000D03*
D18*
X126490000Y-85110000D03*
%TD*%
D17*
%TO.C,D21*%
X177700000Y-74100000D03*
D18*
X185500000Y-74100000D03*
%TD*%
D17*
%TO.C,D34*%
X195850000Y-118950000D03*
D18*
X203650000Y-118950000D03*
%TD*%
D17*
%TO.C,D14*%
X158600000Y-52650000D03*
D18*
X166400000Y-52650000D03*
%TD*%
D17*
%TO.C,D7*%
X138850000Y-98400000D03*
D18*
X146650000Y-98400000D03*
%TD*%
D17*
%TO.C,D1*%
X117350000Y-66150000D03*
D18*
X125150000Y-66150000D03*
%TD*%
D17*
%TO.C,D20*%
X178500000Y-54600000D03*
D18*
X186300000Y-54600000D03*
%TD*%
D17*
%TO.C,D15*%
X158750000Y-71900000D03*
D18*
X166550000Y-71900000D03*
%TD*%
D17*
%TO.C,D5*%
X138400000Y-58650000D03*
D18*
X146200000Y-58650000D03*
%TD*%
D17*
%TO.C,D27*%
X198500000Y-73850000D03*
D18*
X206300000Y-73850000D03*
%TD*%
D17*
%TO.C,D3*%
X118190000Y-105110000D03*
D18*
X125990000Y-105110000D03*
%TD*%
D17*
%TO.C,D16*%
X157250000Y-90450000D03*
D18*
X165050000Y-90450000D03*
%TD*%
D17*
%TO.C,D35*%
X216200000Y-139650000D03*
D18*
X224000000Y-139650000D03*
%TD*%
M02*
