M48
; DRILL file {KiCad 7.0.8} date Thu 09 Nov 2023 06:46:44 PM WIB
; FORMAT={-:-/ absolute / inch / decimal}
; #@! TF.CreationDate,2023-11-09T18:46:44+07:00
; #@! TF.GenerationSoftware,Kicad,Pcbnew,7.0.8
; #@! TF.FileFunction,NonPlated,1,2,NPTH
FMAT,2
INCH
; #@! TA.AperFunction,NonPlated,NPTH,ComponentDrill
T1C0.0670
; #@! TA.AperFunction,NonPlated,NPTH,ComponentDrill
T2C0.1280
; #@! TA.AperFunction,NonPlated,NPTH,ComponentDrill
T3C0.1570
%
G90
G05
T1
X1.4Y-3.2
X1.4Y-4.0
X1.4Y-4.8
X1.6Y-2.4
X1.8Y-3.2
X1.8Y-4.0
X1.8Y-4.8
X2.0Y-2.4
X2.4Y-1.9
X2.4Y-2.7
X2.4Y-3.5
X2.4Y-4.3
X2.4Y-5.1
X2.8Y-1.9
X2.8Y-2.7
X2.8Y-3.5
X2.8Y-4.3
X2.8Y-5.1
X3.2Y-1.7
X3.2Y-2.5
X3.2Y-3.3
X3.2Y-4.1
X3.2Y-4.9
X3.6Y-1.7
X3.6Y-2.5
X3.6Y-3.3
X3.6Y-4.1
X3.6Y-4.9
X4.0Y-1.4
X4.0Y-2.2
X4.0Y-3.0003
X4.0Y-3.8
X4.0Y-4.6
X4.4Y-1.4
X4.4Y-2.2
X4.4Y-3.0003
X4.4Y-3.8
X4.4Y-4.6
X4.8Y-1.5
X4.8Y-2.3
X4.8Y-3.1
X4.8Y-3.9
X4.8Y-4.7
X5.2Y-1.5
X5.2Y-2.3
X5.2Y-3.1
X5.2Y-3.9
X5.2Y-4.7
X5.6Y-1.7
X5.6Y-2.5
X5.6Y-3.3
X5.6Y-4.1
X5.6Y-4.9
X6.0Y-1.7
X6.0Y-2.5
X6.0Y-3.3
X6.0Y-4.1
X6.0Y-4.9
X6.4Y-1.9
X6.4Y-2.7
X6.4Y-3.5
X6.4Y-4.3
X6.704Y-5.5293
X6.8Y-1.9
X6.8Y-2.7
X6.8Y-3.5
X6.8Y-4.3
X6.9868Y-5.2465
X7.2Y-2.3
X7.2Y-3.1146
X7.2Y-3.9
X7.2454Y-4.9879
X7.2586Y-6.0914
X7.5282Y-4.7051
X7.5414Y-5.8086
X7.6Y-2.3
X7.6Y-3.1146
X7.6Y-3.9
X7.8086Y-5.5414
X7.8086Y-6.6414
X8.0914Y-5.2586
X8.0914Y-6.3586
X8.3586Y-6.0914
X8.6414Y-5.8086
T2
X8.3441Y-3.7
X8.3441Y-4.1
X8.3441Y-4.1
X8.3441Y-4.5
T3
X1.6Y-3.2
X1.6Y-4.0
X1.6Y-4.8
X1.8Y-2.4
X2.6Y-1.9
X2.6Y-2.7
X2.6Y-3.5
X2.6Y-4.3
X2.6Y-5.1
X3.4Y-1.7
X3.4Y-2.5
X3.4Y-3.3
X3.4Y-4.1
X3.4Y-4.9
X4.2Y-1.4
X4.2Y-2.2
X4.2Y-3.0003
X4.2Y-3.8
X4.2Y-4.6
X5.0Y-1.5
X5.0Y-2.3
X5.0Y-3.1
X5.0Y-3.9
X5.0Y-4.7
X5.8Y-1.7
X5.8Y-2.5
X5.8Y-3.3
X5.8Y-4.1
X5.8Y-4.9
X6.6Y-1.9
X6.6Y-2.7
X6.6Y-3.5
X6.6Y-4.3
X6.8454Y-5.3879
X7.3868Y-4.8465
X7.4Y-2.3
X7.4Y-3.1146
X7.4Y-3.9
X7.4Y-5.95
X7.95Y-5.4
X7.95Y-6.5
X8.5Y-5.95
T0
M30
