%TF.GenerationSoftware,KiCad,Pcbnew,7.0.8*%
%TF.CreationDate,2023-11-09T18:46:39+07:00*%
%TF.ProjectId,sudi-redox-clone,73756469-2d72-4656-946f-782d636c6f6e,0.1*%
%TF.SameCoordinates,Original*%
%TF.FileFunction,Soldermask,Bot*%
%TF.FilePolarity,Negative*%
%FSLAX46Y46*%
G04 Gerber Fmt 4.6, Leading zero omitted, Abs format (unit mm)*
G04 Created by KiCad (PCBNEW 7.0.8) date 2023-11-09 18:46:39*
%MOMM*%
%LPD*%
G01*
G04 APERTURE LIST*
G04 Aperture macros list*
%AMRoundRect*
0 Rectangle with rounded corners*
0 $1 Rounding radius*
0 $2 $3 $4 $5 $6 $7 $8 $9 X,Y pos of 4 corners*
0 Add a 4 corners polygon primitive as box body*
4,1,4,$2,$3,$4,$5,$6,$7,$8,$9,$2,$3,0*
0 Add four circle primitives for the rounded corners*
1,1,$1+$1,$2,$3*
1,1,$1+$1,$4,$5*
1,1,$1+$1,$6,$7*
1,1,$1+$1,$8,$9*
0 Add four rect primitives between the rounded corners*
20,1,$1+$1,$2,$3,$4,$5,0*
20,1,$1+$1,$4,$5,$6,$7,0*
20,1,$1+$1,$6,$7,$8,$9,0*
20,1,$1+$1,$8,$9,$2,$3,0*%
%AMHorizOval*
0 Thick line with rounded ends*
0 $1 width*
0 $2 $3 position (X,Y) of the first rounded end (center of the circle)*
0 $4 $5 position (X,Y) of the second rounded end (center of the circle)*
0 Add line between two ends*
20,1,$1,$2,$3,$4,$5,0*
0 Add two circle primitives to create the rounded ends*
1,1,$1,$2,$3*
1,1,$1,$4,$5*%
%AMRotRect*
0 Rectangle, with rotation*
0 The origin of the aperture is its center*
0 $1 length*
0 $2 width*
0 $3 Rotation angle, in degrees counterclockwise*
0 Add horizontal line*
21,1,$1,$2,0,0,$3*%
G04 Aperture macros list end*
%ADD10HorizOval,2.500000X-0.405453X-0.729954X0.405453X0.729954X0*%
%ADD11HorizOval,2.500000X-0.019724X0.289328X0.019724X-0.289328X0*%
%ADD12HorizOval,2.500000X-0.019724X-0.289328X0.019724X0.289328X0*%
%ADD13HorizOval,2.500000X-0.405453X0.729954X0.405453X-0.729954X0*%
%ADD14R,1.600000X1.600000*%
%ADD15R,1.200000X1.200000*%
%ADD16C,1.600000*%
%ADD17C,3.250000*%
%ADD18R,1.520000X1.520000*%
%ADD19C,1.520000*%
%ADD20HorizOval,2.500000X-0.229457X0.802854X0.229457X-0.802854X0*%
%ADD21HorizOval,2.500000X-0.218533X0.190639X0.218533X-0.190639X0*%
%ADD22HorizOval,2.500000X-0.190639X0.218533X0.190639X-0.218533X0*%
%ADD23HorizOval,2.500000X-0.802854X0.229457X0.802854X-0.229457X0*%
%ADD24C,5.600000*%
%ADD25O,1.600000X1.600000*%
%ADD26RotRect,1.600000X1.600000X45.000000*%
%ADD27RotRect,1.200000X1.200000X45.000000*%
%ADD28R,1.752600X1.752600*%
%ADD29C,1.752600*%
%ADD30R,1.700000X1.700000*%
%ADD31O,1.700000X1.700000*%
%ADD32RoundRect,0.250000X-0.312500X-0.625000X0.312500X-0.625000X0.312500X0.625000X-0.312500X0.625000X0*%
G04 APERTURE END LIST*
D10*
%TO.C,K19*%
X103275000Y-113570000D03*
D11*
X104160000Y-112050000D03*
D12*
X109200000Y-112050000D03*
D13*
X110085000Y-113570000D03*
%TD*%
D10*
%TO.C,K16*%
X103275000Y-52610000D03*
D11*
X104160000Y-51090000D03*
D12*
X109200000Y-51090000D03*
D13*
X110085000Y-52610000D03*
%TD*%
D14*
%TO.C,D34*%
X184060000Y-48260000D03*
D15*
X186385000Y-48260000D03*
X189535000Y-48260000D03*
D16*
X191860000Y-48260000D03*
%TD*%
D17*
%TO.C,J1*%
X211940000Y-104140000D03*
X211940000Y-93980000D03*
D18*
X203050000Y-102230000D03*
D19*
X205590000Y-100960000D03*
X203050000Y-99690000D03*
X205590000Y-98420000D03*
X203050000Y-97150000D03*
X205590000Y-95880000D03*
%TD*%
D14*
%TO.C,D17*%
X102780000Y-66040000D03*
D15*
X105105000Y-66040000D03*
X108255000Y-66040000D03*
D16*
X110580000Y-66040000D03*
%TD*%
D20*
%TO.C,K40*%
X182904930Y-123196508D03*
D21*
X182455917Y-121495917D03*
D22*
X186019736Y-117932098D03*
D23*
X187720327Y-118381111D03*
%TD*%
D14*
%TO.C,D22*%
X123100000Y-68580000D03*
D15*
X125425000Y-68580000D03*
X128575000Y-68580000D03*
D16*
X130900000Y-68580000D03*
%TD*%
D14*
%TO.C,D26*%
X143420000Y-53340000D03*
D15*
X145745000Y-53340000D03*
X148895000Y-53340000D03*
D16*
X151220000Y-53340000D03*
%TD*%
D10*
%TO.C,K9*%
X62635000Y-126270000D03*
D11*
X63520000Y-124750000D03*
D12*
X68560000Y-124750000D03*
D13*
X69445000Y-126270000D03*
%TD*%
D14*
%TO.C,D18*%
X102780000Y-86360000D03*
D15*
X105105000Y-86360000D03*
X108255000Y-86360000D03*
D16*
X110580000Y-86360000D03*
%TD*%
D24*
%TO.C,H5*%
X94615000Y-31115000D03*
%TD*%
D10*
%TO.C,K8*%
X62635000Y-105950000D03*
D11*
X63520000Y-104430000D03*
D12*
X68560000Y-104430000D03*
D13*
X69445000Y-105950000D03*
%TD*%
D14*
%TO.C,D36*%
X184060000Y-88900000D03*
D15*
X186385000Y-88900000D03*
X189535000Y-88900000D03*
D16*
X191860000Y-88900000D03*
%TD*%
D10*
%TO.C,K18*%
X103275000Y-93250000D03*
D11*
X104160000Y-91730000D03*
D12*
X109200000Y-91730000D03*
D13*
X110085000Y-93250000D03*
%TD*%
D24*
%TO.C,H1*%
X53340000Y-45720000D03*
%TD*%
D10*
%TO.C,K12*%
X82955000Y-80550000D03*
D11*
X83840000Y-79030000D03*
D12*
X88880000Y-79030000D03*
D13*
X89765000Y-80550000D03*
%TD*%
D24*
%TO.C,H3*%
X162560000Y-125095000D03*
%TD*%
D10*
%TO.C,K14*%
X82955000Y-121190000D03*
D11*
X83840000Y-119670000D03*
D12*
X88880000Y-119670000D03*
D13*
X89765000Y-121190000D03*
%TD*%
D14*
%TO.C,D25*%
X143420000Y-33020000D03*
D15*
X145745000Y-33020000D03*
X148895000Y-33020000D03*
D16*
X151220000Y-33020000D03*
%TD*%
D10*
%TO.C,K7*%
X62635000Y-85630000D03*
D11*
X63520000Y-84110000D03*
D12*
X68560000Y-84110000D03*
D13*
X69445000Y-85630000D03*
%TD*%
D14*
%TO.C,D2*%
X36740000Y-71120000D03*
D15*
X39065000Y-71120000D03*
X42215000Y-71120000D03*
D16*
X44540000Y-71120000D03*
%TD*%
D20*
%TO.C,K38*%
X183240062Y-151225459D03*
D21*
X182791049Y-149524868D03*
D22*
X186354868Y-145961049D03*
D23*
X188055459Y-146410062D03*
%TD*%
D14*
%TO.C,D11*%
X82460000Y-53340000D03*
D15*
X84785000Y-53340000D03*
X87935000Y-53340000D03*
D16*
X90260000Y-53340000D03*
%TD*%
D10*
%TO.C,K6*%
X62635000Y-65310000D03*
D11*
X63520000Y-63790000D03*
D12*
X68560000Y-63790000D03*
D13*
X69445000Y-65310000D03*
%TD*%
D14*
%TO.C,U2*%
X99705000Y-137150000D03*
D25*
X102245000Y-137150000D03*
X104785000Y-137150000D03*
X107325000Y-137150000D03*
X109865000Y-137150000D03*
X112405000Y-137150000D03*
X114945000Y-137150000D03*
X117485000Y-137150000D03*
X120025000Y-137150000D03*
X122565000Y-137150000D03*
X125105000Y-137150000D03*
X127645000Y-137150000D03*
X130185000Y-137150000D03*
X132725000Y-137150000D03*
X132725000Y-129530000D03*
X130185000Y-129530000D03*
X127645000Y-129530000D03*
X125105000Y-129530000D03*
X122565000Y-129530000D03*
X120025000Y-129530000D03*
X117485000Y-129530000D03*
X114945000Y-129530000D03*
X112405000Y-129530000D03*
X109865000Y-129530000D03*
X107325000Y-129530000D03*
X104785000Y-129530000D03*
X102245000Y-129530000D03*
X99705000Y-129530000D03*
%TD*%
D10*
%TO.C,K25*%
X143915000Y-39910000D03*
D11*
X144800000Y-38390000D03*
D12*
X149840000Y-38390000D03*
D13*
X150725000Y-39910000D03*
%TD*%
D10*
%TO.C,K32*%
X164235000Y-85630000D03*
D11*
X165120000Y-84110000D03*
D12*
X170160000Y-84110000D03*
D13*
X171045000Y-85630000D03*
%TD*%
D10*
%TO.C,K5*%
X62635000Y-44990000D03*
D11*
X63520000Y-43470000D03*
D12*
X68560000Y-43470000D03*
D13*
X69445000Y-44990000D03*
%TD*%
D14*
%TO.C,D35*%
X184060000Y-68580000D03*
D15*
X186385000Y-68580000D03*
X189535000Y-68580000D03*
D16*
X191860000Y-68580000D03*
%TD*%
D14*
%TO.C,D21*%
X123100000Y-48260000D03*
D15*
X125425000Y-48260000D03*
X128575000Y-48260000D03*
D16*
X130900000Y-48260000D03*
%TD*%
D10*
%TO.C,K2*%
X37235000Y-78010000D03*
D11*
X38120000Y-76490000D03*
D12*
X43160000Y-76490000D03*
D13*
X44045000Y-78010000D03*
%TD*%
D26*
%TO.C,D42*%
X206792284Y-147537716D03*
D27*
X208436307Y-145893693D03*
X210663693Y-143666307D03*
D16*
X212307716Y-142022284D03*
%TD*%
D10*
%TO.C,K30*%
X164235000Y-44990000D03*
D11*
X165120000Y-43470000D03*
D12*
X170160000Y-43470000D03*
D13*
X171045000Y-44990000D03*
%TD*%
D10*
%TO.C,K31*%
X164235000Y-65310000D03*
D11*
X165120000Y-63790000D03*
D12*
X170160000Y-63790000D03*
D13*
X171045000Y-65310000D03*
%TD*%
D10*
%TO.C,K10*%
X82955000Y-39910000D03*
D11*
X83840000Y-38390000D03*
D12*
X88880000Y-38390000D03*
D13*
X89765000Y-39910000D03*
%TD*%
D10*
%TO.C,K24*%
X123595000Y-116110000D03*
D11*
X124480000Y-114590000D03*
D12*
X129520000Y-114590000D03*
D13*
X130405000Y-116110000D03*
%TD*%
D14*
%TO.C,D28*%
X143420000Y-93980000D03*
D15*
X145745000Y-93980000D03*
X148895000Y-93980000D03*
D16*
X151220000Y-93980000D03*
%TD*%
D10*
%TO.C,K36*%
X184555000Y-95790000D03*
D11*
X185440000Y-94270000D03*
D12*
X190480000Y-94270000D03*
D13*
X191365000Y-95790000D03*
%TD*%
D14*
%TO.C,D8*%
X62140000Y-99060000D03*
D15*
X64465000Y-99060000D03*
X67615000Y-99060000D03*
D16*
X69940000Y-99060000D03*
%TD*%
D10*
%TO.C,K22*%
X123595000Y-75470000D03*
D11*
X124480000Y-73950000D03*
D12*
X129520000Y-73950000D03*
D13*
X130405000Y-75470000D03*
%TD*%
D24*
%TO.C,H9*%
X44450000Y-135255000D03*
%TD*%
D14*
%TO.C,D29*%
X143420000Y-114300000D03*
D15*
X145745000Y-114300000D03*
X148895000Y-114300000D03*
D16*
X151220000Y-114300000D03*
%TD*%
D28*
%TO.C,U1*%
X198005000Y-52324000D03*
D29*
X198005000Y-54864000D03*
X198005000Y-57404000D03*
X198005000Y-59944000D03*
X198005000Y-62484000D03*
X198005000Y-65024000D03*
X198005000Y-67564000D03*
X198005000Y-70104000D03*
X198005000Y-72644000D03*
X198005000Y-75184000D03*
X198005000Y-77724000D03*
X198005000Y-80264000D03*
X213245000Y-52324000D03*
X213245000Y-54864000D03*
X213245000Y-57404000D03*
X213245000Y-59944000D03*
X213245000Y-62484000D03*
X213245000Y-65024000D03*
X213245000Y-67564000D03*
X213245000Y-70104000D03*
X213245000Y-72644000D03*
X213245000Y-75184000D03*
X213245000Y-77724000D03*
X213245000Y-80264000D03*
%TD*%
D24*
%TO.C,H2*%
X205359000Y-58039000D03*
%TD*%
D20*
%TO.C,K41*%
X197210062Y-137255459D03*
D21*
X196761049Y-135554868D03*
D22*
X200324868Y-131991049D03*
D23*
X202025459Y-132440062D03*
%TD*%
D26*
%TO.C,D38*%
X178852284Y-147537716D03*
D27*
X180496307Y-145893693D03*
X182723693Y-143666307D03*
D16*
X184367716Y-142022284D03*
%TD*%
D10*
%TO.C,K34*%
X184555000Y-55150000D03*
D11*
X185440000Y-53630000D03*
D12*
X190480000Y-53630000D03*
D13*
X191365000Y-55150000D03*
%TD*%
D14*
%TO.C,D31*%
X163740000Y-58420000D03*
D15*
X166065000Y-58420000D03*
X169215000Y-58420000D03*
D16*
X171540000Y-58420000D03*
%TD*%
D10*
%TO.C,K13*%
X82955000Y-100870000D03*
D11*
X83840000Y-99350000D03*
D12*
X88880000Y-99350000D03*
D13*
X89765000Y-100870000D03*
%TD*%
D10*
%TO.C,K3*%
X37235000Y-98330000D03*
D11*
X38120000Y-96810000D03*
D12*
X43160000Y-96810000D03*
D13*
X44045000Y-98330000D03*
%TD*%
D26*
%TO.C,D39*%
X192822284Y-160237716D03*
D27*
X194466307Y-158593693D03*
X196693693Y-156366307D03*
D16*
X198337716Y-154722284D03*
%TD*%
D10*
%TO.C,K15*%
X103275000Y-32290000D03*
D11*
X104160000Y-30770000D03*
D12*
X109200000Y-30770000D03*
D13*
X110085000Y-32290000D03*
%TD*%
D24*
%TO.C,H8*%
X32385000Y-66675000D03*
%TD*%
D26*
%TO.C,D37*%
X163612284Y-133567716D03*
D27*
X165256307Y-131923693D03*
X167483693Y-129696307D03*
D16*
X169127716Y-128052284D03*
%TD*%
D26*
%TO.C,D41*%
X191552284Y-133567716D03*
D27*
X193196307Y-131923693D03*
X195423693Y-129696307D03*
D16*
X197067716Y-128052284D03*
%TD*%
D14*
%TO.C,D14*%
X82460000Y-114300000D03*
D15*
X84785000Y-114300000D03*
X87935000Y-114300000D03*
D16*
X90260000Y-114300000D03*
%TD*%
D14*
%TO.C,D32*%
X163740000Y-78740000D03*
D15*
X166065000Y-78740000D03*
X169215000Y-78740000D03*
D16*
X171540000Y-78740000D03*
%TD*%
D14*
%TO.C,D7*%
X62140000Y-80010000D03*
D15*
X64465000Y-80010000D03*
X67615000Y-80010000D03*
D16*
X69940000Y-80010000D03*
%TD*%
D14*
%TO.C,D9*%
X62140000Y-119380000D03*
D15*
X64465000Y-119380000D03*
X67615000Y-119380000D03*
D16*
X69940000Y-119380000D03*
%TD*%
D14*
%TO.C,D1*%
X41820000Y-49530000D03*
D15*
X44145000Y-49530000D03*
X47295000Y-49530000D03*
D16*
X49620000Y-49530000D03*
%TD*%
D14*
%TO.C,D20*%
X123100000Y-27940000D03*
D15*
X125425000Y-27940000D03*
X128575000Y-27940000D03*
D16*
X130900000Y-27940000D03*
%TD*%
D10*
%TO.C,K23*%
X123595000Y-95790000D03*
D11*
X124480000Y-94270000D03*
D12*
X129520000Y-94270000D03*
D13*
X130405000Y-95790000D03*
%TD*%
D10*
%TO.C,K27*%
X143915000Y-80550000D03*
D11*
X144800000Y-79030000D03*
D12*
X149840000Y-79030000D03*
D13*
X150725000Y-80550000D03*
%TD*%
D10*
%TO.C,K17*%
X103275000Y-72938188D03*
D11*
X104160000Y-71418188D03*
D12*
X109200000Y-71418188D03*
D13*
X110085000Y-72938188D03*
%TD*%
D10*
%TO.C,K28*%
X143915000Y-100870000D03*
D11*
X144800000Y-99350000D03*
D12*
X149840000Y-99350000D03*
D13*
X150725000Y-100870000D03*
%TD*%
D14*
%TO.C,D4*%
X36740000Y-111760000D03*
D15*
X39065000Y-111760000D03*
X42215000Y-111760000D03*
D16*
X44540000Y-111760000D03*
%TD*%
D14*
%TO.C,D15*%
X102780000Y-26670000D03*
D15*
X105105000Y-26670000D03*
X108255000Y-26670000D03*
D16*
X110580000Y-26670000D03*
%TD*%
D24*
%TO.C,H4*%
X179264799Y-45503227D03*
%TD*%
D26*
%TO.C,D40*%
X178852284Y-115787716D03*
D27*
X180496307Y-114143693D03*
X182723693Y-111916307D03*
D16*
X184367716Y-110272284D03*
%TD*%
D14*
%TO.C,D10*%
X82460000Y-33020000D03*
D15*
X84785000Y-33020000D03*
X87935000Y-33020000D03*
D16*
X90260000Y-33020000D03*
%TD*%
D14*
%TO.C,D24*%
X123100000Y-109220000D03*
D15*
X125425000Y-109220000D03*
X128575000Y-109220000D03*
D16*
X130900000Y-109220000D03*
%TD*%
D14*
%TO.C,D6*%
X62140000Y-58420000D03*
D15*
X64465000Y-58420000D03*
X67615000Y-58420000D03*
D16*
X69940000Y-58420000D03*
%TD*%
D10*
%TO.C,K20*%
X123595000Y-34830000D03*
D11*
X124480000Y-33310000D03*
D12*
X129520000Y-33310000D03*
D13*
X130405000Y-34830000D03*
%TD*%
D14*
%TO.C,D5*%
X62140000Y-38100000D03*
D15*
X64465000Y-38100000D03*
X67615000Y-38100000D03*
D16*
X69940000Y-38100000D03*
%TD*%
D14*
%TO.C,D19*%
X102780000Y-106680000D03*
D15*
X105105000Y-106680000D03*
X108255000Y-106680000D03*
D16*
X110580000Y-106680000D03*
%TD*%
D30*
%TO.C,J3*%
X209435000Y-87465000D03*
D31*
X206895000Y-87465000D03*
X204355000Y-87465000D03*
X201815000Y-87465000D03*
%TD*%
D10*
%TO.C,K4*%
X37235000Y-118650000D03*
D11*
X38120000Y-117130000D03*
D12*
X43160000Y-117130000D03*
D13*
X44045000Y-118650000D03*
%TD*%
D10*
%TO.C,K35*%
X184555000Y-75841600D03*
D11*
X185440000Y-74321600D03*
D12*
X190480000Y-74321600D03*
D13*
X191365000Y-75841600D03*
%TD*%
D20*
%TO.C,K42*%
X211180062Y-151225459D03*
D21*
X210731049Y-149524868D03*
D22*
X214294868Y-145961049D03*
D23*
X215995459Y-146410062D03*
%TD*%
D10*
%TO.C,K26*%
X143915000Y-60230000D03*
D11*
X144800000Y-58710000D03*
D12*
X149840000Y-58710000D03*
D13*
X150725000Y-60230000D03*
%TD*%
D14*
%TO.C,D30*%
X163740000Y-38100000D03*
D15*
X166065000Y-38100000D03*
X169215000Y-38100000D03*
D16*
X171540000Y-38100000D03*
%TD*%
D14*
%TO.C,D27*%
X143420000Y-73660000D03*
D15*
X145745000Y-73660000D03*
X148895000Y-73660000D03*
D16*
X151220000Y-73660000D03*
%TD*%
D10*
%TO.C,K29*%
X143915000Y-121190000D03*
D11*
X144800000Y-119670000D03*
D12*
X149840000Y-119670000D03*
D13*
X150725000Y-121190000D03*
%TD*%
D14*
%TO.C,D23*%
X123100000Y-88900000D03*
D15*
X125425000Y-88900000D03*
X128575000Y-88900000D03*
D16*
X130900000Y-88900000D03*
%TD*%
D14*
%TO.C,D3*%
X36740000Y-91440000D03*
D15*
X39065000Y-91440000D03*
X42215000Y-91440000D03*
D16*
X44540000Y-91440000D03*
%TD*%
D20*
%TO.C,K37*%
X169152828Y-136948610D03*
D21*
X168703815Y-135248019D03*
D22*
X172267634Y-131684200D03*
D23*
X173968225Y-132133213D03*
%TD*%
D14*
%TO.C,D13*%
X82460000Y-92710000D03*
D15*
X84785000Y-92710000D03*
X87935000Y-92710000D03*
D16*
X90260000Y-92710000D03*
%TD*%
D14*
%TO.C,D16*%
X102780000Y-45720000D03*
D15*
X105105000Y-45720000D03*
X108255000Y-45720000D03*
D16*
X110580000Y-45720000D03*
%TD*%
D20*
%TO.C,K39*%
X197210062Y-165195459D03*
D21*
X196761049Y-163494868D03*
D22*
X200324868Y-159931049D03*
D23*
X202025459Y-160380062D03*
%TD*%
D10*
%TO.C,K33*%
X164235000Y-105950000D03*
D11*
X165120000Y-104430000D03*
D12*
X170160000Y-104430000D03*
D13*
X171045000Y-105950000D03*
%TD*%
D14*
%TO.C,D33*%
X163740000Y-97790000D03*
D15*
X166065000Y-97790000D03*
X169215000Y-97790000D03*
D16*
X171540000Y-97790000D03*
%TD*%
D10*
%TO.C,K21*%
X123595000Y-55150000D03*
D11*
X124480000Y-53630000D03*
D12*
X129520000Y-53630000D03*
D13*
X130405000Y-55150000D03*
%TD*%
D10*
%TO.C,K11*%
X82955000Y-60230000D03*
D11*
X83840000Y-58710000D03*
D12*
X88880000Y-58710000D03*
D13*
X89765000Y-60230000D03*
%TD*%
D10*
%TO.C,K1*%
X42315000Y-57690000D03*
D11*
X43200000Y-56170000D03*
D12*
X48240000Y-56170000D03*
D13*
X49125000Y-57690000D03*
%TD*%
D24*
%TO.C,H7*%
X195580000Y-111760000D03*
%TD*%
D14*
%TO.C,D12*%
X82460000Y-72390000D03*
D15*
X84785000Y-72390000D03*
X87935000Y-72390000D03*
D16*
X90260000Y-72390000D03*
%TD*%
D24*
%TO.C,H6*%
X138430000Y-33020000D03*
%TD*%
D30*
%TO.C,J2*%
X210115000Y-120650000D03*
D31*
X210115000Y-123190000D03*
X210115000Y-125730000D03*
%TD*%
D32*
%TO.C,R1*%
X205240000Y-76200000D03*
X208165000Y-76200000D03*
%TD*%
%TO.C,R2*%
X205240000Y-80010000D03*
X208165000Y-80010000D03*
%TD*%
D17*
%TO.C,J4*%
X211940000Y-104140000D03*
X211940000Y-114300000D03*
D18*
X203050000Y-106050000D03*
D19*
X205590000Y-107320000D03*
X203050000Y-108590000D03*
X205590000Y-109860000D03*
X203050000Y-111130000D03*
X205590000Y-112400000D03*
%TD*%
M02*
