  0
SECTION
  2
HEADER
  9
$ANGBASE
  50
0.0
  9
$ANGDIR
  70
1
  9
$MEASUREMENT
  70
1
  0
ENDSEC
  0
SECTION
  2
TABLES
  0
TABLE
  2
LTYPE
  70
4
  0
LTYPE
  5
40F
  2
CONTINUOUS
  70
0
  3
Solid line
  72
65
  73
0
  40
0.0
  0
LTYPE
  5
410
  2
DASHDOT
 70
0
  3
Dash Dot ____ _ ____ _
 72
65
 73
4
 40
2.0
 49
1.25
 49
-0.25
 49
0.25
 49
-0.25
  0
LTYPE
  5
411
  2
DASHED
 70
0
  3
Dashed __ __ __ __ __
 72
65
 73
2
 40
0.75
 49
0.5
 49
-0.25
  0
LTYPE
  5
43B
  2
DOTTED
 70
0
  3
Dotted .  .  .  .
 72
65
 73
2
 40
0.2
 49
0.0
 49
-0.2
  0
ENDTAB
  0
TABLE
  2
STYLE
  70
4
  0
STYLE
  2
KICAD
  70
0
  40
0
  41
1
  42
1
  50
0
  71
0
  3
isocp.shx
  0
STYLE
  2
KICADB
  70
0
  40
0
  41
1
  42
1
  50
0
  71
0
  3
isocp.shx
  0
STYLE
  2
KICADI
  70
0
  40
0
  41
1
  42
1
  50
15
  71
0
  3
isocp.shx
  0
STYLE
  2
KICADBI
  70
0
  40
0
  41
1
  42
1
  50
15
  71
0
  3
isocp.shx
  0
ENDTAB
  0
TABLE
  2
LAYER
  70
1
  0
LAYER
  2
BLACK
  70
0
  62
7
  6
CONTINUOUS
  0
ENDTAB
  0
ENDSEC
  0
SECTION
  2
ENTITIES
0
ARC
8
BLACK
10
202.7516990000000021
20
-21.9899989999999974
40
25.0000001257799944
50
-116.56504996
51
-89.99999878
0
ARC
8
BLACK
10
156.2783000000000015
20
-54.654999999999994
40
25.0000006112541371
50
63.43495313
51
81.86990115
0
ARC
8
BLACK
10
35.3999999999999986
20
-130.9699999999999989
40
10.
50
-180.00000000
51
-90.00000000
0
LINE
8
BLACK
6
CONTINUOUS
10
53.4036299999999997
20
-38.2866879999999981
11
41.2717559999999963
21
-45.4230850000000004
0
LINE
8
BLACK
6
CONTINUOUS
10
158.75
20
-140.9699999999999989
11
159.2189319999999952
21
-140.9699999999999989
0
ARC
8
BLACK
10
225.3388999999999953
20
-151.1299999999999955
40
5.0000227604993963
50
-44.99974071
51
44.99974071
0
LINE
8
BLACK
6
CONTINUOUS
10
215.8999999999999773
20
-51.9899999999999949
11
215.8999999999999773
21
-124.2646609999999896
0
LINE
8
BLACK
6
CONTINUOUS
10
92.87839799999999
20
-25.2680009999999982
11
58.6222579999999951
21
-35.9730440000000016
0
LINE
8
BLACK
6
CONTINUOUS
10
31.0433259999999969
20
-56.9509690000000006
11
27.496067
21
-65.0589899999999943
0
ARC
8
BLACK
10
100.3352269999999891
20
-49.1296949999999981
40
24.9996957514241274
50
89.99989650
51
107.35413452
0
LINE
8
BLACK
6
CONTINUOUS
10
205.465533999999991
20
-178.074466000000001
11
228.874465999999984
21
-154.6655339999999796
0
LINE
8
BLACK
6
CONTINUOUS
10
159.8138329999999883
20
-29.9062619999999981
11
121.1388389999999902
21
-24.3812630000000006
0
ARC
8
BLACK
10
240.8999859999999842
20
-124.2646659999999912
40
24.9999861904433516
50
-180.00001297
51
-134.99998841
0
LINE
8
BLACK
6
CONTINUOUS
10
117.6033049999999918
20
-24.129999999999999
11
100.3352730000000008
21
-24.129999999999999
0
ARC
8
BLACK
10
53.9472799999999992
20
-66.9714589999999959
40
25.0000272252891378
50
120.46556505
51
156.37060069
0
LINE
8
BLACK
6
CONTINUOUS
10
162.7544659999999794
20
-142.4344659999999863
11
198.3944659999999942
21
-178.074466000000001
0
LINE
8
BLACK
6
CONTINUOUS
10
191.5713599999999985
20
-44.350679999999997
11
167.4586390000000051
21
-32.2943190000000016
0
ARC
8
BLACK
10
159.2188559999999882
20
-145.9701819999999941
40
5.0001820914720536
50
45.00086579
51
89.99913789
0
LINE
8
BLACK
6
CONTINUOUS
10
202.7516999999999996
20
-46.9899999999999949
11
210.8999999999999773
21
-46.9899999999999949
0
LINE
8
BLACK
6
CONTINUOUS
10
25.3999999999999986
20
-75.0794609999999949
11
25.3999999999999986
21
-130.9699999999999989
0
LINE
8
BLACK
6
CONTINUOUS
10
35.3999999999999986
20
-140.9699999999999989
11
158.75
21
-140.9699999999999989
0
ARC
8
BLACK
10
66.0791650000000033
20
-59.8351149999999947
40
25.0000783506997593
50
107.35404637
51
120.46552460
0
LINE
8
BLACK
6
CONTINUOUS
10
228.874465999999984
20
-147.5944659999999828
11
223.2223299999999995
21
-141.9423299999999983
0
ARC
8
BLACK
10
50.3999990000000011
20
-75.0794609999999949
40
24.9999996588938451
50
156.37061998
51
179.99999855
0
ARC
8
BLACK
10
210.8999999999999773
20
-51.9899999999999949
40
5.
50
-0.00000000
51
90.00000000
0
ARC
8
BLACK
10
117.6033019999999993
20
-49.1299999999999955
40
25.0000001911569996
50
81.86989214
51
89.99999471
0
ARC
8
BLACK
10
201.9299999999999784
20
-174.5389319999999884
40
5.0000001330311976
50
-135.00000000
51
-45.00000000
0
LINE
8
BLACK
6
CONTINUOUS
10
34.7090999999999994
20
-80.4290999999999912
11
36.410899999999998
21
-82.1308999999999969
0
LINE
8
BLACK
6
CONTINUOUS
10
36.410899999999998
20
-80.4290999999999912
11
34.7090999999999994
21
-82.1308999999999969
0
LINE
8
BLACK
6
CONTINUOUS
10
34.7090999999999994
20
-100.7490999999999985
11
36.410899999999998
21
-102.4508999999999901
0
LINE
8
BLACK
6
CONTINUOUS
10
36.410899999999998
20
-100.7490999999999985
11
34.7090999999999994
21
-102.4508999999999901
0
LINE
8
BLACK
6
CONTINUOUS
10
34.7090999999999994
20
-121.0690999999999917
11
36.410899999999998
21
-122.7708999999999975
0
LINE
8
BLACK
6
CONTINUOUS
10
36.410899999999998
20
-121.0690999999999917
11
34.7090999999999994
21
-122.7708999999999975
0
LINE
8
BLACK
6
CONTINUOUS
10
39.7890999999999977
20
-60.109099999999998
11
41.4908999999999963
21
-61.8108999999999966
0
LINE
8
BLACK
6
CONTINUOUS
10
41.4908999999999963
20
-60.109099999999998
11
39.7890999999999977
21
-61.8108999999999966
0
LINE
8
BLACK
6
CONTINUOUS
10
44.869099999999996
20
-80.4290999999999912
11
46.5708999999999946
21
-82.1308999999999969
0
LINE
8
BLACK
6
CONTINUOUS
10
46.5708999999999946
20
-80.4290999999999912
11
44.869099999999996
21
-82.1308999999999969
0
LINE
8
BLACK
6
CONTINUOUS
10
44.869099999999996
20
-100.7490999999999985
11
46.5708999999999946
21
-102.4508999999999901
0
LINE
8
BLACK
6
CONTINUOUS
10
46.5708999999999946
20
-100.7490999999999985
11
44.869099999999996
21
-102.4508999999999901
0
LINE
8
BLACK
6
CONTINUOUS
10
44.869099999999996
20
-121.0690999999999917
11
46.5708999999999946
21
-122.7708999999999975
0
LINE
8
BLACK
6
CONTINUOUS
10
46.5708999999999946
20
-121.0690999999999917
11
44.869099999999996
21
-122.7708999999999975
0
LINE
8
BLACK
6
CONTINUOUS
10
49.9490999999999943
20
-60.109099999999998
11
51.6509
21
-61.8108999999999966
0
LINE
8
BLACK
6
CONTINUOUS
10
51.6509
20
-60.109099999999998
11
49.9490999999999943
21
-61.8108999999999966
0
LINE
8
BLACK
6
CONTINUOUS
10
60.109099999999998
20
-47.4090999999999951
11
61.8108999999999966
21
-49.1109000000000009
0
LINE
8
BLACK
6
CONTINUOUS
10
61.8108999999999966
20
-47.4090999999999951
11
60.109099999999998
21
-49.1109000000000009
0
LINE
8
BLACK
6
CONTINUOUS
10
60.109099999999998
20
-67.7291000000000025
11
61.8108999999999966
21
-69.4308999999999941
0
LINE
8
BLACK
6
CONTINUOUS
10
61.8108999999999966
20
-67.7291000000000025
11
60.109099999999998
21
-69.4308999999999941
0
LINE
8
BLACK
6
CONTINUOUS
10
60.109099999999998
20
-88.0490999999999957
11
61.8108999999999966
21
-89.7509000000000015
0
LINE
8
BLACK
6
CONTINUOUS
10
61.8108999999999966
20
-88.0490999999999957
11
60.109099999999998
21
-89.7509000000000015
0
LINE
8
BLACK
6
CONTINUOUS
10
60.109099999999998
20
-108.3690999999999889
11
61.8108999999999966
21
-110.0708999999999946
0
LINE
8
BLACK
6
CONTINUOUS
10
61.8108999999999966
20
-108.3690999999999889
11
60.109099999999998
21
-110.0708999999999946
0
LINE
8
BLACK
6
CONTINUOUS
10
60.109099999999998
20
-128.6890999999999963
11
61.8108999999999966
21
-130.3908999999999878
0
LINE
8
BLACK
6
CONTINUOUS
10
61.8108999999999966
20
-128.6890999999999963
11
60.109099999999998
21
-130.3908999999999878
0
LINE
8
BLACK
6
CONTINUOUS
10
70.2690999999999946
20
-47.4090999999999951
11
71.9709000000000003
21
-49.1109000000000009
0
LINE
8
BLACK
6
CONTINUOUS
10
71.9709000000000003
20
-47.4090999999999951
11
70.2690999999999946
21
-49.1109000000000009
0
LINE
8
BLACK
6
CONTINUOUS
10
70.2690999999999946
20
-67.7291000000000025
11
71.9709000000000003
21
-69.4308999999999941
0
LINE
8
BLACK
6
CONTINUOUS
10
71.9709000000000003
20
-67.7291000000000025
11
70.2690999999999946
21
-69.4308999999999941
0
LINE
8
BLACK
6
CONTINUOUS
10
70.2690999999999946
20
-88.0490999999999957
11
71.9709000000000003
21
-89.7509000000000015
0
LINE
8
BLACK
6
CONTINUOUS
10
71.9709000000000003
20
-88.0490999999999957
11
70.2690999999999946
21
-89.7509000000000015
0
LINE
8
BLACK
6
CONTINUOUS
10
70.2690999999999946
20
-108.3690999999999889
11
71.9709000000000003
21
-110.0708999999999946
0
LINE
8
BLACK
6
CONTINUOUS
10
71.9709000000000003
20
-108.3690999999999889
11
70.2690999999999946
21
-110.0708999999999946
0
LINE
8
BLACK
6
CONTINUOUS
10
70.2690999999999946
20
-128.6890999999999963
11
71.9709000000000003
21
-130.3908999999999878
0
LINE
8
BLACK
6
CONTINUOUS
10
71.9709000000000003
20
-128.6890999999999963
11
70.2690999999999946
21
-130.3908999999999878
0
LINE
8
BLACK
6
CONTINUOUS
10
80.4290999999999912
20
-42.3290999999999968
11
82.1308999999999969
21
-44.0308999999999955
0
LINE
8
BLACK
6
CONTINUOUS
10
82.1308999999999969
20
-42.3290999999999968
11
80.4290999999999912
21
-44.0308999999999955
0
LINE
8
BLACK
6
CONTINUOUS
10
80.4290999999999912
20
-62.6490999999999971
11
82.1308999999999969
21
-64.3508999999999958
0
LINE
8
BLACK
6
CONTINUOUS
10
82.1308999999999969
20
-62.6490999999999971
11
80.4290999999999912
21
-64.3508999999999958
0
LINE
8
BLACK
6
CONTINUOUS
10
80.4290999999999912
20
-82.9690999999999974
11
82.1308999999999969
21
-84.6709000000000032
0
LINE
8
BLACK
6
CONTINUOUS
10
82.1308999999999969
20
-82.9690999999999974
11
80.4290999999999912
21
-84.6709000000000032
0
LINE
8
BLACK
6
CONTINUOUS
10
80.4290999999999912
20
-103.2890999999999906
11
82.1308999999999969
21
-104.9908999999999963
0
LINE
8
BLACK
6
CONTINUOUS
10
82.1308999999999969
20
-103.2890999999999906
11
80.4290999999999912
21
-104.9908999999999963
0
LINE
8
BLACK
6
CONTINUOUS
10
80.4290999999999912
20
-123.609099999999998
11
82.1308999999999969
21
-125.3108999999999895
0
LINE
8
BLACK
6
CONTINUOUS
10
82.1308999999999969
20
-123.609099999999998
11
80.4290999999999912
21
-125.3108999999999895
0
LINE
8
BLACK
6
CONTINUOUS
10
90.589100000000002
20
-42.3290999999999968
11
92.2908999999999935
21
-44.0308999999999955
0
LINE
8
BLACK
6
CONTINUOUS
10
92.2908999999999935
20
-42.3290999999999968
11
90.589100000000002
21
-44.0308999999999955
0
LINE
8
BLACK
6
CONTINUOUS
10
90.589100000000002
20
-62.6490999999999971
11
92.2908999999999935
21
-64.3508999999999958
0
LINE
8
BLACK
6
CONTINUOUS
10
92.2908999999999935
20
-62.6490999999999971
11
90.589100000000002
21
-64.3508999999999958
0
LINE
8
BLACK
6
CONTINUOUS
10
90.589100000000002
20
-82.9690999999999974
11
92.2908999999999935
21
-84.6709000000000032
0
LINE
8
BLACK
6
CONTINUOUS
10
92.2908999999999935
20
-82.9690999999999974
11
90.589100000000002
21
-84.6709000000000032
0
LINE
8
BLACK
6
CONTINUOUS
10
90.589100000000002
20
-103.2890999999999906
11
92.2908999999999935
21
-104.9908999999999963
0
LINE
8
BLACK
6
CONTINUOUS
10
92.2908999999999935
20
-103.2890999999999906
11
90.589100000000002
21
-104.9908999999999963
0
LINE
8
BLACK
6
CONTINUOUS
10
90.589100000000002
20
-123.609099999999998
11
92.2908999999999935
21
-125.3108999999999895
0
LINE
8
BLACK
6
CONTINUOUS
10
92.2908999999999935
20
-123.609099999999998
11
90.589100000000002
21
-125.3108999999999895
0
LINE
8
BLACK
6
CONTINUOUS
10
100.7490999999999985
20
-34.7090999999999994
11
102.4508999999999901
21
-36.410899999999998
0
LINE
8
BLACK
6
CONTINUOUS
10
102.4508999999999901
20
-34.7090999999999994
11
100.7490999999999985
21
-36.410899999999998
0
LINE
8
BLACK
6
CONTINUOUS
10
100.7490999999999985
20
-55.0290999999999997
11
102.4508999999999901
21
-56.7308999999999983
0
LINE
8
BLACK
6
CONTINUOUS
10
102.4508999999999901
20
-55.0290999999999997
11
100.7490999999999985
21
-56.7308999999999983
0
LINE
8
BLACK
6
CONTINUOUS
10
100.7490999999999985
20
-75.3572879999999969
11
102.4508999999999901
21
-77.0590880000000027
0
LINE
8
BLACK
6
CONTINUOUS
10
102.4508999999999901
20
-75.3572879999999969
11
100.7490999999999985
21
-77.0590880000000027
0
LINE
8
BLACK
6
CONTINUOUS
10
100.7490999999999985
20
-95.6691000000000003
11
102.4508999999999901
21
-97.3708999999999918
0
LINE
8
BLACK
6
CONTINUOUS
10
102.4508999999999901
20
-95.6691000000000003
11
100.7490999999999985
21
-97.3708999999999918
0
LINE
8
BLACK
6
CONTINUOUS
10
100.7490999999999985
20
-115.9890999999999934
11
102.4508999999999901
21
-117.6908999999999992
0
LINE
8
BLACK
6
CONTINUOUS
10
102.4508999999999901
20
-115.9890999999999934
11
100.7490999999999985
21
-117.6908999999999992
0
LINE
8
BLACK
6
CONTINUOUS
10
110.9090999999999951
20
-34.7090999999999994
11
112.6109000000000009
21
-36.410899999999998
0
LINE
8
BLACK
6
CONTINUOUS
10
112.6109000000000009
20
-34.7090999999999994
11
110.9090999999999951
21
-36.410899999999998
0
LINE
8
BLACK
6
CONTINUOUS
10
110.9090999999999951
20
-55.0290999999999997
11
112.6109000000000009
21
-56.7308999999999983
0
LINE
8
BLACK
6
CONTINUOUS
10
112.6109000000000009
20
-55.0290999999999997
11
110.9090999999999951
21
-56.7308999999999983
0
LINE
8
BLACK
6
CONTINUOUS
10
110.9090999999999951
20
-75.3572879999999969
11
112.6109000000000009
21
-77.0590880000000027
0
LINE
8
BLACK
6
CONTINUOUS
10
112.6109000000000009
20
-75.3572879999999969
11
110.9090999999999951
21
-77.0590880000000027
0
LINE
8
BLACK
6
CONTINUOUS
10
110.9090999999999951
20
-95.6691000000000003
11
112.6109000000000009
21
-97.3708999999999918
0
LINE
8
BLACK
6
CONTINUOUS
10
112.6109000000000009
20
-95.6691000000000003
11
110.9090999999999951
21
-97.3708999999999918
0
LINE
8
BLACK
6
CONTINUOUS
10
110.9090999999999951
20
-115.9890999999999934
11
112.6109000000000009
21
-117.6908999999999992
0
LINE
8
BLACK
6
CONTINUOUS
10
112.6109000000000009
20
-115.9890999999999934
11
110.9090999999999951
21
-117.6908999999999992
0
LINE
8
BLACK
6
CONTINUOUS
10
121.0690999999999917
20
-37.2490999999999985
11
122.7708999999999975
21
-38.9508999999999972
0
LINE
8
BLACK
6
CONTINUOUS
10
122.7708999999999975
20
-37.2490999999999985
11
121.0690999999999917
21
-38.9508999999999972
0
LINE
8
BLACK
6
CONTINUOUS
10
121.0690999999999917
20
-57.5690999999999988
11
122.7708999999999975
21
-59.2708999999999975
0
LINE
8
BLACK
6
CONTINUOUS
10
122.7708999999999975
20
-57.5690999999999988
11
121.0690999999999917
21
-59.2708999999999975
0
LINE
8
BLACK
6
CONTINUOUS
10
121.0690999999999917
20
-77.8890999999999991
11
122.7708999999999975
21
-79.5908999999999907
0
LINE
8
BLACK
6
CONTINUOUS
10
122.7708999999999975
20
-77.8890999999999991
11
121.0690999999999917
21
-79.5908999999999907
0
LINE
8
BLACK
6
CONTINUOUS
10
121.0690999999999917
20
-98.2090999999999923
11
122.7708999999999975
21
-99.910899999999998
0
LINE
8
BLACK
6
CONTINUOUS
10
122.7708999999999975
20
-98.2090999999999923
11
121.0690999999999917
21
-99.910899999999998
0
LINE
8
BLACK
6
CONTINUOUS
10
121.0690999999999917
20
-118.5290999999999997
11
122.7708999999999975
21
-120.2308999999999912
0
LINE
8
BLACK
6
CONTINUOUS
10
122.7708999999999975
20
-118.5290999999999997
11
121.0690999999999917
21
-120.2308999999999912
0
LINE
8
BLACK
6
CONTINUOUS
10
131.2290999999999883
20
-37.2490999999999985
11
132.9308999999999799
21
-38.9508999999999972
0
LINE
8
BLACK
6
CONTINUOUS
10
132.9308999999999799
20
-37.2490999999999985
11
131.2290999999999883
21
-38.9508999999999972
0
LINE
8
BLACK
6
CONTINUOUS
10
131.2290999999999883
20
-57.5690999999999988
11
132.9308999999999799
21
-59.2708999999999975
0
LINE
8
BLACK
6
CONTINUOUS
10
132.9308999999999799
20
-57.5690999999999988
11
131.2290999999999883
21
-59.2708999999999975
0
LINE
8
BLACK
6
CONTINUOUS
10
131.2290999999999883
20
-77.8890999999999991
11
132.9308999999999799
21
-79.5908999999999907
0
LINE
8
BLACK
6
CONTINUOUS
10
132.9308999999999799
20
-77.8890999999999991
11
131.2290999999999883
21
-79.5908999999999907
0
LINE
8
BLACK
6
CONTINUOUS
10
131.2290999999999883
20
-98.2090999999999923
11
132.9308999999999799
21
-99.910899999999998
0
LINE
8
BLACK
6
CONTINUOUS
10
132.9308999999999799
20
-98.2090999999999923
11
131.2290999999999883
21
-99.910899999999998
0
LINE
8
BLACK
6
CONTINUOUS
10
131.2290999999999883
20
-118.5290999999999997
11
132.9308999999999799
21
-120.2308999999999912
0
LINE
8
BLACK
6
CONTINUOUS
10
132.9308999999999799
20
-118.5290999999999997
11
131.2290999999999883
21
-120.2308999999999912
0
LINE
8
BLACK
6
CONTINUOUS
10
141.3890999999999849
20
-42.3290999999999968
11
143.0909000000000049
21
-44.0308999999999955
0
LINE
8
BLACK
6
CONTINUOUS
10
143.0909000000000049
20
-42.3290999999999968
11
141.3890999999999849
21
-44.0308999999999955
0
LINE
8
BLACK
6
CONTINUOUS
10
141.3890999999999849
20
-62.6490999999999971
11
143.0909000000000049
21
-64.3508999999999958
0
LINE
8
BLACK
6
CONTINUOUS
10
143.0909000000000049
20
-62.6490999999999971
11
141.3890999999999849
21
-64.3508999999999958
0
LINE
8
BLACK
6
CONTINUOUS
10
141.3890999999999849
20
-82.9690999999999974
11
143.0909000000000049
21
-84.6709000000000032
0
LINE
8
BLACK
6
CONTINUOUS
10
143.0909000000000049
20
-82.9690999999999974
11
141.3890999999999849
21
-84.6709000000000032
0
LINE
8
BLACK
6
CONTINUOUS
10
141.3890999999999849
20
-103.2890999999999906
11
143.0909000000000049
21
-104.9908999999999963
0
LINE
8
BLACK
6
CONTINUOUS
10
143.0909000000000049
20
-103.2890999999999906
11
141.3890999999999849
21
-104.9908999999999963
0
LINE
8
BLACK
6
CONTINUOUS
10
141.3890999999999849
20
-123.609099999999998
11
143.0909000000000049
21
-125.3108999999999895
0
LINE
8
BLACK
6
CONTINUOUS
10
143.0909000000000049
20
-123.609099999999998
11
141.3890999999999849
21
-125.3108999999999895
0
LINE
8
BLACK
6
CONTINUOUS
10
151.5490999999999815
20
-42.3290999999999968
11
153.2509000000000015
21
-44.0308999999999955
0
LINE
8
BLACK
6
CONTINUOUS
10
153.2509000000000015
20
-42.3290999999999968
11
151.5490999999999815
21
-44.0308999999999955
0
LINE
8
BLACK
6
CONTINUOUS
10
151.5490999999999815
20
-62.6490999999999971
11
153.2509000000000015
21
-64.3508999999999958
0
LINE
8
BLACK
6
CONTINUOUS
10
153.2509000000000015
20
-62.6490999999999971
11
151.5490999999999815
21
-64.3508999999999958
0
LINE
8
BLACK
6
CONTINUOUS
10
151.5490999999999815
20
-82.9690999999999974
11
153.2509000000000015
21
-84.6709000000000032
0
LINE
8
BLACK
6
CONTINUOUS
10
153.2509000000000015
20
-82.9690999999999974
11
151.5490999999999815
21
-84.6709000000000032
0
LINE
8
BLACK
6
CONTINUOUS
10
151.5490999999999815
20
-103.2890999999999906
11
153.2509000000000015
21
-104.9908999999999963
0
LINE
8
BLACK
6
CONTINUOUS
10
153.2509000000000015
20
-103.2890999999999906
11
151.5490999999999815
21
-104.9908999999999963
0
LINE
8
BLACK
6
CONTINUOUS
10
151.5490999999999815
20
-123.609099999999998
11
153.2509000000000015
21
-125.3108999999999895
0
LINE
8
BLACK
6
CONTINUOUS
10
153.2509000000000015
20
-123.609099999999998
11
151.5490999999999815
21
-125.3108999999999895
0
LINE
8
BLACK
6
CONTINUOUS
10
161.7091000000000065
20
-47.4090999999999951
11
163.410899999999998
21
-49.1109000000000009
0
LINE
8
BLACK
6
CONTINUOUS
10
163.410899999999998
20
-47.4090999999999951
11
161.7091000000000065
21
-49.1109000000000009
0
LINE
8
BLACK
6
CONTINUOUS
10
161.7091000000000065
20
-67.7291000000000025
11
163.410899999999998
21
-69.4308999999999941
0
LINE
8
BLACK
6
CONTINUOUS
10
163.410899999999998
20
-67.7291000000000025
11
161.7091000000000065
21
-69.4308999999999941
0
LINE
8
BLACK
6
CONTINUOUS
10
161.7091000000000065
20
-88.0490999999999957
11
163.410899999999998
21
-89.7509000000000015
0
LINE
8
BLACK
6
CONTINUOUS
10
163.410899999999998
20
-88.0490999999999957
11
161.7091000000000065
21
-89.7509000000000015
0
LINE
8
BLACK
6
CONTINUOUS
10
161.7091000000000065
20
-108.3690999999999889
11
163.410899999999998
21
-110.0708999999999946
0
LINE
8
BLACK
6
CONTINUOUS
10
163.410899999999998
20
-108.3690999999999889
11
161.7091000000000065
21
-110.0708999999999946
0
LINE
8
BLACK
6
CONTINUOUS
10
169.4297640000000058
20
-139.5943529999999839
11
171.1315639999999973
21
-141.2961530000000039
0
LINE
8
BLACK
6
CONTINUOUS
10
171.1315639999999973
20
-139.5943529999999839
11
169.4297640000000058
21
-141.2961530000000039
0
LINE
8
BLACK
6
CONTINUOUS
10
171.8691000000000031
20
-47.4090999999999951
11
173.5708999999999946
21
-49.1109000000000009
0
LINE
8
BLACK
6
CONTINUOUS
10
173.5708999999999946
20
-47.4090999999999951
11
171.8691000000000031
21
-49.1109000000000009
0
LINE
8
BLACK
6
CONTINUOUS
10
171.8691000000000031
20
-67.7291000000000025
11
173.5708999999999946
21
-69.4308999999999941
0
LINE
8
BLACK
6
CONTINUOUS
10
173.5708999999999946
20
-67.7291000000000025
11
171.8691000000000031
21
-69.4308999999999941
0
LINE
8
BLACK
6
CONTINUOUS
10
171.8691000000000031
20
-88.0490999999999957
11
173.5708999999999946
21
-89.7509000000000015
0
LINE
8
BLACK
6
CONTINUOUS
10
173.5708999999999946
20
-88.0490999999999957
11
171.8691000000000031
21
-89.7509000000000015
0
LINE
8
BLACK
6
CONTINUOUS
10
171.8691000000000031
20
-108.3690999999999889
11
173.5708999999999946
21
-110.0708999999999946
0
LINE
8
BLACK
6
CONTINUOUS
10
173.5708999999999946
20
-108.3690999999999889
11
171.8691000000000031
21
-110.0708999999999946
0
LINE
8
BLACK
6
CONTINUOUS
10
176.6139679999999998
20
-132.4101489999999899
11
178.3157679999999914
21
-134.1119489999999814
0
LINE
8
BLACK
6
CONTINUOUS
10
178.3157679999999914
20
-132.4101489999999899
11
176.6139679999999998
21
-134.1119489999999814
0
LINE
8
BLACK
6
CONTINUOUS
10
182.0290999999999997
20
-57.5690999999999988
11
183.7308999999999912
21
-59.2708999999999975
0
LINE
8
BLACK
6
CONTINUOUS
10
183.7308999999999912
20
-57.5690999999999988
11
182.0290999999999997
21
-59.2708999999999975
0
LINE
8
BLACK
6
CONTINUOUS
10
182.0290999999999997
20
-78.2606999999999999
11
183.7308999999999912
21
-79.9624999999999915
0
LINE
8
BLACK
6
CONTINUOUS
10
183.7308999999999912
20
-78.2606999999999999
11
182.0290999999999997
21
-79.9624999999999915
0
LINE
8
BLACK
6
CONTINUOUS
10
182.0290999999999997
20
-98.2090999999999923
11
183.7308999999999912
21
-99.910899999999998
0
LINE
8
BLACK
6
CONTINUOUS
10
183.7308999999999912
20
-98.2090999999999923
11
182.0290999999999997
21
-99.910899999999998
0
LINE
8
BLACK
6
CONTINUOUS
10
183.1818659999999852
20
-125.8422509999999903
11
184.8836660000000052
21
-127.5440509999999961
0
LINE
8
BLACK
6
CONTINUOUS
10
184.8836660000000052
20
-125.8422509999999903
11
183.1818659999999852
21
-127.5440509999999961
0
LINE
8
BLACK
6
CONTINUOUS
10
183.516998000000001
20
-153.8712019999999825
11
185.2187979999999925
21
-155.5730020000000025
0
LINE
8
BLACK
6
CONTINUOUS
10
185.2187979999999925
20
-153.8712019999999825
11
183.516998000000001
21
-155.5730020000000025
0
LINE
8
BLACK
6
CONTINUOUS
10
190.3660699999999792
20
-118.6580469999999963
11
192.0678699999999992
21
-120.3598469999999878
0
LINE
8
BLACK
6
CONTINUOUS
10
192.0678699999999992
20
-118.6580469999999963
11
190.3660699999999792
21
-120.3598469999999878
0
LINE
8
BLACK
6
CONTINUOUS
10
190.701201999999995
20
-146.6869979999999885
11
192.4030019999999865
21
-148.38879799999998
0
LINE
8
BLACK
6
CONTINUOUS
10
192.4030019999999865
20
-146.6869979999999885
11
190.701201999999995
21
-148.38879799999998
0
LINE
8
BLACK
6
CONTINUOUS
10
192.1890999999999963
20
-57.5690999999999988
11
193.8908999999999878
21
-59.2708999999999975
0
LINE
8
BLACK
6
CONTINUOUS
10
193.8908999999999878
20
-57.5690999999999988
11
192.1890999999999963
21
-59.2708999999999975
0
LINE
8
BLACK
6
CONTINUOUS
10
192.1890999999999963
20
-78.2606999999999999
11
193.8908999999999878
21
-79.9624999999999915
0
LINE
8
BLACK
6
CONTINUOUS
10
193.8908999999999878
20
-78.2606999999999999
11
192.1890999999999963
21
-79.9624999999999915
0
LINE
8
BLACK
6
CONTINUOUS
10
192.1890999999999963
20
-98.2090999999999923
11
193.8908999999999878
21
-99.910899999999998
0
LINE
8
BLACK
6
CONTINUOUS
10
193.8908999999999878
20
-98.2090999999999923
11
192.1890999999999963
21
-99.910899999999998
0
LINE
8
BLACK
6
CONTINUOUS
10
197.4869979999999998
20
-139.9012019999999836
11
199.1887979999999914
21
-141.6030020000000036
0
LINE
8
BLACK
6
CONTINUOUS
10
199.1887979999999914
20
-139.9012019999999836
11
197.4869979999999998
21
-141.6030020000000036
0
LINE
8
BLACK
6
CONTINUOUS
10
197.4869979999999998
20
-167.8412019999999814
11
199.1887979999999914
21
-169.5430020000000013
0
LINE
8
BLACK
6
CONTINUOUS
10
199.1887979999999914
20
-167.8412019999999814
11
197.4869979999999998
21
-169.5430020000000013
0
LINE
8
BLACK
6
CONTINUOUS
10
204.6712019999999939
20
-132.7169979999999896
11
206.3730019999999854
21
-134.4187979999999811
0
LINE
8
BLACK
6
CONTINUOUS
10
206.3730019999999854
20
-132.7169979999999896
11
204.6712019999999939
21
-134.4187979999999811
0
LINE
8
BLACK
6
CONTINUOUS
10
204.6712019999999939
20
-160.6569979999999873
11
206.3730019999999854
21
-162.3587979999999789
0
LINE
8
BLACK
6
CONTINUOUS
10
206.3730019999999854
20
-160.6569979999999873
11
204.6712019999999939
21
-162.3587979999999789
0
LINE
8
BLACK
6
CONTINUOUS
10
211.4569979999999987
20
-153.8712019999999825
11
213.1587979999999902
21
-155.5730020000000025
0
LINE
8
BLACK
6
CONTINUOUS
10
213.1587979999999902
20
-153.8712019999999825
11
211.4569979999999987
21
-155.5730020000000025
0
LINE
8
BLACK
6
CONTINUOUS
10
218.6412019999999927
20
-146.6869979999999885
11
220.3430019999999843
21
-148.38879799999998
0
LINE
8
BLACK
6
CONTINUOUS
10
220.3430019999999843
20
-146.6869979999999885
11
218.6412019999999927
21
-148.38879799999998
0
CIRCLE
8
BLACK
10
211.9399999999999977
20
-93.9799999999999898
40
1.625
0
CIRCLE
8
BLACK
10
211.9399999999999977
20
-104.1400000000000006
40
1.625
0
CIRCLE
8
BLACK
10
211.9399999999999977
20
-104.1400000000000006
40
1.625
0
CIRCLE
8
BLACK
10
211.9399999999999977
20
-114.2999999999999972
40
1.625
0
LINE
8
BLACK
6
CONTINUOUS
10
40.6400000000000006
20
-79.2860999999999905
11
40.6400000000000006
21
-83.2738999999999976
0
LINE
8
BLACK
6
CONTINUOUS
10
38.646099999999997
20
-81.2800000000000011
11
42.633899999999997
21
-81.2800000000000011
0
LINE
8
BLACK
6
CONTINUOUS
10
40.6400000000000006
20
-99.6060999999999979
11
40.6400000000000006
21
-103.5938999999999908
0
LINE
8
BLACK
6
CONTINUOUS
10
38.646099999999997
20
-101.5999999999999943
11
42.633899999999997
21
-101.5999999999999943
0
LINE
8
BLACK
6
CONTINUOUS
10
40.6400000000000006
20
-119.926099999999991
11
40.6400000000000006
21
-123.9138999999999982
0
LINE
8
BLACK
6
CONTINUOUS
10
38.646099999999997
20
-121.9199999999999875
11
42.633899999999997
21
-121.9199999999999875
0
LINE
8
BLACK
6
CONTINUOUS
10
45.7199999999999989
20
-58.9660999999999973
11
45.7199999999999989
21
-62.9538999999999973
0
LINE
8
BLACK
6
CONTINUOUS
10
43.7260999999999953
20
-60.9599999999999937
11
47.7138999999999953
21
-60.9599999999999937
0
LINE
8
BLACK
6
CONTINUOUS
10
66.039999999999992
20
-46.2660999999999945
11
66.039999999999992
21
-50.2538999999999945
0
LINE
8
BLACK
6
CONTINUOUS
10
64.0460999999999956
20
-48.259999999999998
11
68.0339000000000027
21
-48.259999999999998
0
LINE
8
BLACK
6
CONTINUOUS
10
66.039999999999992
20
-66.5861000000000018
11
66.039999999999992
21
-70.5738999999999947
0
LINE
8
BLACK
6
CONTINUOUS
10
64.0460999999999956
20
-68.5799999999999983
11
68.0339000000000027
21
-68.5799999999999983
0
LINE
8
BLACK
6
CONTINUOUS
10
66.039999999999992
20
-86.906099999999995
11
66.039999999999992
21
-90.8939000000000021
0
LINE
8
BLACK
6
CONTINUOUS
10
64.0460999999999956
20
-88.8999999999999915
11
68.0339000000000027
21
-88.8999999999999915
0
LINE
8
BLACK
6
CONTINUOUS
10
66.039999999999992
20
-107.2260999999999882
11
66.039999999999992
21
-111.2138999999999953
0
LINE
8
BLACK
6
CONTINUOUS
10
64.0460999999999956
20
-109.2199999999999989
11
68.0339000000000027
21
-109.2199999999999989
0
LINE
8
BLACK
6
CONTINUOUS
10
66.039999999999992
20
-127.5460999999999956
11
66.039999999999992
21
-131.5338999999999885
0
LINE
8
BLACK
6
CONTINUOUS
10
64.0460999999999956
20
-129.539999999999992
11
68.0339000000000027
21
-129.539999999999992
0
LINE
8
BLACK
6
CONTINUOUS
10
86.3599999999999994
20
-41.1860999999999962
11
86.3599999999999994
21
-45.1738999999999962
0
LINE
8
BLACK
6
CONTINUOUS
10
84.366100000000003
20
-43.1799999999999997
11
88.3538999999999959
21
-43.1799999999999997
0
LINE
8
BLACK
6
CONTINUOUS
10
86.3599999999999994
20
-61.5060999999999964
11
86.3599999999999994
21
-65.4938999999999965
0
LINE
8
BLACK
6
CONTINUOUS
10
84.366100000000003
20
-63.5
11
88.3538999999999959
21
-63.5
0
LINE
8
BLACK
6
CONTINUOUS
10
86.3599999999999994
20
-81.8260999999999967
11
86.3599999999999994
21
-85.8138999999999896
0
LINE
8
BLACK
6
CONTINUOUS
10
84.366100000000003
20
-83.8199999999999932
11
88.3538999999999959
21
-83.8199999999999932
0
LINE
8
BLACK
6
CONTINUOUS
10
86.3599999999999994
20
-102.1460999999999899
11
86.3599999999999994
21
-106.133899999999997
0
LINE
8
BLACK
6
CONTINUOUS
10
84.366100000000003
20
-104.1400000000000006
11
88.3538999999999959
21
-104.1400000000000006
0
LINE
8
BLACK
6
CONTINUOUS
10
86.3599999999999994
20
-122.4660999999999973
11
86.3599999999999994
21
-126.4538999999999902
0
LINE
8
BLACK
6
CONTINUOUS
10
84.366100000000003
20
-124.4599999999999937
11
88.3538999999999959
21
-124.4599999999999937
0
LINE
8
BLACK
6
CONTINUOUS
10
106.6799999999999926
20
-33.5660999999999987
11
106.6799999999999926
21
-37.5538999999999987
0
LINE
8
BLACK
6
CONTINUOUS
10
104.6860999999999962
20
-35.5599999999999952
11
108.6738999999999891
21
-35.5599999999999952
0
LINE
8
BLACK
6
CONTINUOUS
10
106.6799999999999926
20
-53.886099999999999
11
106.6799999999999926
21
-57.873899999999999
0
LINE
8
BLACK
6
CONTINUOUS
10
104.6860999999999962
20
-55.8799999999999955
11
108.6738999999999891
21
-55.8799999999999955
0
LINE
8
BLACK
6
CONTINUOUS
10
106.6799999999999926
20
-74.2142879999999963
11
106.6799999999999926
21
-78.2020880000000034
0
LINE
8
BLACK
6
CONTINUOUS
10
104.6860999999999962
20
-76.2081879999999927
11
108.6738999999999891
21
-76.2081879999999927
0
LINE
8
BLACK
6
CONTINUOUS
10
106.6799999999999926
20
-94.5260999999999996
11
106.6799999999999926
21
-98.5138999999999925
0
LINE
8
BLACK
6
CONTINUOUS
10
104.6860999999999962
20
-96.519999999999996
11
108.6738999999999891
21
-96.519999999999996
0
LINE
8
BLACK
6
CONTINUOUS
10
106.6799999999999926
20
-114.8460999999999927
11
106.6799999999999926
21
-118.8338999999999999
0
LINE
8
BLACK
6
CONTINUOUS
10
104.6860999999999962
20
-116.8399999999999892
11
108.6738999999999891
21
-116.8399999999999892
0
LINE
8
BLACK
6
CONTINUOUS
10
127.
20
-36.1060999999999979
11
127.
21
-40.0938999999999979
0
LINE
8
BLACK
6
CONTINUOUS
10
125.0060999999999893
20
-38.1000000000000014
11
128.9938999999999965
21
-38.1000000000000014
0
LINE
8
BLACK
6
CONTINUOUS
10
127.
20
-56.4260999999999981
11
127.
21
-60.4138999999999982
0
LINE
8
BLACK
6
CONTINUOUS
10
125.0060999999999893
20
-58.4199999999999946
11
128.9938999999999965
21
-58.4199999999999946
0
LINE
8
BLACK
6
CONTINUOUS
10
127.
20
-76.7460999999999984
11
127.
21
-80.7338999999999913
0
LINE
8
BLACK
6
CONTINUOUS
10
125.0060999999999893
20
-78.7399999999999949
11
128.9938999999999965
21
-78.7399999999999949
0
LINE
8
BLACK
6
CONTINUOUS
10
127.
20
-97.0660999999999916
11
127.
21
-101.0538999999999987
0
LINE
8
BLACK
6
CONTINUOUS
10
125.0060999999999893
20
-99.0600000000000023
11
128.9938999999999965
21
-99.0600000000000023
0
LINE
8
BLACK
6
CONTINUOUS
10
127.
20
-117.386099999999999
11
127.
21
-121.3738999999999919
0
LINE
8
BLACK
6
CONTINUOUS
10
125.0060999999999893
20
-119.3799999999999955
11
128.9938999999999965
21
-119.3799999999999955
0
LINE
8
BLACK
6
CONTINUOUS
10
147.3199999999999932
20
-41.1860999999999962
11
147.3199999999999932
21
-45.1738999999999962
0
LINE
8
BLACK
6
CONTINUOUS
10
145.3260999999999967
20
-43.1799999999999997
11
149.3138999999999896
21
-43.1799999999999997
0
LINE
8
BLACK
6
CONTINUOUS
10
147.3199999999999932
20
-61.5060999999999964
11
147.3199999999999932
21
-65.4938999999999965
0
LINE
8
BLACK
6
CONTINUOUS
10
145.3260999999999967
20
-63.5
11
149.3138999999999896
21
-63.5
0
LINE
8
BLACK
6
CONTINUOUS
10
147.3199999999999932
20
-81.8260999999999967
11
147.3199999999999932
21
-85.8138999999999896
0
LINE
8
BLACK
6
CONTINUOUS
10
145.3260999999999967
20
-83.8199999999999932
11
149.3138999999999896
21
-83.8199999999999932
0
LINE
8
BLACK
6
CONTINUOUS
10
147.3199999999999932
20
-102.1460999999999899
11
147.3199999999999932
21
-106.133899999999997
0
LINE
8
BLACK
6
CONTINUOUS
10
145.3260999999999967
20
-104.1400000000000006
11
149.3138999999999896
21
-104.1400000000000006
0
LINE
8
BLACK
6
CONTINUOUS
10
147.3199999999999932
20
-122.4660999999999973
11
147.3199999999999932
21
-126.4538999999999902
0
LINE
8
BLACK
6
CONTINUOUS
10
145.3260999999999967
20
-124.4599999999999937
11
149.3138999999999896
21
-124.4599999999999937
0
LINE
8
BLACK
6
CONTINUOUS
10
167.6399999999999864
20
-46.2660999999999945
11
167.6399999999999864
21
-50.2538999999999945
0
LINE
8
BLACK
6
CONTINUOUS
10
165.6460999999999899
20
-48.259999999999998
11
169.6338999999999828
21
-48.259999999999998
0
LINE
8
BLACK
6
CONTINUOUS
10
167.6399999999999864
20
-66.5861000000000018
11
167.6399999999999864
21
-70.5738999999999947
0
LINE
8
BLACK
6
CONTINUOUS
10
165.6460999999999899
20
-68.5799999999999983
11
169.6338999999999828
21
-68.5799999999999983
0
LINE
8
BLACK
6
CONTINUOUS
10
167.6399999999999864
20
-86.906099999999995
11
167.6399999999999864
21
-90.8939000000000021
0
LINE
8
BLACK
6
CONTINUOUS
10
165.6460999999999899
20
-88.8999999999999915
11
169.6338999999999828
21
-88.8999999999999915
0
LINE
8
BLACK
6
CONTINUOUS
10
167.6399999999999864
20
-107.2260999999999882
11
167.6399999999999864
21
-111.2138999999999953
0
LINE
8
BLACK
6
CONTINUOUS
10
165.6460999999999899
20
-109.2199999999999989
11
169.6338999999999828
21
-109.2199999999999989
0
LINE
8
BLACK
6
CONTINUOUS
10
173.8727659999999844
20
-134.8592510000000004
11
173.8727659999999844
21
-138.8470509999999933
0
LINE
8
BLACK
6
CONTINUOUS
10
171.8788659999999879
20
-136.8531509999999969
11
175.8666659999999808
21
-136.8531509999999969
0
LINE
8
BLACK
6
CONTINUOUS
10
187.6248679999999922
20
-121.1071489999999926
11
187.6248679999999922
21
-125.0949489999999997
0
LINE
8
BLACK
6
CONTINUOUS
10
185.6309679999999958
20
-123.1010489999999891
11
189.6187679999999887
21
-123.1010489999999891
0
LINE
8
BLACK
6
CONTINUOUS
10
187.9599999999999795
20
-56.4260999999999981
11
187.9599999999999795
21
-60.4138999999999982
0
LINE
8
BLACK
6
CONTINUOUS
10
185.9660999999999831
20
-58.4199999999999946
11
189.9539000000000044
21
-58.4199999999999946
0
LINE
8
BLACK
6
CONTINUOUS
10
187.9599999999999795
20
-77.1176999999999992
11
187.9599999999999795
21
-81.1054999999999922
0
LINE
8
BLACK
6
CONTINUOUS
10
185.9660999999999831
20
-79.1115999999999957
11
189.9539000000000044
21
-79.1115999999999957
0
LINE
8
BLACK
6
CONTINUOUS
10
187.9599999999999795
20
-97.0660999999999916
11
187.9599999999999795
21
-101.0538999999999987
0
LINE
8
BLACK
6
CONTINUOUS
10
185.9660999999999831
20
-99.0600000000000023
11
189.9539000000000044
21
-99.0600000000000023
0
LINE
8
BLACK
6
CONTINUOUS
10
187.9599999999999795
20
-149.136099999999999
11
187.9599999999999795
21
-153.1238999999999919
0
LINE
8
BLACK
6
CONTINUOUS
10
185.9660999999999831
20
-151.1299999999999955
11
189.9539000000000044
21
-151.1299999999999955
0
LINE
8
BLACK
6
CONTINUOUS
10
201.9299999999999784
20
-135.1661000000000001
11
201.9299999999999784
21
-139.153899999999993
0
LINE
8
BLACK
6
CONTINUOUS
10
199.9360999999999819
20
-137.1599999999999966
11
203.9239000000000033
21
-137.1599999999999966
0
LINE
8
BLACK
6
CONTINUOUS
10
201.9299999999999784
20
-163.1060999999999979
11
201.9299999999999784
21
-167.0938999999999908
0
LINE
8
BLACK
6
CONTINUOUS
10
199.9360999999999819
20
-165.0999999999999943
11
203.9239000000000033
21
-165.0999999999999943
0
LINE
8
BLACK
6
CONTINUOUS
10
215.8999999999999773
20
-149.136099999999999
11
215.8999999999999773
21
-153.1238999999999919
0
LINE
8
BLACK
6
CONTINUOUS
10
213.9060999999999808
20
-151.1299999999999955
11
217.8939000000000021
21
-151.1299999999999955
0
LINE
8
BLACK
6
CONTINUOUS
10
27.957767999999998
20
-182.7037699999999916
11
27.957767999999998
21
-180.7037699999999916
0
LINE
8
BLACK
6
CONTINUOUS
10
27.957767999999998
20
-180.7037699999999916
11
28.433957999999997
21
-180.7037699999999916
0
LINE
8
BLACK
6
CONTINUOUS
10
28.433957999999997
20
-180.7037699999999916
11
28.7196730000000002
21
-180.7990079999999864
0
LINE
8
BLACK
6
CONTINUOUS
10
28.7196730000000002
20
-180.7990079999999864
11
28.910148999999997
21
-180.9894840000000045
0
LINE
8
BLACK
6
CONTINUOUS
10
28.910148999999997
20
-180.9894840000000045
11
29.0053869999999989
21
-181.1799599999999941
0
LINE
8
BLACK
6
CONTINUOUS
10
29.0053869999999989
20
-181.1799599999999941
11
29.1006249999999973
21
-181.5609120000000019
0
LINE
8
BLACK
6
CONTINUOUS
10
29.1006249999999973
20
-181.5609120000000019
11
29.1006249999999973
21
-181.8466269999999838
0
LINE
8
BLACK
6
CONTINUOUS
10
29.1006249999999973
20
-181.8466269999999838
11
29.0053869999999989
21
-182.2275789999999915
0
LINE
8
BLACK
6
CONTINUOUS
10
29.0053869999999989
20
-182.2275789999999915
11
28.910148999999997
21
-182.4180549999999812
0
LINE
8
BLACK
6
CONTINUOUS
10
28.910148999999997
20
-182.4180549999999812
11
28.7196730000000002
21
-182.6085319999999967
0
LINE
8
BLACK
6
CONTINUOUS
10
28.7196730000000002
20
-182.6085319999999967
11
28.433957999999997
21
-182.7037699999999916
0
LINE
8
BLACK
6
CONTINUOUS
10
28.433957999999997
20
-182.7037699999999916
11
27.957767999999998
21
-182.7037699999999916
0
LINE
8
BLACK
6
CONTINUOUS
10
29.957767999999998
20
-182.7037699999999916
11
29.957767999999998
21
-181.3704359999999838
0
LINE
8
BLACK
6
CONTINUOUS
10
29.957767999999998
20
-181.751388999999989
11
30.0530059999999999
21
-181.5609120000000019
0
LINE
8
BLACK
6
CONTINUOUS
10
30.0530059999999999
20
-181.5609120000000019
11
30.1482439999999983
21
-181.4656739999999786
0
LINE
8
BLACK
6
CONTINUOUS
10
30.1482439999999983
20
-181.4656739999999786
11
30.3387199999999986
21
-181.3704359999999838
0
LINE
8
BLACK
6
CONTINUOUS
10
30.3387199999999986
20
-181.3704359999999838
11
30.5291969999999999
21
-181.3704359999999838
0
LINE
8
BLACK
6
CONTINUOUS
10
31.1958629999999992
20
-182.7037699999999916
11
31.1958629999999992
21
-181.3704359999999838
0
LINE
8
BLACK
6
CONTINUOUS
10
31.1958629999999992
20
-180.7037699999999916
11
31.1006249999999973
21
-180.7990079999999864
0
LINE
8
BLACK
6
CONTINUOUS
10
31.1006249999999973
20
-180.7990079999999864
11
31.1958629999999992
21
-180.8942459999999812
0
LINE
8
BLACK
6
CONTINUOUS
10
31.1958629999999992
20
-180.8942459999999812
11
31.2911009999999976
21
-180.7990079999999864
0
LINE
8
BLACK
6
CONTINUOUS
10
31.2911009999999976
20
-180.7990079999999864
11
31.1958629999999992
21
-180.7037699999999916
0
LINE
8
BLACK
6
CONTINUOUS
10
31.1958629999999992
20
-180.7037699999999916
11
31.1958629999999992
21
-180.8942459999999812
0
LINE
8
BLACK
6
CONTINUOUS
10
32.433957999999997
20
-182.7037699999999916
11
32.2434820000000002
21
-182.6085319999999967
0
LINE
8
BLACK
6
CONTINUOUS
10
32.2434820000000002
20
-182.6085319999999967
11
32.1482439999999983
21
-182.4180549999999812
0
LINE
8
BLACK
6
CONTINUOUS
10
32.1482439999999983
20
-182.4180549999999812
11
32.1482439999999983
21
-180.7037699999999916
0
LINE
8
BLACK
6
CONTINUOUS
10
33.4815770000000015
20
-182.7037699999999916
11
33.2911009999999976
21
-182.6085319999999967
0
LINE
8
BLACK
6
CONTINUOUS
10
33.2911009999999976
20
-182.6085319999999967
11
33.1958629999999957
21
-182.4180549999999812
0
LINE
8
BLACK
6
CONTINUOUS
10
33.1958629999999957
20
-182.4180549999999812
11
33.1958629999999957
21
-180.7037699999999916
0
LINE
8
BLACK
6
CONTINUOUS
10
35.7672919999999976
20
-182.7037699999999916
11
35.7672919999999976
21
-180.7037699999999916
0
LINE
8
BLACK
6
CONTINUOUS
10
35.7672919999999976
20
-180.7037699999999916
11
36.4339590000000015
21
-182.1323409999999967
0
LINE
8
BLACK
6
CONTINUOUS
10
36.4339590000000015
20
-182.1323409999999967
11
37.1006250000000009
21
-180.7037699999999916
0
LINE
8
BLACK
6
CONTINUOUS
10
37.1006250000000009
20
-180.7037699999999916
11
37.1006250000000009
21
-182.7037699999999916
0
LINE
8
BLACK
6
CONTINUOUS
10
38.910148999999997
20
-182.7037699999999916
11
38.910148999999997
21
-181.6561509999999942
0
LINE
8
BLACK
6
CONTINUOUS
10
38.910148999999997
20
-181.6561509999999942
11
38.8149109999999951
21
-181.4656739999999786
0
LINE
8
BLACK
6
CONTINUOUS
10
38.8149109999999951
20
-181.4656739999999786
11
38.6244349999999983
21
-181.3704359999999838
0
LINE
8
BLACK
6
CONTINUOUS
10
38.6244349999999983
20
-181.3704359999999838
11
38.2434820000000002
21
-181.3704359999999838
0
LINE
8
BLACK
6
CONTINUOUS
10
38.2434820000000002
20
-181.3704359999999838
11
38.0530059999999963
21
-181.4656739999999786
0
LINE
8
BLACK
6
CONTINUOUS
10
38.910148999999997
20
-182.6085319999999967
11
38.7196730000000002
21
-182.7037699999999916
0
LINE
8
BLACK
6
CONTINUOUS
10
38.7196730000000002
20
-182.7037699999999916
11
38.2434820000000002
21
-182.7037699999999916
0
LINE
8
BLACK
6
CONTINUOUS
10
38.2434820000000002
20
-182.7037699999999916
11
38.0530059999999963
21
-182.6085319999999967
0
LINE
8
BLACK
6
CONTINUOUS
10
38.0530059999999963
20
-182.6085319999999967
11
37.9577680000000015
21
-182.4180549999999812
0
LINE
8
BLACK
6
CONTINUOUS
10
37.9577680000000015
20
-182.4180549999999812
11
37.9577680000000015
21
-182.2275789999999915
0
LINE
8
BLACK
6
CONTINUOUS
10
37.9577680000000015
20
-182.2275789999999915
11
38.0530059999999963
21
-182.0371030000000019
0
LINE
8
BLACK
6
CONTINUOUS
10
38.0530059999999963
20
-182.0371030000000019
11
38.2434820000000002
21
-181.9418649999999786
0
LINE
8
BLACK
6
CONTINUOUS
10
38.2434820000000002
20
-181.9418649999999786
11
38.7196730000000002
21
-181.9418649999999786
0
LINE
8
BLACK
6
CONTINUOUS
10
38.7196730000000002
20
-181.9418649999999786
11
38.910148999999997
21
-181.8466269999999838
0
LINE
8
BLACK
6
CONTINUOUS
10
39.8625299999999996
20
-181.3704359999999838
11
39.8625299999999996
21
-183.3704359999999838
0
LINE
8
BLACK
6
CONTINUOUS
10
39.8625299999999996
20
-181.4656739999999786
11
40.0530059999999963
21
-181.3704359999999838
0
LINE
8
BLACK
6
CONTINUOUS
10
40.0530059999999963
20
-181.3704359999999838
11
40.4339590000000015
21
-181.3704359999999838
0
LINE
8
BLACK
6
CONTINUOUS
10
40.4339590000000015
20
-181.3704359999999838
11
40.6244349999999983
21
-181.4656739999999786
0
LINE
8
BLACK
6
CONTINUOUS
10
40.6244349999999983
20
-181.4656739999999786
11
40.7196730000000002
21
-181.5609120000000019
0
LINE
8
BLACK
6
CONTINUOUS
10
40.7196730000000002
20
-181.5609120000000019
11
40.8149109999999951
21
-181.751388999999989
0
LINE
8
BLACK
6
CONTINUOUS
10
40.8149109999999951
20
-181.751388999999989
11
40.8149109999999951
21
-182.3228169999999864
0
LINE
8
BLACK
6
CONTINUOUS
10
40.8149109999999951
20
-182.3228169999999864
11
40.7196730000000002
21
-182.5132930000000044
0
LINE
8
BLACK
6
CONTINUOUS
10
40.7196730000000002
20
-182.5132930000000044
11
40.6244349999999983
21
-182.6085319999999967
0
LINE
8
BLACK
6
CONTINUOUS
10
40.6244349999999983
20
-182.6085319999999967
11
40.4339590000000015
21
-182.7037699999999916
0
LINE
8
BLACK
6
CONTINUOUS
10
40.4339590000000015
20
-182.7037699999999916
11
40.0530059999999963
21
-182.7037699999999916
0
LINE
8
BLACK
6
CONTINUOUS
10
40.0530059999999963
20
-182.7037699999999916
11
39.8625299999999996
21
-182.6085319999999967
0
LINE
8
BLACK
6
CONTINUOUS
10
41.6720539999999957
20
-182.5132930000000044
11
41.7672919999999976
21
-182.6085319999999967
0
LINE
8
BLACK
6
CONTINUOUS
10
41.7672919999999976
20
-182.6085319999999967
11
41.6720539999999957
21
-182.7037699999999916
0
LINE
8
BLACK
6
CONTINUOUS
10
41.6720539999999957
20
-182.7037699999999916
11
41.5768160000000009
21
-182.6085319999999967
0
LINE
8
BLACK
6
CONTINUOUS
10
41.5768160000000009
20
-182.6085319999999967
11
41.6720539999999957
21
-182.5132930000000044
0
LINE
8
BLACK
6
CONTINUOUS
10
41.6720539999999957
20
-182.5132930000000044
11
41.6720539999999957
21
-182.7037699999999916
0
LINE
8
BLACK
6
CONTINUOUS
10
41.6720539999999957
20
-181.4656739999999786
11
41.7672919999999976
21
-181.5609120000000019
0
LINE
8
BLACK
6
CONTINUOUS
10
41.7672919999999976
20
-181.5609120000000019
11
41.6720539999999957
21
-181.6561509999999942
0
LINE
8
BLACK
6
CONTINUOUS
10
41.6720539999999957
20
-181.6561509999999942
11
41.5768160000000009
21
-181.5609120000000019
0
LINE
8
BLACK
6
CONTINUOUS
10
41.5768160000000009
20
-181.5609120000000019
11
41.6720539999999957
21
-181.4656739999999786
0
LINE
8
BLACK
6
CONTINUOUS
10
41.6720539999999957
20
-181.4656739999999786
11
41.6720539999999957
21
-181.6561509999999942
0
LINE
8
BLACK
6
CONTINUOUS
10
23.6481999999999992
20
-185.1380319999999813
11
25.3499999999999979
21
-186.8398320000000012
0
LINE
8
BLACK
6
CONTINUOUS
10
25.3499999999999979
20
-185.1380319999999813
11
23.6481999999999992
21
-186.8398320000000012
0
LINE
8
BLACK
6
CONTINUOUS
10
29.0053869999999989
20
-186.9037699999999802
11
27.8625299999999996
21
-186.9037699999999802
0
LINE
8
BLACK
6
CONTINUOUS
10
28.433957999999997
20
-186.9037699999999802
11
28.433957999999997
21
-184.9037699999999802
0
LINE
8
BLACK
6
CONTINUOUS
10
28.433957999999997
20
-184.9037699999999802
11
28.2434820000000002
21
-185.1894839999999931
0
LINE
8
BLACK
6
CONTINUOUS
10
28.2434820000000002
20
-185.1894839999999931
11
28.0530059999999999
21
-185.3799599999999828
0
LINE
8
BLACK
6
CONTINUOUS
10
28.0530059999999999
20
-185.3799599999999828
11
27.8625299999999996
21
-185.4751979999999776
0
LINE
8
BLACK
6
CONTINUOUS
10
29.8625299999999996
20
-186.7132929999999931
11
29.957767999999998
21
-186.8085319999999854
0
LINE
8
BLACK
6
CONTINUOUS
10
29.957767999999998
20
-186.8085319999999854
11
29.8625299999999996
21
-186.9037699999999802
0
LINE
8
BLACK
6
CONTINUOUS
10
29.8625299999999996
20
-186.9037699999999802
11
29.7672919999999976
21
-186.8085319999999854
0
LINE
8
BLACK
6
CONTINUOUS
10
29.7672919999999976
20
-186.8085319999999854
11
29.8625299999999996
21
-186.7132929999999931
0
LINE
8
BLACK
6
CONTINUOUS
10
29.8625299999999996
20
-186.7132929999999931
11
29.8625299999999996
21
-186.9037699999999802
0
LINE
8
BLACK
6
CONTINUOUS
10
30.6244349999999983
20
-184.9037699999999802
11
31.957767999999998
21
-184.9037699999999802
0
LINE
8
BLACK
6
CONTINUOUS
10
31.957767999999998
20
-184.9037699999999802
11
31.1006249999999973
21
-186.9037699999999802
0
LINE
8
BLACK
6
CONTINUOUS
10
33.1006250000000009
20
-184.9037699999999802
11
33.2911019999999951
21
-184.9037699999999802
0
LINE
8
BLACK
6
CONTINUOUS
10
33.2911019999999951
20
-184.9037699999999802
11
33.481577999999999
21
-184.9990080000000034
0
LINE
8
BLACK
6
CONTINUOUS
10
33.481577999999999
20
-184.9990080000000034
11
33.5768160000000009
21
-185.0942459999999983
0
LINE
8
BLACK
6
CONTINUOUS
10
33.5768160000000009
20
-185.0942459999999983
11
33.6720539999999957
21
-185.2847219999999879
0
LINE
8
BLACK
6
CONTINUOUS
10
33.6720539999999957
20
-185.2847219999999879
11
33.7672919999999976
21
-185.6656739999999957
0
LINE
8
BLACK
6
CONTINUOUS
10
33.7672919999999976
20
-185.6656739999999957
11
33.7672919999999976
21
-186.1418649999999957
0
LINE
8
BLACK
6
CONTINUOUS
10
33.7672919999999976
20
-186.1418649999999957
11
33.6720539999999957
21
-186.5228170000000034
0
LINE
8
BLACK
6
CONTINUOUS
10
33.6720539999999957
20
-186.5228170000000034
11
33.5768160000000009
21
-186.7132929999999931
0
LINE
8
BLACK
6
CONTINUOUS
10
33.5768160000000009
20
-186.7132929999999931
11
33.481577999999999
21
-186.8085319999999854
0
LINE
8
BLACK
6
CONTINUOUS
10
33.481577999999999
20
-186.8085319999999854
11
33.2911019999999951
21
-186.9037699999999802
0
LINE
8
BLACK
6
CONTINUOUS
10
33.2911019999999951
20
-186.9037699999999802
11
33.1006250000000009
21
-186.9037699999999802
0
LINE
8
BLACK
6
CONTINUOUS
10
33.1006250000000009
20
-186.9037699999999802
11
32.910148999999997
21
-186.8085319999999854
0
LINE
8
BLACK
6
CONTINUOUS
10
32.910148999999997
20
-186.8085319999999854
11
32.8149109999999951
21
-186.7132929999999931
0
LINE
8
BLACK
6
CONTINUOUS
10
32.8149109999999951
20
-186.7132929999999931
11
32.7196730000000002
21
-186.5228170000000034
0
LINE
8
BLACK
6
CONTINUOUS
10
32.7196730000000002
20
-186.5228170000000034
11
32.6244349999999983
21
-186.1418649999999957
0
LINE
8
BLACK
6
CONTINUOUS
10
32.6244349999999983
20
-186.1418649999999957
11
32.6244349999999983
21
-185.6656739999999957
0
LINE
8
BLACK
6
CONTINUOUS
10
32.6244349999999983
20
-185.6656739999999957
11
32.7196730000000002
21
-185.2847219999999879
0
LINE
8
BLACK
6
CONTINUOUS
10
32.7196730000000002
20
-185.2847219999999879
11
32.8149109999999951
21
-185.0942459999999983
0
LINE
8
BLACK
6
CONTINUOUS
10
32.8149109999999951
20
-185.0942459999999983
11
32.910148999999997
21
-184.9990080000000034
0
LINE
8
BLACK
6
CONTINUOUS
10
32.910148999999997
20
-184.9990080000000034
11
33.1006250000000009
21
-184.9037699999999802
0
LINE
8
BLACK
6
CONTINUOUS
10
34.5291969999999964
20
-185.0942459999999983
11
34.6244349999999983
21
-184.9990080000000034
0
LINE
8
BLACK
6
CONTINUOUS
10
34.6244349999999983
20
-184.9990080000000034
11
34.8149109999999951
21
-184.9037699999999802
0
LINE
8
BLACK
6
CONTINUOUS
10
34.8149109999999951
20
-184.9037699999999802
11
35.2911019999999951
21
-184.9037699999999802
0
LINE
8
BLACK
6
CONTINUOUS
10
35.2911019999999951
20
-184.9037699999999802
11
35.481577999999999
21
-184.9990080000000034
0
LINE
8
BLACK
6
CONTINUOUS
10
35.481577999999999
20
-184.9990080000000034
11
35.5768160000000009
21
-185.0942459999999983
0
LINE
8
BLACK
6
CONTINUOUS
10
35.5768160000000009
20
-185.0942459999999983
11
35.6720539999999957
21
-185.2847219999999879
0
LINE
8
BLACK
6
CONTINUOUS
10
35.6720539999999957
20
-185.2847219999999879
11
35.6720539999999957
21
-185.4751979999999776
0
LINE
8
BLACK
6
CONTINUOUS
10
35.6720539999999957
20
-185.4751979999999776
11
35.5768160000000009
21
-185.7609119999999905
0
LINE
8
BLACK
6
CONTINUOUS
10
35.5768160000000009
20
-185.7609119999999905
11
34.4339590000000015
21
-186.9037699999999802
0
LINE
8
BLACK
6
CONTINUOUS
10
34.4339590000000015
20
-186.9037699999999802
11
35.6720539999999957
21
-186.9037699999999802
0
LINE
8
BLACK
6
CONTINUOUS
10
36.5291969999999964
20
-186.9037699999999802
11
36.5291969999999964
21
-185.5704360000000008
0
LINE
8
BLACK
6
CONTINUOUS
10
36.5291969999999964
20
-185.7609119999999905
11
36.6244349999999983
21
-185.6656739999999957
0
LINE
8
BLACK
6
CONTINUOUS
10
36.6244349999999983
20
-185.6656739999999957
11
36.8149109999999951
21
-185.5704360000000008
0
LINE
8
BLACK
6
CONTINUOUS
10
36.8149109999999951
20
-185.5704360000000008
11
37.1006259999999983
21
-185.5704360000000008
0
LINE
8
BLACK
6
CONTINUOUS
10
37.1006259999999983
20
-185.5704360000000008
11
37.2911019999999951
21
-185.6656739999999957
0
LINE
8
BLACK
6
CONTINUOUS
10
37.2911019999999951
20
-185.6656739999999957
11
37.386339999999997
21
-185.8561509999999828
0
LINE
8
BLACK
6
CONTINUOUS
10
37.386339999999997
20
-185.8561509999999828
11
37.386339999999997
21
-186.9037699999999802
0
LINE
8
BLACK
6
CONTINUOUS
10
37.386339999999997
20
-185.8561509999999828
11
37.481577999999999
21
-185.6656739999999957
0
LINE
8
BLACK
6
CONTINUOUS
10
37.481577999999999
20
-185.6656739999999957
11
37.6720539999999957
21
-185.5704360000000008
0
LINE
8
BLACK
6
CONTINUOUS
10
37.6720539999999957
20
-185.5704360000000008
11
37.9577680000000015
21
-185.5704360000000008
0
LINE
8
BLACK
6
CONTINUOUS
10
37.9577680000000015
20
-185.5704360000000008
11
38.1482449999999957
21
-185.6656739999999957
0
LINE
8
BLACK
6
CONTINUOUS
10
38.1482449999999957
20
-185.6656739999999957
11
38.2434829999999977
21
-185.8561509999999828
0
LINE
8
BLACK
6
CONTINUOUS
10
38.2434829999999977
20
-185.8561509999999828
11
38.2434829999999977
21
-186.9037699999999802
0
LINE
8
BLACK
6
CONTINUOUS
10
39.1958640000000003
20
-186.9037699999999802
11
39.1958640000000003
21
-185.5704360000000008
0
LINE
8
BLACK
6
CONTINUOUS
10
39.1958640000000003
20
-185.7609119999999905
11
39.2911019999999951
21
-185.6656739999999957
0
LINE
8
BLACK
6
CONTINUOUS
10
39.2911019999999951
20
-185.6656739999999957
11
39.481577999999999
21
-185.5704360000000008
0
LINE
8
BLACK
6
CONTINUOUS
10
39.481577999999999
20
-185.5704360000000008
11
39.7672929999999951
21
-185.5704360000000008
0
LINE
8
BLACK
6
CONTINUOUS
10
39.7672929999999951
20
-185.5704360000000008
11
39.957768999999999
21
-185.6656739999999957
0
LINE
8
BLACK
6
CONTINUOUS
10
39.957768999999999
20
-185.6656739999999957
11
40.0530070000000009
21
-185.8561509999999828
0
LINE
8
BLACK
6
CONTINUOUS
10
40.0530070000000009
20
-185.8561509999999828
11
40.0530070000000009
21
-186.9037699999999802
0
LINE
8
BLACK
6
CONTINUOUS
10
40.0530070000000009
20
-185.8561509999999828
11
40.1482449999999957
21
-185.6656739999999957
0
LINE
8
BLACK
6
CONTINUOUS
10
40.1482449999999957
20
-185.6656739999999957
11
40.3387209999999996
21
-185.5704360000000008
0
LINE
8
BLACK
6
CONTINUOUS
10
40.3387209999999996
20
-185.5704360000000008
11
40.6244349999999983
21
-185.5704360000000008
0
LINE
8
BLACK
6
CONTINUOUS
10
40.6244349999999983
20
-185.5704360000000008
11
40.8149119999999996
21
-185.6656739999999957
0
LINE
8
BLACK
6
CONTINUOUS
10
40.8149119999999996
20
-185.6656739999999957
11
40.9101500000000016
21
-185.8561509999999828
0
LINE
8
BLACK
6
CONTINUOUS
10
40.9101500000000016
20
-185.8561509999999828
11
40.9101500000000016
21
-186.9037699999999802
0
LINE
8
BLACK
6
CONTINUOUS
10
44.8149119999999996
20
-184.8085319999999854
11
43.1006269999999958
21
-187.3799599999999828
0
LINE
8
BLACK
6
CONTINUOUS
10
47.3863409999999945
20
-184.9037699999999802
11
47.5768179999999958
21
-184.9037699999999802
0
LINE
8
BLACK
6
CONTINUOUS
10
47.5768179999999958
20
-184.9037699999999802
11
47.7672939999999997
21
-184.9990080000000034
0
LINE
8
BLACK
6
CONTINUOUS
10
47.7672939999999997
20
-184.9990080000000034
11
47.8625319999999945
21
-185.0942459999999983
0
LINE
8
BLACK
6
CONTINUOUS
10
47.8625319999999945
20
-185.0942459999999983
11
47.9577699999999965
21
-185.2847219999999879
0
LINE
8
BLACK
6
CONTINUOUS
10
47.9577699999999965
20
-185.2847219999999879
11
48.0530079999999984
21
-185.6656739999999957
0
LINE
8
BLACK
6
CONTINUOUS
10
48.0530079999999984
20
-185.6656739999999957
11
48.0530079999999984
21
-186.1418649999999957
0
LINE
8
BLACK
6
CONTINUOUS
10
48.0530079999999984
20
-186.1418649999999957
11
47.9577699999999965
21
-186.5228170000000034
0
LINE
8
BLACK
6
CONTINUOUS
10
47.9577699999999965
20
-186.5228170000000034
11
47.8625319999999945
21
-186.7132929999999931
0
LINE
8
BLACK
6
CONTINUOUS
10
47.8625319999999945
20
-186.7132929999999931
11
47.7672939999999997
21
-186.8085319999999854
0
LINE
8
BLACK
6
CONTINUOUS
10
47.7672939999999997
20
-186.8085319999999854
11
47.5768179999999958
21
-186.9037699999999802
0
LINE
8
BLACK
6
CONTINUOUS
10
47.5768179999999958
20
-186.9037699999999802
11
47.3863409999999945
21
-186.9037699999999802
0
LINE
8
BLACK
6
CONTINUOUS
10
47.3863409999999945
20
-186.9037699999999802
11
47.1958649999999977
21
-186.8085319999999854
0
LINE
8
BLACK
6
CONTINUOUS
10
47.1958649999999977
20
-186.8085319999999854
11
47.1006269999999958
21
-186.7132929999999931
0
LINE
8
BLACK
6
CONTINUOUS
10
47.1006269999999958
20
-186.7132929999999931
11
47.005389000000001
21
-186.5228170000000034
0
LINE
8
BLACK
6
CONTINUOUS
10
47.005389000000001
20
-186.5228170000000034
11
46.910150999999999
21
-186.1418649999999957
0
LINE
8
BLACK
6
CONTINUOUS
10
46.910150999999999
20
-186.1418649999999957
11
46.910150999999999
21
-185.6656739999999957
0
LINE
8
BLACK
6
CONTINUOUS
10
46.910150999999999
20
-185.6656739999999957
11
47.005389000000001
21
-185.2847219999999879
0
LINE
8
BLACK
6
CONTINUOUS
10
47.005389000000001
20
-185.2847219999999879
11
47.1006269999999958
21
-185.0942459999999983
0
LINE
8
BLACK
6
CONTINUOUS
10
47.1006269999999958
20
-185.0942459999999983
11
47.1958649999999977
21
-184.9990080000000034
0
LINE
8
BLACK
6
CONTINUOUS
10
47.1958649999999977
20
-184.9990080000000034
11
47.3863409999999945
21
-184.9037699999999802
0
LINE
8
BLACK
6
CONTINUOUS
10
48.910150999999999
20
-186.7132929999999931
11
49.005389000000001
21
-186.8085319999999854
0
LINE
8
BLACK
6
CONTINUOUS
10
49.005389000000001
20
-186.8085319999999854
11
48.910150999999999
21
-186.9037699999999802
0
LINE
8
BLACK
6
CONTINUOUS
10
48.910150999999999
20
-186.9037699999999802
11
48.8149129999999971
21
-186.8085319999999854
0
LINE
8
BLACK
6
CONTINUOUS
10
48.8149129999999971
20
-186.8085319999999854
11
48.910150999999999
21
-186.7132929999999931
0
LINE
8
BLACK
6
CONTINUOUS
10
48.910150999999999
20
-186.7132929999999931
11
48.910150999999999
21
-186.9037699999999802
0
LINE
8
BLACK
6
CONTINUOUS
10
50.2434839999999951
20
-184.9037699999999802
11
50.4339609999999965
21
-184.9037699999999802
0
LINE
8
BLACK
6
CONTINUOUS
10
50.4339609999999965
20
-184.9037699999999802
11
50.6244370000000004
21
-184.9990080000000034
0
LINE
8
BLACK
6
CONTINUOUS
10
50.6244370000000004
20
-184.9990080000000034
11
50.7196749999999952
21
-185.0942459999999983
0
LINE
8
BLACK
6
CONTINUOUS
10
50.7196749999999952
20
-185.0942459999999983
11
50.8149129999999971
21
-185.2847219999999879
0
LINE
8
BLACK
6
CONTINUOUS
10
50.8149129999999971
20
-185.2847219999999879
11
50.910150999999999
21
-185.6656739999999957
0
LINE
8
BLACK
6
CONTINUOUS
10
50.910150999999999
20
-185.6656739999999957
11
50.910150999999999
21
-186.1418649999999957
0
LINE
8
BLACK
6
CONTINUOUS
10
50.910150999999999
20
-186.1418649999999957
11
50.8149129999999971
21
-186.5228170000000034
0
LINE
8
BLACK
6
CONTINUOUS
10
50.8149129999999971
20
-186.5228170000000034
11
50.7196749999999952
21
-186.7132929999999931
0
LINE
8
BLACK
6
CONTINUOUS
10
50.7196749999999952
20
-186.7132929999999931
11
50.6244370000000004
21
-186.8085319999999854
0
LINE
8
BLACK
6
CONTINUOUS
10
50.6244370000000004
20
-186.8085319999999854
11
50.4339609999999965
21
-186.9037699999999802
0
LINE
8
BLACK
6
CONTINUOUS
10
50.4339609999999965
20
-186.9037699999999802
11
50.2434839999999951
21
-186.9037699999999802
0
LINE
8
BLACK
6
CONTINUOUS
10
50.2434839999999951
20
-186.9037699999999802
11
50.0530079999999984
21
-186.8085319999999854
0
LINE
8
BLACK
6
CONTINUOUS
10
50.0530079999999984
20
-186.8085319999999854
11
49.9577699999999965
21
-186.7132929999999931
0
LINE
8
BLACK
6
CONTINUOUS
10
49.9577699999999965
20
-186.7132929999999931
11
49.8625319999999945
21
-186.5228170000000034
0
LINE
8
BLACK
6
CONTINUOUS
10
49.8625319999999945
20
-186.5228170000000034
11
49.7672939999999997
21
-186.1418649999999957
0
LINE
8
BLACK
6
CONTINUOUS
10
49.7672939999999997
20
-186.1418649999999957
11
49.7672939999999997
21
-185.6656739999999957
0
LINE
8
BLACK
6
CONTINUOUS
10
49.7672939999999997
20
-185.6656739999999957
11
49.8625319999999945
21
-185.2847219999999879
0
LINE
8
BLACK
6
CONTINUOUS
10
49.8625319999999945
20
-185.2847219999999879
11
49.9577699999999965
21
-185.0942459999999983
0
LINE
8
BLACK
6
CONTINUOUS
10
49.9577699999999965
20
-185.0942459999999983
11
50.0530079999999984
21
-184.9990080000000034
0
LINE
8
BLACK
6
CONTINUOUS
10
50.0530079999999984
20
-184.9990080000000034
11
50.2434839999999951
21
-184.9037699999999802
0
LINE
8
BLACK
6
CONTINUOUS
10
52.6244370000000004
20
-184.9037699999999802
11
52.2434839999999951
21
-184.9037699999999802
0
LINE
8
BLACK
6
CONTINUOUS
10
52.2434839999999951
20
-184.9037699999999802
11
52.0530079999999984
21
-184.9990080000000034
0
LINE
8
BLACK
6
CONTINUOUS
10
52.0530079999999984
20
-184.9990080000000034
11
51.9577699999999965
21
-185.0942459999999983
0
LINE
8
BLACK
6
CONTINUOUS
10
51.9577699999999965
20
-185.0942459999999983
11
51.7672939999999997
21
-185.3799599999999828
0
LINE
8
BLACK
6
CONTINUOUS
10
51.7672939999999997
20
-185.3799599999999828
11
51.6720559999999978
21
-185.7609119999999905
0
LINE
8
BLACK
6
CONTINUOUS
10
51.6720559999999978
20
-185.7609119999999905
11
51.6720559999999978
21
-186.5228170000000034
0
LINE
8
BLACK
6
CONTINUOUS
10
51.6720559999999978
20
-186.5228170000000034
11
51.7672939999999997
21
-186.7132929999999931
0
LINE
8
BLACK
6
CONTINUOUS
10
51.7672939999999997
20
-186.7132929999999931
11
51.8625319999999945
21
-186.8085319999999854
0
LINE
8
BLACK
6
CONTINUOUS
10
51.8625319999999945
20
-186.8085319999999854
11
52.0530079999999984
21
-186.9037699999999802
0
LINE
8
BLACK
6
CONTINUOUS
10
52.0530079999999984
20
-186.9037699999999802
11
52.4339609999999965
21
-186.9037699999999802
0
LINE
8
BLACK
6
CONTINUOUS
10
52.4339609999999965
20
-186.9037699999999802
11
52.6244370000000004
21
-186.8085319999999854
0
LINE
8
BLACK
6
CONTINUOUS
10
52.6244370000000004
20
-186.8085319999999854
11
52.7196749999999952
21
-186.7132929999999931
0
LINE
8
BLACK
6
CONTINUOUS
10
52.7196749999999952
20
-186.7132929999999931
11
52.8149129999999971
21
-186.5228170000000034
0
LINE
8
BLACK
6
CONTINUOUS
10
52.8149129999999971
20
-186.5228170000000034
11
52.8149129999999971
21
-186.0466270000000009
0
LINE
8
BLACK
6
CONTINUOUS
10
52.8149129999999971
20
-186.0466270000000009
11
52.7196749999999952
21
-185.8561509999999828
0
LINE
8
BLACK
6
CONTINUOUS
10
52.7196749999999952
20
-185.8561509999999828
11
52.6244370000000004
21
-185.7609119999999905
0
LINE
8
BLACK
6
CONTINUOUS
10
52.6244370000000004
20
-185.7609119999999905
11
52.4339609999999965
21
-185.6656739999999957
0
LINE
8
BLACK
6
CONTINUOUS
10
52.4339609999999965
20
-185.6656739999999957
11
52.0530079999999984
21
-185.6656739999999957
0
LINE
8
BLACK
6
CONTINUOUS
10
52.0530079999999984
20
-185.6656739999999957
11
51.8625319999999945
21
-185.7609119999999905
0
LINE
8
BLACK
6
CONTINUOUS
10
51.8625319999999945
20
-185.7609119999999905
11
51.7672939999999997
21
-185.8561509999999828
0
LINE
8
BLACK
6
CONTINUOUS
10
51.7672939999999997
20
-185.8561509999999828
11
51.6720559999999978
21
-186.0466270000000009
0
LINE
8
BLACK
6
CONTINUOUS
10
53.481580000000001
20
-184.9037699999999802
11
54.8149129999999971
21
-184.9037699999999802
0
LINE
8
BLACK
6
CONTINUOUS
10
54.8149129999999971
20
-184.9037699999999802
11
53.9577699999999965
21
-186.9037699999999802
0
LINE
8
BLACK
6
CONTINUOUS
10
55.9577699999999965
20
-184.9037699999999802
11
56.1482469999999978
21
-184.9037699999999802
0
LINE
8
BLACK
6
CONTINUOUS
10
56.1482469999999978
20
-184.9037699999999802
11
56.3387229999999946
21
-184.9990080000000034
0
LINE
8
BLACK
6
CONTINUOUS
10
56.3387229999999946
20
-184.9990080000000034
11
56.4339609999999965
21
-185.0942459999999983
0
LINE
8
BLACK
6
CONTINUOUS
10
56.4339609999999965
20
-185.0942459999999983
11
56.5291989999999984
21
-185.2847219999999879
0
LINE
8
BLACK
6
CONTINUOUS
10
56.5291989999999984
20
-185.2847219999999879
11
56.6244370000000004
21
-185.6656739999999957
0
LINE
8
BLACK
6
CONTINUOUS
10
56.6244370000000004
20
-185.6656739999999957
11
56.6244370000000004
21
-186.1418649999999957
0
LINE
8
BLACK
6
CONTINUOUS
10
56.6244370000000004
20
-186.1418649999999957
11
56.5291989999999984
21
-186.5228170000000034
0
LINE
8
BLACK
6
CONTINUOUS
10
56.5291989999999984
20
-186.5228170000000034
11
56.4339609999999965
21
-186.7132929999999931
0
LINE
8
BLACK
6
CONTINUOUS
10
56.4339609999999965
20
-186.7132929999999931
11
56.3387229999999946
21
-186.8085319999999854
0
LINE
8
BLACK
6
CONTINUOUS
10
56.3387229999999946
20
-186.8085319999999854
11
56.1482469999999978
21
-186.9037699999999802
0
LINE
8
BLACK
6
CONTINUOUS
10
56.1482469999999978
20
-186.9037699999999802
11
55.9577699999999965
21
-186.9037699999999802
0
LINE
8
BLACK
6
CONTINUOUS
10
55.9577699999999965
20
-186.9037699999999802
11
55.7672939999999997
21
-186.8085319999999854
0
LINE
8
BLACK
6
CONTINUOUS
10
55.7672939999999997
20
-186.8085319999999854
11
55.6720559999999978
21
-186.7132929999999931
0
LINE
8
BLACK
6
CONTINUOUS
10
55.6720559999999978
20
-186.7132929999999931
11
55.5768179999999958
21
-186.5228170000000034
0
LINE
8
BLACK
6
CONTINUOUS
10
55.5768179999999958
20
-186.5228170000000034
11
55.481580000000001
21
-186.1418649999999957
0
LINE
8
BLACK
6
CONTINUOUS
10
55.481580000000001
20
-186.1418649999999957
11
55.481580000000001
21
-185.6656739999999957
0
LINE
8
BLACK
6
CONTINUOUS
10
55.481580000000001
20
-185.6656739999999957
11
55.5768179999999958
21
-185.2847219999999879
0
LINE
8
BLACK
6
CONTINUOUS
10
55.5768179999999958
20
-185.2847219999999879
11
55.6720559999999978
21
-185.0942459999999983
0
LINE
8
BLACK
6
CONTINUOUS
10
55.6720559999999978
20
-185.0942459999999983
11
55.7672939999999997
21
-184.9990080000000034
0
LINE
8
BLACK
6
CONTINUOUS
10
55.7672939999999997
20
-184.9990080000000034
11
55.9577699999999965
21
-184.9037699999999802
0
LINE
8
BLACK
6
CONTINUOUS
10
57.3863419999999991
20
-184.9037699999999802
11
57.3863419999999991
21
-185.2847219999999879
0
LINE
8
BLACK
6
CONTINUOUS
10
58.1482469999999978
20
-184.9037699999999802
11
58.1482469999999978
21
-185.2847219999999879
0
LINE
8
BLACK
6
CONTINUOUS
10
61.1006289999999979
20
-187.6656739999999957
11
61.0053899999999985
21
-187.5704360000000008
0
LINE
8
BLACK
6
CONTINUOUS
10
61.0053899999999985
20
-187.5704360000000008
11
60.8149139999999946
21
-187.2847219999999879
0
LINE
8
BLACK
6
CONTINUOUS
10
60.8149139999999946
20
-187.2847219999999879
11
60.7196759999999998
21
-187.0942459999999983
0
LINE
8
BLACK
6
CONTINUOUS
10
60.7196759999999998
20
-187.0942459999999983
11
60.6244379999999978
21
-186.8085319999999854
0
LINE
8
BLACK
6
CONTINUOUS
10
60.6244379999999978
20
-186.8085319999999854
11
60.5291999999999959
21
-186.3323409999999853
0
LINE
8
BLACK
6
CONTINUOUS
10
60.5291999999999959
20
-186.3323409999999853
11
60.5291999999999959
21
-185.9513889999999776
0
LINE
8
BLACK
6
CONTINUOUS
10
60.5291999999999959
20
-185.9513889999999776
11
60.6244379999999978
21
-185.4751979999999776
0
LINE
8
BLACK
6
CONTINUOUS
10
60.6244379999999978
20
-185.4751979999999776
11
60.7196759999999998
21
-185.1894839999999931
0
LINE
8
BLACK
6
CONTINUOUS
10
60.7196759999999998
20
-185.1894839999999931
11
60.8149139999999946
21
-184.9990080000000034
0
LINE
8
BLACK
6
CONTINUOUS
10
60.8149139999999946
20
-184.9990080000000034
11
61.0053899999999985
21
-184.7132929999999931
0
LINE
8
BLACK
6
CONTINUOUS
10
61.0053899999999985
20
-184.7132929999999931
11
61.1006289999999979
21
-184.6180549999999982
0
LINE
8
BLACK
6
CONTINUOUS
10
62.1482469999999978
20
-185.7609119999999905
11
61.9577709999999939
21
-185.6656739999999957
0
LINE
8
BLACK
6
CONTINUOUS
10
61.9577709999999939
20
-185.6656739999999957
11
61.8625329999999991
21
-185.5704360000000008
0
LINE
8
BLACK
6
CONTINUOUS
10
61.8625329999999991
20
-185.5704360000000008
11
61.7672949999999972
21
-185.3799599999999828
0
LINE
8
BLACK
6
CONTINUOUS
10
61.7672949999999972
20
-185.3799599999999828
11
61.7672949999999972
21
-185.2847219999999879
0
LINE
8
BLACK
6
CONTINUOUS
10
61.7672949999999972
20
-185.2847219999999879
11
61.8625329999999991
21
-185.0942459999999983
0
LINE
8
BLACK
6
CONTINUOUS
10
61.8625329999999991
20
-185.0942459999999983
11
61.9577709999999939
21
-184.9990080000000034
0
LINE
8
BLACK
6
CONTINUOUS
10
61.9577709999999939
20
-184.9990080000000034
11
62.1482469999999978
21
-184.9037699999999802
0
LINE
8
BLACK
6
CONTINUOUS
10
62.1482469999999978
20
-184.9037699999999802
11
62.5291999999999959
21
-184.9037699999999802
0
LINE
8
BLACK
6
CONTINUOUS
10
62.5291999999999959
20
-184.9037699999999802
11
62.7196759999999998
21
-184.9990080000000034
0
LINE
8
BLACK
6
CONTINUOUS
10
62.7196759999999998
20
-184.9990080000000034
11
62.8149139999999946
21
-185.0942459999999983
0
LINE
8
BLACK
6
CONTINUOUS
10
62.8149139999999946
20
-185.0942459999999983
11
62.9101519999999965
21
-185.2847219999999879
0
LINE
8
BLACK
6
CONTINUOUS
10
62.9101519999999965
20
-185.2847219999999879
11
62.9101519999999965
21
-185.3799599999999828
0
LINE
8
BLACK
6
CONTINUOUS
10
62.9101519999999965
20
-185.3799599999999828
11
62.8149139999999946
21
-185.5704360000000008
0
LINE
8
BLACK
6
CONTINUOUS
10
62.8149139999999946
20
-185.5704360000000008
11
62.7196759999999998
21
-185.6656739999999957
0
LINE
8
BLACK
6
CONTINUOUS
10
62.7196759999999998
20
-185.6656739999999957
11
62.5291999999999959
21
-185.7609119999999905
0
LINE
8
BLACK
6
CONTINUOUS
10
62.5291999999999959
20
-185.7609119999999905
11
62.1482469999999978
21
-185.7609119999999905
0
LINE
8
BLACK
6
CONTINUOUS
10
62.1482469999999978
20
-185.7609119999999905
11
61.9577709999999939
21
-185.8561509999999828
0
LINE
8
BLACK
6
CONTINUOUS
10
61.9577709999999939
20
-185.8561509999999828
11
61.8625329999999991
21
-185.9513889999999776
0
LINE
8
BLACK
6
CONTINUOUS
10
61.8625329999999991
20
-185.9513889999999776
11
61.7672949999999972
21
-186.1418649999999957
0
LINE
8
BLACK
6
CONTINUOUS
10
61.7672949999999972
20
-186.1418649999999957
11
61.7672949999999972
21
-186.5228170000000034
0
LINE
8
BLACK
6
CONTINUOUS
10
61.7672949999999972
20
-186.5228170000000034
11
61.8625329999999991
21
-186.7132929999999931
0
LINE
8
BLACK
6
CONTINUOUS
10
61.8625329999999991
20
-186.7132929999999931
11
61.9577709999999939
21
-186.8085319999999854
0
LINE
8
BLACK
6
CONTINUOUS
10
61.9577709999999939
20
-186.8085319999999854
11
62.1482469999999978
21
-186.9037699999999802
0
LINE
8
BLACK
6
CONTINUOUS
10
62.1482469999999978
20
-186.9037699999999802
11
62.5291999999999959
21
-186.9037699999999802
0
LINE
8
BLACK
6
CONTINUOUS
10
62.5291999999999959
20
-186.9037699999999802
11
62.7196759999999998
21
-186.8085319999999854
0
LINE
8
BLACK
6
CONTINUOUS
10
62.7196759999999998
20
-186.8085319999999854
11
62.8149139999999946
21
-186.7132929999999931
0
LINE
8
BLACK
6
CONTINUOUS
10
62.8149139999999946
20
-186.7132929999999931
11
62.9101519999999965
21
-186.5228170000000034
0
LINE
8
BLACK
6
CONTINUOUS
10
62.9101519999999965
20
-186.5228170000000034
11
62.9101519999999965
21
-186.1418649999999957
0
LINE
8
BLACK
6
CONTINUOUS
10
62.9101519999999965
20
-186.1418649999999957
11
62.8149139999999946
21
-185.9513889999999776
0
LINE
8
BLACK
6
CONTINUOUS
10
62.8149139999999946
20
-185.9513889999999776
11
62.7196759999999998
21
-185.8561509999999828
0
LINE
8
BLACK
6
CONTINUOUS
10
62.7196759999999998
20
-185.8561509999999828
11
62.5291999999999959
21
-185.7609119999999905
0
LINE
8
BLACK
6
CONTINUOUS
10
64.6244379999999978
20
-185.5704360000000008
11
64.6244379999999978
21
-186.9037699999999802
0
LINE
8
BLACK
6
CONTINUOUS
10
64.1482469999999978
20
-184.8085319999999854
11
63.6720569999999952
21
-186.2371029999999905
0
LINE
8
BLACK
6
CONTINUOUS
10
63.6720569999999952
20
-186.2371029999999905
11
64.9101519999999965
21
-186.2371029999999905
0
LINE
8
BLACK
6
CONTINUOUS
10
67.1958669999999927
20
-186.9037699999999802
11
67.1958669999999927
21
-184.9037699999999802
0
LINE
8
BLACK
6
CONTINUOUS
10
68.0530100000000004
20
-186.9037699999999802
11
68.0530100000000004
21
-185.8561509999999828
0
LINE
8
BLACK
6
CONTINUOUS
10
68.0530100000000004
20
-185.8561509999999828
11
67.9577719999999914
21
-185.6656739999999957
0
LINE
8
BLACK
6
CONTINUOUS
10
67.9577719999999914
20
-185.6656739999999957
11
67.7672960000000018
21
-185.5704360000000008
0
LINE
8
BLACK
6
CONTINUOUS
10
67.7672960000000018
20
-185.5704360000000008
11
67.4815809999999914
21
-185.5704360000000008
0
LINE
8
BLACK
6
CONTINUOUS
10
67.4815809999999914
20
-185.5704360000000008
11
67.2911050000000017
21
-185.6656739999999957
0
LINE
8
BLACK
6
CONTINUOUS
10
67.2911050000000017
20
-185.6656739999999957
11
67.1958669999999927
21
-185.7609119999999905
0
LINE
8
BLACK
6
CONTINUOUS
10
69.2911050000000017
20
-186.9037699999999802
11
69.1006289999999979
21
-186.8085319999999854
0
LINE
8
BLACK
6
CONTINUOUS
10
69.1006289999999979
20
-186.8085319999999854
11
69.005391000000003
21
-186.7132929999999931
0
LINE
8
BLACK
6
CONTINUOUS
10
69.005391000000003
20
-186.7132929999999931
11
68.910152999999994
21
-186.5228170000000034
0
LINE
8
BLACK
6
CONTINUOUS
10
68.910152999999994
20
-186.5228170000000034
11
68.910152999999994
21
-185.9513889999999776
0
LINE
8
BLACK
6
CONTINUOUS
10
68.910152999999994
20
-185.9513889999999776
11
69.005391000000003
21
-185.7609119999999905
0
LINE
8
BLACK
6
CONTINUOUS
10
69.005391000000003
20
-185.7609119999999905
11
69.1006289999999979
21
-185.6656739999999957
0
LINE
8
BLACK
6
CONTINUOUS
10
69.1006289999999979
20
-185.6656739999999957
11
69.2911050000000017
21
-185.5704360000000008
0
LINE
8
BLACK
6
CONTINUOUS
10
69.2911050000000017
20
-185.5704360000000008
11
69.5768199999999979
21
-185.5704360000000008
0
LINE
8
BLACK
6
CONTINUOUS
10
69.5768199999999979
20
-185.5704360000000008
11
69.7672960000000018
21
-185.6656739999999957
0
LINE
8
BLACK
6
CONTINUOUS
10
69.7672960000000018
20
-185.6656739999999957
11
69.8625339999999966
21
-185.7609119999999905
0
LINE
8
BLACK
6
CONTINUOUS
10
69.8625339999999966
20
-185.7609119999999905
11
69.9577719999999914
21
-185.9513889999999776
0
LINE
8
BLACK
6
CONTINUOUS
10
69.9577719999999914
20
-185.9513889999999776
11
69.9577719999999914
21
-186.5228170000000034
0
LINE
8
BLACK
6
CONTINUOUS
10
69.9577719999999914
20
-186.5228170000000034
11
69.8625339999999966
21
-186.7132929999999931
0
LINE
8
BLACK
6
CONTINUOUS
10
69.8625339999999966
20
-186.7132929999999931
11
69.7672960000000018
21
-186.8085319999999854
0
LINE
8
BLACK
6
CONTINUOUS
10
69.7672960000000018
20
-186.8085319999999854
11
69.5768199999999979
21
-186.9037699999999802
0
LINE
8
BLACK
6
CONTINUOUS
10
69.5768199999999979
20
-186.9037699999999802
11
69.2911050000000017
21
-186.9037699999999802
0
LINE
8
BLACK
6
CONTINUOUS
10
71.1006289999999979
20
-186.9037699999999802
11
70.910152999999994
21
-186.8085319999999854
0
LINE
8
BLACK
6
CONTINUOUS
10
70.910152999999994
20
-186.8085319999999854
11
70.8149149999999992
21
-186.6180549999999982
0
LINE
8
BLACK
6
CONTINUOUS
10
70.8149149999999992
20
-186.6180549999999982
11
70.8149149999999992
21
-184.9037699999999802
0
LINE
8
BLACK
6
CONTINUOUS
10
72.6244389999999953
20
-186.8085319999999854
11
72.4339629999999914
21
-186.9037699999999802
0
LINE
8
BLACK
6
CONTINUOUS
10
72.4339629999999914
20
-186.9037699999999802
11
72.0530100000000004
21
-186.9037699999999802
0
LINE
8
BLACK
6
CONTINUOUS
10
72.0530100000000004
20
-186.9037699999999802
11
71.8625339999999966
21
-186.8085319999999854
0
LINE
8
BLACK
6
CONTINUOUS
10
71.8625339999999966
20
-186.8085319999999854
11
71.7672960000000018
21
-186.6180549999999982
0
LINE
8
BLACK
6
CONTINUOUS
10
71.7672960000000018
20
-186.6180549999999982
11
71.7672960000000018
21
-185.8561509999999828
0
LINE
8
BLACK
6
CONTINUOUS
10
71.7672960000000018
20
-185.8561509999999828
11
71.8625339999999966
21
-185.6656739999999957
0
LINE
8
BLACK
6
CONTINUOUS
10
71.8625339999999966
20
-185.6656739999999957
11
72.0530100000000004
21
-185.5704360000000008
0
LINE
8
BLACK
6
CONTINUOUS
10
72.0530100000000004
20
-185.5704360000000008
11
72.4339629999999914
21
-185.5704360000000008
0
LINE
8
BLACK
6
CONTINUOUS
10
72.4339629999999914
20
-185.5704360000000008
11
72.6244389999999953
21
-185.6656739999999957
0
LINE
8
BLACK
6
CONTINUOUS
10
72.6244389999999953
20
-185.6656739999999957
11
72.7196769999999901
21
-185.8561509999999828
0
LINE
8
BLACK
6
CONTINUOUS
10
72.7196769999999901
20
-185.8561509999999828
11
72.7196769999999901
21
-186.0466270000000009
0
LINE
8
BLACK
6
CONTINUOUS
10
72.7196769999999901
20
-186.0466270000000009
11
71.7672960000000018
21
-186.2371029999999905
0
LINE
8
BLACK
6
CONTINUOUS
10
73.4815820000000031
20
-186.8085319999999854
11
73.6720579999999927
21
-186.9037699999999802
0
LINE
8
BLACK
6
CONTINUOUS
10
73.6720579999999927
20
-186.9037699999999802
11
74.0530100000000004
21
-186.9037699999999802
0
LINE
8
BLACK
6
CONTINUOUS
10
74.0530100000000004
20
-186.9037699999999802
11
74.2434870000000018
21
-186.8085319999999854
0
LINE
8
BLACK
6
CONTINUOUS
10
74.2434870000000018
20
-186.8085319999999854
11
74.3387249999999966
21
-186.6180549999999982
0
LINE
8
BLACK
6
CONTINUOUS
10
74.3387249999999966
20
-186.6180549999999982
11
74.3387249999999966
21
-186.5228170000000034
0
LINE
8
BLACK
6
CONTINUOUS
10
74.3387249999999966
20
-186.5228170000000034
11
74.2434870000000018
21
-186.3323409999999853
0
LINE
8
BLACK
6
CONTINUOUS
10
74.2434870000000018
20
-186.3323409999999853
11
74.0530100000000004
21
-186.2371029999999905
0
LINE
8
BLACK
6
CONTINUOUS
10
74.0530100000000004
20
-186.2371029999999905
11
73.7672960000000018
21
-186.2371029999999905
0
LINE
8
BLACK
6
CONTINUOUS
10
73.7672960000000018
20
-186.2371029999999905
11
73.5768199999999979
21
-186.1418649999999957
0
LINE
8
BLACK
6
CONTINUOUS
10
73.5768199999999979
20
-186.1418649999999957
11
73.4815820000000031
21
-185.9513889999999776
0
LINE
8
BLACK
6
CONTINUOUS
10
73.4815820000000031
20
-185.9513889999999776
11
73.4815820000000031
21
-185.8561509999999828
0
LINE
8
BLACK
6
CONTINUOUS
10
73.4815820000000031
20
-185.8561509999999828
11
73.5768199999999979
21
-185.6656739999999957
0
LINE
8
BLACK
6
CONTINUOUS
10
73.5768199999999979
20
-185.6656739999999957
11
73.7672960000000018
21
-185.5704360000000008
0
LINE
8
BLACK
6
CONTINUOUS
10
73.7672960000000018
20
-185.5704360000000008
11
74.0530100000000004
21
-185.5704360000000008
0
LINE
8
BLACK
6
CONTINUOUS
10
74.0530100000000004
20
-185.5704360000000008
11
74.2434870000000018
21
-185.6656739999999957
0
LINE
8
BLACK
6
CONTINUOUS
10
75.0053920000000005
20
-187.6656739999999957
11
75.1006299999999953
21
-187.5704360000000008
0
LINE
8
BLACK
6
CONTINUOUS
10
75.1006299999999953
20
-187.5704360000000008
11
75.2911059999999992
21
-187.2847219999999879
0
LINE
8
BLACK
6
CONTINUOUS
10
75.2911059999999992
20
-187.2847219999999879
11
75.386343999999994
21
-187.0942459999999983
0
LINE
8
BLACK
6
CONTINUOUS
10
75.386343999999994
20
-187.0942459999999983
11
75.4815820000000031
21
-186.8085319999999854
0
LINE
8
BLACK
6
CONTINUOUS
10
75.4815820000000031
20
-186.8085319999999854
11
75.5768199999999979
21
-186.3323409999999853
0
LINE
8
BLACK
6
CONTINUOUS
10
75.5768199999999979
20
-186.3323409999999853
11
75.5768199999999979
21
-185.9513889999999776
0
LINE
8
BLACK
6
CONTINUOUS
10
75.5768199999999979
20
-185.9513889999999776
11
75.4815820000000031
21
-185.4751979999999776
0
LINE
8
BLACK
6
CONTINUOUS
10
75.4815820000000031
20
-185.4751979999999776
11
75.386343999999994
21
-185.1894839999999931
0
LINE
8
BLACK
6
CONTINUOUS
10
75.386343999999994
20
-185.1894839999999931
11
75.2911059999999992
21
-184.9990080000000034
0
LINE
8
BLACK
6
CONTINUOUS
10
75.2911059999999992
20
-184.9990080000000034
11
75.1006299999999953
21
-184.7132929999999931
0
LINE
8
BLACK
6
CONTINUOUS
10
75.1006299999999953
20
-184.7132929999999931
11
75.0053920000000005
21
-184.6180549999999982
0
LINE
8
BLACK
6
CONTINUOUS
10
78.6244399999999928
20
-187.6656739999999957
11
78.5292010000000005
21
-187.5704360000000008
0
LINE
8
BLACK
6
CONTINUOUS
10
78.5292010000000005
20
-187.5704360000000008
11
78.3387249999999966
21
-187.2847219999999879
0
LINE
8
BLACK
6
CONTINUOUS
10
78.3387249999999966
20
-187.2847219999999879
11
78.2434870000000018
21
-187.0942459999999983
0
LINE
8
BLACK
6
CONTINUOUS
10
78.2434870000000018
20
-187.0942459999999983
11
78.1482489999999927
21
-186.8085319999999854
0
LINE
8
BLACK
6
CONTINUOUS
10
78.1482489999999927
20
-186.8085319999999854
11
78.0530109999999979
21
-186.3323409999999853
0
LINE
8
BLACK
6
CONTINUOUS
10
78.0530109999999979
20
-186.3323409999999853
11
78.0530109999999979
21
-185.9513889999999776
0
LINE
8
BLACK
6
CONTINUOUS
10
78.0530109999999979
20
-185.9513889999999776
11
78.1482489999999927
21
-185.4751979999999776
0
LINE
8
BLACK
6
CONTINUOUS
10
78.1482489999999927
20
-185.4751979999999776
11
78.2434870000000018
21
-185.1894839999999931
0
LINE
8
BLACK
6
CONTINUOUS
10
78.2434870000000018
20
-185.1894839999999931
11
78.3387249999999966
21
-184.9990080000000034
0
LINE
8
BLACK
6
CONTINUOUS
10
78.3387249999999966
20
-184.9990080000000034
11
78.5292010000000005
21
-184.7132929999999931
0
LINE
8
BLACK
6
CONTINUOUS
10
78.5292010000000005
20
-184.7132929999999931
11
78.6244399999999928
21
-184.6180549999999982
0
LINE
8
BLACK
6
CONTINUOUS
10
79.386343999999994
20
-185.5704360000000008
11
79.386343999999994
21
-186.9037699999999802
0
LINE
8
BLACK
6
CONTINUOUS
10
79.386343999999994
20
-185.7609119999999905
11
79.4815820000000031
21
-185.6656739999999957
0
LINE
8
BLACK
6
CONTINUOUS
10
79.4815820000000031
20
-185.6656739999999957
11
79.6720579999999927
21
-185.5704360000000008
0
LINE
8
BLACK
6
CONTINUOUS
10
79.6720579999999927
20
-185.5704360000000008
11
79.9577730000000031
21
-185.5704360000000008
0
LINE
8
BLACK
6
CONTINUOUS
10
79.9577730000000031
20
-185.5704360000000008
11
80.1482489999999927
21
-185.6656739999999957
0
LINE
8
BLACK
6
CONTINUOUS
10
80.1482489999999927
20
-185.6656739999999957
11
80.2434870000000018
21
-185.8561509999999828
0
LINE
8
BLACK
6
CONTINUOUS
10
80.2434870000000018
20
-185.8561509999999828
11
80.2434870000000018
21
-186.9037699999999802
0
LINE
8
BLACK
6
CONTINUOUS
10
81.4815820000000031
20
-186.9037699999999802
11
81.2911059999999992
21
-186.8085319999999854
0
LINE
8
BLACK
6
CONTINUOUS
10
81.2911059999999992
20
-186.8085319999999854
11
81.1958679999999902
21
-186.7132929999999931
0
LINE
8
BLACK
6
CONTINUOUS
10
81.1958679999999902
20
-186.7132929999999931
11
81.1006299999999953
21
-186.5228170000000034
0
LINE
8
BLACK
6
CONTINUOUS
10
81.1006299999999953
20
-186.5228170000000034
11
81.1006299999999953
21
-185.9513889999999776
0
LINE
8
BLACK
6
CONTINUOUS
10
81.1006299999999953
20
-185.9513889999999776
11
81.1958679999999902
21
-185.7609119999999905
0
LINE
8
BLACK
6
CONTINUOUS
10
81.1958679999999902
20
-185.7609119999999905
11
81.2911059999999992
21
-185.6656739999999957
0
LINE
8
BLACK
6
CONTINUOUS
10
81.2911059999999992
20
-185.6656739999999957
11
81.4815820000000031
21
-185.5704360000000008
0
LINE
8
BLACK
6
CONTINUOUS
10
81.4815820000000031
20
-185.5704360000000008
11
81.7672969999999992
21
-185.5704360000000008
0
LINE
8
BLACK
6
CONTINUOUS
10
81.7672969999999992
20
-185.5704360000000008
11
81.9577730000000031
21
-185.6656739999999957
0
LINE
8
BLACK
6
CONTINUOUS
10
81.9577730000000031
20
-185.6656739999999957
11
82.0530109999999979
21
-185.7609119999999905
0
LINE
8
BLACK
6
CONTINUOUS
10
82.0530109999999979
20
-185.7609119999999905
11
82.1482489999999927
21
-185.9513889999999776
0
LINE
8
BLACK
6
CONTINUOUS
10
82.1482489999999927
20
-185.9513889999999776
11
82.1482489999999927
21
-186.5228170000000034
0
LINE
8
BLACK
6
CONTINUOUS
10
82.1482489999999927
20
-186.5228170000000034
11
82.0530109999999979
21
-186.7132929999999931
0
LINE
8
BLACK
6
CONTINUOUS
10
82.0530109999999979
20
-186.7132929999999931
11
81.9577730000000031
21
-186.8085319999999854
0
LINE
8
BLACK
6
CONTINUOUS
10
81.9577730000000031
20
-186.8085319999999854
11
81.7672969999999992
21
-186.9037699999999802
0
LINE
8
BLACK
6
CONTINUOUS
10
81.7672969999999992
20
-186.9037699999999802
11
81.4815820000000031
21
-186.9037699999999802
0
LINE
8
BLACK
6
CONTINUOUS
10
82.7196780000000018
20
-185.5704360000000008
11
83.4815820000000031
21
-185.5704360000000008
0
LINE
8
BLACK
6
CONTINUOUS
10
83.0053920000000005
20
-184.9037699999999802
11
83.0053920000000005
21
-186.6180549999999982
0
LINE
8
BLACK
6
CONTINUOUS
10
83.0053920000000005
20
-186.6180549999999982
11
83.1006299999999953
21
-186.8085319999999854
0
LINE
8
BLACK
6
CONTINUOUS
10
83.1006299999999953
20
-186.8085319999999854
11
83.2911059999999992
21
-186.9037699999999802
0
LINE
8
BLACK
6
CONTINUOUS
10
83.2911059999999992
20
-186.9037699999999802
11
83.4815820000000031
21
-186.9037699999999802
0
LINE
8
BLACK
6
CONTINUOUS
10
85.6720589999999902
20
-185.5704360000000008
11
85.6720589999999902
21
-187.5704360000000008
0
LINE
8
BLACK
6
CONTINUOUS
10
85.6720589999999902
20
-185.6656739999999957
11
85.8625349999999941
21
-185.5704360000000008
0
LINE
8
BLACK
6
CONTINUOUS
10
85.8625349999999941
20
-185.5704360000000008
11
86.2434879999999993
21
-185.5704360000000008
0
LINE
8
BLACK
6
CONTINUOUS
10
86.2434879999999993
20
-185.5704360000000008
11
86.4339640000000031
21
-185.6656739999999957
0
LINE
8
BLACK
6
CONTINUOUS
10
86.4339640000000031
20
-185.6656739999999957
11
86.529201999999998
21
-185.7609119999999905
0
LINE
8
BLACK
6
CONTINUOUS
10
86.529201999999998
20
-185.7609119999999905
11
86.6244399999999928
21
-185.9513889999999776
0
LINE
8
BLACK
6
CONTINUOUS
10
86.6244399999999928
20
-185.9513889999999776
11
86.6244399999999928
21
-186.5228170000000034
0
LINE
8
BLACK
6
CONTINUOUS
10
86.6244399999999928
20
-186.5228170000000034
11
86.529201999999998
21
-186.7132929999999931
0
LINE
8
BLACK
6
CONTINUOUS
10
86.529201999999998
20
-186.7132929999999931
11
86.4339640000000031
21
-186.8085319999999854
0
LINE
8
BLACK
6
CONTINUOUS
10
86.4339640000000031
20
-186.8085319999999854
11
86.2434879999999993
21
-186.9037699999999802
0
LINE
8
BLACK
6
CONTINUOUS
10
86.2434879999999993
20
-186.9037699999999802
11
85.8625349999999941
21
-186.9037699999999802
0
LINE
8
BLACK
6
CONTINUOUS
10
85.8625349999999941
20
-186.9037699999999802
11
85.6720589999999902
21
-186.8085319999999854
0
LINE
8
BLACK
6
CONTINUOUS
10
87.7672969999999992
20
-186.9037699999999802
11
87.5768209999999954
21
-186.8085319999999854
0
LINE
8
BLACK
6
CONTINUOUS
10
87.5768209999999954
20
-186.8085319999999854
11
87.4815830000000005
21
-186.6180549999999982
0
LINE
8
BLACK
6
CONTINUOUS
10
87.4815830000000005
20
-186.6180549999999982
11
87.4815830000000005
21
-184.9037699999999802
0
LINE
8
BLACK
6
CONTINUOUS
10
89.3863449999999915
20
-186.9037699999999802
11
89.3863449999999915
21
-185.8561509999999828
0
LINE
8
BLACK
6
CONTINUOUS
10
89.3863449999999915
20
-185.8561509999999828
11
89.2911069999999967
21
-185.6656739999999957
0
LINE
8
BLACK
6
CONTINUOUS
10
89.2911069999999967
20
-185.6656739999999957
11
89.1006309999999928
21
-185.5704360000000008
0
LINE
8
BLACK
6
CONTINUOUS
10
89.1006309999999928
20
-185.5704360000000008
11
88.7196780000000018
21
-185.5704360000000008
0
LINE
8
BLACK
6
CONTINUOUS
10
88.7196780000000018
20
-185.5704360000000008
11
88.529201999999998
21
-185.6656739999999957
0
LINE
8
BLACK
6
CONTINUOUS
10
89.3863449999999915
20
-186.8085319999999854
11
89.1958690000000018
21
-186.9037699999999802
0
LINE
8
BLACK
6
CONTINUOUS
10
89.1958690000000018
20
-186.9037699999999802
11
88.7196780000000018
21
-186.9037699999999802
0
LINE
8
BLACK
6
CONTINUOUS
10
88.7196780000000018
20
-186.9037699999999802
11
88.529201999999998
21
-186.8085319999999854
0
LINE
8
BLACK
6
CONTINUOUS
10
88.529201999999998
20
-186.8085319999999854
11
88.4339639999999889
21
-186.6180549999999982
0
LINE
8
BLACK
6
CONTINUOUS
10
88.4339639999999889
20
-186.6180549999999982
11
88.4339639999999889
21
-186.4275789999999802
0
LINE
8
BLACK
6
CONTINUOUS
10
88.4339639999999889
20
-186.4275789999999802
11
88.529201999999998
21
-186.2371029999999905
0
LINE
8
BLACK
6
CONTINUOUS
10
88.529201999999998
20
-186.2371029999999905
11
88.7196780000000018
21
-186.1418649999999957
0
LINE
8
BLACK
6
CONTINUOUS
10
88.7196780000000018
20
-186.1418649999999957
11
89.1958690000000018
21
-186.1418649999999957
0
LINE
8
BLACK
6
CONTINUOUS
10
89.1958690000000018
20
-186.1418649999999957
11
89.3863449999999915
21
-186.0466270000000009
0
LINE
8
BLACK
6
CONTINUOUS
10
90.0530119999999954
20
-185.5704360000000008
11
90.8149159999999966
21
-185.5704360000000008
0
LINE
8
BLACK
6
CONTINUOUS
10
90.3387259999999941
20
-184.9037699999999802
11
90.3387259999999941
21
-186.6180549999999982
0
LINE
8
BLACK
6
CONTINUOUS
10
90.3387259999999941
20
-186.6180549999999982
11
90.4339639999999889
21
-186.8085319999999854
0
LINE
8
BLACK
6
CONTINUOUS
10
90.4339639999999889
20
-186.8085319999999854
11
90.6244399999999928
21
-186.9037699999999802
0
LINE
8
BLACK
6
CONTINUOUS
10
90.6244399999999928
20
-186.9037699999999802
11
90.8149159999999966
21
-186.9037699999999802
0
LINE
8
BLACK
6
CONTINUOUS
10
92.2434879999999993
20
-186.8085319999999854
11
92.0530119999999954
21
-186.9037699999999802
0
LINE
8
BLACK
6
CONTINUOUS
10
92.0530119999999954
20
-186.9037699999999802
11
91.6720589999999902
21
-186.9037699999999802
0
LINE
8
BLACK
6
CONTINUOUS
10
91.6720589999999902
20
-186.9037699999999802
11
91.4815830000000005
21
-186.8085319999999854
0
LINE
8
BLACK
6
CONTINUOUS
10
91.4815830000000005
20
-186.8085319999999854
11
91.3863449999999915
21
-186.6180549999999982
0
LINE
8
BLACK
6
CONTINUOUS
10
91.3863449999999915
20
-186.6180549999999982
11
91.3863449999999915
21
-185.8561509999999828
0
LINE
8
BLACK
6
CONTINUOUS
10
91.3863449999999915
20
-185.8561509999999828
11
91.4815830000000005
21
-185.6656739999999957
0
LINE
8
BLACK
6
CONTINUOUS
10
91.4815830000000005
20
-185.6656739999999957
11
91.6720589999999902
21
-185.5704360000000008
0
LINE
8
BLACK
6
CONTINUOUS
10
91.6720589999999902
20
-185.5704360000000008
11
92.0530119999999954
21
-185.5704360000000008
0
LINE
8
BLACK
6
CONTINUOUS
10
92.0530119999999954
20
-185.5704360000000008
11
92.2434879999999993
21
-185.6656739999999957
0
LINE
8
BLACK
6
CONTINUOUS
10
92.2434879999999993
20
-185.6656739999999957
11
92.3387259999999941
21
-185.8561509999999828
0
LINE
8
BLACK
6
CONTINUOUS
10
92.3387259999999941
20
-185.8561509999999828
11
92.3387259999999941
21
-186.0466270000000009
0
LINE
8
BLACK
6
CONTINUOUS
10
92.3387259999999941
20
-186.0466270000000009
11
91.3863449999999915
21
-186.2371029999999905
0
LINE
8
BLACK
6
CONTINUOUS
10
94.0530119999999954
20
-186.9037699999999802
11
94.0530119999999954
21
-184.9037699999999802
0
LINE
8
BLACK
6
CONTINUOUS
10
94.0530119999999954
20
-186.8085319999999854
11
93.8625359999999915
21
-186.9037699999999802
0
LINE
8
BLACK
6
CONTINUOUS
10
93.8625359999999915
20
-186.9037699999999802
11
93.4815830000000005
21
-186.9037699999999802
0
LINE
8
BLACK
6
CONTINUOUS
10
93.4815830000000005
20
-186.9037699999999802
11
93.2911069999999967
21
-186.8085319999999854
0
LINE
8
BLACK
6
CONTINUOUS
10
93.2911069999999967
20
-186.8085319999999854
11
93.1958690000000018
21
-186.7132929999999931
0
LINE
8
BLACK
6
CONTINUOUS
10
93.1958690000000018
20
-186.7132929999999931
11
93.1006309999999928
21
-186.5228170000000034
0
LINE
8
BLACK
6
CONTINUOUS
10
93.1006309999999928
20
-186.5228170000000034
11
93.1006309999999928
21
-185.9513889999999776
0
LINE
8
BLACK
6
CONTINUOUS
10
93.1006309999999928
20
-185.9513889999999776
11
93.1958690000000018
21
-185.7609119999999905
0
LINE
8
BLACK
6
CONTINUOUS
10
93.1958690000000018
20
-185.7609119999999905
11
93.2911069999999967
21
-185.6656739999999957
0
LINE
8
BLACK
6
CONTINUOUS
10
93.2911069999999967
20
-185.6656739999999957
11
93.4815830000000005
21
-185.5704360000000008
0
LINE
8
BLACK
6
CONTINUOUS
10
93.4815830000000005
20
-185.5704360000000008
11
93.8625359999999915
21
-185.5704360000000008
0
LINE
8
BLACK
6
CONTINUOUS
10
93.8625359999999915
20
-185.5704360000000008
11
94.0530119999999954
21
-185.6656739999999957
0
LINE
8
BLACK
6
CONTINUOUS
10
94.8149169999999941
20
-187.6656739999999957
11
94.9101549999999889
21
-187.5704360000000008
0
LINE
8
BLACK
6
CONTINUOUS
10
94.9101549999999889
20
-187.5704360000000008
11
95.1006309999999928
21
-187.2847219999999879
0
LINE
8
BLACK
6
CONTINUOUS
10
95.1006309999999928
20
-187.2847219999999879
11
95.1958690000000018
21
-187.0942459999999983
0
LINE
8
BLACK
6
CONTINUOUS
10
95.1958690000000018
20
-187.0942459999999983
11
95.2911069999999967
21
-186.8085319999999854
0
LINE
8
BLACK
6
CONTINUOUS
10
95.2911069999999967
20
-186.8085319999999854
11
95.3863449999999915
21
-186.3323409999999853
0
LINE
8
BLACK
6
CONTINUOUS
10
95.3863449999999915
20
-186.3323409999999853
11
95.3863449999999915
21
-185.9513889999999776
0
LINE
8
BLACK
6
CONTINUOUS
10
95.3863449999999915
20
-185.9513889999999776
11
95.2911069999999967
21
-185.4751979999999776
0
LINE
8
BLACK
6
CONTINUOUS
10
95.2911069999999967
20
-185.4751979999999776
11
95.1958690000000018
21
-185.1894839999999931
0
LINE
8
BLACK
6
CONTINUOUS
10
95.1958690000000018
20
-185.1894839999999931
11
95.1006309999999928
21
-184.9990080000000034
0
LINE
8
BLACK
6
CONTINUOUS
10
95.1006309999999928
20
-184.9990080000000034
11
94.9101549999999889
21
-184.7132929999999931
0
LINE
8
BLACK
6
CONTINUOUS
10
94.9101549999999889
20
-184.7132929999999931
11
94.8149169999999941
21
-184.6180549999999982
0
CIRCLE
8
BLACK
10
24.3499999999999979
20
-188.8907319999999856
40
1.
0
LINE
8
BLACK
6
CONTINUOUS
10
27.7672919999999976
20
-187.8055699999999888
11
29.0053869999999989
21
-187.8055699999999888
0
LINE
8
BLACK
6
CONTINUOUS
10
29.0053869999999989
20
-187.8055699999999888
11
28.3387199999999986
21
-188.5674740000000043
0
LINE
8
BLACK
6
CONTINUOUS
10
28.3387199999999986
20
-188.5674740000000043
11
28.6244349999999983
21
-188.5674740000000043
0
LINE
8
BLACK
6
CONTINUOUS
10
28.6244349999999983
20
-188.5674740000000043
11
28.8149109999999986
21
-188.6627119999999991
0
LINE
8
BLACK
6
CONTINUOUS
10
28.8149109999999986
20
-188.6627119999999991
11
28.910148999999997
21
-188.7579509999999914
0
LINE
8
BLACK
6
CONTINUOUS
10
28.910148999999997
20
-188.7579509999999914
11
29.0053869999999989
21
-188.948426999999981
0
LINE
8
BLACK
6
CONTINUOUS
10
29.0053869999999989
20
-188.948426999999981
11
29.0053869999999989
21
-189.4246169999999836
0
LINE
8
BLACK
6
CONTINUOUS
10
29.0053869999999989
20
-189.4246169999999836
11
28.910148999999997
21
-189.6150930000000017
0
LINE
8
BLACK
6
CONTINUOUS
10
28.910148999999997
20
-189.6150930000000017
11
28.8149109999999986
21
-189.710331999999994
0
LINE
8
BLACK
6
CONTINUOUS
10
28.8149109999999986
20
-189.710331999999994
11
28.6244349999999983
21
-189.8055699999999888
0
LINE
8
BLACK
6
CONTINUOUS
10
28.6244349999999983
20
-189.8055699999999888
11
28.0530059999999999
21
-189.8055699999999888
0
LINE
8
BLACK
6
CONTINUOUS
10
28.0530059999999999
20
-189.8055699999999888
11
27.8625299999999996
21
-189.710331999999994
0
LINE
8
BLACK
6
CONTINUOUS
10
27.8625299999999996
20
-189.710331999999994
11
27.7672919999999976
21
-189.6150930000000017
0
LINE
8
BLACK
6
CONTINUOUS
10
29.8625299999999996
20
-189.6150930000000017
11
29.957767999999998
21
-189.710331999999994
0
LINE
8
BLACK
6
CONTINUOUS
10
29.957767999999998
20
-189.710331999999994
11
29.8625299999999996
21
-189.8055699999999888
0
LINE
8
BLACK
6
CONTINUOUS
10
29.8625299999999996
20
-189.8055699999999888
11
29.7672919999999976
21
-189.710331999999994
0
LINE
8
BLACK
6
CONTINUOUS
10
29.7672919999999976
20
-189.710331999999994
11
29.8625299999999996
21
-189.6150930000000017
0
LINE
8
BLACK
6
CONTINUOUS
10
29.8625299999999996
20
-189.6150930000000017
11
29.8625299999999996
21
-189.8055699999999888
0
LINE
8
BLACK
6
CONTINUOUS
10
30.7196730000000002
20
-187.9960459999999784
11
30.8149109999999986
21
-187.9008079999999836
0
LINE
8
BLACK
6
CONTINUOUS
10
30.8149109999999986
20
-187.9008079999999836
11
31.0053869999999989
21
-187.8055699999999888
0
LINE
8
BLACK
6
CONTINUOUS
10
31.0053869999999989
20
-187.8055699999999888
11
31.481577999999999
21
-187.8055699999999888
0
LINE
8
BLACK
6
CONTINUOUS
10
31.481577999999999
20
-187.8055699999999888
11
31.6720539999999993
21
-187.9008079999999836
0
LINE
8
BLACK
6
CONTINUOUS
10
31.6720539999999993
20
-187.9008079999999836
11
31.7672919999999976
21
-187.9960459999999784
0
LINE
8
BLACK
6
CONTINUOUS
10
31.7672919999999976
20
-187.9960459999999784
11
31.8625299999999996
21
-188.1865219999999965
0
LINE
8
BLACK
6
CONTINUOUS
10
31.8625299999999996
20
-188.1865219999999965
11
31.8625299999999996
21
-188.3769979999999862
0
LINE
8
BLACK
6
CONTINUOUS
10
31.8625299999999996
20
-188.3769979999999862
11
31.7672919999999976
21
-188.6627119999999991
0
LINE
8
BLACK
6
CONTINUOUS
10
31.7672919999999976
20
-188.6627119999999991
11
30.6244349999999983
21
-189.8055699999999888
0
LINE
8
BLACK
6
CONTINUOUS
10
30.6244349999999983
20
-189.8055699999999888
11
31.8625299999999996
21
-189.8055699999999888
0
LINE
8
BLACK
6
CONTINUOUS
10
33.6720539999999957
20
-187.8055699999999888
11
32.7196730000000002
21
-187.8055699999999888
0
LINE
8
BLACK
6
CONTINUOUS
10
32.7196730000000002
20
-187.8055699999999888
11
32.6244349999999983
21
-188.7579509999999914
0
LINE
8
BLACK
6
CONTINUOUS
10
32.6244349999999983
20
-188.7579509999999914
11
32.7196730000000002
21
-188.6627119999999991
0
LINE
8
BLACK
6
CONTINUOUS
10
32.7196730000000002
20
-188.6627119999999991
11
32.910148999999997
21
-188.5674740000000043
0
LINE
8
BLACK
6
CONTINUOUS
10
32.910148999999997
20
-188.5674740000000043
11
33.386339999999997
21
-188.5674740000000043
0
LINE
8
BLACK
6
CONTINUOUS
10
33.386339999999997
20
-188.5674740000000043
11
33.5768160000000009
21
-188.6627119999999991
0
LINE
8
BLACK
6
CONTINUOUS
10
33.5768160000000009
20
-188.6627119999999991
11
33.6720539999999957
21
-188.7579509999999914
0
LINE
8
BLACK
6
CONTINUOUS
10
33.6720539999999957
20
-188.7579509999999914
11
33.7672919999999976
21
-188.948426999999981
0
LINE
8
BLACK
6
CONTINUOUS
10
33.7672919999999976
20
-188.948426999999981
11
33.7672919999999976
21
-189.4246169999999836
0
LINE
8
BLACK
6
CONTINUOUS
10
33.7672919999999976
20
-189.4246169999999836
11
33.6720539999999957
21
-189.6150930000000017
0
LINE
8
BLACK
6
CONTINUOUS
10
33.6720539999999957
20
-189.6150930000000017
11
33.5768160000000009
21
-189.710331999999994
0
LINE
8
BLACK
6
CONTINUOUS
10
33.5768160000000009
20
-189.710331999999994
11
33.386339999999997
21
-189.8055699999999888
0
LINE
8
BLACK
6
CONTINUOUS
10
33.386339999999997
20
-189.8055699999999888
11
32.910148999999997
21
-189.8055699999999888
0
LINE
8
BLACK
6
CONTINUOUS
10
32.910148999999997
20
-189.8055699999999888
11
32.7196730000000002
21
-189.710331999999994
0
LINE
8
BLACK
6
CONTINUOUS
10
32.7196730000000002
20
-189.710331999999994
11
32.6244349999999983
21
-189.6150930000000017
0
LINE
8
BLACK
6
CONTINUOUS
10
35.0053869999999989
20
-187.8055699999999888
11
35.1958640000000003
21
-187.8055699999999888
0
LINE
8
BLACK
6
CONTINUOUS
10
35.1958640000000003
20
-187.8055699999999888
11
35.386339999999997
21
-187.9008079999999836
0
LINE
8
BLACK
6
CONTINUOUS
10
35.386339999999997
20
-187.9008079999999836
11
35.481577999999999
21
-187.9960459999999784
0
LINE
8
BLACK
6
CONTINUOUS
10
35.481577999999999
20
-187.9960459999999784
11
35.5768160000000009
21
-188.1865219999999965
0
LINE
8
BLACK
6
CONTINUOUS
10
35.5768160000000009
20
-188.1865219999999965
11
35.6720539999999957
21
-188.5674740000000043
0
LINE
8
BLACK
6
CONTINUOUS
10
35.6720539999999957
20
-188.5674740000000043
11
35.6720539999999957
21
-189.0436650000000043
0
LINE
8
BLACK
6
CONTINUOUS
10
35.6720539999999957
20
-189.0436650000000043
11
35.5768160000000009
21
-189.4246169999999836
0
LINE
8
BLACK
6
CONTINUOUS
10
35.5768160000000009
20
-189.4246169999999836
11
35.481577999999999
21
-189.6150930000000017
0
LINE
8
BLACK
6
CONTINUOUS
10
35.481577999999999
20
-189.6150930000000017
11
35.386339999999997
21
-189.710331999999994
0
LINE
8
BLACK
6
CONTINUOUS
10
35.386339999999997
20
-189.710331999999994
11
35.1958640000000003
21
-189.8055699999999888
0
LINE
8
BLACK
6
CONTINUOUS
10
35.1958640000000003
20
-189.8055699999999888
11
35.0053869999999989
21
-189.8055699999999888
0
LINE
8
BLACK
6
CONTINUOUS
10
35.0053869999999989
20
-189.8055699999999888
11
34.8149109999999951
21
-189.710331999999994
0
LINE
8
BLACK
6
CONTINUOUS
10
34.8149109999999951
20
-189.710331999999994
11
34.7196730000000002
21
-189.6150930000000017
0
LINE
8
BLACK
6
CONTINUOUS
10
34.7196730000000002
20
-189.6150930000000017
11
34.6244349999999983
21
-189.4246169999999836
0
LINE
8
BLACK
6
CONTINUOUS
10
34.6244349999999983
20
-189.4246169999999836
11
34.5291969999999964
21
-189.0436650000000043
0
LINE
8
BLACK
6
CONTINUOUS
10
34.5291969999999964
20
-189.0436650000000043
11
34.5291969999999964
21
-188.5674740000000043
0
LINE
8
BLACK
6
CONTINUOUS
10
34.5291969999999964
20
-188.5674740000000043
11
34.6244349999999983
21
-188.1865219999999965
0
LINE
8
BLACK
6
CONTINUOUS
10
34.6244349999999983
20
-188.1865219999999965
11
34.7196730000000002
21
-187.9960459999999784
0
LINE
8
BLACK
6
CONTINUOUS
10
34.7196730000000002
20
-187.9960459999999784
11
34.8149109999999951
21
-187.9008079999999836
0
LINE
8
BLACK
6
CONTINUOUS
10
34.8149109999999951
20
-187.9008079999999836
11
35.0053869999999989
21
-187.8055699999999888
0
LINE
8
BLACK
6
CONTINUOUS
10
36.5291969999999964
20
-189.8055699999999888
11
36.5291969999999964
21
-188.472235999999981
0
LINE
8
BLACK
6
CONTINUOUS
10
36.5291969999999964
20
-188.6627119999999991
11
36.6244349999999983
21
-188.5674740000000043
0
LINE
8
BLACK
6
CONTINUOUS
10
36.6244349999999983
20
-188.5674740000000043
11
36.8149109999999951
21
-188.472235999999981
0
LINE
8
BLACK
6
CONTINUOUS
10
36.8149109999999951
20
-188.472235999999981
11
37.1006259999999983
21
-188.472235999999981
0
LINE
8
BLACK
6
CONTINUOUS
10
37.1006259999999983
20
-188.472235999999981
11
37.2911019999999951
21
-188.5674740000000043
0
LINE
8
BLACK
6
CONTINUOUS
10
37.2911019999999951
20
-188.5674740000000043
11
37.386339999999997
21
-188.7579509999999914
0
LINE
8
BLACK
6
CONTINUOUS
10
37.386339999999997
20
-188.7579509999999914
11
37.386339999999997
21
-189.8055699999999888
0
LINE
8
BLACK
6
CONTINUOUS
10
37.386339999999997
20
-188.7579509999999914
11
37.481577999999999
21
-188.5674740000000043
0
LINE
8
BLACK
6
CONTINUOUS
10
37.481577999999999
20
-188.5674740000000043
11
37.6720539999999957
21
-188.472235999999981
0
LINE
8
BLACK
6
CONTINUOUS
10
37.6720539999999957
20
-188.472235999999981
11
37.9577680000000015
21
-188.472235999999981
0
LINE
8
BLACK
6
CONTINUOUS
10
37.9577680000000015
20
-188.472235999999981
11
38.1482449999999957
21
-188.5674740000000043
0
LINE
8
BLACK
6
CONTINUOUS
10
38.1482449999999957
20
-188.5674740000000043
11
38.2434829999999977
21
-188.7579509999999914
0
LINE
8
BLACK
6
CONTINUOUS
10
38.2434829999999977
20
-188.7579509999999914
11
38.2434829999999977
21
-189.8055699999999888
0
LINE
8
BLACK
6
CONTINUOUS
10
39.1958640000000003
20
-189.8055699999999888
11
39.1958640000000003
21
-188.472235999999981
0
LINE
8
BLACK
6
CONTINUOUS
10
39.1958640000000003
20
-188.6627119999999991
11
39.2911019999999951
21
-188.5674740000000043
0
LINE
8
BLACK
6
CONTINUOUS
10
39.2911019999999951
20
-188.5674740000000043
11
39.481577999999999
21
-188.472235999999981
0
LINE
8
BLACK
6
CONTINUOUS
10
39.481577999999999
20
-188.472235999999981
11
39.7672929999999951
21
-188.472235999999981
0
LINE
8
BLACK
6
CONTINUOUS
10
39.7672929999999951
20
-188.472235999999981
11
39.957768999999999
21
-188.5674740000000043
0
LINE
8
BLACK
6
CONTINUOUS
10
39.957768999999999
20
-188.5674740000000043
11
40.0530070000000009
21
-188.7579509999999914
0
LINE
8
BLACK
6
CONTINUOUS
10
40.0530070000000009
20
-188.7579509999999914
11
40.0530070000000009
21
-189.8055699999999888
0
LINE
8
BLACK
6
CONTINUOUS
10
40.0530070000000009
20
-188.7579509999999914
11
40.1482449999999957
21
-188.5674740000000043
0
LINE
8
BLACK
6
CONTINUOUS
10
40.1482449999999957
20
-188.5674740000000043
11
40.3387209999999996
21
-188.472235999999981
0
LINE
8
BLACK
6
CONTINUOUS
10
40.3387209999999996
20
-188.472235999999981
11
40.6244349999999983
21
-188.472235999999981
0
LINE
8
BLACK
6
CONTINUOUS
10
40.6244349999999983
20
-188.472235999999981
11
40.8149119999999996
21
-188.5674740000000043
0
LINE
8
BLACK
6
CONTINUOUS
10
40.8149119999999996
20
-188.5674740000000043
11
40.9101500000000016
21
-188.7579509999999914
0
LINE
8
BLACK
6
CONTINUOUS
10
40.9101500000000016
20
-188.7579509999999914
11
40.9101500000000016
21
-189.8055699999999888
0
LINE
8
BLACK
6
CONTINUOUS
10
44.8149119999999996
20
-187.710331999999994
11
43.1006269999999958
21
-190.2817599999999914
0
LINE
8
BLACK
6
CONTINUOUS
10
47.3863409999999945
20
-187.8055699999999888
11
47.5768179999999958
21
-187.8055699999999888
0
LINE
8
BLACK
6
CONTINUOUS
10
47.5768179999999958
20
-187.8055699999999888
11
47.7672939999999997
21
-187.9008079999999836
0
LINE
8
BLACK
6
CONTINUOUS
10
47.7672939999999997
20
-187.9008079999999836
11
47.8625319999999945
21
-187.9960459999999784
0
LINE
8
BLACK
6
CONTINUOUS
10
47.8625319999999945
20
-187.9960459999999784
11
47.9577699999999965
21
-188.1865219999999965
0
LINE
8
BLACK
6
CONTINUOUS
10
47.9577699999999965
20
-188.1865219999999965
11
48.0530079999999984
21
-188.5674740000000043
0
LINE
8
BLACK
6
CONTINUOUS
10
48.0530079999999984
20
-188.5674740000000043
11
48.0530079999999984
21
-189.0436650000000043
0
LINE
8
BLACK
6
CONTINUOUS
10
48.0530079999999984
20
-189.0436650000000043
11
47.9577699999999965
21
-189.4246169999999836
0
LINE
8
BLACK
6
CONTINUOUS
10
47.9577699999999965
20
-189.4246169999999836
11
47.8625319999999945
21
-189.6150930000000017
0
LINE
8
BLACK
6
CONTINUOUS
10
47.8625319999999945
20
-189.6150930000000017
11
47.7672939999999997
21
-189.710331999999994
0
LINE
8
BLACK
6
CONTINUOUS
10
47.7672939999999997
20
-189.710331999999994
11
47.5768179999999958
21
-189.8055699999999888
0
LINE
8
BLACK
6
CONTINUOUS
10
47.5768179999999958
20
-189.8055699999999888
11
47.3863409999999945
21
-189.8055699999999888
0
LINE
8
BLACK
6
CONTINUOUS
10
47.3863409999999945
20
-189.8055699999999888
11
47.1958649999999977
21
-189.710331999999994
0
LINE
8
BLACK
6
CONTINUOUS
10
47.1958649999999977
20
-189.710331999999994
11
47.1006269999999958
21
-189.6150930000000017
0
LINE
8
BLACK
6
CONTINUOUS
10
47.1006269999999958
20
-189.6150930000000017
11
47.005389000000001
21
-189.4246169999999836
0
LINE
8
BLACK
6
CONTINUOUS
10
47.005389000000001
20
-189.4246169999999836
11
46.910150999999999
21
-189.0436650000000043
0
LINE
8
BLACK
6
CONTINUOUS
10
46.910150999999999
20
-189.0436650000000043
11
46.910150999999999
21
-188.5674740000000043
0
LINE
8
BLACK
6
CONTINUOUS
10
46.910150999999999
20
-188.5674740000000043
11
47.005389000000001
21
-188.1865219999999965
0
LINE
8
BLACK
6
CONTINUOUS
10
47.005389000000001
20
-188.1865219999999965
11
47.1006269999999958
21
-187.9960459999999784
0
LINE
8
BLACK
6
CONTINUOUS
10
47.1006269999999958
20
-187.9960459999999784
11
47.1958649999999977
21
-187.9008079999999836
0
LINE
8
BLACK
6
CONTINUOUS
10
47.1958649999999977
20
-187.9008079999999836
11
47.3863409999999945
21
-187.8055699999999888
0
LINE
8
BLACK
6
CONTINUOUS
10
48.910150999999999
20
-189.6150930000000017
11
49.005389000000001
21
-189.710331999999994
0
LINE
8
BLACK
6
CONTINUOUS
10
49.005389000000001
20
-189.710331999999994
11
48.910150999999999
21
-189.8055699999999888
0
LINE
8
BLACK
6
CONTINUOUS
10
48.910150999999999
20
-189.8055699999999888
11
48.8149129999999971
21
-189.710331999999994
0
LINE
8
BLACK
6
CONTINUOUS
10
48.8149129999999971
20
-189.710331999999994
11
48.910150999999999
21
-189.6150930000000017
0
LINE
8
BLACK
6
CONTINUOUS
10
48.910150999999999
20
-189.6150930000000017
11
48.910150999999999
21
-189.8055699999999888
0
LINE
8
BLACK
6
CONTINUOUS
10
50.910150999999999
20
-189.8055699999999888
11
49.7672939999999997
21
-189.8055699999999888
0
LINE
8
BLACK
6
CONTINUOUS
10
50.3387219999999971
20
-189.8055699999999888
11
50.3387219999999971
21
-187.8055699999999888
0
LINE
8
BLACK
6
CONTINUOUS
10
50.3387219999999971
20
-187.8055699999999888
11
50.1482460000000003
21
-188.0912840000000017
0
LINE
8
BLACK
6
CONTINUOUS
10
50.1482460000000003
20
-188.0912840000000017
11
49.9577699999999965
21
-188.2817599999999914
0
LINE
8
BLACK
6
CONTINUOUS
10
49.9577699999999965
20
-188.2817599999999914
11
49.7672939999999997
21
-188.3769979999999862
0
LINE
8
BLACK
6
CONTINUOUS
10
51.6720559999999978
20
-187.9960459999999784
11
51.7672939999999997
21
-187.9008079999999836
0
LINE
8
BLACK
6
CONTINUOUS
10
51.7672939999999997
20
-187.9008079999999836
11
51.9577699999999965
21
-187.8055699999999888
0
LINE
8
BLACK
6
CONTINUOUS
10
51.9577699999999965
20
-187.8055699999999888
11
52.4339609999999965
21
-187.8055699999999888
0
LINE
8
BLACK
6
CONTINUOUS
10
52.4339609999999965
20
-187.8055699999999888
11
52.6244370000000004
21
-187.9008079999999836
0
LINE
8
BLACK
6
CONTINUOUS
10
52.6244370000000004
20
-187.9008079999999836
11
52.7196749999999952
21
-187.9960459999999784
0
LINE
8
BLACK
6
CONTINUOUS
10
52.7196749999999952
20
-187.9960459999999784
11
52.8149129999999971
21
-188.1865219999999965
0
LINE
8
BLACK
6
CONTINUOUS
10
52.8149129999999971
20
-188.1865219999999965
11
52.8149129999999971
21
-188.3769979999999862
0
LINE
8
BLACK
6
CONTINUOUS
10
52.8149129999999971
20
-188.3769979999999862
11
52.7196749999999952
21
-188.6627119999999991
0
LINE
8
BLACK
6
CONTINUOUS
10
52.7196749999999952
20
-188.6627119999999991
11
51.5768179999999958
21
-189.8055699999999888
0
LINE
8
BLACK
6
CONTINUOUS
10
51.5768179999999958
20
-189.8055699999999888
11
52.8149129999999971
21
-189.8055699999999888
0
LINE
8
BLACK
6
CONTINUOUS
10
53.9577699999999965
20
-188.6627119999999991
11
53.7672939999999997
21
-188.5674740000000043
0
LINE
8
BLACK
6
CONTINUOUS
10
53.7672939999999997
20
-188.5674740000000043
11
53.6720559999999978
21
-188.472235999999981
0
LINE
8
BLACK
6
CONTINUOUS
10
53.6720559999999978
20
-188.472235999999981
11
53.5768179999999958
21
-188.2817599999999914
0
LINE
8
BLACK
6
CONTINUOUS
10
53.5768179999999958
20
-188.2817599999999914
11
53.5768179999999958
21
-188.1865219999999965
0
LINE
8
BLACK
6
CONTINUOUS
10
53.5768179999999958
20
-188.1865219999999965
11
53.6720559999999978
21
-187.9960459999999784
0
LINE
8
BLACK
6
CONTINUOUS
10
53.6720559999999978
20
-187.9960459999999784
11
53.7672939999999997
21
-187.9008079999999836
0
LINE
8
BLACK
6
CONTINUOUS
10
53.7672939999999997
20
-187.9008079999999836
11
53.9577699999999965
21
-187.8055699999999888
0
LINE
8
BLACK
6
CONTINUOUS
10
53.9577699999999965
20
-187.8055699999999888
11
54.3387229999999946
21
-187.8055699999999888
0
LINE
8
BLACK
6
CONTINUOUS
10
54.3387229999999946
20
-187.8055699999999888
11
54.5291989999999984
21
-187.9008079999999836
0
LINE
8
BLACK
6
CONTINUOUS
10
54.5291989999999984
20
-187.9008079999999836
11
54.6244370000000004
21
-187.9960459999999784
0
LINE
8
BLACK
6
CONTINUOUS
10
54.6244370000000004
20
-187.9960459999999784
11
54.7196749999999952
21
-188.1865219999999965
0
LINE
8
BLACK
6
CONTINUOUS
10
54.7196749999999952
20
-188.1865219999999965
11
54.7196749999999952
21
-188.2817599999999914
0
LINE
8
BLACK
6
CONTINUOUS
10
54.7196749999999952
20
-188.2817599999999914
11
54.6244370000000004
21
-188.472235999999981
0
LINE
8
BLACK
6
CONTINUOUS
10
54.6244370000000004
20
-188.472235999999981
11
54.5291989999999984
21
-188.5674740000000043
0
LINE
8
BLACK
6
CONTINUOUS
10
54.5291989999999984
20
-188.5674740000000043
11
54.3387229999999946
21
-188.6627119999999991
0
LINE
8
BLACK
6
CONTINUOUS
10
54.3387229999999946
20
-188.6627119999999991
11
53.9577699999999965
21
-188.6627119999999991
0
LINE
8
BLACK
6
CONTINUOUS
10
53.9577699999999965
20
-188.6627119999999991
11
53.7672939999999997
21
-188.7579509999999914
0
LINE
8
BLACK
6
CONTINUOUS
10
53.7672939999999997
20
-188.7579509999999914
11
53.6720559999999978
21
-188.8531889999999862
0
LINE
8
BLACK
6
CONTINUOUS
10
53.6720559999999978
20
-188.8531889999999862
11
53.5768179999999958
21
-189.0436650000000043
0
LINE
8
BLACK
6
CONTINUOUS
10
53.5768179999999958
20
-189.0436650000000043
11
53.5768179999999958
21
-189.4246169999999836
0
LINE
8
BLACK
6
CONTINUOUS
10
53.5768179999999958
20
-189.4246169999999836
11
53.6720559999999978
21
-189.6150930000000017
0
LINE
8
BLACK
6
CONTINUOUS
10
53.6720559999999978
20
-189.6150930000000017
11
53.7672939999999997
21
-189.710331999999994
0
LINE
8
BLACK
6
CONTINUOUS
10
53.7672939999999997
20
-189.710331999999994
11
53.9577699999999965
21
-189.8055699999999888
0
LINE
8
BLACK
6
CONTINUOUS
10
53.9577699999999965
20
-189.8055699999999888
11
54.3387229999999946
21
-189.8055699999999888
0
LINE
8
BLACK
6
CONTINUOUS
10
54.3387229999999946
20
-189.8055699999999888
11
54.5291989999999984
21
-189.710331999999994
0
LINE
8
BLACK
6
CONTINUOUS
10
54.5291989999999984
20
-189.710331999999994
11
54.6244370000000004
21
-189.6150930000000017
0
LINE
8
BLACK
6
CONTINUOUS
10
54.6244370000000004
20
-189.6150930000000017
11
54.7196749999999952
21
-189.4246169999999836
0
LINE
8
BLACK
6
CONTINUOUS
10
54.7196749999999952
20
-189.4246169999999836
11
54.7196749999999952
21
-189.0436650000000043
0
LINE
8
BLACK
6
CONTINUOUS
10
54.7196749999999952
20
-189.0436650000000043
11
54.6244370000000004
21
-188.8531889999999862
0
LINE
8
BLACK
6
CONTINUOUS
10
54.6244370000000004
20
-188.8531889999999862
11
54.5291989999999984
21
-188.7579509999999914
0
LINE
8
BLACK
6
CONTINUOUS
10
54.5291989999999984
20
-188.7579509999999914
11
54.3387229999999946
21
-188.6627119999999991
0
LINE
8
BLACK
6
CONTINUOUS
10
55.9577699999999965
20
-187.8055699999999888
11
56.1482469999999978
21
-187.8055699999999888
0
LINE
8
BLACK
6
CONTINUOUS
10
56.1482469999999978
20
-187.8055699999999888
11
56.3387229999999946
21
-187.9008079999999836
0
LINE
8
BLACK
6
CONTINUOUS
10
56.3387229999999946
20
-187.9008079999999836
11
56.4339609999999965
21
-187.9960459999999784
0
LINE
8
BLACK
6
CONTINUOUS
10
56.4339609999999965
20
-187.9960459999999784
11
56.5291989999999984
21
-188.1865219999999965
0
LINE
8
BLACK
6
CONTINUOUS
10
56.5291989999999984
20
-188.1865219999999965
11
56.6244370000000004
21
-188.5674740000000043
0
LINE
8
BLACK
6
CONTINUOUS
10
56.6244370000000004
20
-188.5674740000000043
11
56.6244370000000004
21
-189.0436650000000043
0
LINE
8
BLACK
6
CONTINUOUS
10
56.6244370000000004
20
-189.0436650000000043
11
56.5291989999999984
21
-189.4246169999999836
0
LINE
8
BLACK
6
CONTINUOUS
10
56.5291989999999984
20
-189.4246169999999836
11
56.4339609999999965
21
-189.6150930000000017
0
LINE
8
BLACK
6
CONTINUOUS
10
56.4339609999999965
20
-189.6150930000000017
11
56.3387229999999946
21
-189.710331999999994
0
LINE
8
BLACK
6
CONTINUOUS
10
56.3387229999999946
20
-189.710331999999994
11
56.1482469999999978
21
-189.8055699999999888
0
LINE
8
BLACK
6
CONTINUOUS
10
56.1482469999999978
20
-189.8055699999999888
11
55.9577699999999965
21
-189.8055699999999888
0
LINE
8
BLACK
6
CONTINUOUS
10
55.9577699999999965
20
-189.8055699999999888
11
55.7672939999999997
21
-189.710331999999994
0
LINE
8
BLACK
6
CONTINUOUS
10
55.7672939999999997
20
-189.710331999999994
11
55.6720559999999978
21
-189.6150930000000017
0
LINE
8
BLACK
6
CONTINUOUS
10
55.6720559999999978
20
-189.6150930000000017
11
55.5768179999999958
21
-189.4246169999999836
0
LINE
8
BLACK
6
CONTINUOUS
10
55.5768179999999958
20
-189.4246169999999836
11
55.481580000000001
21
-189.0436650000000043
0
LINE
8
BLACK
6
CONTINUOUS
10
55.481580000000001
20
-189.0436650000000043
11
55.481580000000001
21
-188.5674740000000043
0
LINE
8
BLACK
6
CONTINUOUS
10
55.481580000000001
20
-188.5674740000000043
11
55.5768179999999958
21
-188.1865219999999965
0
LINE
8
BLACK
6
CONTINUOUS
10
55.5768179999999958
20
-188.1865219999999965
11
55.6720559999999978
21
-187.9960459999999784
0
LINE
8
BLACK
6
CONTINUOUS
10
55.6720559999999978
20
-187.9960459999999784
11
55.7672939999999997
21
-187.9008079999999836
0
LINE
8
BLACK
6
CONTINUOUS
10
55.7672939999999997
20
-187.9008079999999836
11
55.9577699999999965
21
-187.8055699999999888
0
LINE
8
BLACK
6
CONTINUOUS
10
57.3863419999999991
20
-187.8055699999999888
11
57.3863419999999991
21
-188.1865219999999965
0
LINE
8
BLACK
6
CONTINUOUS
10
58.1482469999999978
20
-187.8055699999999888
11
58.1482469999999978
21
-188.1865219999999965
0
LINE
8
BLACK
6
CONTINUOUS
10
61.1006289999999979
20
-190.5674740000000043
11
61.0053899999999985
21
-190.472235999999981
0
LINE
8
BLACK
6
CONTINUOUS
10
61.0053899999999985
20
-190.472235999999981
11
60.8149139999999946
21
-190.1865219999999965
0
LINE
8
BLACK
6
CONTINUOUS
10
60.8149139999999946
20
-190.1865219999999965
11
60.7196759999999998
21
-189.9960459999999784
0
LINE
8
BLACK
6
CONTINUOUS
10
60.7196759999999998
20
-189.9960459999999784
11
60.6244379999999978
21
-189.710331999999994
0
LINE
8
BLACK
6
CONTINUOUS
10
60.6244379999999978
20
-189.710331999999994
11
60.5291999999999959
21
-189.2341409999999939
0
LINE
8
BLACK
6
CONTINUOUS
10
60.5291999999999959
20
-189.2341409999999939
11
60.5291999999999959
21
-188.8531889999999862
0
LINE
8
BLACK
6
CONTINUOUS
10
60.5291999999999959
20
-188.8531889999999862
11
60.6244379999999978
21
-188.3769979999999862
0
LINE
8
BLACK
6
CONTINUOUS
10
60.6244379999999978
20
-188.3769979999999862
11
60.7196759999999998
21
-188.0912840000000017
0
LINE
8
BLACK
6
CONTINUOUS
10
60.7196759999999998
20
-188.0912840000000017
11
60.8149139999999946
21
-187.9008079999999836
0
LINE
8
BLACK
6
CONTINUOUS
10
60.8149139999999946
20
-187.9008079999999836
11
61.0053899999999985
21
-187.6150930000000017
0
LINE
8
BLACK
6
CONTINUOUS
10
61.0053899999999985
20
-187.6150930000000017
11
61.1006289999999979
21
-187.5198549999999784
0
LINE
8
BLACK
6
CONTINUOUS
10
62.7196759999999998
20
-188.472235999999981
11
62.7196759999999998
21
-189.8055699999999888
0
LINE
8
BLACK
6
CONTINUOUS
10
62.2434849999999997
20
-187.710331999999994
11
61.7672949999999972
21
-189.1389029999999991
0
LINE
8
BLACK
6
CONTINUOUS
10
61.7672949999999972
20
-189.1389029999999991
11
63.0053899999999985
21
-189.1389029999999991
0
LINE
8
BLACK
6
CONTINUOUS
10
65.2911050000000017
20
-189.8055699999999888
11
65.2911050000000017
21
-187.8055699999999888
0
LINE
8
BLACK
6
CONTINUOUS
10
66.1482479999999953
20
-189.8055699999999888
11
66.1482479999999953
21
-188.7579509999999914
0
LINE
8
BLACK
6
CONTINUOUS
10
66.1482479999999953
20
-188.7579509999999914
11
66.0530100000000004
21
-188.5674740000000043
0
LINE
8
BLACK
6
CONTINUOUS
10
66.0530100000000004
20
-188.5674740000000043
11
65.8625339999999966
21
-188.472235999999981
0
LINE
8
BLACK
6
CONTINUOUS
10
65.8625339999999966
20
-188.472235999999981
11
65.5768190000000004
21
-188.472235999999981
0
LINE
8
BLACK
6
CONTINUOUS
10
65.5768190000000004
20
-188.472235999999981
11
65.3863429999999966
21
-188.5674740000000043
0
LINE
8
BLACK
6
CONTINUOUS
10
65.3863429999999966
20
-188.5674740000000043
11
65.2911050000000017
21
-188.6627119999999991
0
LINE
8
BLACK
6
CONTINUOUS
10
67.3863429999999966
20
-189.8055699999999888
11
67.1958669999999927
21
-189.710331999999994
0
LINE
8
BLACK
6
CONTINUOUS
10
67.1958669999999927
20
-189.710331999999994
11
67.1006289999999979
21
-189.6150930000000017
0
LINE
8
BLACK
6
CONTINUOUS
10
67.1006289999999979
20
-189.6150930000000017
11
67.005391000000003
21
-189.4246169999999836
0
LINE
8
BLACK
6
CONTINUOUS
10
67.005391000000003
20
-189.4246169999999836
11
67.005391000000003
21
-188.8531889999999862
0
LINE
8
BLACK
6
CONTINUOUS
10
67.005391000000003
20
-188.8531889999999862
11
67.1006289999999979
21
-188.6627119999999991
0
LINE
8
BLACK
6
CONTINUOUS
10
67.1006289999999979
20
-188.6627119999999991
11
67.1958669999999927
21
-188.5674740000000043
0
LINE
8
BLACK
6
CONTINUOUS
10
67.1958669999999927
20
-188.5674740000000043
11
67.3863429999999966
21
-188.472235999999981
0
LINE
8
BLACK
6
CONTINUOUS
10
67.3863429999999966
20
-188.472235999999981
11
67.6720579999999927
21
-188.472235999999981
0
LINE
8
BLACK
6
CONTINUOUS
10
67.6720579999999927
20
-188.472235999999981
11
67.8625339999999966
21
-188.5674740000000043
0
LINE
8
BLACK
6
CONTINUOUS
10
67.8625339999999966
20
-188.5674740000000043
11
67.9577719999999914
21
-188.6627119999999991
0
LINE
8
BLACK
6
CONTINUOUS
10
67.9577719999999914
20
-188.6627119999999991
11
68.0530100000000004
21
-188.8531889999999862
0
LINE
8
BLACK
6
CONTINUOUS
10
68.0530100000000004
20
-188.8531889999999862
11
68.0530100000000004
21
-189.4246169999999836
0
LINE
8
BLACK
6
CONTINUOUS
10
68.0530100000000004
20
-189.4246169999999836
11
67.9577719999999914
21
-189.6150930000000017
0
LINE
8
BLACK
6
CONTINUOUS
10
67.9577719999999914
20
-189.6150930000000017
11
67.8625339999999966
21
-189.710331999999994
0
LINE
8
BLACK
6
CONTINUOUS
10
67.8625339999999966
20
-189.710331999999994
11
67.6720579999999927
21
-189.8055699999999888
0
LINE
8
BLACK
6
CONTINUOUS
10
67.6720579999999927
20
-189.8055699999999888
11
67.3863429999999966
21
-189.8055699999999888
0
LINE
8
BLACK
6
CONTINUOUS
10
69.1958669999999927
20
-189.8055699999999888
11
69.005391000000003
21
-189.710331999999994
0
LINE
8
BLACK
6
CONTINUOUS
10
69.005391000000003
20
-189.710331999999994
11
68.910152999999994
21
-189.5198549999999784
0
LINE
8
BLACK
6
CONTINUOUS
10
68.910152999999994
20
-189.5198549999999784
11
68.910152999999994
21
-187.8055699999999888
0
LINE
8
BLACK
6
CONTINUOUS
10
70.7196769999999901
20
-189.710331999999994
11
70.5292010000000005
21
-189.8055699999999888
0
LINE
8
BLACK
6
CONTINUOUS
10
70.5292010000000005
20
-189.8055699999999888
11
70.1482479999999953
21
-189.8055699999999888
0
LINE
8
BLACK
6
CONTINUOUS
10
70.1482479999999953
20
-189.8055699999999888
11
69.9577719999999914
21
-189.710331999999994
0
LINE
8
BLACK
6
CONTINUOUS
10
69.9577719999999914
20
-189.710331999999994
11
69.8625339999999966
21
-189.5198549999999784
0
LINE
8
BLACK
6
CONTINUOUS
10
69.8625339999999966
20
-189.5198549999999784
11
69.8625339999999966
21
-188.7579509999999914
0
LINE
8
BLACK
6
CONTINUOUS
10
69.8625339999999966
20
-188.7579509999999914
11
69.9577719999999914
21
-188.5674740000000043
0
LINE
8
BLACK
6
CONTINUOUS
10
69.9577719999999914
20
-188.5674740000000043
11
70.1482479999999953
21
-188.472235999999981
0
LINE
8
BLACK
6
CONTINUOUS
10
70.1482479999999953
20
-188.472235999999981
11
70.5292010000000005
21
-188.472235999999981
0
LINE
8
BLACK
6
CONTINUOUS
10
70.5292010000000005
20
-188.472235999999981
11
70.7196769999999901
21
-188.5674740000000043
0
LINE
8
BLACK
6
CONTINUOUS
10
70.7196769999999901
20
-188.5674740000000043
11
70.8149149999999992
21
-188.7579509999999914
0
LINE
8
BLACK
6
CONTINUOUS
10
70.8149149999999992
20
-188.7579509999999914
11
70.8149149999999992
21
-188.948426999999981
0
LINE
8
BLACK
6
CONTINUOUS
10
70.8149149999999992
20
-188.948426999999981
11
69.8625339999999966
21
-189.1389029999999991
0
LINE
8
BLACK
6
CONTINUOUS
10
71.5768199999999979
20
-189.710331999999994
11
71.7672960000000018
21
-189.8055699999999888
0
LINE
8
BLACK
6
CONTINUOUS
10
71.7672960000000018
20
-189.8055699999999888
11
72.1482479999999953
21
-189.8055699999999888
0
LINE
8
BLACK
6
CONTINUOUS
10
72.1482479999999953
20
-189.8055699999999888
11
72.3387249999999966
21
-189.710331999999994
0
LINE
8
BLACK
6
CONTINUOUS
10
72.3387249999999966
20
-189.710331999999994
11
72.4339629999999914
21
-189.5198549999999784
0
LINE
8
BLACK
6
CONTINUOUS
10
72.4339629999999914
20
-189.5198549999999784
11
72.4339629999999914
21
-189.4246169999999836
0
LINE
8
BLACK
6
CONTINUOUS
10
72.4339629999999914
20
-189.4246169999999836
11
72.3387249999999966
21
-189.2341409999999939
0
LINE
8
BLACK
6
CONTINUOUS
10
72.3387249999999966
20
-189.2341409999999939
11
72.1482479999999953
21
-189.1389029999999991
0
LINE
8
BLACK
6
CONTINUOUS
10
72.1482479999999953
20
-189.1389029999999991
11
71.8625339999999966
21
-189.1389029999999991
0
LINE
8
BLACK
6
CONTINUOUS
10
71.8625339999999966
20
-189.1389029999999991
11
71.6720579999999927
21
-189.0436650000000043
0
LINE
8
BLACK
6
CONTINUOUS
10
71.6720579999999927
20
-189.0436650000000043
11
71.5768199999999979
21
-188.8531889999999862
0
LINE
8
BLACK
6
CONTINUOUS
10
71.5768199999999979
20
-188.8531889999999862
11
71.5768199999999979
21
-188.7579509999999914
0
LINE
8
BLACK
6
CONTINUOUS
10
71.5768199999999979
20
-188.7579509999999914
11
71.6720579999999927
21
-188.5674740000000043
0
LINE
8
BLACK
6
CONTINUOUS
10
71.6720579999999927
20
-188.5674740000000043
11
71.8625339999999966
21
-188.472235999999981
0
LINE
8
BLACK
6
CONTINUOUS
10
71.8625339999999966
20
-188.472235999999981
11
72.1482479999999953
21
-188.472235999999981
0
LINE
8
BLACK
6
CONTINUOUS
10
72.1482479999999953
20
-188.472235999999981
11
72.3387249999999966
21
-188.5674740000000043
0
LINE
8
BLACK
6
CONTINUOUS
10
73.1006299999999953
20
-190.5674740000000043
11
73.1958679999999902
21
-190.472235999999981
0
LINE
8
BLACK
6
CONTINUOUS
10
73.1958679999999902
20
-190.472235999999981
11
73.386343999999994
21
-190.1865219999999965
0
LINE
8
BLACK
6
CONTINUOUS
10
73.386343999999994
20
-190.1865219999999965
11
73.4815820000000031
21
-189.9960459999999784
0
LINE
8
BLACK
6
CONTINUOUS
10
73.4815820000000031
20
-189.9960459999999784
11
73.5768199999999979
21
-189.710331999999994
0
LINE
8
BLACK
6
CONTINUOUS
10
73.5768199999999979
20
-189.710331999999994
11
73.6720579999999927
21
-189.2341409999999939
0
LINE
8
BLACK
6
CONTINUOUS
10
73.6720579999999927
20
-189.2341409999999939
11
73.6720579999999927
21
-188.8531889999999862
0
LINE
8
BLACK
6
CONTINUOUS
10
73.6720579999999927
20
-188.8531889999999862
11
73.5768199999999979
21
-188.3769979999999862
0
LINE
8
BLACK
6
CONTINUOUS
10
73.5768199999999979
20
-188.3769979999999862
11
73.4815820000000031
21
-188.0912840000000017
0
LINE
8
BLACK
6
CONTINUOUS
10
73.4815820000000031
20
-188.0912840000000017
11
73.386343999999994
21
-187.9008079999999836
0
LINE
8
BLACK
6
CONTINUOUS
10
73.386343999999994
20
-187.9008079999999836
11
73.1958679999999902
21
-187.6150930000000017
0
LINE
8
BLACK
6
CONTINUOUS
10
73.1958679999999902
20
-187.6150930000000017
11
73.1006299999999953
21
-187.5198549999999784
0
LINE
8
BLACK
6
CONTINUOUS
10
76.7196780000000018
20
-190.5674740000000043
11
76.6244389999999953
21
-190.472235999999981
0
LINE
8
BLACK
6
CONTINUOUS
10
76.6244389999999953
20
-190.472235999999981
11
76.4339629999999914
21
-190.1865219999999965
0
LINE
8
BLACK
6
CONTINUOUS
10
76.4339629999999914
20
-190.1865219999999965
11
76.3387249999999966
21
-189.9960459999999784
0
LINE
8
BLACK
6
CONTINUOUS
10
76.3387249999999966
20
-189.9960459999999784
11
76.2434870000000018
21
-189.710331999999994
0
LINE
8
BLACK
6
CONTINUOUS
10
76.2434870000000018
20
-189.710331999999994
11
76.1482489999999927
21
-189.2341409999999939
0
LINE
8
BLACK
6
CONTINUOUS
10
76.1482489999999927
20
-189.2341409999999939
11
76.1482489999999927
21
-188.8531889999999862
0
LINE
8
BLACK
6
CONTINUOUS
10
76.1482489999999927
20
-188.8531889999999862
11
76.2434870000000018
21
-188.3769979999999862
0
LINE
8
BLACK
6
CONTINUOUS
10
76.2434870000000018
20
-188.3769979999999862
11
76.3387249999999966
21
-188.0912840000000017
0
LINE
8
BLACK
6
CONTINUOUS
10
76.3387249999999966
20
-188.0912840000000017
11
76.4339629999999914
21
-187.9008079999999836
0
LINE
8
BLACK
6
CONTINUOUS
10
76.4339629999999914
20
-187.9008079999999836
11
76.6244389999999953
21
-187.6150930000000017
0
LINE
8
BLACK
6
CONTINUOUS
10
76.6244389999999953
20
-187.6150930000000017
11
76.7196780000000018
21
-187.5198549999999784
0
LINE
8
BLACK
6
CONTINUOUS
10
77.4815820000000031
20
-188.472235999999981
11
77.4815820000000031
21
-189.8055699999999888
0
LINE
8
BLACK
6
CONTINUOUS
10
77.4815820000000031
20
-188.6627119999999991
11
77.5768199999999979
21
-188.5674740000000043
0
LINE
8
BLACK
6
CONTINUOUS
10
77.5768199999999979
20
-188.5674740000000043
11
77.7672960000000018
21
-188.472235999999981
0
LINE
8
BLACK
6
CONTINUOUS
10
77.7672960000000018
20
-188.472235999999981
11
78.0530109999999979
21
-188.472235999999981
0
LINE
8
BLACK
6
CONTINUOUS
10
78.0530109999999979
20
-188.472235999999981
11
78.2434870000000018
21
-188.5674740000000043
0
LINE
8
BLACK
6
CONTINUOUS
10
78.2434870000000018
20
-188.5674740000000043
11
78.3387249999999966
21
-188.7579509999999914
0
LINE
8
BLACK
6
CONTINUOUS
10
78.3387249999999966
20
-188.7579509999999914
11
78.3387249999999966
21
-189.8055699999999888
0
LINE
8
BLACK
6
CONTINUOUS
10
79.5768199999999979
20
-189.8055699999999888
11
79.386343999999994
21
-189.710331999999994
0
LINE
8
BLACK
6
CONTINUOUS
10
79.386343999999994
20
-189.710331999999994
11
79.2911059999999992
21
-189.6150930000000017
0
LINE
8
BLACK
6
CONTINUOUS
10
79.2911059999999992
20
-189.6150930000000017
11
79.1958679999999902
21
-189.4246169999999836
0
LINE
8
BLACK
6
CONTINUOUS
10
79.1958679999999902
20
-189.4246169999999836
11
79.1958679999999902
21
-188.8531889999999862
0
LINE
8
BLACK
6
CONTINUOUS
10
79.1958679999999902
20
-188.8531889999999862
11
79.2911059999999992
21
-188.6627119999999991
0
LINE
8
BLACK
6
CONTINUOUS
10
79.2911059999999992
20
-188.6627119999999991
11
79.386343999999994
21
-188.5674740000000043
0
LINE
8
BLACK
6
CONTINUOUS
10
79.386343999999994
20
-188.5674740000000043
11
79.5768199999999979
21
-188.472235999999981
0
LINE
8
BLACK
6
CONTINUOUS
10
79.5768199999999979
20
-188.472235999999981
11
79.8625349999999941
21
-188.472235999999981
0
LINE
8
BLACK
6
CONTINUOUS
10
79.8625349999999941
20
-188.472235999999981
11
80.0530109999999979
21
-188.5674740000000043
0
LINE
8
BLACK
6
CONTINUOUS
10
80.0530109999999979
20
-188.5674740000000043
11
80.1482489999999927
21
-188.6627119999999991
0
LINE
8
BLACK
6
CONTINUOUS
10
80.1482489999999927
20
-188.6627119999999991
11
80.2434870000000018
21
-188.8531889999999862
0
LINE
8
BLACK
6
CONTINUOUS
10
80.2434870000000018
20
-188.8531889999999862
11
80.2434870000000018
21
-189.4246169999999836
0
LINE
8
BLACK
6
CONTINUOUS
10
80.2434870000000018
20
-189.4246169999999836
11
80.1482489999999927
21
-189.6150930000000017
0
LINE
8
BLACK
6
CONTINUOUS
10
80.1482489999999927
20
-189.6150930000000017
11
80.0530109999999979
21
-189.710331999999994
0
LINE
8
BLACK
6
CONTINUOUS
10
80.0530109999999979
20
-189.710331999999994
11
79.8625349999999941
21
-189.8055699999999888
0
LINE
8
BLACK
6
CONTINUOUS
10
79.8625349999999941
20
-189.8055699999999888
11
79.5768199999999979
21
-189.8055699999999888
0
LINE
8
BLACK
6
CONTINUOUS
10
80.8149159999999966
20
-188.472235999999981
11
81.5768199999999979
21
-188.472235999999981
0
LINE
8
BLACK
6
CONTINUOUS
10
81.1006299999999953
20
-187.8055699999999888
11
81.1006299999999953
21
-189.5198549999999784
0
LINE
8
BLACK
6
CONTINUOUS
10
81.1006299999999953
20
-189.5198549999999784
11
81.1958679999999902
21
-189.710331999999994
0
LINE
8
BLACK
6
CONTINUOUS
10
81.1958679999999902
20
-189.710331999999994
11
81.386343999999994
21
-189.8055699999999888
0
LINE
8
BLACK
6
CONTINUOUS
10
81.386343999999994
20
-189.8055699999999888
11
81.5768199999999979
21
-189.8055699999999888
0
LINE
8
BLACK
6
CONTINUOUS
10
83.7672969999999992
20
-188.472235999999981
11
83.7672969999999992
21
-190.472235999999981
0
LINE
8
BLACK
6
CONTINUOUS
10
83.7672969999999992
20
-188.5674740000000043
11
83.9577730000000031
21
-188.472235999999981
0
LINE
8
BLACK
6
CONTINUOUS
10
83.9577730000000031
20
-188.472235999999981
11
84.3387259999999941
21
-188.472235999999981
0
LINE
8
BLACK
6
CONTINUOUS
10
84.3387259999999941
20
-188.472235999999981
11
84.529201999999998
21
-188.5674740000000043
0
LINE
8
BLACK
6
CONTINUOUS
10
84.529201999999998
20
-188.5674740000000043
11
84.6244399999999928
21
-188.6627119999999991
0
LINE
8
BLACK
6
CONTINUOUS
10
84.6244399999999928
20
-188.6627119999999991
11
84.7196780000000018
21
-188.8531889999999862
0
LINE
8
BLACK
6
CONTINUOUS
10
84.7196780000000018
20
-188.8531889999999862
11
84.7196780000000018
21
-189.4246169999999836
0
LINE
8
BLACK
6
CONTINUOUS
10
84.7196780000000018
20
-189.4246169999999836
11
84.6244399999999928
21
-189.6150930000000017
0
LINE
8
BLACK
6
CONTINUOUS
10
84.6244399999999928
20
-189.6150930000000017
11
84.529201999999998
21
-189.710331999999994
0
LINE
8
BLACK
6
CONTINUOUS
10
84.529201999999998
20
-189.710331999999994
11
84.3387259999999941
21
-189.8055699999999888
0
LINE
8
BLACK
6
CONTINUOUS
10
84.3387259999999941
20
-189.8055699999999888
11
83.9577730000000031
21
-189.8055699999999888
0
LINE
8
BLACK
6
CONTINUOUS
10
83.9577730000000031
20
-189.8055699999999888
11
83.7672969999999992
21
-189.710331999999994
0
LINE
8
BLACK
6
CONTINUOUS
10
85.8625349999999941
20
-189.8055699999999888
11
85.6720589999999902
21
-189.710331999999994
0
LINE
8
BLACK
6
CONTINUOUS
10
85.6720589999999902
20
-189.710331999999994
11
85.5768209999999954
21
-189.5198549999999784
0
LINE
8
BLACK
6
CONTINUOUS
10
85.5768209999999954
20
-189.5198549999999784
11
85.5768209999999954
21
-187.8055699999999888
0
LINE
8
BLACK
6
CONTINUOUS
10
87.4815830000000005
20
-189.8055699999999888
11
87.4815830000000005
21
-188.7579509999999914
0
LINE
8
BLACK
6
CONTINUOUS
10
87.4815830000000005
20
-188.7579509999999914
11
87.3863449999999915
21
-188.5674740000000043
0
LINE
8
BLACK
6
CONTINUOUS
10
87.3863449999999915
20
-188.5674740000000043
11
87.1958690000000018
21
-188.472235999999981
0
LINE
8
BLACK
6
CONTINUOUS
10
87.1958690000000018
20
-188.472235999999981
11
86.8149159999999966
21
-188.472235999999981
0
LINE
8
BLACK
6
CONTINUOUS
10
86.8149159999999966
20
-188.472235999999981
11
86.6244399999999928
21
-188.5674740000000043
0
LINE
8
BLACK
6
CONTINUOUS
10
87.4815830000000005
20
-189.710331999999994
11
87.2911069999999967
21
-189.8055699999999888
0
LINE
8
BLACK
6
CONTINUOUS
10
87.2911069999999967
20
-189.8055699999999888
11
86.8149159999999966
21
-189.8055699999999888
0
LINE
8
BLACK
6
CONTINUOUS
10
86.8149159999999966
20
-189.8055699999999888
11
86.6244399999999928
21
-189.710331999999994
0
LINE
8
BLACK
6
CONTINUOUS
10
86.6244399999999928
20
-189.710331999999994
11
86.529201999999998
21
-189.5198549999999784
0
LINE
8
BLACK
6
CONTINUOUS
10
86.529201999999998
20
-189.5198549999999784
11
86.529201999999998
21
-189.3293789999999888
0
LINE
8
BLACK
6
CONTINUOUS
10
86.529201999999998
20
-189.3293789999999888
11
86.6244399999999928
21
-189.1389029999999991
0
LINE
8
BLACK
6
CONTINUOUS
10
86.6244399999999928
20
-189.1389029999999991
11
86.8149159999999966
21
-189.0436650000000043
0
LINE
8
BLACK
6
CONTINUOUS
10
86.8149159999999966
20
-189.0436650000000043
11
87.2911069999999967
21
-189.0436650000000043
0
LINE
8
BLACK
6
CONTINUOUS
10
87.2911069999999967
20
-189.0436650000000043
11
87.4815830000000005
21
-188.948426999999981
0
LINE
8
BLACK
6
CONTINUOUS
10
88.1482499999999902
20
-188.472235999999981
11
88.9101539999999915
21
-188.472235999999981
0
LINE
8
BLACK
6
CONTINUOUS
10
88.4339639999999889
20
-187.8055699999999888
11
88.4339639999999889
21
-189.5198549999999784
0
LINE
8
BLACK
6
CONTINUOUS
10
88.4339639999999889
20
-189.5198549999999784
11
88.529201999999998
21
-189.710331999999994
0
LINE
8
BLACK
6
CONTINUOUS
10
88.529201999999998
20
-189.710331999999994
11
88.7196780000000018
21
-189.8055699999999888
0
LINE
8
BLACK
6
CONTINUOUS
10
88.7196780000000018
20
-189.8055699999999888
11
88.9101539999999915
21
-189.8055699999999888
0
LINE
8
BLACK
6
CONTINUOUS
10
90.3387259999999941
20
-189.710331999999994
11
90.1482499999999902
21
-189.8055699999999888
0
LINE
8
BLACK
6
CONTINUOUS
10
90.1482499999999902
20
-189.8055699999999888
11
89.7672969999999992
21
-189.8055699999999888
0
LINE
8
BLACK
6
CONTINUOUS
10
89.7672969999999992
20
-189.8055699999999888
11
89.5768209999999954
21
-189.710331999999994
0
LINE
8
BLACK
6
CONTINUOUS
10
89.5768209999999954
20
-189.710331999999994
11
89.4815830000000005
21
-189.5198549999999784
0
LINE
8
BLACK
6
CONTINUOUS
10
89.4815830000000005
20
-189.5198549999999784
11
89.4815830000000005
21
-188.7579509999999914
0
LINE
8
BLACK
6
CONTINUOUS
10
89.4815830000000005
20
-188.7579509999999914
11
89.5768209999999954
21
-188.5674740000000043
0
LINE
8
BLACK
6
CONTINUOUS
10
89.5768209999999954
20
-188.5674740000000043
11
89.7672969999999992
21
-188.472235999999981
0
LINE
8
BLACK
6
CONTINUOUS
10
89.7672969999999992
20
-188.472235999999981
11
90.1482499999999902
21
-188.472235999999981
0
LINE
8
BLACK
6
CONTINUOUS
10
90.1482499999999902
20
-188.472235999999981
11
90.3387259999999941
21
-188.5674740000000043
0
LINE
8
BLACK
6
CONTINUOUS
10
90.3387259999999941
20
-188.5674740000000043
11
90.4339639999999889
21
-188.7579509999999914
0
LINE
8
BLACK
6
CONTINUOUS
10
90.4339639999999889
20
-188.7579509999999914
11
90.4339639999999889
21
-188.948426999999981
0
LINE
8
BLACK
6
CONTINUOUS
10
90.4339639999999889
20
-188.948426999999981
11
89.4815830000000005
21
-189.1389029999999991
0
LINE
8
BLACK
6
CONTINUOUS
10
92.1482499999999902
20
-189.8055699999999888
11
92.1482499999999902
21
-187.8055699999999888
0
LINE
8
BLACK
6
CONTINUOUS
10
92.1482499999999902
20
-189.710331999999994
11
91.9577740000000006
21
-189.8055699999999888
0
LINE
8
BLACK
6
CONTINUOUS
10
91.9577740000000006
20
-189.8055699999999888
11
91.5768209999999954
21
-189.8055699999999888
0
LINE
8
BLACK
6
CONTINUOUS
10
91.5768209999999954
20
-189.8055699999999888
11
91.3863449999999915
21
-189.710331999999994
0
LINE
8
BLACK
6
CONTINUOUS
10
91.3863449999999915
20
-189.710331999999994
11
91.2911069999999967
21
-189.6150930000000017
0
LINE
8
BLACK
6
CONTINUOUS
10
91.2911069999999967
20
-189.6150930000000017
11
91.1958690000000018
21
-189.4246169999999836
0
LINE
8
BLACK
6
CONTINUOUS
10
91.1958690000000018
20
-189.4246169999999836
11
91.1958690000000018
21
-188.8531889999999862
0
LINE
8
BLACK
6
CONTINUOUS
10
91.1958690000000018
20
-188.8531889999999862
11
91.2911069999999967
21
-188.6627119999999991
0
LINE
8
BLACK
6
CONTINUOUS
10
91.2911069999999967
20
-188.6627119999999991
11
91.3863449999999915
21
-188.5674740000000043
0
LINE
8
BLACK
6
CONTINUOUS
10
91.3863449999999915
20
-188.5674740000000043
11
91.5768209999999954
21
-188.472235999999981
0
LINE
8
BLACK
6
CONTINUOUS
10
91.5768209999999954
20
-188.472235999999981
11
91.9577740000000006
21
-188.472235999999981
0
LINE
8
BLACK
6
CONTINUOUS
10
91.9577740000000006
20
-188.472235999999981
11
92.1482499999999902
21
-188.5674740000000043
0
LINE
8
BLACK
6
CONTINUOUS
10
92.9101549999999889
20
-190.5674740000000043
11
93.005392999999998
21
-190.472235999999981
0
LINE
8
BLACK
6
CONTINUOUS
10
93.005392999999998
20
-190.472235999999981
11
93.1958690000000018
21
-190.1865219999999965
0
LINE
8
BLACK
6
CONTINUOUS
10
93.1958690000000018
20
-190.1865219999999965
11
93.2911069999999967
21
-189.9960459999999784
0
LINE
8
BLACK
6
CONTINUOUS
10
93.2911069999999967
20
-189.9960459999999784
11
93.3863449999999915
21
-189.710331999999994
0
LINE
8
BLACK
6
CONTINUOUS
10
93.3863449999999915
20
-189.710331999999994
11
93.4815830000000005
21
-189.2341409999999939
0
LINE
8
BLACK
6
CONTINUOUS
10
93.4815830000000005
20
-189.2341409999999939
11
93.4815830000000005
21
-188.8531889999999862
0
LINE
8
BLACK
6
CONTINUOUS
10
93.4815830000000005
20
-188.8531889999999862
11
93.3863449999999915
21
-188.3769979999999862
0
LINE
8
BLACK
6
CONTINUOUS
10
93.3863449999999915
20
-188.3769979999999862
11
93.2911069999999967
21
-188.0912840000000017
0
LINE
8
BLACK
6
CONTINUOUS
10
93.2911069999999967
20
-188.0912840000000017
11
93.1958690000000018
21
-187.9008079999999836
0
LINE
8
BLACK
6
CONTINUOUS
10
93.1958690000000018
20
-187.9008079999999836
11
93.005392999999998
21
-187.6150930000000017
0
LINE
8
BLACK
6
CONTINUOUS
10
93.005392999999998
20
-187.6150930000000017
11
92.9101549999999889
21
-187.5198549999999784
0
LINE
8
BLACK
6
CONTINUOUS
10
24.3499999999999979
20
-191.0907320000000027
11
24.3499999999999979
21
-193.0907320000000027
0
LINE
8
BLACK
6
CONTINUOUS
10
23.3499999999999979
20
-192.0907320000000027
11
25.3499999999999979
21
-192.0907320000000027
0
LINE
8
BLACK
6
CONTINUOUS
10
27.7672919999999976
20
-191.0055699999999774
11
29.0053869999999989
21
-191.0055699999999774
0
LINE
8
BLACK
6
CONTINUOUS
10
29.0053869999999989
20
-191.0055699999999774
11
28.3387199999999986
21
-191.7674739999999929
0
LINE
8
BLACK
6
CONTINUOUS
10
28.3387199999999986
20
-191.7674739999999929
11
28.6244349999999983
21
-191.7674739999999929
0
LINE
8
BLACK
6
CONTINUOUS
10
28.6244349999999983
20
-191.7674739999999929
11
28.8149109999999986
21
-191.8627119999999877
0
LINE
8
BLACK
6
CONTINUOUS
10
28.8149109999999986
20
-191.8627119999999877
11
28.910148999999997
21
-191.95795099999998
0
LINE
8
BLACK
6
CONTINUOUS
10
28.910148999999997
20
-191.95795099999998
11
29.0053869999999989
21
-192.1484269999999981
0
LINE
8
BLACK
6
CONTINUOUS
10
29.0053869999999989
20
-192.1484269999999981
11
29.0053869999999989
21
-192.6246170000000006
0
LINE
8
BLACK
6
CONTINUOUS
10
29.0053869999999989
20
-192.6246170000000006
11
28.910148999999997
21
-192.8150929999999903
0
LINE
8
BLACK
6
CONTINUOUS
10
28.910148999999997
20
-192.8150929999999903
11
28.8149109999999986
21
-192.9103319999999826
0
LINE
8
BLACK
6
CONTINUOUS
10
28.8149109999999986
20
-192.9103319999999826
11
28.6244349999999983
21
-193.0055699999999774
0
LINE
8
BLACK
6
CONTINUOUS
10
28.6244349999999983
20
-193.0055699999999774
11
28.0530059999999999
21
-193.0055699999999774
0
LINE
8
BLACK
6
CONTINUOUS
10
28.0530059999999999
20
-193.0055699999999774
11
27.8625299999999996
21
-192.9103319999999826
0
LINE
8
BLACK
6
CONTINUOUS
10
27.8625299999999996
20
-192.9103319999999826
11
27.7672919999999976
21
-192.8150929999999903
0
LINE
8
BLACK
6
CONTINUOUS
10
29.8625299999999996
20
-192.8150929999999903
11
29.957767999999998
21
-192.9103319999999826
0
LINE
8
BLACK
6
CONTINUOUS
10
29.957767999999998
20
-192.9103319999999826
11
29.8625299999999996
21
-193.0055699999999774
0
LINE
8
BLACK
6
CONTINUOUS
10
29.8625299999999996
20
-193.0055699999999774
11
29.7672919999999976
21
-192.9103319999999826
0
LINE
8
BLACK
6
CONTINUOUS
10
29.7672919999999976
20
-192.9103319999999826
11
29.8625299999999996
21
-192.8150929999999903
0
LINE
8
BLACK
6
CONTINUOUS
10
29.8625299999999996
20
-192.8150929999999903
11
29.8625299999999996
21
-193.0055699999999774
0
LINE
8
BLACK
6
CONTINUOUS
10
30.910148999999997
20
-193.0055699999999774
11
31.2911009999999976
21
-193.0055699999999774
0
LINE
8
BLACK
6
CONTINUOUS
10
31.2911009999999976
20
-193.0055699999999774
11
31.481577999999999
21
-192.9103319999999826
0
LINE
8
BLACK
6
CONTINUOUS
10
31.481577999999999
20
-192.9103319999999826
11
31.5768159999999973
21
-192.8150929999999903
0
LINE
8
BLACK
6
CONTINUOUS
10
31.5768159999999973
20
-192.8150929999999903
11
31.7672919999999976
21
-192.5293789999999774
0
LINE
8
BLACK
6
CONTINUOUS
10
31.7672919999999976
20
-192.5293789999999774
11
31.8625299999999996
21
-192.1484269999999981
0
LINE
8
BLACK
6
CONTINUOUS
10
31.8625299999999996
20
-192.1484269999999981
11
31.8625299999999996
21
-191.3865219999999852
0
LINE
8
BLACK
6
CONTINUOUS
10
31.8625299999999996
20
-191.3865219999999852
11
31.7672919999999976
21
-191.1960459999999955
0
LINE
8
BLACK
6
CONTINUOUS
10
31.7672919999999976
20
-191.1960459999999955
11
31.6720539999999993
21
-191.1008080000000007
0
LINE
8
BLACK
6
CONTINUOUS
10
31.6720539999999993
20
-191.1008080000000007
11
31.481577999999999
21
-191.0055699999999774
0
LINE
8
BLACK
6
CONTINUOUS
10
31.481577999999999
20
-191.0055699999999774
11
31.1006249999999973
21
-191.0055699999999774
0
LINE
8
BLACK
6
CONTINUOUS
10
31.1006249999999973
20
-191.0055699999999774
11
30.910148999999997
21
-191.1008080000000007
0
LINE
8
BLACK
6
CONTINUOUS
10
30.910148999999997
20
-191.1008080000000007
11
30.8149109999999986
21
-191.1960459999999955
0
LINE
8
BLACK
6
CONTINUOUS
10
30.8149109999999986
20
-191.1960459999999955
11
30.7196730000000002
21
-191.3865219999999852
0
LINE
8
BLACK
6
CONTINUOUS
10
30.7196730000000002
20
-191.3865219999999852
11
30.7196730000000002
21
-191.8627119999999877
0
LINE
8
BLACK
6
CONTINUOUS
10
30.7196730000000002
20
-191.8627119999999877
11
30.8149109999999986
21
-192.0531890000000033
0
LINE
8
BLACK
6
CONTINUOUS
10
30.8149109999999986
20
-192.0531890000000033
11
30.910148999999997
21
-192.1484269999999981
0
LINE
8
BLACK
6
CONTINUOUS
10
30.910148999999997
20
-192.1484269999999981
11
31.1006249999999973
21
-192.2436649999999929
0
LINE
8
BLACK
6
CONTINUOUS
10
31.1006249999999973
20
-192.2436649999999929
11
31.481577999999999
21
-192.2436649999999929
0
LINE
8
BLACK
6
CONTINUOUS
10
31.481577999999999
20
-192.2436649999999929
11
31.6720539999999993
21
-192.1484269999999981
0
LINE
8
BLACK
6
CONTINUOUS
10
31.6720539999999993
20
-192.1484269999999981
11
31.7672919999999976
21
-192.0531890000000033
0
LINE
8
BLACK
6
CONTINUOUS
10
31.7672919999999976
20
-192.0531890000000033
11
31.8625299999999996
21
-191.8627119999999877
0
LINE
8
BLACK
6
CONTINUOUS
10
33.0053869999999989
20
-191.8627119999999877
11
32.8149109999999951
21
-191.7674739999999929
0
LINE
8
BLACK
6
CONTINUOUS
10
32.8149109999999951
20
-191.7674739999999929
11
32.7196730000000002
21
-191.6722359999999981
0
LINE
8
BLACK
6
CONTINUOUS
10
32.7196730000000002
20
-191.6722359999999981
11
32.6244349999999983
21
-191.48175999999998
0
LINE
8
BLACK
6
CONTINUOUS
10
32.6244349999999983
20
-191.48175999999998
11
32.6244349999999983
21
-191.3865219999999852
0
LINE
8
BLACK
6
CONTINUOUS
10
32.6244349999999983
20
-191.3865219999999852
11
32.7196730000000002
21
-191.1960459999999955
0
LINE
8
BLACK
6
CONTINUOUS
10
32.7196730000000002
20
-191.1960459999999955
11
32.8149109999999951
21
-191.1008080000000007
0
LINE
8
BLACK
6
CONTINUOUS
10
32.8149109999999951
20
-191.1008080000000007
11
33.0053869999999989
21
-191.0055699999999774
0
LINE
8
BLACK
6
CONTINUOUS
10
33.0053869999999989
20
-191.0055699999999774
11
33.386339999999997
21
-191.0055699999999774
0
LINE
8
BLACK
6
CONTINUOUS
10
33.386339999999997
20
-191.0055699999999774
11
33.5768160000000009
21
-191.1008080000000007
0
LINE
8
BLACK
6
CONTINUOUS
10
33.5768160000000009
20
-191.1008080000000007
11
33.6720539999999957
21
-191.1960459999999955
0
LINE
8
BLACK
6
CONTINUOUS
10
33.6720539999999957
20
-191.1960459999999955
11
33.7672919999999976
21
-191.3865219999999852
0
LINE
8
BLACK
6
CONTINUOUS
10
33.7672919999999976
20
-191.3865219999999852
11
33.7672919999999976
21
-191.48175999999998
0
LINE
8
BLACK
6
CONTINUOUS
10
33.7672919999999976
20
-191.48175999999998
11
33.6720539999999957
21
-191.6722359999999981
0
LINE
8
BLACK
6
CONTINUOUS
10
33.6720539999999957
20
-191.6722359999999981
11
33.5768160000000009
21
-191.7674739999999929
0
LINE
8
BLACK
6
CONTINUOUS
10
33.5768160000000009
20
-191.7674739999999929
11
33.386339999999997
21
-191.8627119999999877
0
LINE
8
BLACK
6
CONTINUOUS
10
33.386339999999997
20
-191.8627119999999877
11
33.0053869999999989
21
-191.8627119999999877
0
LINE
8
BLACK
6
CONTINUOUS
10
33.0053869999999989
20
-191.8627119999999877
11
32.8149109999999951
21
-191.95795099999998
0
LINE
8
BLACK
6
CONTINUOUS
10
32.8149109999999951
20
-191.95795099999998
11
32.7196730000000002
21
-192.0531890000000033
0
LINE
8
BLACK
6
CONTINUOUS
10
32.7196730000000002
20
-192.0531890000000033
11
32.6244349999999983
21
-192.2436649999999929
0
LINE
8
BLACK
6
CONTINUOUS
10
32.6244349999999983
20
-192.2436649999999929
11
32.6244349999999983
21
-192.6246170000000006
0
LINE
8
BLACK
6
CONTINUOUS
10
32.6244349999999983
20
-192.6246170000000006
11
32.7196730000000002
21
-192.8150929999999903
0
LINE
8
BLACK
6
CONTINUOUS
10
32.7196730000000002
20
-192.8150929999999903
11
32.8149109999999951
21
-192.9103319999999826
0
LINE
8
BLACK
6
CONTINUOUS
10
32.8149109999999951
20
-192.9103319999999826
11
33.0053869999999989
21
-193.0055699999999774
0
LINE
8
BLACK
6
CONTINUOUS
10
33.0053869999999989
20
-193.0055699999999774
11
33.386339999999997
21
-193.0055699999999774
0
LINE
8
BLACK
6
CONTINUOUS
10
33.386339999999997
20
-193.0055699999999774
11
33.5768160000000009
21
-192.9103319999999826
0
LINE
8
BLACK
6
CONTINUOUS
10
33.5768160000000009
20
-192.9103319999999826
11
33.6720539999999957
21
-192.8150929999999903
0
LINE
8
BLACK
6
CONTINUOUS
10
33.6720539999999957
20
-192.8150929999999903
11
33.7672919999999976
21
-192.6246170000000006
0
LINE
8
BLACK
6
CONTINUOUS
10
33.7672919999999976
20
-192.6246170000000006
11
33.7672919999999976
21
-192.2436649999999929
0
LINE
8
BLACK
6
CONTINUOUS
10
33.7672919999999976
20
-192.2436649999999929
11
33.6720539999999957
21
-192.0531890000000033
0
LINE
8
BLACK
6
CONTINUOUS
10
33.6720539999999957
20
-192.0531890000000033
11
33.5768160000000009
21
-191.95795099999998
0
LINE
8
BLACK
6
CONTINUOUS
10
33.5768160000000009
20
-191.95795099999998
11
33.386339999999997
21
-191.8627119999999877
0
LINE
8
BLACK
6
CONTINUOUS
10
34.910148999999997
20
-191.8627119999999877
11
34.7196730000000002
21
-191.7674739999999929
0
LINE
8
BLACK
6
CONTINUOUS
10
34.7196730000000002
20
-191.7674739999999929
11
34.6244349999999983
21
-191.6722359999999981
0
LINE
8
BLACK
6
CONTINUOUS
10
34.6244349999999983
20
-191.6722359999999981
11
34.5291969999999964
21
-191.48175999999998
0
LINE
8
BLACK
6
CONTINUOUS
10
34.5291969999999964
20
-191.48175999999998
11
34.5291969999999964
21
-191.3865219999999852
0
LINE
8
BLACK
6
CONTINUOUS
10
34.5291969999999964
20
-191.3865219999999852
11
34.6244349999999983
21
-191.1960459999999955
0
LINE
8
BLACK
6
CONTINUOUS
10
34.6244349999999983
20
-191.1960459999999955
11
34.7196730000000002
21
-191.1008080000000007
0
LINE
8
BLACK
6
CONTINUOUS
10
34.7196730000000002
20
-191.1008080000000007
11
34.910148999999997
21
-191.0055699999999774
0
LINE
8
BLACK
6
CONTINUOUS
10
34.910148999999997
20
-191.0055699999999774
11
35.2911019999999951
21
-191.0055699999999774
0
LINE
8
BLACK
6
CONTINUOUS
10
35.2911019999999951
20
-191.0055699999999774
11
35.481577999999999
21
-191.1008080000000007
0
LINE
8
BLACK
6
CONTINUOUS
10
35.481577999999999
20
-191.1008080000000007
11
35.5768160000000009
21
-191.1960459999999955
0
LINE
8
BLACK
6
CONTINUOUS
10
35.5768160000000009
20
-191.1960459999999955
11
35.6720539999999957
21
-191.3865219999999852
0
LINE
8
BLACK
6
CONTINUOUS
10
35.6720539999999957
20
-191.3865219999999852
11
35.6720539999999957
21
-191.48175999999998
0
LINE
8
BLACK
6
CONTINUOUS
10
35.6720539999999957
20
-191.48175999999998
11
35.5768160000000009
21
-191.6722359999999981
0
LINE
8
BLACK
6
CONTINUOUS
10
35.5768160000000009
20
-191.6722359999999981
11
35.481577999999999
21
-191.7674739999999929
0
LINE
8
BLACK
6
CONTINUOUS
10
35.481577999999999
20
-191.7674739999999929
11
35.2911019999999951
21
-191.8627119999999877
0
LINE
8
BLACK
6
CONTINUOUS
10
35.2911019999999951
20
-191.8627119999999877
11
34.910148999999997
21
-191.8627119999999877
0
LINE
8
BLACK
6
CONTINUOUS
10
34.910148999999997
20
-191.8627119999999877
11
34.7196730000000002
21
-191.95795099999998
0
LINE
8
BLACK
6
CONTINUOUS
10
34.7196730000000002
20
-191.95795099999998
11
34.6244349999999983
21
-192.0531890000000033
0
LINE
8
BLACK
6
CONTINUOUS
10
34.6244349999999983
20
-192.0531890000000033
11
34.5291969999999964
21
-192.2436649999999929
0
LINE
8
BLACK
6
CONTINUOUS
10
34.5291969999999964
20
-192.2436649999999929
11
34.5291969999999964
21
-192.6246170000000006
0
LINE
8
BLACK
6
CONTINUOUS
10
34.5291969999999964
20
-192.6246170000000006
11
34.6244349999999983
21
-192.8150929999999903
0
LINE
8
BLACK
6
CONTINUOUS
10
34.6244349999999983
20
-192.8150929999999903
11
34.7196730000000002
21
-192.9103319999999826
0
LINE
8
BLACK
6
CONTINUOUS
10
34.7196730000000002
20
-192.9103319999999826
11
34.910148999999997
21
-193.0055699999999774
0
LINE
8
BLACK
6
CONTINUOUS
10
34.910148999999997
20
-193.0055699999999774
11
35.2911019999999951
21
-193.0055699999999774
0
LINE
8
BLACK
6
CONTINUOUS
10
35.2911019999999951
20
-193.0055699999999774
11
35.481577999999999
21
-192.9103319999999826
0
LINE
8
BLACK
6
CONTINUOUS
10
35.481577999999999
20
-192.9103319999999826
11
35.5768160000000009
21
-192.8150929999999903
0
LINE
8
BLACK
6
CONTINUOUS
10
35.5768160000000009
20
-192.8150929999999903
11
35.6720539999999957
21
-192.6246170000000006
0
LINE
8
BLACK
6
CONTINUOUS
10
35.6720539999999957
20
-192.6246170000000006
11
35.6720539999999957
21
-192.2436649999999929
0
LINE
8
BLACK
6
CONTINUOUS
10
35.6720539999999957
20
-192.2436649999999929
11
35.5768160000000009
21
-192.0531890000000033
0
LINE
8
BLACK
6
CONTINUOUS
10
35.5768160000000009
20
-192.0531890000000033
11
35.481577999999999
21
-191.95795099999998
0
LINE
8
BLACK
6
CONTINUOUS
10
35.481577999999999
20
-191.95795099999998
11
35.2911019999999951
21
-191.8627119999999877
0
LINE
8
BLACK
6
CONTINUOUS
10
36.5291969999999964
20
-193.0055699999999774
11
36.5291969999999964
21
-191.6722359999999981
0
LINE
8
BLACK
6
CONTINUOUS
10
36.5291969999999964
20
-191.8627119999999877
11
36.6244349999999983
21
-191.7674739999999929
0
LINE
8
BLACK
6
CONTINUOUS
10
36.6244349999999983
20
-191.7674739999999929
11
36.8149109999999951
21
-191.6722359999999981
0
LINE
8
BLACK
6
CONTINUOUS
10
36.8149109999999951
20
-191.6722359999999981
11
37.1006259999999983
21
-191.6722359999999981
0
LINE
8
BLACK
6
CONTINUOUS
10
37.1006259999999983
20
-191.6722359999999981
11
37.2911019999999951
21
-191.7674739999999929
0
LINE
8
BLACK
6
CONTINUOUS
10
37.2911019999999951
20
-191.7674739999999929
11
37.386339999999997
21
-191.95795099999998
0
LINE
8
BLACK
6
CONTINUOUS
10
37.386339999999997
20
-191.95795099999998
11
37.386339999999997
21
-193.0055699999999774
0
LINE
8
BLACK
6
CONTINUOUS
10
37.386339999999997
20
-191.95795099999998
11
37.481577999999999
21
-191.7674739999999929
0
LINE
8
BLACK
6
CONTINUOUS
10
37.481577999999999
20
-191.7674739999999929
11
37.6720539999999957
21
-191.6722359999999981
0
LINE
8
BLACK
6
CONTINUOUS
10
37.6720539999999957
20
-191.6722359999999981
11
37.9577680000000015
21
-191.6722359999999981
0
LINE
8
BLACK
6
CONTINUOUS
10
37.9577680000000015
20
-191.6722359999999981
11
38.1482449999999957
21
-191.7674739999999929
0
LINE
8
BLACK
6
CONTINUOUS
10
38.1482449999999957
20
-191.7674739999999929
11
38.2434829999999977
21
-191.95795099999998
0
LINE
8
BLACK
6
CONTINUOUS
10
38.2434829999999977
20
-191.95795099999998
11
38.2434829999999977
21
-193.0055699999999774
0
LINE
8
BLACK
6
CONTINUOUS
10
39.1958640000000003
20
-193.0055699999999774
11
39.1958640000000003
21
-191.6722359999999981
0
LINE
8
BLACK
6
CONTINUOUS
10
39.1958640000000003
20
-191.8627119999999877
11
39.2911019999999951
21
-191.7674739999999929
0
LINE
8
BLACK
6
CONTINUOUS
10
39.2911019999999951
20
-191.7674739999999929
11
39.481577999999999
21
-191.6722359999999981
0
LINE
8
BLACK
6
CONTINUOUS
10
39.481577999999999
20
-191.6722359999999981
11
39.7672929999999951
21
-191.6722359999999981
0
LINE
8
BLACK
6
CONTINUOUS
10
39.7672929999999951
20
-191.6722359999999981
11
39.957768999999999
21
-191.7674739999999929
0
LINE
8
BLACK
6
CONTINUOUS
10
39.957768999999999
20
-191.7674739999999929
11
40.0530070000000009
21
-191.95795099999998
0
LINE
8
BLACK
6
CONTINUOUS
10
40.0530070000000009
20
-191.95795099999998
11
40.0530070000000009
21
-193.0055699999999774
0
LINE
8
BLACK
6
CONTINUOUS
10
40.0530070000000009
20
-191.95795099999998
11
40.1482449999999957
21
-191.7674739999999929
0
LINE
8
BLACK
6
CONTINUOUS
10
40.1482449999999957
20
-191.7674739999999929
11
40.3387209999999996
21
-191.6722359999999981
0
LINE
8
BLACK
6
CONTINUOUS
10
40.3387209999999996
20
-191.6722359999999981
11
40.6244349999999983
21
-191.6722359999999981
0
LINE
8
BLACK
6
CONTINUOUS
10
40.6244349999999983
20
-191.6722359999999981
11
40.8149119999999996
21
-191.7674739999999929
0
LINE
8
BLACK
6
CONTINUOUS
10
40.8149119999999996
20
-191.7674739999999929
11
40.9101500000000016
21
-191.95795099999998
0
LINE
8
BLACK
6
CONTINUOUS
10
40.9101500000000016
20
-191.95795099999998
11
40.9101500000000016
21
-193.0055699999999774
0
LINE
8
BLACK
6
CONTINUOUS
10
44.8149119999999996
20
-190.9103319999999826
11
43.1006269999999958
21
-193.48175999999998
0
LINE
8
BLACK
6
CONTINUOUS
10
47.3863409999999945
20
-191.0055699999999774
11
47.5768179999999958
21
-191.0055699999999774
0
LINE
8
BLACK
6
CONTINUOUS
10
47.5768179999999958
20
-191.0055699999999774
11
47.7672939999999997
21
-191.1008080000000007
0
LINE
8
BLACK
6
CONTINUOUS
10
47.7672939999999997
20
-191.1008080000000007
11
47.8625319999999945
21
-191.1960459999999955
0
LINE
8
BLACK
6
CONTINUOUS
10
47.8625319999999945
20
-191.1960459999999955
11
47.9577699999999965
21
-191.3865219999999852
0
LINE
8
BLACK
6
CONTINUOUS
10
47.9577699999999965
20
-191.3865219999999852
11
48.0530079999999984
21
-191.7674739999999929
0
LINE
8
BLACK
6
CONTINUOUS
10
48.0530079999999984
20
-191.7674739999999929
11
48.0530079999999984
21
-192.2436649999999929
0
LINE
8
BLACK
6
CONTINUOUS
10
48.0530079999999984
20
-192.2436649999999929
11
47.9577699999999965
21
-192.6246170000000006
0
LINE
8
BLACK
6
CONTINUOUS
10
47.9577699999999965
20
-192.6246170000000006
11
47.8625319999999945
21
-192.8150929999999903
0
LINE
8
BLACK
6
CONTINUOUS
10
47.8625319999999945
20
-192.8150929999999903
11
47.7672939999999997
21
-192.9103319999999826
0
LINE
8
BLACK
6
CONTINUOUS
10
47.7672939999999997
20
-192.9103319999999826
11
47.5768179999999958
21
-193.0055699999999774
0
LINE
8
BLACK
6
CONTINUOUS
10
47.5768179999999958
20
-193.0055699999999774
11
47.3863409999999945
21
-193.0055699999999774
0
LINE
8
BLACK
6
CONTINUOUS
10
47.3863409999999945
20
-193.0055699999999774
11
47.1958649999999977
21
-192.9103319999999826
0
LINE
8
BLACK
6
CONTINUOUS
10
47.1958649999999977
20
-192.9103319999999826
11
47.1006269999999958
21
-192.8150929999999903
0
LINE
8
BLACK
6
CONTINUOUS
10
47.1006269999999958
20
-192.8150929999999903
11
47.005389000000001
21
-192.6246170000000006
0
LINE
8
BLACK
6
CONTINUOUS
10
47.005389000000001
20
-192.6246170000000006
11
46.910150999999999
21
-192.2436649999999929
0
LINE
8
BLACK
6
CONTINUOUS
10
46.910150999999999
20
-192.2436649999999929
11
46.910150999999999
21
-191.7674739999999929
0
LINE
8
BLACK
6
CONTINUOUS
10
46.910150999999999
20
-191.7674739999999929
11
47.005389000000001
21
-191.3865219999999852
0
LINE
8
BLACK
6
CONTINUOUS
10
47.005389000000001
20
-191.3865219999999852
11
47.1006269999999958
21
-191.1960459999999955
0
LINE
8
BLACK
6
CONTINUOUS
10
47.1006269999999958
20
-191.1960459999999955
11
47.1958649999999977
21
-191.1008080000000007
0
LINE
8
BLACK
6
CONTINUOUS
10
47.1958649999999977
20
-191.1008080000000007
11
47.3863409999999945
21
-191.0055699999999774
0
LINE
8
BLACK
6
CONTINUOUS
10
48.910150999999999
20
-192.8150929999999903
11
49.005389000000001
21
-192.9103319999999826
0
LINE
8
BLACK
6
CONTINUOUS
10
49.005389000000001
20
-192.9103319999999826
11
48.910150999999999
21
-193.0055699999999774
0
LINE
8
BLACK
6
CONTINUOUS
10
48.910150999999999
20
-193.0055699999999774
11
48.8149129999999971
21
-192.9103319999999826
0
LINE
8
BLACK
6
CONTINUOUS
10
48.8149129999999971
20
-192.9103319999999826
11
48.910150999999999
21
-192.8150929999999903
0
LINE
8
BLACK
6
CONTINUOUS
10
48.910150999999999
20
-192.8150929999999903
11
48.910150999999999
21
-193.0055699999999774
0
LINE
8
BLACK
6
CONTINUOUS
10
50.910150999999999
20
-193.0055699999999774
11
49.7672939999999997
21
-193.0055699999999774
0
LINE
8
BLACK
6
CONTINUOUS
10
50.3387219999999971
20
-193.0055699999999774
11
50.3387219999999971
21
-191.0055699999999774
0
LINE
8
BLACK
6
CONTINUOUS
10
50.3387219999999971
20
-191.0055699999999774
11
50.1482460000000003
21
-191.2912839999999903
0
LINE
8
BLACK
6
CONTINUOUS
10
50.1482460000000003
20
-191.2912839999999903
11
49.9577699999999965
21
-191.48175999999998
0
LINE
8
BLACK
6
CONTINUOUS
10
49.9577699999999965
20
-191.48175999999998
11
49.7672939999999997
21
-191.5769980000000032
0
LINE
8
BLACK
6
CONTINUOUS
10
52.7196749999999952
20
-191.0055699999999774
11
51.7672939999999997
21
-191.0055699999999774
0
LINE
8
BLACK
6
CONTINUOUS
10
51.7672939999999997
20
-191.0055699999999774
11
51.6720559999999978
21
-191.95795099999998
0
LINE
8
BLACK
6
CONTINUOUS
10
51.6720559999999978
20
-191.95795099999998
11
51.7672939999999997
21
-191.8627119999999877
0
LINE
8
BLACK
6
CONTINUOUS
10
51.7672939999999997
20
-191.8627119999999877
11
51.9577699999999965
21
-191.7674739999999929
0
LINE
8
BLACK
6
CONTINUOUS
10
51.9577699999999965
20
-191.7674739999999929
11
52.4339609999999965
21
-191.7674739999999929
0
LINE
8
BLACK
6
CONTINUOUS
10
52.4339609999999965
20
-191.7674739999999929
11
52.6244370000000004
21
-191.8627119999999877
0
LINE
8
BLACK
6
CONTINUOUS
10
52.6244370000000004
20
-191.8627119999999877
11
52.7196749999999952
21
-191.95795099999998
0
LINE
8
BLACK
6
CONTINUOUS
10
52.7196749999999952
20
-191.95795099999998
11
52.8149129999999971
21
-192.1484269999999981
0
LINE
8
BLACK
6
CONTINUOUS
10
52.8149129999999971
20
-192.1484269999999981
11
52.8149129999999971
21
-192.6246170000000006
0
LINE
8
BLACK
6
CONTINUOUS
10
52.8149129999999971
20
-192.6246170000000006
11
52.7196749999999952
21
-192.8150929999999903
0
LINE
8
BLACK
6
CONTINUOUS
10
52.7196749999999952
20
-192.8150929999999903
11
52.6244370000000004
21
-192.9103319999999826
0
LINE
8
BLACK
6
CONTINUOUS
10
52.6244370000000004
20
-192.9103319999999826
11
52.4339609999999965
21
-193.0055699999999774
0
LINE
8
BLACK
6
CONTINUOUS
10
52.4339609999999965
20
-193.0055699999999774
11
51.9577699999999965
21
-193.0055699999999774
0
LINE
8
BLACK
6
CONTINUOUS
10
51.9577699999999965
20
-193.0055699999999774
11
51.7672939999999997
21
-192.9103319999999826
0
LINE
8
BLACK
6
CONTINUOUS
10
51.7672939999999997
20
-192.9103319999999826
11
51.6720559999999978
21
-192.8150929999999903
0
LINE
8
BLACK
6
CONTINUOUS
10
53.481580000000001
20
-191.0055699999999774
11
54.8149129999999971
21
-191.0055699999999774
0
LINE
8
BLACK
6
CONTINUOUS
10
54.8149129999999971
20
-191.0055699999999774
11
53.9577699999999965
21
-193.0055699999999774
0
LINE
8
BLACK
6
CONTINUOUS
10
55.9577699999999965
20
-191.0055699999999774
11
56.1482469999999978
21
-191.0055699999999774
0
LINE
8
BLACK
6
CONTINUOUS
10
56.1482469999999978
20
-191.0055699999999774
11
56.3387229999999946
21
-191.1008080000000007
0
LINE
8
BLACK
6
CONTINUOUS
10
56.3387229999999946
20
-191.1008080000000007
11
56.4339609999999965
21
-191.1960459999999955
0
LINE
8
BLACK
6
CONTINUOUS
10
56.4339609999999965
20
-191.1960459999999955
11
56.5291989999999984
21
-191.3865219999999852
0
LINE
8
BLACK
6
CONTINUOUS
10
56.5291989999999984
20
-191.3865219999999852
11
56.6244370000000004
21
-191.7674739999999929
0
LINE
8
BLACK
6
CONTINUOUS
10
56.6244370000000004
20
-191.7674739999999929
11
56.6244370000000004
21
-192.2436649999999929
0
LINE
8
BLACK
6
CONTINUOUS
10
56.6244370000000004
20
-192.2436649999999929
11
56.5291989999999984
21
-192.6246170000000006
0
LINE
8
BLACK
6
CONTINUOUS
10
56.5291989999999984
20
-192.6246170000000006
11
56.4339609999999965
21
-192.8150929999999903
0
LINE
8
BLACK
6
CONTINUOUS
10
56.4339609999999965
20
-192.8150929999999903
11
56.3387229999999946
21
-192.9103319999999826
0
LINE
8
BLACK
6
CONTINUOUS
10
56.3387229999999946
20
-192.9103319999999826
11
56.1482469999999978
21
-193.0055699999999774
0
LINE
8
BLACK
6
CONTINUOUS
10
56.1482469999999978
20
-193.0055699999999774
11
55.9577699999999965
21
-193.0055699999999774
0
LINE
8
BLACK
6
CONTINUOUS
10
55.9577699999999965
20
-193.0055699999999774
11
55.7672939999999997
21
-192.9103319999999826
0
LINE
8
BLACK
6
CONTINUOUS
10
55.7672939999999997
20
-192.9103319999999826
11
55.6720559999999978
21
-192.8150929999999903
0
LINE
8
BLACK
6
CONTINUOUS
10
55.6720559999999978
20
-192.8150929999999903
11
55.5768179999999958
21
-192.6246170000000006
0
LINE
8
BLACK
6
CONTINUOUS
10
55.5768179999999958
20
-192.6246170000000006
11
55.481580000000001
21
-192.2436649999999929
0
LINE
8
BLACK
6
CONTINUOUS
10
55.481580000000001
20
-192.2436649999999929
11
55.481580000000001
21
-191.7674739999999929
0
LINE
8
BLACK
6
CONTINUOUS
10
55.481580000000001
20
-191.7674739999999929
11
55.5768179999999958
21
-191.3865219999999852
0
LINE
8
BLACK
6
CONTINUOUS
10
55.5768179999999958
20
-191.3865219999999852
11
55.6720559999999978
21
-191.1960459999999955
0
LINE
8
BLACK
6
CONTINUOUS
10
55.6720559999999978
20
-191.1960459999999955
11
55.7672939999999997
21
-191.1008080000000007
0
LINE
8
BLACK
6
CONTINUOUS
10
55.7672939999999997
20
-191.1008080000000007
11
55.9577699999999965
21
-191.0055699999999774
0
LINE
8
BLACK
6
CONTINUOUS
10
57.3863419999999991
20
-191.0055699999999774
11
57.3863419999999991
21
-191.3865219999999852
0
LINE
8
BLACK
6
CONTINUOUS
10
58.1482469999999978
20
-191.0055699999999774
11
58.1482469999999978
21
-191.3865219999999852
0
LINE
8
BLACK
6
CONTINUOUS
10
61.1006289999999979
20
-193.7674739999999929
11
61.0053899999999985
21
-193.6722359999999981
0
LINE
8
BLACK
6
CONTINUOUS
10
61.0053899999999985
20
-193.6722359999999981
11
60.8149139999999946
21
-193.3865219999999852
0
LINE
8
BLACK
6
CONTINUOUS
10
60.8149139999999946
20
-193.3865219999999852
11
60.7196759999999998
21
-193.1960459999999955
0
LINE
8
BLACK
6
CONTINUOUS
10
60.7196759999999998
20
-193.1960459999999955
11
60.6244379999999978
21
-192.9103319999999826
0
LINE
8
BLACK
6
CONTINUOUS
10
60.6244379999999978
20
-192.9103319999999826
11
60.5291999999999959
21
-192.4341409999999826
0
LINE
8
BLACK
6
CONTINUOUS
10
60.5291999999999959
20
-192.4341409999999826
11
60.5291999999999959
21
-192.0531890000000033
0
LINE
8
BLACK
6
CONTINUOUS
10
60.5291999999999959
20
-192.0531890000000033
11
60.6244379999999978
21
-191.5769980000000032
0
LINE
8
BLACK
6
CONTINUOUS
10
60.6244379999999978
20
-191.5769980000000032
11
60.7196759999999998
21
-191.2912839999999903
0
LINE
8
BLACK
6
CONTINUOUS
10
60.7196759999999998
20
-191.2912839999999903
11
60.8149139999999946
21
-191.1008080000000007
0
LINE
8
BLACK
6
CONTINUOUS
10
60.8149139999999946
20
-191.1008080000000007
11
61.0053899999999985
21
-190.8150929999999903
0
LINE
8
BLACK
6
CONTINUOUS
10
61.0053899999999985
20
-190.8150929999999903
11
61.1006289999999979
21
-190.7198549999999955
0
LINE
8
BLACK
6
CONTINUOUS
10
62.7196759999999998
20
-191.6722359999999981
11
62.7196759999999998
21
-193.0055699999999774
0
LINE
8
BLACK
6
CONTINUOUS
10
62.2434849999999997
20
-190.9103319999999826
11
61.7672949999999972
21
-192.3389029999999877
0
LINE
8
BLACK
6
CONTINUOUS
10
61.7672949999999972
20
-192.3389029999999877
11
63.0053899999999985
21
-192.3389029999999877
0
LINE
8
BLACK
6
CONTINUOUS
10
63.6720569999999952
20
-191.1960459999999955
11
63.7672949999999972
21
-191.1008080000000007
0
LINE
8
BLACK
6
CONTINUOUS
10
63.7672949999999972
20
-191.1008080000000007
11
63.9577709999999939
21
-191.0055699999999774
0
LINE
8
BLACK
6
CONTINUOUS
10
63.9577709999999939
20
-191.0055699999999774
11
64.433961999999994
21
-191.0055699999999774
0
LINE
8
BLACK
6
CONTINUOUS
10
64.433961999999994
20
-191.0055699999999774
11
64.6244379999999978
21
-191.1008080000000007
0
LINE
8
BLACK
6
CONTINUOUS
10
64.6244379999999978
20
-191.1008080000000007
11
64.7196759999999927
21
-191.1960459999999955
0
LINE
8
BLACK
6
CONTINUOUS
10
64.7196759999999927
20
-191.1960459999999955
11
64.8149140000000017
21
-191.3865219999999852
0
LINE
8
BLACK
6
CONTINUOUS
10
64.8149140000000017
20
-191.3865219999999852
11
64.8149140000000017
21
-191.5769980000000032
0
LINE
8
BLACK
6
CONTINUOUS
10
64.8149140000000017
20
-191.5769980000000032
11
64.7196759999999927
21
-191.8627119999999877
0
LINE
8
BLACK
6
CONTINUOUS
10
64.7196759999999927
20
-191.8627119999999877
11
63.5768190000000004
21
-193.0055699999999774
0
LINE
8
BLACK
6
CONTINUOUS
10
63.5768190000000004
20
-193.0055699999999774
11
64.8149140000000017
21
-193.0055699999999774
0
LINE
8
BLACK
6
CONTINUOUS
10
67.1958669999999927
20
-193.0055699999999774
11
67.1958669999999927
21
-191.0055699999999774
0
LINE
8
BLACK
6
CONTINUOUS
10
68.0530100000000004
20
-193.0055699999999774
11
68.0530100000000004
21
-191.95795099999998
0
LINE
8
BLACK
6
CONTINUOUS
10
68.0530100000000004
20
-191.95795099999998
11
67.9577719999999914
21
-191.7674739999999929
0
LINE
8
BLACK
6
CONTINUOUS
10
67.9577719999999914
20
-191.7674739999999929
11
67.7672960000000018
21
-191.6722359999999981
0
LINE
8
BLACK
6
CONTINUOUS
10
67.7672960000000018
20
-191.6722359999999981
11
67.4815809999999914
21
-191.6722359999999981
0
LINE
8
BLACK
6
CONTINUOUS
10
67.4815809999999914
20
-191.6722359999999981
11
67.2911050000000017
21
-191.7674739999999929
0
LINE
8
BLACK
6
CONTINUOUS
10
67.2911050000000017
20
-191.7674739999999929
11
67.1958669999999927
21
-191.8627119999999877
0
LINE
8
BLACK
6
CONTINUOUS
10
69.2911050000000017
20
-193.0055699999999774
11
69.1006289999999979
21
-192.9103319999999826
0
LINE
8
BLACK
6
CONTINUOUS
10
69.1006289999999979
20
-192.9103319999999826
11
69.005391000000003
21
-192.8150929999999903
0
LINE
8
BLACK
6
CONTINUOUS
10
69.005391000000003
20
-192.8150929999999903
11
68.910152999999994
21
-192.6246170000000006
0
LINE
8
BLACK
6
CONTINUOUS
10
68.910152999999994
20
-192.6246170000000006
11
68.910152999999994
21
-192.0531890000000033
0
LINE
8
BLACK
6
CONTINUOUS
10
68.910152999999994
20
-192.0531890000000033
11
69.005391000000003
21
-191.8627119999999877
0
LINE
8
BLACK
6
CONTINUOUS
10
69.005391000000003
20
-191.8627119999999877
11
69.1006289999999979
21
-191.7674739999999929
0
LINE
8
BLACK
6
CONTINUOUS
10
69.1006289999999979
20
-191.7674739999999929
11
69.2911050000000017
21
-191.6722359999999981
0
LINE
8
BLACK
6
CONTINUOUS
10
69.2911050000000017
20
-191.6722359999999981
11
69.5768199999999979
21
-191.6722359999999981
0
LINE
8
BLACK
6
CONTINUOUS
10
69.5768199999999979
20
-191.6722359999999981
11
69.7672960000000018
21
-191.7674739999999929
0
LINE
8
BLACK
6
CONTINUOUS
10
69.7672960000000018
20
-191.7674739999999929
11
69.8625339999999966
21
-191.8627119999999877
0
LINE
8
BLACK
6
CONTINUOUS
10
69.8625339999999966
20
-191.8627119999999877
11
69.9577719999999914
21
-192.0531890000000033
0
LINE
8
BLACK
6
CONTINUOUS
10
69.9577719999999914
20
-192.0531890000000033
11
69.9577719999999914
21
-192.6246170000000006
0
LINE
8
BLACK
6
CONTINUOUS
10
69.9577719999999914
20
-192.6246170000000006
11
69.8625339999999966
21
-192.8150929999999903
0
LINE
8
BLACK
6
CONTINUOUS
10
69.8625339999999966
20
-192.8150929999999903
11
69.7672960000000018
21
-192.9103319999999826
0
LINE
8
BLACK
6
CONTINUOUS
10
69.7672960000000018
20
-192.9103319999999826
11
69.5768199999999979
21
-193.0055699999999774
0
LINE
8
BLACK
6
CONTINUOUS
10
69.5768199999999979
20
-193.0055699999999774
11
69.2911050000000017
21
-193.0055699999999774
0
LINE
8
BLACK
6
CONTINUOUS
10
71.1006289999999979
20
-193.0055699999999774
11
70.910152999999994
21
-192.9103319999999826
0
LINE
8
BLACK
6
CONTINUOUS
10
70.910152999999994
20
-192.9103319999999826
11
70.8149149999999992
21
-192.7198549999999955
0
LINE
8
BLACK
6
CONTINUOUS
10
70.8149149999999992
20
-192.7198549999999955
11
70.8149149999999992
21
-191.0055699999999774
0
LINE
8
BLACK
6
CONTINUOUS
10
72.6244389999999953
20
-192.9103319999999826
11
72.4339629999999914
21
-193.0055699999999774
0
LINE
8
BLACK
6
CONTINUOUS
10
72.4339629999999914
20
-193.0055699999999774
11
72.0530100000000004
21
-193.0055699999999774
0
LINE
8
BLACK
6
CONTINUOUS
10
72.0530100000000004
20
-193.0055699999999774
11
71.8625339999999966
21
-192.9103319999999826
0
LINE
8
BLACK
6
CONTINUOUS
10
71.8625339999999966
20
-192.9103319999999826
11
71.7672960000000018
21
-192.7198549999999955
0
LINE
8
BLACK
6
CONTINUOUS
10
71.7672960000000018
20
-192.7198549999999955
11
71.7672960000000018
21
-191.95795099999998
0
LINE
8
BLACK
6
CONTINUOUS
10
71.7672960000000018
20
-191.95795099999998
11
71.8625339999999966
21
-191.7674739999999929
0
LINE
8
BLACK
6
CONTINUOUS
10
71.8625339999999966
20
-191.7674739999999929
11
72.0530100000000004
21
-191.6722359999999981
0
LINE
8
BLACK
6
CONTINUOUS
10
72.0530100000000004
20
-191.6722359999999981
11
72.4339629999999914
21
-191.6722359999999981
0
LINE
8
BLACK
6
CONTINUOUS
10
72.4339629999999914
20
-191.6722359999999981
11
72.6244389999999953
21
-191.7674739999999929
0
LINE
8
BLACK
6
CONTINUOUS
10
72.6244389999999953
20
-191.7674739999999929
11
72.7196769999999901
21
-191.95795099999998
0
LINE
8
BLACK
6
CONTINUOUS
10
72.7196769999999901
20
-191.95795099999998
11
72.7196769999999901
21
-192.1484269999999981
0
LINE
8
BLACK
6
CONTINUOUS
10
72.7196769999999901
20
-192.1484269999999981
11
71.7672960000000018
21
-192.3389029999999877
0
LINE
8
BLACK
6
CONTINUOUS
10
73.4815820000000031
20
-192.9103319999999826
11
73.6720579999999927
21
-193.0055699999999774
0
LINE
8
BLACK
6
CONTINUOUS
10
73.6720579999999927
20
-193.0055699999999774
11
74.0530100000000004
21
-193.0055699999999774
0
LINE
8
BLACK
6
CONTINUOUS
10
74.0530100000000004
20
-193.0055699999999774
11
74.2434870000000018
21
-192.9103319999999826
0
LINE
8
BLACK
6
CONTINUOUS
10
74.2434870000000018
20
-192.9103319999999826
11
74.3387249999999966
21
-192.7198549999999955
0
LINE
8
BLACK
6
CONTINUOUS
10
74.3387249999999966
20
-192.7198549999999955
11
74.3387249999999966
21
-192.6246170000000006
0
LINE
8
BLACK
6
CONTINUOUS
10
74.3387249999999966
20
-192.6246170000000006
11
74.2434870000000018
21
-192.4341409999999826
0
LINE
8
BLACK
6
CONTINUOUS
10
74.2434870000000018
20
-192.4341409999999826
11
74.0530100000000004
21
-192.3389029999999877
0
LINE
8
BLACK
6
CONTINUOUS
10
74.0530100000000004
20
-192.3389029999999877
11
73.7672960000000018
21
-192.3389029999999877
0
LINE
8
BLACK
6
CONTINUOUS
10
73.7672960000000018
20
-192.3389029999999877
11
73.5768199999999979
21
-192.2436649999999929
0
LINE
8
BLACK
6
CONTINUOUS
10
73.5768199999999979
20
-192.2436649999999929
11
73.4815820000000031
21
-192.0531890000000033
0
LINE
8
BLACK
6
CONTINUOUS
10
73.4815820000000031
20
-192.0531890000000033
11
73.4815820000000031
21
-191.95795099999998
0
LINE
8
BLACK
6
CONTINUOUS
10
73.4815820000000031
20
-191.95795099999998
11
73.5768199999999979
21
-191.7674739999999929
0
LINE
8
BLACK
6
CONTINUOUS
10
73.5768199999999979
20
-191.7674739999999929
11
73.7672960000000018
21
-191.6722359999999981
0
LINE
8
BLACK
6
CONTINUOUS
10
73.7672960000000018
20
-191.6722359999999981
11
74.0530100000000004
21
-191.6722359999999981
0
LINE
8
BLACK
6
CONTINUOUS
10
74.0530100000000004
20
-191.6722359999999981
11
74.2434870000000018
21
-191.7674739999999929
0
LINE
8
BLACK
6
CONTINUOUS
10
75.0053920000000005
20
-193.7674739999999929
11
75.1006299999999953
21
-193.6722359999999981
0
LINE
8
BLACK
6
CONTINUOUS
10
75.1006299999999953
20
-193.6722359999999981
11
75.2911059999999992
21
-193.3865219999999852
0
LINE
8
BLACK
6
CONTINUOUS
10
75.2911059999999992
20
-193.3865219999999852
11
75.386343999999994
21
-193.1960459999999955
0
LINE
8
BLACK
6
CONTINUOUS
10
75.386343999999994
20
-193.1960459999999955
11
75.4815820000000031
21
-192.9103319999999826
0
LINE
8
BLACK
6
CONTINUOUS
10
75.4815820000000031
20
-192.9103319999999826
11
75.5768199999999979
21
-192.4341409999999826
0
LINE
8
BLACK
6
CONTINUOUS
10
75.5768199999999979
20
-192.4341409999999826
11
75.5768199999999979
21
-192.0531890000000033
0
LINE
8
BLACK
6
CONTINUOUS
10
75.5768199999999979
20
-192.0531890000000033
11
75.4815820000000031
21
-191.5769980000000032
0
LINE
8
BLACK
6
CONTINUOUS
10
75.4815820000000031
20
-191.5769980000000032
11
75.386343999999994
21
-191.2912839999999903
0
LINE
8
BLACK
6
CONTINUOUS
10
75.386343999999994
20
-191.2912839999999903
11
75.2911059999999992
21
-191.1008080000000007
0
LINE
8
BLACK
6
CONTINUOUS
10
75.2911059999999992
20
-191.1008080000000007
11
75.1006299999999953
21
-190.8150929999999903
0
LINE
8
BLACK
6
CONTINUOUS
10
75.1006299999999953
20
-190.8150929999999903
11
75.0053920000000005
21
-190.7198549999999955
0
LINE
8
BLACK
6
CONTINUOUS
10
78.6244399999999928
20
-193.7674739999999929
11
78.5292010000000005
21
-193.6722359999999981
0
LINE
8
BLACK
6
CONTINUOUS
10
78.5292010000000005
20
-193.6722359999999981
11
78.3387249999999966
21
-193.3865219999999852
0
LINE
8
BLACK
6
CONTINUOUS
10
78.3387249999999966
20
-193.3865219999999852
11
78.2434870000000018
21
-193.1960459999999955
0
LINE
8
BLACK
6
CONTINUOUS
10
78.2434870000000018
20
-193.1960459999999955
11
78.1482489999999927
21
-192.9103319999999826
0
LINE
8
BLACK
6
CONTINUOUS
10
78.1482489999999927
20
-192.9103319999999826
11
78.0530109999999979
21
-192.4341409999999826
0
LINE
8
BLACK
6
CONTINUOUS
10
78.0530109999999979
20
-192.4341409999999826
11
78.0530109999999979
21
-192.0531890000000033
0
LINE
8
BLACK
6
CONTINUOUS
10
78.0530109999999979
20
-192.0531890000000033
11
78.1482489999999927
21
-191.5769980000000032
0
LINE
8
BLACK
6
CONTINUOUS
10
78.1482489999999927
20
-191.5769980000000032
11
78.2434870000000018
21
-191.2912839999999903
0
LINE
8
BLACK
6
CONTINUOUS
10
78.2434870000000018
20
-191.2912839999999903
11
78.3387249999999966
21
-191.1008080000000007
0
LINE
8
BLACK
6
CONTINUOUS
10
78.3387249999999966
20
-191.1008080000000007
11
78.5292010000000005
21
-190.8150929999999903
0
LINE
8
BLACK
6
CONTINUOUS
10
78.5292010000000005
20
-190.8150929999999903
11
78.6244399999999928
21
-190.7198549999999955
0
LINE
8
BLACK
6
CONTINUOUS
10
79.386343999999994
20
-191.6722359999999981
11
79.386343999999994
21
-193.0055699999999774
0
LINE
8
BLACK
6
CONTINUOUS
10
79.386343999999994
20
-191.8627119999999877
11
79.4815820000000031
21
-191.7674739999999929
0
LINE
8
BLACK
6
CONTINUOUS
10
79.4815820000000031
20
-191.7674739999999929
11
79.6720579999999927
21
-191.6722359999999981
0
LINE
8
BLACK
6
CONTINUOUS
10
79.6720579999999927
20
-191.6722359999999981
11
79.9577730000000031
21
-191.6722359999999981
0
LINE
8
BLACK
6
CONTINUOUS
10
79.9577730000000031
20
-191.6722359999999981
11
80.1482489999999927
21
-191.7674739999999929
0
LINE
8
BLACK
6
CONTINUOUS
10
80.1482489999999927
20
-191.7674739999999929
11
80.2434870000000018
21
-191.95795099999998
0
LINE
8
BLACK
6
CONTINUOUS
10
80.2434870000000018
20
-191.95795099999998
11
80.2434870000000018
21
-193.0055699999999774
0
LINE
8
BLACK
6
CONTINUOUS
10
81.4815820000000031
20
-193.0055699999999774
11
81.2911059999999992
21
-192.9103319999999826
0
LINE
8
BLACK
6
CONTINUOUS
10
81.2911059999999992
20
-192.9103319999999826
11
81.1958679999999902
21
-192.8150929999999903
0
LINE
8
BLACK
6
CONTINUOUS
10
81.1958679999999902
20
-192.8150929999999903
11
81.1006299999999953
21
-192.6246170000000006
0
LINE
8
BLACK
6
CONTINUOUS
10
81.1006299999999953
20
-192.6246170000000006
11
81.1006299999999953
21
-192.0531890000000033
0
LINE
8
BLACK
6
CONTINUOUS
10
81.1006299999999953
20
-192.0531890000000033
11
81.1958679999999902
21
-191.8627119999999877
0
LINE
8
BLACK
6
CONTINUOUS
10
81.1958679999999902
20
-191.8627119999999877
11
81.2911059999999992
21
-191.7674739999999929
0
LINE
8
BLACK
6
CONTINUOUS
10
81.2911059999999992
20
-191.7674739999999929
11
81.4815820000000031
21
-191.6722359999999981
0
LINE
8
BLACK
6
CONTINUOUS
10
81.4815820000000031
20
-191.6722359999999981
11
81.7672969999999992
21
-191.6722359999999981
0
LINE
8
BLACK
6
CONTINUOUS
10
81.7672969999999992
20
-191.6722359999999981
11
81.9577730000000031
21
-191.7674739999999929
0
LINE
8
BLACK
6
CONTINUOUS
10
81.9577730000000031
20
-191.7674739999999929
11
82.0530109999999979
21
-191.8627119999999877
0
LINE
8
BLACK
6
CONTINUOUS
10
82.0530109999999979
20
-191.8627119999999877
11
82.1482489999999927
21
-192.0531890000000033
0
LINE
8
BLACK
6
CONTINUOUS
10
82.1482489999999927
20
-192.0531890000000033
11
82.1482489999999927
21
-192.6246170000000006
0
LINE
8
BLACK
6
CONTINUOUS
10
82.1482489999999927
20
-192.6246170000000006
11
82.0530109999999979
21
-192.8150929999999903
0
LINE
8
BLACK
6
CONTINUOUS
10
82.0530109999999979
20
-192.8150929999999903
11
81.9577730000000031
21
-192.9103319999999826
0
LINE
8
BLACK
6
CONTINUOUS
10
81.9577730000000031
20
-192.9103319999999826
11
81.7672969999999992
21
-193.0055699999999774
0
LINE
8
BLACK
6
CONTINUOUS
10
81.7672969999999992
20
-193.0055699999999774
11
81.4815820000000031
21
-193.0055699999999774
0
LINE
8
BLACK
6
CONTINUOUS
10
82.7196780000000018
20
-191.6722359999999981
11
83.4815820000000031
21
-191.6722359999999981
0
LINE
8
BLACK
6
CONTINUOUS
10
83.0053920000000005
20
-191.0055699999999774
11
83.0053920000000005
21
-192.7198549999999955
0
LINE
8
BLACK
6
CONTINUOUS
10
83.0053920000000005
20
-192.7198549999999955
11
83.1006299999999953
21
-192.9103319999999826
0
LINE
8
BLACK
6
CONTINUOUS
10
83.1006299999999953
20
-192.9103319999999826
11
83.2911059999999992
21
-193.0055699999999774
0
LINE
8
BLACK
6
CONTINUOUS
10
83.2911059999999992
20
-193.0055699999999774
11
83.4815820000000031
21
-193.0055699999999774
0
LINE
8
BLACK
6
CONTINUOUS
10
85.6720589999999902
20
-191.6722359999999981
11
85.6720589999999902
21
-193.6722359999999981
0
LINE
8
BLACK
6
CONTINUOUS
10
85.6720589999999902
20
-191.7674739999999929
11
85.8625349999999941
21
-191.6722359999999981
0
LINE
8
BLACK
6
CONTINUOUS
10
85.8625349999999941
20
-191.6722359999999981
11
86.2434879999999993
21
-191.6722359999999981
0
LINE
8
BLACK
6
CONTINUOUS
10
86.2434879999999993
20
-191.6722359999999981
11
86.4339640000000031
21
-191.7674739999999929
0
LINE
8
BLACK
6
CONTINUOUS
10
86.4339640000000031
20
-191.7674739999999929
11
86.529201999999998
21
-191.8627119999999877
0
LINE
8
BLACK
6
CONTINUOUS
10
86.529201999999998
20
-191.8627119999999877
11
86.6244399999999928
21
-192.0531890000000033
0
LINE
8
BLACK
6
CONTINUOUS
10
86.6244399999999928
20
-192.0531890000000033
11
86.6244399999999928
21
-192.6246170000000006
0
LINE
8
BLACK
6
CONTINUOUS
10
86.6244399999999928
20
-192.6246170000000006
11
86.529201999999998
21
-192.8150929999999903
0
LINE
8
BLACK
6
CONTINUOUS
10
86.529201999999998
20
-192.8150929999999903
11
86.4339640000000031
21
-192.9103319999999826
0
LINE
8
BLACK
6
CONTINUOUS
10
86.4339640000000031
20
-192.9103319999999826
11
86.2434879999999993
21
-193.0055699999999774
0
LINE
8
BLACK
6
CONTINUOUS
10
86.2434879999999993
20
-193.0055699999999774
11
85.8625349999999941
21
-193.0055699999999774
0
LINE
8
BLACK
6
CONTINUOUS
10
85.8625349999999941
20
-193.0055699999999774
11
85.6720589999999902
21
-192.9103319999999826
0
LINE
8
BLACK
6
CONTINUOUS
10
87.7672969999999992
20
-193.0055699999999774
11
87.5768209999999954
21
-192.9103319999999826
0
LINE
8
BLACK
6
CONTINUOUS
10
87.5768209999999954
20
-192.9103319999999826
11
87.4815830000000005
21
-192.7198549999999955
0
LINE
8
BLACK
6
CONTINUOUS
10
87.4815830000000005
20
-192.7198549999999955
11
87.4815830000000005
21
-191.0055699999999774
0
LINE
8
BLACK
6
CONTINUOUS
10
89.3863449999999915
20
-193.0055699999999774
11
89.3863449999999915
21
-191.95795099999998
0
LINE
8
BLACK
6
CONTINUOUS
10
89.3863449999999915
20
-191.95795099999998
11
89.2911069999999967
21
-191.7674739999999929
0
LINE
8
BLACK
6
CONTINUOUS
10
89.2911069999999967
20
-191.7674739999999929
11
89.1006309999999928
21
-191.6722359999999981
0
LINE
8
BLACK
6
CONTINUOUS
10
89.1006309999999928
20
-191.6722359999999981
11
88.7196780000000018
21
-191.6722359999999981
0
LINE
8
BLACK
6
CONTINUOUS
10
88.7196780000000018
20
-191.6722359999999981
11
88.529201999999998
21
-191.7674739999999929
0
LINE
8
BLACK
6
CONTINUOUS
10
89.3863449999999915
20
-192.9103319999999826
11
89.1958690000000018
21
-193.0055699999999774
0
LINE
8
BLACK
6
CONTINUOUS
10
89.1958690000000018
20
-193.0055699999999774
11
88.7196780000000018
21
-193.0055699999999774
0
LINE
8
BLACK
6
CONTINUOUS
10
88.7196780000000018
20
-193.0055699999999774
11
88.529201999999998
21
-192.9103319999999826
0
LINE
8
BLACK
6
CONTINUOUS
10
88.529201999999998
20
-192.9103319999999826
11
88.4339639999999889
21
-192.7198549999999955
0
LINE
8
BLACK
6
CONTINUOUS
10
88.4339639999999889
20
-192.7198549999999955
11
88.4339639999999889
21
-192.5293789999999774
0
LINE
8
BLACK
6
CONTINUOUS
10
88.4339639999999889
20
-192.5293789999999774
11
88.529201999999998
21
-192.3389029999999877
0
LINE
8
BLACK
6
CONTINUOUS
10
88.529201999999998
20
-192.3389029999999877
11
88.7196780000000018
21
-192.2436649999999929
0
LINE
8
BLACK
6
CONTINUOUS
10
88.7196780000000018
20
-192.2436649999999929
11
89.1958690000000018
21
-192.2436649999999929
0
LINE
8
BLACK
6
CONTINUOUS
10
89.1958690000000018
20
-192.2436649999999929
11
89.3863449999999915
21
-192.1484269999999981
0
LINE
8
BLACK
6
CONTINUOUS
10
90.0530119999999954
20
-191.6722359999999981
11
90.8149159999999966
21
-191.6722359999999981
0
LINE
8
BLACK
6
CONTINUOUS
10
90.3387259999999941
20
-191.0055699999999774
11
90.3387259999999941
21
-192.7198549999999955
0
LINE
8
BLACK
6
CONTINUOUS
10
90.3387259999999941
20
-192.7198549999999955
11
90.4339639999999889
21
-192.9103319999999826
0
LINE
8
BLACK
6
CONTINUOUS
10
90.4339639999999889
20
-192.9103319999999826
11
90.6244399999999928
21
-193.0055699999999774
0
LINE
8
BLACK
6
CONTINUOUS
10
90.6244399999999928
20
-193.0055699999999774
11
90.8149159999999966
21
-193.0055699999999774
0
LINE
8
BLACK
6
CONTINUOUS
10
92.2434879999999993
20
-192.9103319999999826
11
92.0530119999999954
21
-193.0055699999999774
0
LINE
8
BLACK
6
CONTINUOUS
10
92.0530119999999954
20
-193.0055699999999774
11
91.6720589999999902
21
-193.0055699999999774
0
LINE
8
BLACK
6
CONTINUOUS
10
91.6720589999999902
20
-193.0055699999999774
11
91.4815830000000005
21
-192.9103319999999826
0
LINE
8
BLACK
6
CONTINUOUS
10
91.4815830000000005
20
-192.9103319999999826
11
91.3863449999999915
21
-192.7198549999999955
0
LINE
8
BLACK
6
CONTINUOUS
10
91.3863449999999915
20
-192.7198549999999955
11
91.3863449999999915
21
-191.95795099999998
0
LINE
8
BLACK
6
CONTINUOUS
10
91.3863449999999915
20
-191.95795099999998
11
91.4815830000000005
21
-191.7674739999999929
0
LINE
8
BLACK
6
CONTINUOUS
10
91.4815830000000005
20
-191.7674739999999929
11
91.6720589999999902
21
-191.6722359999999981
0
LINE
8
BLACK
6
CONTINUOUS
10
91.6720589999999902
20
-191.6722359999999981
11
92.0530119999999954
21
-191.6722359999999981
0
LINE
8
BLACK
6
CONTINUOUS
10
92.0530119999999954
20
-191.6722359999999981
11
92.2434879999999993
21
-191.7674739999999929
0
LINE
8
BLACK
6
CONTINUOUS
10
92.2434879999999993
20
-191.7674739999999929
11
92.3387259999999941
21
-191.95795099999998
0
LINE
8
BLACK
6
CONTINUOUS
10
92.3387259999999941
20
-191.95795099999998
11
92.3387259999999941
21
-192.1484269999999981
0
LINE
8
BLACK
6
CONTINUOUS
10
92.3387259999999941
20
-192.1484269999999981
11
91.3863449999999915
21
-192.3389029999999877
0
LINE
8
BLACK
6
CONTINUOUS
10
94.0530119999999954
20
-193.0055699999999774
11
94.0530119999999954
21
-191.0055699999999774
0
LINE
8
BLACK
6
CONTINUOUS
10
94.0530119999999954
20
-192.9103319999999826
11
93.8625359999999915
21
-193.0055699999999774
0
LINE
8
BLACK
6
CONTINUOUS
10
93.8625359999999915
20
-193.0055699999999774
11
93.4815830000000005
21
-193.0055699999999774
0
LINE
8
BLACK
6
CONTINUOUS
10
93.4815830000000005
20
-193.0055699999999774
11
93.2911069999999967
21
-192.9103319999999826
0
LINE
8
BLACK
6
CONTINUOUS
10
93.2911069999999967
20
-192.9103319999999826
11
93.1958690000000018
21
-192.8150929999999903
0
LINE
8
BLACK
6
CONTINUOUS
10
93.1958690000000018
20
-192.8150929999999903
11
93.1006309999999928
21
-192.6246170000000006
0
LINE
8
BLACK
6
CONTINUOUS
10
93.1006309999999928
20
-192.6246170000000006
11
93.1006309999999928
21
-192.0531890000000033
0
LINE
8
BLACK
6
CONTINUOUS
10
93.1006309999999928
20
-192.0531890000000033
11
93.1958690000000018
21
-191.8627119999999877
0
LINE
8
BLACK
6
CONTINUOUS
10
93.1958690000000018
20
-191.8627119999999877
11
93.2911069999999967
21
-191.7674739999999929
0
LINE
8
BLACK
6
CONTINUOUS
10
93.2911069999999967
20
-191.7674739999999929
11
93.4815830000000005
21
-191.6722359999999981
0
LINE
8
BLACK
6
CONTINUOUS
10
93.4815830000000005
20
-191.6722359999999981
11
93.8625359999999915
21
-191.6722359999999981
0
LINE
8
BLACK
6
CONTINUOUS
10
93.8625359999999915
20
-191.6722359999999981
11
94.0530119999999954
21
-191.7674739999999929
0
LINE
8
BLACK
6
CONTINUOUS
10
94.8149169999999941
20
-193.7674739999999929
11
94.9101549999999889
21
-193.6722359999999981
0
LINE
8
BLACK
6
CONTINUOUS
10
94.9101549999999889
20
-193.6722359999999981
11
95.1006309999999928
21
-193.3865219999999852
0
LINE
8
BLACK
6
CONTINUOUS
10
95.1006309999999928
20
-193.3865219999999852
11
95.1958690000000018
21
-193.1960459999999955
0
LINE
8
BLACK
6
CONTINUOUS
10
95.1958690000000018
20
-193.1960459999999955
11
95.2911069999999967
21
-192.9103319999999826
0
LINE
8
BLACK
6
CONTINUOUS
10
95.2911069999999967
20
-192.9103319999999826
11
95.3863449999999915
21
-192.4341409999999826
0
LINE
8
BLACK
6
CONTINUOUS
10
95.3863449999999915
20
-192.4341409999999826
11
95.3863449999999915
21
-192.0531890000000033
0
LINE
8
BLACK
6
CONTINUOUS
10
95.3863449999999915
20
-192.0531890000000033
11
95.2911069999999967
21
-191.5769980000000032
0
LINE
8
BLACK
6
CONTINUOUS
10
95.2911069999999967
20
-191.5769980000000032
11
95.1958690000000018
21
-191.2912839999999903
0
LINE
8
BLACK
6
CONTINUOUS
10
95.1958690000000018
20
-191.2912839999999903
11
95.1006309999999928
21
-191.1008080000000007
0
LINE
8
BLACK
6
CONTINUOUS
10
95.1006309999999928
20
-191.1008080000000007
11
94.9101549999999889
21
-190.8150929999999903
0
LINE
8
BLACK
6
CONTINUOUS
10
94.9101549999999889
20
-190.8150929999999903
11
94.8149169999999941
21
-190.7198549999999955
  0
ENDSEC
  0
EOF
