M48
;Layer_Color=9474304
;FILE_FORMAT=2:4
INCH,TZ
;TYPE=PLATED
T2F00S00C0.0098
;TYPE=NON_PLATED
%
G90
G05
T02
G00X8945Y-50
M15
G01X9555
M16
G00X9945Y-50
M15
G01X10555
M16
G00X10945Y-50
M15
G01X11555
M16
G00X12945Y584
M15
G01X13555
M16
G00X7945Y-50
M15
G01X8555
M16
G00X6945Y-50
M15
G01X7555
M16
G00X5945Y-50
M15
G01X6555
M16
G00X4945Y-50
M15
G01X5555
M16
G00X3945Y-50
M15
G01X4555
M16
G00X2945Y-50
M15
G01X3555
M16
G00X2079Y-50
M15
G01X2421
M16
G00X2421Y6050
M15
G01X2079
M16
G00X3555Y6050
M15
G01X2945
M16
G00X4555Y6050
M15
G01X3945
M16
G00X5555Y6050
M15
G01X4945
M16
G00X6555Y6050
M15
G01X5945
M16
G00X7555Y6050
M15
G01X6945
M16
G00X8555Y6050
M15
G01X7945
M16
G00X9555Y6050
M15
G01X8945
M16
G00X10555Y6050
M15
G01X9945
M16
G00X11555Y6050
M15
G01X10945
M16
G00X13555Y5416
M15
G01X12945
M16
M30
