M48
;Layer_Color=9474304
;FILE_FORMAT=2:4
INCH,TZ
;TYPE=PLATED
T1F00S00C0.0098
T3F00S00C0.0354
;TYPE=NON_PLATED
T5F00S00C0.0236
T6F00S00C0.0390
%
T01
X8770Y659
X9249Y703
X9760Y740
X9626Y1199
X9370
X8798Y1348
X8815Y1699
X8456Y1010
X10210Y1140
X10640Y1080
X10740Y1720
X11270Y1720
X11680Y1680
X11848Y1139
X11910Y840
X11447Y919
X11220Y2478
X11221Y2941
X11093Y3226
X11250Y3430
X11230Y3720
X10837Y3453
X10758Y2751
X10382Y2862
X10404Y2197
X10098Y1639
X9744Y3039
X9360Y3049
X9538Y3236
X9567Y3532
X9537Y2852
X9360Y2665
X11630Y2970
X13169Y2872
Y3128
X13780Y3150
Y2850
X14150Y2800
X13386Y2350
X12933Y2252
X13440Y1760
X13350Y3720
X7756Y3571
X7323
X6890
Y3138
X7323
X7756
Y2705
X7323
X6890
X5923Y2942
X5793Y2159
X5733Y1423
X5955Y1199
X5473Y1077
X4978Y1071
X4348Y1139
X4338Y1520
X4385Y1813
X4388Y2110
Y2407
X4390Y2704
X4598Y2639
X4564Y2945
X4856Y2996
X5203Y2733
X4848Y2139
X4882Y1819
X4598Y1639
X4045Y1009
X3810Y824
X3285Y1539
X2989Y1521
X2692
X2399Y1473
X2180Y1570
X2140Y659
X2617Y645
X2700Y200
X3491Y1752
X3506Y2049
Y2346
Y2643
X3539Y2938
X3658Y3241
X3813Y3460
X4037Y3653
X4303Y3785
X4715Y3851
X5020Y3843
X2151Y3733
X2313Y3378
X2140Y2620
X2700Y2800
X7473Y1763
X7773Y1813
X6978Y1012
X6890Y4959
X7086Y5116
X7264Y4782
X7657Y4936
X6673Y4750
X6506Y4959
X6309Y4782
X6221Y5205
X5827Y5200
X5404Y5275
X5138Y4900
X5197Y4270
X4290Y4080
X4180Y4490
X4309Y4914
X4744Y5300
X3335Y5283
X2650Y5760
X2171Y5343
X2144Y4638
X2716Y4367
X2848Y4139
X2726Y3891
X6211Y4368
X9548Y4526
X9873Y4555
X9961Y4319
X10434Y4299
X10493Y4555
X10562Y4936
X9587Y5116
X9545Y4024
X11270Y4225
X11700Y4350
X11600Y4590
X12250Y4930
X13090Y4230
T03
X9250Y0
X10250
X11250
X8250
X7250
X6250
X5250
X4250
X3250
X2250
Y6000
X3250
X4250
X5250
X6250
X7250
X8250
X9250
X10250
X11250
T05
X15748Y673
X16142
X16535
X1417Y39
X1024
X630
Y5961
X1024
X1417
X15748Y5327
X16142
X16535
T06
X12050Y1500
X12850
X12450Y4500
M30
