G04*
G04 #@! TF.GenerationSoftware,Altium Limited,Altium Designer,19.0.15 (446)*
G04*
G04 Layer_Color=8421504*
%FSLAX24Y24*%
%MOIN*%
G70*
G01*
G75*
%ADD16C,0.0005*%
%ADD17R,0.0197X0.0236*%
%ADD18R,0.0300X0.0320*%
%ADD19R,0.0256X0.0197*%
%ADD20R,0.0236X0.0217*%
%ADD21O,0.0256X0.0079*%
%ADD22O,0.0079X0.0256*%
%ADD23R,0.1850X0.1850*%
%ADD24R,0.0157X0.0748*%
%ADD25R,0.0610X0.0236*%
%ADD26R,0.0709X0.0472*%
%ADD27R,0.0472X0.0984*%
%ADD28R,0.0315X0.0295*%
%ADD29C,0.0394*%
G04:AMPARAMS|DCode=30|XSize=31.5mil|YSize=29.5mil|CornerRadius=0mil|HoleSize=0mil|Usage=FLASHONLY|Rotation=40.000|XOffset=0mil|YOffset=0mil|HoleType=Round|Shape=Rectangle|*
%AMROTATEDRECTD30*
4,1,4,-0.0026,-0.0214,-0.0216,0.0012,0.0026,0.0214,0.0216,-0.0012,-0.0026,-0.0214,0.0*
%
%ADD30ROTATEDRECTD30*%

G04:AMPARAMS|DCode=31|XSize=19.7mil|YSize=25.6mil|CornerRadius=0mil|HoleSize=0mil|Usage=FLASHONLY|Rotation=40.000|XOffset=0mil|YOffset=0mil|HoleType=Round|Shape=Rectangle|*
%AMROTATEDRECTD31*
4,1,4,0.0007,-0.0161,-0.0158,0.0035,-0.0007,0.0161,0.0158,-0.0035,0.0007,-0.0161,0.0*
%
%ADD31ROTATEDRECTD31*%

%ADD32R,0.0236X0.0197*%
%ADD33R,0.0374X0.0335*%
%ADD34R,0.0295X0.0315*%
D16*
X25315Y0D02*
Y9094D01*
X0Y0D02*
Y9094D01*
X25315D01*
X0Y0D02*
X25315D01*
D17*
X23079Y5006D02*
D03*
Y4612D02*
D03*
X21981Y4609D02*
D03*
Y5002D02*
D03*
X3609Y5543D02*
D03*
Y5936D02*
D03*
X18449Y7406D02*
D03*
Y7012D02*
D03*
X18829Y7406D02*
D03*
Y7012D02*
D03*
X20989Y7366D02*
D03*
Y6973D02*
D03*
X19249Y6973D02*
D03*
Y7366D02*
D03*
X19589Y6973D02*
D03*
Y7366D02*
D03*
X19519Y5556D02*
D03*
Y5163D02*
D03*
D18*
X11455Y4820D02*
D03*
X12005D02*
D03*
D19*
X22709Y4612D02*
D03*
X22335D02*
D03*
X20266Y5160D02*
D03*
X19892D02*
D03*
D20*
X12583Y4820D02*
D03*
X12977D02*
D03*
D21*
X16678Y6226D02*
D03*
Y6068D02*
D03*
Y5911D02*
D03*
Y5753D02*
D03*
Y5596D02*
D03*
Y5438D02*
D03*
Y5281D02*
D03*
Y5123D02*
D03*
Y4966D02*
D03*
Y4808D02*
D03*
Y4651D02*
D03*
Y4493D02*
D03*
X19060D02*
D03*
Y4651D02*
D03*
Y4808D02*
D03*
Y4966D02*
D03*
Y5123D02*
D03*
Y5281D02*
D03*
Y5438D02*
D03*
Y5596D02*
D03*
Y5753D02*
D03*
Y5911D02*
D03*
Y6068D02*
D03*
Y6226D02*
D03*
D22*
X17003Y4169D02*
D03*
X17160D02*
D03*
X17318D02*
D03*
X17475D02*
D03*
X17633D02*
D03*
X17790D02*
D03*
X17948D02*
D03*
X18105D02*
D03*
X18263D02*
D03*
X18420D02*
D03*
X18578D02*
D03*
X18735D02*
D03*
Y6551D02*
D03*
X18578D02*
D03*
X18420D02*
D03*
X18263D02*
D03*
X18105D02*
D03*
X17948D02*
D03*
X17790D02*
D03*
X17633D02*
D03*
X17475D02*
D03*
X17318D02*
D03*
X17160D02*
D03*
X17003D02*
D03*
D23*
X17869Y5360D02*
D03*
D24*
X5551Y5402D02*
D03*
X5866D02*
D03*
X5393Y8630D02*
D03*
X5708D02*
D03*
X6023D02*
D03*
X6181Y5402D02*
D03*
X6338Y8630D02*
D03*
X6496Y5402D02*
D03*
X7126D02*
D03*
X6968Y8630D02*
D03*
X7441Y5402D02*
D03*
X7283Y8630D02*
D03*
X7756Y5402D02*
D03*
X7598Y8630D02*
D03*
X8071Y5402D02*
D03*
X7913Y8630D02*
D03*
X8386Y5402D02*
D03*
X8228Y8630D02*
D03*
X6811Y5402D02*
D03*
X6653Y8630D02*
D03*
D25*
X2279Y5936D02*
D03*
Y5543D02*
D03*
D26*
X753Y6566D02*
D03*
Y4913D02*
D03*
D27*
X11501Y7277D02*
D03*
X12486D02*
D03*
X10517D02*
D03*
D28*
X3993Y5897D02*
D03*
Y5365D02*
D03*
X17049Y7577D02*
D03*
Y7046D02*
D03*
D29*
X670Y4010D02*
D03*
X21610Y8400D02*
D03*
D30*
X17030Y8268D02*
D03*
X16688Y8675D02*
D03*
D31*
X16709Y7988D02*
D03*
X16469Y8275D02*
D03*
D32*
X15966Y6100D02*
D03*
X15572D02*
D03*
X16946Y3750D02*
D03*
X16552D02*
D03*
X19752Y6390D02*
D03*
X20146D02*
D03*
X20146Y6040D02*
D03*
X19752D02*
D03*
D33*
X20003Y6943D02*
D03*
Y7396D02*
D03*
X20574D02*
D03*
Y6943D02*
D03*
D34*
X15503Y6510D02*
D03*
X16035D02*
D03*
M02*
