G04*
G04 #@! TF.GenerationSoftware,Altium Limited,Altium Designer,19.0.15 (446)*
G04*
G04 Layer_Color=8388736*
%FSLAX24Y24*%
%MOIN*%
G70*
G01*
G75*
%ADD16C,0.0005*%
%ADD35C,0.0356*%
%ADD36R,0.0277X0.0316*%
%ADD37R,0.0434X0.2442*%
%ADD38R,0.0380X0.0400*%
%ADD39R,0.0336X0.0277*%
%ADD40R,0.0316X0.0297*%
%ADD41O,0.0295X0.0118*%
%ADD42O,0.0118X0.0295*%
%ADD43R,0.1930X0.1930*%
%ADD44R,0.0217X0.0807*%
%ADD45R,0.0690X0.0316*%
%ADD46R,0.0789X0.0552*%
%ADD47R,0.0552X0.1064*%
%ADD48R,0.0395X0.0375*%
%ADD49C,0.0787*%
G04:AMPARAMS|DCode=50|XSize=39.5mil|YSize=37.5mil|CornerRadius=0mil|HoleSize=0mil|Usage=FLASHONLY|Rotation=40.000|XOffset=0mil|YOffset=0mil|HoleType=Round|Shape=Rectangle|*
%AMROTATEDRECTD50*
4,1,4,-0.0031,-0.0271,-0.0272,0.0017,0.0031,0.0271,0.0272,-0.0017,-0.0031,-0.0271,0.0*
%
%ADD50ROTATEDRECTD50*%

G04:AMPARAMS|DCode=51|XSize=27.7mil|YSize=33.6mil|CornerRadius=0mil|HoleSize=0mil|Usage=FLASHONLY|Rotation=40.000|XOffset=0mil|YOffset=0mil|HoleType=Round|Shape=Rectangle|*
%AMROTATEDRECTD51*
4,1,4,0.0002,-0.0218,-0.0214,0.0040,-0.0002,0.0218,0.0214,-0.0040,0.0002,-0.0218,0.0*
%
%ADD51ROTATEDRECTD51*%

%ADD52R,0.0316X0.0277*%
%ADD53R,0.0454X0.0415*%
%ADD54R,0.0375X0.0395*%
%ADD55C,0.0610*%
%ADD56C,0.0434*%
%ADD57R,0.0680X0.0680*%
%ADD58C,0.0680*%
D16*
X25315Y0D02*
Y9094D01*
X0Y0D02*
Y9094D01*
X25315D01*
X0Y0D02*
X25315D01*
D35*
X2959Y5936D02*
D03*
Y5326D02*
D03*
X12488Y6412D02*
D03*
X9688Y7012D02*
D03*
D36*
X23079Y5006D02*
D03*
Y4612D02*
D03*
X21981Y4609D02*
D03*
Y5002D02*
D03*
X3609Y5543D02*
D03*
Y5936D02*
D03*
X18449Y7406D02*
D03*
Y7012D02*
D03*
X18829Y7406D02*
D03*
Y7012D02*
D03*
X20989Y7366D02*
D03*
Y6973D02*
D03*
X19249Y6973D02*
D03*
Y7366D02*
D03*
X19589Y6973D02*
D03*
Y7366D02*
D03*
X19519Y5556D02*
D03*
Y5163D02*
D03*
D37*
X636Y1969D02*
D03*
X1345D02*
D03*
X2053D02*
D03*
X5912D02*
D03*
X6620D02*
D03*
X7329D02*
D03*
X8038D02*
D03*
X8746D02*
D03*
X9455D02*
D03*
X10164D02*
D03*
X10872D02*
D03*
X11581D02*
D03*
X12290D02*
D03*
X12998D02*
D03*
X13707D02*
D03*
X14416D02*
D03*
X15124D02*
D03*
X15833D02*
D03*
X16542D02*
D03*
X17250D02*
D03*
X17959D02*
D03*
X18668D02*
D03*
X22547D02*
D03*
X23256D02*
D03*
X23964D02*
D03*
X24673D02*
D03*
D38*
X11455Y4820D02*
D03*
X12005D02*
D03*
D39*
X22709Y4612D02*
D03*
X22335D02*
D03*
X20266Y5160D02*
D03*
X19892D02*
D03*
D40*
X12583Y4820D02*
D03*
X12977D02*
D03*
D41*
X16678Y6226D02*
D03*
Y6068D02*
D03*
Y5911D02*
D03*
Y5753D02*
D03*
Y5596D02*
D03*
Y5438D02*
D03*
Y5281D02*
D03*
Y5123D02*
D03*
Y4966D02*
D03*
Y4808D02*
D03*
Y4651D02*
D03*
Y4493D02*
D03*
X19060D02*
D03*
Y4651D02*
D03*
Y4808D02*
D03*
Y4966D02*
D03*
Y5123D02*
D03*
Y5281D02*
D03*
Y5438D02*
D03*
Y5596D02*
D03*
Y5753D02*
D03*
Y5911D02*
D03*
Y6068D02*
D03*
Y6226D02*
D03*
D42*
X17003Y4169D02*
D03*
X17160D02*
D03*
X17318D02*
D03*
X17475D02*
D03*
X17633D02*
D03*
X17790D02*
D03*
X17948D02*
D03*
X18105D02*
D03*
X18263D02*
D03*
X18420D02*
D03*
X18578D02*
D03*
X18735D02*
D03*
Y6551D02*
D03*
X18578D02*
D03*
X18420D02*
D03*
X18263D02*
D03*
X18105D02*
D03*
X17948D02*
D03*
X17790D02*
D03*
X17633D02*
D03*
X17475D02*
D03*
X17318D02*
D03*
X17160D02*
D03*
X17003D02*
D03*
D43*
X17869Y5360D02*
D03*
D44*
X5551Y5402D02*
D03*
X5866D02*
D03*
X5393Y8630D02*
D03*
X5708D02*
D03*
X6023D02*
D03*
X6181Y5402D02*
D03*
X6338Y8630D02*
D03*
X6496Y5402D02*
D03*
X7126D02*
D03*
X6968Y8630D02*
D03*
X7441Y5402D02*
D03*
X7283Y8630D02*
D03*
X7756Y5402D02*
D03*
X7598Y8630D02*
D03*
X8071Y5402D02*
D03*
X7913Y8630D02*
D03*
X8386Y5402D02*
D03*
X8228Y8630D02*
D03*
X6811Y5402D02*
D03*
X6653Y8630D02*
D03*
D45*
X2279Y5936D02*
D03*
Y5543D02*
D03*
D46*
X753Y6566D02*
D03*
Y4913D02*
D03*
D47*
X11501Y7277D02*
D03*
X12486D02*
D03*
X10517D02*
D03*
D48*
X3993Y5897D02*
D03*
Y5365D02*
D03*
X17049Y7577D02*
D03*
Y7046D02*
D03*
D49*
X670Y4010D02*
D03*
X21610Y8400D02*
D03*
D50*
X17030Y8268D02*
D03*
X16688Y8675D02*
D03*
D51*
X16709Y7988D02*
D03*
X16469Y8275D02*
D03*
D52*
X15966Y6100D02*
D03*
X15572D02*
D03*
X16946Y3750D02*
D03*
X16552D02*
D03*
X19752Y6390D02*
D03*
X20146D02*
D03*
X20146Y6040D02*
D03*
X19752D02*
D03*
D53*
X20003Y6943D02*
D03*
Y7396D02*
D03*
X20574D02*
D03*
Y6943D02*
D03*
D54*
X15503Y6510D02*
D03*
X16035D02*
D03*
D55*
X8779Y7016D02*
D03*
X5000D02*
D03*
D56*
X10163Y8360D02*
D03*
X12840D02*
D03*
D57*
X3964Y1970D02*
D03*
X20619D02*
D03*
D58*
X22782Y7913D02*
D03*
M02*
