G04*
G04 #@! TF.GenerationSoftware,Altium Limited,Altium Designer,19.0.15 (446)*
G04*
G04 Layer_Physical_Order=2*
G04 Layer_Color=16711680*
%FSLAX24Y24*%
%MOIN*%
G70*
G01*
G75*
%ADD12C,0.0060*%
%ADD16C,0.0005*%
%ADD29C,0.0394*%
%ADD55C,0.0610*%
%ADD67C,0.0150*%
%ADD70C,0.0354*%
%ADD71R,0.0600X0.0600*%
%ADD72C,0.0600*%
%ADD73C,0.0240*%
%ADD74C,0.0260*%
%ADD75C,0.0058*%
G36*
X23269Y8361D02*
X23219Y8342D01*
X23215Y8346D01*
X23179Y8379D01*
X23142Y8409D01*
X23102Y8435D01*
X23060Y8459D01*
X23016Y8479D01*
X22971Y8496D01*
X22925Y8509D01*
X22878Y8518D01*
X22830Y8524D01*
X22782Y8526D01*
X22734Y8524D01*
X22686Y8518D01*
X22639Y8509D01*
X22593Y8496D01*
X22547Y8479D01*
X22504Y8459D01*
X22462Y8435D01*
X22422Y8409D01*
X22384Y8379D01*
X22349Y8346D01*
X22316Y8311D01*
X22286Y8273D01*
X22260Y8233D01*
X22236Y8191D01*
X22216Y8148D01*
X22199Y8103D01*
X22186Y8056D01*
X22177Y8009D01*
X22171Y7961D01*
X22169Y7913D01*
X22171Y7865D01*
X22177Y7818D01*
X22186Y7770D01*
X22199Y7724D01*
X22216Y7679D01*
X22236Y7635D01*
X22260Y7593D01*
X22286Y7553D01*
X22316Y7516D01*
X22349Y7480D01*
X22384Y7448D01*
X22422Y7418D01*
X22462Y7391D01*
X22504Y7368D01*
X22547Y7348D01*
X22593Y7331D01*
X22639Y7318D01*
X22686Y7309D01*
X22734Y7303D01*
X22782Y7301D01*
X22830Y7303D01*
X22878Y7309D01*
X22925Y7318D01*
X22971Y7331D01*
X23016Y7348D01*
X23060Y7368D01*
X23102Y7391D01*
X23142Y7418D01*
X23179Y7448D01*
X23215Y7480D01*
X23219Y7485D01*
X23269Y7466D01*
Y3419D01*
X23202D01*
X23094Y3527D01*
X23079Y3540D01*
X23061Y3551D01*
X23042Y3559D01*
X23022Y3564D01*
X23002Y3565D01*
X20615D01*
X20022Y4158D01*
X20007Y4171D01*
X19989Y4182D01*
X19970Y4190D01*
X19950Y4195D01*
X19930Y4196D01*
X16977D01*
X16941Y4237D01*
X16938Y4246D01*
X16940Y4269D01*
X16938Y4298D01*
X16932Y4326D01*
X16923Y4353D01*
X16910Y4379D01*
X16895Y4403D01*
Y4977D01*
X16893Y5000D01*
X16889Y5023D01*
X16881Y5044D01*
X16871Y5065D01*
X16859Y5084D01*
X16843Y5101D01*
X15946Y5999D01*
X15946Y6491D01*
X18957D01*
X18980Y6493D01*
X19002Y6497D01*
X19024Y6505D01*
X19045Y6515D01*
X19064Y6527D01*
X19067Y6530D01*
X19068Y6530D01*
X19097Y6536D01*
X19124Y6545D01*
X19150Y6558D01*
X19174Y6574D01*
X19195Y6593D01*
X19214Y6615D01*
X19230Y6639D01*
X19243Y6665D01*
X19252Y6692D01*
X19258Y6720D01*
X19260Y6749D01*
X19258Y6778D01*
X19252Y6806D01*
X19243Y6833D01*
X19230Y6859D01*
X19214Y6883D01*
X19195Y6905D01*
X19174Y6924D01*
X19150Y6940D01*
X19124Y6953D01*
X19097Y6962D01*
X19068Y6968D01*
X19039Y6970D01*
X19011Y6968D01*
X18982Y6962D01*
X18955Y6953D01*
X18929Y6940D01*
X18905Y6924D01*
X18884Y6905D01*
X18865Y6883D01*
X18849Y6859D01*
X18840Y6842D01*
X15988D01*
X15983Y6864D01*
X15974Y6892D01*
X15961Y6917D01*
X15945Y6941D01*
X15926Y6963D01*
X15905Y6982D01*
X15881Y6998D01*
X15855Y7011D01*
X15828Y7020D01*
X15799Y7026D01*
X15770Y7028D01*
X15742Y7026D01*
X15713Y7020D01*
X15686Y7011D01*
X15660Y6998D01*
X15636Y6982D01*
X15615Y6963D01*
X15596Y6941D01*
X15580Y6917D01*
X15567Y6892D01*
X15558Y6864D01*
X15552Y6836D01*
X15550Y6807D01*
X15552Y6778D01*
X15558Y6750D01*
X15567Y6723D01*
X15580Y6697D01*
X15595Y6674D01*
Y6411D01*
X15549Y6392D01*
X15272Y6669D01*
Y6868D01*
X15509Y7105D01*
X17483D01*
X17486Y7102D01*
X17505Y7080D01*
X17526Y7061D01*
X17550Y7045D01*
X17576Y7032D01*
X17604Y7023D01*
X17632Y7017D01*
X17661Y7015D01*
X17689Y7017D01*
X17718Y7023D01*
X17745Y7032D01*
X17771Y7045D01*
X17795Y7061D01*
X17817Y7080D01*
X17836Y7102D01*
X17852Y7126D01*
X17864Y7151D01*
X17874Y7179D01*
X17879Y7207D01*
X17881Y7236D01*
X17879Y7265D01*
X17874Y7293D01*
X17864Y7320D01*
X17852Y7346D01*
X17836Y7370D01*
X17826Y7381D01*
X17836Y7392D01*
X17852Y7416D01*
X17864Y7441D01*
X17874Y7469D01*
X17879Y7497D01*
X17881Y7526D01*
X17879Y7555D01*
X17874Y7583D01*
X17864Y7610D01*
X17852Y7636D01*
X17836Y7660D01*
X17826Y7671D01*
X17836Y7682D01*
X17852Y7706D01*
X17864Y7731D01*
X17874Y7759D01*
X17879Y7787D01*
X17880Y7796D01*
X17899Y7797D01*
X17928Y7803D01*
X17955Y7812D01*
X17981Y7825D01*
X18005Y7841D01*
X18027Y7860D01*
X18046Y7882D01*
X18062Y7906D01*
X18074Y7931D01*
X18084Y7959D01*
X18089Y7987D01*
X18091Y8016D01*
X18089Y8045D01*
X18084Y8073D01*
X18074Y8100D01*
X18062Y8126D01*
X18046Y8150D01*
X18027Y8172D01*
X18011Y8185D01*
X18007Y8216D01*
X18011Y8247D01*
X18027Y8260D01*
X18046Y8282D01*
X18062Y8306D01*
X18074Y8331D01*
X18084Y8359D01*
X18089Y8387D01*
X18091Y8416D01*
X18089Y8445D01*
X18084Y8473D01*
X18074Y8500D01*
X18062Y8526D01*
X18046Y8550D01*
X18027Y8572D01*
X18005Y8591D01*
X17981Y8607D01*
X17955Y8620D01*
X17928Y8629D01*
X17899Y8634D01*
X17880Y8636D01*
X17879Y8645D01*
X17874Y8673D01*
X17864Y8700D01*
X17852Y8726D01*
X17836Y8750D01*
X17817Y8772D01*
X17795Y8791D01*
X17771Y8807D01*
X17745Y8820D01*
X17718Y8829D01*
X17689Y8834D01*
X17661Y8836D01*
X17632Y8834D01*
X17604Y8829D01*
X17576Y8820D01*
X17550Y8807D01*
X17526Y8791D01*
X17505Y8772D01*
X17486Y8750D01*
X17470Y8726D01*
X17457Y8700D01*
X17448Y8673D01*
X17442Y8645D01*
X17441Y8623D01*
X16844Y8026D01*
X15176D01*
X15155Y8025D01*
X15135Y8020D01*
X15116Y8012D01*
X15099Y8001D01*
X15083Y7988D01*
X13804Y6709D01*
X10254D01*
X8972Y7991D01*
X8957Y8004D01*
X8939Y8015D01*
X8920Y8023D01*
X8900Y8027D01*
X8880Y8029D01*
X6909Y8029D01*
X6871Y8067D01*
X6872Y8071D01*
X6874Y8100D01*
X6872Y8129D01*
X6866Y8157D01*
X6857Y8184D01*
X6844Y8210D01*
X6828Y8234D01*
X6809Y8256D01*
X6787Y8275D01*
X6763Y8291D01*
X6738Y8304D01*
X6710Y8313D01*
X6682Y8319D01*
X6653Y8321D01*
X6624Y8319D01*
X6596Y8313D01*
X6569Y8304D01*
X6543Y8291D01*
X6519Y8275D01*
X6495Y8257D01*
X6472Y8275D01*
X6448Y8291D01*
X6422Y8304D01*
X6395Y8313D01*
X6366Y8319D01*
X6338Y8321D01*
X6309Y8319D01*
X6280Y8313D01*
X6253Y8304D01*
X6227Y8291D01*
X6203Y8275D01*
X6182Y8256D01*
X6179D01*
X6158Y8275D01*
X6134Y8291D01*
X6108Y8304D01*
X6080Y8313D01*
X6052Y8319D01*
X6023Y8321D01*
X5995Y8319D01*
X5966Y8313D01*
X5939Y8304D01*
X5913Y8291D01*
X5889Y8275D01*
X5866Y8257D01*
X5843Y8275D01*
X5819Y8291D01*
X5793Y8304D01*
X5765Y8313D01*
X5737Y8319D01*
X5708Y8321D01*
X5680Y8319D01*
X5651Y8313D01*
X5624Y8304D01*
X5598Y8291D01*
X5574Y8275D01*
X5552Y8256D01*
X5533Y8234D01*
X5517Y8210D01*
X5505Y8184D01*
X5495Y8157D01*
X5490Y8129D01*
X5488Y8100D01*
X5490Y8071D01*
X5495Y8043D01*
X5505Y8016D01*
X5517Y7990D01*
X5533Y7966D01*
X5552Y7944D01*
X5574Y7925D01*
X5598Y7909D01*
X5624Y7896D01*
X5651Y7887D01*
X5678Y7882D01*
Y5312D01*
X5680Y5291D01*
X5684Y5271D01*
X5692Y5253D01*
X5703Y5235D01*
X5716Y5220D01*
X7366Y3570D01*
X7382Y3556D01*
X7399Y3546D01*
X7418Y3538D01*
X7438Y3533D01*
X7458Y3531D01*
X15958Y3531D01*
X15978Y3533D01*
X15998Y3538D01*
X16017Y3546D01*
X16035Y3556D01*
X16050Y3570D01*
X16196Y3715D01*
X18904D01*
X18915Y3707D01*
X18938Y3665D01*
X18935Y3657D01*
X18929Y3628D01*
X18928Y3609D01*
X18919Y3608D01*
X18891Y3603D01*
X18863Y3593D01*
X18837Y3581D01*
X18814Y3565D01*
X18803Y3555D01*
X18792Y3565D01*
X18768Y3581D01*
X18742Y3593D01*
X18715Y3603D01*
X18687Y3608D01*
X18658Y3610D01*
X18629Y3608D01*
X18601Y3603D01*
X18573Y3593D01*
X18547Y3581D01*
X18524Y3565D01*
X18513Y3555D01*
X18502Y3565D01*
X18478Y3581D01*
X18452Y3593D01*
X18425Y3603D01*
X18397Y3608D01*
X18368Y3610D01*
X18339Y3608D01*
X18311Y3603D01*
X18283Y3593D01*
X18257Y3581D01*
X18234Y3565D01*
X18223Y3555D01*
X18212Y3565D01*
X18188Y3581D01*
X18162Y3593D01*
X18135Y3603D01*
X18107Y3608D01*
X18078Y3610D01*
X18049Y3608D01*
X18021Y3603D01*
X17993Y3593D01*
X17967Y3581D01*
X17944Y3565D01*
X17933Y3555D01*
X17922Y3565D01*
X17898Y3581D01*
X17872Y3593D01*
X17845Y3603D01*
X17817Y3608D01*
X17788Y3610D01*
X17759Y3608D01*
X17731Y3603D01*
X17703Y3593D01*
X17677Y3581D01*
X17654Y3565D01*
X17643Y3555D01*
X17632Y3565D01*
X17608Y3581D01*
X17582Y3593D01*
X17555Y3603D01*
X17527Y3608D01*
X17498Y3610D01*
X17469Y3608D01*
X17441Y3603D01*
X17413Y3593D01*
X17387Y3581D01*
X17364Y3565D01*
X17353Y3555D01*
X17342Y3565D01*
X17318Y3581D01*
X17292Y3593D01*
X17265Y3603D01*
X17237Y3608D01*
X17208Y3610D01*
X17179Y3608D01*
X17151Y3603D01*
X17123Y3593D01*
X17097Y3581D01*
X17074Y3565D01*
X17052Y3546D01*
X17033Y3524D01*
X17017Y3500D01*
X17004Y3474D01*
X16995Y3447D01*
X16989Y3418D01*
X16987Y3390D01*
X16989Y3361D01*
X16995Y3333D01*
X17004Y3305D01*
X17017Y3279D01*
X17033Y3255D01*
X17052Y3234D01*
X17074Y3215D01*
X17077Y3212D01*
Y2374D01*
X16532Y1829D01*
X13340D01*
X13319Y1827D01*
X13299Y1823D01*
X13280Y1815D01*
X13263Y1804D01*
X13247Y1791D01*
X12323Y866D01*
X12318Y867D01*
X12290Y869D01*
X12261Y867D01*
X12233Y861D01*
X12205Y852D01*
X12179Y839D01*
X12155Y823D01*
X12134Y804D01*
X12115Y783D01*
X12099Y759D01*
X12086Y733D01*
X12077Y706D01*
X12071Y677D01*
X12069Y649D01*
X12071Y620D01*
X12077Y591D01*
X12086Y564D01*
X12099Y538D01*
X12115Y514D01*
X12134Y493D01*
X12155Y474D01*
X12179Y458D01*
X12205Y445D01*
X12233Y436D01*
X12261Y430D01*
X12290Y428D01*
X12318Y430D01*
X12347Y436D01*
X12374Y445D01*
X12400Y458D01*
X12424Y474D01*
X12446Y493D01*
X12465Y514D01*
X12481Y538D01*
X12493Y564D01*
X12503Y591D01*
X12508Y620D01*
X12510Y649D01*
X12508Y677D01*
X12507Y682D01*
X13394Y1568D01*
X13668D01*
X13687Y1522D01*
X13032Y866D01*
X13027Y867D01*
X12998Y869D01*
X12969Y867D01*
X12941Y861D01*
X12914Y852D01*
X12888Y839D01*
X12864Y823D01*
X12842Y804D01*
X12823Y783D01*
X12807Y759D01*
X12795Y733D01*
X12785Y706D01*
X12780Y677D01*
X12778Y649D01*
X12780Y620D01*
X12785Y591D01*
X12795Y564D01*
X12807Y538D01*
X12823Y514D01*
X12842Y493D01*
X12864Y474D01*
X12888Y458D01*
X12914Y445D01*
X12941Y436D01*
X12969Y430D01*
X12998Y428D01*
X13027Y430D01*
X13055Y436D01*
X13083Y445D01*
X13109Y458D01*
X13132Y474D01*
X13154Y493D01*
X13173Y514D01*
X13189Y538D01*
X13202Y564D01*
X13211Y591D01*
X13217Y620D01*
X13219Y649D01*
X13217Y677D01*
X13216Y682D01*
X13992Y1458D01*
X14267D01*
X14286Y1412D01*
X13740Y866D01*
X13736Y867D01*
X13707Y869D01*
X13678Y867D01*
X13650Y861D01*
X13623Y852D01*
X13597Y839D01*
X13573Y823D01*
X13551Y804D01*
X13532Y783D01*
X13516Y759D01*
X13503Y733D01*
X13494Y706D01*
X13488Y677D01*
X13486Y649D01*
X13488Y620D01*
X13494Y591D01*
X13503Y564D01*
X13516Y538D01*
X13532Y514D01*
X13551Y493D01*
X13573Y474D01*
X13597Y458D01*
X13623Y445D01*
X13650Y436D01*
X13678Y430D01*
X13707Y428D01*
X13736Y430D01*
X13764Y436D01*
X13791Y445D01*
X13817Y458D01*
X13841Y474D01*
X13863Y493D01*
X13882Y514D01*
X13898Y538D01*
X13911Y564D01*
X13920Y591D01*
X13926Y620D01*
X13927Y649D01*
X13926Y677D01*
X13925Y682D01*
X14591Y1348D01*
X14855D01*
X14875Y1302D01*
X14449Y876D01*
X14444Y877D01*
X14416Y879D01*
X14387Y877D01*
X14359Y871D01*
X14331Y862D01*
X14305Y849D01*
X14281Y833D01*
X14260Y814D01*
X14241Y793D01*
X14225Y769D01*
X14212Y743D01*
X14203Y716D01*
X14197Y687D01*
X14195Y658D01*
X14197Y630D01*
X14203Y601D01*
X14212Y574D01*
X14225Y548D01*
X14241Y524D01*
X14260Y503D01*
X14281Y484D01*
X14305Y468D01*
X14331Y455D01*
X14359Y446D01*
X14387Y440D01*
X14416Y438D01*
X14444Y440D01*
X14473Y446D01*
X14500Y455D01*
X14526Y468D01*
X14550Y484D01*
X14571Y503D01*
X14591Y524D01*
X14607Y548D01*
X14619Y574D01*
X14629Y601D01*
X14634Y630D01*
X14636Y658D01*
X14634Y687D01*
X14633Y692D01*
X15180Y1238D01*
X15464D01*
X15483Y1192D01*
X15158Y866D01*
X15153Y867D01*
X15124Y869D01*
X15095Y867D01*
X15067Y861D01*
X15040Y852D01*
X15014Y839D01*
X14990Y823D01*
X14968Y804D01*
X14949Y783D01*
X14933Y759D01*
X14921Y733D01*
X14911Y706D01*
X14906Y677D01*
X14904Y649D01*
X14906Y620D01*
X14911Y591D01*
X14921Y564D01*
X14933Y538D01*
X14949Y514D01*
X14968Y493D01*
X14990Y474D01*
X15014Y458D01*
X15040Y445D01*
X15067Y436D01*
X15095Y430D01*
X15124Y428D01*
X15153Y430D01*
X15181Y436D01*
X15209Y445D01*
X15235Y458D01*
X15258Y474D01*
X15280Y493D01*
X15299Y514D01*
X15315Y538D01*
X15328Y564D01*
X15337Y591D01*
X15343Y620D01*
X15345Y649D01*
X15343Y677D01*
X15342Y682D01*
X15788Y1128D01*
X16063D01*
X16082Y1082D01*
X15866Y866D01*
X15862Y867D01*
X15833Y869D01*
X15804Y867D01*
X15776Y861D01*
X15749Y852D01*
X15723Y839D01*
X15699Y823D01*
X15677Y804D01*
X15658Y783D01*
X15642Y759D01*
X15629Y733D01*
X15620Y706D01*
X15614Y677D01*
X15612Y649D01*
X15614Y620D01*
X15620Y591D01*
X15629Y564D01*
X15642Y538D01*
X15658Y514D01*
X15677Y493D01*
X15699Y474D01*
X15723Y458D01*
X15749Y445D01*
X15776Y436D01*
X15804Y430D01*
X15833Y428D01*
X15862Y430D01*
X15890Y436D01*
X15917Y445D01*
X15943Y458D01*
X15967Y474D01*
X15989Y493D01*
X16008Y514D01*
X16024Y538D01*
X16037Y564D01*
X16046Y591D01*
X16052Y620D01*
X16053Y649D01*
X16052Y677D01*
X16051Y682D01*
X16387Y1018D01*
X16661D01*
X16681Y972D01*
X16575Y866D01*
X16570Y867D01*
X16542Y869D01*
X16513Y867D01*
X16485Y861D01*
X16457Y852D01*
X16431Y839D01*
X16407Y823D01*
X16386Y804D01*
X16367Y783D01*
X16351Y759D01*
X16338Y733D01*
X16329Y706D01*
X16323Y677D01*
X16321Y649D01*
X16323Y620D01*
X16329Y591D01*
X16338Y564D01*
X16351Y538D01*
X16367Y514D01*
X16386Y493D01*
X16407Y474D01*
X16431Y458D01*
X16457Y445D01*
X16485Y436D01*
X16513Y430D01*
X16542Y428D01*
X16570Y430D01*
X16599Y436D01*
X16626Y445D01*
X16652Y458D01*
X16676Y474D01*
X16697Y493D01*
X16717Y514D01*
X16733Y538D01*
X16745Y564D01*
X16755Y591D01*
X16760Y620D01*
X16762Y649D01*
X16760Y677D01*
X16759Y682D01*
X17075Y997D01*
X17121Y978D01*
Y827D01*
X17116Y823D01*
X17094Y804D01*
X17075Y783D01*
X17059Y759D01*
X17047Y733D01*
X17037Y706D01*
X17032Y677D01*
X17030Y649D01*
X17032Y620D01*
X17037Y591D01*
X17047Y564D01*
X17059Y538D01*
X17075Y514D01*
X17094Y493D01*
X17116Y474D01*
X17140Y458D01*
X17166Y445D01*
X17193Y436D01*
X17221Y430D01*
X17250Y428D01*
X17279Y430D01*
X17307Y436D01*
X17335Y445D01*
X17360Y458D01*
X17384Y474D01*
X17406Y493D01*
X17425Y514D01*
X17441Y538D01*
X17454Y564D01*
X17463Y591D01*
X17469Y620D01*
X17471Y649D01*
X17469Y677D01*
X17463Y706D01*
X17454Y733D01*
X17441Y759D01*
X17425Y783D01*
X17406Y804D01*
X17384Y823D01*
X17380Y827D01*
Y1199D01*
X17782Y1602D01*
X17829Y1583D01*
Y826D01*
X17825Y823D01*
X17803Y804D01*
X17784Y783D01*
X17768Y759D01*
X17755Y733D01*
X17746Y706D01*
X17740Y677D01*
X17738Y649D01*
X17740Y620D01*
X17746Y591D01*
X17755Y564D01*
X17768Y538D01*
X17784Y514D01*
X17803Y493D01*
X17825Y474D01*
X17849Y458D01*
X17875Y445D01*
X17902Y436D01*
X17930Y430D01*
X17959Y428D01*
X17988Y430D01*
X18016Y436D01*
X18043Y445D01*
X18069Y458D01*
X18093Y474D01*
X18115Y493D01*
X18134Y514D01*
X18150Y538D01*
X18163Y564D01*
X18172Y591D01*
X18177Y620D01*
X18179Y649D01*
X18177Y677D01*
X18172Y706D01*
X18163Y733D01*
X18150Y759D01*
X18134Y783D01*
X18115Y804D01*
X18093Y823D01*
X18089Y826D01*
Y1747D01*
X18491Y2149D01*
X18537Y2130D01*
Y826D01*
X18533Y823D01*
X18512Y804D01*
X18493Y783D01*
X18477Y759D01*
X18464Y733D01*
X18455Y706D01*
X18449Y677D01*
X18447Y649D01*
X18449Y620D01*
X18455Y591D01*
X18464Y564D01*
X18477Y538D01*
X18493Y514D01*
X18512Y493D01*
X18533Y474D01*
X18557Y458D01*
X18583Y445D01*
X18611Y436D01*
X18639Y430D01*
X18668Y428D01*
X18696Y430D01*
X18725Y436D01*
X18752Y445D01*
X18778Y458D01*
X18802Y474D01*
X18823Y493D01*
X18842Y514D01*
X18858Y538D01*
X18871Y564D01*
X18881Y591D01*
X18886Y620D01*
X18888Y649D01*
X18886Y677D01*
X18881Y706D01*
X18871Y733D01*
X18858Y759D01*
X18842Y783D01*
X18823Y804D01*
X18802Y823D01*
X18798Y826D01*
Y2295D01*
X19262Y2760D01*
X19302Y2728D01*
X19272Y2679D01*
X19236Y2614D01*
X19204Y2547D01*
X19176Y2478D01*
X19151Y2408D01*
X19130Y2337D01*
X19112Y2265D01*
X19099Y2192D01*
X19089Y2118D01*
X19083Y2044D01*
X19081Y1970D01*
X19083Y1895D01*
X19089Y1821D01*
X19099Y1748D01*
X19112Y1674D01*
X19130Y1602D01*
X19151Y1531D01*
X19176Y1461D01*
X19204Y1392D01*
X19236Y1325D01*
X19272Y1260D01*
X19310Y1197D01*
X19353Y1135D01*
X19398Y1076D01*
X19446Y1020D01*
X19497Y966D01*
X19551Y915D01*
X19608Y867D01*
X19667Y821D01*
X19728Y779D01*
X19791Y740D01*
X19856Y705D01*
X19923Y673D01*
X19992Y645D01*
X20062Y620D01*
X20133Y599D01*
X20206Y581D01*
X20279Y568D01*
X20352Y558D01*
X20427Y552D01*
X20501Y550D01*
X20737D01*
X20811Y552D01*
X20885Y558D01*
X20959Y568D01*
X21032Y581D01*
X21104Y599D01*
X21176Y620D01*
X21246Y645D01*
X21314Y673D01*
X21381Y705D01*
X21447Y740D01*
X21510Y779D01*
X21571Y821D01*
X21630Y867D01*
X21687Y915D01*
X21741Y966D01*
X21792Y1020D01*
X21840Y1076D01*
X21885Y1135D01*
X21927Y1197D01*
X21966Y1260D01*
X22002Y1325D01*
X22034Y1392D01*
X22062Y1461D01*
X22087Y1531D01*
X22108Y1602D01*
X22125Y1674D01*
X22139Y1748D01*
X22149Y1821D01*
X22154Y1895D01*
X22156Y1970D01*
X22154Y2044D01*
X22149Y2118D01*
X22139Y2192D01*
X22125Y2265D01*
X22108Y2337D01*
X22087Y2408D01*
X22062Y2478D01*
X22034Y2547D01*
X22002Y2614D01*
X21966Y2679D01*
X21927Y2743D01*
X21885Y2804D01*
X21840Y2863D01*
X21792Y2919D01*
X21741Y2973D01*
X21687Y3024D01*
X21630Y3073D01*
X21571Y3118D01*
X21510Y3160D01*
X21447Y3199D01*
X21381Y3234D01*
X21339Y3254D01*
X21350Y3304D01*
X22948D01*
X23056Y3196D01*
X23072Y3183D01*
X23089Y3172D01*
X23108Y3164D01*
X23128Y3160D01*
X23148Y3158D01*
X24496D01*
X24498Y3154D01*
X24517Y3133D01*
X24539Y3114D01*
X24563Y3098D01*
X24589Y3085D01*
X24616Y3076D01*
X24644Y3070D01*
X24673Y3068D01*
X24702Y3070D01*
X24730Y3076D01*
X24757Y3085D01*
X24783Y3098D01*
X24807Y3114D01*
X24829Y3133D01*
X24848Y3154D01*
X24864Y3178D01*
X24877Y3204D01*
X24886Y3231D01*
X24892Y3260D01*
X24894Y3289D01*
X24893Y3300D01*
X24918Y3337D01*
X24936Y3350D01*
X25212D01*
Y103D01*
X103D01*
Y8991D01*
X23269D01*
Y8361D01*
D02*
G37*
G36*
X6203Y7925D02*
X6227Y7909D01*
X6253Y7896D01*
X6280Y7887D01*
X6309Y7881D01*
X6338Y7880D01*
X6366Y7881D01*
X6371Y7882D01*
X6557Y7696D01*
X6572Y7683D01*
X6590Y7672D01*
X6609Y7664D01*
X6629Y7660D01*
X6649Y7658D01*
X8171Y7658D01*
X8186Y7645D01*
X8204Y7608D01*
X8200Y7596D01*
X8194Y7567D01*
X8192Y7539D01*
X8194Y7510D01*
X8200Y7481D01*
X8209Y7454D01*
X8222Y7428D01*
X8238Y7404D01*
X8257Y7383D01*
X8279Y7364D01*
X8303Y7348D01*
X8329Y7335D01*
X8356Y7326D01*
X8384Y7320D01*
X8413Y7318D01*
X8440Y7320D01*
X8443Y7318D01*
X8466Y7274D01*
X8466Y7273D01*
X8442Y7241D01*
X8422Y7207D01*
X8404Y7171D01*
X8391Y7134D01*
X8381Y7095D01*
X8376Y7056D01*
X8374Y7016D01*
X8376Y6976D01*
X8381Y6937D01*
X8391Y6898D01*
X8404Y6861D01*
X8422Y6825D01*
X8442Y6791D01*
X8466Y6759D01*
X8492Y6729D01*
X8522Y6702D01*
X8554Y6679D01*
X8588Y6658D01*
X8624Y6641D01*
X8661Y6628D01*
X8700Y6618D01*
X8739Y6612D01*
X8779Y6610D01*
X8819Y6612D01*
X8858Y6618D01*
X8897Y6628D01*
X8934Y6641D01*
X8970Y6658D01*
X9005Y6679D01*
X9037Y6702D01*
X9066Y6729D01*
X9093Y6759D01*
X9116Y6791D01*
X9137Y6825D01*
X9154Y6861D01*
X9167Y6898D01*
X9177Y6937D01*
X9183Y6976D01*
X9185Y7016D01*
X9183Y7056D01*
X9177Y7095D01*
X9167Y7134D01*
X9154Y7171D01*
X9137Y7207D01*
X9116Y7241D01*
X9093Y7273D01*
X9076Y7292D01*
X9112Y7327D01*
X9903Y6535D01*
X9884Y6489D01*
X7552Y6489D01*
X7532Y6487D01*
X7512Y6483D01*
X7493Y6475D01*
X7476Y6464D01*
X7460Y6451D01*
X7159Y6149D01*
X7154Y6150D01*
X7126Y6152D01*
X7097Y6150D01*
X7069Y6145D01*
X7041Y6135D01*
X7015Y6123D01*
X6991Y6107D01*
X6970Y6088D01*
X6951Y6066D01*
X6935Y6042D01*
X6922Y6016D01*
X6913Y5989D01*
X6907Y5961D01*
X6905Y5932D01*
X6907Y5903D01*
X6913Y5875D01*
X6922Y5847D01*
X6935Y5821D01*
X6951Y5798D01*
X6970Y5776D01*
X6991Y5757D01*
X7015Y5741D01*
X7041Y5728D01*
X7069Y5719D01*
X7097Y5713D01*
X7126Y5711D01*
X7154Y5713D01*
X7183Y5719D01*
X7210Y5728D01*
X7236Y5741D01*
X7260Y5757D01*
X7282Y5776D01*
X7285D01*
X7306Y5757D01*
X7330Y5741D01*
X7356Y5728D01*
X7384Y5719D01*
X7412Y5713D01*
X7441Y5711D01*
X7469Y5713D01*
X7498Y5719D01*
X7525Y5728D01*
X7551Y5741D01*
X7575Y5757D01*
X7597Y5776D01*
X7600D01*
X7621Y5757D01*
X7645Y5741D01*
X7671Y5728D01*
X7699Y5719D01*
X7727Y5713D01*
X7756Y5711D01*
X7784Y5713D01*
X7813Y5719D01*
X7840Y5728D01*
X7866Y5741D01*
X7890Y5757D01*
X7913Y5775D01*
X7936Y5757D01*
X7960Y5741D01*
X7986Y5728D01*
X8013Y5719D01*
X8042Y5713D01*
X8071Y5711D01*
X8099Y5713D01*
X8128Y5719D01*
X8155Y5728D01*
X8181Y5741D01*
X8205Y5757D01*
X8226Y5776D01*
X8245Y5798D01*
X8262Y5821D01*
X8274Y5847D01*
X8284Y5875D01*
X8288Y5898D01*
X13116Y5898D01*
Y4997D01*
X13113Y4995D01*
X13091Y4976D01*
X13072Y4954D01*
X13056Y4930D01*
X13043Y4904D01*
X13034Y4877D01*
X13028Y4849D01*
X13026Y4820D01*
X13028Y4791D01*
X13034Y4763D01*
X13043Y4736D01*
X13056Y4710D01*
X13072Y4686D01*
X13091Y4664D01*
X13113Y4645D01*
X13137Y4629D01*
X13162Y4616D01*
X13190Y4607D01*
X13218Y4601D01*
X13247Y4600D01*
X13276Y4601D01*
X13304Y4607D01*
X13331Y4616D01*
X13357Y4629D01*
X13381Y4645D01*
X13403Y4664D01*
X13422Y4686D01*
X13438Y4710D01*
X13451Y4736D01*
X13460Y4763D01*
X13465Y4791D01*
X13467Y4820D01*
X13465Y4849D01*
X13460Y4877D01*
X13451Y4904D01*
X13438Y4930D01*
X13422Y4954D01*
X13403Y4976D01*
X13381Y4995D01*
X13377Y4997D01*
Y5898D01*
X14086Y5898D01*
X14107Y5900D01*
X14126Y5904D01*
X14145Y5912D01*
X14163Y5923D01*
X14178Y5936D01*
X14965Y6723D01*
X15011Y6703D01*
Y6615D01*
X15012Y6594D01*
X15017Y6575D01*
X15025Y6556D01*
X15036Y6538D01*
X15049Y6523D01*
X15411Y6161D01*
Y5755D01*
X15412Y5734D01*
X15417Y5715D01*
X15425Y5696D01*
X15436Y5678D01*
X15449Y5663D01*
X16331Y4781D01*
Y4235D01*
X16332Y4215D01*
X16337Y4195D01*
X16345Y4176D01*
X16356Y4159D01*
X16369Y4143D01*
X16380Y4132D01*
X16360Y4086D01*
X16096D01*
X16076Y4085D01*
X16056Y4080D01*
X16037Y4072D01*
X16020Y4061D01*
X16004Y4048D01*
X15858Y3902D01*
X7558Y3902D01*
X6049Y5411D01*
Y7881D01*
X6052Y7881D01*
X6080Y7887D01*
X6108Y7896D01*
X6134Y7909D01*
X6158Y7925D01*
X6179Y7944D01*
X6182D01*
X6203Y7925D01*
D02*
G37*
%LPC*%
G36*
X12840Y8637D02*
X12809Y8635D01*
X12778Y8630D01*
X12748Y8622D01*
X12720Y8610D01*
X12692Y8595D01*
X12667Y8577D01*
X12644Y8556D01*
X12623Y8533D01*
X12605Y8507D01*
X12590Y8480D01*
X12578Y8451D01*
X12569Y8421D01*
X12564Y8391D01*
X12562Y8360D01*
X12564Y8329D01*
X12569Y8298D01*
X12578Y8268D01*
X12590Y8239D01*
X12605Y8212D01*
X12623Y8187D01*
X12644Y8163D01*
X12667Y8143D01*
X12692Y8125D01*
X12720Y8109D01*
X12748Y8098D01*
X12778Y8089D01*
X12809Y8084D01*
X12840Y8082D01*
X12871Y8084D01*
X12902Y8089D01*
X12932Y8098D01*
X12960Y8109D01*
X12988Y8125D01*
X13013Y8143D01*
X13036Y8163D01*
X13057Y8187D01*
X13075Y8212D01*
X13090Y8239D01*
X13102Y8268D01*
X13111Y8298D01*
X13116Y8329D01*
X13118Y8360D01*
X13116Y8391D01*
X13111Y8421D01*
X13102Y8451D01*
X13090Y8480D01*
X13075Y8507D01*
X13057Y8533D01*
X13036Y8556D01*
X13013Y8577D01*
X12988Y8595D01*
X12960Y8610D01*
X12932Y8622D01*
X12902Y8630D01*
X12871Y8635D01*
X12840Y8637D01*
D02*
G37*
G36*
X10163D02*
X10132Y8635D01*
X10101Y8630D01*
X10071Y8622D01*
X10042Y8610D01*
X10015Y8595D01*
X9990Y8577D01*
X9967Y8556D01*
X9946Y8533D01*
X9928Y8507D01*
X9913Y8480D01*
X9901Y8451D01*
X9892Y8421D01*
X9887Y8391D01*
X9885Y8360D01*
X9887Y8329D01*
X9892Y8298D01*
X9901Y8268D01*
X9913Y8239D01*
X9928Y8212D01*
X9946Y8187D01*
X9967Y8163D01*
X9990Y8143D01*
X10015Y8125D01*
X10042Y8109D01*
X10071Y8098D01*
X10101Y8089D01*
X10132Y8084D01*
X10163Y8082D01*
X10194Y8084D01*
X10225Y8089D01*
X10254Y8098D01*
X10283Y8109D01*
X10310Y8125D01*
X10336Y8143D01*
X10359Y8163D01*
X10380Y8187D01*
X10398Y8212D01*
X10413Y8239D01*
X10425Y8268D01*
X10433Y8298D01*
X10439Y8329D01*
X10440Y8360D01*
X10439Y8391D01*
X10433Y8421D01*
X10425Y8451D01*
X10413Y8480D01*
X10398Y8507D01*
X10380Y8533D01*
X10359Y8556D01*
X10336Y8577D01*
X10310Y8595D01*
X10283Y8610D01*
X10254Y8622D01*
X10225Y8630D01*
X10194Y8635D01*
X10163Y8637D01*
D02*
G37*
G36*
X21610Y8896D02*
X21567Y8894D01*
X21524Y8889D01*
X21482Y8879D01*
X21440Y8866D01*
X21400Y8850D01*
X21362Y8830D01*
X21325Y8806D01*
X21291Y8780D01*
X21259Y8751D01*
X21230Y8719D01*
X21204Y8685D01*
X21180Y8648D01*
X21160Y8610D01*
X21144Y8570D01*
X21131Y8528D01*
X21121Y8486D01*
X21116Y8443D01*
X21114Y8400D01*
X21116Y8357D01*
X21121Y8314D01*
X21131Y8272D01*
X21144Y8230D01*
X21160Y8190D01*
X21180Y8152D01*
X21204Y8115D01*
X21230Y8081D01*
X21259Y8049D01*
X21291Y8020D01*
X21325Y7994D01*
X21362Y7970D01*
X21400Y7950D01*
X21440Y7934D01*
X21482Y7921D01*
X21524Y7911D01*
X21567Y7906D01*
X21610Y7904D01*
X21653Y7906D01*
X21696Y7911D01*
X21738Y7921D01*
X21780Y7934D01*
X21820Y7950D01*
X21858Y7970D01*
X21895Y7994D01*
X21929Y8020D01*
X21961Y8049D01*
X21990Y8081D01*
X22016Y8115D01*
X22040Y8152D01*
X22060Y8190D01*
X22076Y8230D01*
X22089Y8272D01*
X22099Y8314D01*
X22104Y8357D01*
X22106Y8400D01*
X22104Y8443D01*
X22099Y8486D01*
X22089Y8528D01*
X22076Y8570D01*
X22060Y8610D01*
X22040Y8648D01*
X22016Y8685D01*
X21990Y8719D01*
X21961Y8751D01*
X21929Y8780D01*
X21895Y8806D01*
X21858Y8830D01*
X21820Y8850D01*
X21780Y8866D01*
X21738Y8879D01*
X21696Y8889D01*
X21653Y8894D01*
X21610Y8896D01*
D02*
G37*
G36*
X8458Y8851D02*
X8429Y8849D01*
X8401Y8843D01*
X8374Y8834D01*
X8348Y8821D01*
X8324Y8805D01*
X8302Y8786D01*
X8283Y8764D01*
X8267Y8740D01*
X8254Y8714D01*
X8245Y8687D01*
X8239Y8659D01*
X8238Y8630D01*
X8239Y8601D01*
X8245Y8573D01*
X8254Y8546D01*
X8267Y8520D01*
X8283Y8496D01*
X8302Y8474D01*
X8324Y8455D01*
X8348Y8439D01*
X8374Y8426D01*
X8401Y8417D01*
X8429Y8411D01*
X8458Y8410D01*
X8487Y8411D01*
X8515Y8417D01*
X8542Y8426D01*
X8568Y8439D01*
X8592Y8455D01*
X9056D01*
X9972Y7539D01*
Y7410D01*
X9956Y7387D01*
X9943Y7361D01*
X9934Y7334D01*
X9929Y7306D01*
X9927Y7277D01*
X9929Y7248D01*
X9934Y7220D01*
X9943Y7193D01*
X9956Y7167D01*
X9972Y7143D01*
X9991Y7121D01*
X10013Y7102D01*
X10037Y7086D01*
X10063Y7073D01*
X10090Y7064D01*
X10118Y7058D01*
X10147Y7056D01*
X10176Y7058D01*
X10204Y7064D01*
X10232Y7073D01*
X10257Y7086D01*
X10281Y7102D01*
X10303Y7121D01*
X10322Y7143D01*
X10338Y7167D01*
X10351Y7193D01*
X10360Y7220D01*
X10366Y7248D01*
X10368Y7277D01*
X10366Y7306D01*
X10360Y7334D01*
X10351Y7361D01*
X10338Y7387D01*
X10323Y7410D01*
Y7611D01*
X10321Y7634D01*
X10317Y7657D01*
X10309Y7678D01*
X10299Y7699D01*
X10286Y7718D01*
X10271Y7735D01*
X9252Y8754D01*
X9235Y8769D01*
X9216Y8782D01*
X9195Y8792D01*
X9174Y8799D01*
X9151Y8804D01*
X9128Y8805D01*
X8592D01*
X8568Y8821D01*
X8542Y8834D01*
X8515Y8843D01*
X8487Y8849D01*
X8458Y8851D01*
D02*
G37*
G36*
X5000Y7422D02*
X4960Y7420D01*
X4921Y7414D01*
X4882Y7404D01*
X4844Y7391D01*
X4809Y7374D01*
X4774Y7353D01*
X4742Y7329D01*
X4713Y7303D01*
X4686Y7273D01*
X4662Y7241D01*
X4642Y7207D01*
X4625Y7171D01*
X4612Y7134D01*
X4602Y7095D01*
X4596Y7056D01*
X4594Y7016D01*
X4596Y6976D01*
X4602Y6937D01*
X4612Y6898D01*
X4625Y6861D01*
X4642Y6825D01*
X4662Y6791D01*
X4686Y6759D01*
X4713Y6729D01*
X4742Y6702D01*
X4774Y6679D01*
X4809Y6658D01*
X4844Y6641D01*
X4882Y6628D01*
X4921Y6618D01*
X4960Y6612D01*
X5000Y6610D01*
X5039Y6612D01*
X5079Y6618D01*
X5117Y6628D01*
X5155Y6641D01*
X5191Y6658D01*
X5225Y6679D01*
X5257Y6702D01*
X5287Y6729D01*
X5313Y6759D01*
X5337Y6791D01*
X5357Y6825D01*
X5374Y6861D01*
X5388Y6898D01*
X5398Y6937D01*
X5403Y6976D01*
X5405Y7016D01*
X5403Y7056D01*
X5398Y7095D01*
X5388Y7134D01*
X5374Y7171D01*
X5357Y7207D01*
X5337Y7241D01*
X5313Y7273D01*
X5287Y7303D01*
X5257Y7329D01*
X5225Y7353D01*
X5191Y7374D01*
X5155Y7391D01*
X5117Y7404D01*
X5079Y7414D01*
X5039Y7420D01*
X5000Y7422D01*
D02*
G37*
G36*
X670Y4506D02*
X627Y4504D01*
X584Y4499D01*
X542Y4489D01*
X500Y4476D01*
X460Y4460D01*
X422Y4440D01*
X385Y4416D01*
X351Y4390D01*
X319Y4361D01*
X290Y4329D01*
X264Y4295D01*
X240Y4258D01*
X220Y4220D01*
X204Y4180D01*
X191Y4138D01*
X181Y4096D01*
X176Y4053D01*
X174Y4010D01*
X176Y3967D01*
X181Y3924D01*
X191Y3882D01*
X204Y3840D01*
X220Y3800D01*
X240Y3762D01*
X264Y3725D01*
X290Y3691D01*
X319Y3659D01*
X351Y3630D01*
X385Y3604D01*
X422Y3580D01*
X460Y3560D01*
X500Y3544D01*
X542Y3531D01*
X584Y3521D01*
X627Y3516D01*
X670Y3514D01*
X713Y3516D01*
X756Y3521D01*
X798Y3531D01*
X840Y3544D01*
X880Y3560D01*
X918Y3580D01*
X955Y3604D01*
X989Y3630D01*
X1021Y3659D01*
X1050Y3691D01*
X1076Y3725D01*
X1100Y3762D01*
X1120Y3800D01*
X1136Y3840D01*
X1149Y3882D01*
X1159Y3924D01*
X1164Y3967D01*
X1166Y4010D01*
X1164Y4053D01*
X1159Y4096D01*
X1149Y4138D01*
X1136Y4180D01*
X1120Y4220D01*
X1100Y4258D01*
X1076Y4295D01*
X1050Y4329D01*
X1021Y4361D01*
X989Y4390D01*
X955Y4416D01*
X918Y4440D01*
X880Y4460D01*
X840Y4476D01*
X798Y4489D01*
X756Y4499D01*
X713Y4504D01*
X670Y4506D01*
D02*
G37*
G36*
X4082Y3389D02*
X3846D01*
X3772Y3387D01*
X3697Y3381D01*
X3624Y3372D01*
X3551Y3358D01*
X3478Y3341D01*
X3407Y3320D01*
X3337Y3295D01*
X3268Y3266D01*
X3201Y3234D01*
X3136Y3199D01*
X3073Y3160D01*
X3012Y3118D01*
X2953Y3073D01*
X2896Y3024D01*
X2842Y2973D01*
X2791Y2919D01*
X2743Y2863D01*
X2697Y2804D01*
X2655Y2743D01*
X2617Y2679D01*
X2581Y2614D01*
X2549Y2547D01*
X2521Y2478D01*
X2496Y2408D01*
X2475Y2337D01*
X2457Y2265D01*
X2444Y2192D01*
X2434Y2118D01*
X2428Y2044D01*
X2426Y1970D01*
X2428Y1895D01*
X2434Y1821D01*
X2444Y1748D01*
X2457Y1674D01*
X2475Y1602D01*
X2496Y1531D01*
X2521Y1461D01*
X2549Y1392D01*
X2581Y1325D01*
X2617Y1260D01*
X2655Y1197D01*
X2697Y1135D01*
X2743Y1076D01*
X2791Y1020D01*
X2842Y966D01*
X2896Y915D01*
X2953Y867D01*
X3012Y821D01*
X3073Y779D01*
X3136Y740D01*
X3201Y705D01*
X3268Y673D01*
X3337Y645D01*
X3407Y620D01*
X3478Y599D01*
X3551Y581D01*
X3624Y568D01*
X3697Y558D01*
X3772Y552D01*
X3846Y550D01*
X4082D01*
X4156Y552D01*
X4230Y558D01*
X4304Y568D01*
X4377Y581D01*
X4449Y599D01*
X4521Y620D01*
X4591Y645D01*
X4659Y673D01*
X4726Y705D01*
X4792Y740D01*
X4855Y779D01*
X4916Y821D01*
X4975Y867D01*
X5032Y915D01*
X5086Y966D01*
X5137Y1020D01*
X5185Y1076D01*
X5230Y1135D01*
X5272Y1197D01*
X5311Y1260D01*
X5347Y1325D01*
X5379Y1392D01*
X5407Y1461D01*
X5432Y1531D01*
X5453Y1602D01*
X5470Y1674D01*
X5484Y1748D01*
X5494Y1821D01*
X5499Y1895D01*
X5501Y1970D01*
X5499Y2044D01*
X5494Y2118D01*
X5484Y2192D01*
X5470Y2265D01*
X5453Y2337D01*
X5432Y2408D01*
X5407Y2478D01*
X5379Y2547D01*
X5347Y2614D01*
X5311Y2679D01*
X5272Y2743D01*
X5230Y2804D01*
X5185Y2863D01*
X5137Y2919D01*
X5086Y2973D01*
X5032Y3024D01*
X4975Y3073D01*
X4916Y3118D01*
X4855Y3160D01*
X4792Y3199D01*
X4726Y3234D01*
X4659Y3266D01*
X4591Y3295D01*
X4521Y3320D01*
X4449Y3341D01*
X4377Y3358D01*
X4304Y3372D01*
X4230Y3381D01*
X4156Y3387D01*
X4082Y3389D01*
D02*
G37*
%LPD*%
D12*
X19958Y3600D02*
Y3736D01*
X19758Y3390D02*
Y3716D01*
X19558Y3240D02*
Y3600D01*
X18668Y2349D02*
X19558Y3240D01*
X19738Y3956D02*
X19958Y3736D01*
X19628Y3846D02*
X19758Y3716D01*
X16142Y3846D02*
X19628D01*
X16096Y3956D02*
X19738D01*
X18948Y3105D02*
Y3390D01*
X17141Y1298D02*
X18948Y3105D01*
X19358Y3200D02*
Y3390D01*
X19930Y4066D02*
X20561Y3435D01*
X13255Y6029D02*
X14086Y6029D01*
X8167Y6029D02*
X13255Y6029D01*
X13247Y6020D02*
X13255Y6029D01*
X13247Y4820D02*
Y6020D01*
X15541Y5755D02*
Y6215D01*
X15141Y6615D02*
X15541Y6215D01*
X15141Y6615D02*
Y6922D01*
X15455Y7236D01*
X15541Y5755D02*
X16461Y4835D01*
Y4235D02*
Y4835D01*
Y4235D02*
X16631Y4066D01*
X19930D01*
X23002Y3435D02*
X23148Y3289D01*
X20561Y3435D02*
X23002D01*
X17608Y8216D02*
X17661D01*
X16943Y7786D02*
X17573Y8416D01*
X16898Y7896D02*
X17618Y8616D01*
X17301Y7456D02*
X17661Y7816D01*
X17618Y8616D02*
X17661D01*
X17573Y8416D02*
X17871D01*
X17563Y8016D02*
X17871D01*
X17068Y7676D02*
X17608Y8216D01*
X17113Y7566D02*
X17563Y8016D01*
X15176Y7896D02*
X16898D01*
X15221Y7786D02*
X16943D01*
X15267Y7676D02*
X17068D01*
X15312Y7566D02*
X17113D01*
X15358Y7456D02*
X17301D01*
X17481Y7346D02*
X17661Y7526D01*
X15403Y7346D02*
X17481D01*
X15455Y7236D02*
X17661D01*
X7431Y5922D02*
X7441Y5932D01*
X17141Y1248D02*
Y1298D01*
X16542Y649D02*
X17141Y1248D01*
X15912Y3772D02*
X16096Y3956D01*
X17959Y1801D02*
X19358Y3200D01*
X18658Y2970D02*
Y3390D01*
X18368Y2840D02*
Y3390D01*
X18078Y2710D02*
Y3390D01*
X17788Y2580D02*
Y3390D01*
X17498Y2450D02*
Y3390D01*
X17208Y2320D02*
Y3390D01*
X18668Y649D02*
Y2349D01*
X15958Y3662D02*
X16142Y3846D01*
X7504Y3772D02*
X15912Y3772D01*
X7458Y3662D02*
X15958Y3662D01*
X12290Y649D02*
X13340Y1699D01*
X12998Y649D02*
X13938Y1589D01*
X13707Y649D02*
X14537Y1479D01*
X14416Y658D02*
X15126Y1369D01*
X15124Y649D02*
X15734Y1259D01*
X15833Y649D02*
X16333Y1148D01*
X17959Y649D02*
Y1801D01*
X7126Y5932D02*
X7552Y6359D01*
X7441Y5932D02*
X7757Y6249D01*
X7756Y5932D02*
X7962Y6139D01*
X8071Y5932D02*
X8167Y6029D01*
X6653Y8100D02*
X6855Y7899D01*
X6338Y8100D02*
X6649Y7789D01*
X5918Y7995D02*
X6023Y8100D01*
X5708D02*
X5808Y8000D01*
X23148Y3289D02*
X24673D01*
X5808Y5312D02*
Y8000D01*
X5918Y5357D02*
Y7995D01*
Y5357D02*
X7504Y3772D01*
X5808Y5312D02*
X7458Y3662D01*
X6649Y7789D02*
X8834Y7789D01*
X6855Y7899D02*
X8880Y7899D01*
X8834Y7789D02*
X10154Y6469D01*
X8880Y7899D02*
X10200Y6579D01*
X7962Y6139D02*
X14041Y6139D01*
X7757Y6249D02*
X13995Y6249D01*
X7552Y6359D02*
X13949Y6359D01*
X10154Y6469D02*
X13904D01*
X10200Y6579D02*
X13858D01*
X14041Y6139D02*
X15358Y7456D01*
X13995Y6249D02*
X15312Y7566D01*
X13949Y6359D02*
X15267Y7676D01*
X13904Y6469D02*
X15221Y7786D01*
X13858Y6579D02*
X15176Y7896D01*
X14086Y6029D02*
X15403Y7346D01*
X16333Y1148D02*
X16836D01*
X18658Y2970D01*
X15734Y1259D02*
X16786D01*
X18368Y2840D01*
X15126Y1369D02*
X16736D01*
X18078Y2710D01*
X14537Y1479D02*
X16686D01*
X17788Y2580D01*
X13938Y1589D02*
X16636D01*
X17498Y2450D01*
X16586Y1699D02*
X17208Y2320D01*
X13340Y1699D02*
X16586D01*
D16*
X25315Y0D02*
Y9094D01*
X0Y0D02*
Y9094D01*
X25315D01*
X0Y0D02*
X25315D01*
D29*
X670Y4010D02*
D03*
X21610Y8400D02*
D03*
D55*
X8779Y7016D02*
D03*
X5000D02*
D03*
D67*
X16719Y4269D02*
Y4977D01*
X15770Y5926D02*
X16719Y4977D01*
X15770Y6807D02*
X15911Y6667D01*
X15770D02*
Y6807D01*
X10147Y7277D02*
Y7611D01*
X9128Y8630D02*
X10147Y7611D01*
X8458Y8630D02*
X9128D01*
X18957Y6667D02*
X19039Y6749D01*
X15911Y6667D02*
X18957D01*
X15770Y5926D02*
X15770Y6667D01*
D70*
X10163Y8360D02*
D03*
X12840D02*
D03*
D71*
X3964Y1970D02*
D03*
X20619D02*
D03*
D72*
X22782Y7913D02*
D03*
D73*
X19958Y3600D02*
D03*
X19758Y3390D02*
D03*
X19558Y3600D02*
D03*
X19148D02*
D03*
X18948Y3390D02*
D03*
X19358D02*
D03*
X21851Y7405D02*
D03*
X13871Y4805D02*
D03*
X21411Y3942D02*
D03*
X22792Y4265D02*
D03*
X22292D02*
D03*
X21792D02*
D03*
X21692Y4974D02*
D03*
X21292Y4395D02*
D03*
Y5255D02*
D03*
X20792Y4754D02*
D03*
X23121Y8715D02*
D03*
Y7205D02*
D03*
Y5525D02*
D03*
Y3943D02*
D03*
X22241Y5002D02*
D03*
X22821Y4982D02*
D03*
X8413Y7539D02*
D03*
X6383Y6049D02*
D03*
X5533D02*
D03*
X7793Y4810D02*
D03*
X17661Y8216D02*
D03*
Y7816D02*
D03*
X13247Y4820D02*
D03*
X16719Y4269D02*
D03*
X17498Y3390D02*
D03*
X17788D02*
D03*
X18658D02*
D03*
X18368D02*
D03*
X18078D02*
D03*
X17208D02*
D03*
X16272Y3630D02*
D03*
X15770Y6807D02*
D03*
X6224Y7780D02*
D03*
X5364D02*
D03*
X4224Y7100D02*
D03*
X2224D02*
D03*
X20427Y4395D02*
D03*
X20792Y5475D02*
D03*
X14474Y7710D02*
D03*
X13344Y6890D02*
D03*
X12004Y7190D02*
D03*
X11004D02*
D03*
X13874Y5770D02*
D03*
X12874D02*
D03*
X11174Y5780D02*
D03*
X9674D02*
D03*
X15075Y5290D02*
D03*
X5034Y5490D02*
D03*
X4750Y6390D02*
D03*
X6833Y4809D02*
D03*
X5534Y4080D02*
D03*
X3764D02*
D03*
X1994D02*
D03*
X224Y3560D02*
D03*
X1839Y5543D02*
D03*
X3989Y5053D02*
D03*
X3609Y5263D02*
D03*
X8631Y5426D02*
D03*
X8224Y6870D02*
D03*
X6224D02*
D03*
X224Y5331D02*
D03*
X23121Y6365D02*
D03*
X224Y7100D02*
D03*
X22224Y8870D02*
D03*
X21571Y6255D02*
D03*
X20224Y8870D02*
D03*
X18224D02*
D03*
X15674D02*
D03*
X13934D02*
D03*
X12224D02*
D03*
X10224D02*
D03*
X9224D02*
D03*
X5164Y8630D02*
D03*
X4224Y8870D02*
D03*
X2224D02*
D03*
X224D02*
D03*
X20574Y6643D02*
D03*
X5708Y8100D02*
D03*
X6023D02*
D03*
X6338D02*
D03*
X6653D02*
D03*
X7126Y5932D02*
D03*
X7441D02*
D03*
X7756D02*
D03*
X8071D02*
D03*
X10147Y7277D02*
D03*
X8458Y8630D02*
D03*
X17661Y8616D02*
D03*
X17871Y8416D02*
D03*
Y8016D02*
D03*
X17661Y7526D02*
D03*
Y7236D02*
D03*
X18668Y649D02*
D03*
X17959D02*
D03*
X17250D02*
D03*
X16542D02*
D03*
X15833D02*
D03*
X15124D02*
D03*
X14416Y658D02*
D03*
X13707Y649D02*
D03*
X12998D02*
D03*
X12290D02*
D03*
X24673Y3289D02*
D03*
X18439Y7686D02*
D03*
X18849D02*
D03*
X19039Y6749D02*
D03*
X16639Y6920D02*
D03*
X16476Y8915D02*
D03*
X20292Y4830D02*
D03*
X20989Y6686D02*
D03*
X20003Y7696D02*
D03*
X19589Y7649D02*
D03*
X19269D02*
D03*
X15292Y6102D02*
D03*
X20426Y6040D02*
D03*
Y6390D02*
D03*
X20292Y5495D02*
D03*
X17539Y6950D02*
D03*
X16188Y7012D02*
D03*
X15392Y6832D02*
D03*
D74*
X17160Y6068D02*
D03*
X17633D02*
D03*
X18105D02*
D03*
X18578D02*
D03*
X17160Y5596D02*
D03*
X17633D02*
D03*
X18105D02*
D03*
X18578D02*
D03*
X17160Y5123D02*
D03*
X17633D02*
D03*
X18105D02*
D03*
X18578D02*
D03*
X17160Y4651D02*
D03*
X17633D02*
D03*
X18105D02*
D03*
X18578D02*
D03*
D75*
X19148Y3150D02*
Y3600D01*
X17250Y1253D02*
X19148Y3150D01*
X17250Y649D02*
Y1253D01*
M02*
