G04*
G04 #@! TF.GenerationSoftware,Altium Limited,Altium Designer,19.0.15 (446)*
G04*
G04 Layer_Physical_Order=1*
G04 Layer_Color=255*
%FSLAX24Y24*%
%MOIN*%
G70*
G01*
G75*
%ADD12C,0.0060*%
%ADD16C,0.0005*%
%ADD17R,0.0197X0.0236*%
%ADD18R,0.0300X0.0320*%
%ADD19R,0.0256X0.0197*%
%ADD20R,0.0236X0.0217*%
%ADD21O,0.0256X0.0079*%
%ADD22O,0.0079X0.0256*%
%ADD23R,0.1850X0.1850*%
%ADD25R,0.0610X0.0236*%
%ADD26R,0.0709X0.0472*%
%ADD27R,0.0472X0.0984*%
%ADD28R,0.0315X0.0295*%
%ADD29C,0.0394*%
G04:AMPARAMS|DCode=30|XSize=31.5mil|YSize=29.5mil|CornerRadius=0mil|HoleSize=0mil|Usage=FLASHONLY|Rotation=40.000|XOffset=0mil|YOffset=0mil|HoleType=Round|Shape=Rectangle|*
%AMROTATEDRECTD30*
4,1,4,-0.0026,-0.0214,-0.0216,0.0012,0.0026,0.0214,0.0216,-0.0012,-0.0026,-0.0214,0.0*
%
%ADD30ROTATEDRECTD30*%

G04:AMPARAMS|DCode=31|XSize=19.7mil|YSize=25.6mil|CornerRadius=0mil|HoleSize=0mil|Usage=FLASHONLY|Rotation=40.000|XOffset=0mil|YOffset=0mil|HoleType=Round|Shape=Rectangle|*
%AMROTATEDRECTD31*
4,1,4,0.0007,-0.0161,-0.0158,0.0035,-0.0007,0.0161,0.0158,-0.0035,0.0007,-0.0161,0.0*
%
%ADD31ROTATEDRECTD31*%

%ADD32R,0.0236X0.0197*%
%ADD33R,0.0374X0.0335*%
%ADD34R,0.0295X0.0315*%
%ADD55C,0.0610*%
%ADD59C,0.0300*%
%ADD60C,0.0276*%
%ADD61R,0.0354X0.2362*%
%ADD62R,0.0197X0.0787*%
%ADD63C,0.0100*%
%ADD64C,0.0120*%
%ADD65C,0.0090*%
%ADD66C,0.0200*%
%ADD67C,0.0150*%
%ADD68C,0.0110*%
%ADD69C,0.0080*%
%ADD70C,0.0354*%
%ADD71R,0.0600X0.0600*%
%ADD72C,0.0600*%
%ADD73C,0.0240*%
%ADD74C,0.0260*%
G36*
X23269Y8361D02*
X23219Y8342D01*
X23215Y8346D01*
X23179Y8379D01*
X23142Y8409D01*
X23102Y8435D01*
X23060Y8459D01*
X23016Y8479D01*
X22971Y8496D01*
X22925Y8509D01*
X22878Y8518D01*
X22830Y8524D01*
X22782Y8526D01*
X22734Y8524D01*
X22686Y8518D01*
X22639Y8509D01*
X22593Y8496D01*
X22547Y8479D01*
X22504Y8459D01*
X22462Y8435D01*
X22422Y8409D01*
X22384Y8379D01*
X22349Y8346D01*
X22316Y8311D01*
X22286Y8273D01*
X22260Y8233D01*
X22236Y8191D01*
X22216Y8148D01*
X22199Y8103D01*
X22186Y8056D01*
X22177Y8009D01*
X22171Y7961D01*
X22169Y7913D01*
X22171Y7865D01*
X22177Y7818D01*
X22186Y7770D01*
X22199Y7724D01*
X22216Y7679D01*
X22236Y7635D01*
X22260Y7593D01*
X22286Y7553D01*
X22316Y7516D01*
X22349Y7480D01*
X22384Y7448D01*
X22422Y7418D01*
X22462Y7391D01*
X22504Y7368D01*
X22547Y7348D01*
X22593Y7331D01*
X22639Y7318D01*
X22686Y7309D01*
X22734Y7303D01*
X22782Y7301D01*
X22830Y7303D01*
X22878Y7309D01*
X22925Y7318D01*
X22971Y7331D01*
X23016Y7348D01*
X23060Y7368D01*
X23102Y7391D01*
X23142Y7418D01*
X23179Y7448D01*
X23215Y7480D01*
X23219Y7485D01*
X23269Y7466D01*
Y5224D01*
X23129D01*
Y5006D01*
X23079D01*
Y4956D01*
X22881D01*
Y4808D01*
X22881Y4787D01*
X22842Y4760D01*
X22531D01*
X22531Y4760D01*
X22513D01*
Y4760D01*
X22461Y4760D01*
X22456Y4764D01*
X22435Y4779D01*
X22411Y4791D01*
X22386Y4799D01*
X22361Y4804D01*
X22334Y4806D01*
X22180D01*
Y4952D01*
X21783D01*
Y4858D01*
X21733Y4818D01*
X21717Y4821D01*
X21667Y4832D01*
X21617Y4847D01*
X21569Y4866D01*
X21522Y4887D01*
X21476Y4911D01*
X21432Y4939D01*
X21390Y4969D01*
X21350Y5001D01*
X21349Y5003D01*
X21313Y5037D01*
X21313Y5037D01*
X21268Y5080D01*
X21221Y5119D01*
X21171Y5157D01*
X21120Y5191D01*
X21067Y5222D01*
X21012Y5251D01*
X20955Y5276D01*
X20897Y5298D01*
X20839Y5317D01*
X20779Y5332D01*
X20718Y5344D01*
X20657Y5353D01*
X20595Y5358D01*
X20533Y5360D01*
Y5360D01*
X20266D01*
X20240Y5358D01*
X20214Y5353D01*
X20189Y5345D01*
X20170Y5335D01*
X20151Y5341D01*
X20127Y5354D01*
X20119Y5362D01*
Y5841D01*
X20364D01*
Y5990D01*
X20146D01*
Y6090D01*
X20364D01*
Y6191D01*
X20364D01*
Y6340D01*
X20146D01*
Y6440D01*
X20364D01*
Y6588D01*
X20390Y6627D01*
X20394Y6633D01*
X20405Y6650D01*
X20413Y6669D01*
X20415Y6676D01*
X20524D01*
Y6943D01*
X20624D01*
Y6676D01*
X20861D01*
Y6755D01*
X20939D01*
Y6973D01*
X20989D01*
Y7023D01*
X21187D01*
Y7148D01*
Y7585D01*
X20861D01*
Y7663D01*
X20053D01*
Y7396D01*
X19953D01*
Y7663D01*
X19716D01*
Y7585D01*
X19639D01*
Y7366D01*
X19539D01*
Y7585D01*
X19299D01*
Y7366D01*
X19199D01*
Y7585D01*
X19191D01*
Y7885D01*
X19190Y7906D01*
X19185Y7926D01*
X19177Y7945D01*
X19167Y7962D01*
X19153Y7978D01*
X18423Y8708D01*
X18407Y8721D01*
X18390Y8732D01*
X18371Y8740D01*
X18351Y8745D01*
X18331Y8746D01*
X17838D01*
X17836Y8750D01*
X17817Y8772D01*
X17795Y8791D01*
X17771Y8807D01*
X17745Y8820D01*
X17718Y8829D01*
X17689Y8834D01*
X17661Y8836D01*
X17632Y8834D01*
X17604Y8829D01*
X17576Y8820D01*
X17550Y8807D01*
X17526Y8791D01*
X17505Y8772D01*
X17486Y8750D01*
X17470Y8726D01*
X17457Y8700D01*
X17448Y8673D01*
X17442Y8645D01*
X17440Y8616D01*
X17442Y8587D01*
X17448Y8559D01*
X17457Y8531D01*
X17470Y8506D01*
X17486Y8482D01*
X17505Y8460D01*
X17520Y8447D01*
X17524Y8416D01*
X17520Y8385D01*
X17505Y8372D01*
X17486Y8350D01*
X17470Y8326D01*
X17457Y8300D01*
X17448Y8273D01*
X17442Y8245D01*
X17440Y8216D01*
X17442Y8187D01*
X17448Y8159D01*
X17457Y8131D01*
X17470Y8106D01*
X17486Y8082D01*
X17505Y8060D01*
X17512Y8054D01*
X17508Y8002D01*
X17506Y8001D01*
X17489Y8003D01*
X17451Y8026D01*
X17450Y8032D01*
X17441Y8053D01*
X17429Y8072D01*
X17414Y8090D01*
X17344Y8160D01*
X17346Y8210D01*
X17386Y8244D01*
X17068Y8623D01*
X17068Y8623D01*
X17045Y8651D01*
X16918Y8802D01*
X16721Y8637D01*
X16688Y8675D01*
X16650Y8643D01*
X16491Y8833D01*
X16332Y8699D01*
X16451Y8557D01*
X16170Y8322D01*
X16379Y8074D01*
X16411Y8035D01*
X16704Y7686D01*
X16752Y7726D01*
X16791Y7686D01*
Y7330D01*
X16791D01*
Y7294D01*
X16791D01*
Y6798D01*
X16900D01*
X16915Y6765D01*
X16916Y6748D01*
X16904Y6738D01*
X16890Y6721D01*
X16878Y6703D01*
X16871Y6686D01*
X16282D01*
Y6767D01*
X16049D01*
X15990Y6826D01*
X15989Y6836D01*
X15983Y6864D01*
X15974Y6892D01*
X15961Y6917D01*
X15946Y6941D01*
Y7315D01*
X15944Y7338D01*
X15940Y7360D01*
X15933Y7382D01*
X15922Y7403D01*
X15910Y7422D01*
X15894Y7439D01*
X15191Y8143D01*
X15174Y8158D01*
X15155Y8170D01*
X15134Y8181D01*
X15112Y8188D01*
X15090Y8192D01*
X15067Y8194D01*
X13122D01*
X13098Y8229D01*
X13092Y8244D01*
X13102Y8268D01*
X13111Y8298D01*
X13116Y8329D01*
X13118Y8360D01*
X13116Y8391D01*
X13111Y8421D01*
X13102Y8451D01*
X13090Y8480D01*
X13075Y8507D01*
X13057Y8533D01*
X13036Y8556D01*
X13013Y8577D01*
X12988Y8595D01*
X12960Y8610D01*
X12932Y8622D01*
X12902Y8630D01*
X12871Y8635D01*
X12840Y8637D01*
X12809Y8635D01*
X12778Y8630D01*
X12748Y8622D01*
X12720Y8610D01*
X12692Y8595D01*
X12667Y8577D01*
X12644Y8556D01*
X12623Y8533D01*
X12605Y8507D01*
X12590Y8480D01*
X12578Y8451D01*
X12569Y8421D01*
X12564Y8391D01*
X12562Y8360D01*
X12564Y8329D01*
X12569Y8298D01*
X12578Y8268D01*
X12588Y8244D01*
X12582Y8229D01*
X12558Y8194D01*
X10445D01*
X10420Y8229D01*
X10415Y8244D01*
X10425Y8268D01*
X10433Y8298D01*
X10439Y8329D01*
X10440Y8360D01*
X10439Y8391D01*
X10433Y8421D01*
X10425Y8451D01*
X10413Y8480D01*
X10398Y8507D01*
X10380Y8533D01*
X10359Y8556D01*
X10336Y8577D01*
X10310Y8595D01*
X10283Y8610D01*
X10254Y8622D01*
X10225Y8630D01*
X10194Y8635D01*
X10163Y8637D01*
X10132Y8635D01*
X10101Y8630D01*
X10071Y8622D01*
X10042Y8610D01*
X10015Y8595D01*
X9990Y8577D01*
X9967Y8556D01*
X9946Y8533D01*
X9928Y8507D01*
X9913Y8480D01*
X9901Y8451D01*
X9892Y8421D01*
X9887Y8391D01*
X9885Y8360D01*
X9887Y8329D01*
X9892Y8298D01*
X9901Y8268D01*
X9911Y8244D01*
X9905Y8229D01*
X9881Y8194D01*
X8426D01*
Y8362D01*
X8458Y8410D01*
X8487Y8411D01*
X8515Y8417D01*
X8542Y8426D01*
X8568Y8439D01*
X8592Y8455D01*
X8614Y8474D01*
X8633Y8496D01*
X8649Y8520D01*
X8662Y8546D01*
X8671Y8573D01*
X8677Y8601D01*
X8679Y8630D01*
X8677Y8659D01*
X8671Y8687D01*
X8662Y8714D01*
X8649Y8740D01*
X8633Y8764D01*
X8614Y8786D01*
X8592Y8805D01*
X8568Y8821D01*
X8542Y8834D01*
X8515Y8843D01*
X8487Y8849D01*
X8458Y8851D01*
X8426Y8899D01*
Y8991D01*
X16607D01*
X16624Y8945D01*
X16567Y8897D01*
X16695Y8746D01*
X16853Y8879D01*
X16797Y8946D01*
X16818Y8991D01*
X23269D01*
Y8361D01*
D02*
G37*
G36*
X18931Y7831D02*
Y7624D01*
X18879D01*
Y7406D01*
X18779D01*
Y7624D01*
X18772D01*
Y7925D01*
X18818Y7944D01*
X18931Y7831D01*
D02*
G37*
G36*
X18511Y8093D02*
Y7624D01*
X18499D01*
Y7406D01*
X18399D01*
Y7624D01*
X18349D01*
Y7968D01*
X18347Y7989D01*
X18342Y8008D01*
X18334Y8027D01*
X18324Y8045D01*
X18310Y8060D01*
X18132Y8239D01*
X18151Y8285D01*
X18319D01*
X18511Y8093D01*
D02*
G37*
G36*
X17526Y7061D02*
X17550Y7045D01*
X17576Y7032D01*
X17604Y7023D01*
X17616Y7020D01*
Y6778D01*
X17611Y6777D01*
X17589Y6772D01*
X17569Y6764D01*
X17554Y6754D01*
X17539Y6764D01*
X17518Y6772D01*
X17497Y6777D01*
X17475Y6779D01*
X17457Y6796D01*
Y7059D01*
X17499Y7077D01*
X17507Y7078D01*
X17526Y7061D01*
D02*
G37*
G36*
X15595Y7242D02*
Y6941D01*
X15580Y6917D01*
X15567Y6892D01*
X15558Y6864D01*
X15552Y6836D01*
X15550Y6807D01*
X15506Y6767D01*
X15256D01*
Y6560D01*
X15503D01*
Y6460D01*
X15256D01*
Y6252D01*
X15354D01*
Y6150D01*
X15572D01*
Y6100D01*
X15622D01*
Y5901D01*
X15975D01*
X15994Y5855D01*
X14831Y4692D01*
X13485D01*
X13461Y4722D01*
X13453Y4742D01*
X13460Y4763D01*
X13465Y4791D01*
X13467Y4820D01*
X13465Y4849D01*
X13460Y4877D01*
X13451Y4904D01*
X13438Y4930D01*
X13422Y4954D01*
X13403Y4976D01*
X13381Y4995D01*
X13357Y5011D01*
X13331Y5024D01*
X13304Y5033D01*
X13276Y5039D01*
X13247Y5040D01*
X13218Y5039D01*
X13190Y5033D01*
X13176Y5028D01*
X12365D01*
Y4950D01*
X12255D01*
Y5080D01*
X11755D01*
Y4692D01*
X11705D01*
Y5080D01*
X11616D01*
Y5312D01*
X12478Y6174D01*
X12488Y6174D01*
X12515Y6175D01*
X12541Y6180D01*
X12567Y6187D01*
X12592Y6197D01*
X12615Y6210D01*
X12637Y6226D01*
X12657Y6243D01*
X12675Y6263D01*
X12690Y6285D01*
X12703Y6308D01*
X12713Y6333D01*
X12721Y6359D01*
X12725Y6385D01*
X12727Y6412D01*
X12725Y6438D01*
X12721Y6465D01*
X12713Y6490D01*
X12703Y6515D01*
X12690Y6538D01*
X12675Y6560D01*
X12661Y6575D01*
Y6685D01*
X12822D01*
Y7843D01*
X14994D01*
X15595Y7242D01*
D02*
G37*
G36*
X16490Y4272D02*
X16499Y4265D01*
X16501Y4240D01*
X16507Y4212D01*
X16516Y4185D01*
X16529Y4159D01*
X16545Y4135D01*
X16564Y4113D01*
X16569Y4108D01*
Y4029D01*
X16571Y4006D01*
X16573Y3998D01*
X16550Y3958D01*
X16543Y3951D01*
X16537Y3948D01*
X16334D01*
Y3800D01*
X16552D01*
Y3750D01*
X16602D01*
Y3551D01*
X16794D01*
X16818Y3501D01*
X16804Y3482D01*
X15711D01*
X15692Y3528D01*
X16450Y4287D01*
X16490Y4272D01*
D02*
G37*
G36*
X20189Y4974D02*
X20214Y4966D01*
X20240Y4961D01*
X20266Y4959D01*
X20533D01*
X20537Y4959D01*
X20583Y4958D01*
X20633Y4952D01*
X20683Y4944D01*
X20731Y4931D01*
X20779Y4915D01*
X20825Y4896D01*
X20870Y4874D01*
X20913Y4848D01*
X20954Y4820D01*
X20993Y4788D01*
X20994Y4788D01*
X21030Y4754D01*
X21030Y4754D01*
X21078Y4708D01*
X21129Y4665D01*
X21182Y4624D01*
X21238Y4587D01*
X21295Y4553D01*
X21355Y4523D01*
X21416Y4496D01*
X21478Y4472D01*
X21542Y4451D01*
X21606Y4435D01*
X21672Y4422D01*
X21738Y4412D01*
X21805Y4407D01*
X21871Y4405D01*
Y4405D01*
X22334D01*
X22361Y4407D01*
X22386Y4412D01*
X22411Y4420D01*
X22435Y4432D01*
X22456Y4446D01*
X22466Y4455D01*
X22513Y4464D01*
X22531D01*
X22531Y4464D01*
X22887D01*
Y4464D01*
X22931Y4450D01*
Y4444D01*
X23228D01*
X23269Y4423D01*
Y3419D01*
X23202D01*
X22874Y3747D01*
X22859Y3760D01*
X22841Y3771D01*
X22822Y3779D01*
X22802Y3784D01*
X22782Y3785D01*
X20734D01*
X19836Y4683D01*
X19855Y4730D01*
X20119D01*
Y4957D01*
X20127Y4965D01*
X20151Y4978D01*
X20170Y4984D01*
X20189Y4974D01*
D02*
G37*
G36*
X5195Y8680D02*
X5393D01*
Y8630D01*
X5443D01*
Y8135D01*
X5488Y8100D01*
X5490Y8071D01*
X5495Y8043D01*
X5505Y8016D01*
X5517Y7990D01*
X5533Y7966D01*
X5552Y7944D01*
X5574Y7925D01*
X5598Y7909D01*
X5624Y7896D01*
X5651Y7887D01*
X5680Y7881D01*
X5708Y7880D01*
X5737Y7881D01*
X5765Y7887D01*
X5793Y7896D01*
X5819Y7909D01*
X5843Y7925D01*
X5866Y7943D01*
X5889Y7925D01*
X5913Y7909D01*
X5939Y7896D01*
X5966Y7887D01*
X5995Y7881D01*
X6023Y7880D01*
X6052Y7881D01*
X6080Y7887D01*
X6108Y7896D01*
X6134Y7909D01*
X6158Y7925D01*
X6179Y7944D01*
X6182D01*
X6203Y7925D01*
X6227Y7909D01*
X6253Y7896D01*
X6280Y7887D01*
X6309Y7881D01*
X6338Y7880D01*
X6366Y7881D01*
X6395Y7887D01*
X6422Y7896D01*
X6448Y7909D01*
X6472Y7925D01*
X6495Y7943D01*
X6519Y7925D01*
X6543Y7909D01*
X6569Y7896D01*
X6596Y7887D01*
X6624Y7881D01*
X6653Y7880D01*
X6682Y7881D01*
X6710Y7887D01*
X6738Y7896D01*
X6763Y7909D01*
X6787Y7925D01*
X6809Y7944D01*
X6828Y7966D01*
X6844Y7990D01*
X6857Y8016D01*
X6866Y8043D01*
X6872Y8071D01*
X6874Y8100D01*
X6920Y8136D01*
X7740D01*
X7744Y8117D01*
X7751Y8095D01*
X7761Y8075D01*
X7774Y8056D01*
X7789Y8038D01*
X7933Y7894D01*
X7950Y7879D01*
X7969Y7867D01*
X7990Y7856D01*
X8011Y7849D01*
X8034Y7845D01*
X8057Y7843D01*
X10181D01*
Y7545D01*
X10147Y7497D01*
X10118Y7496D01*
X10090Y7490D01*
X10063Y7481D01*
X10037Y7468D01*
X10013Y7452D01*
X9991Y7433D01*
X9972Y7411D01*
X9956Y7387D01*
X9943Y7361D01*
X9934Y7334D01*
X9929Y7307D01*
X9827Y7205D01*
X9815Y7213D01*
X9792Y7226D01*
X9767Y7237D01*
X9741Y7244D01*
X9715Y7248D01*
X9688Y7250D01*
X9662Y7248D01*
X9635Y7244D01*
X9610Y7237D01*
X9585Y7226D01*
X9562Y7213D01*
X9540Y7198D01*
X9520Y7180D01*
X9502Y7160D01*
X9487Y7138D01*
X9474Y7115D01*
X9464Y7090D01*
X9456Y7065D01*
X9452Y7038D01*
X9450Y7012D01*
X9452Y6985D01*
X9456Y6959D01*
X9464Y6933D01*
X9474Y6908D01*
X9487Y6885D01*
X9502Y6863D01*
X9520Y6843D01*
X9540Y6826D01*
X9562Y6810D01*
X9585Y6797D01*
X9610Y6787D01*
X9635Y6780D01*
X9662Y6775D01*
X9688Y6774D01*
X9715Y6775D01*
X9741Y6780D01*
X9767Y6787D01*
X9792Y6797D01*
X9815Y6810D01*
X9837Y6826D01*
X9849Y6836D01*
X9882D01*
X9905Y6838D01*
X9927Y6842D01*
X9949Y6850D01*
X9970Y6860D01*
X9989Y6873D01*
X10006Y6888D01*
X10131Y7013D01*
X10181Y6992D01*
Y6685D01*
X10853D01*
Y7843D01*
X11165D01*
Y6685D01*
X11184D01*
X11209Y6635D01*
X11194Y6615D01*
X8994D01*
X8993Y6616D01*
X8982Y6665D01*
X9005Y6679D01*
X9037Y6702D01*
X9066Y6729D01*
X9093Y6759D01*
X9116Y6791D01*
X9137Y6825D01*
X9154Y6861D01*
X9167Y6898D01*
X9177Y6937D01*
X9183Y6976D01*
X9185Y7016D01*
X9183Y7056D01*
X9177Y7095D01*
X9167Y7134D01*
X9154Y7171D01*
X9137Y7207D01*
X9116Y7241D01*
X9093Y7273D01*
X9066Y7303D01*
X9037Y7329D01*
X9005Y7353D01*
X8970Y7374D01*
X8934Y7391D01*
X8897Y7404D01*
X8858Y7414D01*
X8819Y7420D01*
X8779Y7422D01*
X8739Y7420D01*
X8700Y7414D01*
X8661Y7404D01*
X8644Y7398D01*
X8625Y7412D01*
X8609Y7438D01*
X8617Y7454D01*
X8626Y7481D01*
X8632Y7510D01*
X8633Y7539D01*
X8632Y7567D01*
X8626Y7596D01*
X8617Y7623D01*
X8604Y7649D01*
X8588Y7673D01*
X8569Y7694D01*
X8547Y7713D01*
X8523Y7729D01*
X8497Y7742D01*
X8470Y7751D01*
X8442Y7757D01*
X8413Y7759D01*
X8384Y7757D01*
X8356Y7751D01*
X8329Y7742D01*
X8303Y7729D01*
X8279Y7713D01*
X8257Y7694D01*
X8238Y7673D01*
X8222Y7649D01*
X8209Y7623D01*
X8200Y7596D01*
X8194Y7567D01*
X8192Y7539D01*
X8194Y7510D01*
X8200Y7481D01*
X8209Y7454D01*
X8222Y7428D01*
X8238Y7404D01*
X8257Y7383D01*
X8279Y7364D01*
X8303Y7348D01*
X8329Y7335D01*
X8356Y7326D01*
X8384Y7320D01*
X8413Y7318D01*
X8440Y7320D01*
X8443Y7318D01*
X8466Y7274D01*
X8466Y7273D01*
X8442Y7241D01*
X8422Y7207D01*
X8404Y7171D01*
X8391Y7134D01*
X8381Y7095D01*
X8376Y7056D01*
X8374Y7016D01*
X8376Y6976D01*
X8381Y6937D01*
X8391Y6898D01*
X8404Y6861D01*
X8422Y6825D01*
X8442Y6791D01*
X8466Y6759D01*
X8492Y6729D01*
X8522Y6702D01*
X8554Y6679D01*
X8577Y6665D01*
X8565Y6616D01*
X8565Y6615D01*
X5394D01*
X5394Y6615D01*
X5368Y6613D01*
X5343Y6608D01*
X5318Y6600D01*
X5294Y6588D01*
X5272Y6573D01*
X5253Y6556D01*
X5253Y6556D01*
X4833Y6137D01*
X4251D01*
Y6145D01*
X3808D01*
Y6154D01*
X3411D01*
Y6137D01*
X3087D01*
X3086Y6138D01*
X3062Y6151D01*
X3038Y6161D01*
X3012Y6168D01*
X2986Y6173D01*
X2959Y6174D01*
X2932Y6173D01*
X2906Y6168D01*
X2880Y6161D01*
X2856Y6151D01*
X2832Y6138D01*
X2831Y6137D01*
X2684D01*
Y6155D01*
X1874D01*
Y5718D01*
Y5593D01*
X2684D01*
Y5736D01*
X2830D01*
X2832Y5735D01*
X2856Y5722D01*
X2880Y5711D01*
X2906Y5704D01*
X2932Y5700D01*
X2959Y5698D01*
X2986Y5700D01*
X3012Y5704D01*
X3038Y5711D01*
X3062Y5722D01*
X3086Y5735D01*
X3088Y5736D01*
X3411D01*
Y5593D01*
X3609D01*
Y5543D01*
X3659D01*
Y5324D01*
X3736D01*
Y5118D01*
X3943D01*
Y5365D01*
X3993D01*
Y5415D01*
X4251D01*
Y5613D01*
X4251D01*
Y5649D01*
X4251D01*
Y5736D01*
X4916D01*
X4943Y5738D01*
X4968Y5743D01*
X4993Y5751D01*
X5017Y5763D01*
X5038Y5777D01*
X5058Y5795D01*
X5477Y6214D01*
X11294D01*
X11321Y6216D01*
X11346Y6221D01*
X11371Y6229D01*
X11395Y6241D01*
X11416Y6255D01*
X11436Y6273D01*
X11643Y6480D01*
X11660Y6499D01*
X11675Y6521D01*
X11687Y6545D01*
X11695Y6570D01*
X11700Y6595D01*
X11702Y6621D01*
Y6685D01*
X11838D01*
Y7843D01*
X12149D01*
Y6685D01*
X12310D01*
Y6569D01*
X12302Y6560D01*
X12287Y6538D01*
X12274Y6515D01*
X12264Y6490D01*
X12256Y6465D01*
X12252Y6438D01*
X12250Y6412D01*
X12251Y6401D01*
X11342Y5492D01*
X11325Y5473D01*
X11312Y5451D01*
X11302Y5428D01*
X11296Y5403D01*
X11294Y5378D01*
Y5080D01*
X11205D01*
Y4692D01*
X7025D01*
X7005Y4691D01*
X6985Y4686D01*
X6966Y4678D01*
X6949Y4667D01*
X6933Y4654D01*
X6238Y3959D01*
X1493D01*
X1473Y3957D01*
X1453Y3953D01*
X1434Y3945D01*
X1416Y3934D01*
X1401Y3921D01*
X832Y3352D01*
X103D01*
Y8991D01*
X5195D01*
Y8680D01*
D02*
G37*
%LPC*%
G36*
X21610Y8896D02*
X21567Y8894D01*
X21524Y8889D01*
X21482Y8879D01*
X21440Y8866D01*
X21400Y8850D01*
X21362Y8830D01*
X21325Y8806D01*
X21291Y8780D01*
X21259Y8751D01*
X21230Y8719D01*
X21204Y8685D01*
X21180Y8648D01*
X21160Y8610D01*
X21144Y8570D01*
X21131Y8528D01*
X21121Y8486D01*
X21116Y8443D01*
X21114Y8400D01*
X21116Y8357D01*
X21121Y8314D01*
X21131Y8272D01*
X21144Y8230D01*
X21160Y8190D01*
X21180Y8152D01*
X21204Y8115D01*
X21230Y8081D01*
X21259Y8049D01*
X21291Y8020D01*
X21325Y7994D01*
X21362Y7970D01*
X21400Y7950D01*
X21440Y7934D01*
X21482Y7921D01*
X21524Y7911D01*
X21567Y7906D01*
X21610Y7904D01*
X21653Y7906D01*
X21696Y7911D01*
X21738Y7921D01*
X21780Y7934D01*
X21820Y7950D01*
X21858Y7970D01*
X21895Y7994D01*
X21929Y8020D01*
X21961Y8049D01*
X21990Y8081D01*
X22016Y8115D01*
X22040Y8152D01*
X22060Y8190D01*
X22076Y8230D01*
X22089Y8272D01*
X22099Y8314D01*
X22104Y8357D01*
X22106Y8400D01*
X22104Y8443D01*
X22099Y8486D01*
X22089Y8528D01*
X22076Y8570D01*
X22060Y8610D01*
X22040Y8648D01*
X22016Y8685D01*
X21990Y8719D01*
X21961Y8751D01*
X21929Y8780D01*
X21895Y8806D01*
X21858Y8830D01*
X21820Y8850D01*
X21780Y8866D01*
X21738Y8879D01*
X21696Y8889D01*
X21653Y8894D01*
X21610Y8896D01*
D02*
G37*
G36*
X21187Y6923D02*
X21039D01*
Y6755D01*
X21187D01*
Y6923D01*
D02*
G37*
G36*
X23029Y5224D02*
X22881D01*
Y5056D01*
X23029D01*
Y5224D01*
D02*
G37*
G36*
X22180Y5220D02*
X22031D01*
Y5052D01*
X22180D01*
Y5220D01*
D02*
G37*
G36*
X21931D02*
X21783D01*
Y5052D01*
X21931D01*
Y5220D01*
D02*
G37*
G36*
X15522Y6050D02*
X15354D01*
Y5901D01*
X15522D01*
Y6050D01*
D02*
G37*
G36*
X16502Y3700D02*
X16334D01*
Y3551D01*
X16502D01*
Y3700D01*
D02*
G37*
G36*
X5343Y8580D02*
X5195D01*
Y8136D01*
X5343D01*
Y8580D01*
D02*
G37*
G36*
X5000Y7422D02*
X4960Y7420D01*
X4921Y7414D01*
X4882Y7404D01*
X4844Y7391D01*
X4809Y7374D01*
X4774Y7353D01*
X4742Y7329D01*
X4713Y7303D01*
X4686Y7273D01*
X4662Y7241D01*
X4642Y7207D01*
X4625Y7171D01*
X4612Y7134D01*
X4602Y7095D01*
X4596Y7056D01*
X4594Y7016D01*
X4596Y6976D01*
X4602Y6937D01*
X4612Y6898D01*
X4625Y6861D01*
X4642Y6825D01*
X4662Y6791D01*
X4686Y6759D01*
X4713Y6729D01*
X4742Y6702D01*
X4774Y6679D01*
X4809Y6658D01*
X4844Y6641D01*
X4882Y6628D01*
X4921Y6618D01*
X4960Y6612D01*
X5000Y6610D01*
X5039Y6612D01*
X5079Y6618D01*
X5117Y6628D01*
X5155Y6641D01*
X5191Y6658D01*
X5225Y6679D01*
X5257Y6702D01*
X5287Y6729D01*
X5313Y6759D01*
X5337Y6791D01*
X5357Y6825D01*
X5374Y6861D01*
X5388Y6898D01*
X5398Y6937D01*
X5403Y6976D01*
X5405Y7016D01*
X5403Y7056D01*
X5398Y7095D01*
X5388Y7134D01*
X5374Y7171D01*
X5357Y7207D01*
X5337Y7241D01*
X5313Y7273D01*
X5287Y7303D01*
X5257Y7329D01*
X5225Y7353D01*
X5191Y7374D01*
X5155Y7391D01*
X5117Y7404D01*
X5079Y7414D01*
X5039Y7420D01*
X5000Y7422D01*
D02*
G37*
G36*
X1208Y6903D02*
X299D01*
Y6230D01*
X1208D01*
Y6903D01*
D02*
G37*
G36*
X8071Y6152D02*
X8042Y6150D01*
X8013Y6145D01*
X7986Y6135D01*
X7960Y6123D01*
X7936Y6107D01*
X7915Y6088D01*
X7911D01*
X7890Y6107D01*
X7866Y6123D01*
X7840Y6135D01*
X7813Y6145D01*
X7784Y6150D01*
X7756Y6152D01*
X7727Y6150D01*
X7699Y6145D01*
X7671Y6135D01*
X7645Y6123D01*
X7621Y6107D01*
X7598Y6089D01*
X7575Y6107D01*
X7551Y6123D01*
X7525Y6135D01*
X7498Y6145D01*
X7469Y6150D01*
X7441Y6152D01*
X7412Y6150D01*
X7384Y6145D01*
X7356Y6135D01*
X7330Y6123D01*
X7306Y6107D01*
X7285Y6088D01*
X7282D01*
X7260Y6107D01*
X7236Y6123D01*
X7210Y6135D01*
X7183Y6145D01*
X7154Y6150D01*
X7126Y6152D01*
X7097Y6150D01*
X7069Y6145D01*
X7041Y6135D01*
X7015Y6123D01*
X6991Y6107D01*
X6970Y6088D01*
X6951Y6066D01*
X6935Y6042D01*
X6922Y6016D01*
X6913Y5989D01*
X6907Y5961D01*
X6905Y5932D01*
X6859Y5895D01*
X5352D01*
Y4908D01*
X8336D01*
Y5402D01*
Y5897D01*
X8291Y5932D01*
X8289Y5961D01*
X8284Y5989D01*
X8274Y6016D01*
X8262Y6042D01*
X8245Y6066D01*
X8226Y6088D01*
X8205Y6107D01*
X8181Y6123D01*
X8155Y6135D01*
X8128Y6145D01*
X8099Y6150D01*
X8071Y6152D01*
D02*
G37*
G36*
X8584Y5895D02*
X8436D01*
Y5452D01*
X8584D01*
Y5895D01*
D02*
G37*
G36*
X2909Y5559D02*
X2906Y5559D01*
X2880Y5551D01*
X2856Y5541D01*
X2832Y5528D01*
X2810Y5513D01*
X2790Y5495D01*
X2773Y5475D01*
X2757Y5453D01*
X2744Y5430D01*
X2734Y5405D01*
X2734Y5405D01*
X2684Y5412D01*
Y5493D01*
X2329D01*
Y5325D01*
X2671D01*
X2681Y5325D01*
X2702Y5312D01*
X2723Y5297D01*
X2727Y5273D01*
X2734Y5248D01*
X2744Y5223D01*
X2757Y5200D01*
X2773Y5178D01*
X2790Y5158D01*
X2810Y5140D01*
X2832Y5125D01*
X2856Y5112D01*
X2880Y5102D01*
X2906Y5094D01*
X2909Y5094D01*
Y5326D01*
Y5559D01*
D02*
G37*
G36*
X3009D02*
Y5376D01*
X3192D01*
X3191Y5379D01*
X3184Y5405D01*
X3174Y5430D01*
X3161Y5453D01*
X3145Y5475D01*
X3127Y5495D01*
X3107Y5513D01*
X3086Y5528D01*
X3062Y5541D01*
X3038Y5551D01*
X3012Y5559D01*
X3009Y5559D01*
D02*
G37*
G36*
X2229Y5493D02*
X1874D01*
Y5325D01*
X2229D01*
Y5493D01*
D02*
G37*
G36*
X3559Y5493D02*
X3411D01*
Y5324D01*
X3559D01*
Y5493D01*
D02*
G37*
G36*
X4251Y5315D02*
X4043D01*
Y5118D01*
X4251D01*
Y5315D01*
D02*
G37*
G36*
X3192Y5276D02*
X3009D01*
Y5094D01*
X3012Y5094D01*
X3038Y5102D01*
X3062Y5112D01*
X3086Y5125D01*
X3107Y5140D01*
X3127Y5158D01*
X3145Y5178D01*
X3161Y5200D01*
X3174Y5223D01*
X3184Y5248D01*
X3191Y5273D01*
X3192Y5276D01*
D02*
G37*
G36*
X8584Y5352D02*
X8436D01*
Y4908D01*
X8584D01*
Y5352D01*
D02*
G37*
G36*
X1208Y5249D02*
X299D01*
Y4577D01*
X1208D01*
Y5249D01*
D02*
G37*
G36*
X670Y4506D02*
X627Y4504D01*
X584Y4499D01*
X542Y4489D01*
X500Y4476D01*
X460Y4460D01*
X422Y4440D01*
X385Y4416D01*
X351Y4390D01*
X319Y4361D01*
X290Y4329D01*
X264Y4295D01*
X240Y4258D01*
X220Y4220D01*
X204Y4180D01*
X191Y4138D01*
X181Y4096D01*
X176Y4053D01*
X174Y4010D01*
X176Y3967D01*
X181Y3924D01*
X191Y3882D01*
X204Y3840D01*
X220Y3800D01*
X240Y3762D01*
X264Y3725D01*
X290Y3691D01*
X319Y3659D01*
X351Y3630D01*
X385Y3604D01*
X422Y3580D01*
X460Y3560D01*
X500Y3544D01*
X542Y3531D01*
X584Y3521D01*
X627Y3516D01*
X670Y3514D01*
X713Y3516D01*
X756Y3521D01*
X798Y3531D01*
X840Y3544D01*
X880Y3560D01*
X918Y3580D01*
X955Y3604D01*
X989Y3630D01*
X1021Y3659D01*
X1050Y3691D01*
X1076Y3725D01*
X1100Y3762D01*
X1120Y3800D01*
X1136Y3840D01*
X1149Y3882D01*
X1159Y3924D01*
X1164Y3967D01*
X1166Y4010D01*
X1164Y4053D01*
X1159Y4096D01*
X1149Y4138D01*
X1136Y4180D01*
X1120Y4220D01*
X1100Y4258D01*
X1076Y4295D01*
X1050Y4329D01*
X1021Y4361D01*
X989Y4390D01*
X955Y4416D01*
X918Y4440D01*
X880Y4460D01*
X840Y4476D01*
X798Y4489D01*
X756Y4499D01*
X713Y4504D01*
X670Y4506D01*
D02*
G37*
%LPD*%
D12*
X19187Y4808D02*
X20561Y3435D01*
X19060Y4808D02*
X19187D01*
X20561Y3435D02*
X22087D01*
X19958Y3600D02*
Y3867D01*
X19758Y3390D02*
Y3884D01*
X19558Y3600D02*
Y3720D01*
X19048Y3700D02*
X19148Y3600D01*
X19221Y3810D02*
X19358Y3673D01*
X19148Y4493D02*
X19758Y3884D01*
X19358Y3390D02*
Y3673D01*
X18717Y3810D02*
X19221D01*
X18748Y3590D02*
X18948Y3390D01*
X18616Y3590D02*
X18748D01*
X18668Y3700D02*
X19048D01*
X18578Y3949D02*
X18717Y3810D01*
X18798Y3920D02*
X19358D01*
X18735Y3982D02*
X18798Y3920D01*
X19060Y4651D02*
X19174D01*
X7025Y4562D02*
X14885D01*
X7071Y4452D02*
X14945D01*
X12005Y4820D02*
X12583D01*
X22782Y3655D02*
X23148Y3289D01*
X23643D01*
X20680Y3655D02*
X22782D01*
X18735Y6918D02*
X19061Y7244D01*
X17661Y8616D02*
X18331D01*
X19061Y7885D01*
X18433Y7022D02*
X18642Y7231D01*
X6338Y8100D02*
Y8630D01*
X17871Y8416D02*
X18373D01*
X18642Y8147D01*
X18218Y6897D02*
Y7968D01*
X17971Y8216D02*
X18218Y7968D01*
X17661Y8216D02*
X17971D01*
X17661Y7816D02*
X17983Y7494D01*
X18218Y6897D02*
X18420Y6695D01*
X17871Y8016D02*
X18100Y7786D01*
X17661Y7526D02*
X17865Y7322D01*
X17747Y6702D02*
Y7159D01*
X12977Y4820D02*
X13247D01*
X15350Y3682D02*
X16476Y4808D01*
X15293Y3792D02*
X16467Y4966D01*
X15236Y3902D02*
X16458Y5123D01*
X15173Y4012D02*
X16442Y5281D01*
X15116Y4122D02*
X16433Y5438D01*
X15058Y4232D02*
X16422Y5596D01*
X15002Y4342D02*
X16413Y5753D01*
X14945Y4452D02*
X16404Y5911D01*
X14885Y4562D02*
X16392Y6068D01*
X15395Y3572D02*
X16474Y4651D01*
X19358Y3920D02*
X19558Y3720D01*
X19174Y4651D02*
X19958Y3867D01*
X17473Y3415D02*
Y4169D01*
X19060Y4493D02*
X19148D01*
X19200Y4966D02*
X20621Y3545D01*
X19212Y5123D02*
X20680Y3655D01*
X18105Y3942D02*
X18658Y3390D01*
X18105Y3942D02*
Y4169D01*
X18263Y3943D02*
X18616Y3590D01*
X18263Y3943D02*
Y4169D01*
X18578Y3949D02*
Y4169D01*
X18420Y3947D02*
X18668Y3700D01*
X18420Y3947D02*
Y4169D01*
X17948Y3810D02*
X18368Y3390D01*
X17948Y3810D02*
Y4169D01*
X17792Y3674D02*
X18078Y3390D01*
X17635Y3541D02*
X17788Y3390D01*
X17473Y3415D02*
X17498Y3390D01*
X17208D02*
Y3520D01*
X17318Y3630D01*
X17790Y4169D02*
X17792Y3674D01*
X17318Y3630D02*
Y4169D01*
X17160Y3634D02*
Y4169D01*
X16878Y3352D02*
X17160Y3634D01*
X11956Y3352D02*
X16878D01*
X15441Y3462D02*
X16472Y4493D01*
X6653Y8100D02*
Y8630D01*
X6023Y8100D02*
Y8630D01*
X5708Y8100D02*
Y8630D01*
X8071Y5402D02*
Y5932D01*
X7756Y5402D02*
Y5932D01*
X7441Y5402D02*
Y5932D01*
X7126Y5402D02*
Y5932D01*
X18642Y7231D02*
Y8147D01*
X19061Y7244D02*
Y7885D01*
X18668Y649D02*
Y1969D01*
X17959Y649D02*
Y1969D01*
X17250Y649D02*
Y1969D01*
X16542Y649D02*
Y1969D01*
X15833Y649D02*
Y1969D01*
X15124Y649D02*
Y1969D01*
X14416Y658D02*
Y1969D01*
X13707Y649D02*
Y1969D01*
X12998Y649D02*
Y1969D01*
X12290Y649D02*
Y1969D01*
X636Y2971D02*
X636Y1969D01*
X636Y2971D02*
X1493Y3828D01*
X1345Y1969D02*
Y2970D01*
X2093Y3719D01*
X2053Y1969D02*
Y2969D01*
X2693Y3609D01*
X2093Y3719D02*
X6338D01*
X1493Y3828D02*
X6292D01*
X2693Y3609D02*
X6383D01*
X6338Y3719D02*
X7071Y4452D01*
X6292Y3828D02*
X7025Y4562D01*
X6383Y3609D02*
X7116Y4342D01*
X5912Y1969D02*
Y2977D01*
X7166Y4232D01*
X6620Y1969D02*
Y2976D01*
X7766Y4122D01*
X7329Y1969D02*
Y2974D01*
X8366Y4012D01*
X8038Y1969D02*
Y2973D01*
X8966Y3902D01*
X8746Y1969D02*
Y2972D01*
X9566Y3792D01*
X9455Y2970D02*
X9455Y1969D01*
X9455Y2970D02*
X10166Y3682D01*
X10164Y1969D02*
Y2969D01*
X10766Y3572D01*
X10872Y1969D02*
Y2968D01*
X11366Y3462D01*
X11581Y1969D02*
Y2976D01*
X11956Y3352D01*
X23964Y1969D02*
Y2967D01*
X23643Y3289D02*
X23964Y2967D01*
X23256Y1969D02*
Y2976D01*
X22687Y3545D02*
X23256Y2976D01*
X20621Y3545D02*
X22687D01*
X22547Y1969D02*
Y2974D01*
X22087Y3435D02*
X22547Y2974D01*
X24673Y1969D02*
Y3289D01*
X18735Y3982D02*
Y4169D01*
X17633D02*
X17635Y3541D01*
X11366Y3462D02*
X15441D01*
X16472Y4493D02*
X16678D01*
X10766Y3572D02*
X15395D01*
X16467Y4966D02*
X16678D01*
X9566Y3792D02*
X15293Y3792D01*
X16458Y5123D02*
X16678D01*
X8966Y3902D02*
X15236Y3902D01*
X8366Y4012D02*
X15173Y4012D01*
X7766Y4122D02*
X15116Y4122D01*
X7166Y4232D02*
X15058Y4232D01*
X7116Y4342D02*
X15002Y4342D01*
X10166Y3682D02*
X15350D01*
X16474Y4651D02*
X16678D01*
X17790Y4169D02*
X17791Y4167D01*
X16476Y4808D02*
X16678D01*
X16442Y5281D02*
X16678D01*
X16433Y5438D02*
X16678D01*
X16422Y5596D02*
X16678D01*
X16413Y5753D02*
X16678D01*
X16404Y5911D02*
X16678D01*
X16392Y6068D02*
X16678D01*
X18578Y6551D02*
Y6884D01*
X17790Y6551D02*
Y6658D01*
X18735Y6551D02*
Y6918D01*
X18449Y7012D02*
X18578Y6884D01*
X18100Y6848D02*
Y7786D01*
X17983Y6799D02*
Y7494D01*
X17865Y6751D02*
Y7322D01*
X17747Y6702D02*
X17790Y6658D01*
X17865Y6751D02*
X17948Y6668D01*
X17983Y6799D02*
X18105Y6677D01*
X18100Y6848D02*
X18263Y6686D01*
X17948Y6551D02*
Y6668D01*
X18105Y6551D02*
Y6677D01*
X18263Y6551D02*
Y6686D01*
X18420Y6551D02*
Y6695D01*
X19589Y6742D02*
Y6952D01*
X19278Y6431D02*
X19589Y6742D01*
X19278Y6172D02*
Y6431D01*
X19398Y6319D02*
X19398Y6121D01*
X19398Y6384D02*
X19653Y6640D01*
X19398Y6319D02*
Y6384D01*
X19589Y6952D02*
X19609Y6973D01*
X19589Y6952D02*
Y6973D01*
X19609D02*
X19946D01*
X19653Y6640D02*
X20219D01*
X20289Y6710D01*
X19060Y5123D02*
X19212D01*
X19060Y4966D02*
X19200D01*
X19946Y6973D02*
X20024Y6894D01*
X19212Y5596D02*
X19656Y6040D01*
X19060Y5596D02*
X19212D01*
X19519Y6073D02*
X19519Y6172D01*
X19200Y5753D02*
X19519Y6073D01*
X19060Y5753D02*
X19200D01*
X19187Y5911D02*
X19398Y6121D01*
X19060Y5911D02*
X19187D01*
X19174Y6068D02*
X19278Y6172D01*
X19060Y6068D02*
X19174D01*
X19656Y6040D02*
X19759D01*
X19519Y6172D02*
X19710Y6362D01*
X20506Y7366D02*
X20989D01*
X20289Y6710D02*
Y7150D01*
X20506Y7366D01*
X19913Y6920D02*
X19999D01*
X18729Y4163D02*
X18735Y4169D01*
D16*
X25315Y0D02*
Y9094D01*
X0Y0D02*
Y9094D01*
X25315D01*
X0Y0D02*
X25315D01*
D17*
X23079Y5006D02*
D03*
Y4612D02*
D03*
X21981Y4609D02*
D03*
Y5002D02*
D03*
X3609Y5543D02*
D03*
Y5936D02*
D03*
X18449Y7406D02*
D03*
Y7012D02*
D03*
X18829Y7406D02*
D03*
Y7012D02*
D03*
X20989Y7366D02*
D03*
Y6973D02*
D03*
X19249Y6973D02*
D03*
Y7366D02*
D03*
X19589Y6973D02*
D03*
Y7366D02*
D03*
X19519Y5556D02*
D03*
Y5163D02*
D03*
D18*
X11455Y4820D02*
D03*
X12005D02*
D03*
D19*
X22709Y4612D02*
D03*
X22335D02*
D03*
X20266Y5160D02*
D03*
X19892D02*
D03*
D20*
X12583Y4820D02*
D03*
X12977D02*
D03*
D21*
X16678Y6226D02*
D03*
Y6068D02*
D03*
Y5911D02*
D03*
Y5753D02*
D03*
Y5596D02*
D03*
Y5438D02*
D03*
Y5281D02*
D03*
Y5123D02*
D03*
Y4966D02*
D03*
Y4808D02*
D03*
Y4651D02*
D03*
Y4493D02*
D03*
X19060D02*
D03*
Y4651D02*
D03*
Y4808D02*
D03*
Y4966D02*
D03*
Y5123D02*
D03*
Y5281D02*
D03*
Y5438D02*
D03*
Y5596D02*
D03*
Y5753D02*
D03*
Y5911D02*
D03*
Y6068D02*
D03*
Y6226D02*
D03*
D22*
X17003Y4169D02*
D03*
X17160D02*
D03*
X17318D02*
D03*
X17475D02*
D03*
X17633D02*
D03*
X17790D02*
D03*
X17948D02*
D03*
X18105D02*
D03*
X18263D02*
D03*
X18420D02*
D03*
X18578D02*
D03*
X18735D02*
D03*
Y6551D02*
D03*
X18578D02*
D03*
X18420D02*
D03*
X18263D02*
D03*
X18105D02*
D03*
X17948D02*
D03*
X17790D02*
D03*
X17633D02*
D03*
X17475D02*
D03*
X17318D02*
D03*
X17160D02*
D03*
X17003D02*
D03*
D23*
X17869Y5360D02*
D03*
D25*
X2279Y5936D02*
D03*
Y5543D02*
D03*
D26*
X753Y6566D02*
D03*
Y4913D02*
D03*
D27*
X11501Y7277D02*
D03*
X12486D02*
D03*
X10517D02*
D03*
D28*
X3993Y5897D02*
D03*
Y5365D02*
D03*
X17049Y7577D02*
D03*
Y7046D02*
D03*
D29*
X670Y4010D02*
D03*
X21610Y8400D02*
D03*
D30*
X17030Y8268D02*
D03*
X16688Y8675D02*
D03*
D31*
X16709Y7988D02*
D03*
X16469Y8275D02*
D03*
D32*
X15966Y6100D02*
D03*
X15572D02*
D03*
X16946Y3750D02*
D03*
X16552D02*
D03*
X19752Y6390D02*
D03*
X20146D02*
D03*
X20146Y6040D02*
D03*
X19752D02*
D03*
D33*
X20003Y6943D02*
D03*
Y7396D02*
D03*
X20574D02*
D03*
Y6943D02*
D03*
D34*
X15503Y6510D02*
D03*
X16035D02*
D03*
D55*
X8779Y7016D02*
D03*
X5000D02*
D03*
D59*
X21171Y4895D02*
G03*
X21871Y4605I700J700D01*
G01*
X21171Y4895D02*
G03*
X20533Y5160I-638J-638D01*
G01*
X21871Y4605D02*
X22334D01*
X20266Y5160D02*
X20533D01*
D60*
X2959Y5936D02*
D03*
Y5326D02*
D03*
X12488Y6412D02*
D03*
X9688Y7012D02*
D03*
D61*
X636Y1969D02*
D03*
X1345D02*
D03*
X2053D02*
D03*
X5912D02*
D03*
X6620D02*
D03*
X7329D02*
D03*
X8038D02*
D03*
X8746D02*
D03*
X9455D02*
D03*
X10164D02*
D03*
X10872D02*
D03*
X11581D02*
D03*
X12290D02*
D03*
X12998D02*
D03*
X13707D02*
D03*
X14416D02*
D03*
X15124D02*
D03*
X15833D02*
D03*
X16542D02*
D03*
X17250D02*
D03*
X17959D02*
D03*
X18668D02*
D03*
X22547D02*
D03*
X23256D02*
D03*
X23964D02*
D03*
X24673D02*
D03*
D62*
X5551Y5402D02*
D03*
X5866D02*
D03*
X5393Y8630D02*
D03*
X5708D02*
D03*
X6023D02*
D03*
X6181Y5402D02*
D03*
X6338Y8630D02*
D03*
X6496Y5402D02*
D03*
X7126D02*
D03*
X6968Y8630D02*
D03*
X7441Y5402D02*
D03*
X7283Y8630D02*
D03*
X7756Y5402D02*
D03*
X7598Y8630D02*
D03*
X8071Y5402D02*
D03*
X7913Y8630D02*
D03*
X8386Y5402D02*
D03*
X8228Y8630D02*
D03*
X6811Y5402D02*
D03*
X6653Y8630D02*
D03*
D63*
X22708Y4615D02*
X23061D01*
X23081Y4605D02*
X25156D01*
X16719Y4029D02*
Y4269D01*
Y4029D02*
X16946Y3803D01*
X23987Y7839D02*
X25156D01*
X23997Y6289D02*
X25156D01*
X23997Y5479D02*
X25156D01*
X23987Y7069D02*
X25156D01*
X23989Y8579D02*
X25156D01*
Y7839D02*
Y8579D01*
Y4605D02*
Y5479D01*
Y6289D02*
Y7069D01*
X23987D02*
Y7839D01*
X23997Y5479D02*
Y6289D01*
X19039Y6749D02*
Y6807D01*
X19205Y6973D01*
X19249D01*
X19089Y6459D02*
X19299Y6669D01*
X19239Y6933D02*
X19299Y6872D01*
Y6669D02*
Y6872D01*
X19089Y6255D02*
Y6459D01*
X19060Y6226D02*
X19089Y6255D01*
X16946Y3750D02*
Y3803D01*
X16519Y3782D02*
X16552Y3750D01*
D64*
X11455Y5378D02*
X12488Y6412D01*
X11455Y4820D02*
Y5378D01*
D65*
X16036Y6574D02*
X16070Y6541D01*
X17003Y4169D02*
X17003Y3750D01*
X17311Y6557D02*
Y7987D01*
Y6557D02*
X17318Y6551D01*
X17549Y6780D02*
Y6950D01*
X17475Y6706D02*
X17549Y6780D01*
X17475Y6551D02*
Y6706D01*
X16469Y8275D02*
X17023D01*
X17160Y6563D02*
Y7015D01*
X18112Y5440D02*
X19247D01*
X19360Y5553D02*
X19522D01*
X19247Y5440D02*
X19360Y5553D01*
X19369Y5159D02*
X19522D01*
X19247Y5281D02*
X19369Y5159D01*
X19060Y5281D02*
X19247D01*
X15803Y6807D02*
X16036Y6574D01*
X16070Y6541D02*
X16999D01*
X17475Y6226D02*
Y6551D01*
X17030Y8268D02*
X17311Y7987D01*
D66*
X3993Y5936D02*
X4916D01*
X2279D02*
X3993D01*
X5394Y6414D02*
X11294D01*
X4916Y5936D02*
X5394Y6414D01*
X11501Y6621D02*
Y7277D01*
X11294Y6414D02*
X11501Y6621D01*
X19519Y5161D02*
X19872D01*
D67*
X15770Y6807D02*
Y7315D01*
X9882Y7012D02*
X10147Y7277D01*
X9688Y7012D02*
X9882D01*
X12486Y6414D02*
Y7277D01*
X12489Y8019D02*
X15067D01*
X10147Y7277D02*
X10517D01*
X8228Y8630D02*
X8458D01*
X15067Y8019D02*
X15770Y7315D01*
X8057Y8019D02*
X12489Y8019D01*
X12486Y8015D02*
X12489Y8019D01*
X12486Y7277D02*
Y8015D01*
X7913Y8162D02*
Y8630D01*
Y8162D02*
X8057Y8019D01*
D68*
X17049Y7577D02*
Y7649D01*
X16709Y7988D02*
X17049Y7649D01*
D69*
X15967Y6107D02*
X16086Y6226D01*
X16678D01*
D70*
X10163Y8360D02*
D03*
X12840D02*
D03*
D71*
X3964Y1970D02*
D03*
X20619D02*
D03*
D72*
X22782Y7913D02*
D03*
D73*
X19958Y3600D02*
D03*
X19758Y3390D02*
D03*
X19558Y3600D02*
D03*
X19148D02*
D03*
X18948Y3390D02*
D03*
X19358D02*
D03*
X21851Y7405D02*
D03*
X13871Y4805D02*
D03*
X21411Y3942D02*
D03*
X22792Y4265D02*
D03*
X22292D02*
D03*
X21792D02*
D03*
X21692Y4974D02*
D03*
X21292Y4395D02*
D03*
Y5255D02*
D03*
X20792Y4754D02*
D03*
X23121Y8715D02*
D03*
Y7205D02*
D03*
Y5525D02*
D03*
Y3943D02*
D03*
X22241Y5002D02*
D03*
X22821Y4982D02*
D03*
X8413Y7539D02*
D03*
X6383Y6049D02*
D03*
X5533D02*
D03*
X7793Y4810D02*
D03*
X17661Y8216D02*
D03*
Y7816D02*
D03*
X13247Y4820D02*
D03*
X16719Y4269D02*
D03*
X17498Y3390D02*
D03*
X17788D02*
D03*
X18658D02*
D03*
X18368D02*
D03*
X18078D02*
D03*
X17208D02*
D03*
X16272Y3630D02*
D03*
X15770Y6807D02*
D03*
X6224Y7780D02*
D03*
X5364D02*
D03*
X4224Y7100D02*
D03*
X2224D02*
D03*
X20427Y4395D02*
D03*
X20792Y5475D02*
D03*
X14474Y7710D02*
D03*
X13344Y6890D02*
D03*
X12004Y7190D02*
D03*
X11004D02*
D03*
X13874Y5770D02*
D03*
X12874D02*
D03*
X11174Y5780D02*
D03*
X9674D02*
D03*
X15075Y5290D02*
D03*
X5034Y5490D02*
D03*
X4750Y6390D02*
D03*
X6833Y4809D02*
D03*
X5534Y4080D02*
D03*
X3764D02*
D03*
X1994D02*
D03*
X224Y3560D02*
D03*
X1839Y5543D02*
D03*
X3989Y5053D02*
D03*
X3609Y5263D02*
D03*
X8631Y5426D02*
D03*
X8224Y6870D02*
D03*
X6224D02*
D03*
X224Y5331D02*
D03*
X23121Y6365D02*
D03*
X224Y7100D02*
D03*
X22224Y8870D02*
D03*
X21571Y6255D02*
D03*
X20224Y8870D02*
D03*
X18224D02*
D03*
X15674D02*
D03*
X13934D02*
D03*
X12224D02*
D03*
X10224D02*
D03*
X9224D02*
D03*
X5164Y8630D02*
D03*
X4224Y8870D02*
D03*
X2224D02*
D03*
X224D02*
D03*
X20574Y6643D02*
D03*
X5708Y8100D02*
D03*
X6023D02*
D03*
X6338D02*
D03*
X6653D02*
D03*
X7126Y5932D02*
D03*
X7441D02*
D03*
X7756D02*
D03*
X8071D02*
D03*
X10147Y7277D02*
D03*
X8458Y8630D02*
D03*
X17661Y8616D02*
D03*
X17871Y8416D02*
D03*
Y8016D02*
D03*
X17661Y7526D02*
D03*
Y7236D02*
D03*
X18668Y649D02*
D03*
X17959D02*
D03*
X17250D02*
D03*
X16542D02*
D03*
X15833D02*
D03*
X15124D02*
D03*
X14416Y658D02*
D03*
X13707Y649D02*
D03*
X12998D02*
D03*
X12290D02*
D03*
X24673Y3289D02*
D03*
X18439Y7686D02*
D03*
X18849D02*
D03*
X19039Y6749D02*
D03*
X16639Y6920D02*
D03*
X16476Y8915D02*
D03*
X20292Y4830D02*
D03*
X20989Y6686D02*
D03*
X20003Y7696D02*
D03*
X19589Y7649D02*
D03*
X19269D02*
D03*
X15292Y6102D02*
D03*
X20426Y6040D02*
D03*
Y6390D02*
D03*
X20292Y5495D02*
D03*
X17539Y6950D02*
D03*
X16188Y7012D02*
D03*
X15392Y6832D02*
D03*
D74*
X17160Y6068D02*
D03*
X17633D02*
D03*
X18105D02*
D03*
X18578D02*
D03*
X17160Y5596D02*
D03*
X17633D02*
D03*
X18105D02*
D03*
X18578D02*
D03*
X17160Y5123D02*
D03*
X17633D02*
D03*
X18105D02*
D03*
X18578D02*
D03*
X17160Y4651D02*
D03*
X17633D02*
D03*
X18105D02*
D03*
X18578D02*
D03*
M02*
