G04*
G04 #@! TF.GenerationSoftware,Altium Limited,Altium Designer,21.7.2 (23)*
G04*
G04 Layer_Physical_Order=3*
G04 Layer_Color=16440176*
%FSLAX24Y24*%
%MOIN*%
G70*
G04*
G04 #@! TF.SameCoordinates,43C8A9C3-E03B-469C-A9E8-94EB88380565*
G04*
G04*
G04 #@! TF.FilePolarity,Positive*
G04*
G01*
G75*
%ADD10C,0.0098*%
%ADD13C,0.0079*%
%ADD14C,0.0059*%
%ADD15C,0.0050*%
%ADD66C,0.0118*%
%ADD78R,0.0990X0.0552*%
%ADD79R,0.0560X0.0570*%
%ADD80R,0.0709X0.0531*%
%ADD81R,0.0709X0.0098*%
%ADD84R,0.0440X0.0531*%
%ADD86C,0.0197*%
G36*
X12377Y5287D02*
X12413Y5263D01*
X12456Y5254D01*
X12456Y5254D01*
X12614D01*
Y4794D01*
X12564Y4761D01*
X12524Y4778D01*
X12450Y4787D01*
X12428Y4785D01*
X12399Y4831D01*
X12418Y4860D01*
X12432Y4930D01*
X12418Y5000D01*
X12379Y5059D01*
X12320Y5098D01*
X12250Y5112D01*
X12180Y5098D01*
X12121Y5059D01*
X12082Y5000D01*
X12068Y4930D01*
X12082Y4860D01*
X12121Y4801D01*
X12180Y4762D01*
X12229Y4752D01*
X12241Y4717D01*
X12244Y4700D01*
X12201Y4644D01*
X12172Y4574D01*
X12163Y4500D01*
X12172Y4426D01*
X12201Y4356D01*
X12247Y4297D01*
X12306Y4251D01*
X12376Y4222D01*
X12450Y4213D01*
X12524Y4222D01*
X12564Y4239D01*
X12614Y4206D01*
Y1660D01*
X12601Y1644D01*
X12572Y1574D01*
X12563Y1500D01*
X12572Y1426D01*
X12601Y1356D01*
X12614Y1340D01*
Y746D01*
X12456D01*
X12456Y746D01*
X12413Y737D01*
X12377Y713D01*
X12123Y459D01*
X12077Y478D01*
Y611D01*
X11684D01*
Y611D01*
X10816D01*
Y611D01*
X10766Y611D01*
X10684D01*
X9816D01*
Y178D01*
X9766Y128D01*
X9704D01*
Y216D01*
X8796D01*
Y128D01*
X8684D01*
Y611D01*
X8684Y611D01*
X8684D01*
X8675Y662D01*
X10366Y2352D01*
X10877D01*
X10919Y2361D01*
X10956Y2385D01*
X11124Y2553D01*
X11148Y2589D01*
X11157Y2632D01*
Y2870D01*
X11157Y2870D01*
X11148Y2913D01*
X11124Y2949D01*
X11124Y2949D01*
X11076Y2996D01*
X11086Y3025D01*
X11098Y3045D01*
X11162Y3058D01*
X11221Y3097D01*
X11261Y3156D01*
X11274Y3226D01*
X11261Y3296D01*
X11221Y3355D01*
X11162Y3394D01*
X11093Y3408D01*
X11060Y3401D01*
X11017Y3444D01*
X11019Y3453D01*
X11005Y3522D01*
X10966Y3581D01*
X10949Y3593D01*
Y4555D01*
X10940Y4597D01*
X10916Y4634D01*
X10713Y4837D01*
X10712Y4840D01*
X10730Y4866D01*
X10743Y4936D01*
X10730Y5005D01*
X10690Y5064D01*
X10631Y5104D01*
X10562Y5117D01*
X10551Y5115D01*
X10324Y5342D01*
X10343Y5389D01*
X12096D01*
Y5502D01*
X12143Y5521D01*
X12377Y5287D01*
D02*
G37*
G36*
X2816Y5389D02*
X5699D01*
X5714Y5339D01*
X5699Y5328D01*
X5659Y5269D01*
X5645Y5200D01*
X5659Y5130D01*
X5699Y5071D01*
X5758Y5032D01*
X5827Y5018D01*
X5897Y5032D01*
X5906Y5038D01*
X5956Y5011D01*
Y4783D01*
X5964Y4742D01*
X5987Y4707D01*
X6193Y4501D01*
X6193Y4501D01*
X6228Y4478D01*
X6269Y4470D01*
X6269Y4470D01*
X7059D01*
X7100Y4478D01*
X7135Y4501D01*
X7238Y4605D01*
X7264Y4600D01*
X7333Y4613D01*
X7392Y4653D01*
X7432Y4712D01*
X7446Y4782D01*
X7432Y4851D01*
X7392Y4910D01*
X7333Y4950D01*
X7309Y4954D01*
X7314Y5004D01*
X7450D01*
X7482Y4966D01*
X7476Y4936D01*
X7489Y4866D01*
X7529Y4807D01*
X7588Y4767D01*
X7657Y4754D01*
X7727Y4767D01*
X7786Y4807D01*
X7826Y4866D01*
X7830Y4886D01*
X8450D01*
X8655Y4682D01*
X8691Y4657D01*
X8734Y4649D01*
X9665D01*
X9699Y4599D01*
X9691Y4555D01*
X9704Y4486D01*
X9744Y4427D01*
X9795Y4392D01*
X9793Y4389D01*
X9779Y4319D01*
X9793Y4249D01*
X9819Y4210D01*
Y2570D01*
X8775Y1525D01*
X8728Y1516D01*
X8669Y1477D01*
X8630Y1418D01*
X8626Y1398D01*
X7789D01*
X7770Y1444D01*
X7869Y1543D01*
X7895Y1583D01*
X7905Y1629D01*
Y1689D01*
X7941Y1743D01*
X7955Y1813D01*
X7941Y1882D01*
X7901Y1941D01*
X7842Y1981D01*
X7773Y1995D01*
X7703Y1981D01*
X7644Y1941D01*
X7605Y1882D01*
X7591Y1813D01*
X7605Y1743D01*
X7644Y1684D01*
X7646Y1665D01*
X7517Y1535D01*
X6440Y1535D01*
X6138Y1837D01*
Y2848D01*
X6129Y2895D01*
X6103Y2933D01*
X6105Y2942D01*
X6091Y3011D01*
X6051Y3070D01*
X5992Y3110D01*
X5923Y3124D01*
X5853Y3110D01*
X5794Y3070D01*
X5755Y3011D01*
X5741Y2942D01*
X5755Y2872D01*
X5794Y2813D01*
X5853Y2774D01*
X5895Y2765D01*
Y1787D01*
X5904Y1740D01*
X5931Y1700D01*
X6000Y1631D01*
X5981Y1585D01*
X5812D01*
X5802Y1591D01*
X5733Y1605D01*
X5663Y1591D01*
X5604Y1551D01*
X5565Y1492D01*
X5551Y1423D01*
X5565Y1353D01*
X5604Y1294D01*
X5663Y1255D01*
X5733Y1241D01*
X5802Y1255D01*
X5861Y1294D01*
X5866Y1301D01*
X6071D01*
X6217Y1156D01*
X6263Y1125D01*
X6317Y1114D01*
X8592D01*
X8612Y1068D01*
X8480Y936D01*
X5898D01*
X5855Y928D01*
X5819Y904D01*
X5819Y904D01*
X5526Y611D01*
X2816D01*
Y128D01*
X2766Y128D01*
X2570D01*
Y216D01*
X2250D01*
Y266D01*
X2200D01*
Y632D01*
X2030D01*
Y5368D01*
X2200D01*
Y5734D01*
X2250D01*
Y5784D01*
X2570D01*
Y5870D01*
X2816D01*
X2816Y5389D01*
D02*
G37*
%LPC*%
G36*
X11600Y4772D02*
X11530Y4758D01*
X11471Y4719D01*
X11432Y4660D01*
X11418Y4590D01*
X11432Y4520D01*
X11471Y4461D01*
X11491Y4448D01*
X11532Y4420D01*
X11518Y4350D01*
X11532Y4280D01*
X11571Y4221D01*
X11630Y4182D01*
X11700Y4168D01*
X11770Y4182D01*
X11829Y4221D01*
X11868Y4280D01*
X11882Y4350D01*
X11868Y4420D01*
X11829Y4479D01*
X11809Y4492D01*
X11768Y4520D01*
X11782Y4590D01*
X11768Y4660D01*
X11729Y4719D01*
X11670Y4758D01*
X11600Y4772D01*
D02*
G37*
G36*
X10740Y1902D02*
X10670Y1888D01*
X10611Y1849D01*
X10572Y1790D01*
X10558Y1720D01*
X10572Y1650D01*
X10611Y1591D01*
X10670Y1552D01*
X10740Y1538D01*
X10810Y1552D01*
X10869Y1591D01*
X10908Y1650D01*
X10922Y1720D01*
X10908Y1790D01*
X10869Y1849D01*
X10810Y1888D01*
X10740Y1902D01*
D02*
G37*
G36*
X12050Y1787D02*
X11976Y1778D01*
X11906Y1749D01*
X11847Y1703D01*
X11801Y1644D01*
X11772Y1574D01*
X11763Y1500D01*
X11772Y1426D01*
X11801Y1356D01*
X11847Y1297D01*
X11906Y1251D01*
X11976Y1222D01*
X12050Y1213D01*
X12124Y1222D01*
X12194Y1251D01*
X12253Y1297D01*
X12299Y1356D01*
X12328Y1426D01*
X12337Y1500D01*
X12328Y1574D01*
X12299Y1644D01*
X12253Y1703D01*
X12194Y1749D01*
X12124Y1778D01*
X12050Y1787D01*
D02*
G37*
G36*
X9704Y632D02*
X9300D01*
Y316D01*
X9704D01*
Y632D01*
D02*
G37*
G36*
X9200D02*
X8796D01*
Y316D01*
X9200D01*
Y632D01*
D02*
G37*
G36*
X2570Y5684D02*
X2300D01*
Y5368D01*
X2570D01*
Y5684D01*
D02*
G37*
G36*
X4180Y4672D02*
X4110Y4658D01*
X4051Y4619D01*
X4012Y4560D01*
X3998Y4490D01*
X4012Y4420D01*
X4051Y4361D01*
X4110Y4322D01*
X4180Y4308D01*
X4250Y4322D01*
X4309Y4361D01*
X4348Y4420D01*
X4362Y4490D01*
X4348Y4560D01*
X4309Y4619D01*
X4250Y4658D01*
X4180Y4672D01*
D02*
G37*
G36*
X5197Y4452D02*
X5127Y4438D01*
X5068Y4398D01*
X5029Y4339D01*
X5015Y4270D01*
X5029Y4200D01*
X5068Y4141D01*
X5127Y4102D01*
X5197Y4088D01*
X5266Y4102D01*
X5325Y4141D01*
X5365Y4200D01*
X5379Y4270D01*
X5365Y4339D01*
X5325Y4398D01*
X5266Y4438D01*
X5197Y4452D01*
D02*
G37*
G36*
X9538Y3418D02*
X9468Y3404D01*
X9409Y3365D01*
X9370Y3306D01*
X9356Y3236D01*
X9357Y3230D01*
X9291Y3217D01*
X9232Y3178D01*
X9192Y3119D01*
X9178Y3049D01*
X9192Y2979D01*
X9232Y2920D01*
X9287Y2884D01*
X9289Y2857D01*
X9287Y2831D01*
X9232Y2794D01*
X9192Y2735D01*
X9178Y2665D01*
X9192Y2596D01*
X9232Y2537D01*
X9291Y2497D01*
X9360Y2483D01*
X9430Y2497D01*
X9489Y2537D01*
X9528Y2596D01*
X9542Y2665D01*
X9541Y2671D01*
X9607Y2684D01*
X9666Y2724D01*
X9705Y2783D01*
X9719Y2852D01*
X9705Y2922D01*
X9666Y2981D01*
X9611Y3018D01*
X9608Y3044D01*
X9611Y3071D01*
X9667Y3108D01*
X9706Y3167D01*
X9720Y3236D01*
X9706Y3306D01*
X9667Y3365D01*
X9607Y3404D01*
X9538Y3418D01*
D02*
G37*
G36*
X2570Y632D02*
X2300D01*
Y316D01*
X2570D01*
Y632D01*
D02*
G37*
%LPD*%
D10*
X10148Y5333D02*
X10562Y4919D01*
X6697Y5333D02*
X10148D01*
X6348D02*
X6697D01*
X6221Y5205D02*
X6348Y5333D01*
X6221Y5205D02*
Y5205D01*
D13*
X6697Y4773D02*
Y5333D01*
X6673Y4750D02*
X6697Y4773D01*
X6390Y1413D02*
X7567Y1413D01*
Y1413D02*
X7783Y1629D01*
Y1793D01*
X6017Y1787D02*
X6390Y1413D01*
X6017Y1787D02*
Y2848D01*
X5923Y2942D02*
X6017Y2848D01*
D14*
X8526Y825D02*
X10275Y2573D01*
X5898Y825D02*
X8526D01*
X10434Y3481D02*
X11045Y2870D01*
X10434Y3481D02*
Y4299D01*
X11045Y2632D02*
Y2870D01*
X10877Y2464D02*
X11045Y2632D01*
X10320Y2464D02*
X10877D01*
X10256Y3505D02*
X10936Y2825D01*
Y2677D02*
Y2825D01*
X10147Y3362D02*
X10758Y2751D01*
X8571Y716D02*
X10320Y2464D01*
X6437Y716D02*
X8571D01*
X10256Y3505D02*
Y4496D01*
X10306Y4546D01*
X10483D01*
X10147Y3362D02*
Y4635D01*
X10021Y4761D02*
X10147Y4635D01*
X10837Y3453D02*
Y4555D01*
X10634Y4758D02*
X10837Y4555D01*
X10178Y4758D02*
X10634D01*
X10066Y4870D02*
X10178Y4758D01*
X10832Y2573D02*
X10936Y2677D01*
X10275Y2573D02*
X10832D01*
X6250Y529D02*
X6437Y716D01*
X6250Y0D02*
Y529D01*
X5250Y177D02*
X5898Y825D01*
X5250Y0D02*
Y177D01*
X8497Y4998D02*
X8734Y4761D01*
X7720Y4998D02*
X8497D01*
X7657Y4936D02*
X7720Y4998D01*
X8779Y4870D02*
X10066D01*
X8533Y5116D02*
X8779Y4870D01*
X8734Y4761D02*
X10021D01*
X7086Y5116D02*
X8533D01*
D15*
X5951Y5200D02*
X6063Y5088D01*
X5827Y5200D02*
X5951D01*
X6063Y4783D02*
X6269Y4577D01*
X6063Y4783D02*
Y5088D01*
X6269Y4577D02*
X7059D01*
X7264Y4782D01*
D66*
X9961Y2511D02*
Y4289D01*
X9991Y4319D01*
X5723Y1443D02*
X6130D01*
X8798Y1348D02*
X9961Y2511D01*
X8706Y1256D02*
X8798Y1348D01*
X6317Y1256D02*
X8706D01*
X6130Y1443D02*
X6317Y1256D01*
D78*
X9255Y404D02*
D03*
D79*
X2310Y5585D02*
D03*
Y415D02*
D03*
D80*
X9250Y266D02*
D03*
X6250D02*
D03*
X5250D02*
D03*
D81*
X6250Y-50D02*
D03*
X5250D02*
D03*
D84*
X2250Y5734D02*
D03*
Y266D02*
D03*
D86*
X6890Y3571D02*
D03*
X7323D02*
D03*
X7756D02*
D03*
X6890Y3138D02*
D03*
X7323D02*
D03*
X7756D02*
D03*
X6890Y2705D02*
D03*
X7323D02*
D03*
X7756D02*
D03*
X8770Y659D02*
D03*
X11221Y2941D02*
D03*
X10758Y2751D02*
D03*
X10493Y4555D02*
D03*
X9961Y4319D02*
D03*
X10434Y4299D02*
D03*
X11270Y4225D02*
D03*
X11220Y2478D02*
D03*
X9370Y1199D02*
D03*
X6978Y1012D02*
D03*
X9744Y3039D02*
D03*
X7657Y4936D02*
D03*
X10562D02*
D03*
X10837Y3453D02*
D03*
X7086Y5116D02*
D03*
X2617Y645D02*
D03*
X2140Y659D02*
D03*
X5020Y3843D02*
D03*
X3658Y3241D02*
D03*
X4303Y3785D02*
D03*
X4037Y3653D02*
D03*
X3813Y3460D02*
D03*
X3539Y2938D02*
D03*
X3506Y2643D02*
D03*
Y2346D02*
D03*
Y2049D02*
D03*
X3491Y1752D02*
D03*
X3285Y1539D02*
D03*
X2989Y1521D02*
D03*
X2692D02*
D03*
X2399Y1473D02*
D03*
X4045Y1009D02*
D03*
X4338Y1520D02*
D03*
X4385Y1813D02*
D03*
X4388Y2110D02*
D03*
Y2407D02*
D03*
X4390Y2704D02*
D03*
X4564Y2945D02*
D03*
X4856Y2996D02*
D03*
X4715Y3851D02*
D03*
X3810Y824D02*
D03*
X10404Y2197D02*
D03*
X4744Y5300D02*
D03*
X5138Y4900D02*
D03*
X5404Y5275D02*
D03*
X4309Y4914D02*
D03*
X6221Y5205D02*
D03*
X5827Y5200D02*
D03*
X6211Y4368D02*
D03*
X11270Y1720D02*
D03*
X9567Y3532D02*
D03*
X3335Y5283D02*
D03*
X9545Y4024D02*
D03*
X9548Y4526D02*
D03*
X7264Y4782D02*
D03*
X5473Y1077D02*
D03*
X4978Y1071D02*
D03*
X11848Y1139D02*
D03*
X10098Y1639D02*
D03*
X4598Y2639D02*
D03*
X4848Y2139D02*
D03*
X4598Y1639D02*
D03*
X4348Y1139D02*
D03*
X2848Y4139D02*
D03*
X4882Y1819D02*
D03*
X2171Y5343D02*
D03*
X2151Y3733D02*
D03*
X6673Y4750D02*
D03*
X8798Y1348D02*
D03*
X8815Y1699D02*
D03*
X8456Y1010D02*
D03*
X9626Y1199D02*
D03*
X2313Y3378D02*
D03*
X7773Y1813D02*
D03*
X7473Y1763D02*
D03*
X5793Y2159D02*
D03*
X5733Y1423D02*
D03*
X5923Y2942D02*
D03*
X5955Y1199D02*
D03*
X5203Y2733D02*
D03*
X11230Y3720D02*
D03*
X9249Y703D02*
D03*
X2140Y2620D02*
D03*
X4290Y4080D02*
D03*
X11630Y2970D02*
D03*
X11680Y1680D02*
D03*
X11250Y3430D02*
D03*
X10640Y1080D02*
D03*
X11910Y840D02*
D03*
X11447Y919D02*
D03*
X10210Y1140D02*
D03*
X9760Y740D02*
D03*
X2650Y5760D02*
D03*
X2144Y4638D02*
D03*
X2700Y2800D02*
D03*
Y200D02*
D03*
X2180Y1570D02*
D03*
X2726Y3891D02*
D03*
X2716Y4367D02*
D03*
M02*
