G04*
G04 #@! TF.GenerationSoftware,Altium Limited,Altium Designer,21.7.2 (23)*
G04*
G04 Layer_Color=32768*
%FSLAX24Y24*%
%MOIN*%
G70*
G04*
G04 #@! TF.SameCoordinates,43C8A9C3-E03B-469C-A9E8-94EB88380565*
G04*
G04*
G04 #@! TF.FilePolarity,Positive*
G04*
G01*
G75*
%ADD66C,0.0118*%
%ADD74C,0.0100*%
%ADD75C,0.0090*%
D66*
X3331Y1095D02*
G03*
X3947Y1848I-152J753D01*
G01*
X4691Y3413D02*
G03*
X3947Y2669I0J-744D01*
G01*
X3178Y1080D02*
G03*
X3331Y1095I0J768D01*
G01*
X2622Y1080D02*
X3178D01*
X4915Y3413D02*
X5400D01*
X3947Y1848D02*
Y2669D01*
D74*
X2087Y1084D02*
X2398D01*
X2181Y4614D02*
X1781D01*
Y4314D01*
X1981Y4414D01*
X2081D01*
X2181Y4314D01*
Y4114D01*
X2081Y4014D01*
X1881D01*
X1781Y4114D01*
X2381Y4514D02*
X2481Y4614D01*
X2681D01*
X2781Y4514D01*
Y4114D01*
X2681Y4014D01*
X2481D01*
X2381Y4114D01*
Y4514D01*
X3081Y4014D02*
X3281D01*
X3381Y4114D01*
Y4314D01*
X3281Y4414D01*
X3081D01*
X2981Y4314D01*
Y4114D01*
X3081Y4014D01*
X3581Y4614D02*
Y4014D01*
Y4314D01*
X3681Y4414D01*
X3881D01*
X3981Y4314D01*
Y4014D01*
X4181D02*
Y4414D01*
X4281D01*
X4381Y4314D01*
Y4014D01*
Y4314D01*
X4481Y4414D01*
X4581Y4314D01*
Y4014D01*
X5380D02*
X5580D01*
X5480D01*
Y4414D01*
X5380D01*
X5880Y4014D02*
Y4414D01*
X5980D01*
X6080Y4314D01*
Y4014D01*
Y4314D01*
X6180Y4414D01*
X6280Y4314D01*
Y4014D01*
X6480Y3814D02*
Y4414D01*
X6780D01*
X6880Y4314D01*
Y4114D01*
X6780Y4014D01*
X6480D01*
X7380D02*
X7180D01*
X7080Y4114D01*
Y4314D01*
X7180Y4414D01*
X7380D01*
X7480Y4314D01*
Y4214D01*
X7080D01*
X8079Y4614D02*
Y4014D01*
X7780D01*
X7680Y4114D01*
Y4314D01*
X7780Y4414D01*
X8079D01*
X8379D02*
X8579D01*
X8679Y4314D01*
Y4014D01*
X8379D01*
X8279Y4114D01*
X8379Y4214D01*
X8679D01*
X8879Y4014D02*
Y4414D01*
X9179D01*
X9279Y4314D01*
Y4014D01*
X9879Y4414D02*
X9579D01*
X9479Y4314D01*
Y4114D01*
X9579Y4014D01*
X9879D01*
X10379D02*
X10179D01*
X10079Y4114D01*
Y4314D01*
X10179Y4414D01*
X10379D01*
X10479Y4314D01*
Y4214D01*
X10079D01*
D75*
X5903Y3374D02*
X6358D01*
X5870Y3407D02*
X5903Y3374D01*
X5864Y3413D02*
X5870Y3407D01*
X5624Y3413D02*
X5864D01*
M02*
