G04*
G04 #@! TF.GenerationSoftware,Altium Limited,Altium Designer,21.7.2 (23)*
G04*
G04 Layer_Color=32896*
%FSLAX24Y24*%
%MOIN*%
G70*
G04*
G04 #@! TF.SameCoordinates,43C8A9C3-E03B-469C-A9E8-94EB88380565*
G04*
G04*
G04 #@! TF.FilePolarity,Positive*
G04*
G01*
G75*
%ADD73C,0.0080*%
%ADD74C,0.0100*%
%ADD75C,0.0090*%
%ADD76C,0.0150*%
%ADD95C,0.0072*%
D73*
X38890Y-1367D02*
X39090Y-17D01*
X38690Y-17D02*
X38890Y-1367D01*
Y-1267D02*
X39040Y-67D01*
X38890Y-1167D02*
X38990Y-117D01*
X38790D02*
X38990D01*
X38740Y-67D02*
X39040D01*
X38690Y-17D02*
X39090Y-17D01*
X38890Y-1067D02*
X38940Y-167D01*
X38840Y-167D02*
X38940Y-167D01*
X38840Y-167D02*
X38890Y-1067D01*
X38790Y-117D02*
X38890Y-1167D01*
X38740Y-67D02*
X38890Y-1267D01*
X36640Y-1517D02*
X39640Y-1517D01*
X36265Y-892D02*
X37140Y-892D01*
X36265Y-1517D02*
Y-892D01*
X35640Y-267D02*
X37140Y-892D01*
X26640D02*
Y-142D01*
X35640Y-267D02*
X36265Y-142D01*
X38890Y-1467D02*
X39140Y33D01*
X38640D02*
X39140D01*
X36265Y483D02*
X36265Y-142D01*
X38890Y-1467D02*
Y1608D01*
X38640Y33D02*
X38890Y-1467D01*
X27264Y483D02*
X36265Y483D01*
X25140Y6283D02*
X26490Y6483D01*
X25090Y6233D02*
X26590Y6483D01*
X27264Y983D02*
Y7004D01*
X26640Y483D02*
Y7004D01*
X25190Y6333D02*
X26390Y6483D01*
X25240Y6383D02*
X26290Y6483D01*
X25190Y6333D02*
Y6633D01*
X25140Y6283D02*
Y6683D01*
X25090Y6233D02*
Y6733D01*
X25190Y6633D02*
X26390Y6483D01*
X25140Y6683D02*
X26490Y6483D01*
X25090Y6733D02*
X26590Y6483D01*
X25290Y6433D02*
X26190Y6483D01*
X25290Y6533D02*
X26190Y6483D01*
X25290Y6433D02*
Y6533D01*
X25240Y6583D02*
X26290Y6483D01*
X25240Y6383D02*
Y6583D01*
X23390Y-1142D02*
X23540Y-2342D01*
X23390Y-1042D02*
X23590Y-2392D01*
X23390Y-942D02*
X23640Y-2442D01*
X23290Y-2292D02*
X23490Y-2292D01*
X23390Y-1242D02*
X23490Y-2292D01*
X23340Y-2242D02*
X23440D01*
X23390Y-1342D02*
X23440Y-2242D01*
X23340D02*
X23390Y-1342D01*
X23290Y-2292D02*
X23390Y-1242D01*
X23140Y-2442D02*
X23640Y-2442D01*
X23140Y-2442D02*
X23390Y-942D01*
X23190Y-2392D02*
X23590D01*
X23240Y-2342D02*
X23540D01*
X23240D02*
X23390Y-1142D01*
X23190Y-2392D02*
X23390Y-1042D01*
Y108D02*
X23540Y1308D01*
X23390Y8D02*
X23590Y1358D01*
X23390Y-92D02*
X23640Y1408D01*
X23390Y-3892D02*
Y-942D01*
Y-92D02*
Y2858D01*
X23376Y73D02*
X23440Y1208D01*
X23390Y208D02*
X23490Y1258D01*
X23313Y1208D02*
X23440D01*
X23190Y1358D02*
X23390Y8D01*
X23140Y1408D02*
X23390Y-92D01*
X23290Y1258D02*
X23390Y208D01*
X23240Y1308D02*
X23390Y108D01*
X23190Y1358D02*
X23590D01*
X23140Y1408D02*
X23640D01*
X23290Y1258D02*
X23490D01*
X23240Y1308D02*
X23540D01*
X22640Y-892D02*
X26140D01*
X22640Y-142D02*
X26140D01*
X23640Y6483D02*
X26590D01*
X26640Y-142D02*
X27262Y480D01*
X27264Y-1517D02*
X36265Y-1517D01*
X27463Y-1717D02*
X28088Y-2342D01*
X34987Y-9240D01*
X33399Y-9631D02*
X33541Y-9773D01*
X33470Y-9631D02*
X34142Y-9030D01*
X33187Y-9631D02*
X33541Y-9985D01*
X33329Y-9631D02*
X33541Y-9843D01*
X33258Y-9631D02*
X33541Y-9914D01*
X32250Y-10922D02*
X34425Y-8747D01*
X33187Y-9631D02*
X34425Y-8747D01*
X33258Y-9631D02*
X34354Y-8818D01*
X33399Y-9631D02*
X34213Y-8959D01*
X33329Y-9631D02*
X34283Y-8889D01*
X33541Y-9914D02*
X34354Y-8818D01*
X33470Y-9631D02*
X33541Y-9702D01*
X34142Y-9030D01*
X33541Y-9985D02*
X34425Y-8747D01*
X33541Y-9773D02*
X34213Y-8959D01*
X33541Y-9843D02*
X34283Y-8889D01*
X27272Y6490D02*
X28772Y6740D01*
X27272Y6490D02*
X30222D01*
X27572D02*
X28622Y6590D01*
X27672Y6490D02*
X28572Y6540D01*
X27572Y6490D02*
X28622Y6390D01*
X27672Y6490D02*
X28572Y6440D01*
X28572Y6540D02*
X28572Y6440D01*
X27372Y6490D02*
X28722Y6690D01*
X27472Y6490D02*
X28672Y6640D01*
X28622Y6390D02*
Y6590D01*
X27472Y6490D02*
X28672Y6340D01*
X28722Y6690D02*
X28722Y6290D01*
X28772Y6240D02*
Y6740D01*
X27272Y6490D02*
X28772Y6240D01*
X28672Y6340D02*
Y6640D01*
X27372Y6490D02*
X28722Y6290D01*
X26640Y-892D02*
X27265Y-1517D01*
X18305Y12176D02*
X18376Y12247D01*
X18412Y12354D01*
Y12497D01*
X18376Y12604D01*
X18305Y12675D01*
X18234D01*
X18162Y12640D01*
X18127Y12604D01*
X18091Y12533D01*
X18019Y12318D01*
X17984Y12247D01*
X17948Y12211D01*
X17877Y12176D01*
X17769D01*
X17698Y12247D01*
X17662Y12354D01*
Y12497D01*
X17698Y12604D01*
X17769Y12675D01*
X18412Y11544D02*
Y12008D01*
X17662D01*
Y11544D01*
X18055Y12008D02*
Y11722D01*
X18412Y10954D02*
Y11419D01*
X17662D01*
Y10954D01*
X18055Y11419D02*
Y11133D01*
X18412Y10240D02*
X17662D01*
X18412D02*
Y9990D01*
X18376Y9883D01*
X18305Y9812D01*
X18234Y9776D01*
X18127Y9740D01*
X17948D01*
X17841Y9776D01*
X17769Y9812D01*
X17698Y9883D01*
X17662Y9990D01*
Y10240D01*
X18412Y9108D02*
Y9573D01*
X17662D01*
Y9108D01*
X18055Y9573D02*
Y9287D01*
X18412Y8733D02*
X17662D01*
X18412Y8983D02*
Y8484D01*
X17662Y7823D02*
X18412Y8109D01*
X17662Y8394D01*
X17912Y8287D02*
Y7930D01*
X18412Y7648D02*
X17662D01*
X18412Y7491D02*
X17662D01*
Y7062D01*
Y5820D02*
X18412Y6105D01*
X17662Y6391D01*
X17912Y6284D02*
Y5927D01*
D74*
X19106Y3789D02*
G03*
X19106Y3789I-1000J0D01*
G01*
X17576Y5209D02*
X17626Y5009D01*
X18126Y5209D01*
X17576D02*
X18126D01*
X18124Y5207D02*
X18630Y4992D01*
X18124Y5207D02*
X18662Y5195D01*
X18630Y4992D02*
X18662Y5195D01*
D75*
X23789Y-4774D02*
X23746Y-4646D01*
X23618Y-4560D01*
X23404Y-4517D01*
X23275D01*
X23061Y-4560D01*
X22932Y-4646D01*
X22890Y-4774D01*
Y-4860D01*
X22932Y-4988D01*
X23061Y-5074D01*
X23275Y-5117D01*
X23404D01*
X23618Y-5074D01*
X23746Y-4988D01*
X23789Y-4860D01*
Y-4774D01*
X22975Y-5361D02*
X22932Y-5318D01*
X22890Y-5361D01*
X22932Y-5404D01*
X22975Y-5361D01*
X23789Y-5858D02*
X23746Y-5730D01*
X23618Y-5644D01*
X23404Y-5601D01*
X23275D01*
X23061Y-5644D01*
X22932Y-5730D01*
X22890Y-5858D01*
Y-5944D01*
X22932Y-6073D01*
X23061Y-6158D01*
X23275Y-6201D01*
X23404D01*
X23618Y-6158D01*
X23746Y-6073D01*
X23789Y-5944D01*
Y-5858D01*
Y-6488D02*
Y-6959D01*
X23447Y-6702D01*
Y-6831D01*
X23404Y-6917D01*
X23361Y-6959D01*
X23232Y-7002D01*
X23147D01*
X23018Y-6959D01*
X22932Y-6874D01*
X22890Y-6745D01*
Y-6617D01*
X22932Y-6488D01*
X22975Y-6445D01*
X23061Y-6402D01*
X23789Y-7461D02*
X23746Y-7332D01*
X23618Y-7247D01*
X23404Y-7204D01*
X23275D01*
X23061Y-7247D01*
X22932Y-7332D01*
X22890Y-7461D01*
Y-7546D01*
X22932Y-7675D01*
X23061Y-7761D01*
X23275Y-7804D01*
X23404D01*
X23618Y-7761D01*
X23746Y-7675D01*
X23789Y-7546D01*
Y-7461D01*
Y-8091D02*
X23746Y-8134D01*
X23789Y-8176D01*
X23832Y-8134D01*
X23789Y-8091D01*
X23489Y-8134D02*
X22890D01*
X23489Y-8335D02*
X22890D01*
X23318D02*
X23447Y-8463D01*
X23489Y-8549D01*
Y-8678D01*
X23447Y-8763D01*
X23318Y-8806D01*
X22890D01*
X23704Y-9749D02*
X22847D01*
X23704Y-9792D02*
X22847D01*
X23704Y-9749D02*
Y-9963D01*
X22847Y-9749D02*
Y-9963D01*
X23789Y-10336D02*
X23746Y-10207D01*
X23618Y-10122D01*
X23404Y-10079D01*
X23275D01*
X23061Y-10122D01*
X22932Y-10207D01*
X22890Y-10336D01*
Y-10422D01*
X22932Y-10550D01*
X23061Y-10636D01*
X23275Y-10679D01*
X23404D01*
X23618Y-10636D01*
X23746Y-10550D01*
X23789Y-10422D01*
Y-10336D01*
X22975Y-10923D02*
X22932Y-10880D01*
X22890Y-10923D01*
X22932Y-10966D01*
X22975Y-10923D01*
X23789Y-11763D02*
X22890Y-11334D01*
X23789Y-11163D02*
Y-11763D01*
Y-12478D02*
Y-12050D01*
X23404Y-12007D01*
X23447Y-12050D01*
X23489Y-12178D01*
Y-12307D01*
X23447Y-12435D01*
X23361Y-12521D01*
X23232Y-12564D01*
X23147D01*
X23018Y-12521D01*
X22932Y-12435D01*
X22890Y-12307D01*
Y-12178D01*
X22932Y-12050D01*
X22975Y-12007D01*
X23061Y-11964D01*
X23489Y-12765D02*
X22890D01*
X23318D02*
X23447Y-12894D01*
X23489Y-12980D01*
Y-13108D01*
X23447Y-13194D01*
X23318Y-13237D01*
X22890D01*
X23318D02*
X23447Y-13365D01*
X23489Y-13451D01*
Y-13579D01*
X23447Y-13665D01*
X23318Y-13708D01*
X22890D01*
X23489Y-13991D02*
X22890D01*
X23318D02*
X23447Y-14119D01*
X23489Y-14205D01*
Y-14334D01*
X23447Y-14419D01*
X23318Y-14462D01*
X22890D01*
X23318D02*
X23447Y-14591D01*
X23489Y-14676D01*
Y-14805D01*
X23447Y-14891D01*
X23318Y-14933D01*
X22890D01*
X23704Y-15388D02*
X22847D01*
X23704Y-15431D02*
X22847D01*
X23704Y-15216D02*
Y-15431D01*
X22847Y-15216D02*
Y-15431D01*
X37038Y-4413D02*
X36438Y-3985D01*
Y-4627D01*
X37038Y-4413D02*
X36139D01*
X37038Y-5300D02*
Y-4872D01*
X36653Y-4829D01*
X36696Y-4872D01*
X36738Y-5000D01*
Y-5129D01*
X36696Y-5257D01*
X36610Y-5343D01*
X36481Y-5386D01*
X36396D01*
X36267Y-5343D01*
X36181Y-5257D01*
X36139Y-5129D01*
Y-5000D01*
X36181Y-4872D01*
X36224Y-4829D01*
X36310Y-4786D01*
X31329Y12503D02*
X31286Y12631D01*
X31158Y12717D01*
X30943Y12760D01*
X30815D01*
X30601Y12717D01*
X30472Y12631D01*
X30429Y12503D01*
Y12417D01*
X30472Y12288D01*
X30601Y12203D01*
X30815Y12160D01*
X30943D01*
X31158Y12203D01*
X31286Y12288D01*
X31329Y12417D01*
Y12503D01*
X30515Y11916D02*
X30472Y11958D01*
X30429Y11916D01*
X30472Y11873D01*
X30515Y11916D01*
X31329Y11419D02*
X31286Y11547D01*
X31158Y11633D01*
X30943Y11676D01*
X30815D01*
X30601Y11633D01*
X30472Y11547D01*
X30429Y11419D01*
Y11333D01*
X30472Y11204D01*
X30601Y11119D01*
X30815Y11076D01*
X30943D01*
X31158Y11119D01*
X31286Y11204D01*
X31329Y11333D01*
Y11419D01*
X31115Y10832D02*
X31158D01*
X31243Y10789D01*
X31286Y10746D01*
X31329Y10660D01*
Y10489D01*
X31286Y10403D01*
X31243Y10360D01*
X31158Y10317D01*
X31072D01*
X30986Y10360D01*
X30858Y10446D01*
X30429Y10874D01*
Y10275D01*
X31329Y9559D02*
Y9987D01*
X30943Y10030D01*
X30986Y9987D01*
X31029Y9859D01*
Y9730D01*
X30986Y9602D01*
X30901Y9516D01*
X30772Y9473D01*
X30686D01*
X30558Y9516D01*
X30472Y9602D01*
X30429Y9730D01*
Y9859D01*
X30472Y9987D01*
X30515Y10030D01*
X30601Y10073D01*
X31329Y9186D02*
X31286Y9143D01*
X31329Y9101D01*
X31372Y9143D01*
X31329Y9186D01*
X31029Y9143D02*
X30429D01*
X31029Y8942D02*
X30429D01*
X30858D02*
X30986Y8813D01*
X31029Y8728D01*
Y8599D01*
X30986Y8513D01*
X30858Y8471D01*
X30429D01*
X31243Y7528D02*
X30386D01*
X31243Y7485D02*
X30386D01*
X31243Y7528D02*
Y7314D01*
X30386Y7528D02*
Y7314D01*
X31329Y6941D02*
X31286Y7070D01*
X31158Y7155D01*
X30943Y7198D01*
X30815D01*
X30601Y7155D01*
X30472Y7070D01*
X30429Y6941D01*
Y6855D01*
X30472Y6727D01*
X30601Y6641D01*
X30815Y6598D01*
X30943D01*
X31158Y6641D01*
X31286Y6727D01*
X31329Y6855D01*
Y6941D01*
X30515Y6354D02*
X30472Y6397D01*
X30429Y6354D01*
X30472Y6311D01*
X30515Y6354D01*
X31201Y5600D02*
X31286Y5643D01*
X31329Y5771D01*
Y5857D01*
X31286Y5985D01*
X31158Y6071D01*
X30943Y6114D01*
X30729D01*
X30558Y6071D01*
X30472Y5985D01*
X30429Y5857D01*
Y5814D01*
X30472Y5686D01*
X30558Y5600D01*
X30686Y5557D01*
X30729D01*
X30858Y5600D01*
X30943Y5686D01*
X30986Y5814D01*
Y5857D01*
X30943Y5985D01*
X30858Y6071D01*
X30729Y6114D01*
X31115Y5317D02*
X31158D01*
X31243Y5274D01*
X31286Y5231D01*
X31329Y5146D01*
Y4974D01*
X31286Y4889D01*
X31243Y4846D01*
X31158Y4803D01*
X31072D01*
X30986Y4846D01*
X30858Y4931D01*
X30429Y5360D01*
Y4760D01*
X31329Y4044D02*
Y4473D01*
X30943Y4516D01*
X30986Y4473D01*
X31029Y4344D01*
Y4216D01*
X30986Y4087D01*
X30901Y4002D01*
X30772Y3959D01*
X30686D01*
X30558Y4002D01*
X30472Y4087D01*
X30429Y4216D01*
Y4344D01*
X30472Y4473D01*
X30515Y4516D01*
X30601Y4559D01*
X31029Y3757D02*
X30429D01*
X30858D02*
X30986Y3629D01*
X31029Y3543D01*
Y3415D01*
X30986Y3329D01*
X30858Y3286D01*
X30429D01*
X30858D02*
X30986Y3158D01*
X31029Y3072D01*
Y2943D01*
X30986Y2858D01*
X30858Y2815D01*
X30429D01*
X31029Y2532D02*
X30429D01*
X30858D02*
X30986Y2403D01*
X31029Y2318D01*
Y2189D01*
X30986Y2103D01*
X30858Y2061D01*
X30429D01*
X30858D02*
X30986Y1932D01*
X31029Y1846D01*
Y1718D01*
X30986Y1632D01*
X30858Y1589D01*
X30429D01*
X31243Y1135D02*
X30386D01*
X31243Y1092D02*
X30386D01*
X31243Y1306D02*
Y1092D01*
X30386Y1306D02*
Y1092D01*
D76*
X43139Y2983D02*
X41640D01*
X43139D02*
Y2483D01*
X43068Y2269D01*
X42925Y2126D01*
X42782Y2054D01*
X42568Y1983D01*
X42211D01*
X41997Y2054D01*
X41854Y2126D01*
X41711Y2269D01*
X41640Y2483D01*
Y2983D01*
X43139Y719D02*
Y1647D01*
X41640D01*
Y719D01*
X42425Y1647D02*
Y1076D01*
X43139Y-31D02*
X41640D01*
X43139Y469D02*
Y-531D01*
X41640Y-1852D02*
X43139Y-1280D01*
X41640Y-709D01*
X42139Y-923D02*
Y-1638D01*
X43139Y-2202D02*
X41640D01*
X43139Y-2516D02*
X41640D01*
Y-3373D01*
Y-5858D02*
X43139Y-5287D01*
X41640Y-4715D01*
X42139Y-4930D02*
Y-5644D01*
D95*
X37458Y-5724D02*
X37436Y-5678D01*
X37390Y-5633D01*
X37321Y-5610D01*
X37276D01*
X37207Y-5633D01*
X37161Y-5678D01*
X37139Y-5724D01*
Y-5792D01*
X37161Y-5838D01*
X37207Y-5884D01*
X37276Y-5907D01*
X37321D01*
X37390Y-5884D01*
X37436Y-5838D01*
X37458Y-5792D01*
Y-5724D01*
M02*
