G04*
G04 #@! TF.GenerationSoftware,Altium Limited,Altium Designer,21.7.2 (23)*
G04*
G04 Layer_Physical_Order=2*
G04 Layer_Color=36540*
%FSLAX24Y24*%
%MOIN*%
G70*
G04*
G04 #@! TF.SameCoordinates,43C8A9C3-E03B-469C-A9E8-94EB88380565*
G04*
G04*
G04 #@! TF.FilePolarity,Positive*
G04*
G01*
G75*
%ADD14C,0.0059*%
%ADD78R,0.0990X0.0552*%
%ADD79R,0.0560X0.0570*%
%ADD80R,0.0709X0.0531*%
%ADD81R,0.0709X0.0098*%
%ADD84R,0.0440X0.0531*%
%ADD86C,0.0197*%
G36*
X2816Y5389D02*
X5503D01*
X5522Y5342D01*
X5503Y5323D01*
X5478Y5287D01*
X5470Y5244D01*
Y4976D01*
X5118Y4624D01*
X5094Y4588D01*
X5085Y4545D01*
Y4410D01*
X5068Y4398D01*
X5029Y4339D01*
X5015Y4270D01*
X5029Y4200D01*
X5068Y4141D01*
X5127Y4102D01*
X5197Y4088D01*
X5266Y4102D01*
X5325Y4141D01*
X5365Y4200D01*
X5379Y4270D01*
X5365Y4339D01*
X5325Y4398D01*
X5309Y4410D01*
Y4499D01*
X5660Y4851D01*
X5685Y4887D01*
X5693Y4930D01*
Y5015D01*
X5743Y5041D01*
X5758Y5032D01*
X5827Y5018D01*
X5897Y5032D01*
X5956Y5071D01*
X5995Y5130D01*
X5999Y5149D01*
X6050D01*
X6053Y5135D01*
X6092Y5076D01*
X6151Y5037D01*
X6221Y5023D01*
X6285Y5036D01*
X6322Y5003D01*
X6311Y4963D01*
X6309Y4963D01*
X6240Y4950D01*
X6181Y4910D01*
X6141Y4851D01*
X6127Y4782D01*
X6141Y4712D01*
X6181Y4653D01*
X6240Y4614D01*
X6309Y4600D01*
X6379Y4614D01*
X6438Y4653D01*
X6455Y4678D01*
X6475Y4679D01*
X6511Y4672D01*
X6545Y4621D01*
X6604Y4582D01*
X6673Y4568D01*
X6743Y4582D01*
X6802Y4621D01*
X6841Y4680D01*
X6855Y4750D01*
X6841Y4820D01*
X6802Y4879D01*
X6743Y4918D01*
X6682Y4930D01*
X6688Y4959D01*
X6674Y5028D01*
X6635Y5087D01*
X6576Y5127D01*
X6506Y5141D01*
X6436Y5127D01*
X6393Y5158D01*
X6403Y5205D01*
X6389Y5274D01*
X6349Y5333D01*
X6342Y5339D01*
X6357Y5389D01*
X8526D01*
X8962Y4953D01*
Y2930D01*
X8970Y2887D01*
X8994Y2851D01*
X9179Y2667D01*
X9178Y2665D01*
X9192Y2596D01*
X9232Y2537D01*
X9291Y2497D01*
X9360Y2483D01*
X9430Y2497D01*
X9489Y2537D01*
X9528Y2596D01*
X9542Y2665D01*
X9541Y2671D01*
X9607Y2684D01*
X9666Y2724D01*
X9705Y2783D01*
X9719Y2852D01*
X9705Y2922D01*
X9666Y2981D01*
X9611Y3018D01*
X9608Y3044D01*
X9611Y3071D01*
X9667Y3108D01*
X9706Y3167D01*
X9720Y3236D01*
X9706Y3306D01*
X9667Y3365D01*
X9607Y3404D01*
X9538Y3418D01*
X9510Y3413D01*
X9472Y3444D01*
Y4925D01*
X9509Y4945D01*
X9522Y4947D01*
X9587Y4934D01*
X9656Y4948D01*
X9715Y4988D01*
X9755Y5047D01*
X9769Y5116D01*
X9766Y5131D01*
X9799Y5168D01*
X11099D01*
X11142Y5177D01*
X11178Y5201D01*
X11329Y5352D01*
X11353Y5388D01*
X11353Y5389D01*
X12096D01*
Y5502D01*
X12143Y5521D01*
X12377Y5287D01*
X12413Y5263D01*
X12456Y5254D01*
X12456Y5254D01*
X12614D01*
Y4794D01*
X12564Y4761D01*
X12524Y4778D01*
X12450Y4787D01*
X12428Y4785D01*
X12399Y4831D01*
X12418Y4860D01*
X12432Y4930D01*
X12418Y5000D01*
X12379Y5059D01*
X12320Y5098D01*
X12250Y5112D01*
X12180Y5098D01*
X12121Y5059D01*
X12082Y5000D01*
X12068Y4930D01*
X12082Y4860D01*
X12121Y4801D01*
X12180Y4762D01*
X12229Y4752D01*
X12241Y4717D01*
X12244Y4700D01*
X12201Y4644D01*
X12172Y4574D01*
X12163Y4500D01*
X12172Y4426D01*
X12201Y4356D01*
X12247Y4297D01*
X12306Y4251D01*
X12376Y4222D01*
X12450Y4213D01*
X12524Y4222D01*
X12564Y4239D01*
X12614Y4206D01*
Y1660D01*
X12601Y1644D01*
X12572Y1574D01*
X12563Y1500D01*
X12572Y1426D01*
X12601Y1356D01*
X12614Y1340D01*
Y746D01*
X12456D01*
X12456Y746D01*
X12413Y737D01*
X12377Y713D01*
X12123Y459D01*
X12077Y478D01*
Y611D01*
X11684D01*
Y611D01*
X10816D01*
Y611D01*
X10766Y611D01*
X10684D01*
X9816D01*
Y178D01*
X9766Y128D01*
X9704D01*
Y216D01*
X8796D01*
Y128D01*
X8684D01*
Y611D01*
X2816D01*
Y128D01*
X2766Y128D01*
X2570D01*
Y216D01*
X2250D01*
Y266D01*
X2200D01*
Y632D01*
X2030D01*
Y5368D01*
X2200D01*
Y5734D01*
X2250D01*
Y5784D01*
X2570D01*
Y5870D01*
X2816D01*
X2816Y5389D01*
D02*
G37*
%LPC*%
G36*
X2570Y5684D02*
X2300D01*
Y5368D01*
X2570D01*
Y5684D01*
D02*
G37*
G36*
X7657Y5117D02*
X7588Y5104D01*
X7529Y5064D01*
X7489Y5005D01*
X7476Y4936D01*
X7489Y4866D01*
X7529Y4807D01*
X7588Y4767D01*
X7657Y4754D01*
X7727Y4767D01*
X7786Y4807D01*
X7826Y4866D01*
X7839Y4936D01*
X7826Y5005D01*
X7786Y5064D01*
X7727Y5104D01*
X7657Y5117D01*
D02*
G37*
G36*
X7086Y5298D02*
X7016Y5284D01*
X6957Y5245D01*
X6918Y5186D01*
X6904Y5116D01*
X6918Y5047D01*
X6957Y4988D01*
X7016Y4948D01*
X7086Y4934D01*
X7092Y4935D01*
X7122Y4890D01*
X7096Y4851D01*
X7082Y4782D01*
X7096Y4712D01*
X7135Y4653D01*
X7194Y4613D01*
X7264Y4600D01*
X7333Y4613D01*
X7392Y4653D01*
X7432Y4712D01*
X7446Y4782D01*
X7432Y4851D01*
X7392Y4910D01*
X7333Y4950D01*
X7264Y4963D01*
X7258Y4962D01*
X7228Y5007D01*
X7254Y5047D01*
X7268Y5116D01*
X7254Y5186D01*
X7214Y5245D01*
X7155Y5284D01*
X7086Y5298D01*
D02*
G37*
G36*
X4180Y4672D02*
X4110Y4658D01*
X4051Y4619D01*
X4012Y4560D01*
X3998Y4490D01*
X4012Y4420D01*
X4051Y4361D01*
X4110Y4322D01*
X4180Y4308D01*
X4250Y4322D01*
X4309Y4361D01*
X4348Y4420D01*
X4362Y4490D01*
X4348Y4560D01*
X4309Y4619D01*
X4250Y4658D01*
X4180Y4672D01*
D02*
G37*
G36*
X11600Y4772D02*
X11530Y4758D01*
X11471Y4719D01*
X11432Y4660D01*
X11418Y4590D01*
X11432Y4520D01*
X11471Y4461D01*
X11491Y4448D01*
X11532Y4420D01*
X11518Y4350D01*
X11532Y4280D01*
X11571Y4221D01*
X11630Y4182D01*
X11700Y4168D01*
X11770Y4182D01*
X11829Y4221D01*
X11868Y4280D01*
X11882Y4350D01*
X11868Y4420D01*
X11829Y4479D01*
X11809Y4492D01*
X11768Y4520D01*
X11782Y4590D01*
X11768Y4660D01*
X11729Y4719D01*
X11670Y4758D01*
X11600Y4772D01*
D02*
G37*
G36*
X9873Y4737D02*
X9803Y4723D01*
X9744Y4684D01*
X9704Y4625D01*
X9691Y4555D01*
X9704Y4486D01*
X9744Y4427D01*
X9795Y4392D01*
X9793Y4389D01*
X9779Y4319D01*
X9793Y4249D01*
X9832Y4190D01*
X9891Y4151D01*
X9961Y4137D01*
X10031Y4151D01*
X10090Y4190D01*
X10129Y4249D01*
X10143Y4319D01*
X10129Y4389D01*
X10090Y4448D01*
X10038Y4482D01*
X10041Y4486D01*
X10054Y4555D01*
X10041Y4625D01*
X10001Y4684D01*
X9942Y4723D01*
X9873Y4737D01*
D02*
G37*
G36*
X10562Y5117D02*
X10492Y5104D01*
X10433Y5064D01*
X10393Y5005D01*
X10380Y4936D01*
X10393Y4866D01*
X10433Y4807D01*
X10468Y4783D01*
X10458Y4730D01*
X10423Y4723D01*
X10364Y4684D01*
X10325Y4625D01*
X10311Y4555D01*
X10325Y4486D01*
X10345Y4455D01*
X10305Y4428D01*
X10266Y4369D01*
X10252Y4299D01*
X10266Y4230D01*
X10305Y4171D01*
X10364Y4131D01*
X10434Y4117D01*
X10503Y4131D01*
X10562Y4171D01*
X10602Y4230D01*
X10616Y4299D01*
X10602Y4369D01*
X10581Y4400D01*
X10621Y4427D01*
X10661Y4486D01*
X10675Y4555D01*
X10661Y4625D01*
X10621Y4684D01*
X10586Y4707D01*
X10596Y4761D01*
X10631Y4767D01*
X10690Y4807D01*
X10730Y4866D01*
X10743Y4936D01*
X10730Y5005D01*
X10690Y5064D01*
X10631Y5104D01*
X10562Y5117D01*
D02*
G37*
G36*
X10837Y3635D02*
X10768Y3621D01*
X10709Y3581D01*
X10669Y3522D01*
X10655Y3453D01*
X10669Y3383D01*
X10709Y3324D01*
X10768Y3285D01*
X10837Y3271D01*
X10870Y3277D01*
X10912Y3235D01*
X10911Y3226D01*
X10924Y3156D01*
X10964Y3097D01*
X11023Y3058D01*
X11093Y3044D01*
X11162Y3058D01*
X11221Y3097D01*
X11261Y3156D01*
X11274Y3226D01*
X11261Y3296D01*
X11221Y3355D01*
X11162Y3394D01*
X11093Y3408D01*
X11060Y3401D01*
X11017Y3444D01*
X11019Y3453D01*
X11005Y3522D01*
X10966Y3581D01*
X10907Y3621D01*
X10837Y3635D01*
D02*
G37*
G36*
X5923Y3124D02*
X5853Y3110D01*
X5794Y3070D01*
X5755Y3011D01*
X5741Y2942D01*
X5755Y2872D01*
X5794Y2813D01*
X5853Y2774D01*
X5923Y2760D01*
X5992Y2774D01*
X6051Y2813D01*
X6091Y2872D01*
X6105Y2942D01*
X6091Y3011D01*
X6051Y3070D01*
X5992Y3110D01*
X5923Y3124D01*
D02*
G37*
G36*
X10758Y2933D02*
X10688Y2919D01*
X10629Y2880D01*
X10590Y2821D01*
X10576Y2751D01*
X10590Y2681D01*
X10629Y2622D01*
X10688Y2583D01*
X10758Y2569D01*
X10827Y2583D01*
X10887Y2622D01*
X10926Y2681D01*
X10940Y2751D01*
X10926Y2821D01*
X10887Y2880D01*
X10827Y2919D01*
X10758Y2933D01*
D02*
G37*
G36*
X7773Y1995D02*
X7703Y1981D01*
X7644Y1941D01*
X7605Y1882D01*
X7591Y1813D01*
X7605Y1743D01*
X7644Y1684D01*
X7703Y1645D01*
X7773Y1631D01*
X7842Y1645D01*
X7901Y1684D01*
X7941Y1743D01*
X7955Y1813D01*
X7941Y1882D01*
X7901Y1941D01*
X7842Y1981D01*
X7773Y1995D01*
D02*
G37*
G36*
X10740Y1902D02*
X10670Y1888D01*
X10611Y1849D01*
X10572Y1790D01*
X10558Y1720D01*
X10572Y1650D01*
X10611Y1591D01*
X10670Y1552D01*
X10740Y1538D01*
X10810Y1552D01*
X10869Y1591D01*
X10908Y1650D01*
X10922Y1720D01*
X10908Y1790D01*
X10869Y1849D01*
X10810Y1888D01*
X10740Y1902D01*
D02*
G37*
G36*
X5733Y1605D02*
X5663Y1591D01*
X5604Y1551D01*
X5565Y1492D01*
X5551Y1423D01*
X5565Y1353D01*
X5604Y1294D01*
X5663Y1255D01*
X5733Y1241D01*
X5802Y1255D01*
X5861Y1294D01*
X5901Y1353D01*
X5915Y1423D01*
X5901Y1492D01*
X5861Y1551D01*
X5802Y1591D01*
X5733Y1605D01*
D02*
G37*
G36*
X12050Y1787D02*
X11976Y1778D01*
X11906Y1749D01*
X11847Y1703D01*
X11801Y1644D01*
X11772Y1574D01*
X11763Y1500D01*
X11772Y1426D01*
X11801Y1356D01*
X11847Y1297D01*
X11906Y1251D01*
X11976Y1222D01*
X12050Y1213D01*
X12124Y1222D01*
X12194Y1251D01*
X12253Y1297D01*
X12299Y1356D01*
X12328Y1426D01*
X12337Y1500D01*
X12328Y1574D01*
X12299Y1644D01*
X12253Y1703D01*
X12194Y1749D01*
X12124Y1778D01*
X12050Y1787D01*
D02*
G37*
G36*
X8798Y1530D02*
X8728Y1516D01*
X8669Y1477D01*
X8630Y1418D01*
X8616Y1348D01*
X8630Y1278D01*
X8669Y1219D01*
X8728Y1180D01*
X8798Y1166D01*
X8867Y1180D01*
X8926Y1219D01*
X8966Y1278D01*
X8980Y1348D01*
X8966Y1418D01*
X8926Y1477D01*
X8867Y1516D01*
X8798Y1530D01*
D02*
G37*
G36*
X9704Y632D02*
X9300D01*
Y316D01*
X9704D01*
Y632D01*
D02*
G37*
G36*
X9200D02*
X8796D01*
Y316D01*
X9200D01*
Y632D01*
D02*
G37*
G36*
X2570D02*
X2300D01*
Y316D01*
X2570D01*
Y632D01*
D02*
G37*
%LPD*%
D14*
X8250Y5823D02*
X9073Y5000D01*
Y2930D02*
Y5000D01*
Y2930D02*
X9338Y2665D01*
X9360D01*
X9587Y5116D02*
X9750Y5280D01*
X9360Y3049D02*
Y5251D01*
X9250Y3215D02*
Y6000D01*
X5197Y4270D02*
Y4545D01*
X5581Y4930D01*
Y5244D01*
X5715Y5378D01*
X5805D01*
X6250Y5823D01*
Y6000D01*
X8250Y5823D02*
Y6000D01*
X9182Y3147D02*
X9250Y3215D01*
X9182Y2975D02*
Y3147D01*
X9305Y2852D02*
X9537D01*
X9182Y2975D02*
X9305Y2852D01*
X11099Y5280D02*
X11250Y5431D01*
X9750Y5280D02*
X11099D01*
X9830Y5389D02*
X10250Y5809D01*
Y6000D01*
X9498Y5389D02*
X9830D01*
X9360Y5251D02*
X9498Y5389D01*
X9360Y3049D02*
X9360Y3049D01*
X11250Y5431D02*
Y6000D01*
D78*
X9255Y404D02*
D03*
D79*
X2310Y5585D02*
D03*
Y415D02*
D03*
D80*
X9250Y266D02*
D03*
X10250Y5734D02*
D03*
X6250D02*
D03*
X11250D02*
D03*
X9250D02*
D03*
X8250D02*
D03*
D81*
X10250Y6050D02*
D03*
X6250D02*
D03*
X11250D02*
D03*
X9250D02*
D03*
X8250D02*
D03*
D84*
X2250Y5734D02*
D03*
Y266D02*
D03*
D86*
X6890Y3571D02*
D03*
X7323D02*
D03*
X7756D02*
D03*
X6890Y3138D02*
D03*
X7323D02*
D03*
X7756D02*
D03*
X6890Y2705D02*
D03*
X7323D02*
D03*
X7756D02*
D03*
X8770Y659D02*
D03*
X11221Y2941D02*
D03*
X11270Y4225D02*
D03*
X11220Y2478D02*
D03*
X9370Y1199D02*
D03*
X6978Y1012D02*
D03*
X10382Y2862D02*
D03*
X9744Y3039D02*
D03*
X9587Y5116D02*
D03*
X5197Y4270D02*
D03*
X2617Y645D02*
D03*
X2140Y659D02*
D03*
X5020Y3843D02*
D03*
X3658Y3241D02*
D03*
X4303Y3785D02*
D03*
X4037Y3653D02*
D03*
X3813Y3460D02*
D03*
X3539Y2938D02*
D03*
X3506Y2643D02*
D03*
Y2346D02*
D03*
Y2049D02*
D03*
X3491Y1752D02*
D03*
X3285Y1539D02*
D03*
X2989Y1521D02*
D03*
X2692D02*
D03*
X2399Y1473D02*
D03*
X4045Y1009D02*
D03*
X4338Y1520D02*
D03*
X4385Y1813D02*
D03*
X4388Y2110D02*
D03*
Y2407D02*
D03*
X4390Y2704D02*
D03*
X4564Y2945D02*
D03*
X4856Y2996D02*
D03*
X4715Y3851D02*
D03*
X3810Y824D02*
D03*
X10404Y2197D02*
D03*
X4744Y5300D02*
D03*
X5138Y4900D02*
D03*
X5404Y5275D02*
D03*
X4309Y4914D02*
D03*
X6211Y4368D02*
D03*
X11270Y1720D02*
D03*
X9567Y3532D02*
D03*
X3335Y5283D02*
D03*
X9360Y2665D02*
D03*
X9537Y2852D02*
D03*
X9360Y3049D02*
D03*
X9545Y4024D02*
D03*
X9548Y4526D02*
D03*
X5473Y1077D02*
D03*
X4978Y1071D02*
D03*
X11848Y1139D02*
D03*
X10098Y1639D02*
D03*
X4598Y2639D02*
D03*
X4848Y2139D02*
D03*
X4598Y1639D02*
D03*
X4348Y1139D02*
D03*
X2848Y4139D02*
D03*
X4882Y1819D02*
D03*
X2171Y5343D02*
D03*
X2151Y3733D02*
D03*
X8815Y1699D02*
D03*
X8456Y1010D02*
D03*
X9626Y1199D02*
D03*
X6890Y4959D02*
D03*
X2313Y3378D02*
D03*
X7473Y1763D02*
D03*
X5793Y2159D02*
D03*
X5955Y1199D02*
D03*
X5203Y2733D02*
D03*
X11230Y3720D02*
D03*
X9249Y703D02*
D03*
X2140Y2620D02*
D03*
X4290Y4080D02*
D03*
X11630Y2970D02*
D03*
X11680Y1680D02*
D03*
X11250Y3430D02*
D03*
X10640Y1080D02*
D03*
X11910Y840D02*
D03*
X11447Y919D02*
D03*
X10210Y1140D02*
D03*
X9760Y740D02*
D03*
X2650Y5760D02*
D03*
X2144Y4638D02*
D03*
X2700Y2800D02*
D03*
Y200D02*
D03*
X2180Y1570D02*
D03*
X2726Y3891D02*
D03*
X2716Y4367D02*
D03*
M02*
