G04*
G04 #@! TF.GenerationSoftware,Altium Limited,Altium Designer,21.7.2 (23)*
G04*
G04 Layer_Color=16711935*
%FSLAX24Y24*%
%MOIN*%
G70*
G04*
G04 #@! TF.SameCoordinates,43C8A9C3-E03B-469C-A9E8-94EB88380565*
G04*
G04*
G04 #@! TF.FilePolarity,Negative*
G04*
G01*
G75*
%ADD37C,0.0769*%
%ADD42C,0.0787*%
%ADD43R,0.0787X0.0787*%
%ADD61R,0.0769X0.0592*%
%ADD62R,0.0769X0.0158*%
%ADD63R,0.0500X0.0158*%
%ADD64R,0.0500X0.0592*%
%ADD65C,0.0316*%
%ADD91C,0.0454*%
%ADD92R,0.1005X0.0359*%
%ADD93C,0.0370*%
%ADD94C,0.0375*%
D37*
X13250Y5000D02*
D03*
Y1000D02*
D03*
Y5000D02*
D03*
Y1000D02*
D03*
D42*
X2820Y2150D02*
D03*
D43*
X14173Y4575D02*
D03*
D61*
X10250Y266D02*
D03*
X11250D02*
D03*
X13250Y5081D02*
D03*
Y919D02*
D03*
X9250Y266D02*
D03*
X10250Y5734D02*
D03*
X8250Y266D02*
D03*
X7250D02*
D03*
X6250D02*
D03*
X5250D02*
D03*
Y5734D02*
D03*
X6250D02*
D03*
X7250D02*
D03*
X11250D02*
D03*
X3250D02*
D03*
X4250D02*
D03*
X9250D02*
D03*
X8250D02*
D03*
X3250Y266D02*
D03*
X4250D02*
D03*
D62*
X10250Y-50D02*
D03*
X11250D02*
D03*
X13250Y5416D02*
D03*
Y584D02*
D03*
X9250Y-50D02*
D03*
X10250Y6050D02*
D03*
X8250Y-50D02*
D03*
X7250D02*
D03*
X6250D02*
D03*
X5250D02*
D03*
Y6050D02*
D03*
X6250D02*
D03*
X7250D02*
D03*
X11250D02*
D03*
X3250D02*
D03*
X4250D02*
D03*
X9250D02*
D03*
X8250D02*
D03*
X3250Y-50D02*
D03*
X4250D02*
D03*
D63*
X2250Y6050D02*
D03*
Y-50D02*
D03*
D64*
Y5734D02*
D03*
Y266D02*
D03*
D65*
X15748Y5327D02*
D03*
X16535D02*
D03*
X16142D02*
D03*
Y673D02*
D03*
X16535D02*
D03*
X15748D02*
D03*
X630Y39D02*
D03*
X1417D02*
D03*
X1024D02*
D03*
Y5961D02*
D03*
X1417D02*
D03*
X630D02*
D03*
D91*
X7087Y1819D02*
D03*
X13780Y3886D02*
D03*
Y2114D02*
D03*
X11024Y2016D02*
D03*
X5315Y1819D02*
D03*
X13780Y2705D02*
D03*
Y3295D02*
D03*
D92*
X10168Y2000D02*
D03*
Y2500D02*
D03*
Y3000D02*
D03*
Y3500D02*
D03*
Y4000D02*
D03*
X8632Y2000D02*
D03*
Y2500D02*
D03*
Y3000D02*
D03*
Y3500D02*
D03*
Y4000D02*
D03*
D93*
X12700D02*
D03*
Y3500D02*
D03*
Y3000D02*
D03*
Y2500D02*
D03*
Y2000D02*
D03*
X12200D02*
D03*
Y2500D02*
D03*
Y3000D02*
D03*
Y3500D02*
D03*
Y4000D02*
D03*
D94*
X13169Y3295D02*
D03*
Y2705D02*
D03*
M02*
