M48
;Layer_Color=9474304
;FILE_FORMAT=2:4
INCH,TZ
;TYPE=PLATED
T1F00S00C0.0120
T2F00S00C0.0130
T3F00S00C0.0354
T4F00S00C0.1024
;TYPE=NON_PLATED
T6F00S00C0.0610
%
T01
X12290Y649
X12998
X13707
X14416Y658
X15124Y649
X15833
X16542
X17250
X17959
X18668
X3764Y4080
X3989Y5053
X3609Y5263
X1839Y5543
X1994Y4080
X224Y3560
Y5331
Y7100
Y8870
X2224
Y7100
X4224
Y8870
X5164Y8630
X5364Y7780
X5708Y8100
X6023
X6338
X6653
X6224Y7780
Y6870
X6383Y6049
X5533
X5034Y5490
X4750Y6390
X7126Y5932
X7441
X7756
X8071
X8631Y5426
X9674Y5780
X11174
X11004Y7190
X10147Y7277
X10224Y8870
X9224
X8458Y8630
X8413Y7539
X8224Y6870
X7793Y4810
X6833Y4809
X5534Y4080
X13247Y4820
X13871Y4805
X13874Y5770
X12874
X13344Y6890
X12004Y7190
X12224Y8870
X13934
X14474Y7710
X15392Y6832
X15770Y6807
X16188Y7012
X16639Y6920
X17539Y6950
X17661Y7236
Y7526
Y7816
Y8216
Y8616
X17871Y8416
Y8016
X18439Y7686
X18849
X19269Y7649
X19589
X20003Y7696
X20224Y8870
X18224
X16476Y8915
X15674Y8870
X15292Y6102
X15075Y5290
X16719Y4269
X16272Y3630
X17208Y3390
X17498
X17788
X18078
X18368
X18658
X18948
X19148Y3600
X19558
X19958
X19758Y3390
X19358
X20292Y4830
Y5495
X19039Y6749
X20574Y6643
X20426Y6390
Y6040
X20792Y5475
X21292Y5255
X21692Y4974
X22241Y5002
X22821Y4982
X22792Y4265
X22292
X21792
X21292Y4395
X21411Y3942
X20792Y4754
X20427Y4395
X20989Y6686
X21571Y6255
X21851Y7405
X23121Y7205
Y6365
Y5525
Y3943
X24673Y3289
X23121Y8715
X22224Y8870
T02
X17160Y4651
X17633
Y5123
X17160
Y5596
Y6068
X17633
Y5596
X18105
Y6068
X18578
Y5596
Y5123
X18105
Y4651
X18578
T03
X10163Y8360
X12840
T04
X22782Y7913
T06
X5000Y7016
X8779
M30
