%TF.GenerationSoftware,KiCad,Pcbnew,8.0.2*%
%TF.CreationDate,2025-08-30T14:31:31+07:00*%
%TF.ProjectId,minions,6d696e69-6f6e-4732-9e6b-696361645f70,1*%
%TF.SameCoordinates,Original*%
%TF.FileFunction,Other,User*%
%FSLAX46Y46*%
G04 Gerber Fmt 4.6, Leading zero omitted, Abs format (unit mm)*
G04 Created by KiCad (PCBNEW 8.0.2) date 2025-08-30 14:31:31*
%MOMM*%
%LPD*%
G01*
G04 APERTURE LIST*
%ADD10C,0.050000*%
G04 APERTURE END LIST*
D10*
%TO.C,SW4*%
X196252327Y-97039485D02*
X196252328Y-88239485D01*
X196252328Y-88239485D02*
X200802327Y-88239486D01*
X200802326Y-90989486D02*
X202102326Y-90989487D01*
X200802326Y-94289487D02*
X200802327Y-97039486D01*
X200802327Y-88239486D02*
X200802326Y-90989486D01*
X200802327Y-97039486D02*
X196252327Y-97039485D01*
X202102326Y-90989487D02*
X202102326Y-94289487D01*
X202102326Y-94289487D02*
X200802326Y-94289487D01*
%TO.C,FB1*%
X184302325Y-70267668D02*
X187602325Y-70267671D01*
X184302327Y-71727663D02*
X184302325Y-70267668D01*
X187602325Y-70267671D02*
X187602327Y-71727666D01*
X187602327Y-71727666D02*
X184302327Y-71727663D01*
%TO.C,R10*%
X151720101Y-96713604D02*
X153063604Y-95370101D01*
X153063604Y-95370101D02*
X155679899Y-97986396D01*
X154336396Y-99329899D02*
X151720101Y-96713604D01*
X155679899Y-97986396D02*
X154336396Y-99329899D01*
%TO.C,D17*%
X188680001Y-133000004D02*
X188680001Y-135499997D01*
X188680001Y-135499997D02*
X191719999Y-135499996D01*
X191719999Y-133000003D02*
X188680001Y-133000004D01*
X191719999Y-135499996D02*
X191719999Y-133000003D01*
%TO.C,C3*%
X166069828Y-104697670D02*
X169829828Y-104697671D01*
X166069828Y-106657671D02*
X166069828Y-104697670D01*
X169829828Y-104697671D02*
X169829828Y-106657672D01*
X169829828Y-106657672D02*
X166069828Y-106657671D01*
%TO.C,C57*%
X132769999Y-78080000D02*
X132770000Y-74320000D01*
X132770000Y-74320000D02*
X134730001Y-74320000D01*
X134730000Y-78080000D02*
X132769999Y-78080000D01*
X134730001Y-74320000D02*
X134730000Y-78080000D01*
%TO.C,C5*%
X192220000Y-133719999D02*
X195980000Y-133720000D01*
X192220000Y-135680000D02*
X192220000Y-133719999D01*
X195980000Y-133720000D02*
X195980000Y-135680001D01*
X195980000Y-135680001D02*
X192220000Y-135680000D01*
%TO.C,H5*%
X202700000Y-107800000D02*
G75*
G02*
X196600000Y-107800000I-3050000J0D01*
G01*
X196600000Y-107800000D02*
G75*
G02*
X202700000Y-107800000I3050000J0D01*
G01*
%TO.C,C42*%
X192120000Y-127269999D02*
X195880000Y-127270000D01*
X192120000Y-129230000D02*
X192120000Y-127269999D01*
X195880000Y-127270000D02*
X195880000Y-129230001D01*
X195880000Y-129230001D02*
X192120000Y-129230000D01*
%TO.C,C41*%
X192119998Y-125120000D02*
X195879998Y-125120001D01*
X192119998Y-127080001D02*
X192119998Y-125120000D01*
X195879998Y-125120001D02*
X195879998Y-127080002D01*
X195879998Y-127080002D02*
X192119998Y-127080001D01*
%TO.C,C17*%
X176192326Y-91415169D02*
X176192327Y-87655169D01*
X176192327Y-87655169D02*
X178152328Y-87655169D01*
X178152327Y-91415169D02*
X176192326Y-91415169D01*
X178152328Y-87655169D02*
X178152327Y-91415169D01*
%TO.C,C43*%
X192170000Y-129369999D02*
X195930000Y-129370000D01*
X192170000Y-131330000D02*
X192170000Y-129369999D01*
X195930000Y-129370000D02*
X195930000Y-131330001D01*
X195930000Y-131330001D02*
X192170000Y-131330000D01*
%TO.C,C40*%
X134325670Y-111583271D02*
X136984396Y-108924547D01*
X135711596Y-112969205D02*
X134325670Y-111583271D01*
X136984396Y-108924547D02*
X138370322Y-110310481D01*
X138370322Y-110310481D02*
X135711596Y-112969205D01*
%TO.C,U4*%
X174552326Y-69897666D02*
X174552327Y-80297669D01*
X174552327Y-80297669D02*
X181952328Y-80297672D01*
X181952327Y-69897669D02*
X174552326Y-69897666D01*
X181952328Y-80297672D02*
X181952327Y-69897669D01*
%TO.C,R4*%
X187752326Y-74497669D02*
X191452326Y-74497669D01*
X187752326Y-76397669D02*
X187752326Y-74497669D01*
X191452326Y-74497669D02*
X191452326Y-76397669D01*
X191452326Y-76397669D02*
X187752326Y-76397669D01*
%TO.C,SW1*%
X140568111Y-101582323D02*
X147639177Y-108653389D01*
X145164303Y-96986129D02*
X140568111Y-101582323D01*
X145164303Y-96986129D02*
X152235369Y-104057195D01*
X147639177Y-108653389D02*
X152235369Y-104057195D01*
%TO.C,C1*%
X165969828Y-107047670D02*
X169729828Y-107047671D01*
X165969828Y-109007671D02*
X165969828Y-107047670D01*
X169729828Y-107047671D02*
X169729828Y-109007672D01*
X169729828Y-109007672D02*
X165969828Y-109007671D01*
%TO.C,C18*%
X138619997Y-75129999D02*
X138620000Y-73169999D01*
X138620000Y-73169999D02*
X142380003Y-73170001D01*
X142380000Y-75130001D02*
X138619997Y-75129999D01*
X142380003Y-73170001D02*
X142380000Y-75130001D01*
%TO.C,C22*%
X137330871Y-114659186D02*
X139989592Y-112000465D01*
X138716802Y-116045117D02*
X137330871Y-114659186D01*
X139989592Y-112000465D02*
X141375523Y-113386396D01*
X141375523Y-113386396D02*
X138716802Y-116045117D01*
%TO.C,C56*%
X135784073Y-113112389D02*
X138442794Y-110453668D01*
X137170004Y-114498320D02*
X135784073Y-113112389D01*
X138442794Y-110453668D02*
X139828725Y-111839599D01*
X139828725Y-111839599D02*
X137170004Y-114498320D01*
%TO.C,C19*%
X139606443Y-98683184D02*
X142265169Y-96024460D01*
X140992369Y-100069118D02*
X139606443Y-98683184D01*
X142265169Y-96024460D02*
X143651095Y-97410394D01*
X143651095Y-97410394D02*
X140992369Y-100069118D01*
%TO.C,D11*%
X188680000Y-132599997D02*
X191719999Y-132599997D01*
X188680001Y-130100003D02*
X188680000Y-132599997D01*
X191719999Y-132599997D02*
X191720000Y-130100003D01*
X191720000Y-130100003D02*
X188680001Y-130100003D01*
%TO.C,R11*%
X177552329Y-109397669D02*
X181252329Y-109397669D01*
X177552329Y-111297669D02*
X177552329Y-109397669D01*
X181252329Y-109397669D02*
X181252329Y-111297669D01*
X181252329Y-111297669D02*
X177552329Y-111297669D01*
%TO.C,C13*%
X192822323Y-85659486D02*
X196582327Y-85659485D01*
X192822327Y-87619487D02*
X192822323Y-85659486D01*
X196582327Y-85659485D02*
X196582331Y-87619486D01*
X196582331Y-87619486D02*
X192822327Y-87619487D01*
%TO.C,U1*%
X190449999Y-124230000D02*
X190450000Y-119469999D01*
X190449999Y-124230000D02*
X194050000Y-124230001D01*
X194050001Y-119470000D02*
X190450000Y-119469999D01*
X194050001Y-119470000D02*
X194050000Y-124230001D01*
%TO.C,C14*%
X172472327Y-96577671D02*
X172472328Y-92817671D01*
X172472328Y-92817671D02*
X174432329Y-92817671D01*
X174432328Y-96577671D02*
X172472327Y-96577671D01*
X174432329Y-92817671D02*
X174432328Y-96577671D01*
%TO.C,R12*%
X177552331Y-112347673D02*
X181252331Y-112347673D01*
X177552331Y-114247673D02*
X177552331Y-112347673D01*
X181252331Y-112347673D02*
X181252331Y-114247673D01*
X181252331Y-114247673D02*
X177552331Y-114247673D01*
%TO.C,U6*%
X190102328Y-89279485D02*
X190102328Y-93179485D01*
X190102328Y-89279485D02*
X194002328Y-89279485D01*
X190102328Y-93179485D02*
X194002328Y-93179485D01*
X194002328Y-89279485D02*
X194002328Y-93179485D01*
%TO.C,C39*%
X132699322Y-109956926D02*
X135358048Y-107298202D01*
X134085248Y-111342860D02*
X132699322Y-109956926D01*
X135358048Y-107298202D02*
X136743974Y-108684136D01*
X136743974Y-108684136D02*
X134085248Y-111342860D01*
%TO.C,C6*%
X192220000Y-135870000D02*
X195980000Y-135870000D01*
X192220000Y-137830000D02*
X192220000Y-135870000D01*
X195980000Y-135870000D02*
X195980000Y-137830000D01*
X195980000Y-137830000D02*
X192220000Y-137830000D01*
%TO.C,SW2*%
X194980004Y-112399999D02*
X199530002Y-112400000D01*
X194980004Y-121199999D02*
X194980004Y-112399999D01*
X199530001Y-115150002D02*
X200830000Y-115150000D01*
X199530001Y-118450001D02*
X199530002Y-121200000D01*
X199530002Y-112400000D02*
X199530001Y-115150002D01*
X199530002Y-121200000D02*
X194980004Y-121199999D01*
X200830000Y-115150000D02*
X200830001Y-118450001D01*
X200830001Y-118450001D02*
X199530001Y-118450001D01*
%TO.C,D8*%
X188580000Y-126550003D02*
X188580001Y-129049997D01*
X188580001Y-129049997D02*
X191620000Y-129049997D01*
X191619999Y-126550003D02*
X188580000Y-126550003D01*
X191620000Y-129049997D02*
X191619999Y-126550003D01*
%TO.C,R5*%
X177552333Y-106447671D02*
X181252333Y-106447671D01*
X177552333Y-108347671D02*
X177552333Y-106447671D01*
X181252333Y-106447671D02*
X181252333Y-108347671D01*
X181252333Y-108347671D02*
X177552333Y-108347671D01*
%TO.C,AE1*%
X137116789Y-66190456D02*
X137116789Y-72140454D01*
X137116789Y-72140454D02*
X152616790Y-72140455D01*
X152616790Y-66190455D02*
X137116789Y-66190456D01*
X152616790Y-72140455D02*
X152616790Y-66190455D01*
%TO.C,C2*%
X183422330Y-72567668D02*
X187182330Y-72567669D01*
X183422330Y-74527669D02*
X183422330Y-72567668D01*
X187182330Y-72567669D02*
X187182330Y-74527670D01*
X187182330Y-74527670D02*
X183422330Y-74527669D01*
%TO.C,C20*%
X122419995Y-83830000D02*
X122420000Y-81869999D01*
X122420000Y-81869999D02*
X126180005Y-81870000D01*
X126180000Y-83830001D02*
X122419995Y-83830000D01*
X126180005Y-81870000D02*
X126180000Y-83830001D01*
%TO.C,R1*%
X114550000Y-113350000D02*
X116450000Y-113350000D01*
X114550000Y-117050000D02*
X114550000Y-113350000D01*
X116450000Y-113350000D02*
X116450000Y-117050000D01*
X116450000Y-117050000D02*
X114550000Y-117050000D01*
%TO.C,C44*%
X192170000Y-131569999D02*
X195930000Y-131570000D01*
X192170000Y-133530000D02*
X192170000Y-131569999D01*
X195930000Y-131570000D02*
X195930000Y-133530001D01*
X195930000Y-133530001D02*
X192170000Y-133530000D01*
%TO.C,R17*%
X156849828Y-113127670D02*
X160549828Y-113127670D01*
X156849828Y-115027670D02*
X156849828Y-113127670D01*
X160549828Y-113127670D02*
X160549828Y-115027670D01*
X160549828Y-115027670D02*
X156849828Y-115027670D01*
%TO.C,R3*%
X187752326Y-76927664D02*
X191452326Y-76927664D01*
X187752326Y-78827664D02*
X187752326Y-76927664D01*
X191452326Y-76927664D02*
X191452326Y-78827664D01*
X191452326Y-78827664D02*
X187752326Y-78827664D01*
%TO.C,P1*%
X193192329Y-71147666D02*
X193342327Y-71147666D01*
X193192329Y-79647665D02*
X193192329Y-71147666D01*
X193342327Y-68697666D02*
X196352329Y-68697665D01*
X193342327Y-71147666D02*
X193342327Y-68697666D01*
X193342327Y-79647666D02*
X193192329Y-79647665D01*
X193342330Y-82097665D02*
X193342327Y-79647666D01*
X196352327Y-70427666D02*
X197272327Y-70427666D01*
X196352327Y-80367667D02*
X196352327Y-82097665D01*
X196352327Y-82097665D02*
X193342330Y-82097665D01*
X196352329Y-68697665D02*
X196352327Y-70427666D01*
X197272327Y-68697666D02*
X200282326Y-68697669D01*
X197272327Y-70427666D02*
X197272327Y-68697666D01*
X197272327Y-80367666D02*
X196352327Y-80367667D01*
X197272327Y-82097666D02*
X197272327Y-80367666D01*
X200282326Y-68697669D02*
X200282328Y-70427666D01*
X200282327Y-80367666D02*
X200282327Y-82097665D01*
X200282327Y-82097665D02*
X197272327Y-82097666D01*
X200282328Y-70427666D02*
X202132327Y-70427667D01*
X202132327Y-70427667D02*
X202132329Y-80367666D01*
X202132329Y-80367666D02*
X200282327Y-80367666D01*
%TO.C,L1*%
X181002325Y-87439486D02*
X182552326Y-87439483D01*
X181002325Y-94639486D02*
X181002325Y-87439486D01*
X182552326Y-87439483D02*
X182552327Y-86589488D01*
X182552326Y-95489484D02*
X182552327Y-94639486D01*
X182552327Y-86589488D02*
X186552328Y-86589488D01*
X182552327Y-94639486D02*
X181002325Y-94639486D01*
X186552327Y-87439486D02*
X188102329Y-87439486D01*
X186552327Y-95489484D02*
X182552326Y-95489484D01*
X186552328Y-86589488D02*
X186552327Y-87439486D01*
X186552328Y-94639489D02*
X186552327Y-95489484D01*
X188102329Y-87439486D02*
X188102329Y-94639486D01*
X188102329Y-94639486D02*
X186552328Y-94639489D01*
%TO.C,C21*%
X135469999Y-74320001D02*
X137430001Y-74320000D01*
X135469999Y-78080000D02*
X135469999Y-74320001D01*
X137430001Y-74320000D02*
X137430001Y-78079999D01*
X137430001Y-78079999D02*
X135469999Y-78080000D01*
%TO.C,R14*%
X175202328Y-115197671D02*
X177102328Y-115197671D01*
X175202328Y-118897671D02*
X175202328Y-115197671D01*
X177102328Y-115197671D02*
X177102328Y-118897671D01*
X177102328Y-118897671D02*
X175202328Y-118897671D01*
%TO.C,U7*%
X126575620Y-86440456D02*
X131666791Y-91531625D01*
X131666789Y-81349285D02*
X126575620Y-86440456D01*
X131666791Y-91531625D02*
X136757960Y-86440454D01*
X136757960Y-86440454D02*
X131666789Y-81349285D01*
%TO.C,Y1*%
X138156064Y-75418450D02*
X138156066Y-81018451D01*
X138156066Y-81018451D02*
X142756068Y-81018450D01*
X142756066Y-75418449D02*
X138156064Y-75418450D01*
X142756068Y-81018450D02*
X142756066Y-75418449D01*
%TO.C,R2*%
X116900000Y-112350000D02*
X118800000Y-112350000D01*
X116900000Y-116050000D02*
X116900000Y-112350000D01*
X118800000Y-112350000D02*
X118800000Y-116050000D01*
X118800000Y-116050000D02*
X116900000Y-116050000D01*
%TO.C,U5*%
X167019828Y-110147671D02*
X167019828Y-114407671D01*
X167019828Y-114407671D02*
X171279828Y-114407671D01*
X171279828Y-110147671D02*
X167019828Y-110147671D01*
X171279828Y-114407671D02*
X171279828Y-110147671D01*
%TO.C,R16*%
X170352328Y-92847671D02*
X172252328Y-92847671D01*
X170352328Y-96547671D02*
X170352328Y-92847671D01*
X172252328Y-92847671D02*
X172252328Y-96547671D01*
X172252328Y-96547671D02*
X170352328Y-96547671D01*
%TO.C,C35*%
X144220000Y-77419999D02*
X147979999Y-77419999D01*
X144220001Y-79380001D02*
X144220000Y-77419999D01*
X147979999Y-77419999D02*
X147980000Y-79380001D01*
X147980000Y-79380001D02*
X144220001Y-79380001D01*
%TO.C,C11*%
X189722322Y-96619486D02*
X189722323Y-94659487D01*
X189722323Y-94659487D02*
X193482332Y-94659486D01*
X193482331Y-96619485D02*
X189722322Y-96619486D01*
X193482332Y-94659486D02*
X193482331Y-96619485D01*
%TO.C,D9*%
X188730000Y-138450003D02*
X188730001Y-140949997D01*
X188730001Y-140949997D02*
X191770000Y-140949997D01*
X191769999Y-138450003D02*
X188730000Y-138450003D01*
X191770000Y-140949997D02*
X191769999Y-138450003D01*
%TO.C,C12*%
X192822323Y-83209487D02*
X196582327Y-83209486D01*
X192822327Y-85169488D02*
X192822323Y-83209487D01*
X196582327Y-83209486D02*
X196582331Y-85169487D01*
X196582331Y-85169487D02*
X192822327Y-85169488D01*
%TO.C,C16*%
X178582327Y-91395171D02*
X178582328Y-87635171D01*
X178582328Y-87635171D02*
X180542329Y-87635171D01*
X180542328Y-91395171D02*
X178582327Y-91395171D01*
X180542329Y-87635171D02*
X180542328Y-91395171D01*
%TO.C,C36*%
X144220000Y-75319999D02*
X147979999Y-75319999D01*
X144220001Y-77280001D02*
X144220000Y-75319999D01*
X147979999Y-75319999D02*
X147980000Y-77280001D01*
X147980000Y-77280001D02*
X144220001Y-77280001D01*
%TO.C,Q2*%
X188114828Y-73917666D02*
X191514826Y-73917664D01*
X188114830Y-70077670D02*
X188114828Y-73917666D01*
X191514826Y-73917664D02*
X191514828Y-70077668D01*
X191514828Y-70077668D02*
X188114830Y-70077670D01*
%TO.C,C15*%
X174632327Y-96595171D02*
X174632328Y-92835171D01*
X174632328Y-92835171D02*
X176592329Y-92835171D01*
X176592328Y-96595171D02*
X174632327Y-96595171D01*
X176592329Y-92835171D02*
X176592328Y-96595171D01*
%TO.C,C8*%
X138519995Y-83380000D02*
X138520000Y-81419999D01*
X138520000Y-81419999D02*
X142280005Y-81420000D01*
X142280000Y-83380001D02*
X138519995Y-83380000D01*
X142280005Y-81420000D02*
X142280000Y-83380001D01*
%TO.C,D4*%
X161549827Y-110327671D02*
X165249827Y-110327671D01*
X161549827Y-112227671D02*
X161549827Y-110327671D01*
X165249827Y-110327671D02*
X165249827Y-112227671D01*
X165249827Y-112227671D02*
X161549827Y-112227671D01*
%TO.C,H4*%
X164350000Y-74950000D02*
G75*
G02*
X158250000Y-74950000I-3050000J0D01*
G01*
X158250000Y-74950000D02*
G75*
G02*
X164350000Y-74950000I3050000J0D01*
G01*
%TO.C,R13*%
X189719948Y-97024432D02*
X193419948Y-97024432D01*
X189719948Y-98924432D02*
X189719948Y-97024432D01*
X193419948Y-97024432D02*
X193419948Y-98924432D01*
X193419948Y-98924432D02*
X189719948Y-98924432D01*
%TO.C,C9*%
X192270000Y-140219999D02*
X196030000Y-140220000D01*
X192270000Y-142180000D02*
X192270000Y-140219999D01*
X196030000Y-140220000D02*
X196030000Y-142180001D01*
X196030000Y-142180001D02*
X192270000Y-142180000D01*
%TO.C,U8*%
X119780000Y-104749999D02*
X119780001Y-115750000D01*
X119780000Y-104749999D02*
X129279999Y-104750000D01*
X119780001Y-115750000D02*
X129280000Y-115750001D01*
X129279999Y-104750000D02*
X129280000Y-115750001D01*
%TO.C,D10*%
X188680001Y-141250004D02*
X188680001Y-143749997D01*
X188680001Y-143749997D02*
X191719999Y-143749996D01*
X191719999Y-141250003D02*
X188680001Y-141250004D01*
X191719999Y-143749996D02*
X191719999Y-141250003D01*
%TO.C,C37*%
X122419995Y-81530000D02*
X122420000Y-79570000D01*
X122420000Y-79570000D02*
X126180005Y-79570000D01*
X126180000Y-81530000D02*
X122419995Y-81530000D01*
X126180005Y-79570000D02*
X126180000Y-81530000D01*
%TO.C,R15*%
X156849828Y-110327670D02*
X160549828Y-110327670D01*
X156849828Y-112227670D02*
X156849828Y-110327670D01*
X160549828Y-110327670D02*
X160549828Y-112227670D01*
X160549828Y-112227670D02*
X156849828Y-112227670D01*
%TO.C,U9*%
X171312328Y-87665171D02*
X171312328Y-91565171D01*
X171312328Y-87665171D02*
X175212328Y-87665171D01*
X171312328Y-91565171D02*
X175212328Y-91565171D01*
X175212328Y-87665171D02*
X175212328Y-91565171D01*
%TO.C,R6*%
X173102328Y-115197671D02*
X175002328Y-115197671D01*
X173102328Y-118897671D02*
X173102328Y-115197671D01*
X175002328Y-115197671D02*
X175002328Y-118897671D01*
X175002328Y-118897671D02*
X173102328Y-118897671D01*
%TO.C,C10*%
X170972327Y-118977671D02*
X170972328Y-115217671D01*
X170972328Y-115217671D02*
X172932329Y-115217671D01*
X172932328Y-118977671D02*
X170972327Y-118977671D01*
X172932329Y-115217671D02*
X172932328Y-118977671D01*
%TO.C,C7*%
X192219999Y-140030001D02*
X192220000Y-138070000D01*
X192220000Y-138070000D02*
X195980001Y-138069999D01*
X195980000Y-140030000D02*
X192219999Y-140030001D01*
X195980001Y-138069999D02*
X195980000Y-140030000D01*
%TO.C,SW3*%
X185252328Y-113947669D02*
X185252330Y-105147670D01*
X185252330Y-105147670D02*
X189802328Y-105147671D01*
X189802327Y-107897672D02*
X191102326Y-107897673D01*
X189802327Y-111197672D02*
X189802328Y-113947671D01*
X189802328Y-105147671D02*
X189802327Y-107897672D01*
X189802328Y-113947671D02*
X185252328Y-113947669D01*
X191102326Y-107897673D02*
X191102327Y-111197672D01*
X191102327Y-111197672D02*
X189802327Y-111197672D01*
%TO.C,R7*%
X168799828Y-115227671D02*
X170699828Y-115227671D01*
X168799828Y-118927671D02*
X168799828Y-115227671D01*
X170699828Y-115227671D02*
X170699828Y-118927671D01*
X170699828Y-118927671D02*
X168799828Y-118927671D01*
%TO.C,D32*%
X161549828Y-113127671D02*
X165249828Y-113127671D01*
X161549828Y-115027671D02*
X161549828Y-113127671D01*
X165249828Y-113127671D02*
X165249828Y-115027671D01*
X165249828Y-115027671D02*
X161549828Y-115027671D01*
%TO.C,D23*%
X188743858Y-135699726D02*
X188743859Y-138199720D01*
X188743859Y-138199720D02*
X191783858Y-138199720D01*
X191783857Y-135699726D02*
X188743858Y-135699726D01*
X191783858Y-138199720D02*
X191783857Y-135699726D01*
%TO.C,U10*%
X139229454Y-116444632D02*
X140997221Y-118212400D01*
X140997221Y-118212400D02*
X143259964Y-115949658D01*
X141492197Y-114181890D02*
X139229454Y-116444632D01*
X143259964Y-115949658D02*
X141492197Y-114181890D01*
%TO.C,C4*%
X189672323Y-101319486D02*
X189672324Y-99359487D01*
X189672324Y-99359487D02*
X193432333Y-99359486D01*
X193432332Y-101319485D02*
X189672323Y-101319486D01*
X193432333Y-99359486D02*
X193432332Y-101319485D01*
%TO.C,Q1*%
X177852330Y-105567670D02*
X181252328Y-105567668D01*
X177852332Y-101727674D02*
X177852330Y-105567670D01*
X181252328Y-105567668D02*
X181252330Y-101727672D01*
X181252330Y-101727672D02*
X177852332Y-101727674D01*
%TO.C,D13*%
X188680001Y-146800004D02*
X188680001Y-149299997D01*
X188680001Y-149299997D02*
X191719999Y-149299996D01*
X191719999Y-146800003D02*
X188680001Y-146800004D01*
X191719999Y-149299996D02*
X191719999Y-146800003D01*
%TO.C,L3*%
X133549998Y-72270000D02*
X136850000Y-72270001D01*
X133550000Y-73729999D02*
X133549998Y-72270000D01*
X136850000Y-72270001D02*
X136850002Y-73730000D01*
X136850002Y-73730000D02*
X133550000Y-73729999D01*
%TO.C,C38*%
X131064137Y-108374773D02*
X133722863Y-105716049D01*
X132450063Y-109760707D02*
X131064137Y-108374773D01*
X133722863Y-105716049D02*
X135108789Y-107101983D01*
X135108789Y-107101983D02*
X132450063Y-109760707D01*
%TO.C,H7*%
X195900000Y-154050000D02*
G75*
G02*
X189800000Y-154050000I-3050000J0D01*
G01*
X189800000Y-154050000D02*
G75*
G02*
X195900000Y-154050000I3050000J0D01*
G01*
%TO.C,D12*%
X188680001Y-144000004D02*
X188680001Y-146499997D01*
X188680001Y-146499997D02*
X191719999Y-146499996D01*
X191719999Y-144000003D02*
X188680001Y-144000004D01*
X191719999Y-146499996D02*
X191719999Y-144000003D01*
%TO.C,H6*%
X110700000Y-107550000D02*
G75*
G02*
X104600000Y-107550000I-3050000J0D01*
G01*
X104600000Y-107550000D02*
G75*
G02*
X110700000Y-107550000I3050000J0D01*
G01*
%TO.C,L2*%
X161512326Y-87165171D02*
X163062327Y-87165168D01*
X161512326Y-94365171D02*
X161512326Y-87165171D01*
X163062327Y-87165168D02*
X163062328Y-86315173D01*
X163062327Y-95215169D02*
X163062328Y-94365171D01*
X163062328Y-86315173D02*
X167062329Y-86315173D01*
X163062328Y-94365171D02*
X161512326Y-94365171D01*
X167062328Y-87165171D02*
X168612330Y-87165171D01*
X167062328Y-95215169D02*
X163062327Y-95215169D01*
X167062329Y-86315173D02*
X167062328Y-87165171D01*
X167062329Y-94365174D02*
X167062328Y-95215169D01*
X168612330Y-87165171D02*
X168612330Y-94365171D01*
X168612330Y-94365171D02*
X167062329Y-94365174D01*
%TD*%
M02*
