%TF.GenerationSoftware,KiCad,Pcbnew,8.0.2*%
%TF.CreationDate,2025-08-30T14:31:31+07:00*%
%TF.ProjectId,minions,6d696e69-6f6e-4732-9e6b-696361645f70,1*%
%TF.SameCoordinates,Original*%
%TF.FileFunction,OtherDrawing,Comment*%
%FSLAX46Y46*%
G04 Gerber Fmt 4.6, Leading zero omitted, Abs format (unit mm)*
G04 Created by KiCad (PCBNEW 8.0.2) date 2025-08-30 14:31:31*
%MOMM*%
%LPD*%
G01*
G04 APERTURE LIST*
%ADD10C,0.100000*%
%ADD11C,0.150000*%
G04 APERTURE END LIST*
D10*
X201253436Y-77111951D02*
X200753436Y-77111951D01*
X200753436Y-77111951D02*
X200753436Y-76921475D01*
X200753436Y-76921475D02*
X200777246Y-76873856D01*
X200777246Y-76873856D02*
X200801055Y-76850046D01*
X200801055Y-76850046D02*
X200848674Y-76826237D01*
X200848674Y-76826237D02*
X200920103Y-76826237D01*
X200920103Y-76826237D02*
X200967722Y-76850046D01*
X200967722Y-76850046D02*
X200991531Y-76873856D01*
X200991531Y-76873856D02*
X201015341Y-76921475D01*
X201015341Y-76921475D02*
X201015341Y-77111951D01*
X201205817Y-76326237D02*
X201229627Y-76350046D01*
X201229627Y-76350046D02*
X201253436Y-76421475D01*
X201253436Y-76421475D02*
X201253436Y-76469094D01*
X201253436Y-76469094D02*
X201229627Y-76540522D01*
X201229627Y-76540522D02*
X201182007Y-76588141D01*
X201182007Y-76588141D02*
X201134388Y-76611951D01*
X201134388Y-76611951D02*
X201039150Y-76635760D01*
X201039150Y-76635760D02*
X200967722Y-76635760D01*
X200967722Y-76635760D02*
X200872484Y-76611951D01*
X200872484Y-76611951D02*
X200824865Y-76588141D01*
X200824865Y-76588141D02*
X200777246Y-76540522D01*
X200777246Y-76540522D02*
X200753436Y-76469094D01*
X200753436Y-76469094D02*
X200753436Y-76421475D01*
X200753436Y-76421475D02*
X200777246Y-76350046D01*
X200777246Y-76350046D02*
X200801055Y-76326237D01*
X200991531Y-75945284D02*
X201015341Y-75873856D01*
X201015341Y-75873856D02*
X201039150Y-75850046D01*
X201039150Y-75850046D02*
X201086769Y-75826237D01*
X201086769Y-75826237D02*
X201158198Y-75826237D01*
X201158198Y-75826237D02*
X201205817Y-75850046D01*
X201205817Y-75850046D02*
X201229627Y-75873856D01*
X201229627Y-75873856D02*
X201253436Y-75921475D01*
X201253436Y-75921475D02*
X201253436Y-76111951D01*
X201253436Y-76111951D02*
X200753436Y-76111951D01*
X200753436Y-76111951D02*
X200753436Y-75945284D01*
X200753436Y-75945284D02*
X200777246Y-75897665D01*
X200777246Y-75897665D02*
X200801055Y-75873856D01*
X200801055Y-75873856D02*
X200848674Y-75850046D01*
X200848674Y-75850046D02*
X200896293Y-75850046D01*
X200896293Y-75850046D02*
X200943912Y-75873856D01*
X200943912Y-75873856D02*
X200967722Y-75897665D01*
X200967722Y-75897665D02*
X200991531Y-75945284D01*
X200991531Y-75945284D02*
X200991531Y-76111951D01*
X200991531Y-75230999D02*
X200991531Y-75064332D01*
X201253436Y-74992904D02*
X201253436Y-75230999D01*
X201253436Y-75230999D02*
X200753436Y-75230999D01*
X200753436Y-75230999D02*
X200753436Y-74992904D01*
X201253436Y-74564332D02*
X200753436Y-74564332D01*
X201229627Y-74564332D02*
X201253436Y-74611951D01*
X201253436Y-74611951D02*
X201253436Y-74707189D01*
X201253436Y-74707189D02*
X201229627Y-74754808D01*
X201229627Y-74754808D02*
X201205817Y-74778618D01*
X201205817Y-74778618D02*
X201158198Y-74802427D01*
X201158198Y-74802427D02*
X201015341Y-74802427D01*
X201015341Y-74802427D02*
X200967722Y-74778618D01*
X200967722Y-74778618D02*
X200943912Y-74754808D01*
X200943912Y-74754808D02*
X200920103Y-74707189D01*
X200920103Y-74707189D02*
X200920103Y-74611951D01*
X200920103Y-74611951D02*
X200943912Y-74564332D01*
X200920103Y-74111951D02*
X201324865Y-74111951D01*
X201324865Y-74111951D02*
X201372484Y-74135761D01*
X201372484Y-74135761D02*
X201396293Y-74159570D01*
X201396293Y-74159570D02*
X201420103Y-74207189D01*
X201420103Y-74207189D02*
X201420103Y-74278618D01*
X201420103Y-74278618D02*
X201396293Y-74326237D01*
X201229627Y-74111951D02*
X201253436Y-74159570D01*
X201253436Y-74159570D02*
X201253436Y-74254808D01*
X201253436Y-74254808D02*
X201229627Y-74302427D01*
X201229627Y-74302427D02*
X201205817Y-74326237D01*
X201205817Y-74326237D02*
X201158198Y-74350046D01*
X201158198Y-74350046D02*
X201015341Y-74350046D01*
X201015341Y-74350046D02*
X200967722Y-74326237D01*
X200967722Y-74326237D02*
X200943912Y-74302427D01*
X200943912Y-74302427D02*
X200920103Y-74254808D01*
X200920103Y-74254808D02*
X200920103Y-74159570D01*
X200920103Y-74159570D02*
X200943912Y-74111951D01*
X201229627Y-73683380D02*
X201253436Y-73730999D01*
X201253436Y-73730999D02*
X201253436Y-73826237D01*
X201253436Y-73826237D02*
X201229627Y-73873856D01*
X201229627Y-73873856D02*
X201182007Y-73897665D01*
X201182007Y-73897665D02*
X200991531Y-73897665D01*
X200991531Y-73897665D02*
X200943912Y-73873856D01*
X200943912Y-73873856D02*
X200920103Y-73826237D01*
X200920103Y-73826237D02*
X200920103Y-73730999D01*
X200920103Y-73730999D02*
X200943912Y-73683380D01*
X200943912Y-73683380D02*
X200991531Y-73659570D01*
X200991531Y-73659570D02*
X201039150Y-73659570D01*
X201039150Y-73659570D02*
X201086769Y-73897665D01*
D11*
%TO.C,AE1*%
X137266790Y-71540457D02*
X137266790Y-66340454D01*
X152466790Y-66340455D02*
X137266790Y-66340454D01*
X152466790Y-66340455D02*
X137266790Y-71540457D01*
X152466793Y-71540453D02*
X137266790Y-66340454D01*
X152466793Y-71540453D02*
X137266790Y-71540457D01*
X152466793Y-71540453D02*
X152466790Y-66340455D01*
D10*
%TO.C,P1*%
X201627327Y-80397668D02*
X201627327Y-70397664D01*
%TD*%
M02*
