%TF.GenerationSoftware,KiCad,Pcbnew,8.0.2*%
%TF.CreationDate,2025-08-30T14:31:31+07:00*%
%TF.ProjectId,minions,6d696e69-6f6e-4732-9e6b-696361645f70,1*%
%TF.SameCoordinates,Original*%
%TF.FileFunction,Soldermask,Bot*%
%TF.FilePolarity,Negative*%
%FSLAX46Y46*%
G04 Gerber Fmt 4.6, Leading zero omitted, Abs format (unit mm)*
G04 Created by KiCad (PCBNEW 8.0.2) date 2025-08-30 14:31:31*
%MOMM*%
%LPD*%
G01*
G04 APERTURE LIST*
G04 Aperture macros list*
%AMHorizOval*
0 Thick line with rounded ends*
0 $1 width*
0 $2 $3 position (X,Y) of the first rounded end (center of the circle)*
0 $4 $5 position (X,Y) of the second rounded end (center of the circle)*
0 Add line between two ends*
20,1,$1,$2,$3,$4,$5,0*
0 Add two circle primitives to create the rounded ends*
1,1,$1,$2,$3*
1,1,$1,$4,$5*%
%AMRotRect*
0 Rectangle, with rotation*
0 The origin of the aperture is its center*
0 $1 length*
0 $2 width*
0 $3 Rotation angle, in degrees counterclockwise*
0 Add horizontal line*
21,1,$1,$2,0,0,$3*%
G04 Aperture macros list end*
%ADD10C,0.900000*%
%ADD11R,0.700000X0.700000*%
%ADD12C,5.600000*%
%ADD13R,1.600000X1.600000*%
%ADD14R,1.200000X1.200000*%
%ADD15C,1.600000*%
%ADD16C,0.650000*%
%ADD17R,1.700000X1.700000*%
%ADD18O,1.700000X1.700000*%
%ADD19RotRect,1.700000X1.700000X45.000000*%
%ADD20HorizOval,1.700000X0.000000X0.000000X0.000000X0.000000X0*%
%ADD21C,3.000000*%
%ADD22C,3.987800*%
%ADD23R,2.550000X2.500000*%
%ADD24C,2.286000*%
%ADD25C,1.800000*%
G04 APERTURE END LIST*
D10*
%TO.C,SW4*%
X199032327Y-94139486D03*
X199032327Y-91139486D03*
%TD*%
D11*
%TO.C,D17*%
X191116144Y-133700277D03*
X191116145Y-134800276D03*
X189286142Y-134800277D03*
X189286145Y-133700276D03*
%TD*%
D12*
%TO.C,H5*%
X199650000Y-107800000D03*
%TD*%
D13*
%TO.C,D2*%
X165410000Y-157400000D03*
D14*
X163085000Y-157400000D03*
X159935000Y-157400000D03*
D15*
X157610000Y-157400000D03*
%TD*%
D11*
%TO.C,D11*%
X191116145Y-130800276D03*
X191116145Y-131900276D03*
X189286148Y-131900275D03*
X189286143Y-130800271D03*
%TD*%
D10*
%TO.C,SW2*%
X197760002Y-118300000D03*
X197760002Y-115300000D03*
%TD*%
D11*
%TO.C,D8*%
X191016145Y-127250276D03*
X191016145Y-128350277D03*
X189186142Y-128350277D03*
X189186145Y-127250276D03*
%TD*%
D16*
%TO.C,P1*%
X195347327Y-78287666D03*
X195347329Y-72507666D03*
%TD*%
D13*
%TO.C,D14*%
X117640000Y-156360000D03*
D14*
X119965000Y-156360000D03*
X123115000Y-156360000D03*
D15*
X125440000Y-156360000D03*
%TD*%
D13*
%TO.C,D7*%
X137040000Y-137110000D03*
D14*
X139365000Y-137110000D03*
X142515000Y-137110000D03*
D15*
X144840000Y-137110000D03*
%TD*%
D11*
%TO.C,D9*%
X191166145Y-139150277D03*
X191166145Y-140250275D03*
X189336142Y-140250277D03*
X189336145Y-139150276D03*
%TD*%
D13*
%TO.C,D1*%
X165160000Y-137600000D03*
D14*
X162835000Y-137600000D03*
X159685000Y-137600000D03*
D15*
X157360000Y-137600000D03*
%TD*%
D13*
%TO.C,D15*%
X136590000Y-156010000D03*
D14*
X138915000Y-156010000D03*
X142065000Y-156010000D03*
D15*
X144390000Y-156010000D03*
%TD*%
D12*
%TO.C,H4*%
X161300000Y-74950000D03*
%TD*%
D11*
%TO.C,D10*%
X191116144Y-141950277D03*
X191116145Y-143050276D03*
X189286142Y-143050277D03*
X189286145Y-141950276D03*
%TD*%
D13*
%TO.C,D5*%
X175810000Y-137400000D03*
D14*
X178135000Y-137400000D03*
X181285000Y-137400000D03*
D15*
X183610000Y-137400000D03*
%TD*%
D10*
%TO.C,SW3*%
X188032328Y-111047671D03*
X188032328Y-108047671D03*
%TD*%
D11*
%TO.C,D23*%
X191180003Y-136400000D03*
X191180003Y-137499998D03*
X189350000Y-137500000D03*
X189350003Y-136399999D03*
%TD*%
D13*
%TO.C,D3*%
X125790000Y-137660000D03*
D14*
X123465000Y-137660000D03*
X120315000Y-137660000D03*
D15*
X117990000Y-137660000D03*
%TD*%
D11*
%TO.C,D13*%
X191116145Y-147500276D03*
X191116145Y-148600276D03*
X189286142Y-148600277D03*
X189286145Y-147500276D03*
%TD*%
D12*
%TO.C,H7*%
X192850000Y-154050000D03*
%TD*%
D11*
%TO.C,D12*%
X191116145Y-144700276D03*
X191116145Y-145800276D03*
X189286142Y-145800277D03*
X189286145Y-144700276D03*
%TD*%
D12*
%TO.C,H6*%
X107650000Y-107550000D03*
%TD*%
D17*
%TO.C,J6*%
X161127328Y-100322672D03*
D18*
X161127328Y-102862672D03*
X161127328Y-105402672D03*
%TD*%
D19*
%TO.C,J2*%
X152096051Y-100096052D03*
D20*
X150300000Y-98300000D03*
X148503949Y-96503950D03*
X146707897Y-94707898D03*
%TD*%
D21*
%TO.C,K8*%
X142930000Y-152040000D03*
X142930000Y-141880000D03*
D22*
X140390000Y-146960000D03*
D21*
X136580000Y-149500000D03*
X136580000Y-144420000D03*
D23*
X146680000Y-141880000D03*
D24*
X144200000Y-149500000D03*
X144200000Y-144420000D03*
X137850000Y-152040000D03*
X137850000Y-141880000D03*
D23*
X132830000Y-144420000D03*
%TD*%
D21*
%TO.C,K7*%
X124230000Y-152090000D03*
X124230000Y-141930000D03*
D22*
X121690000Y-147010000D03*
D21*
X117880000Y-149550000D03*
X117880000Y-144470000D03*
D23*
X127980000Y-141930000D03*
D24*
X125500000Y-149550000D03*
X125500000Y-144470000D03*
X119150000Y-152090000D03*
X119150000Y-141930000D03*
D23*
X114130000Y-144470000D03*
%TD*%
D21*
%TO.C,K6*%
X142930000Y-132690000D03*
X142930000Y-122530000D03*
D22*
X140390000Y-127610000D03*
D21*
X136580000Y-130150000D03*
X136580000Y-125070000D03*
D23*
X146680000Y-122530000D03*
D24*
X144200000Y-130150000D03*
X144200000Y-125070000D03*
X137850000Y-132690000D03*
X137850000Y-122530000D03*
D23*
X132830000Y-125070000D03*
%TD*%
D21*
%TO.C,K5*%
X182250000Y-152280000D03*
X182250000Y-142120000D03*
D22*
X179710000Y-147200000D03*
D21*
X175900000Y-149740000D03*
X175900000Y-144660000D03*
D23*
X186000000Y-142120000D03*
D24*
X183520000Y-149740000D03*
X183520000Y-144660000D03*
X177170000Y-152280000D03*
X177170000Y-142120000D03*
D23*
X172150000Y-144660000D03*
%TD*%
D21*
%TO.C,K2*%
X163690000Y-152250000D03*
X163690000Y-142090000D03*
D22*
X161150000Y-147170000D03*
D21*
X157340000Y-149710000D03*
X157340000Y-144630000D03*
D23*
X167440000Y-142090000D03*
D24*
X164960000Y-149710000D03*
X164960000Y-144630000D03*
X158610000Y-152250000D03*
X158610000Y-142090000D03*
D23*
X153590000Y-144630000D03*
%TD*%
D17*
%TO.C,J1*%
X131650000Y-71400000D03*
D18*
X129109996Y-71399998D03*
X126570000Y-71400000D03*
X124030000Y-71400000D03*
X121490001Y-71400000D03*
X118950001Y-71400000D03*
X116410000Y-71400000D03*
X113870000Y-71400000D03*
%TD*%
D21*
%TO.C,K3*%
X124130000Y-132590000D03*
X124130000Y-122430000D03*
D22*
X121590000Y-127510000D03*
D21*
X117780000Y-130050000D03*
X117780000Y-124970000D03*
D23*
X127880000Y-122430000D03*
D24*
X125400000Y-130050000D03*
X125400000Y-124970000D03*
X119050000Y-132590000D03*
X119050000Y-122430000D03*
D23*
X114030000Y-124970000D03*
%TD*%
D13*
%TO.C,D6*%
X176210000Y-157450000D03*
D14*
X178535000Y-157450000D03*
X181685000Y-157450000D03*
D15*
X184010000Y-157450000D03*
%TD*%
D21*
%TO.C,K4*%
X182250000Y-132780000D03*
X182250000Y-122620000D03*
D22*
X179710000Y-127700000D03*
D21*
X175900000Y-130240000D03*
X175900000Y-125160000D03*
D23*
X186000000Y-122620000D03*
D24*
X183520000Y-130240000D03*
X183520000Y-125160000D03*
X177170000Y-132780000D03*
X177170000Y-122620000D03*
D23*
X172150000Y-125160000D03*
%TD*%
D17*
%TO.C,J5*%
X110050000Y-74780000D03*
D18*
X110049999Y-77320001D03*
X110050000Y-79860000D03*
X110050000Y-82400000D03*
X110050000Y-84939999D03*
X110050000Y-87479999D03*
X110050000Y-90020000D03*
X110050000Y-92560000D03*
X110050000Y-95100000D03*
X110050000Y-97639999D03*
X110050000Y-100180000D03*
%TD*%
D19*
%TO.C,J3*%
X146000000Y-112750000D03*
D20*
X144203948Y-110953945D03*
X142407898Y-109157898D03*
X140611846Y-107361846D03*
%TD*%
D21*
%TO.C,K1*%
X163690000Y-132750000D03*
X163690000Y-122590000D03*
D22*
X161150000Y-127670000D03*
D21*
X157340000Y-130210000D03*
X157340000Y-125130000D03*
D23*
X167440000Y-122590000D03*
D24*
X164960000Y-130210000D03*
X164960000Y-125130000D03*
X158610000Y-132750000D03*
X158610000Y-122590000D03*
D23*
X153590000Y-125130000D03*
%TD*%
D25*
X141600000Y-88550000D03*
X137965381Y-118484619D03*
X183752328Y-83147671D03*
X183752328Y-77897671D03*
X130309996Y-67400000D03*
X124850000Y-95200000D03*
X126750000Y-67200000D03*
X143950000Y-117700000D03*
X191200000Y-83650000D03*
X198950000Y-84040245D03*
X159400000Y-84500000D03*
X148877942Y-114472058D03*
X151972058Y-110777942D03*
X193450000Y-110550000D03*
X163100000Y-84500000D03*
X146400000Y-82250000D03*
X191309314Y-106559314D03*
X148900000Y-84350000D03*
X128700000Y-97350000D03*
X123300000Y-97100000D03*
X155500000Y-68650000D03*
X159200000Y-66400000D03*
X178752328Y-116747671D03*
X154272058Y-113077942D03*
X164000000Y-98497671D03*
X173302328Y-110147671D03*
X151033238Y-116360877D03*
X160100000Y-94800000D03*
X156776471Y-88126471D03*
X167400000Y-66300000D03*
X168000000Y-69450000D03*
X158798529Y-90064215D03*
X178902328Y-97447671D03*
X164302328Y-108197671D03*
X166302328Y-115947671D03*
X168502328Y-96897671D03*
X146950000Y-117600000D03*
X149800000Y-120050000D03*
X183252328Y-105597671D03*
X183052328Y-109097671D03*
X194879828Y-98359486D03*
X198829828Y-98459486D03*
M02*
