%TF.GenerationSoftware,KiCad,Pcbnew,8.0.2*%
%TF.CreationDate,2025-08-30T14:26:49+07:00*%
%TF.ProjectId,minions,6d696e69-6f6e-4732-9e6b-696361645f70,1*%
%TF.SameCoordinates,Original*%
%TF.FileFunction,AssemblyDrawing,Bot*%
%FSLAX46Y46*%
G04 Gerber Fmt 4.6, Leading zero omitted, Abs format (unit mm)*
G04 Created by KiCad (PCBNEW 8.0.2) date 2025-08-30 14:26:49*
%MOMM*%
%LPD*%
G01*
G04 APERTURE LIST*
%ADD10C,0.100000*%
%ADD11C,0.120000*%
%ADD12C,0.150000*%
G04 APERTURE END LIST*
D10*
%TO.C,J6*%
X161762328Y-99052672D02*
X162397328Y-99687672D01*
X162397328Y-99687672D02*
X162397328Y-106672672D01*
X159857328Y-99052672D02*
X161762328Y-99052672D01*
X159857328Y-106672672D02*
X159857328Y-99052672D01*
X162397328Y-106672672D02*
X159857328Y-106672672D01*
%TO.C,J1*%
X132919998Y-72034998D02*
X132284999Y-72670000D01*
X132284999Y-72670000D02*
X112599998Y-72670000D01*
X132919998Y-70130001D02*
X132919998Y-72034998D01*
X112599998Y-70130000D02*
X132919998Y-70130001D01*
X112599998Y-72670000D02*
X112599998Y-70130000D01*
%TO.C,J2*%
X144911847Y-94707899D02*
X146707897Y-92911847D01*
X146707897Y-92911847D02*
X153892102Y-100096053D01*
X153892102Y-100096053D02*
X152545065Y-101443090D01*
X151647037Y-101443090D02*
X144911847Y-94707899D01*
X152545065Y-101443090D02*
X151647037Y-101443090D01*
D11*
%TO.C,K8*%
X148010000Y-143150000D02*
X148010000Y-140610000D01*
X145470000Y-143150000D02*
X148010000Y-143150000D01*
D12*
X132890000Y-139460000D02*
X147890000Y-139460000D01*
X147890000Y-139460000D02*
X147890000Y-154460000D01*
D11*
X145470000Y-144420000D02*
X145470000Y-139975000D01*
X148010000Y-140610000D02*
X145470000Y-140610000D01*
X140390000Y-144420000D02*
X145470000Y-144420000D01*
X134040000Y-146325000D02*
X137850001Y-146325001D01*
X145470000Y-139975000D02*
X136580000Y-139975000D01*
X131500000Y-145690000D02*
X134040000Y-145690000D01*
X134040000Y-142515000D02*
X134040000Y-146325000D01*
D12*
X132890000Y-154460000D02*
X132890000Y-139460000D01*
X147890000Y-154460000D02*
X132890000Y-154460000D01*
D11*
X134040000Y-143150000D02*
X131500000Y-143150000D01*
X131500000Y-143150000D02*
X131500000Y-145690000D01*
X137850001Y-146325001D02*
G75*
G02*
X140389999Y-144341829I2539999J-634999D01*
G01*
X134040000Y-142515000D02*
G75*
G02*
X136580000Y-139975000I2540000J0D01*
G01*
%TO.C,K7*%
X129310000Y-143200000D02*
X129310000Y-140660000D01*
X126770000Y-143200000D02*
X129310000Y-143200000D01*
D12*
X114190000Y-139510000D02*
X129190000Y-139510000D01*
X129190000Y-139510000D02*
X129190000Y-154510000D01*
D11*
X126770000Y-144470000D02*
X126770000Y-140025000D01*
X129310000Y-140660000D02*
X126770000Y-140660000D01*
X121690000Y-144470000D02*
X126770000Y-144470000D01*
X115340000Y-146375000D02*
X119150001Y-146375001D01*
X126770000Y-140025000D02*
X117880000Y-140025000D01*
X112800000Y-145740000D02*
X115340000Y-145740000D01*
X115340000Y-142565000D02*
X115340000Y-146375000D01*
D12*
X114190000Y-154510000D02*
X114190000Y-139510000D01*
X129190000Y-154510000D02*
X114190000Y-154510000D01*
D11*
X115340000Y-143200000D02*
X112800000Y-143200000D01*
X112800000Y-143200000D02*
X112800000Y-145740000D01*
X119150001Y-146375001D02*
G75*
G02*
X121689999Y-144391829I2539999J-634999D01*
G01*
X115340000Y-142565000D02*
G75*
G02*
X117880000Y-140025000I2540000J0D01*
G01*
%TO.C,K6*%
X148010000Y-123800000D02*
X148010000Y-121260000D01*
X145470000Y-123800000D02*
X148010000Y-123800000D01*
D12*
X132890000Y-120110000D02*
X147890000Y-120110000D01*
X147890000Y-120110000D02*
X147890000Y-135110000D01*
D11*
X145470000Y-125070000D02*
X145470000Y-120625000D01*
X148010000Y-121260000D02*
X145470000Y-121260000D01*
X140390000Y-125070000D02*
X145470000Y-125070000D01*
X134040000Y-126975000D02*
X137850001Y-126975001D01*
X145470000Y-120625000D02*
X136580000Y-120625000D01*
X131500000Y-126340000D02*
X134040000Y-126340000D01*
X134040000Y-123165000D02*
X134040000Y-126975000D01*
D12*
X132890000Y-135110000D02*
X132890000Y-120110000D01*
X147890000Y-135110000D02*
X132890000Y-135110000D01*
D11*
X134040000Y-123800000D02*
X131500000Y-123800000D01*
X131500000Y-123800000D02*
X131500000Y-126340000D01*
X137850001Y-126975001D02*
G75*
G02*
X140389999Y-124991829I2539999J-634999D01*
G01*
X134040000Y-123165000D02*
G75*
G02*
X136580000Y-120625000I2540000J0D01*
G01*
%TO.C,K5*%
X187330000Y-143390000D02*
X187330000Y-140850000D01*
X184790000Y-143390000D02*
X187330000Y-143390000D01*
D12*
X172210000Y-139700000D02*
X187210000Y-139700000D01*
X187210000Y-139700000D02*
X187210000Y-154700000D01*
D11*
X184790000Y-144660000D02*
X184790000Y-140215000D01*
X187330000Y-140850000D02*
X184790000Y-140850000D01*
X179710000Y-144660000D02*
X184790000Y-144660000D01*
X173360000Y-146565000D02*
X177170001Y-146565001D01*
X184790000Y-140215000D02*
X175900000Y-140215000D01*
X170820000Y-145930000D02*
X173360000Y-145930000D01*
X173360000Y-142755000D02*
X173360000Y-146565000D01*
D12*
X172210000Y-154700000D02*
X172210000Y-139700000D01*
X187210000Y-154700000D02*
X172210000Y-154700000D01*
D11*
X173360000Y-143390000D02*
X170820000Y-143390000D01*
X170820000Y-143390000D02*
X170820000Y-145930000D01*
X177170001Y-146565001D02*
G75*
G02*
X179709999Y-144581829I2539999J-634999D01*
G01*
X173360000Y-142755000D02*
G75*
G02*
X175900000Y-140215000I2540000J0D01*
G01*
%TO.C,K2*%
X168770000Y-143360000D02*
X168770000Y-140820000D01*
X166230000Y-143360000D02*
X168770000Y-143360000D01*
D12*
X153650000Y-139670000D02*
X168650000Y-139670000D01*
X168650000Y-139670000D02*
X168650000Y-154670000D01*
D11*
X166230000Y-144630000D02*
X166230000Y-140185000D01*
X168770000Y-140820000D02*
X166230000Y-140820000D01*
X161150000Y-144630000D02*
X166230000Y-144630000D01*
X154800000Y-146535000D02*
X158610001Y-146535001D01*
X166230000Y-140185000D02*
X157340000Y-140185000D01*
X152260000Y-145900000D02*
X154800000Y-145900000D01*
X154800000Y-142725000D02*
X154800000Y-146535000D01*
D12*
X153650000Y-154670000D02*
X153650000Y-139670000D01*
X168650000Y-154670000D02*
X153650000Y-154670000D01*
D11*
X154800000Y-143360000D02*
X152260000Y-143360000D01*
X152260000Y-143360000D02*
X152260000Y-145900000D01*
X158610001Y-146535001D02*
G75*
G02*
X161149999Y-144551829I2539999J-634999D01*
G01*
X154800000Y-142725000D02*
G75*
G02*
X157340000Y-140185000I2540000J0D01*
G01*
%TO.C,K3*%
X129210000Y-123700000D02*
X129210000Y-121160000D01*
X126670000Y-123700000D02*
X129210000Y-123700000D01*
D12*
X114090000Y-120010000D02*
X129090000Y-120010000D01*
X129090000Y-120010000D02*
X129090000Y-135010000D01*
D11*
X126670000Y-124970000D02*
X126670000Y-120525000D01*
X129210000Y-121160000D02*
X126670000Y-121160000D01*
X121590000Y-124970000D02*
X126670000Y-124970000D01*
X115240000Y-126875000D02*
X119050001Y-126875001D01*
X126670000Y-120525000D02*
X117780000Y-120525000D01*
X112700000Y-126240000D02*
X115240000Y-126240000D01*
X115240000Y-123065000D02*
X115240000Y-126875000D01*
D12*
X114090000Y-135010000D02*
X114090000Y-120010000D01*
X129090000Y-135010000D02*
X114090000Y-135010000D01*
D11*
X115240000Y-123700000D02*
X112700000Y-123700000D01*
X112700000Y-123700000D02*
X112700000Y-126240000D01*
X119050001Y-126875001D02*
G75*
G02*
X121589999Y-124891829I2539999J-634999D01*
G01*
X115240000Y-123065000D02*
G75*
G02*
X117780000Y-120525000I2540000J0D01*
G01*
%TO.C,K4*%
X173360000Y-123255000D02*
G75*
G02*
X175900000Y-120715000I2540000J0D01*
G01*
X177170001Y-127065001D02*
G75*
G02*
X179709999Y-125081829I2539999J-634999D01*
G01*
X170820000Y-123890000D02*
X170820000Y-126430000D01*
X173360000Y-123890000D02*
X170820000Y-123890000D01*
D12*
X187210000Y-135200000D02*
X172210000Y-135200000D01*
X172210000Y-135200000D02*
X172210000Y-120200000D01*
D11*
X173360000Y-123255000D02*
X173360000Y-127065000D01*
X170820000Y-126430000D02*
X173360000Y-126430000D01*
X184790000Y-120715000D02*
X175900000Y-120715000D01*
X173360000Y-127065000D02*
X177170001Y-127065001D01*
X179710000Y-125160000D02*
X184790000Y-125160000D01*
X187330000Y-121350000D02*
X184790000Y-121350000D01*
X184790000Y-125160000D02*
X184790000Y-120715000D01*
D12*
X187210000Y-120200000D02*
X187210000Y-135200000D01*
X172210000Y-120200000D02*
X187210000Y-120200000D01*
D11*
X184790000Y-123890000D02*
X187330000Y-123890000D01*
X187330000Y-123890000D02*
X187330000Y-121350000D01*
D10*
%TO.C,J5*%
X110685000Y-73510001D02*
X111320000Y-74145001D01*
X111320000Y-74145001D02*
X111320000Y-101450001D01*
X108780002Y-73510000D02*
X110685000Y-73510001D01*
X108780000Y-101450000D02*
X108780002Y-73510000D01*
X111320000Y-101450001D02*
X108780000Y-101450000D01*
%TO.C,J3*%
X147796050Y-112749999D02*
X146449014Y-114097038D01*
X140611846Y-105565795D02*
X147796050Y-112749999D01*
X146449014Y-114097038D02*
X145550986Y-114097038D01*
X138815796Y-107361847D02*
X140611846Y-105565795D01*
X145550986Y-114097038D02*
X138815796Y-107361847D01*
D11*
%TO.C,K1*%
X154800000Y-123225000D02*
G75*
G02*
X157340000Y-120685000I2540000J0D01*
G01*
X158610001Y-127035001D02*
G75*
G02*
X161149999Y-125051829I2539999J-634999D01*
G01*
X152260000Y-123860000D02*
X152260000Y-126400000D01*
X154800000Y-123860000D02*
X152260000Y-123860000D01*
D12*
X168650000Y-135170000D02*
X153650000Y-135170000D01*
X153650000Y-135170000D02*
X153650000Y-120170000D01*
D11*
X154800000Y-123225000D02*
X154800000Y-127035000D01*
X152260000Y-126400000D02*
X154800000Y-126400000D01*
X166230000Y-120685000D02*
X157340000Y-120685000D01*
X154800000Y-127035000D02*
X158610001Y-127035001D01*
X161150000Y-125130000D02*
X166230000Y-125130000D01*
X168770000Y-121320000D02*
X166230000Y-121320000D01*
X166230000Y-125130000D02*
X166230000Y-120685000D01*
D12*
X168650000Y-120170000D02*
X168650000Y-135170000D01*
X153650000Y-120170000D02*
X168650000Y-120170000D01*
D11*
X166230000Y-123860000D02*
X168770000Y-123860000D01*
X168770000Y-123860000D02*
X168770000Y-121320000D01*
%TD*%
M02*
