%TF.GenerationSoftware,KiCad,Pcbnew,8.0.2*%
%TF.CreationDate,2025-08-30T14:31:31+07:00*%
%TF.ProjectId,minions,6d696e69-6f6e-4732-9e6b-696361645f70,1*%
%TF.SameCoordinates,Original*%
%TF.FileFunction,Other,User*%
%FSLAX46Y46*%
G04 Gerber Fmt 4.6, Leading zero omitted, Abs format (unit mm)*
G04 Created by KiCad (PCBNEW 8.0.2) date 2025-08-30 14:31:31*
%MOMM*%
%LPD*%
G01*
G04 APERTURE LIST*
%ADD10C,0.050000*%
G04 APERTURE END LIST*
D10*
%TO.C,J6*%
X159327328Y-98522672D02*
X159327328Y-107172672D01*
X159327328Y-107172672D02*
X162927328Y-107172672D01*
X162927328Y-98522672D02*
X159327328Y-98522672D01*
X162927328Y-107172672D02*
X162927328Y-98522672D01*
%TO.C,J2*%
X144176455Y-94722040D02*
X152096052Y-102641636D01*
X146722039Y-92176456D02*
X144176455Y-94722040D01*
X152096052Y-102641636D02*
X154641635Y-100096051D01*
X154641635Y-100096051D02*
X146722039Y-92176456D01*
%TO.C,J1*%
X112099999Y-69600001D02*
X112100000Y-73199998D01*
X112100000Y-73199998D02*
X133450000Y-73200000D01*
X133450000Y-69600000D02*
X112099999Y-69600001D01*
X133450000Y-73200000D02*
X133450000Y-69600000D01*
%TO.C,J5*%
X108249999Y-72980001D02*
X108249999Y-101980000D01*
X108249999Y-101980000D02*
X111850001Y-101980000D01*
X111849999Y-72979999D02*
X108249999Y-72980001D01*
X111850001Y-101980000D02*
X111849999Y-72979999D01*
%TO.C,J3*%
X138080404Y-107375988D02*
X146000001Y-115295584D01*
X140625990Y-104830404D02*
X138080404Y-107375988D01*
X146000001Y-115295584D02*
X148545584Y-112749999D01*
X148545584Y-112749999D02*
X140625990Y-104830404D01*
%TD*%
M02*
