%TF.GenerationSoftware,KiCad,Pcbnew,8.0.2*%
%TF.CreationDate,2025-08-30T14:31:31+07:00*%
%TF.ProjectId,minions,6d696e69-6f6e-4732-9e6b-696361645f70,1*%
%TF.SameCoordinates,Original*%
%TF.FileFunction,Legend,Bot*%
%TF.FilePolarity,Positive*%
%FSLAX46Y46*%
G04 Gerber Fmt 4.6, Leading zero omitted, Abs format (unit mm)*
G04 Created by KiCad (PCBNEW 8.0.2) date 2025-08-30 14:31:31*
%MOMM*%
%LPD*%
G01*
G04 APERTURE LIST*
%ADD10C,0.200000*%
%ADD11C,0.120000*%
%ADD12C,0.150000*%
%ADD13R,1.600000X1.600000*%
%ADD14C,1.600000*%
G04 APERTURE END LIST*
D10*
%TO.C,D2*%
X158710000Y-156200001D02*
X164510000Y-156200002D01*
X158710001Y-158600000D02*
X158710000Y-156200001D01*
X163784997Y-158600003D02*
X163784999Y-156200000D01*
X163960001Y-158599998D02*
X163959999Y-156199998D01*
X164135002Y-158600001D02*
X164134999Y-156200000D01*
X164310000Y-158599999D02*
X164309999Y-156200000D01*
X164435001Y-158600001D02*
X164435001Y-156199999D01*
X164510000Y-158599998D02*
X158710001Y-158600000D01*
X164535001Y-156199999D02*
X164535000Y-158599999D01*
%TO.C,D14*%
X118514999Y-157560001D02*
X118514998Y-155160000D01*
X118540001Y-155160003D02*
X124339998Y-155160000D01*
X118614999Y-155159999D02*
X118614999Y-157560001D01*
X118740002Y-155160001D02*
X118740002Y-157560000D01*
X118914998Y-155160001D02*
X118915001Y-157560000D01*
X119089999Y-155160002D02*
X119090001Y-157560002D01*
X119265003Y-155159997D02*
X119265001Y-157560000D01*
X124339998Y-155160000D02*
X124339998Y-157559999D01*
X124339998Y-157559999D02*
X118540000Y-157559998D01*
%TO.C,D7*%
X137915000Y-138310000D02*
X137915000Y-135910000D01*
X137940000Y-135910000D02*
X143740000Y-135910000D01*
X138015000Y-135910000D02*
X138015000Y-138310000D01*
X138140000Y-135910000D02*
X138140000Y-138310000D01*
X138315000Y-135910000D02*
X138315000Y-138310000D01*
X138490000Y-135910000D02*
X138490000Y-138310000D01*
X138665000Y-135910000D02*
X138665000Y-138310000D01*
X143740000Y-135910000D02*
X143740000Y-138310000D01*
X143740000Y-138310000D02*
X137940000Y-138310000D01*
%TO.C,D1*%
X158460000Y-136400001D02*
X164260000Y-136400002D01*
X158460001Y-138800000D02*
X158460000Y-136400001D01*
X163534997Y-138800003D02*
X163534999Y-136400000D01*
X163710001Y-138799998D02*
X163709999Y-136399998D01*
X163885002Y-138799999D02*
X163884999Y-136400000D01*
X164060000Y-138799999D02*
X164059999Y-136400000D01*
X164185001Y-138800001D02*
X164185001Y-136399999D01*
X164260000Y-138799998D02*
X158460001Y-138800000D01*
X164285001Y-136399999D02*
X164285000Y-138799999D01*
%TO.C,D15*%
X137465000Y-157210000D02*
X137465000Y-154810000D01*
X137490000Y-154810000D02*
X143290000Y-154810000D01*
X137565000Y-154810000D02*
X137565000Y-157210000D01*
X137690000Y-154810000D02*
X137690000Y-157210000D01*
X137865000Y-154810000D02*
X137865000Y-157210000D01*
X138040000Y-154810000D02*
X138040000Y-157210000D01*
X138215000Y-154810000D02*
X138215000Y-157210000D01*
X143290000Y-154810000D02*
X143290000Y-157210000D01*
X143290000Y-157210000D02*
X137490000Y-157210000D01*
%TO.C,D5*%
X176684999Y-138600001D02*
X176685000Y-136200002D01*
X176710000Y-136200001D02*
X182510000Y-136200001D01*
X176784999Y-136200001D02*
X176785000Y-138600001D01*
X176910001Y-136200000D02*
X176910000Y-138599999D01*
X177085001Y-136200000D02*
X177085001Y-138600002D01*
X177260000Y-136200001D02*
X177260000Y-138600001D01*
X177435000Y-136199999D02*
X177435000Y-138600000D01*
X182509999Y-138600000D02*
X176710000Y-138599998D01*
X182510000Y-136200001D02*
X182509999Y-138600000D01*
%TO.C,D3*%
X119090000Y-136460001D02*
X124890000Y-136460002D01*
X119090001Y-138860000D02*
X119090000Y-136460001D01*
X124164997Y-138860003D02*
X124164999Y-136460000D01*
X124340001Y-138859998D02*
X124339999Y-136459998D01*
X124515002Y-138860001D02*
X124514999Y-136460000D01*
X124690000Y-138859999D02*
X124689999Y-136460000D01*
X124815001Y-138860001D02*
X124815001Y-136459999D01*
X124890000Y-138859998D02*
X119090001Y-138860000D01*
X124915001Y-136459999D02*
X124915000Y-138859999D01*
D11*
%TO.C,J6*%
X159797328Y-101592672D02*
X162457328Y-101592672D01*
X159797328Y-106732672D02*
X159797328Y-101592672D01*
X159797328Y-106732672D02*
X162457328Y-106732672D01*
X161127328Y-98992672D02*
X162457328Y-98992672D01*
X162457328Y-98992672D02*
X162457328Y-100322672D01*
X162457328Y-106732672D02*
X162457328Y-101592672D01*
%TO.C,J2*%
X144826993Y-94707899D02*
X150257574Y-100138478D01*
X146707898Y-92826995D02*
X144826993Y-94707899D01*
X146707898Y-92826995D02*
X152138479Y-98257574D01*
X152096051Y-101976956D02*
X151155599Y-101036505D01*
X152138479Y-98257574D02*
X150257574Y-100138478D01*
X153036504Y-101036504D02*
X152096051Y-101976956D01*
D12*
%TO.C,K8*%
X133390000Y-139960000D02*
X134390000Y-139960000D01*
X133390000Y-140960000D02*
X133390000Y-139960000D01*
X133390000Y-153960000D02*
X133390000Y-152960000D01*
X134040000Y-142896000D02*
X134040000Y-142515000D01*
X134040000Y-145944000D02*
X134040000Y-146325000D01*
X134040000Y-146325000D02*
X134421000Y-146325000D01*
X134040000Y-146325000D02*
X137850000Y-146325000D01*
X134390000Y-153960000D02*
X133390000Y-153960000D01*
X140390000Y-144420000D02*
X142676000Y-144420000D01*
X145470000Y-139975000D02*
X136580000Y-139975000D01*
X145470000Y-140356000D02*
X145470000Y-139975000D01*
X145470000Y-143785000D02*
X145470000Y-143404000D01*
X146390000Y-139960000D02*
X147390000Y-139960000D01*
X147390000Y-139960000D02*
X147390000Y-140356000D01*
X147390000Y-152960000D02*
X147390000Y-153960000D01*
X147390000Y-153960000D02*
X146390000Y-153960000D01*
X134040000Y-142515000D02*
G75*
G02*
X136580000Y-139975000I2540000J0D01*
G01*
X137850001Y-146325001D02*
G75*
G02*
X140389999Y-144341829I2539999J-634999D01*
G01*
%TO.C,K7*%
X114690000Y-140010000D02*
X115690000Y-140010000D01*
X114690000Y-141010000D02*
X114690000Y-140010000D01*
X114690000Y-154010000D02*
X114690000Y-153010000D01*
X115340000Y-142946000D02*
X115340000Y-142565000D01*
X115340000Y-145994000D02*
X115340000Y-146375000D01*
X115340000Y-146375000D02*
X115721000Y-146375000D01*
X115340000Y-146375000D02*
X119150000Y-146375000D01*
X115690000Y-154010000D02*
X114690000Y-154010000D01*
X121690000Y-144470000D02*
X123976000Y-144470000D01*
X126770000Y-140025000D02*
X117880000Y-140025000D01*
X126770000Y-140406000D02*
X126770000Y-140025000D01*
X126770000Y-143835000D02*
X126770000Y-143454000D01*
X127690000Y-140010000D02*
X128690000Y-140010000D01*
X128690000Y-140010000D02*
X128690000Y-140406000D01*
X128690000Y-153010000D02*
X128690000Y-154010000D01*
X128690000Y-154010000D02*
X127690000Y-154010000D01*
X115340000Y-142565000D02*
G75*
G02*
X117880000Y-140025000I2540000J0D01*
G01*
X119150001Y-146375001D02*
G75*
G02*
X121689999Y-144391829I2539999J-634999D01*
G01*
%TO.C,K6*%
X133390000Y-120610000D02*
X134390000Y-120610000D01*
X133390000Y-121610000D02*
X133390000Y-120610000D01*
X133390000Y-134610000D02*
X133390000Y-133610000D01*
X134040000Y-123546000D02*
X134040000Y-123165000D01*
X134040000Y-126594000D02*
X134040000Y-126975000D01*
X134040000Y-126975000D02*
X134421000Y-126975000D01*
X134040000Y-126975000D02*
X137850000Y-126975000D01*
X134390000Y-134610000D02*
X133390000Y-134610000D01*
X140390000Y-125070000D02*
X142676000Y-125070000D01*
X145470000Y-120625000D02*
X136580000Y-120625000D01*
X145470000Y-121006000D02*
X145470000Y-120625000D01*
X145470000Y-124435000D02*
X145470000Y-124054000D01*
X146390000Y-120610000D02*
X147390000Y-120610000D01*
X147390000Y-120610000D02*
X147390000Y-121006000D01*
X147390000Y-133610000D02*
X147390000Y-134610000D01*
X147390000Y-134610000D02*
X146390000Y-134610000D01*
X134040000Y-123165000D02*
G75*
G02*
X136580000Y-120625000I2540000J0D01*
G01*
X137850001Y-126975001D02*
G75*
G02*
X140389999Y-124991829I2539999J-634999D01*
G01*
%TO.C,K5*%
X172710000Y-140200000D02*
X173710000Y-140200000D01*
X172710000Y-141200000D02*
X172710000Y-140200000D01*
X172710000Y-154200000D02*
X172710000Y-153200000D01*
X173360000Y-143136000D02*
X173360000Y-142755000D01*
X173360000Y-146184000D02*
X173360000Y-146565000D01*
X173360000Y-146565000D02*
X173741000Y-146565000D01*
X173360000Y-146565000D02*
X177170000Y-146565000D01*
X173710000Y-154200000D02*
X172710000Y-154200000D01*
X179710000Y-144660000D02*
X181996000Y-144660000D01*
X184790000Y-140215000D02*
X175900000Y-140215000D01*
X184790000Y-140596000D02*
X184790000Y-140215000D01*
X184790000Y-144025000D02*
X184790000Y-143644000D01*
X185710000Y-140200000D02*
X186710000Y-140200000D01*
X186710000Y-140200000D02*
X186710000Y-140596000D01*
X186710000Y-153200000D02*
X186710000Y-154200000D01*
X186710000Y-154200000D02*
X185710000Y-154200000D01*
X173360000Y-142755000D02*
G75*
G02*
X175900000Y-140215000I2540000J0D01*
G01*
X177170001Y-146565001D02*
G75*
G02*
X179709999Y-144581829I2539999J-634999D01*
G01*
%TO.C,K2*%
X154150000Y-140170000D02*
X155150000Y-140170000D01*
X154150000Y-141170000D02*
X154150000Y-140170000D01*
X154150000Y-154170000D02*
X154150000Y-153170000D01*
X154800000Y-143106000D02*
X154800000Y-142725000D01*
X154800000Y-146154000D02*
X154800000Y-146535000D01*
X154800000Y-146535000D02*
X155181000Y-146535000D01*
X154800000Y-146535000D02*
X158610000Y-146535000D01*
X155150000Y-154170000D02*
X154150000Y-154170000D01*
X161150000Y-144630000D02*
X163436000Y-144630000D01*
X166230000Y-140185000D02*
X157340000Y-140185000D01*
X166230000Y-140566000D02*
X166230000Y-140185000D01*
X166230000Y-143995000D02*
X166230000Y-143614000D01*
X167150000Y-140170000D02*
X168150000Y-140170000D01*
X168150000Y-140170000D02*
X168150000Y-140566000D01*
X168150000Y-153170000D02*
X168150000Y-154170000D01*
X168150000Y-154170000D02*
X167150000Y-154170000D01*
X154800000Y-142725000D02*
G75*
G02*
X157340000Y-140185000I2540000J0D01*
G01*
X158610001Y-146535001D02*
G75*
G02*
X161149999Y-144551829I2539999J-634999D01*
G01*
D11*
%TO.C,J1*%
X112540000Y-70070001D02*
X112540000Y-72729996D01*
X112540000Y-70070001D02*
X130379998Y-70069997D01*
X112540000Y-72729996D02*
X130380000Y-72730002D01*
X130379998Y-70069997D02*
X130380000Y-72730002D01*
X132980000Y-72730000D02*
X131650001Y-72730002D01*
X132980002Y-71399999D02*
X132980000Y-72730000D01*
D12*
%TO.C,K3*%
X114590000Y-120510000D02*
X115590000Y-120510000D01*
X114590000Y-121510000D02*
X114590000Y-120510000D01*
X114590000Y-134510000D02*
X114590000Y-133510000D01*
X115240000Y-123446000D02*
X115240000Y-123065000D01*
X115240000Y-126494000D02*
X115240000Y-126875000D01*
X115240000Y-126875000D02*
X115621000Y-126875000D01*
X115240000Y-126875000D02*
X119050000Y-126875000D01*
X115590000Y-134510000D02*
X114590000Y-134510000D01*
X121590000Y-124970000D02*
X123876000Y-124970000D01*
X126670000Y-120525000D02*
X117780000Y-120525000D01*
X126670000Y-120906000D02*
X126670000Y-120525000D01*
X126670000Y-124335000D02*
X126670000Y-123954000D01*
X127590000Y-120510000D02*
X128590000Y-120510000D01*
X128590000Y-120510000D02*
X128590000Y-120906000D01*
X128590000Y-133510000D02*
X128590000Y-134510000D01*
X128590000Y-134510000D02*
X127590000Y-134510000D01*
X115240000Y-123065000D02*
G75*
G02*
X117780000Y-120525000I2540000J0D01*
G01*
X119050001Y-126875001D02*
G75*
G02*
X121589999Y-124891829I2539999J-634999D01*
G01*
D10*
%TO.C,D6*%
X177085000Y-158650001D02*
X177085000Y-156250002D01*
X177110001Y-156250000D02*
X182910000Y-156250001D01*
X177184999Y-156250001D02*
X177185000Y-158650001D01*
X177310000Y-156249999D02*
X177310000Y-158649999D01*
X177484999Y-156250000D02*
X177485001Y-158650000D01*
X177660000Y-156250001D02*
X177660000Y-158650001D01*
X177835000Y-156249999D02*
X177835001Y-158650000D01*
X182910000Y-156250001D02*
X182910000Y-158650001D01*
X182910000Y-158650001D02*
X177110000Y-158649999D01*
D12*
%TO.C,K4*%
X172710000Y-120700000D02*
X173710000Y-120700000D01*
X172710000Y-121700000D02*
X172710000Y-120700000D01*
X172710000Y-134700000D02*
X172710000Y-133700000D01*
X173360000Y-123636000D02*
X173360000Y-123255000D01*
X173360000Y-126684000D02*
X173360000Y-127065000D01*
X173360000Y-127065000D02*
X173741000Y-127065000D01*
X173360000Y-127065000D02*
X177170000Y-127065000D01*
X173710000Y-134700000D02*
X172710000Y-134700000D01*
X179710000Y-125160000D02*
X181996000Y-125160000D01*
X184790000Y-120715000D02*
X175900000Y-120715000D01*
X184790000Y-121096000D02*
X184790000Y-120715000D01*
X184790000Y-124525000D02*
X184790000Y-124144000D01*
X185710000Y-120700000D02*
X186710000Y-120700000D01*
X186710000Y-120700000D02*
X186710000Y-121096000D01*
X186710000Y-133700000D02*
X186710000Y-134700000D01*
X186710000Y-134700000D02*
X185710000Y-134700000D01*
X173360000Y-123255000D02*
G75*
G02*
X175900000Y-120715000I2540000J0D01*
G01*
X177170001Y-127065001D02*
G75*
G02*
X179709999Y-125081829I2539999J-634999D01*
G01*
D11*
%TO.C,J5*%
X108719998Y-76050000D02*
X111380001Y-76050000D01*
X108720002Y-101510001D02*
X108719998Y-76050000D01*
X108720002Y-101510001D02*
X111380000Y-101510000D01*
X110050000Y-73449999D02*
X111380000Y-73450000D01*
X111380000Y-73450000D02*
X111380001Y-74780000D01*
X111380000Y-101510000D02*
X111380001Y-76050000D01*
%TO.C,J3*%
X138730942Y-107361847D02*
X144161518Y-112792428D01*
X140611846Y-105480944D02*
X138730942Y-107361847D01*
X140611846Y-105480944D02*
X146042427Y-110911524D01*
X146000000Y-114630904D02*
X145059547Y-113690454D01*
X146042427Y-110911524D02*
X144161518Y-112792428D01*
X146940454Y-113690453D02*
X146000000Y-114630904D01*
D12*
%TO.C,K1*%
X154150000Y-120670000D02*
X155150000Y-120670000D01*
X154150000Y-121670000D02*
X154150000Y-120670000D01*
X154150000Y-134670000D02*
X154150000Y-133670000D01*
X154800000Y-123606000D02*
X154800000Y-123225000D01*
X154800000Y-126654000D02*
X154800000Y-127035000D01*
X154800000Y-127035000D02*
X155181000Y-127035000D01*
X154800000Y-127035000D02*
X158610000Y-127035000D01*
X155150000Y-134670000D02*
X154150000Y-134670000D01*
X161150000Y-125130000D02*
X163436000Y-125130000D01*
X166230000Y-120685000D02*
X157340000Y-120685000D01*
X166230000Y-121066000D02*
X166230000Y-120685000D01*
X166230000Y-124495000D02*
X166230000Y-124114000D01*
X167150000Y-120670000D02*
X168150000Y-120670000D01*
X168150000Y-120670000D02*
X168150000Y-121066000D01*
X168150000Y-133670000D02*
X168150000Y-134670000D01*
X168150000Y-134670000D02*
X167150000Y-134670000D01*
X154800000Y-123225000D02*
G75*
G02*
X157340000Y-120685000I2540000J0D01*
G01*
X158610001Y-127035001D02*
G75*
G02*
X161149999Y-125051829I2539999J-634999D01*
G01*
%TD*%
D13*
%TO.C,D6*%
X176210000Y-157450000D03*
D14*
X184010000Y-157450000D03*
%TD*%
M02*
