  0
SECTION
  2
HEADER
  9
$ANGBASE
  50
0.0
  9
$ANGDIR
  70
1
  9
$MEASUREMENT
  70
1
  0
ENDSEC
  0
SECTION
  2
TABLES
  0
TABLE
  2
LTYPE
  70
4
  0
LTYPE
  5
40F
  2
CONTINUOUS
  70
0
  3
Solid line
  72
65
  73
0
  40
0.0
  0
LTYPE
  5
410
  2
DASHDOT
 70
0
  3
Dash Dot ____ _ ____ _
 72
65
 73
4
 40
2.0
 49
1.25
 49
-0.25
 49
0.25
 49
-0.25
  0
LTYPE
  5
411
  2
DASHED
 70
0
  3
Dashed __ __ __ __ __
 72
65
 73
2
 40
0.75
 49
0.5
 49
-0.25
  0
LTYPE
  5
43B
  2
DOTTED
 70
0
  3
Dotted .  .  .  .
 72
65
 73
2
 40
0.2
 49
0.0
 49
-0.2
  0
ENDTAB
  0
TABLE
  2
STYLE
  70
4
  0
STYLE
  2
KICAD
  70
0
  40
0
  41
1
  42
1
  50
0
  71
0
  3
isocp.shx
  0
STYLE
  2
KICADB
  70
0
  40
0
  41
1
  42
1
  50
0
  71
0
  3
isocp.shx
  0
STYLE
  2
KICADI
  70
0
  40
0
  41
1
  42
1
  50
15
  71
0
  3
isocp.shx
  0
STYLE
  2
KICADBI
  70
0
  40
0
  41
1
  42
1
  50
15
  71
0
  3
isocp.shx
  0
ENDTAB
  0
TABLE
  2
LAYER
  70
1
  0
LAYER
  2
BLACK
  70
0
  62
7
  6
CONTINUOUS
  0
ENDTAB
  0
ENDSEC
  0
SECTION
  2
ENTITIES
0
LINE
8
BLACK
6
CONTINUOUS
10
117.6033049999999918
20
-24.0799999999999983
11
118.3141139999999893
21
-24.0900870000000005
0
LINE
8
BLACK
6
CONTINUOUS
10
118.3141139999999893
20
-24.0900870000000005
11
119.0243499999999983
21
-24.1203399999999988
0
LINE
8
BLACK
6
CONTINUOUS
10
119.0243499999999983
20
-24.1203399999999988
11
119.7334419999999966
21
-24.1707329999999985
0
LINE
8
BLACK
6
CONTINUOUS
10
119.7334419999999966
20
-24.1707329999999985
11
120.4408189999999905
21
-24.2412279999999996
0
LINE
8
BLACK
6
CONTINUOUS
10
120.4408189999999905
20
-24.2412279999999996
11
121.1459100000000007
21
-24.3317659999999982
0
LINE
8
BLACK
6
CONTINUOUS
10
121.1459100000000007
20
-24.3317659999999982
11
159.8209039999999845
21
-29.8567649999999993
0
LINE
8
BLACK
6
CONTINUOUS
10
159.8209039999999845
20
-29.8567649999999993
11
160.7049899999999809
21
-29.9992319999999992
0
LINE
8
BLACK
6
CONTINUOUS
10
160.7049899999999809
20
-29.9992319999999992
11
161.5834189999999921
21
-30.1732059999999969
0
LINE
8
BLACK
6
CONTINUOUS
10
161.5834189999999921
20
-30.1732059999999969
11
162.4550679999999829
21
-30.378466999999997
0
LINE
8
BLACK
6
CONTINUOUS
10
162.4550679999999829
20
-30.378466999999997
11
163.3188240000000064
21
-30.6147519999999993
0
LINE
8
BLACK
6
CONTINUOUS
10
163.3188240000000064
20
-30.6147519999999993
11
164.1735829999999794
21
-30.8817589999999988
0
LINE
8
BLACK
6
CONTINUOUS
10
164.1735829999999794
20
-30.8817589999999988
11
165.0182519999999897
21
-31.1791459999999994
0
LINE
8
BLACK
6
CONTINUOUS
10
165.0182519999999897
20
-31.1791459999999994
11
165.8517520000000047
21
-31.5065329999999975
0
LINE
8
BLACK
6
CONTINUOUS
10
165.8517520000000047
20
-31.5065329999999975
11
166.6730169999999873
21
-31.8635029999999979
0
LINE
8
BLACK
6
CONTINUOUS
10
166.6730169999999873
20
-31.8635029999999979
11
167.4809979999999996
21
-32.2495970000000014
0
LINE
8
BLACK
6
CONTINUOUS
10
167.4809979999999996
20
-32.2495970000000014
11
167.4809999999999945
21
-32.2495979999999989
0
LINE
8
BLACK
6
CONTINUOUS
10
167.4809999999999945
20
-32.2495979999999989
11
191.593720999999988
21
-44.3059590000000014
0
LINE
8
BLACK
6
CONTINUOUS
10
191.593720999999988
20
-44.3059590000000014
11
191.593720999999988
21
-44.3059579999999968
0
LINE
8
BLACK
6
CONTINUOUS
10
191.593720999999988
20
-44.3059579999999968
11
191.9917109999999809
21
-44.504961999999999
0
LINE
8
BLACK
6
CONTINUOUS
10
191.9917109999999809
20
-44.504961999999999
11
192.8013839999999846
21
-44.8743199999999973
0
LINE
8
BLACK
6
CONTINUOUS
10
192.8013839999999846
20
-44.8743199999999973
11
193.6237129999999809
21
-45.2145719999999969
0
LINE
8
BLACK
6
CONTINUOUS
10
193.6237129999999809
20
-45.2145719999999969
11
194.4576509999999985
21
-45.5252849999999967
0
LINE
8
BLACK
6
CONTINUOUS
10
194.4576509999999985
20
-45.5252849999999967
11
195.3021379999999851
21
-45.8060639999999992
0
LINE
8
BLACK
6
CONTINUOUS
10
195.3021379999999851
20
-45.8060639999999992
11
196.1561009999999783
21
-46.0565519999999964
0
LINE
8
BLACK
6
CONTINUOUS
10
196.1561009999999783
20
-46.0565519999999964
11
197.0184509999999989
21
-46.2764309999999952
0
LINE
8
BLACK
6
CONTINUOUS
10
197.0184509999999989
20
-46.2764309999999952
11
197.8880939999999953
21
-46.4654199999999946
0
LINE
8
BLACK
6
CONTINUOUS
10
197.8880939999999953
20
-46.4654199999999946
11
198.763922999999977
21
-46.6232800000000012
0
LINE
8
BLACK
6
CONTINUOUS
10
198.763922999999977
20
-46.6232800000000012
11
199.6448230000000024
21
-46.7498099999999965
0
LINE
8
BLACK
6
CONTINUOUS
10
199.6448230000000024
20
-46.7498099999999965
11
200.5296759999999949
21
-46.8448479999999989
0
LINE
8
BLACK
6
CONTINUOUS
10
200.5296759999999949
20
-46.8448479999999989
11
201.4173539999999889
21
-46.9082739999999987
0
LINE
8
BLACK
6
CONTINUOUS
10
201.4173539999999889
20
-46.9082739999999987
11
202.30672899999999
21
-46.9400070000000014
0
LINE
8
BLACK
6
CONTINUOUS
10
202.30672899999999
20
-46.9400070000000014
11
202.7516999999999996
21
-46.9399999999999977
0
LINE
8
BLACK
6
CONTINUOUS
10
202.7516999999999996
20
-46.9399999999999977
11
210.8999999999999773
21
-46.9399999999999977
0
LINE
8
BLACK
6
CONTINUOUS
10
210.8999999999999773
20
-46.9399999999999977
11
211.3170259999999985
21
-46.9572479999999999
0
LINE
8
BLACK
6
CONTINUOUS
10
211.3170259999999985
20
-46.9572479999999999
11
211.7312029999999936
21
-47.0088749999999962
0
LINE
8
BLACK
6
CONTINUOUS
10
211.7312029999999936
20
-47.0088749999999962
11
212.1397019999999998
21
-47.0945290000000014
0
LINE
8
BLACK
6
CONTINUOUS
10
212.1397019999999998
20
-47.0945290000000014
11
212.5397319999999866
21
-47.2136229999999983
0
LINE
8
BLACK
6
CONTINUOUS
10
212.5397319999999866
20
-47.2136229999999983
11
212.9285619999999994
21
-47.3653449999999978
0
LINE
8
BLACK
6
CONTINUOUS
10
212.9285619999999994
20
-47.3653449999999978
11
213.3035339999999849
21
-47.5486579999999961
0
LINE
8
BLACK
6
CONTINUOUS
10
213.3035339999999849
20
-47.5486579999999961
11
213.6620879999999829
21
-47.7623089999999948
0
LINE
8
BLACK
6
CONTINUOUS
10
213.6620879999999829
20
-47.7623089999999948
11
214.0017739999999833
21
-48.0048399999999944
0
LINE
8
BLACK
6
CONTINUOUS
10
214.0017739999999833
20
-48.0048399999999944
11
214.3202719999999886
21
-48.2745940000000004
0
LINE
8
BLACK
6
CONTINUOUS
10
214.3202719999999886
20
-48.2745940000000004
11
214.6154059999999788
21
-48.5697279999999978
0
LINE
8
BLACK
6
CONTINUOUS
10
214.6154059999999788
20
-48.5697279999999978
11
214.8851599999999848
21
-48.888225999999996
0
LINE
8
BLACK
6
CONTINUOUS
10
214.8851599999999848
20
-48.888225999999996
11
215.1276909999999987
21
-49.2279119999999963
0
LINE
8
BLACK
6
CONTINUOUS
10
215.1276909999999987
20
-49.2279119999999963
11
215.3413419999999974
21
-49.5864659999999944
0
LINE
8
BLACK
6
CONTINUOUS
10
215.3413419999999974
20
-49.5864659999999944
11
215.5246549999999957
21
-49.9614380000000011
0
LINE
8
BLACK
6
CONTINUOUS
10
215.5246549999999957
20
-49.9614380000000011
11
215.6763770000000022
21
-50.3502679999999998
0
LINE
8
BLACK
6
CONTINUOUS
10
215.6763770000000022
20
-50.3502679999999998
11
215.795470999999992
21
-50.7502980000000008
0
LINE
8
BLACK
6
CONTINUOUS
10
215.795470999999992
20
-50.7502980000000008
11
215.8811249999999973
21
-51.1587969999999999
0
LINE
8
BLACK
6
CONTINUOUS
10
215.8811249999999973
20
-51.1587969999999999
11
215.9327519999999936
21
-51.572973999999995
0
LINE
8
BLACK
6
CONTINUOUS
10
215.9327519999999936
20
-51.572973999999995
11
215.9499999999999886
21
-51.9899999999999949
0
LINE
8
BLACK
6
CONTINUOUS
10
215.9499999999999886
20
-51.9899999999999949
11
215.9499999999999886
21
-124.2646609999999896
0
LINE
8
BLACK
6
CONTINUOUS
10
215.9499999999999886
20
-124.2646609999999896
11
215.9500280000000032
21
-124.2646609999999896
0
LINE
8
BLACK
6
CONTINUOUS
10
215.9500280000000032
20
-124.2646609999999896
11
215.9500269999999773
21
-124.7312790000000007
0
LINE
8
BLACK
6
CONTINUOUS
10
215.9500269999999773
20
-124.7312790000000007
11
215.9849209999999857
21
-125.6638629999999921
0
LINE
8
BLACK
6
CONTINUOUS
10
215.9849209999999857
20
-125.6638629999999921
11
216.0546599999999842
21
-126.5944889999999958
0
LINE
8
BLACK
6
CONTINUOUS
10
216.0546599999999842
20
-126.5944889999999958
11
216.1591479999999876
21
-127.5218569999999971
0
LINE
8
BLACK
6
CONTINUOUS
10
216.1591479999999876
20
-127.5218569999999971
11
216.2982379999999978
21
-128.4446700000000021
0
LINE
8
BLACK
6
CONTINUOUS
10
216.2982379999999978
20
-128.4446700000000021
11
216.4717359999999928
21
-129.3616370000000018
0
LINE
8
BLACK
6
CONTINUOUS
10
216.4717359999999928
20
-129.3616370000000018
11
216.6793999999999869
21
-130.271474999999981
0
LINE
8
BLACK
6
CONTINUOUS
10
216.6793999999999869
20
-130.271474999999981
11
216.9209379999999783
21
-131.1729119999999966
0
LINE
8
BLACK
6
CONTINUOUS
10
216.9209379999999783
20
-131.1729119999999966
11
217.1960119999999961
21
-132.0646879999999896
0
LINE
8
BLACK
6
CONTINUOUS
10
217.1960119999999961
20
-132.0646879999999896
11
217.5042399999999816
21
-132.9455539999999871
0
LINE
8
BLACK
6
CONTINUOUS
10
217.5042399999999816
20
-132.9455539999999871
11
217.845187999999979
21
-133.8142799999999966
0
LINE
8
BLACK
6
CONTINUOUS
10
217.845187999999979
20
-133.8142799999999966
11
218.2183799999999962
21
-134.6696489999999926
0
LINE
8
BLACK
6
CONTINUOUS
10
218.2183799999999962
20
-134.6696489999999926
11
218.6232949999999846
21
-135.5104659999999797
0
LINE
8
BLACK
6
CONTINUOUS
10
218.6232949999999846
20
-135.5104659999999797
11
219.0593659999999829
21
-136.3355549999999994
0
LINE
8
BLACK
6
CONTINUOUS
10
219.0593659999999829
20
-136.3355549999999994
11
219.5259829999999965
21
-137.1437619999999811
0
LINE
8
BLACK
6
CONTINUOUS
10
219.5259829999999965
20
-137.1437619999999811
11
220.0224939999999947
21
-137.9339559999999949
0
LINE
8
BLACK
6
CONTINUOUS
10
220.0224939999999947
20
-137.9339559999999949
11
220.5482030000000009
21
-138.7050319999999886
0
LINE
8
BLACK
6
CONTINUOUS
10
220.5482030000000009
20
-138.7050319999999886
11
221.1023769999999899
21
-139.4559129999999811
0
LINE
8
BLACK
6
CONTINUOUS
10
221.1023769999999899
20
-139.4559129999999811
11
221.6842389999999909
21
-140.1855469999999855
0
LINE
8
BLACK
6
CONTINUOUS
10
221.6842389999999909
20
-140.1855469999999855
11
222.2929759999999817
21
-140.8929139999999904
0
LINE
8
BLACK
6
CONTINUOUS
10
222.2929759999999817
20
-140.8929139999999904
11
222.9277369999999792
21
-141.5770249999999919
0
LINE
8
BLACK
6
CONTINUOUS
10
222.9277369999999792
20
-141.5770249999999919
11
223.2576859999999783
21
-141.9069739999999911
0
LINE
8
BLACK
6
CONTINUOUS
10
223.2576859999999783
20
-141.9069739999999911
11
223.2576849999999808
21
-141.9069749999999885
0
LINE
8
BLACK
6
CONTINUOUS
10
223.2576849999999808
20
-141.9069749999999885
11
228.9098209999999938
21
-147.559110000000004
0
LINE
8
BLACK
6
CONTINUOUS
10
228.9098209999999938
20
-147.559110000000004
11
228.9098209999999938
21
-147.5591110000000015
0
LINE
8
BLACK
6
CONTINUOUS
10
228.9098209999999938
20
-147.5591110000000015
11
229.1925049999999828
21
-147.8661899999999889
0
LINE
8
BLACK
6
CONTINUOUS
10
229.1925049999999828
20
-147.8661899999999889
11
229.4488639999999862
21
-148.1955639999999903
0
LINE
8
BLACK
6
CONTINUOUS
10
229.4488639999999862
20
-148.1955639999999903
11
229.6771489999999858
21
-148.544983000000002
0
LINE
8
BLACK
6
CONTINUOUS
10
229.6771489999999858
20
-148.544983000000002
11
229.8757999999999981
21
-148.9120589999999993
0
LINE
8
BLACK
6
CONTINUOUS
10
229.8757999999999981
20
-148.9120589999999993
11
230.0434589999999844
21
-149.2942869999999971
0
LINE
8
BLACK
6
CONTINUOUS
10
230.0434589999999844
20
-149.2942869999999971
11
230.1789819999999906
21
-149.6890539999999987
0
LINE
8
BLACK
6
CONTINUOUS
10
230.1789819999999906
20
-149.6890539999999987
11
230.2814429999999959
21
-150.0936639999999898
0
LINE
8
BLACK
6
CONTINUOUS
10
230.2814429999999959
20
-150.0936639999999898
11
230.3501409999999794
21
-150.5053529999999853
0
LINE
8
BLACK
6
CONTINUOUS
10
230.3501409999999794
20
-150.5053529999999853
11
230.3846079999999859
21
-150.9213089999999795
0
LINE
8
BLACK
6
CONTINUOUS
10
230.3846079999999859
20
-150.9213089999999795
11
230.3846079999999859
21
-151.338690999999983
0
LINE
8
BLACK
6
CONTINUOUS
10
230.3846079999999859
20
-151.338690999999983
11
230.3501409999999794
21
-151.7546470000000056
0
LINE
8
BLACK
6
CONTINUOUS
10
230.3501409999999794
20
-151.7546470000000056
11
230.2814429999999959
21
-152.1663360000000011
0
LINE
8
BLACK
6
CONTINUOUS
10
230.2814429999999959
20
-152.1663360000000011
11
230.1789819999999906
21
-152.5709459999999922
0
LINE
8
BLACK
6
CONTINUOUS
10
230.1789819999999906
20
-152.5709459999999922
11
230.0434589999999844
21
-152.9657129999999938
0
LINE
8
BLACK
6
CONTINUOUS
10
230.0434589999999844
20
-152.9657129999999938
11
229.8757999999999981
21
-153.3479409999999916
0
LINE
8
BLACK
6
CONTINUOUS
10
229.8757999999999981
20
-153.3479409999999916
11
229.6771489999999858
21
-153.7150169999999889
0
LINE
8
BLACK
6
CONTINUOUS
10
229.6771489999999858
20
-153.7150169999999889
11
229.4488639999999862
21
-154.0644360000000006
0
LINE
8
BLACK
6
CONTINUOUS
10
229.4488639999999862
20
-154.0644360000000006
11
229.1925049999999828
21
-154.393810000000002
0
LINE
8
BLACK
6
CONTINUOUS
10
229.1925049999999828
20
-154.393810000000002
11
228.9098209999999938
21
-154.7008889999999894
0
LINE
8
BLACK
6
CONTINUOUS
10
228.9098209999999938
20
-154.7008889999999894
11
205.5008890000000008
21
-178.1098209999999824
0
LINE
8
BLACK
6
CONTINUOUS
10
205.5008890000000008
20
-178.1098209999999824
11
205.1938109999999824
21
-178.3925069999999948
0
LINE
8
BLACK
6
CONTINUOUS
10
205.1938109999999824
20
-178.3925069999999948
11
204.8644379999999785
21
-178.6488679999999931
0
LINE
8
BLACK
6
CONTINUOUS
10
204.8644379999999785
20
-178.6488679999999931
11
204.5150189999999952
21
-178.8771539999999902
0
LINE
8
BLACK
6
CONTINUOUS
10
204.5150189999999952
20
-178.8771539999999902
11
204.1479429999999979
21
-179.075806
0
LINE
8
BLACK
6
CONTINUOUS
10
204.1479429999999979
20
-179.075806
11
203.7657150000000001
21
-179.2434669999999812
0
LINE
8
BLACK
6
CONTINUOUS
10
203.7657150000000001
20
-179.2434669999999812
11
203.3709479999999985
21
-179.378990999999985
0
LINE
8
BLACK
6
CONTINUOUS
10
203.3709479999999985
20
-179.378990999999985
11
202.9663369999999816
21
-179.4814519999999902
0
LINE
8
BLACK
6
CONTINUOUS
10
202.9663369999999816
20
-179.4814519999999902
11
202.554647999999986
21
-179.5501509999999996
0
LINE
8
BLACK
6
CONTINUOUS
10
202.554647999999986
20
-179.5501509999999996
11
202.1386909999999943
21
-179.5846180000000061
0
LINE
8
BLACK
6
CONTINUOUS
10
202.1386909999999943
20
-179.5846180000000061
11
201.7213089999999909
21
-179.5846180000000061
0
LINE
8
BLACK
6
CONTINUOUS
10
201.7213089999999909
20
-179.5846180000000061
11
201.3053519999999992
21
-179.5501509999999996
0
LINE
8
BLACK
6
CONTINUOUS
10
201.3053519999999992
20
-179.5501509999999996
11
200.8936630000000036
21
-179.4814519999999902
0
LINE
8
BLACK
6
CONTINUOUS
10
200.8936630000000036
20
-179.4814519999999902
11
200.4890519999999867
21
-179.378990999999985
0
LINE
8
BLACK
6
CONTINUOUS
10
200.4890519999999867
20
-179.378990999999985
11
200.0942849999999851
21
-179.2434669999999812
0
LINE
8
BLACK
6
CONTINUOUS
10
200.0942849999999851
20
-179.2434669999999812
11
199.7120569999999873
21
-179.075806
0
LINE
8
BLACK
6
CONTINUOUS
10
199.7120569999999873
20
-179.075806
11
199.34498099999999
21
-178.8771539999999902
0
LINE
8
BLACK
6
CONTINUOUS
10
199.34498099999999
20
-178.8771539999999902
11
198.9955619999999783
21
-178.6488679999999931
0
LINE
8
BLACK
6
CONTINUOUS
10
198.9955619999999783
20
-178.6488679999999931
11
198.6661890000000028
21
-178.3925069999999948
0
LINE
8
BLACK
6
CONTINUOUS
10
198.6661890000000028
20
-178.3925069999999948
11
198.3591109999999844
21
-178.1098209999999824
0
LINE
8
BLACK
6
CONTINUOUS
10
198.3591109999999844
20
-178.1098209999999824
11
198.3591099999999869
21
-178.1098209999999824
0
LINE
8
BLACK
6
CONTINUOUS
10
198.3591099999999869
20
-178.1098209999999824
11
162.7191109999999981
21
-142.469820999999996
0
LINE
8
BLACK
6
CONTINUOUS
10
162.7191109999999981
20
-142.469820999999996
11
162.7190750000000037
21
-142.4697349999999858
0
LINE
8
BLACK
6
CONTINUOUS
10
162.7190750000000037
20
-142.4697349999999858
11
162.581610999999981
21
-142.3322780000000023
0
LINE
8
BLACK
6
CONTINUOUS
10
162.581610999999981
20
-142.3322780000000023
11
162.2858279999999809
21
-142.0796660000000031
0
LINE
8
BLACK
6
CONTINUOUS
10
162.2858279999999809
20
-142.0796660000000031
11
161.9711389999999938
21
-141.8510389999999859
0
LINE
8
BLACK
6
CONTINUOUS
10
161.9711389999999938
20
-141.8510389999999859
11
161.6394819999999868
21
-141.6478060000000028
0
LINE
8
BLACK
6
CONTINUOUS
10
161.6394819999999868
20
-141.6478060000000028
11
161.292901999999998
21
-141.4712199999999882
0
LINE
8
BLACK
6
CONTINUOUS
10
161.292901999999998
20
-141.4712199999999882
11
160.9335370000000012
21
-141.3223700000000065
0
LINE
8
BLACK
6
CONTINUOUS
10
160.9335370000000012
20
-141.3223700000000065
11
160.5636010000000056
21
-141.2021729999999877
0
LINE
8
BLACK
6
CONTINUOUS
10
160.5636010000000056
20
-141.2021729999999877
11
160.1853759999999909
21
-141.1113699999999938
0
LINE
8
BLACK
6
CONTINUOUS
10
160.1853759999999909
20
-141.1113699999999938
11
159.8011919999999861
21
-141.0505210000000034
0
LINE
8
BLACK
6
CONTINUOUS
10
159.8011919999999861
20
-141.0505210000000034
11
159.4134179999999787
21
-141.0200010000000077
0
LINE
8
BLACK
6
CONTINUOUS
10
159.4134179999999787
20
-141.0200010000000077
11
159.2189319999999952
21
-141.0199999999999818
0
LINE
8
BLACK
6
CONTINUOUS
10
159.2189319999999952
20
-141.0199999999999818
11
158.75
21
-141.0199999999999818
0
LINE
8
BLACK
6
CONTINUOUS
10
158.75
20
-141.0199999999999818
11
35.3999999999999986
21
-141.0199999999999818
0
LINE
8
BLACK
6
CONTINUOUS
10
35.3999999999999986
20
-141.0199999999999818
11
34.7931960000000018
21
-141.0016640000000052
0
LINE
8
BLACK
6
CONTINUOUS
10
34.7931960000000018
20
-141.0016640000000052
11
34.1886060000000001
21
-140.946723999999989
0
LINE
8
BLACK
6
CONTINUOUS
10
34.1886060000000001
20
-140.946723999999989
11
33.588436999999999
21
-140.8553799999999967
0
LINE
8
BLACK
6
CONTINUOUS
10
33.588436999999999
20
-140.8553799999999967
11
32.9948779999999999
21
-140.7279649999999833
0
LINE
8
BLACK
6
CONTINUOUS
10
32.9948779999999999
20
-140.7279649999999833
11
32.4100940000000008
21
-140.5649449999999945
0
LINE
8
BLACK
6
CONTINUOUS
10
32.4100940000000008
20
-140.5649449999999945
11
31.8362209999999983
21
-140.3669129999999825
0
LINE
8
BLACK
6
CONTINUOUS
10
31.8362209999999983
20
-140.3669129999999825
11
31.275350999999997
21
-140.1345929999999953
0
LINE
8
BLACK
6
CONTINUOUS
10
31.275350999999997
20
-140.1345929999999953
11
30.729531999999999
21
-139.8688329999999951
0
LINE
8
BLACK
6
CONTINUOUS
10
30.729531999999999
20
-139.8688329999999951
11
30.2007549999999974
21
-139.5706019999999796
0
LINE
8
BLACK
6
CONTINUOUS
10
30.2007549999999974
20
-139.5706019999999796
11
29.6909489999999998
21
-139.2409879999999873
0
LINE
8
BLACK
6
CONTINUOUS
10
29.6909489999999998
20
-139.2409879999999873
11
29.2019749999999974
21
-138.8811939999999936
0
LINE
8
BLACK
6
CONTINUOUS
10
29.2019749999999974
20
-138.8811939999999936
11
28.7356169999999977
21
-138.4925329999999803
0
LINE
8
BLACK
6
CONTINUOUS
10
28.7356169999999977
20
-138.4925329999999803
11
28.2935769999999991
21
-138.0764230000000055
0
LINE
8
BLACK
6
CONTINUOUS
10
28.2935769999999991
20
-138.0764230000000055
11
27.8774669999999993
21
-137.6343829999999855
0
LINE
8
BLACK
6
CONTINUOUS
10
27.8774669999999993
20
-137.6343829999999855
11
27.4888060000000003
21
-137.1680250000000001
0
LINE
8
BLACK
6
CONTINUOUS
10
27.4888060000000003
20
-137.1680250000000001
11
27.1290119999999995
21
-136.679050999999987
0
LINE
8
BLACK
6
CONTINUOUS
10
27.1290119999999995
20
-136.679050999999987
11
26.7993980000000001
21
-136.1692449999999894
0
LINE
8
BLACK
6
CONTINUOUS
10
26.7993980000000001
20
-136.1692449999999894
11
26.5011669999999988
21
-135.6404679999999985
0
LINE
8
BLACK
6
CONTINUOUS
10
26.5011669999999988
20
-135.6404679999999985
11
26.2354069999999986
21
-135.094649000000004
0
LINE
8
BLACK
6
CONTINUOUS
10
26.2354069999999986
20
-135.094649000000004
11
26.0030869999999972
21
-134.5337789999999814
0
LINE
8
BLACK
6
CONTINUOUS
10
26.0030869999999972
20
-134.5337789999999814
11
25.8050549999999994
21
-133.9599059999999895
0
LINE
8
BLACK
6
CONTINUOUS
10
25.8050549999999994
20
-133.9599059999999895
11
25.6420349999999999
21
-133.3751220000000046
0
LINE
8
BLACK
6
CONTINUOUS
10
25.6420349999999999
20
-133.3751220000000046
11
25.5146199999999972
21
-132.7815630000000056
0
LINE
8
BLACK
6
CONTINUOUS
10
25.5146199999999972
20
-132.7815630000000056
11
25.4232759999999978
21
-132.1813939999999832
0
LINE
8
BLACK
6
CONTINUOUS
10
25.4232759999999978
20
-132.1813939999999832
11
25.3683359999999993
21
-131.5768039999999814
0
LINE
8
BLACK
6
CONTINUOUS
10
25.3683359999999993
20
-131.5768039999999814
11
25.3499999999999979
21
-130.9699999999999989
0
LINE
8
BLACK
6
CONTINUOUS
10
25.3499999999999979
20
-130.9699999999999989
11
25.3499999999999979
21
-75.0794609999999949
0
LINE
8
BLACK
6
CONTINUOUS
10
25.3499999999999979
20
-75.0794609999999949
11
25.367604
21
-74.1405099999999919
0
LINE
8
BLACK
6
CONTINUOUS
10
25.367604
20
-74.1405099999999919
11
25.4203890000000001
21
-73.2028789999999958
0
LINE
8
BLACK
6
CONTINUOUS
10
25.4203890000000001
20
-73.2028789999999958
11
25.5082839999999997
21
-72.2678849999999926
0
LINE
8
BLACK
6
CONTINUOUS
10
25.5082839999999997
20
-72.2678849999999926
11
25.6311619999999998
21
-71.3368419999999901
0
LINE
8
BLACK
6
CONTINUOUS
10
25.6311619999999998
20
-71.3368419999999901
11
25.7888529999999996
21
-70.411059999999992
0
LINE
8
BLACK
6
CONTINUOUS
10
25.7888529999999996
20
-70.411059999999992
11
25.9811339999999973
21
-69.4918389999999988
0
LINE
8
BLACK
6
CONTINUOUS
10
25.9811339999999973
20
-69.4918389999999988
11
26.2077360000000006
21
-68.5804720000000003
0
LINE
8
BLACK
6
CONTINUOUS
10
26.2077360000000006
20
-68.5804720000000003
11
26.4683390000000003
21
-67.6782379999999932
0
LINE
8
BLACK
6
CONTINUOUS
10
26.4683390000000003
20
-67.6782379999999932
11
26.7625770000000003
21
-66.786406999999997
0
LINE
8
BLACK
6
CONTINUOUS
10
26.7625770000000003
20
-66.786406999999997
11
27.0900369999999988
21
-65.9062320000000028
0
LINE
8
BLACK
6
CONTINUOUS
10
27.0900369999999988
20
-65.9062320000000028
11
27.4502589999999991
21
-65.0389490000000023
0
LINE
8
BLACK
6
CONTINUOUS
10
27.4502589999999991
20
-65.0389490000000023
11
30.9975179999999995
21
-56.9309279999999944
0
LINE
8
BLACK
6
CONTINUOUS
10
30.9975179999999995
20
-56.9309279999999944
11
30.9975189999999969
21
-56.9309259999999995
0
LINE
8
BLACK
6
CONTINUOUS
10
30.9975189999999969
20
-56.9309259999999995
11
31.3831439999999979
21
-56.0919570000000007
0
LINE
8
BLACK
6
CONTINUOUS
10
31.3831439999999979
20
-56.0919570000000007
11
31.7994269999999979
21
-55.2677679999999967
0
LINE
8
BLACK
6
CONTINUOUS
10
31.7994269999999979
20
-55.2677679999999967
11
32.2458019999999976
21
-54.4594799999999992
0
LINE
8
BLACK
6
CONTINUOUS
10
32.2458019999999976
20
-54.4594799999999992
11
32.721662000000002
21
-53.6681919999999977
0
LINE
8
BLACK
6
CONTINUOUS
10
32.721662000000002
20
-53.6681919999999977
11
33.2263609999999971
21
-52.8949789999999993
0
LINE
8
BLACK
6
CONTINUOUS
10
33.2263609999999971
20
-52.8949789999999993
11
33.7592129999999955
21
-52.1408920000000009
0
LINE
8
BLACK
6
CONTINUOUS
10
33.7592129999999955
20
-52.1408920000000009
11
34.3194939999999988
21
-51.4069549999999964
0
LINE
8
BLACK
6
CONTINUOUS
10
34.3194939999999988
20
-51.4069549999999964
11
34.9064440000000005
21
-50.6941640000000007
0
LINE
8
BLACK
6
CONTINUOUS
10
34.9064440000000005
20
-50.6941640000000007
11
35.5192629999999951
21
-50.0034899999999993
0
LINE
8
BLACK
6
CONTINUOUS
10
35.5192629999999951
20
-50.0034899999999993
11
36.1571209999999965
21
-49.3358699999999999
0
LINE
8
BLACK
6
CONTINUOUS
10
36.1571209999999965
20
-49.3358699999999999
11
36.8191500000000005
21
-48.6922110000000004
0
LINE
8
BLACK
6
CONTINUOUS
10
36.8191500000000005
20
-48.6922110000000004
11
37.5044499999999985
21
-48.0733869999999968
0
LINE
8
BLACK
6
CONTINUOUS
10
37.5044499999999985
20
-48.0733869999999968
11
38.2120919999999984
21
-47.4802399999999949
0
LINE
8
BLACK
6
CONTINUOUS
10
38.2120919999999984
20
-47.4802399999999949
11
38.9411119999999968
21
-46.9135759999999991
0
LINE
8
BLACK
6
CONTINUOUS
10
38.9411119999999968
20
-46.9135759999999991
11
39.6905209999999968
21
-46.3741629999999958
0
LINE
8
BLACK
6
CONTINUOUS
10
39.6905209999999968
20
-46.3741629999999958
11
40.4592999999999989
21
-45.8627359999999982
0
LINE
8
BLACK
6
CONTINUOUS
10
40.4592999999999989
20
-45.8627359999999982
11
41.2464009999999988
21
-45.3799920000000014
0
LINE
8
BLACK
6
CONTINUOUS
10
41.2464009999999988
20
-45.3799920000000014
11
41.2464049999999958
21
-45.3799879999999973
0
LINE
8
BLACK
6
CONTINUOUS
10
41.2464049999999958
20
-45.3799879999999973
11
53.3782789999999991
21
-38.243590999999995
0
LINE
8
BLACK
6
CONTINUOUS
10
53.3782789999999991
20
-38.243590999999995
11
53.3782809999999941
21
-38.2435899999999975
0
LINE
8
BLACK
6
CONTINUOUS
10
53.3782809999999941
20
-38.2435899999999975
11
54.0907920000000004
21
-37.8399939999999972
0
LINE
8
BLACK
6
CONTINUOUS
10
54.0907920000000004
20
-37.8399939999999972
11
54.816116000000001
21
-37.4598999999999975
0
LINE
8
BLACK
6
CONTINUOUS
10
54.816116000000001
20
-37.4598999999999975
11
55.5534759999999963
21
-37.1037169999999961
0
LINE
8
BLACK
6
CONTINUOUS
10
55.5534759999999963
20
-37.1037169999999961
11
56.3020840000000007
21
-36.7718259999999972
0
LINE
8
BLACK
6
CONTINUOUS
10
56.3020840000000007
20
-36.7718259999999972
11
57.0611399999999946
21
-36.464579999999998
0
LINE
8
BLACK
6
CONTINUOUS
10
57.0611399999999946
20
-36.464579999999998
11
57.8298330000000007
21
-36.182307999999999
0
LINE
8
BLACK
6
CONTINUOUS
10
57.8298330000000007
20
-36.182307999999999
11
58.6073419999999956
21
-35.9253119999999981
0
LINE
8
BLACK
6
CONTINUOUS
10
58.6073419999999956
20
-35.9253119999999981
11
58.6073439999999977
21
-35.9253199999999993
0
LINE
8
BLACK
6
CONTINUOUS
10
58.6073439999999977
20
-35.9253199999999993
11
92.8634839999999997
21
-25.2202769999999994
0
LINE
8
BLACK
6
CONTINUOUS
10
92.8634839999999997
20
-25.2202769999999994
11
93.6722180000000009
21
-24.9824079999999995
0
LINE
8
BLACK
6
CONTINUOUS
10
93.6722180000000009
20
-24.9824079999999995
11
94.4884969999999953
21
-24.7718859999999985
0
LINE
8
BLACK
6
CONTINUOUS
10
94.4884969999999953
20
-24.7718859999999985
11
95.311397999999997
21
-24.5889500000000005
0
LINE
8
BLACK
6
CONTINUOUS
10
95.311397999999997
20
-24.5889500000000005
11
96.1399889999999999
21
-24.4338049999999996
0
LINE
8
BLACK
6
CONTINUOUS
10
96.1399889999999999
20
-24.4338049999999996
11
96.97332999999999
21
-24.3066289999999974
0
LINE
8
BLACK
6
CONTINUOUS
10
96.97332999999999
20
-24.3066289999999974
11
97.8104790000000008
21
-24.2075649999999989
0
LINE
8
BLACK
6
CONTINUOUS
10
97.8104790000000008
20
-24.2075649999999989
11
98.6504869999999983
21
-24.1367259999999995
0
LINE
8
BLACK
6
CONTINUOUS
10
98.6504869999999983
20
-24.1367259999999995
11
99.4924029999999959
21
-24.0941909999999986
0
LINE
8
BLACK
6
CONTINUOUS
10
99.4924029999999959
20
-24.0941909999999986
11
100.335250000000002
21
-24.0800090000000004
0
LINE
8
BLACK
6
CONTINUOUS
10
100.335250000000002
20
-24.0800090000000004
11
100.3352730000000008
21
-24.0799999999999983
0
LINE
8
BLACK
6
CONTINUOUS
10
100.3352730000000008
20
-24.0799999999999983
11
117.6033049999999918
21
-24.0799999999999983
0
LINE
8
BLACK
6
CONTINUOUS
10
117.6033049999999918
20
-24.1799999999999997
11
100.3352730000000008
21
-24.1799999999999997
0
LINE
8
BLACK
6
CONTINUOUS
10
100.3352730000000008
20
-24.1799999999999997
11
100.3352730000000008
21
-24.1800089999999983
0
LINE
8
BLACK
6
CONTINUOUS
10
100.3352730000000008
20
-24.1800089999999983
11
99.9154009999999886
21
-24.1800189999999979
0
LINE
8
BLACK
6
CONTINUOUS
10
99.9154009999999886
20
-24.1800189999999979
11
99.0761339999999961
21
-24.2082729999999984
0
LINE
8
BLACK
6
CONTINUOUS
10
99.0761339999999961
20
-24.2082729999999984
11
98.2382920000000013
21
-24.2647489999999983
0
LINE
8
BLACK
6
CONTINUOUS
10
98.2382920000000013
20
-24.2647489999999983
11
97.4028249999999929
21
-24.3493859999999991
0
LINE
8
BLACK
6
CONTINUOUS
10
97.4028249999999929
20
-24.3493859999999991
11
96.5706789999999984
21
-24.4620859999999993
0
LINE
8
BLACK
6
CONTINUOUS
10
96.5706789999999984
20
-24.4620859999999993
11
95.7427969999999959
21
-24.6027229999999975
0
LINE
8
BLACK
6
CONTINUOUS
10
95.7427969999999959
20
-24.6027229999999975
11
94.9201149999999956
21
-24.7711359999999985
0
LINE
8
BLACK
6
CONTINUOUS
10
94.9201149999999956
20
-24.7711359999999985
11
94.1035660000000007
21
-24.967134999999999
0
LINE
8
BLACK
6
CONTINUOUS
10
94.1035660000000007
20
-24.967134999999999
11
93.2940739999999948
21
-25.1904989999999991
0
LINE
8
BLACK
6
CONTINUOUS
10
93.2940739999999948
20
-25.1904989999999991
11
92.8933119999999946
21
-25.3157250000000005
0
LINE
8
BLACK
6
CONTINUOUS
10
92.8933119999999946
20
-25.3157250000000005
11
92.8933109999999971
21
-25.3157239999999994
0
LINE
8
BLACK
6
CONTINUOUS
10
92.8933109999999971
20
-25.3157239999999994
11
92.8933109999999971
21
-25.3157250000000005
0
LINE
8
BLACK
6
CONTINUOUS
10
92.8933109999999971
20
-25.3157250000000005
11
58.6371719999999996
21
-36.0207679999999968
0
LINE
8
BLACK
6
CONTINUOUS
10
58.6371719999999996
20
-36.0207679999999968
11
58.6371490000000009
21
-36.0207660000000018
0
LINE
8
BLACK
6
CONTINUOUS
10
58.6371490000000009
20
-36.0207660000000018
11
58.2478729999999985
21
-36.1424090000000007
0
LINE
8
BLACK
6
CONTINUOUS
10
58.2478729999999985
20
-36.1424090000000007
11
57.4776529999999966
21
-36.4110389999999953
0
LINE
8
BLACK
6
CONTINUOUS
10
57.4776529999999966
20
-36.4110389999999953
11
56.7166239999999959
21
-36.704698999999998
0
LINE
8
BLACK
6
CONTINUOUS
10
56.7166239999999959
20
-36.704698999999998
11
55.9655999999999949
21
-37.0230770000000007
0
LINE
8
BLACK
6
CONTINUOUS
10
55.9655999999999949
20
-37.0230770000000007
11
55.2253839999999983
21
-37.365832999999995
0
LINE
8
BLACK
6
CONTINUOUS
10
55.2253839999999983
20
-37.365832999999995
11
54.4967669999999984
21
-37.7325999999999979
0
LINE
8
BLACK
6
CONTINUOUS
10
54.4967669999999984
20
-37.7325999999999979
11
53.7805269999999993
21
-38.1229859999999974
0
LINE
8
BLACK
6
CONTINUOUS
10
53.7805269999999993
20
-38.1229859999999974
11
53.4289810000000003
21
-38.3297850000000011
0
LINE
8
BLACK
6
CONTINUOUS
10
53.4289810000000003
20
-38.3297850000000011
11
41.2971069999999969
21
-45.4661819999999963
0
LINE
8
BLACK
6
CONTINUOUS
10
41.2971069999999969
20
-45.4661819999999963
11
41.2971080000000015
21
-45.4661830000000009
0
LINE
8
BLACK
6
CONTINUOUS
10
41.2971080000000015
20
-45.4661830000000009
11
40.9006830000000008
21
-45.6993480000000005
0
LINE
8
BLACK
6
CONTINUOUS
10
40.9006830000000008
20
-45.6993480000000005
11
40.1255820000000014
21
-46.1946189999999959
0
LINE
8
BLACK
6
CONTINUOUS
10
40.1255820000000014
20
-46.1946189999999959
11
39.3692610000000016
21
-46.718119999999999
0
LINE
8
BLACK
6
CONTINUOUS
10
39.3692610000000016
20
-46.718119999999999
11
38.6327459999999974
21
-47.2691379999999981
0
LINE
8
BLACK
6
CONTINUOUS
10
38.6327459999999974
20
-47.2691379999999981
11
37.9170389999999955
21
-47.8469259999999963
0
LINE
8
BLACK
6
CONTINUOUS
10
37.9170389999999955
20
-47.8469259999999963
11
37.2231120000000004
21
-48.4506969999999981
0
LINE
8
BLACK
6
CONTINUOUS
10
37.2231120000000004
20
-48.4506969999999981
11
36.5519079999999974
21
-49.0796330000000012
0
LINE
8
BLACK
6
CONTINUOUS
10
36.5519079999999974
20
-49.0796330000000012
11
35.9043390000000002
21
-49.7328779999999995
0
LINE
8
BLACK
6
CONTINUOUS
10
35.9043390000000002
20
-49.7328779999999995
11
35.2812839999999994
21
-50.4095439999999968
0
LINE
8
BLACK
6
CONTINUOUS
10
35.2812839999999994
20
-50.4095439999999968
11
34.6835909999999998
21
-51.1087139999999991
0
LINE
8
BLACK
6
CONTINUOUS
10
34.6835909999999998
20
-51.1087139999999991
11
34.1120710000000003
21
-51.8294349999999966
0
LINE
8
BLACK
6
CONTINUOUS
10
34.1120710000000003
20
-51.8294349999999966
11
33.567501
21
-52.5707299999999975
0
LINE
8
BLACK
6
CONTINUOUS
10
33.567501
20
-52.5707299999999975
11
33.050619999999995
21
-53.331590999999996
0
LINE
8
BLACK
6
CONTINUOUS
10
33.050619999999995
20
-53.331590999999996
11
32.5621310000000008
21
-54.1109839999999949
0
LINE
8
BLACK
6
CONTINUOUS
10
32.5621310000000008
20
-54.1109839999999949
11
32.1026979999999966
21
-54.9078499999999963
0
LINE
8
BLACK
6
CONTINUOUS
10
32.1026979999999966
20
-54.9078499999999963
11
31.6729449999999986
21
-55.7211069999999964
0
LINE
8
BLACK
6
CONTINUOUS
10
31.6729449999999986
20
-55.7211069999999964
11
31.2734559999999995
21
-56.5496499999999997
0
LINE
8
BLACK
6
CONTINUOUS
10
31.2734559999999995
20
-56.5496499999999997
11
31.0891349999999989
21
-56.9710099999999997
0
LINE
8
BLACK
6
CONTINUOUS
10
31.0891349999999989
20
-56.9710099999999997
11
31.0891339999999978
21
-56.9710099999999997
0
LINE
8
BLACK
6
CONTINUOUS
10
31.0891339999999978
20
-56.9710099999999997
11
27.5418749999999974
21
-65.0790310000000005
0
LINE
8
BLACK
6
CONTINUOUS
10
27.5418749999999974
20
-65.0790310000000005
11
27.5418729999999989
21
-65.079031999999998
0
LINE
8
BLACK
6
CONTINUOUS
10
27.5418729999999989
20
-65.079031999999998
11
27.3544049999999999
21
-65.5075860000000034
0
LINE
8
BLACK
6
CONTINUOUS
10
27.3544049999999999
20
-65.5075860000000034
11
27.0118159999999996
21
-66.3781319999999937
0
LINE
8
BLACK
6
CONTINUOUS
10
27.0118159999999996
20
-66.3781319999999937
11
26.7020999999999979
21
-67.2609080000000006
0
LINE
8
BLACK
6
CONTINUOUS
10
26.7020999999999979
20
-67.2609080000000006
11
26.4256899999999995
21
-68.1546730000000025
0
LINE
8
BLACK
6
CONTINUOUS
10
26.4256899999999995
20
-68.1546730000000025
11
26.182974999999999
21
-69.0581699999999898
0
LINE
8
BLACK
6
CONTINUOUS
10
26.182974999999999
20
-69.0581699999999898
11
25.974297
21
-69.9701299999999975
0
LINE
8
BLACK
6
CONTINUOUS
10
25.974297
20
-69.9701299999999975
11
25.7999480000000005
21
-70.8892709999999937
0
LINE
8
BLACK
6
CONTINUOUS
10
25.7999480000000005
20
-70.8892709999999937
11
25.6601739999999978
21
-71.8143010000000004
0
LINE
8
BLACK
6
CONTINUOUS
10
25.6601739999999978
20
-71.8143010000000004
11
25.5551719999999989
21
-72.7439210000000003
0
LINE
8
BLACK
6
CONTINUOUS
10
25.5551719999999989
20
-72.7439210000000003
11
25.4850879999999975
21
-73.6768220000000014
0
LINE
8
BLACK
6
CONTINUOUS
10
25.4850879999999975
20
-73.6768220000000014
11
25.4500209999999996
21
-74.6116959999999949
0
LINE
8
BLACK
6
CONTINUOUS
10
25.4500209999999996
20
-74.6116959999999949
11
25.4499999999999993
21
-75.0794609999999949
0
LINE
8
BLACK
6
CONTINUOUS
10
25.4499999999999993
20
-75.0794609999999949
11
25.4499999999999993
21
-130.9699999999999989
0
LINE
8
BLACK
6
CONTINUOUS
10
25.4499999999999993
20
-130.9699999999999989
11
25.4499999999999993
21
-131.2706569999999999
0
LINE
8
BLACK
6
CONTINUOUS
10
25.4499999999999993
20
-131.2706569999999999
11
25.486307
21
-131.8708749999999839
0
LINE
8
BLACK
6
CONTINUOUS
10
25.486307
20
-131.8708749999999839
11
25.5587869999999988
21
-132.4678049999999985
0
LINE
8
BLACK
6
CONTINUOUS
10
25.5587869999999988
20
-132.4678049999999985
11
25.6671769999999988
21
-133.0592699999999979
0
LINE
8
BLACK
6
CONTINUOUS
10
25.6671769999999988
20
-133.0592699999999979
11
25.8110809999999979
21
-133.6431110000000047
0
LINE
8
BLACK
6
CONTINUOUS
10
25.8110809999999979
20
-133.6431110000000047
11
25.9899740000000001
21
-134.2171989999999937
0
LINE
8
BLACK
6
CONTINUOUS
10
25.9899740000000001
20
-134.2171989999999937
11
26.2032029999999985
21
-134.779437999999999
0
LINE
8
BLACK
6
CONTINUOUS
10
26.2032029999999985
20
-134.779437999999999
11
26.4499909999999971
21
-135.3277769999999975
0
LINE
8
BLACK
6
CONTINUOUS
10
26.4499909999999971
20
-135.3277769999999975
11
26.7294349999999987
21
-135.8602139999999849
0
LINE
8
BLACK
6
CONTINUOUS
10
26.7294349999999987
20
-135.8602139999999849
11
27.0405179999999987
21
-136.3748080000000016
0
LINE
8
BLACK
6
CONTINUOUS
10
27.0405179999999987
20
-136.3748080000000016
11
27.3821039999999982
21
-136.8696799999999882
0
LINE
8
BLACK
6
CONTINUOUS
10
27.3821039999999982
20
-136.8696799999999882
11
27.7529459999999979
21
-137.343024999999983
0
LINE
8
BLACK
6
CONTINUOUS
10
27.7529459999999979
20
-137.343024999999983
11
28.1516909999999996
21
-137.7931150000000002
0
LINE
8
BLACK
6
CONTINUOUS
10
28.1516909999999996
20
-137.7931150000000002
11
28.5768849999999972
21
-138.218309000000005
0
LINE
8
BLACK
6
CONTINUOUS
10
28.5768849999999972
20
-138.218309000000005
11
29.0269750000000002
21
-138.617053999999996
0
LINE
8
BLACK
6
CONTINUOUS
10
29.0269750000000002
20
-138.617053999999996
11
29.5003199999999985
21
-138.9878960000000063
0
LINE
8
BLACK
6
CONTINUOUS
10
29.5003199999999985
20
-138.9878960000000063
11
29.9951919999999994
21
-139.3294819999999845
0
LINE
8
BLACK
6
CONTINUOUS
10
29.9951919999999994
20
-139.3294819999999845
11
30.5097859999999983
21
-139.640564999999981
0
LINE
8
BLACK
6
CONTINUOUS
10
30.5097859999999983
20
-139.640564999999981
11
31.0422229999999999
21
-139.9200089999999932
0
LINE
8
BLACK
6
CONTINUOUS
10
31.0422229999999999
20
-139.9200089999999932
11
31.5905619999999985
21
-140.1667970000000025
0
LINE
8
BLACK
6
CONTINUOUS
10
31.5905619999999985
20
-140.1667970000000025
11
32.1528009999999966
21
-140.3800259999999867
0
LINE
8
BLACK
6
CONTINUOUS
10
32.1528009999999966
20
-140.3800259999999867
11
32.7268889999999999
21
-140.5589190000000031
0
LINE
8
BLACK
6
CONTINUOUS
10
32.7268889999999999
20
-140.5589190000000031
11
33.3107299999999995
21
-140.7028229999999951
0
LINE
8
BLACK
6
CONTINUOUS
10
33.3107299999999995
20
-140.7028229999999951
11
33.902194999999999
21
-140.8112129999999809
0
LINE
8
BLACK
6
CONTINUOUS
10
33.902194999999999
20
-140.8112129999999809
11
34.4991249999999994
21
-140.8836929999999938
0
LINE
8
BLACK
6
CONTINUOUS
10
34.4991249999999994
20
-140.8836929999999938
11
35.0993429999999975
21
-140.9199999999999875
0
LINE
8
BLACK
6
CONTINUOUS
10
35.0993429999999975
20
-140.9199999999999875
11
35.3999999999999986
21
-140.9199999999999875
0
LINE
8
BLACK
6
CONTINUOUS
10
35.3999999999999986
20
-140.9199999999999875
11
158.75
21
-140.9199999999999875
0
LINE
8
BLACK
6
CONTINUOUS
10
158.75
20
-140.9199999999999875
11
159.2189319999999952
21
-140.9199999999999875
0
LINE
8
BLACK
6
CONTINUOUS
10
159.2189319999999952
20
-140.9199999999999875
11
159.6151509999999973
21
-140.9355689999999868
0
LINE
8
BLACK
6
CONTINUOUS
10
159.6151509999999973
20
-140.9355689999999868
11
160.0089269999999999
21
-140.9821770000000072
0
LINE
8
BLACK
6
CONTINUOUS
10
160.0089269999999999
20
-140.9821770000000072
11
160.3978329999999914
21
-141.0595339999999851
0
LINE
8
BLACK
6
CONTINUOUS
10
160.3978329999999914
20
-141.0595339999999851
11
160.7794700000000034
21
-141.1671659999999804
0
LINE
8
BLACK
6
CONTINUOUS
10
160.7794700000000034
20
-141.1671659999999804
11
161.151487000000003
21
-141.3044069999999977
0
LINE
8
BLACK
6
CONTINUOUS
10
161.151487000000003
20
-141.3044069999999977
11
161.511589999999984
21
-141.4704119999999818
0
LINE
8
BLACK
6
CONTINUOUS
10
161.511589999999984
20
-141.4704119999999818
11
161.8575589999999806
21
-141.6641579999999863
0
LINE
8
BLACK
6
CONTINUOUS
10
161.8575589999999806
20
-141.6641579999999863
11
162.1872610000000066
21
-141.8844499999999869
0
LINE
8
BLACK
6
CONTINUOUS
10
162.1872610000000066
20
-141.8844499999999869
11
162.4986629999999934
21
-142.1299300000000017
0
LINE
8
BLACK
6
CONTINUOUS
10
162.4986629999999934
20
-142.1299300000000017
11
162.789845999999983
21
-142.3990839999999878
0
LINE
8
BLACK
6
CONTINUOUS
10
162.789845999999983
20
-142.3990839999999878
11
162.7898199999999918
21
-142.3991100000000074
0
LINE
8
BLACK
6
CONTINUOUS
10
162.7898199999999918
20
-142.3991100000000074
11
162.7898209999999892
21
-142.3991110000000049
0
LINE
8
BLACK
6
CONTINUOUS
10
162.7898209999999892
20
-142.3991110000000049
11
198.429821000000004
21
-178.0391099999999938
0
LINE
8
BLACK
6
CONTINUOUS
10
198.429821000000004
20
-178.0391099999999938
11
198.429821000000004
21
-178.0391109999999912
0
LINE
8
BLACK
6
CONTINUOUS
10
198.429821000000004
20
-178.0391109999999912
11
198.5826419999999928
21
-178.19193199999998
0
LINE
8
BLACK
6
CONTINUOUS
10
198.5826419999999928
20
-178.19193199999998
11
198.9137599999999964
21
-178.4697720000000061
0
LINE
8
BLACK
6
CONTINUOUS
10
198.9137599999999964
20
-178.4697720000000061
11
199.267832999999996
21
-178.7176969999999869
0
LINE
8
BLACK
6
CONTINUOUS
10
199.267832999999996
20
-178.7176969999999869
11
199.6421670000000006
21
-178.9338189999999997
0
LINE
8
BLACK
6
CONTINUOUS
10
199.6421670000000006
20
-178.9338189999999997
11
200.0339119999999866
21
-179.1164929999999913
0
LINE
8
BLACK
6
CONTINUOUS
10
200.0339119999999866
20
-179.1164929999999913
11
200.4400880000000029
21
-179.2643290000000036
0
LINE
8
BLACK
6
CONTINUOUS
10
200.4400880000000029
20
-179.2643290000000036
11
200.8576029999999832
21
-179.3762009999999805
0
LINE
8
BLACK
6
CONTINUOUS
10
200.8576029999999832
20
-179.3762009999999805
11
201.2832799999999907
21
-179.4512599999999907
0
LINE
8
BLACK
6
CONTINUOUS
10
201.2832799999999907
20
-179.4512599999999907
11
201.713877999999994
21
-179.4889320000000055
0
LINE
8
BLACK
6
CONTINUOUS
10
201.713877999999994
20
-179.4889320000000055
11
202.1461219999999912
21
-179.4889320000000055
0
LINE
8
BLACK
6
CONTINUOUS
10
202.1461219999999912
20
-179.4889320000000055
11
202.5767199999999946
21
-179.4512599999999907
0
LINE
8
BLACK
6
CONTINUOUS
10
202.5767199999999946
20
-179.4512599999999907
11
203.002397000000002
21
-179.3762009999999805
0
LINE
8
BLACK
6
CONTINUOUS
10
203.002397000000002
20
-179.3762009999999805
11
203.4199119999999823
21
-179.2643290000000036
0
LINE
8
BLACK
6
CONTINUOUS
10
203.4199119999999823
20
-179.2643290000000036
11
203.8260879999999986
21
-179.1164929999999913
0
LINE
8
BLACK
6
CONTINUOUS
10
203.8260879999999986
20
-179.1164929999999913
11
204.2178329999999846
21
-178.9338189999999997
0
LINE
8
BLACK
6
CONTINUOUS
10
204.2178329999999846
20
-178.9338189999999997
11
204.5921669999999892
21
-178.7176969999999869
0
LINE
8
BLACK
6
CONTINUOUS
10
204.5921669999999892
20
-178.7176969999999869
11
204.9462399999999889
21
-178.4697720000000061
0
LINE
8
BLACK
6
CONTINUOUS
10
204.9462399999999889
20
-178.4697720000000061
11
205.2773579999999924
21
-178.19193199999998
0
LINE
8
BLACK
6
CONTINUOUS
10
205.2773579999999924
20
-178.19193199999998
11
205.4301789999999812
21
-178.0391109999999912
0
LINE
8
BLACK
6
CONTINUOUS
10
205.4301789999999812
20
-178.0391109999999912
11
228.8391110000000026
21
-154.6301789999999983
0
LINE
8
BLACK
6
CONTINUOUS
10
228.8391110000000026
20
-154.6301789999999983
11
228.8391099999999767
21
-154.6301780000000008
0
LINE
8
BLACK
6
CONTINUOUS
10
228.8391099999999767
20
-154.6301780000000008
11
228.9919299999999964
21
-154.4773569999999836
0
LINE
8
BLACK
6
CONTINUOUS
10
228.9919299999999964
20
-154.4773569999999836
11
229.2697689999999966
21
-154.14623899999998
0
LINE
8
BLACK
6
CONTINUOUS
10
229.2697689999999966
20
-154.14623899999998
11
229.5176919999999825
21
-153.7921649999999829
0
LINE
8
BLACK
6
CONTINUOUS
10
229.5176919999999825
20
-153.7921649999999829
11
229.7338129999999978
21
-153.4178310000000067
0
LINE
8
BLACK
6
CONTINUOUS
10
229.7338129999999978
20
-153.4178310000000067
11
229.9164849999999944
21
-153.0260859999999923
0
LINE
8
BLACK
6
CONTINUOUS
10
229.9164849999999944
20
-153.0260859999999923
11
230.0643199999999808
21
-152.6199100000000044
0
LINE
8
BLACK
6
CONTINUOUS
10
230.0643199999999808
20
-152.6199100000000044
11
230.1761919999999861
21
-152.2023949999999957
0
LINE
8
BLACK
6
CONTINUOUS
10
230.1761919999999861
20
-152.2023949999999957
11
230.2512499999999989
21
-151.7767189999999857
0
LINE
8
BLACK
6
CONTINUOUS
10
230.2512499999999989
20
-151.7767189999999857
11
230.2889219999999852
21
-151.3461209999999824
0
LINE
8
BLACK
6
CONTINUOUS
10
230.2889219999999852
20
-151.3461209999999824
11
230.2889219999999852
21
-150.9138789999999801
0
LINE
8
BLACK
6
CONTINUOUS
10
230.2889219999999852
20
-150.9138789999999801
11
230.2512499999999989
21
-150.4832810000000052
0
LINE
8
BLACK
6
CONTINUOUS
10
230.2512499999999989
20
-150.4832810000000052
11
230.1761919999999861
21
-150.0576049999999952
0
LINE
8
BLACK
6
CONTINUOUS
10
230.1761919999999861
20
-150.0576049999999952
11
230.0643199999999808
21
-149.6400899999999865
0
LINE
8
BLACK
6
CONTINUOUS
10
230.0643199999999808
20
-149.6400899999999865
11
229.9164849999999944
21
-149.2339139999999986
0
LINE
8
BLACK
6
CONTINUOUS
10
229.9164849999999944
20
-149.2339139999999986
11
229.7338129999999978
21
-148.8421689999999842
0
LINE
8
BLACK
6
CONTINUOUS
10
229.7338129999999978
20
-148.8421689999999842
11
229.5176919999999825
21
-148.4678349999999796
0
LINE
8
BLACK
6
CONTINUOUS
10
229.5176919999999825
20
-148.4678349999999796
11
229.2697689999999966
21
-148.1137609999999825
0
LINE
8
BLACK
6
CONTINUOUS
10
229.2697689999999966
20
-148.1137609999999825
11
228.9919299999999964
21
-147.7826430000000073
0
LINE
8
BLACK
6
CONTINUOUS
10
228.9919299999999964
20
-147.7826430000000073
11
228.8391099999999767
21
-147.6298219999999901
0
LINE
8
BLACK
6
CONTINUOUS
10
228.8391099999999767
20
-147.6298219999999901
11
228.8391099999999767
21
-147.6298209999999926
0
LINE
8
BLACK
6
CONTINUOUS
10
228.8391099999999767
20
-147.6298209999999926
11
223.1869749999999897
21
-141.9776849999999797
0
LINE
8
BLACK
6
CONTINUOUS
10
223.1869749999999897
20
-141.9776849999999797
11
222.5370519999999885
21
-141.3029870000000017
0
LINE
8
BLACK
6
CONTINUOUS
10
222.5370519999999885
20
-141.3029870000000017
11
221.912809999999979
21
-140.6044589999999914
0
LINE
8
BLACK
6
CONTINUOUS
10
221.912809999999979
20
-140.6044589999999914
11
221.3151249999999948
21
-139.8830789999999809
0
LINE
8
BLACK
6
CONTINUOUS
10
221.3151249999999948
20
-139.8830789999999809
11
220.744829999999979
21
-139.139854999999983
0
LINE
8
BLACK
6
CONTINUOUS
10
220.744829999999979
20
-139.139854999999983
11
220.2027239999999892
21
-138.3758259999999893
0
LINE
8
BLACK
6
CONTINUOUS
10
220.2027239999999892
20
-138.3758259999999893
11
219.689565999999985
21
-137.5920619999999985
0
LINE
8
BLACK
6
CONTINUOUS
10
219.689565999999985
20
-137.5920619999999985
11
219.2060719999999776
21
-136.7896580000000029
0
LINE
8
BLACK
6
CONTINUOUS
10
219.2060719999999776
20
-136.7896580000000029
11
218.7529189999999915
21
-135.9697369999999808
0
LINE
8
BLACK
6
CONTINUOUS
10
218.7529189999999915
20
-135.9697369999999808
11
218.3307409999999891
21
-135.1334459999999922
0
LINE
8
BLACK
6
CONTINUOUS
10
218.3307409999999891
20
-135.1334459999999922
11
217.9401279999999872
21
-134.2819529999999872
0
LINE
8
BLACK
6
CONTINUOUS
10
217.9401279999999872
20
-134.2819529999999872
11
217.581626
21
-133.416450999999995
0
LINE
8
BLACK
6
CONTINUOUS
10
217.581626
20
-133.416450999999995
11
217.2557379999999796
21
-132.5381490000000042
0
LINE
8
BLACK
6
CONTINUOUS
10
217.2557379999999796
20
-132.5381490000000042
11
216.9629180000000019
21
-131.6482749999999839
0
LINE
8
BLACK
6
CONTINUOUS
10
216.9629180000000019
20
-131.6482749999999839
11
216.7035759999999982
21
-130.7480759999999975
0
LINE
8
BLACK
6
CONTINUOUS
10
216.7035759999999982
20
-130.7480759999999975
11
216.4780749999999898
21
-129.8388080000000002
0
LINE
8
BLACK
6
CONTINUOUS
10
216.4780749999999898
20
-129.8388080000000002
11
216.2867310000000032
21
-128.9217449999999872
0
LINE
8
BLACK
6
CONTINUOUS
10
216.2867310000000032
20
-128.9217449999999872
11
216.129809999999992
21
-127.9981679999999926
0
LINE
8
BLACK
6
CONTINUOUS
10
216.129809999999992
20
-127.9981679999999926
11
216.0075329999999951
21
-127.0693699999999922
0
LINE
8
BLACK
6
CONTINUOUS
10
216.0075329999999951
20
-127.0693699999999922
11
215.9200699999999813
21
-126.1366489999999914
0
LINE
8
BLACK
6
CONTINUOUS
10
215.9200699999999813
20
-126.1366489999999914
11
215.867543999999981
21
-125.2013099999999923
0
LINE
8
BLACK
6
CONTINUOUS
10
215.867543999999981
20
-125.2013099999999923
11
215.8500289999999779
21
-124.2647309999999976
0
LINE
8
BLACK
6
CONTINUOUS
10
215.8500289999999779
20
-124.2647309999999976
11
215.8499999999999943
21
-124.2646609999999896
0
LINE
8
BLACK
6
CONTINUOUS
10
215.8499999999999943
20
-124.2646609999999896
11
215.8499999999999943
21
-51.9899999999999949
0
LINE
8
BLACK
6
CONTINUOUS
10
215.8499999999999943
20
-51.9899999999999949
11
215.8499999999999943
21
-51.7738779999999963
0
LINE
8
BLACK
6
CONTINUOUS
10
215.8499999999999943
20
-51.7738779999999963
11
215.8123279999999795
21
-51.34328
0
LINE
8
BLACK
6
CONTINUOUS
10
215.8123279999999795
20
-51.34328
11
215.7372689999999977
21
-50.9176029999999997
0
LINE
8
BLACK
6
CONTINUOUS
10
215.7372689999999977
20
-50.9176029999999997
11
215.6253969999999924
21
-50.5000879999999981
0
LINE
8
BLACK
6
CONTINUOUS
10
215.6253969999999924
20
-50.5000879999999981
11
215.4775609999999801
21
-50.093911999999996
0
LINE
8
BLACK
6
CONTINUOUS
10
215.4775609999999801
20
-50.093911999999996
11
215.2948869999999886
21
-49.7021669999999958
0
LINE
8
BLACK
6
CONTINUOUS
10
215.2948869999999886
20
-49.7021669999999958
11
215.0787650000000042
21
-49.3278329999999983
0
LINE
8
BLACK
6
CONTINUOUS
10
215.0787650000000042
20
-49.3278329999999983
11
214.8308399999999949
21
-48.9737599999999986
0
LINE
8
BLACK
6
CONTINUOUS
10
214.8308399999999949
20
-48.9737599999999986
11
214.5529999999999973
21
-48.6426419999999951
0
LINE
8
BLACK
6
CONTINUOUS
10
214.5529999999999973
20
-48.6426419999999951
11
214.2473579999999913
21
-48.3369999999999962
0
LINE
8
BLACK
6
CONTINUOUS
10
214.2473579999999913
20
-48.3369999999999962
11
213.9162399999999877
21
-48.0591599999999985
0
LINE
8
BLACK
6
CONTINUOUS
10
213.9162399999999877
20
-48.0591599999999985
11
213.5621669999999881
21
-47.8112349999999964
0
LINE
8
BLACK
6
CONTINUOUS
10
213.5621669999999881
20
-47.8112349999999964
11
213.1878329999999835
21
-47.5951129999999978
0
LINE
8
BLACK
6
CONTINUOUS
10
213.1878329999999835
20
-47.5951129999999978
11
212.7960879999999975
21
-47.4124389999999991
0
LINE
8
BLACK
6
CONTINUOUS
10
212.7960879999999975
20
-47.4124389999999991
11
212.3899119999999812
21
-47.264603000000001
0
LINE
8
BLACK
6
CONTINUOUS
10
212.3899119999999812
20
-47.264603000000001
11
211.9723970000000008
21
-47.1527309999999957
0
LINE
8
BLACK
6
CONTINUOUS
10
211.9723970000000008
20
-47.1527309999999957
11
211.5467199999999934
21
-47.0776719999999997
0
LINE
8
BLACK
6
CONTINUOUS
10
211.5467199999999934
20
-47.0776719999999997
11
211.1161219999999901
21
-47.0399999999999991
0
LINE
8
BLACK
6
CONTINUOUS
10
211.1161219999999901
20
-47.0399999999999991
11
210.8999999999999773
21
-47.0399999999999991
0
LINE
8
BLACK
6
CONTINUOUS
10
210.8999999999999773
20
-47.0399999999999991
11
202.7516999999999996
21
-47.0399999999999991
0
LINE
8
BLACK
6
CONTINUOUS
10
202.7516999999999996
20
-47.0399999999999991
11
201.858475999999996
21
-47.0240699999999947
0
LINE
8
BLACK
6
CONTINUOUS
10
201.858475999999996
20
-47.0240699999999947
11
200.9663879999999949
21
-46.9762989999999974
0
LINE
8
BLACK
6
CONTINUOUS
10
200.9663879999999949
20
-46.9762989999999974
11
200.0765710000000013
21
-46.8967499999999973
0
LINE
8
BLACK
6
CONTINUOUS
10
200.0765710000000013
20
-46.8967499999999973
11
199.1901560000000018
21
-46.7855220000000003
0
LINE
8
BLACK
6
CONTINUOUS
10
199.1901560000000018
20
-46.7855220000000003
11
198.3082719999999881
21
-46.642756999999996
0
LINE
8
BLACK
6
CONTINUOUS
10
198.3082719999999881
20
-46.642756999999996
11
197.4320379999999773
21
-46.4686379999999986
0
LINE
8
BLACK
6
CONTINUOUS
10
197.4320379999999773
20
-46.4686379999999986
11
196.5625709999999913
21
-46.263383999999995
0
LINE
8
BLACK
6
CONTINUOUS
10
196.5625709999999913
20
-46.263383999999995
11
195.7009749999999997
21
-46.0272579999999962
0
LINE
8
BLACK
6
CONTINUOUS
10
195.7009749999999997
20
-46.0272579999999962
11
194.8483469999999897
21
-45.7605599999999981
0
LINE
8
BLACK
6
CONTINUOUS
10
194.8483469999999897
20
-45.7605599999999981
11
194.0057709999999815
21
-45.4636279999999999
0
LINE
8
BLACK
6
CONTINUOUS
10
194.0057709999999815
20
-45.4636279999999999
11
193.1743179999999995
21
-45.1368409999999969
0
LINE
8
BLACK
6
CONTINUOUS
10
193.1743179999999995
20
-45.1368409999999969
11
192.3550469999999848
21
-44.7806149999999974
0
LINE
8
BLACK
6
CONTINUOUS
10
192.3550469999999848
20
-44.7806149999999974
11
191.5489989999999807
21
-44.3954009999999997
0
LINE
8
BLACK
6
CONTINUOUS
10
191.5489989999999807
20
-44.3954009999999997
11
167.4362779999999873
21
-32.3390399999999971
0
LINE
8
BLACK
6
CONTINUOUS
10
167.4362779999999873
20
-32.3390399999999971
11
167.4362779999999873
21
-32.3390410000000017
0
LINE
8
BLACK
6
CONTINUOUS
10
167.4362779999999873
20
-32.3390410000000017
11
167.0373319999999921
21
-32.1395809999999997
0
LINE
8
BLACK
6
CONTINUOUS
10
167.0373319999999921
20
-32.1395809999999997
11
166.2257009999999866
21
-31.7694130000000001
0
LINE
8
BLACK
6
CONTINUOUS
10
166.2257009999999866
20
-31.7694130000000001
11
165.4013579999999877
21
-31.4284919999999985
0
LINE
8
BLACK
6
CONTINUOUS
10
165.4013579999999877
20
-31.4284919999999985
11
164.5653570000000059
21
-31.1172529999999981
0
LINE
8
BLACK
6
CONTINUOUS
10
164.5653570000000059
20
-31.1172529999999981
11
163.7187649999999906
21
-30.8360929999999982
0
LINE
8
BLACK
6
CONTINUOUS
10
163.7187649999999906
20
-30.8360929999999982
11
162.8626649999999927
21
-30.5853719999999996
0
LINE
8
BLACK
6
CONTINUOUS
10
162.8626649999999927
20
-30.5853719999999996
11
161.9981499999999812
21
-30.3654099999999971
0
LINE
8
BLACK
6
CONTINUOUS
10
161.9981499999999812
20
-30.3654099999999971
11
161.1263260000000059
21
-30.1764890000000001
0
LINE
8
BLACK
6
CONTINUOUS
10
161.1263260000000059
20
-30.1764890000000001
11
160.2483069999999827
21
-30.0188489999999994
0
LINE
8
BLACK
6
CONTINUOUS
10
160.2483069999999827
20
-30.0188489999999994
11
159.806761999999992
21
-29.9557599999999979
0
LINE
8
BLACK
6
CONTINUOUS
10
159.806761999999992
20
-29.9557599999999979
11
121.1317679999999939
21
-24.4307599999999994
0
LINE
8
BLACK
6
CONTINUOUS
10
121.1317679999999939
20
-24.4307599999999994
11
121.1317679999999939
21
-24.4307610000000004
0
LINE
8
BLACK
6
CONTINUOUS
10
121.1317679999999939
20
-24.4307610000000004
11
120.7812709999999896
21
-24.3806809999999992
0
LINE
8
BLACK
6
CONTINUOUS
10
120.7812709999999896
20
-24.3806809999999992
11
120.0777140000000003
21
-24.3004699999999971
0
LINE
8
BLACK
6
CONTINUOUS
10
120.0777140000000003
20
-24.3004699999999971
11
119.3721649999999954
21
-24.2402549999999977
0
LINE
8
BLACK
6
CONTINUOUS
10
119.3721649999999954
20
-24.2402549999999977
11
118.665190999999993
21
-24.2000840000000004
0
LINE
8
BLACK
6
CONTINUOUS
10
118.665190999999993
20
-24.2000840000000004
11
117.9573619999999892
21
-24.1799909999999976
0
LINE
8
BLACK
6
CONTINUOUS
10
117.9573619999999892
20
-24.1799909999999976
11
117.6033049999999918
21
-24.1799999999999997
  0
ENDSEC
  0
EOF
