M48
; DRILL file {KiCad 7.0.9} date Sat 18 Nov 2023 07:24:32 PM WIB
; FORMAT={-:-/ absolute / metric / decimal}
; #@! TF.CreationDate,2023-11-18T19:24:32+07:00
; #@! TF.GenerationSoftware,Kicad,Pcbnew,7.0.9
; #@! TF.FileFunction,NonPlated,1,2,NPTH
FMAT,2
METRIC
; #@! TA.AperFunction,NonPlated,NPTH,ComponentDrill
T1C1.702
; #@! TA.AperFunction,NonPlated,NPTH,ComponentDrill
T2C3.250
; #@! TA.AperFunction,NonPlated,NPTH,ComponentDrill
T3C3.988
%
G90
G05
T1
X35.56Y-81.28
X35.56Y-101.6
X35.56Y-121.92
X40.64Y-60.96
X45.72Y-81.28
X45.72Y-101.6
X45.72Y-121.92
X50.8Y-60.96
X60.96Y-48.26
X60.96Y-68.58
X60.96Y-88.9
X60.96Y-109.22
X60.96Y-129.54
X71.12Y-48.26
X71.12Y-68.58
X71.12Y-88.9
X71.12Y-109.22
X71.12Y-129.54
X81.28Y-43.18
X81.28Y-63.5
X81.28Y-83.82
X81.28Y-104.14
X81.28Y-124.46
X91.44Y-43.18
X91.44Y-63.5
X91.44Y-83.82
X91.44Y-104.14
X91.44Y-124.46
X101.6Y-35.56
X101.6Y-55.88
X101.6Y-76.208
X101.6Y-96.52
X101.6Y-116.84
X111.76Y-35.56
X111.76Y-55.88
X111.76Y-76.208
X111.76Y-96.52
X111.76Y-116.84
X121.92Y-38.1
X121.92Y-58.42
X121.92Y-78.74
X121.92Y-99.06
X121.92Y-119.38
X132.08Y-38.1
X132.08Y-58.42
X132.08Y-78.74
X132.08Y-99.06
X132.08Y-119.38
X142.24Y-43.18
X142.24Y-63.5
X142.24Y-83.82
X142.24Y-104.14
X142.24Y-124.46
X152.4Y-43.18
X152.4Y-63.5
X152.4Y-83.82
X152.4Y-104.14
X152.4Y-124.46
X162.56Y-48.26
X162.56Y-68.58
X162.56Y-88.9
X162.56Y-109.22
X170.281Y-140.445
X172.72Y-48.26
X172.72Y-68.58
X172.72Y-88.9
X172.72Y-109.22
X177.465Y-133.261
X182.88Y-58.42
X182.88Y-79.112
X182.88Y-99.06
X184.033Y-126.693
X184.368Y-154.722
X191.217Y-119.509
X191.552Y-147.538
X193.04Y-58.42
X193.04Y-79.112
X193.04Y-99.06
X198.338Y-140.752
X198.338Y-168.692
X205.522Y-133.568
X205.522Y-161.508
X212.308Y-154.722
X219.492Y-147.538
T2
X211.94Y-93.98
X211.94Y-104.14
X211.94Y-104.14
X211.94Y-114.3
T3
X40.64Y-81.28
X40.64Y-101.6
X40.64Y-121.92
X45.72Y-60.96
X66.04Y-48.26
X66.04Y-68.58
X66.04Y-88.9
X66.04Y-109.22
X66.04Y-129.54
X86.36Y-43.18
X86.36Y-63.5
X86.36Y-83.82
X86.36Y-104.14
X86.36Y-124.46
X106.68Y-35.56
X106.68Y-55.88
X106.68Y-76.208
X106.68Y-96.52
X106.68Y-116.84
X127.0Y-38.1
X127.0Y-58.42
X127.0Y-78.74
X127.0Y-99.06
X127.0Y-119.38
X147.32Y-43.18
X147.32Y-63.5
X147.32Y-83.82
X147.32Y-104.14
X147.32Y-124.46
X167.64Y-48.26
X167.64Y-68.58
X167.64Y-88.9
X167.64Y-109.22
X173.873Y-136.853
X187.625Y-123.101
X187.96Y-58.42
X187.96Y-79.112
X187.96Y-99.06
X187.96Y-151.13
X201.93Y-137.16
X201.93Y-165.1
X215.9Y-151.13
T0
M30
